<svg width="250" height="250" viewBox="0 0 250 250" fill="none" xmlns="http://www.w3.org/2000/svg">
<mask id="mask0_216_58" style="mask-type:alpha" maskUnits="userSpaceOnUse" x="4" y="22" width="242" height="221">
<path d="M56.6276 102.213C56.6852 102 57 102.041 57 102.263V238C57 240.761 59.2386 243 62 243H188C190.761 243 193 240.761 193 238V102.263C193 102.041 193.315 102 193.372 102.213L206.43 148.265C207.175 150.892 209.89 152.436 212.528 151.732L242.192 143.825C244.851 143.117 246.438 140.392 245.742 137.73L228.131 70.3473C221.592 46.8805 207.181 38.4826 193 35.5382C186.721 34.2345 180.486 34 175 34H75C69.5139 34 63.2794 34.2345 57 35.5382C42.8187 38.4826 28.408 46.8805 21.869 70.3473L4.25819 137.73C3.56233 140.392 5.14881 143.117 7.80791 143.825L37.472 151.732C40.1105 152.436 42.8253 150.892 43.5701 148.265L56.6276 102.213Z" fill="#D9D9D9"/>
<path d="M93 23.1941C93 22.5716 93.5705 22.1019 94.1838 22.2091C117.711 26.3258 131.601 26.3065 155.821 22.2016C156.433 22.0979 157 22.567 157 23.1873V46C157 46.5523 156.552 47 156 47H94C93.4477 47 93 46.5523 93 46V23.1941Z" fill="#D9D9D9"/>
</mask>
<g mask="url(#mask0_216_58)">
<path d="M56.6276 102.213C56.6852 102 57 102.041 57 102.263V238C57 240.761 59.2386 243 62 243H188C190.761 243 193 240.761 193 238V102.263C193 102.041 193.315 102 193.372 102.213L206.43 148.265C207.175 150.892 209.89 152.436 212.528 151.732L242.192 143.825C244.851 143.117 246.438 140.392 245.742 137.73L228.131 70.3473C221.592 46.8805 207.181 38.4826 193 35.5382C186.721 34.2345 180.486 34 175 34H75C69.5139 34 63.2794 34.2345 57 35.5382C42.8187 38.4826 28.408 46.8805 21.869 70.3473L4.25819 137.73C3.56233 140.392 5.14881 143.117 7.80791 143.825L37.472 151.732C40.1105 152.436 42.8253 150.892 43.5701 148.265L56.6276 102.213Z" fill="#010101"/>
<path d="M93 23.1941C93 22.5716 93.5705 22.1019 94.1838 22.2091C117.711 26.3258 131.601 26.3065 155.821 22.2016C156.433 22.0979 157 22.567 157 23.1873V46C157 46.5523 156.552 47 156 47H94C93.4477 47 93 46.5523 93 46V23.1941Z" fill="#010101"/>
<path d="M107.889 140C99.4467 140 96.7603 128.62 104.311 124.845L164.422 94.7889C169.742 92.1292 176 95.9972 176 101.944V132C176 136.418 172.418 140 168 140H107.889Z" fill="#030DCE"/>
<path d="M85.5777 134.211C80.2585 136.871 74 133.003 74 127.056V97C74 92.5817 77.5817 89 82 89H142.111C150.553 89 153.24 100.38 145.689 104.155L85.5777 134.211Z" fill="#FC0104"/>
</g>
</svg>
