<svg width="250" height="250" viewBox="0 0 250 250" fill="none" xmlns="http://www.w3.org/2000/svg">
<mask id="mask0_230_127" style="mask-type:alpha" maskUnits="userSpaceOnUse" x="4" y="22" width="242" height="221">
<path d="M56.6276 102.213C56.6852 102 57 102.041 57 102.263V238C57 240.761 59.2386 243 62 243H188C190.761 243 193 240.761 193 238V102.263C193 102.041 193.315 102 193.372 102.213L206.43 148.265C207.175 150.892 209.89 152.436 212.528 151.732L242.192 143.825C244.851 143.117 246.438 140.392 245.742 137.73L228.131 70.3473C221.592 46.8805 207.181 38.4826 193 35.5382C186.721 34.2345 180.486 34 175 34H75C69.5139 34 63.2794 34.2345 57 35.5382C42.8187 38.4826 28.408 46.8805 21.869 70.3473L4.25819 137.73C3.56233 140.392 5.14881 143.117 7.80791 143.825L37.472 151.732C40.1105 152.436 42.8253 150.892 43.5701 148.265L56.6276 102.213Z" fill="#D9D9D9"/>
<path d="M93 23.1941C93 22.5716 93.5705 22.1019 94.1838 22.2091C117.711 26.3258 131.601 26.3065 155.821 22.2016C156.433 22.0979 157 22.567 157 23.1873V46C157 46.5523 156.552 47 156 47H94C93.4477 47 93 46.5523 93 46V23.1941Z" fill="#D9D9D9"/>
</mask>
<g mask="url(#mask0_230_127)">
<path d="M56.6276 102.213C56.6852 102 57 102.041 57 102.263V238C57 240.761 59.2386 243 62 243H188C190.761 243 193 240.761 193 238V102.263C193 102.041 193.315 102 193.372 102.213L206.43 148.265C207.175 150.892 209.89 152.436 212.528 151.732L242.192 143.825C244.851 143.117 246.438 140.392 245.742 137.73L228.131 70.3473C221.592 46.8805 207.181 38.4826 193 35.5382C186.721 34.2345 180.486 34 175 34H75C69.5139 34 63.2794 34.2345 57 35.5382C42.8187 38.4826 28.408 46.8805 21.869 70.3473L4.25819 137.73C3.56233 140.392 5.14881 143.117 7.80791 143.825L37.472 151.732C40.1105 152.436 42.8253 150.892 43.5701 148.265L56.6276 102.213Z" fill="#5C6672"/>
<path d="M93 23.1941C93 22.5716 93.5705 22.1019 94.1838 22.2091C117.711 26.3258 131.601 26.3065 155.821 22.2016C156.433 22.0979 157 22.567 157 23.1873V46C157 46.5523 156.552 47 156 47H94C93.4477 47 93 46.5523 93 46V23.1941Z" fill="#5C6672"/>
<rect x="57" y="118" width="136" height="51" fill="white"/>
<path d="M125 88C132.287 88 138.744 91.5434 142.748 97H163V122H143.44C139.515 128.02 132.723 132 125 132C117.277 132 110.485 128.02 106.56 122H87V97H107.252C111.256 91.5434 117.713 88 125 88Z" fill="#CD0005"/>
<path d="M142.748 97L141.539 97.8873L141.988 98.5H142.748V97ZM163 97H164.5V95.5H163V97ZM163 122V123.5H164.5V122H163ZM143.44 122V120.5H142.628L142.184 121.181L143.44 122ZM106.56 122L107.816 121.181L107.372 120.5H106.56V122ZM87 122H85.5V123.5H87V122ZM87 97V95.5H85.5V97H87ZM107.252 97V98.5H108.012L108.461 97.8873L107.252 97ZM125 88V89.5C131.788 89.5 137.805 92.7991 141.539 97.8873L142.748 97L143.957 96.1127C139.684 90.2877 132.785 86.5 125 86.5V88ZM142.748 97V98.5H163V97V95.5H142.748V97ZM163 97H161.5V122H163H164.5V97H163ZM163 122V120.5H143.44V122V123.5H163V122ZM143.44 122L142.184 121.181C138.524 126.794 132.194 130.5 125 130.5V132V133.5C133.251 133.5 140.506 129.246 144.697 122.819L143.44 122ZM125 132V130.5C117.805 130.5 111.476 126.794 107.816 121.181L106.56 122L105.303 122.819C109.494 129.246 116.749 133.5 125 133.5V132ZM106.56 122V120.5H87V122V123.5H106.56V122ZM87 122H88.5V97H87H85.5V122H87ZM87 97V98.5H107.252V97V95.5H87V97ZM107.252 97L108.461 97.8873C112.195 92.7991 118.212 89.5 125 89.5V88V86.5C117.215 86.5 110.316 90.2877 106.043 96.1127L107.252 97Z" fill="#E7E7F0"/>
</g>
</svg>
