<svg width="250" height="250" viewBox="0 0 250 250" fill="none" xmlns="http://www.w3.org/2000/svg">
<mask id="mask0_216_280" style="mask-type:alpha" maskUnits="userSpaceOnUse" x="4" y="22" width="242" height="221">
<path d="M56.6276 102.213C56.6852 102 57 102.041 57 102.263V238C57 240.761 59.2386 243 62 243H188C190.761 243 193 240.761 193 238V102.263C193 102.041 193.315 102 193.372 102.213L206.43 148.265C207.175 150.892 209.89 152.436 212.528 151.732L242.192 143.825C244.851 143.117 246.438 140.392 245.742 137.73L228.131 70.3473C221.592 46.8805 207.181 38.4826 193 35.5382C186.721 34.2345 180.486 34 175 34H75C69.5139 34 63.2794 34.2345 57 35.5382C42.8187 38.4826 28.408 46.8805 21.869 70.3473L4.25819 137.73C3.56233 140.392 5.14881 143.117 7.80791 143.825L37.472 151.732C40.1105 152.436 42.8253 150.892 43.5701 148.265L56.6276 102.213Z" fill="#D9D9D9"/>
<path d="M93 23.1941C93 22.5716 93.5705 22.1019 94.1838 22.2091C117.711 26.3258 131.601 26.3065 155.821 22.2016C156.433 22.0979 157 22.567 157 23.1873V46C157 46.5523 156.552 47 156 47H94C93.4477 47 93 46.5523 93 46V23.1941Z" fill="#D9D9D9"/>
</mask>
<g mask="url(#mask0_216_280)">
<path d="M93 23.1941C93 22.5716 93.5705 22.1019 94.1838 22.2091C117.711 26.3258 131.601 26.3065 155.821 22.2016C156.433 22.0979 157 22.567 157 23.1873V46C157 46.5523 156.552 47 156 47H94C93.4477 47 93 46.5523 93 46V23.1941Z" fill="#ED4C32"/>
<path d="M56.6276 102.213C56.6852 102 57 102.041 57 102.263V238C57 240.761 59.2386 243 62 243H188C190.761 243 193 240.761 193 238V102.263C193 102.041 193.315 102 193.372 102.213L206.43 148.265C207.175 150.892 209.89 152.436 212.528 151.732L242.192 143.825C244.851 143.117 246.438 140.392 245.742 137.73L228.131 70.3473C221.592 46.8805 207.181 38.4826 193 35.5382C186.721 34.2345 180.486 34 175 34H75C69.5139 34 63.2794 34.2345 57 35.5382C42.8187 38.4826 28.408 46.8805 21.869 70.3473L4.25819 137.73C3.56233 140.392 5.14881 143.117 7.80791 143.825L37.472 151.732C40.1105 152.436 42.8253 150.892 43.5701 148.265L56.6276 102.213Z" fill="#FAE379"/>
<rect x="109" y="43" width="30" height="44" transform="rotate(90 109 43)" fill="#7EADD9"/>
<rect x="57" y="142" width="136" height="101" fill="#1C254C"/>
<rect x="25.334" y="52.2188" width="33.0934" height="36.333" transform="rotate(-54.4944 25.334 52.2188)" fill="#F94550"/>
<rect x="157" y="71.3311" width="26.2916" height="23.0423" transform="rotate(-73.8607 157 71.3311)" fill="#F94550"/>
<rect x="135.685" y="179.038" width="49.1378" height="27.5868" transform="rotate(-66.4291 135.685 179.038)" fill="#F94550"/>
<rect x="228.722" y="156.35" width="49.1378" height="27.5868" transform="rotate(-118.867 228.722 156.35)" fill="#F94550"/>
<rect x="131.627" y="170.606" width="11.5593" height="11.0379" transform="rotate(-62.0777 131.627 170.606)" fill="#F94550"/>
<rect x="117.978" y="128" width="22.8689" height="15.7292" transform="rotate(44.2615 117.978 128)" fill="#F94550"/>
<rect x="97.9705" y="167.274" width="79.9369" height="27.3998" transform="rotate(-42.7625 97.9705 167.274)" fill="#7EADD9"/>
<rect x="155.605" y="173.927" width="39.7583" height="25.3427" transform="rotate(-75.4229 155.605 173.927)" fill="#7EADD9"/>
<rect x="211.2" y="165.809" width="39.7583" height="25.3427" transform="rotate(-115.634 211.2 165.809)" fill="#7EADD9"/>
<rect x="175" y="80.3281" width="58.8005" height="25.3427" transform="rotate(-39.5724 175 80.3281)" fill="#7EADD9"/>
<rect x="175" y="80.3281" width="58.8005" height="25.3427" transform="rotate(-39.5724 175 80.3281)" fill="#7EADD9"/>
<rect x="148.186" y="41.5205" width="45.0243" height="25.3427" transform="rotate(-39.5724 148.186 41.5205)" fill="#7EADD9"/>
<rect x="7.06836" y="121.479" width="41.9029" height="25.3427" transform="rotate(14.0415 7.06836 121.479)" fill="#7EADD9"/>
<rect x="24.1973" y="60.5332" width="53.8954" height="21.6494" transform="rotate(33.9604 24.1973 60.5332)" fill="#7EADD9"/>
<rect x="64.8801" y="59.5288" width="29.6988" height="28.4543" transform="rotate(59.1549 64.8801 59.5288)" fill="#7EADD9"/>
<rect x="75" y="131.906" width="12.3852" height="15.3779" transform="rotate(-53.1148 75 131.906)" fill="#7EADD9"/>
<rect x="69" y="156.129" width="57.8945" height="27.7514" transform="rotate(-54.4944 69 156.129)" fill="#F94550"/>
<rect x="49.6558" y="137.798" width="32.1618" height="17.2587" transform="rotate(-23.448 49.6558 137.798)" fill="#F94550"/>
<rect x="16.6841" y="131" width="32.1618" height="17.2587" transform="rotate(22.7859 16.6841 131)" fill="#F94550"/>
<path d="M57 89C57 77.9543 65.9543 69 77 69H173C184.046 69 193 77.9543 193 89V121H57V89Z" fill="white"/>
<rect x="81" y="87" width="88" height="13" fill="#1C254C"/>
</g>
</svg>
