<svg width="250" height="250" viewBox="0 0 250 250" fill="none" xmlns="http://www.w3.org/2000/svg">
<mask id="mask0_264_540" style="mask-type:alpha" maskUnits="userSpaceOnUse" x="4" y="22" width="242" height="221">
<path d="M56.6276 102.213C56.6852 102 57 102.041 57 102.263V238C57 240.761 59.2386 243 62 243H188C190.761 243 193 240.761 193 238V102.263C193 102.041 193.315 102 193.372 102.213L206.43 148.265C207.175 150.892 209.89 152.436 212.528 151.732L242.192 143.825C244.851 143.117 246.438 140.392 245.742 137.73L228.131 70.3473C221.592 46.8805 207.181 38.4826 193 35.5382C186.721 34.2345 180.486 34 175 34H75C69.5139 34 63.2794 34.2345 57 35.5382C42.8187 38.4826 28.408 46.8805 21.869 70.3473L4.25819 137.73C3.56233 140.392 5.14881 143.117 7.80791 143.825L37.472 151.732C40.1105 152.436 42.8253 150.892 43.5701 148.265L56.6276 102.213Z" fill="#D9D9D9"/>
<path d="M93 23.1941C93 22.5716 93.5705 22.1019 94.1838 22.2091C117.711 26.3258 131.601 26.3065 155.821 22.2016C156.433 22.0979 157 22.567 157 23.1873V46C157 46.5523 156.552 47 156 47H94C93.4477 47 93 46.5523 93 46V23.1941Z" fill="#D9D9D9"/>
</mask>
<g mask="url(#mask0_264_540)">
<path d="M93 23.1941C93 22.5716 93.5705 22.1019 94.1838 22.2091C117.711 26.3258 131.601 26.3065 155.821 22.2016C156.433 22.0979 157 22.567 157 23.1873V46C157 46.5523 156.552 47 156 47H94C93.4477 47 93 46.5523 93 46V23.1941Z" fill="#0B233F"/>
<path d="M56.6276 102.213C56.6852 102 57 102.041 57 102.263V238C57 240.761 59.2386 243 62 243H188C190.761 243 193 240.761 193 238V102.263C193 102.041 193.315 102 193.372 102.213L206.43 148.265C207.175 150.892 209.89 152.436 212.528 151.732L242.192 143.825C244.851 143.117 246.438 140.392 245.742 137.73L228.131 70.3473C221.592 46.8805 207.181 38.4826 193 35.5382C186.721 34.2345 180.486 34 175 34H75C69.5139 34 63.2794 34.2345 57 35.5382C42.8187 38.4826 28.408 46.8805 21.869 70.3473L4.25819 137.73C3.56233 140.392 5.14881 143.117 7.80791 143.825L37.472 151.732C40.1105 152.436 42.8253 150.892 43.5701 148.265L56.6276 102.213Z" fill="#0B233F"/>
<rect x="57" y="146" width="136" height="97" fill="#317F4E"/>
<rect x="8.71387" y="111.295" width="44.9321" height="33" transform="rotate(13.2162 8.71387 111.295)" fill="#317F4E"/>
<rect width="44.9321" height="33" transform="matrix(-0.973514 0.228627 0.228627 0.973514 239.742 111.295)" fill="#317F4E"/>
<circle cx="118.5" cy="173.5" r="10.5" fill="#0B233F"/>
<circle cx="140" cy="158" r="8" fill="#0B233F"/>
<circle cx="151.5" cy="175.5" r="5.5" fill="#0B233F"/>
<path d="M119.484 168.334C126.984 165.598 130.311 163.091 134.465 156.648L140.001 163.744C133.32 166.346 129.984 168.765 125.019 175.43L119.484 168.334Z" fill="#0B233F"/>
<path d="M144.098 158C147.144 165.845 149.679 169.535 155.878 174.681L149.78 178.988C146.916 171.973 144.461 168.289 138 162.307L144.098 158Z" fill="#0B233F"/>
<ellipse cx="149.051" cy="201.864" rx="7.44959" ry="8.65746" transform="rotate(26.2217 149.051 201.864)" fill="#0B233F"/>
<ellipse cx="168.382" cy="197.139" rx="5.67588" ry="6.59616" transform="rotate(26.2217 168.382 197.139)" fill="#0B233F"/>
<ellipse cx="169.326" cy="213.688" rx="3.90217" ry="4.53486" transform="rotate(26.2217 169.326 213.688)" fill="#0B233F"/>
<path d="M151.56 198.351C157.33 198.678 160.361 197.867 165.352 194.403L166.29 201.387C161.09 201.218 158.086 201.961 152.498 205.335L151.56 198.351Z" fill="#0B233F"/>
<path d="M170.991 198.424C170.072 205.181 170.341 208.705 172.411 214.455L166.961 215.729C167.693 209.642 167.473 206.148 165.54 199.697L170.991 198.424Z" fill="#0B233F"/>
<circle cx="44.642" cy="53.6076" r="10.5" transform="rotate(145.352 44.642 53.6076)" fill="#317F4E"/>
<circle cx="35.7674" cy="78.5823" r="8" transform="rotate(145.352 35.7674 78.5823)" fill="#317F4E"/>
<circle cx="16.3572" cy="70.7239" r="5.5" transform="rotate(145.352 16.3572 70.7239)" fill="#317F4E"/>
<path d="M46.7695 58.4167C42.1551 64.9319 40.8429 68.8855 41.0893 76.5478L32.5009 73.8572C36.5175 67.918 37.8867 64.032 38.1811 55.7261L46.7695 58.4167Z" fill="#317F4E"/>
<path d="M32.396 80.9124C25.4301 76.1907 21.2467 74.596 13.221 73.887L15.7894 66.877C22.1339 71.019 26.2481 72.6543 34.9643 73.9023L32.396 80.9124Z" fill="#317F4E"/>
</g>
</svg>
