<svg width="250" height="250" viewBox="0 0 250 250" fill="none" xmlns="http://www.w3.org/2000/svg">
<mask id="mask0_216_252" style="mask-type:alpha" maskUnits="userSpaceOnUse" x="4" y="22" width="242" height="221">
<path d="M56.6276 102.213C56.6852 102 57 102.041 57 102.263V238C57 240.761 59.2386 243 62 243H188C190.761 243 193 240.761 193 238V102.263C193 102.041 193.315 102 193.372 102.213L206.43 148.265C207.175 150.892 209.89 152.436 212.528 151.732L242.192 143.825C244.851 143.117 246.438 140.392 245.742 137.73L228.131 70.3473C221.592 46.8805 207.181 38.4826 193 35.5382C186.721 34.2345 180.486 34 175 34H75C69.5139 34 63.2794 34.2345 57 35.5382C42.8187 38.4826 28.408 46.8805 21.869 70.3473L4.25819 137.73C3.56233 140.392 5.14881 143.117 7.80791 143.825L37.472 151.732C40.1105 152.436 42.8253 150.892 43.5701 148.265L56.6276 102.213Z" fill="#3F509A"/>
<path d="M93 23.1941C93 22.5716 93.5705 22.1019 94.1838 22.2091C117.711 26.3258 131.601 26.3065 155.821 22.2016C156.433 22.0979 157 22.567 157 23.1873V46C157 46.5523 156.552 47 156 47H94C93.4477 47 93 46.5523 93 46V23.1941Z" fill="#3F509A"/>
</mask>
<g mask="url(#mask0_216_252)">
<path d="M56.6276 102.213C56.6852 102 57 102.041 57 102.263V238C57 240.761 59.2386 243 62 243H188C190.761 243 193 240.761 193 238V102.263C193 102.041 193.315 102 193.372 102.213L206.43 148.265C207.175 150.892 209.89 152.436 212.528 151.732L242.192 143.825C244.851 143.117 246.438 140.392 245.742 137.73L228.131 70.3473C221.592 46.8805 207.181 38.4826 193 35.5382C186.721 34.2345 180.486 34 175 34H75C69.5139 34 63.2794 34.2345 57 35.5382C42.8187 38.4826 28.408 46.8805 21.869 70.3473L4.25819 137.73C3.56233 140.392 5.14881 143.117 7.80791 143.825L37.472 151.732C40.1105 152.436 42.8253 150.892 43.5701 148.265L56.6276 102.213Z" fill="#3F509A"/>
<path d="M93 23.1941C93 22.5716 93.5705 22.1019 94.1838 22.2091C117.711 26.3258 131.601 26.3065 155.821 22.2016C156.433 22.0979 157 22.567 157 23.1873V46C157 46.5523 156.552 47 156 47H94C93.4477 47 93 46.5523 93 46V23.1941Z" fill="#3F509A"/>
<path d="M5.59636 129L47 140L42.8983 153.401L1.99999 142.53L5.59636 129Z" fill="#FF2A3C"/>
<path d="M244.404 129L203 140L207.102 153.401L248 142.53L244.404 129Z" fill="#FF2A3C"/>
<path d="M110 37.5L123 39V69.5L110 69V37.5Z" fill="#FD8235"/>
<path d="M110 37.5L123 39V69.5L110 69V37.5Z" fill="#FD8235"/>
<path d="M140 37.5L127 39V69.5L140 69V37.5Z" fill="#FD8235"/>
<path d="M140 37.5L127 39V69.5L140 69V37.5Z" fill="#FD8235"/>
<path d="M111 122.5L123 123V224L111 226V122.5Z" fill="#FD8235"/>
<path d="M139 122.5L127 123V224L139 226V122.5Z" fill="#FD8235"/>
<rect x="79" y="77" width="41" height="38" rx="7" fill="#FF2A3C"/>
<path d="M169.213 92.1122C171.842 94.421 171.786 98.5167 169.097 100.756C159.38 108.845 151.334 113.247 138.819 117.042C135.202 118.139 131.577 115.483 131.401 111.708C130.881 100.554 130.853 92.175 131.397 80.9676C131.575 77.3013 135.022 74.6723 138.57 75.6149C151.262 78.9875 159.353 83.4545 169.213 92.1122Z" fill="#FD8235"/>
</g>
</svg>
