<svg width="250" height="250" viewBox="0 0 250 250" fill="none" xmlns="http://www.w3.org/2000/svg">
<mask id="mask0_170_389" style="mask-type:alpha" maskUnits="userSpaceOnUse" x="4" y="22" width="242" height="221">
<path d="M56.6276 102.213C56.6852 102 57 102.041 57 102.263V238C57 240.761 59.2386 243 62 243H188C190.761 243 193 240.761 193 238V102.263C193 102.041 193.315 102 193.372 102.213L206.43 148.265C207.175 150.892 209.89 152.436 212.528 151.732L242.192 143.825C244.851 143.117 246.438 140.392 245.742 137.73L228.131 70.3473C221.592 46.8805 207.181 38.4826 193 35.5382C186.721 34.2345 180.486 34 175 34H75C69.5139 34 63.2794 34.2345 57 35.5382C42.8187 38.4826 28.408 46.8805 21.869 70.3473L4.25819 137.73C3.56233 140.392 5.14881 143.117 7.80791 143.825L37.472 151.732C40.1105 152.436 42.8253 150.892 43.5701 148.265L56.6276 102.213Z" fill="#D9D9D9"/>
<path d="M93 23.1941C93 22.5716 93.5705 22.1019 94.1838 22.2091C117.711 26.3258 131.601 26.3065 155.821 22.2016C156.433 22.0979 157 22.567 157 23.1873V46C157 46.5523 156.552 47 156 47H94C93.4477 47 93 46.5523 93 46V23.1941Z" fill="#D9D9D9"/>
</mask>
<g mask="url(#mask0_170_389)">
<path d="M56.6276 102.213C56.6852 102 57 102.041 57 102.263V238C57 240.761 59.2386 243 62 243H188C190.761 243 193 240.761 193 238V102.263C193 102.041 193.315 102 193.372 102.213L206.43 148.265C207.175 150.892 209.89 152.436 212.528 151.732L242.192 143.825C244.851 143.117 246.438 140.392 245.742 137.73L228.131 70.3473C221.592 46.8805 207.181 38.4826 193 35.5382C186.721 34.2345 180.486 34 175 34H75C69.5139 34 63.2794 34.2345 57 35.5382C42.8187 38.4826 28.408 46.8805 21.869 70.3473L4.25819 137.73C3.56233 140.392 5.14881 143.117 7.80791 143.825L37.472 151.732C40.1105 152.436 42.8253 150.892 43.5701 148.265L56.6276 102.213Z" fill="#023270"/>
<path d="M86.5 34.5C46.9 40.5 50.3333 82 57 102L49 143L40 155L0.5 144L4 121.5L24.5 54L50.5 32H91.5C91.5 32.5 90.5 33.7 86.5 34.5Z" fill="#FF2C22"/>
<path d="M164 34.5C203.6 40.5 200.167 82 193.5 102L201.5 143L210.5 155L250 144L246.5 121.5L226 54L200 32H159C159 32.5 160 33.7 164 34.5Z" fill="#EEF223"/>
<path d="M125.006 124.502L125.006 30L172.257 77.2512L125.006 124.502Z" fill="#0044BA"/>
<path d="M125.006 30V124.502L77.755 77.2512L125.006 30Z" fill="#0090FE"/>
<rect x="57" y="122" width="136" height="33" fill="#232151"/>
<path d="M93 23.097C93 22.5083 93.5137 22.0477 94.1 22.1011C117.705 24.2518 131.603 24.2419 155.902 22.0977C156.488 22.046 157 22.5062 157 23.0937V34C157 34.5523 156.552 35 156 35H94C93.4477 35 93 34.5523 93 34V23.097Z" fill="#023270"/>
<rect x="98.25" y="63.25" width="53.5" height="53.5" fill="#0048B9" stroke="white" stroke-width="0.5"/>
<circle cx="125" cy="90" r="23" fill="#EEF223" stroke="#FF2C22" stroke-width="2"/>
</g>
</svg>
