<svg width="250" height="250" viewBox="0 0 250 250" fill="none" xmlns="http://www.w3.org/2000/svg">
<mask id="mask0_199_959" style="mask-type:alpha" maskUnits="userSpaceOnUse" x="4" y="22" width="242" height="221">
<path d="M56.6276 102.213C56.6852 102 57 102.041 57 102.263V238C57 240.761 59.2386 243 62 243H188C190.761 243 193 240.761 193 238V102.263C193 102.041 193.315 102 193.372 102.213L206.43 148.265C207.175 150.892 209.89 152.436 212.528 151.732L242.192 143.825C244.851 143.117 246.438 140.392 245.742 137.73L228.131 70.3473C221.592 46.8805 207.181 38.4826 193 35.5382C186.721 34.2345 180.486 34 175 34H75C69.5139 34 63.2794 34.2345 57 35.5382C42.8187 38.4826 28.408 46.8805 21.869 70.3473L4.25819 137.73C3.56233 140.392 5.14881 143.117 7.80791 143.825L37.472 151.732C40.1105 152.436 42.8253 150.892 43.5701 148.265L56.6276 102.213Z" fill="#D9D9D9"/>
<path d="M93 23.1941C93 22.5716 93.5705 22.1019 94.1838 22.2091C117.711 26.3258 131.601 26.3065 155.821 22.2016C156.433 22.0979 157 22.567 157 23.1873V46C157 46.5523 156.552 47 156 47H94C93.4477 47 93 46.5523 93 46V23.1941Z" fill="#D9D9D9"/>
</mask>
<g mask="url(#mask0_199_959)">
<path d="M56.6276 102.213C56.6852 102 57 102.041 57 102.263V238C57 240.761 59.2386 243 62 243H188C190.761 243 193 240.761 193 238V102.263C193 102.041 193.315 102 193.372 102.213L206.43 148.265C207.175 150.892 209.89 152.436 212.528 151.732L242.192 143.825C244.851 143.117 246.438 140.392 245.742 137.73L228.131 70.3473C221.592 46.8805 207.181 38.4826 193 35.5382C186.721 34.2345 180.486 34 175 34H75C69.5139 34 63.2794 34.2345 57 35.5382C42.8187 38.4826 28.408 46.8805 21.869 70.3473L4.25819 137.73C3.56233 140.392 5.14881 143.117 7.80791 143.825L37.472 151.732C40.1105 152.436 42.8253 150.892 43.5701 148.265L56.6276 102.213Z" fill="#004795"/>
<path d="M93 23.1941C93 22.5716 93.5705 22.1019 94.1838 22.2091C117.711 26.3258 131.601 26.3065 155.821 22.2016C156.433 22.0979 157 22.567 157 23.1873V46C157 46.5523 156.552 47 156 47H94C93.4477 47 93 46.5523 93 46V23.1941Z" fill="#004795"/>
<rect x="66" y="116" width="12" height="134" fill="#D93826"/>
<rect x="107" y="128" width="9" height="122" fill="#473688"/>
<rect x="140" y="116" width="12" height="134" fill="#473688"/>
<rect x="182" y="116" width="12" height="134" fill="#2D96B1"/>
<rect x="145" y="35" width="12" height="59" fill="#D93826"/>
<rect x="7.24951" y="123.014" width="28.9295" height="21" transform="rotate(15.2548 7.24951 123.014)" fill="#FF751A"/>
<rect width="28.9296" height="21" transform="matrix(-0.964765 0.263112 0.263112 0.964765 241.91 123.014)" fill="#FF751A"/>
<path d="M57 102C33.5 102 30.5 106.5 27 153L43.4999 156C48 142 57 111.6 57 102Z" fill="#F7ED14"/>
<path d="M193 102C216.5 102 219.5 106.5 223 153L206.5 156C202 142 193 111.6 193 102Z" fill="#F7ED14"/>
<line x1="74" y1="243" x2="74" y2="211" stroke="#F7ED14" stroke-width="2"/>
<path d="M109 243L109 189.5" stroke="#F7ED14" stroke-width="2"/>
<path d="M141 243V175M141 243V175M141 243V175" stroke="#FF751A" stroke-width="2"/>
<path d="M181 102V34" stroke="#FF751A" stroke-width="2"/>
<path d="M150 60V34" stroke="#F7ED14" stroke-width="2"/>
<path d="M105 55.5V34" stroke="#FF751A" stroke-width="2"/>
<path d="M119 71.5V34" stroke="#F7ED14" stroke-width="2"/>
<path d="M179 162L179 243V175" stroke="#F7ED14" stroke-width="2"/>
<path d="M168 135.5L168 243V175" stroke="#FF751A" stroke-width="2"/>
<line x1="75" y1="100.5" x2="175" y2="100.5" stroke="#F7ED14" stroke-width="15"/>
</g>
</svg>
