<svg width="250" height="250" viewBox="0 0 250 250" fill="none" xmlns="http://www.w3.org/2000/svg">
<mask id="mask0_202_1256" style="mask-type:alpha" maskUnits="userSpaceOnUse" x="4" y="22" width="242" height="221">
<path d="M56.6276 102.213C56.6852 102 57 102.041 57 102.263V238C57 240.761 59.2386 243 62 243H188C190.761 243 193 240.761 193 238V102.263C193 102.041 193.315 102 193.372 102.213L206.43 148.265C207.175 150.892 209.89 152.436 212.528 151.732L242.192 143.825C244.851 143.117 246.438 140.392 245.742 137.73L228.131 70.3473C221.592 46.8805 207.181 38.4826 193 35.5382C186.721 34.2345 180.486 34 175 34H75C69.5139 34 63.2794 34.2345 57 35.5382C42.8187 38.4826 28.408 46.8805 21.869 70.3473L4.25819 137.73C3.56233 140.392 5.14881 143.117 7.80791 143.825L37.472 151.732C40.1105 152.436 42.8253 150.892 43.5701 148.265L56.6276 102.213Z" fill="#D9D9D9"/>
<path d="M93 23.1941C93 22.5716 93.5705 22.1019 94.1838 22.2091C117.711 26.3258 131.601 26.3065 155.821 22.2016C156.433 22.0979 157 22.567 157 23.1873V46C157 46.5523 156.552 47 156 47H94C93.4477 47 93 46.5523 93 46V23.1941Z" fill="#D9D9D9"/>
</mask>
<g mask="url(#mask0_202_1256)">
<path d="M93 23.1941C93 22.5716 93.5705 22.1019 94.1838 22.2091C117.711 26.3258 131.601 26.3065 155.821 22.2016C156.433 22.0979 157 22.567 157 23.1873V46C157 46.5523 156.552 47 156 47H94C93.4477 47 93 46.5523 93 46V23.1941Z" fill="#FF66AB"/>
<path d="M56.6276 102.213C56.6852 102 57 102.041 57 102.263V238C57 240.761 59.2386 243 62 243H188C190.761 243 193 240.761 193 238V102.263C193 102.041 193.315 102 193.372 102.213L206.43 148.265C207.175 150.892 209.89 152.436 212.528 151.732L242.192 143.825C244.851 143.117 246.438 140.392 245.742 137.73L228.131 70.3473C221.592 46.8805 207.181 38.4826 193 35.5382C186.721 34.2345 180.486 34 175 34H75C69.5139 34 63.2794 34.2345 57 35.5382C42.8187 38.4826 28.408 46.8805 21.869 70.3473L4.25819 137.73C3.56233 140.392 5.14881 143.117 7.80791 143.825L37.472 151.732C40.1105 152.436 42.8253 150.892 43.5701 148.265L56.6276 102.213Z" fill="#61D5FE"/>
<mask id="mask1_202_1256" style="mask-type:alpha" maskUnits="userSpaceOnUse" x="3" y="32" width="54" height="121">
<rect x="3" y="32" width="54" height="121" fill="#FF66AB"/>
</mask>
<g mask="url(#mask1_202_1256)">
<rect x="3" y="32" width="54" height="121" fill="#FF66AB"/>
<path d="M16 86.2311L63.6434 90.1576" stroke="#744DB8" stroke-width="10"/>
<path d="M9.99996 107.231L57.6434 111.158" stroke="#744DB8" stroke-width="10"/>
<path d="M1.99996 128.231L49.6434 132.158" stroke="#744DB8" stroke-width="10"/>
<path d="M18 65.2311L65.6434 69.1576" stroke="#744DB8" stroke-width="10"/>
<path d="M22 43.2311L69.6434 47.1576" stroke="#744DB8" stroke-width="10"/>
</g>
<mask id="mask2_202_1256" style="mask-type:alpha" maskUnits="userSpaceOnUse" x="193" y="32" width="54" height="121">
<rect width="54" height="121" transform="matrix(-1 0 0 1 247 32)" fill="#FF66AB"/>
</mask>
<g mask="url(#mask2_202_1256)">
<rect width="54" height="121" transform="matrix(-1 0 0 1 247 32)" fill="#FF66AB"/>
<path d="M234 86.2311L186.357 90.1576" stroke="#744DB8" stroke-width="10"/>
<path d="M240 107.231L192.357 111.158" stroke="#744DB8" stroke-width="10"/>
<path d="M248 128.231L200.357 132.158" stroke="#744DB8" stroke-width="10"/>
<path d="M232 65.2311L184.357 69.1576" stroke="#744DB8" stroke-width="10"/>
<path d="M228 43.2311L180.357 47.1576" stroke="#744DB8" stroke-width="10"/>
</g>
<path d="M120.737 101.726C123.085 99.3552 126.915 99.3552 129.263 101.726L244.453 218.027C248.205 221.815 245.521 228.25 240.189 228.25H9.81055C4.47897 228.25 1.79509 221.815 5.54688 218.027L120.737 101.726Z" stroke="#744DB8" stroke-width="40"/>
<rect x="57" y="202" width="136" height="41" fill="#61D5FE"/>
</g>
</svg>
