<svg width="250" height="250" viewBox="0 0 250 250" fill="none" xmlns="http://www.w3.org/2000/svg">
<mask id="mask0_277_330" style="mask-type:alpha" maskUnits="userSpaceOnUse" x="4" y="22" width="242" height="221">
<path d="M56.6276 102.213C56.6852 102 57 102.041 57 102.263V238C57 240.761 59.2386 243 62 243H188C190.761 243 193 240.761 193 238V102.263C193 102.041 193.315 102 193.372 102.213L206.43 148.265C207.175 150.892 209.89 152.436 212.528 151.732L242.192 143.825C244.851 143.117 246.438 140.392 245.742 137.73L228.131 70.3473C221.592 46.8805 207.181 38.4826 193 35.5382C186.721 34.2345 180.486 34 175 34H75C69.5139 34 63.2794 34.2345 57 35.5382C42.8187 38.4826 28.408 46.8805 21.869 70.3473L4.25819 137.73C3.56233 140.392 5.14881 143.117 7.80791 143.825L37.472 151.732C40.1105 152.436 42.8253 150.892 43.5701 148.265L56.6276 102.213Z" fill="#D9D9D9"/>
<path d="M93 23.1941C93 22.5716 93.5705 22.1019 94.1838 22.2091C117.711 26.3258 131.601 26.3065 155.821 22.2016C156.433 22.0979 157 22.567 157 23.1873V46C157 46.5523 156.552 47 156 47H94C93.4477 47 93 46.5523 93 46V23.1941Z" fill="#D9D9D9"/>
</mask>
<g mask="url(#mask0_277_330)">
<path d="M93 23.1941C93 22.5716 93.5705 22.1019 94.1838 22.2091C117.711 26.3258 131.601 26.3065 155.821 22.2016C156.433 22.0979 157 22.567 157 23.1873V46C157 46.5523 156.552 47 156 47H94C93.4477 47 93 46.5523 93 46V23.1941Z" fill="#E46B85"/>
<path d="M56.6276 102.213C56.6852 102 57 102.041 57 102.263V238C57 240.761 59.2386 243 62 243H188C190.761 243 193 240.761 193 238V102.263C193 102.041 193.315 102 193.372 102.213L206.43 148.265C207.175 150.892 209.89 152.436 212.528 151.732L242.192 143.825C244.851 143.117 246.438 140.392 245.742 137.73L228.131 70.3473C221.592 46.8805 207.181 38.4826 193 35.5382C186.721 34.2345 180.486 34 175 34H75C69.5139 34 63.2794 34.2345 57 35.5382C42.8187 38.4826 28.408 46.8805 21.869 70.3473L4.25819 137.73C3.56233 140.392 5.14881 143.117 7.80791 143.825L37.472 151.732C40.1105 152.436 42.8253 150.892 43.5701 148.265L56.6276 102.213Z" fill="#E46B85"/>
<path d="M182.978 200.405C171.255 208.23 155.864 215.525 109.55 234.712L118.022 264.727L194.516 243.136L182.978 200.405Z" fill="#DB3D3C"/>
<path d="M76.456 246.872L72.9997 235.315C87.6977 234.734 94.8681 230.959 107.49 225L110.946 236.556C101.012 250.111 93.7675 253.195 76.456 246.872Z" fill="#27356F"/>
<path d="M164.998 170.2L167.219 207.4C117.08 224.535 104.364 229.461 62.0892 257.765L48.6241 232.69C80.628 188.347 104.94 172.937 164.998 170.2Z" fill="#57ADDC"/>
<path d="M15 93C20.6362 99.949 28.5353 105.679 52.7681 119.774L42.7177 155.383L1.00063 143.609L15 93Z" fill="#2B2866"/>
<path d="M235.98 93C230.344 99.949 222.445 105.679 198.212 119.774L208.263 155.383L249.98 143.609L235.98 93Z" fill="#DB3D3C"/>
<path d="M136.671 47L174 62.5132C164.483 114.361 162.633 127.782 168.082 178H136.671C110.266 129.232 107.977 100.76 136.671 47Z" fill="#57ADDC"/>
<path d="M165.257 60H193C184.594 107.89 188.188 134.616 193 181H165.257C141.936 135.955 139.913 109.656 165.257 60Z" fill="#27356F"/>
<path d="M53.9379 189H66C62.3453 203.248 63.9077 211.2 66 225H53.9379C43.7983 211.598 42.9189 203.774 53.9379 189Z" fill="#27356F"/>
<path d="M60 128C98.9584 151.605 54 225.5 144 235" stroke="#B1D184" stroke-width="13" stroke-linecap="square"/>
<path d="M68 97C124.433 129.705 69.9293 206.518 161 212" stroke="#B1D184" stroke-width="13" stroke-linecap="square"/>
<path d="M75 72C141.797 114.619 98.0334 201.351 177 183" stroke="#B1D184" stroke-width="13" stroke-linecap="square"/>
</g>
</svg>
