<svg width="250" height="250" viewBox="0 0 250 250" fill="none" xmlns="http://www.w3.org/2000/svg">
<mask id="mask0_277_374" style="mask-type:alpha" maskUnits="userSpaceOnUse" x="4" y="22" width="242" height="221">
<path d="M56.6276 102.213C56.6852 102 57 102.041 57 102.263V238C57 240.761 59.2386 243 62 243H188C190.761 243 193 240.761 193 238V102.263C193 102.041 193.315 102 193.372 102.213L206.43 148.265C207.175 150.892 209.89 152.436 212.528 151.732L242.192 143.825C244.851 143.117 246.438 140.392 245.742 137.73L228.131 70.3473C221.592 46.8805 207.181 38.4826 193 35.5382C186.721 34.2345 180.486 34 175 34H75C69.5139 34 63.2794 34.2345 57 35.5382C42.8187 38.4826 28.408 46.8805 21.869 70.3473L4.25819 137.73C3.56233 140.392 5.14881 143.117 7.80791 143.825L37.472 151.732C40.1105 152.436 42.8253 150.892 43.5701 148.265L56.6276 102.213Z" fill="#D9D9D9"/>
<path d="M93 23.1941C93 22.5716 93.5705 22.1019 94.1838 22.2091C117.711 26.3258 131.601 26.3065 155.821 22.2016C156.433 22.0979 157 22.567 157 23.1873V46C157 46.5523 156.552 47 156 47H94C93.4477 47 93 46.5523 93 46V23.1941Z" fill="#D9D9D9"/>
</mask>
<g mask="url(#mask0_277_374)">
<path d="M93 23.1941C93 22.5716 93.5705 22.1019 94.1838 22.2091C117.711 26.3258 131.601 26.3065 155.821 22.2016C156.433 22.0979 157 22.567 157 23.1873V46C157 46.5523 156.552 47 156 47H94C93.4477 47 93 46.5523 93 46V23.1941Z" fill="#281942"/>
<path d="M56.6276 102.213C56.6852 102 57 102.041 57 102.263V238C57 240.761 59.2386 243 62 243H188C190.761 243 193 240.761 193 238V102.263C193 102.041 193.315 102 193.372 102.213L206.43 148.265C207.175 150.892 209.89 152.436 212.528 151.732L242.192 143.825C244.851 143.117 246.438 140.392 245.742 137.73L228.131 70.3473C221.592 46.8805 207.181 38.4826 193 35.5382C186.721 34.2345 180.486 34 175 34H75C69.5139 34 63.2794 34.2345 57 35.5382C42.8187 38.4826 28.408 46.8805 21.869 70.3473L4.25819 137.73C3.56233 140.392 5.14881 143.117 7.80791 143.825L37.472 151.732C40.1105 152.436 42.8253 150.892 43.5701 148.265L56.6276 102.213Z" fill="#281942"/>
<path d="M124.624 71.2585C126.621 70.228 129 71.6774 129 73.9244L129 98C129 99.6568 127.657 101 126 101H79.3535C76.2086 101 75.183 96.7765 77.9776 95.3341L124.624 71.2585Z" fill="white"/>
<path d="M124.307 127.916C122.315 128.88 120 127.429 120 125.216L120 103C120 101.343 121.343 100 123 100H168.912C172.099 100 173.088 104.312 170.219 105.7L124.307 127.916Z" fill="white"/>
<path d="M75 34H231L234.5 102.5C180.055 67.206 144.825 56.4627 75 51V34Z" fill="#FC3302" fill-opacity="0.8"/>
<rect x="6.66895" y="120" width="45" height="23" transform="rotate(14.2692 6.66895 120)" fill="#FC3302" fill-opacity="0.8"/>
<path d="M193 111V243H57C79.8034 173.847 142.642 144.856 193 111Z" fill="#FC3302" fill-opacity="0.8"/>
</g>
</svg>
