<svg width="250" height="250" viewBox="0 0 250 250" fill="none" xmlns="http://www.w3.org/2000/svg">
<path d="M93 23.1941C93 22.5716 93.5705 22.1019 94.1838 22.2091C117.711 26.3258 131.601 26.3065 155.821 22.2016C156.433 22.0979 157 22.567 157 23.1873V46C157 46.5523 156.552 47 156 47H94C93.4477 47 93 46.5523 93 46V23.1941Z" fill="#CF3A90"/>
<mask id="mask0_134_57" style="mask-type:alpha" maskUnits="userSpaceOnUse" x="4" y="34" width="242" height="209">
<path d="M56.6276 102.213C56.6852 102 57 102.041 57 102.263V238C57 240.761 59.2386 243 62 243H188C190.761 243 193 240.761 193 238V102.263C193 102.041 193.315 102 193.372 102.213L206.43 148.265C207.175 150.892 209.89 152.436 212.528 151.732L242.192 143.825C244.851 143.117 246.438 140.392 245.742 137.73L228.131 70.3473C221.592 46.8805 207.181 38.4826 193 35.5382C186.721 34.2345 180.486 34 175 34H75C69.5139 34 63.2794 34.2345 57 35.5382C42.8187 38.4826 28.408 46.8805 21.869 70.3473L4.25819 137.73C3.56233 140.392 5.14881 143.117 7.80791 143.825L37.472 151.732C40.1105 152.436 42.8253 150.892 43.5701 148.265L56.6276 102.213Z" fill="#D9D9D9"/>
</mask>
<g mask="url(#mask0_134_57)">
<path d="M56.6276 102.213C56.6852 102 57 102.041 57 102.263V238C57 240.761 59.2386 243 62 243H188C190.761 243 193 240.761 193 238V102.263C193 102.041 193.315 102 193.372 102.213L206.43 148.265C207.175 150.892 209.89 152.436 212.528 151.732L242.192 143.825C244.851 143.117 246.438 140.392 245.742 137.73L228.131 70.3473C221.592 46.8805 207.181 38.4826 193 35.5382C186.721 34.2345 180.486 34 175 34H75C69.5139 34 63.2794 34.2345 57 35.5382C42.8187 38.4826 28.408 46.8805 21.869 70.3473L4.25819 137.73C3.56233 140.392 5.14881 143.117 7.80791 143.825L37.472 151.732C40.1105 152.436 42.8253 150.892 43.5701 148.265L56.6276 102.213Z" fill="#CF3A90"/>
<path d="M93 23.1941C93 22.5716 93.5705 22.1019 94.1838 22.2091C117.711 26.3258 131.601 26.3065 155.821 22.2016C156.433 22.0979 157 22.567 157 23.1873V46C157 46.5523 156.552 47 156 47H94C93.4477 47 93 46.5523 93 46V23.1941Z" fill="#CF3A90"/>
<path d="M144.9 70.6877C170.765 83.079 181.319 120.858 164.053 156.897C146.786 192.937 110.732 208.385 84.8676 195.994C59.0034 183.602 48.4488 145.824 65.7147 109.785C82.9807 73.7454 119.036 58.2966 144.9 70.6877Z" stroke="white" stroke-opacity="0.5" stroke-width="15"/>
<path d="M156.212 44.8208C200.198 65.8941 217.978 123.218 193.811 173.663C169.643 224.108 113.828 246.174 69.842 225.101C25.8557 204.027 8.07479 146.703 32.2424 96.2574C56.4101 45.8124 112.226 23.7476 156.212 44.8208Z" stroke="white" stroke-opacity="0.5" stroke-width="15"/>
<ellipse cx="112.979" cy="132.512" rx="40.9557" ry="32.3191" transform="rotate(-33.3484 112.979 132.512)" fill="white" fill-opacity="0.5"/>
<path d="M25.7068 16.5C34.4321 16.5 42.9261 23.9872 49.3571 37.4746C55.7174 50.8137 59.7068 69.3818 59.7068 90C59.7068 110.618 55.7174 129.186 49.3571 142.525C42.9261 156.013 34.4321 163.5 25.7068 163.5C16.9814 163.5 8.48743 156.013 2.05637 142.525C-4.30392 129.186 -8.29324 110.618 -8.29324 90C-8.29324 69.3818 -4.30392 50.8137 2.05637 37.4746C8.48743 23.9872 16.9814 16.5 25.7068 16.5Z" stroke="white" stroke-width="4"/>
<path d="M225 16.5C216.275 16.5 207.781 23.9872 201.35 37.4746C194.989 50.8137 191 69.3818 191 90C191 110.618 194.989 129.186 201.35 142.525C207.781 156.013 216.275 163.5 225 163.5C233.725 163.5 242.219 156.013 248.65 142.525C255.011 129.186 259 110.618 259 90C259 69.3818 255.011 50.8137 248.65 37.4746C242.219 23.9872 233.725 16.5 225 16.5Z" stroke="white" stroke-width="4"/>
</g>
</svg>
