<svg width="250" height="250" viewBox="0 0 250 250" fill="none" xmlns="http://www.w3.org/2000/svg">
<mask id="mask0_270_741" style="mask-type:alpha" maskUnits="userSpaceOnUse" x="4" y="22" width="242" height="221">
<path d="M56.6276 102.213C56.6852 102 57 102.041 57 102.263V238C57 240.761 59.2386 243 62 243H188C190.761 243 193 240.761 193 238V102.263C193 102.041 193.315 102 193.372 102.213L206.43 148.265C207.175 150.892 209.89 152.436 212.528 151.732L242.192 143.825C244.851 143.117 246.438 140.392 245.742 137.73L228.131 70.3473C221.592 46.8805 207.181 38.4826 193 35.5382C186.721 34.2345 180.486 34 175 34H75C69.5139 34 63.2794 34.2345 57 35.5382C42.8187 38.4826 28.408 46.8805 21.869 70.3473L4.25819 137.73C3.56233 140.392 5.14881 143.117 7.80791 143.825L37.472 151.732C40.1105 152.436 42.8253 150.892 43.5701 148.265L56.6276 102.213Z" fill="#D9D9D9"/>
<path d="M93 23.1941C93 22.5716 93.5705 22.1019 94.1838 22.2091C117.711 26.3258 131.601 26.3065 155.821 22.2016C156.433 22.0979 157 22.567 157 23.1873V46C157 46.5523 156.552 47 156 47H94C93.4477 47 93 46.5523 93 46V23.1941Z" fill="#D9D9D9"/>
</mask>
<g mask="url(#mask0_270_741)">
<path d="M93 23.1941C93 22.5716 93.5705 22.1019 94.1838 22.2091C117.711 26.3258 131.601 26.3065 155.821 22.2016C156.433 22.0979 157 22.567 157 23.1873V46C157 46.5523 156.552 47 156 47H94C93.4477 47 93 46.5523 93 46V23.1941Z" fill="#000C6E"/>
<path d="M56.6276 102.213C56.6852 102 57 102.041 57 102.263V238C57 240.761 59.2386 243 62 243H188C190.761 243 193 240.761 193 238V102.263C193 102.041 193.315 102 193.372 102.213L206.43 148.265C207.175 150.892 209.89 152.436 212.528 151.732L242.192 143.825C244.851 143.117 246.438 140.392 245.742 137.73L228.131 70.3473C221.592 46.8805 207.181 38.4826 193 35.5382C186.721 34.2345 180.486 34 175 34H75C69.5139 34 63.2794 34.2345 57 35.5382C42.8187 38.4826 28.408 46.8805 21.869 70.3473L4.25819 137.73C3.56233 140.392 5.14881 143.117 7.80791 143.825L37.472 151.732C40.1105 152.436 42.8253 150.892 43.5701 148.265L56.6276 102.213Z" fill="white"/>
<path d="M48 84.5C48 97.0023 51.5 113 54.5 122L9.5 109.5L7 28H82V36.4274C80.6915 36.1455 79.3562 36 78 36C61.4315 36 48 57.7142 48 84.5Z" fill="#FFFF00"/>
<path d="M243.404 128.005L202 139.005L206.514 153.957L247.412 143.086L243.404 128.005Z" fill="#000C6E"/>
<path d="M5.00832 128.005L46.4121 139.005L41.8982 153.957L0.999956 143.086L5.00832 128.005Z" fill="#000C6E"/>
<rect x="57" y="122" width="136" height="32" fill="#000C6E"/>
<rect x="57" y="75" width="136" height="38" fill="#FFFF00"/>
<path d="M57 102.736V120.927C44.3325 112.396 36 97.9209 36 81.5C36 55.2665 57.2665 34 83.5 34C86.2264 34 88.8992 33.5591 91.5 34.0002C69.0758 37.8035 52 57.9929 52 81.5C52 89.1332 53.8005 96.3459 57 102.736Z" fill="#000C6E"/>
<path d="M202.5 84.5C202.5 97.0023 199 113 196 122L241 109.5L243.5 28H168.5V36.4274C169.809 36.1455 171.144 36 172.5 36C189.069 36 202.5 57.7142 202.5 84.5Z" fill="#FFFF00"/>
<path d="M193.5 102.736V120.926C206.167 112.395 214.5 97.9207 214.5 81.4998C214.5 55.2662 193.234 33.9998 167 33.9998C164.274 33.9998 161.601 33.5589 159 34C181.424 37.8032 198.5 57.9926 198.5 81.4998C198.5 89.133 196.699 96.3456 193.5 102.736Z" fill="#000C6E"/>
</g>
</svg>
