<svg width="250" height="250" viewBox="0 0 250 250" fill="none" xmlns="http://www.w3.org/2000/svg">
<mask id="mask0_214_27" style="mask-type:alpha" maskUnits="userSpaceOnUse" x="4" y="22" width="242" height="221">
<path d="M56.6276 102.213C56.6852 102 57 102.041 57 102.263V238C57 240.761 59.2386 243 62 243H188C190.761 243 193 240.761 193 238V102.263C193 102.041 193.315 102 193.372 102.213L206.43 148.265C207.175 150.892 209.89 152.436 212.528 151.732L242.192 143.825C244.851 143.117 246.438 140.392 245.742 137.73L228.131 70.3473C221.592 46.8805 207.181 38.4826 193 35.5382C186.721 34.2345 180.486 34 175 34H75C69.5139 34 63.2794 34.2345 57 35.5382C42.8187 38.4826 28.408 46.8805 21.869 70.3473L4.25819 137.73C3.56233 140.392 5.14881 143.117 7.80791 143.825L37.472 151.732C40.1105 152.436 42.8253 150.892 43.5701 148.265L56.6276 102.213Z" fill="#D9D9D9"/>
<path d="M93 23.1941C93 22.5716 93.5705 22.1019 94.1838 22.2091C117.711 26.3258 131.601 26.3065 155.821 22.2016C156.433 22.0979 157 22.567 157 23.1873V46C157 46.5523 156.552 47 156 47H94C93.4477 47 93 46.5523 93 46V23.1941Z" fill="#D9D9D9"/>
</mask>
<g mask="url(#mask0_214_27)">
<path d="M56.6276 102.213C56.6852 102 57 102.041 57 102.263V238C57 240.761 59.2386 243 62 243H188C190.761 243 193 240.761 193 238V102.263C193 102.041 193.315 102 193.372 102.213L206.43 148.265C207.175 150.892 209.89 152.436 212.528 151.732L242.192 143.825C244.851 143.117 246.438 140.392 245.742 137.73L228.131 70.3473C221.592 46.8805 207.181 38.4826 193 35.5382C186.721 34.2345 180.486 34 175 34H75C69.5139 34 63.2794 34.2345 57 35.5382C42.8187 38.4826 28.408 46.8805 21.869 70.3473L4.25819 137.73C3.56233 140.392 5.14881 143.117 7.80791 143.825L37.472 151.732C40.1105 152.436 42.8253 150.892 43.5701 148.265L56.6276 102.213Z" fill="#313787"/>
<path d="M93 23.1941C93 22.5716 93.5705 22.1019 94.1838 22.2091C117.711 26.3258 131.601 26.3065 155.821 22.2016C156.433 22.0979 157 22.567 157 23.1873V46C157 46.5523 156.552 47 156 47H94C93.4477 47 93 46.5523 93 46V23.1941Z" fill="#313787"/>
<path d="M88 188C105.333 194.333 140.6 207.6 143 210C145.4 212.4 139.333 217 136 219L147 229" stroke="#58D8FD" stroke-width="12"/>
<path d="M14 100L24 121L40 103.5L54 121" stroke="#58D8FD" stroke-width="12"/>
<path d="M163.5 137L159.5 113H171L175.5 91.5L193 113" stroke="#58D8FD" stroke-width="12"/>
<path d="M70.7588 125.145L93.0788 115.9L95.2601 123.544L116.788 120.635L99.4332 138.168" stroke="#58D8FD" stroke-width="12"/>
<path d="M93 189.5L107 159L63.5 147.5L58 123" stroke="#58D8FD" stroke-width="12"/>
<path d="M56 222.5C68.1667 228.833 95.4 241.6 107 242" stroke="#58D8FD" stroke-width="12"/>
<path d="M144.5 208L165 178L199 211.5" stroke="#58D8FD" stroke-width="12"/>
<path d="M113.5 47L126.5 56.5L134.5 47L156 56.5L183 40" stroke="#58D8FD" stroke-width="12"/>
<path d="M206.5 43.5C212.333 49.1667 225.2 64.6 230 81" stroke="#58D8FD" stroke-width="12"/>
<path d="M173.5 158C170.167 151.833 150.8 129.2 140 124" stroke="#FD2751" stroke-width="6"/>
<path d="M159 216C158.502 213.461 155.612 204.141 154 202" stroke="#FD2751" stroke-width="6"/>
<path d="M77.871 157.576C77.3582 160.112 76.4597 169.829 77.1289 172.424" stroke="#FD2751" stroke-width="6"/>
<path d="M132.977 110.376C128.264 110.513 110.884 112.076 106.819 113.38" stroke="#FD2751" stroke-width="6"/>
<path d="M86.143 59.2224C81.7763 57.444 65.246 51.8547 61 51.4058" stroke="#FD2751" stroke-width="6"/>
<path d="M105.143 66.2224C100.776 64.444 84.246 58.8547 80 58.4058" stroke="#FD2751" stroke-width="6"/>
<path d="M79.143 62.2224C74.7763 60.444 58.246 54.8547 54 54.4058" stroke="#FD2751" stroke-width="6"/>
<rect x="200" y="130.383" width="43.0388" height="24" transform="rotate(-14.3123 200 130.383)" fill="#FD2751"/>
<rect x="67.5793" y="53" width="50" height="36" transform="rotate(18.7626 67.5793 53)" fill="#FD2751"/>
<path d="M198 111C203.667 104.667 223.3 82 226.5 76" stroke="#58D8FD" stroke-width="12"/>
<path d="M31.2392 46C30.5991 59.7755 30.8551 89.8612 37 100" stroke="#58D8FD" stroke-width="6"/>
<path d="M39.2392 22C38.5991 35.7755 38.8551 65.8612 45 76" stroke="#58D8FD" stroke-width="6"/>
</g>
</svg>
