<svg width="250" height="250" viewBox="0 0 250 250" fill="none" xmlns="http://www.w3.org/2000/svg">
<mask id="mask0_170_444" style="mask-type:alpha" maskUnits="userSpaceOnUse" x="4" y="22" width="242" height="221">
<path d="M56.6276 102.213C56.6852 102 57 102.041 57 102.263V238C57 240.761 59.2386 243 62 243H188C190.761 243 193 240.761 193 238V102.263C193 102.041 193.315 102 193.372 102.213L206.43 148.265C207.175 150.892 209.89 152.436 212.528 151.732L242.192 143.825C244.851 143.117 246.438 140.392 245.742 137.73L228.131 70.3473C221.592 46.8805 207.181 38.4826 193 35.5382C186.721 34.2345 180.486 34 175 34H75C69.5139 34 63.2794 34.2345 57 35.5382C42.8187 38.4826 28.408 46.8805 21.869 70.3473L4.25819 137.73C3.56233 140.392 5.14881 143.117 7.80791 143.825L37.472 151.732C40.1105 152.436 42.8253 150.892 43.5701 148.265L56.6276 102.213Z" fill="#D9D9D9"/>
<path d="M93 23.1941C93 22.5716 93.5705 22.1019 94.1838 22.2091C117.711 26.3258 131.601 26.3065 155.821 22.2016C156.433 22.0979 157 22.567 157 23.1873V46C157 46.5523 156.552 47 156 47H94C93.4477 47 93 46.5523 93 46V23.1941Z" fill="#D9D9D9"/>
</mask>
<g mask="url(#mask0_170_444)">
<path d="M93 23.1941C93 22.5716 93.5705 22.1019 94.1838 22.2091C117.711 26.3258 131.601 26.3065 155.821 22.2016C156.433 22.0979 157 22.567 157 23.1873V46C157 46.5523 156.552 47 156 47H94C93.4477 47 93 46.5523 93 46V23.1941Z" fill="#F763A5"/>
<path d="M56.6276 102.213C56.6852 102 57 102.041 57 102.263V238C57 240.761 59.2386 243 62 243H188C190.761 243 193 240.761 193 238V102.263C193 102.041 193.315 102 193.372 102.213L206.43 148.265C207.175 150.892 209.89 152.436 212.528 151.732L242.192 143.825C244.851 143.117 246.438 140.392 245.742 137.73L228.131 70.3473C221.592 46.8805 207.181 38.4826 193 35.5382C186.721 34.2345 180.486 34 175 34H75C69.5139 34 63.2794 34.2345 57 35.5382C42.8187 38.4826 28.408 46.8805 21.869 70.3473L4.25819 137.73C3.56233 140.392 5.14881 143.117 7.80791 143.825L37.472 151.732C40.1105 152.436 42.8253 150.892 43.5701 148.265L56.6276 102.213Z" fill="white"/>
<path d="M82 34H133V75H57V101L56 107L45 157L1.5 148L3 99L10 58L54 31.5L82 34Z" fill="#6DD3E1"/>
<path d="M165.5 34H133V71H193V101.5L194 110L205.5 156L251 144L227 59L213.5 37.5L192 34H165.5Z" fill="#FD9425"/>
<path d="M3.76865 135.881L45.1716 146.884L42.8983 153.406L2.00001 142.535L3.76865 135.881Z" fill="#FD9425"/>
<path d="M239.905 109.771L198.5 120.764L207.716 153.406L248.614 142.535L239.905 109.771Z" fill="#6DD3E1"/>
<mask id="mask1_170_444" style="mask-type:alpha" maskUnits="userSpaceOnUse" x="57" y="136" width="76" height="20">
<rect x="57" y="136" width="76" height="20" fill="#D9D9D9"/>
</mask>
<g mask="url(#mask1_170_444)">
<rect x="57" y="136" width="6" height="6" fill="#F763A5"/>
<rect x="57" y="136" width="8" height="8" fill="#F763A5"/>
<rect x="57" y="136" width="10" height="10" fill="#F763A5"/>
<rect x="67" y="146" width="10" height="10" fill="#F763A5"/>
<rect x="67" y="146" width="10" height="10" fill="#F763A5"/>
<rect x="77" y="136" width="10" height="10" fill="#F763A5"/>
<rect x="87" y="146" width="10" height="10" fill="#F763A5"/>
<rect x="97" y="136" width="10" height="10" fill="#F763A5"/>
<rect x="107" y="146" width="10" height="10" fill="#F763A5"/>
<rect x="117" y="136" width="10" height="10" fill="#F763A5"/>
<rect x="127" y="146" width="10" height="10" fill="#F763A5"/>
</g>
<rect x="54" y="221" width="79" height="22" fill="#6DD3E1"/>
<rect x="133" y="150" width="63" height="93" fill="#FD9425"/>
</g>
</svg>
