<svg width="250" height="250" viewBox="0 0 250 250" fill="none" xmlns="http://www.w3.org/2000/svg">
<mask id="mask0_216_240" style="mask-type:alpha" maskUnits="userSpaceOnUse" x="4" y="22" width="242" height="221">
<path d="M56.6276 102.213C56.6852 102 57 102.041 57 102.263V238C57 240.761 59.2386 243 62 243H188C190.761 243 193 240.761 193 238V102.263C193 102.041 193.315 102 193.372 102.213L206.43 148.265C207.175 150.892 209.89 152.436 212.528 151.732L242.192 143.825C244.851 143.117 246.438 140.392 245.742 137.73L228.131 70.3473C221.592 46.8805 207.181 38.4826 193 35.5382C186.721 34.2345 180.486 34 175 34H75C69.5139 34 63.2794 34.2345 57 35.5382C42.8187 38.4826 28.408 46.8805 21.869 70.3473L4.25819 137.73C3.56233 140.392 5.14881 143.117 7.80791 143.825L37.472 151.732C40.1105 152.436 42.8253 150.892 43.5701 148.265L56.6276 102.213Z" fill="#D9D9D9"/>
<path d="M93 23.1941C93 22.5716 93.5705 22.1019 94.1838 22.2091C117.711 26.3258 131.601 26.3065 155.821 22.2016C156.433 22.0979 157 22.567 157 23.1873V46C157 46.5523 156.552 47 156 47H94C93.4477 47 93 46.5523 93 46V23.1941Z" fill="#D9D9D9"/>
</mask>
<g mask="url(#mask0_216_240)">
<path d="M56.6276 103.213C56.6852 103 57 103.041 57 103.263V239C57 241.761 59.2386 244 62 244H188C190.761 244 193 241.761 193 239V103.263C193 103.041 193.315 103 193.372 103.213L206.43 149.265C207.175 151.892 209.89 153.436 212.528 152.732L242.192 144.825C244.851 144.117 246.438 141.392 245.742 138.73L228.131 71.3473C221.592 47.8805 207.181 39.4826 193 36.5382C186.721 35.2345 180.486 35 175 35H75C69.5139 35 63.2794 35.2345 57 36.5382C42.8187 39.4826 28.408 47.8805 21.869 71.3473L4.25819 138.73C3.56233 141.392 5.14881 144.117 7.80791 144.825L37.472 152.732C40.1105 153.436 42.8253 151.892 43.5701 149.265L56.6276 103.213Z" fill="#EAEAEA"/>
<path d="M93 24.1941C93 23.5716 93.5705 23.1019 94.1838 23.2091C117.711 27.3258 131.601 27.3065 155.821 23.2016C156.433 23.0979 157 23.567 157 24.1873V47C157 47.5523 156.552 48 156 48H94C93.4477 48 93 47.5523 93 47V24.1941Z" fill="#EAEAEA"/>
<path d="M90.7776 119.892C84.1591 48.8119 113.091 115.045 130.104 110.445C147.116 105.846 139.036 39.4169 165.023 109.845" stroke="#245BDD" stroke-width="15" stroke-linecap="round"/>
</g>
</svg>
