<svg width="250" height="250" viewBox="0 0 250 250" fill="none" xmlns="http://www.w3.org/2000/svg">
<mask id="mask0_216_120" style="mask-type:alpha" maskUnits="userSpaceOnUse" x="4" y="22" width="242" height="221">
<path d="M56.6276 102.213C56.6852 102 57 102.041 57 102.263V238C57 240.761 59.2386 243 62 243H188C190.761 243 193 240.761 193 238V102.263C193 102.041 193.315 102 193.372 102.213L206.43 148.265C207.175 150.892 209.89 152.436 212.528 151.732L242.192 143.825C244.851 143.117 246.438 140.392 245.742 137.73L228.131 70.3473C221.592 46.8805 207.181 38.4826 193 35.5382C186.721 34.2345 180.486 34 175 34H75C69.5139 34 63.2794 34.2345 57 35.5382C42.8187 38.4826 28.408 46.8805 21.869 70.3473L4.25819 137.73C3.56233 140.392 5.14881 143.117 7.80791 143.825L37.472 151.732C40.1105 152.436 42.8253 150.892 43.5701 148.265L56.6276 102.213Z" fill="#D9D9D9"/>
<path d="M93 23.1941C93 22.5716 93.5705 22.1019 94.1838 22.2091C117.711 26.3258 131.601 26.3065 155.821 22.2016C156.433 22.0979 157 22.567 157 23.1873V46C157 46.5523 156.552 47 156 47H94C93.4477 47 93 46.5523 93 46V23.1941Z" fill="#D9D9D9"/>
</mask>
<g mask="url(#mask0_216_120)">
<path d="M93 23.1941C93 22.5716 93.5705 22.1019 94.1838 22.2091C117.711 26.3258 131.601 26.3065 155.821 22.2016C156.433 22.0979 157 22.567 157 23.1873V46C157 46.5523 156.552 47 156 47H94C93.4477 47 93 46.5523 93 46V23.1941Z" fill="#FF5E00"/>
<path d="M56.6276 102.213C56.6852 102 57 102.041 57 102.263V238C57 240.761 59.2386 243 62 243H188C190.761 243 193 240.761 193 238V102.263C193 102.041 193.315 102 193.372 102.213L206.43 148.265C207.175 150.892 209.89 152.436 212.528 151.732L242.192 143.825C244.851 143.117 246.438 140.392 245.742 137.73L228.131 70.3473C221.592 46.8805 207.181 38.4826 193 35.5382C186.721 34.2345 180.486 34 175 34H75C69.5139 34 63.2794 34.2345 57 35.5382C42.8187 38.4826 28.408 46.8805 21.869 70.3473L4.25819 137.73C3.56233 140.392 5.14881 143.117 7.80791 143.825L37.472 151.732C40.1105 152.436 42.8253 150.892 43.5701 148.265L56.6276 102.213Z" fill="#310967"/>
<mask id="path-5-inside-1_216_120" fill="white">
<path d="M12.2488 97.0752L54.7776 108.358L42.8073 153.479L0.278415 142.197L12.2488 97.0752Z"/>
</mask>
<path d="M12.2488 97.0752L54.7776 108.358L42.8073 153.479L0.278415 142.197L12.2488 97.0752Z" fill="#FF5E00"/>
<path d="M12.2488 97.0752L9.68457 106.741L52.2134 118.023L54.7776 108.358L57.3419 98.6921L14.813 87.4095L12.2488 97.0752Z" fill="#EA0828" mask="url(#path-5-inside-1_216_120)"/>
<mask id="path-7-inside-2_216_120" fill="white">
<path d="M241.529 110L199 121.283L207.181 152.12L249.71 140.837L241.529 110Z"/>
</mask>
<path d="M241.529 110L199 121.283L207.181 152.12L249.71 140.837L241.529 110Z" fill="#FF5E00"/>
<path d="M241.529 110L243.837 118.699L201.308 129.982L199 121.283L196.692 112.583L239.221 101.301L241.529 110Z" fill="#EA0828" mask="url(#path-7-inside-2_216_120)"/>
<path d="M86.5716 129.241C94.4269 112.965 114.756 107.707 129.857 117.171C160.834 136.586 185.807 148.353 219.027 160.091C235.79 166.014 244.216 185.152 236.394 201.36L229.578 215.483C223.199 228.699 208.002 235.32 194.003 230.571C153.467 216.818 125.347 204.113 89.4553 180.442C77.295 172.421 73.3449 156.647 79.5967 143.693L86.5716 129.241Z" fill="#FF5E00" stroke="#EA0828" stroke-width="9"/>
<path d="M124.624 77.2585C126.621 76.228 129 77.6774 129 79.9244L129 104C129 105.657 127.657 107 126 107H79.3535C76.2086 107 75.183 102.777 77.9776 101.334L124.624 77.2585Z" fill="white"/>
<path d="M124.307 133.916C122.315 134.88 120 133.429 120 131.216L120 109C120 107.343 121.343 106 123 106H168.912C172.099 106 173.088 110.312 170.219 111.7L124.307 133.916Z" fill="white"/>
</g>
</svg>
