<svg width="250" height="250" viewBox="0 0 250 250" fill="none" xmlns="http://www.w3.org/2000/svg">
<mask id="mask0_264_573" style="mask-type:alpha" maskUnits="userSpaceOnUse" x="4" y="22" width="242" height="221">
<path d="M56.6276 102.213C56.6852 102 57 102.041 57 102.263V238C57 240.761 59.2386 243 62 243H188C190.761 243 193 240.761 193 238V102.263C193 102.041 193.315 102 193.372 102.213L206.43 148.265C207.175 150.892 209.89 152.436 212.528 151.732L242.192 143.825C244.851 143.117 246.438 140.392 245.742 137.73L228.131 70.3473C221.592 46.8805 207.181 38.4826 193 35.5382C186.721 34.2345 180.486 34 175 34H75C69.5139 34 63.2794 34.2345 57 35.5382C42.8187 38.4826 28.408 46.8805 21.869 70.3473L4.25819 137.73C3.56233 140.392 5.14881 143.117 7.80791 143.825L37.472 151.732C40.1105 152.436 42.8253 150.892 43.5701 148.265L56.6276 102.213Z" fill="#D9D9D9"/>
<path d="M93 23.1941C93 22.5716 93.5705 22.1019 94.1838 22.2091C117.711 26.3258 131.601 26.3065 155.821 22.2016C156.433 22.0979 157 22.567 157 23.1873V46C157 46.5523 156.552 47 156 47H94C93.4477 47 93 46.5523 93 46V23.1941Z" fill="#D9D9D9"/>
</mask>
<g mask="url(#mask0_264_573)">
<path d="M93 23.1941C93 22.5716 93.5705 22.1019 94.1838 22.2091C117.711 26.3258 131.601 26.3065 155.821 22.2016C156.433 22.0979 157 22.567 157 23.1873V46C157 46.5523 156.552 47 156 47H94C93.4477 47 93 46.5523 93 46V23.1941Z" fill="white"/>
<path d="M56.6276 102.213C56.6852 102 57 102.041 57 102.263V238C57 240.761 59.2386 243 62 243H188C190.761 243 193 240.761 193 238V102.263C193 102.041 193.315 102 193.372 102.213L206.43 148.265C207.175 150.892 209.89 152.436 212.528 151.732L242.192 143.825C244.851 143.117 246.438 140.392 245.742 137.73L228.131 70.3473C221.592 46.8805 207.181 38.4826 193 35.5382C186.721 34.2345 180.486 34 175 34H75C69.5139 34 63.2794 34.2345 57 35.5382C42.8187 38.4826 28.408 46.8805 21.869 70.3473L4.25819 137.73C3.56233 140.392 5.14881 143.117 7.80791 143.825L37.472 151.732C40.1105 152.436 42.8253 150.892 43.5701 148.265L56.6276 102.213Z" fill="white"/>
<rect x="58.6665" y="229" width="8.16667" height="14" fill="#F12C22"/>
<path d="M79.6665 229H87.8332V243H79.6665V229Z" fill="#F12C22"/>
<rect x="101.833" y="229" width="8.16667" height="14" fill="#C33A83"/>
<rect x="140" y="229" width="8.16667" height="14" fill="#2073CF"/>
<path d="M161 229H169.167V243H161V229Z" fill="#3DC69F"/>
<rect x="183.167" y="229" width="8.16667" height="14" fill="#7CCE5A"/>
<rect x="7.25244" y="128.066" width="8.7841" height="15.0584" transform="rotate(16.4024 7.25244 128.066)" fill="#2073CF"/>
<path d="M22.9014 132.672L31.328 135.153L27.0757 149.598L18.6491 147.118L22.9014 132.672Z" fill="#3DC69F"/>
<path d="M37.3472 136.925L45.7738 139.405L41.5215 153.851L33.0949 151.37L37.3472 136.925Z" fill="#7CCE5A"/>
<rect width="8.79833" height="15.0829" transform="matrix(-0.959302 0.282381 0.282381 0.959302 242.827 129.042)" fill="#2073CF"/>
<path d="M227.153 133.657L218.713 136.141L222.972 150.61L231.412 148.126L227.153 133.657Z" fill="#C33A83"/>
<path d="M212.684 137.916L204.243 140.4L208.502 154.87L216.943 152.385L212.684 137.916Z" fill="#F12C22"/>
<rect x="80" y="101" width="20" height="24" fill="#F12C22"/>
<rect x="100" y="101" width="20" height="24" fill="#C33A83"/>
<rect x="120" y="101" width="20" height="24" fill="#2073CF"/>
<rect x="140" y="101" width="20" height="24" fill="#3DC69F"/>
<rect x="160" y="101" width="20" height="24" fill="#7CCE5A"/>
</g>
</svg>
