<svg width="250" height="250" viewBox="0 0 250 250" fill="none" xmlns="http://www.w3.org/2000/svg">
<mask id="mask0_170_315" style="mask-type:alpha" maskUnits="userSpaceOnUse" x="4" y="22" width="242" height="221">
<path d="M56.6276 102.213C56.6852 102 57 102.041 57 102.263V238C57 240.761 59.2386 243 62 243H188C190.761 243 193 240.761 193 238V102.263C193 102.041 193.315 102 193.372 102.213L206.43 148.265C207.175 150.892 209.89 152.436 212.528 151.732L242.192 143.825C244.851 143.117 246.438 140.392 245.742 137.73L228.131 70.3473C221.592 46.8805 207.181 38.4826 193 35.5382C186.721 34.2345 180.486 34 175 34H75C69.5139 34 63.2794 34.2345 57 35.5382C42.8187 38.4826 28.408 46.8805 21.869 70.3473L4.25819 137.73C3.56233 140.392 5.14881 143.117 7.80791 143.825L37.472 151.732C40.1105 152.436 42.8253 150.892 43.5701 148.265L56.6276 102.213Z" fill="#D9D9D9"/>
<path d="M93 23.1941C93 22.5716 93.5705 22.1019 94.1838 22.2091C117.711 26.3258 131.601 26.3065 155.821 22.2016C156.433 22.0979 157 22.567 157 23.1873V46C157 46.5523 156.552 47 156 47H94C93.4477 47 93 46.5523 93 46V23.1941Z" fill="#D9D9D9"/>
</mask>
<g mask="url(#mask0_170_315)">
<path d="M56.6276 102.213C56.6852 102 57 102.041 57 102.263V238C57 240.761 59.2386 243 62 243H188C190.761 243 193 240.761 193 238V102.263C193 102.041 193.315 102 193.372 102.213L206.43 148.265C207.175 150.892 209.89 152.436 212.528 151.732L242.192 143.825C244.851 143.117 246.438 140.392 245.742 137.73L228.131 70.3473C221.592 46.8805 207.181 38.4826 193 35.5382C186.721 34.2345 180.486 34 175 34H75C69.5139 34 63.2794 34.2345 57 35.5382C42.8187 38.4826 28.408 46.8805 21.869 70.3473L4.25819 137.73C3.56233 140.392 5.14881 143.117 7.80791 143.825L37.472 151.732C40.1105 152.436 42.8253 150.892 43.5701 148.265L56.6276 102.213Z" fill="#D9D9D9"/>
<path d="M93 23.1941C93 22.5716 93.5705 22.1019 94.1838 22.2091C117.711 26.3258 131.601 26.3065 155.821 22.2016C156.433 22.0979 157 22.567 157 23.1873V46C157 46.5523 156.552 47 156 47H94C93.4477 47 93 46.5523 93 46V23.1941Z" fill="#D9D9D9"/>
<path d="M125 236L57 217L56 210.5L125 229L198.5 209.5V217L125 236Z" fill="#08038D"/>
<path d="M125 221.5L57 202.5L56 196L125 214.5L198.5 195V202.5L125 221.5Z" fill="#08038D"/>
<path d="M125 206.5L56.5 190V182L125 199.5L197.5 180.5L198.5 188L125 206.5Z" fill="#08038D"/>
<path d="M125 192.5L56 175V168L125 186L198.5 167L199.5 174L125 192.5Z" fill="#08038D"/>
<path opacity="0.9" d="M125 177.5L55.5 160.5V153L125 171.5L198.5 151L199.5 159L125 177.5Z" fill="#08038D"/>
<path opacity="0.8" d="M125 162.5L55 146.5L53 138L125 156.5L197 138L199 143.5L125 162.5Z" fill="#08038D"/>
<path d="M85.5 51.5C68.3 52.3 59.3333 85.8333 57 102.5L47 140.5L6 129L4 127L3.5 119L25.5 34.5L84.5 25C84.5 31.1667 84.5 45 85.5 51.5Z" fill="#1A179F"/>
<path d="M165 52C182.2 52.8 191.167 86.3333 193.5 103L203.5 141L244.5 129.5L246.5 127.5L247 119.5L225 35L166 25.5C166 31.6667 166 45.5 165 52Z" fill="#1A179F"/>
<path d="M5.59636 129.005L47 140.005L42.8983 153.406L1.99999 142.535L5.59636 129.005Z" fill="#C4011C"/>
<path d="M244.404 129.005L203 140.005L207.102 153.406L248 142.535L244.404 129.005Z" fill="#C4011C"/>
<circle cx="124.5" cy="88.5" r="13.5" fill="#FFC000"/>
<rect x="131" y="87" width="28" height="11" fill="#DF0215"/>
<rect x="89" y="87" width="28" height="11" fill="#DF0215"/>
</g>
</svg>
