<svg width="419" height="100" viewBox="0 0 419 100" xmlns="http://www.w3.org/2000/svg" xmlns:xlink="http://www.w3.org/1999/xlink"><defs>
<linearGradient id="grad" x1="0%" y1="0%" x2="0%" y2="100%">
<stop offset="0%" stop-color="#2963da" stop-opacity="0.40"/>
<stop offset="100%" stop-color="#070720" stop-opacity="0.20"/>
</linearGradient>
</defs>
<rect x="0" y="0" width="419" height="100" fill="none" />
<polygon points="0,92 4,92 8,92 12,92 16,92 20,92 25,92 29,92 33,92 37,91 41,91 45,90 49,90 53,90 58,89 62,88 66,88 70,87 74,87 79,85 83,84 87,83 91,82 95,83 99,84 103,82 108,82 112,82 116,81 120,80 124,78 128,77 133,76 137,73 141,70 145,64 149,60 153,55 157,53 161,51 165,53 169,58 173,60 177,65 182,68 186,67 190,70 194,75 198,79 202,83 206,86 210,86 214,87 218,85 222,80 226,74 231,68 235,62 239,58 243,63 247,69 251,72 255,75 259,75 263,76 268,80 272,82 276,79 280,77 284,76 288,75 292,72 297,76 301,81 305,87 309,89 313,90 317,90 321,89 325,84 329,77 333,69 337,63 341,57 346,51 350,52 354,59 358,64 362,69 366,74 370,80 374,85 378,86 382,85 386,81 390,76 395,70 399,67 403,63 407,56 411,49 415,49 419,44 419,100 0,100" fill="url(#grad)" stroke="none" />
<polyline points="0,92 4,92 8,92 12,92 16,92 20,92 25,92 29,92 33,92 37,91 41,91 45,90 49,90 53,90 58,89 62,88 66,88 70,87 74,87 79,85 83,84 87,83 91,82 95,83 99,84 103,82 108,82 112,82 116,81 120,80 124,78 128,77 133,76 137,73 141,70 145,64 149,60 153,55 157,53 161,51 165,53 169,58 173,60 177,65 182,68 186,67 190,70 194,75 198,79 202,83 206,86 210,86 214,87 218,85 222,80 226,74 231,68 235,62 239,58 243,63 247,69 251,72 255,75 259,75 263,76 268,80 272,82 276,79 280,77 284,76 288,75 292,72 297,76 301,81 305,87 309,89 313,90 317,90 321,89 325,84 329,77 333,69 337,63 341,57 346,51 350,52 354,59 358,64 362,69 366,74 370,80 374,85 378,86 382,85 386,81 390,76 395,70 399,67 403,63 407,56 411,49 415,49 419,44" stroke="#2963da" fill="none" stroke-width="3" stroke-linejoin="round" stroke-linecap="round" />
</svg>