<svg width="419" height="100" viewBox="0 0 419 100" xmlns="http://www.w3.org/2000/svg" xmlns:xlink="http://www.w3.org/1999/xlink"><defs>
<linearGradient id="grad" x1="0%" y1="0%" x2="0%" y2="100%">
<stop offset="0%" stop-color="#2963da" stop-opacity="0.40"/>
<stop offset="100%" stop-color="#070720" stop-opacity="0.20"/>
</linearGradient>
</defs>
<rect x="0" y="0" width="419" height="100" fill="none" />
<polygon points="0,87 4,89 8,89 12,90 16,90 20,90 24,89 28,89 32,89 37,90 41,90 45,90 49,90 53,85 57,82 61,78 65,80 69,81 74,78 78,77 82,79 86,80 90,78 94,75 98,76 102,78 106,79 110,79 114,80 118,80 123,80 127,81 131,81 135,79 139,82 143,83 147,82 151,83 155,84 159,84 163,86 168,86 172,87 176,87 180,87 184,88 188,88 192,89 196,88 200,89 204,88 208,86 213,84 217,84 221,84 225,85 229,87 233,86 237,86 241,85 245,85 250,86 254,87 258,87 262,88 266,89 270,88 274,89 278,89 283,89 287,89 291,90 295,87 299,90 303,91 307,89 311,88 316,87 320,85 324,85 328,85 332,82 336,82 340,85 344,87 348,90 353,89 357,88 361,88 365,88 369,88 373,88 377,87 382,89 386,92 390,92 394,89 398,88 402,88 406,90 410,91 414,92 419,92 419,100 0,100" fill="url(#grad)" stroke="none" />
<polyline points="0,87 4,89 8,89 12,90 16,90 20,90 24,89 28,89 32,89 37,90 41,90 45,90 49,90 53,85 57,82 61,78 65,80 69,81 74,78 78,77 82,79 86,80 90,78 94,75 98,76 102,78 106,79 110,79 114,80 118,80 123,80 127,81 131,81 135,79 139,82 143,83 147,82 151,83 155,84 159,84 163,86 168,86 172,87 176,87 180,87 184,88 188,88 192,89 196,88 200,89 204,88 208,86 213,84 217,84 221,84 225,85 229,87 233,86 237,86 241,85 245,85 250,86 254,87 258,87 262,88 266,89 270,88 274,89 278,89 283,89 287,89 291,90 295,87 299,90 303,91 307,89 311,88 316,87 320,85 324,85 328,85 332,82 336,82 340,85 344,87 348,90 353,89 357,88 361,88 365,88 369,88 373,88 377,87 382,89 386,92 390,92 394,89 398,88 402,88 406,90 410,91 414,92 419,92" stroke="#2963da" fill="none" stroke-width="3" stroke-linejoin="round" stroke-linecap="round" />
</svg>