<svg width="419" height="100" viewBox="0 0 419 100" xmlns="http://www.w3.org/2000/svg" xmlns:xlink="http://www.w3.org/1999/xlink"><defs>
<linearGradient id="grad" x1="0%" y1="0%" x2="0%" y2="100%">
<stop offset="0%" stop-color="#2963da" stop-opacity="0.40"/>
<stop offset="100%" stop-color="#070720" stop-opacity="0.20"/>
</linearGradient>
</defs>
<rect x="0" y="0" width="419" height="100" fill="none" />
<polygon points="0,91 4,91 8,91 12,91 16,91 20,91 24,92 28,92 33,92 37,92 41,91 45,91 49,92 53,92 57,91 62,92 66,92 70,92 74,92 78,92 82,92 86,92 91,92 95,92 99,92 103,92 107,92 111,92 115,92 119,92 124,92 128,92 132,92 136,92 140,92 144,92 148,91 152,91 156,91 160,91 164,91 169,91 173,91 177,91 181,91 185,91 189,91 193,91 197,91 201,91 206,91 210,91 214,90 218,90 222,90 226,90 231,90 235,90 239,90 243,90 247,90 251,90 255,90 259,90 263,90 267,90 272,90 276,90 280,90 284,90 288,90 292,90 297,90 301,90 305,90 309,90 313,90 317,90 321,90 325,90 330,90 334,90 338,90 342,90 346,90 350,90 354,90 358,90 363,90 367,90 371,90 375,90 379,90 384,90 388,90 392,90 396,90 400,90 404,90 408,90 413,90 417,90 419,90 419,100 0,100" fill="url(#grad)" stroke="none" />
<polyline points="0,91 4,91 8,91 12,91 16,91 20,91 24,92 28,92 33,92 37,92 41,91 45,91 49,92 53,92 57,91 62,92 66,92 70,92 74,92 78,92 82,92 86,92 91,92 95,92 99,92 103,92 107,92 111,92 115,92 119,92 124,92 128,92 132,92 136,92 140,92 144,92 148,91 152,91 156,91 160,91 164,91 169,91 173,91 177,91 181,91 185,91 189,91 193,91 197,91 201,91 206,91 210,91 214,90 218,90 222,90 226,90 231,90 235,90 239,90 243,90 247,90 251,90 255,90 259,90 263,90 267,90 272,90 276,90 280,90 284,90 288,90 292,90 297,90 301,90 305,90 309,90 313,90 317,90 321,90 325,90 330,90 334,90 338,90 342,90 346,90 350,90 354,90 358,90 363,90 367,90 371,90 375,90 379,90 384,90 388,90 392,90 396,90 400,90 404,90 408,90 413,90 417,90 419,90" stroke="#2963da" fill="none" stroke-width="3" stroke-linejoin="round" stroke-linecap="round" />
</svg>