<svg width="419" height="100" viewBox="0 0 419 100" xmlns="http://www.w3.org/2000/svg" xmlns:xlink="http://www.w3.org/1999/xlink"><defs>
<linearGradient id="grad" x1="0%" y1="0%" x2="0%" y2="100%">
<stop offset="0%" stop-color="#2963da" stop-opacity="0.40"/>
<stop offset="100%" stop-color="#070720" stop-opacity="0.20"/>
</linearGradient>
</defs>
<rect x="0" y="0" width="419" height="100" fill="none" />
<polygon points="0,92 4,92 8,92 12,92 16,92 20,92 25,92 29,92 33,92 37,91 42,91 46,91 50,91 54,90 58,90 62,89 66,88 71,88 75,88 79,88 83,87 87,85 92,85 96,84 100,83 104,82 108,79 112,76 116,73 121,73 125,72 129,73 133,72 137,74 141,75 146,78 150,78 154,74 158,70 162,68 166,71 170,75 174,78 178,81 182,82 187,81 191,79 195,76 199,72 203,73 207,72 212,73 216,73 220,74 224,76 228,77 232,78 236,74 240,70 244,69 249,71 253,75 257,78 261,81 265,83 269,84 273,85 277,84 281,86 285,87 290,87 294,88 298,89 302,90 306,90 310,90 315,90 319,90 323,89 327,88 331,88 335,86 339,85 344,83 348,80 352,79 356,78 360,78 364,77 368,76 373,75 377,74 381,70 385,67 389,64 393,59 397,55 401,52 405,50 409,48 413,44 417,40 419,39 419,100 0,100" fill="url(#grad)" stroke="none" />
<polyline points="0,92 4,92 8,92 12,92 16,92 20,92 25,92 29,92 33,92 37,91 42,91 46,91 50,91 54,90 58,90 62,89 66,88 71,88 75,88 79,88 83,87 87,85 92,85 96,84 100,83 104,82 108,79 112,76 116,73 121,73 125,72 129,73 133,72 137,74 141,75 146,78 150,78 154,74 158,70 162,68 166,71 170,75 174,78 178,81 182,82 187,81 191,79 195,76 199,72 203,73 207,72 212,73 216,73 220,74 224,76 228,77 232,78 236,74 240,70 244,69 249,71 253,75 257,78 261,81 265,83 269,84 273,85 277,84 281,86 285,87 290,87 294,88 298,89 302,90 306,90 310,90 315,90 319,90 323,89 327,88 331,88 335,86 339,85 344,83 348,80 352,79 356,78 360,78 364,77 368,76 373,75 377,74 381,70 385,67 389,64 393,59 397,55 401,52 405,50 409,48 413,44 417,40 419,39" stroke="#2963da" fill="none" stroke-width="3" stroke-linejoin="round" stroke-linecap="round" />
</svg>