<svg width="419" height="100" viewBox="0 0 419 100" xmlns="http://www.w3.org/2000/svg" xmlns:xlink="http://www.w3.org/1999/xlink"><defs>
<linearGradient id="grad" x1="0%" y1="0%" x2="0%" y2="100%">
<stop offset="0%" stop-color="#2963da" stop-opacity="0.40"/>
<stop offset="100%" stop-color="#070720" stop-opacity="0.20"/>
</linearGradient>
</defs>
<rect x="0" y="0" width="419" height="100" fill="none" />
<polygon points="0,92 4,92 8,92 12,92 16,92 20,92 24,92 28,92 33,92 37,92 41,92 45,92 49,91 53,90 57,89 61,89 65,89 69,89 73,91 78,88 82,87 86,86 90,88 94,88 98,90 102,91 107,89 111,88 115,88 119,89 123,90 127,89 131,89 135,89 140,87 144,89 148,86 152,87 156,90 160,90 164,88 168,86 172,90 176,86 181,84 185,87 189,87 193,85 197,82 201,85 205,86 209,84 213,85 217,89 221,87 225,87 229,90 233,90 237,91 242,90 246,89 250,88 254,87 258,88 262,88 266,90 270,91 274,89 278,90 282,89 286,92 290,90 294,92 299,91 303,91 307,89 311,89 315,89 319,87 323,87 327,89 331,86 335,87 339,90 343,91 347,90 352,90 356,88 360,89 364,91 368,88 372,88 376,88 380,89 384,89 388,91 392,90 396,92 400,91 404,89 408,90 413,89 417,89 419,89 419,100 0,100" fill="url(#grad)" stroke="none" />
<polyline points="0,92 4,92 8,92 12,92 16,92 20,92 24,92 28,92 33,92 37,92 41,92 45,92 49,91 53,90 57,89 61,89 65,89 69,89 73,91 78,88 82,87 86,86 90,88 94,88 98,90 102,91 107,89 111,88 115,88 119,89 123,90 127,89 131,89 135,89 140,87 144,89 148,86 152,87 156,90 160,90 164,88 168,86 172,90 176,86 181,84 185,87 189,87 193,85 197,82 201,85 205,86 209,84 213,85 217,89 221,87 225,87 229,90 233,90 237,91 242,90 246,89 250,88 254,87 258,88 262,88 266,90 270,91 274,89 278,90 282,89 286,92 290,90 294,92 299,91 303,91 307,89 311,89 315,89 319,87 323,87 327,89 331,86 335,87 339,90 343,91 347,90 352,90 356,88 360,89 364,91 368,88 372,88 376,88 380,89 384,89 388,91 392,90 396,92 400,91 404,89 408,90 413,89 417,89 419,89" stroke="#2963da" fill="none" stroke-width="3" stroke-linejoin="round" stroke-linecap="round" />
</svg>