<svg width="419" height="100" viewBox="0 0 419 100" xmlns="http://www.w3.org/2000/svg" xmlns:xlink="http://www.w3.org/1999/xlink"><defs>
<linearGradient id="grad" x1="0%" y1="0%" x2="0%" y2="100%">
<stop offset="0%" stop-color="#2963da" stop-opacity="0.40"/>
<stop offset="100%" stop-color="#070720" stop-opacity="0.20"/>
</linearGradient>
</defs>
<rect x="0" y="0" width="419" height="100" fill="none" />
<polygon points="0,87 4,88 8,88 12,89 16,90 20,89 24,91 29,92 33,92 37,92 41,92 45,92 49,89 53,86 57,82 61,79 65,75 69,71 73,70 77,70 82,67 86,65 90,64 94,66 98,69 102,72 106,75 110,79 114,80 118,79 122,77 127,78 131,76 135,75 139,74 143,72 147,70 151,68 155,66 159,63 163,61 167,60 171,56 175,52 179,56 183,60 187,59 191,61 196,63 200,64 204,66 208,70 212,70 216,67 220,66 224,67 228,70 232,73 236,73 240,69 244,63 248,58 253,55 257,59 261,64 265,70 269,75 273,80 277,85 281,89 285,88 289,88 294,88 298,87 302,86 306,82 310,79 314,76 318,71 322,68 326,72 330,77 334,81 338,83 343,83 347,83 351,85 355,86 360,86 364,85 368,82 372,80 376,77 380,73 384,68 388,64 392,60 396,55 400,51 405,46 409,43 413,39 417,36 419,34 419,100 0,100" fill="url(#grad)" stroke="none" />
<polyline points="0,87 4,88 8,88 12,89 16,90 20,89 24,91 29,92 33,92 37,92 41,92 45,92 49,89 53,86 57,82 61,79 65,75 69,71 73,70 77,70 82,67 86,65 90,64 94,66 98,69 102,72 106,75 110,79 114,80 118,79 122,77 127,78 131,76 135,75 139,74 143,72 147,70 151,68 155,66 159,63 163,61 167,60 171,56 175,52 179,56 183,60 187,59 191,61 196,63 200,64 204,66 208,70 212,70 216,67 220,66 224,67 228,70 232,73 236,73 240,69 244,63 248,58 253,55 257,59 261,64 265,70 269,75 273,80 277,85 281,89 285,88 289,88 294,88 298,87 302,86 306,82 310,79 314,76 318,71 322,68 326,72 330,77 334,81 338,83 343,83 347,83 351,85 355,86 360,86 364,85 368,82 372,80 376,77 380,73 384,68 388,64 392,60 396,55 400,51 405,46 409,43 413,39 417,36 419,34" stroke="#2963da" fill="none" stroke-width="3" stroke-linejoin="round" stroke-linecap="round" />
</svg>