<svg width="419" height="100" viewBox="0 0 419 100" xmlns="http://www.w3.org/2000/svg" xmlns:xlink="http://www.w3.org/1999/xlink"><defs>
<linearGradient id="grad" x1="0%" y1="0%" x2="0%" y2="100%">
<stop offset="0%" stop-color="#2963da" stop-opacity="0.40"/>
<stop offset="100%" stop-color="#070720" stop-opacity="0.20"/>
</linearGradient>
</defs>
<rect x="0" y="0" width="419" height="100" fill="none" />
<polygon points="0,88 4,88 8,90 12,89 16,89 20,91 24,89 28,90 32,91 36,91 40,90 44,90 48,89 52,89 56,89 61,89 65,90 69,91 73,91 77,91 81,90 85,90 90,90 94,90 98,90 102,90 106,90 110,90 115,90 119,89 123,90 127,90 131,90 135,89 139,89 143,89 147,89 151,88 156,88 160,88 164,89 168,89 172,89 176,89 180,89 184,89 188,89 193,89 197,90 201,90 205,90 209,90 213,90 217,90 221,90 225,90 229,90 234,90 238,90 242,90 246,90 250,90 254,90 258,91 262,90 266,90 270,90 274,90 278,90 282,89 286,90 291,91 295,91 299,91 303,92 307,91 311,92 315,92 319,92 323,92 327,91 331,89 335,89 339,89 344,89 348,89 352,91 356,92 360,92 364,92 368,92 372,92 376,92 380,92 384,92 388,92 392,92 397,92 401,92 405,92 409,92 413,92 417,92 419,92 419,100 0,100" fill="url(#grad)" stroke="none" />
<polyline points="0,88 4,88 8,90 12,89 16,89 20,91 24,89 28,90 32,91 36,91 40,90 44,90 48,89 52,89 56,89 61,89 65,90 69,91 73,91 77,91 81,90 85,90 90,90 94,90 98,90 102,90 106,90 110,90 115,90 119,89 123,90 127,90 131,90 135,89 139,89 143,89 147,89 151,88 156,88 160,88 164,89 168,89 172,89 176,89 180,89 184,89 188,89 193,89 197,90 201,90 205,90 209,90 213,90 217,90 221,90 225,90 229,90 234,90 238,90 242,90 246,90 250,90 254,90 258,91 262,90 266,90 270,90 274,90 278,90 282,89 286,90 291,91 295,91 299,91 303,92 307,91 311,92 315,92 319,92 323,92 327,91 331,89 335,89 339,89 344,89 348,89 352,91 356,92 360,92 364,92 368,92 372,92 376,92 380,92 384,92 388,92 392,92 397,92 401,92 405,92 409,92 413,92 417,92 419,92" stroke="#2963da" fill="none" stroke-width="3" stroke-linejoin="round" stroke-linecap="round" />
</svg>