<svg width="419" height="100" viewBox="0 0 419 100" xmlns="http://www.w3.org/2000/svg" xmlns:xlink="http://www.w3.org/1999/xlink"><defs>
<linearGradient id="grad" x1="0%" y1="0%" x2="0%" y2="100%">
<stop offset="0%" stop-color="#2963da" stop-opacity="0.40"/>
<stop offset="100%" stop-color="#070720" stop-opacity="0.20"/>
</linearGradient>
</defs>
<rect x="0" y="0" width="419" height="100" fill="none" />
<polygon points="0,91 4,91 8,91 12,91 18,91 22,90 26,90 30,90 35,90 39,90 44,90 48,90 53,90 57,90 62,90 66,90 70,90 74,90 79,90 85,90 89,90 93,90 98,90 102,91 107,91 111,91 116,91 120,91 125,91 129,91 133,91 137,91 142,90 148,90 152,90 156,89 161,89 165,88 169,87 174,87 178,86 182,86 187,85 191,85 195,85 200,85 204,85 208,85 212,85 216,85 220,84 225,84 229,84 233,84 238,83 243,84 247,84 251,84 255,84 261,85 266,85 270,85 275,85 280,85 284,85 288,86 293,86 298,87 302,87 306,87 311,88 316,88 320,88 324,88 328,89 332,89 336,89 341,90 345,91 349,91 353,92 358,92 362,92 366,92 371,92 375,92 379,92 384,92 390,92 394,92 398,92 402,92 407,92 411,92 417,92 419,92 419,100 0,100" fill="url(#grad)" stroke="none" />
<polyline points="0,91 4,91 8,91 12,91 18,91 22,90 26,90 30,90 35,90 39,90 44,90 48,90 53,90 57,90 62,90 66,90 70,90 74,90 79,90 85,90 89,90 93,90 98,90 102,91 107,91 111,91 116,91 120,91 125,91 129,91 133,91 137,91 142,90 148,90 152,90 156,89 161,89 165,88 169,87 174,87 178,86 182,86 187,85 191,85 195,85 200,85 204,85 208,85 212,85 216,85 220,84 225,84 229,84 233,84 238,83 243,84 247,84 251,84 255,84 261,85 266,85 270,85 275,85 280,85 284,85 288,86 293,86 298,87 302,87 306,87 311,88 316,88 320,88 324,88 328,89 332,89 336,89 341,90 345,91 349,91 353,92 358,92 362,92 366,92 371,92 375,92 379,92 384,92 390,92 394,92 398,92 402,92 407,92 411,92 417,92 419,92" stroke="#2963da" fill="none" stroke-width="3" stroke-linejoin="round" stroke-linecap="round" />
</svg>