<svg width="419" height="100" viewBox="0 0 419 100" xmlns="http://www.w3.org/2000/svg" xmlns:xlink="http://www.w3.org/1999/xlink"><defs>
<linearGradient id="grad" x1="0%" y1="0%" x2="0%" y2="100%">
<stop offset="0%" stop-color="#2963da" stop-opacity="0.40"/>
<stop offset="100%" stop-color="#070720" stop-opacity="0.20"/>
</linearGradient>
</defs>
<rect x="0" y="0" width="419" height="100" fill="none" />
<polygon points="0,91 4,91 8,92 12,92 16,92 20,92 24,92 28,92 32,92 36,92 40,92 44,92 48,92 52,92 56,92 60,92 64,92 68,92 72,92 76,92 80,92 84,92 88,92 92,92 96,92 100,91 105,91 109,91 113,92 117,91 121,91 125,91 129,92 133,91 137,91 141,91 145,91 149,91 153,92 157,92 161,92 165,92 169,91 173,91 177,91 181,91 185,90 189,91 193,91 197,90 202,90 206,91 210,90 214,90 218,91 222,91 226,91 230,90 234,91 238,91 242,91 246,92 250,91 254,91 258,92 262,92 266,92 270,91 274,92 278,91 282,91 286,92 290,92 295,92 299,92 303,92 307,92 311,92 315,92 319,92 323,92 327,92 331,92 335,92 339,92 343,92 347,92 351,92 355,92 359,92 363,92 367,92 371,92 375,92 379,92 383,92 387,92 391,92 395,92 400,92 404,92 408,92 412,92 416,92 419,92 419,100 0,100" fill="url(#grad)" stroke="none" />
<polyline points="0,91 4,91 8,92 12,92 16,92 20,92 24,92 28,92 32,92 36,92 40,92 44,92 48,92 52,92 56,92 60,92 64,92 68,92 72,92 76,92 80,92 84,92 88,92 92,92 96,92 100,91 105,91 109,91 113,92 117,91 121,91 125,91 129,92 133,91 137,91 141,91 145,91 149,91 153,92 157,92 161,92 165,92 169,91 173,91 177,91 181,91 185,90 189,91 193,91 197,90 202,90 206,91 210,90 214,90 218,91 222,91 226,91 230,90 234,91 238,91 242,91 246,92 250,91 254,91 258,92 262,92 266,92 270,91 274,92 278,91 282,91 286,92 290,92 295,92 299,92 303,92 307,92 311,92 315,92 319,92 323,92 327,92 331,92 335,92 339,92 343,92 347,92 351,92 355,92 359,92 363,92 367,92 371,92 375,92 379,92 383,92 387,92 391,92 395,92 400,92 404,92 408,92 412,92 416,92 419,92" stroke="#2963da" fill="none" stroke-width="3" stroke-linejoin="round" stroke-linecap="round" />
</svg>