<svg width="419" height="100" viewBox="0 0 419 100" xmlns="http://www.w3.org/2000/svg" xmlns:xlink="http://www.w3.org/1999/xlink"><defs>
<linearGradient id="grad" x1="0%" y1="0%" x2="0%" y2="100%">
<stop offset="0%" stop-color="#2963da" stop-opacity="0.40"/>
<stop offset="100%" stop-color="#070720" stop-opacity="0.20"/>
</linearGradient>
</defs>
<rect x="0" y="0" width="419" height="100" fill="none" />
<polygon points="0,89 4,89 8,89 12,90 16,90 20,90 24,90 29,90 33,90 37,90 41,90 45,90 49,90 53,90 57,90 61,90 66,91 70,92 74,91 78,92 82,92 86,92 90,92 95,92 99,92 103,92 107,92 111,92 115,92 120,92 124,92 128,91 132,92 136,91 140,91 145,90 149,90 153,90 157,90 161,90 165,90 169,90 173,85 178,80 182,80 186,85 190,89 194,90 198,90 202,90 206,90 211,88 215,85 219,84 223,83 227,82 231,80 235,75 240,71 244,74 248,79 252,82 256,82 260,82 264,82 268,84 272,87 276,83 280,82 284,81 288,82 293,81 297,80 301,79 305,78 309,75 313,74 317,72 321,69 325,69 329,70 333,73 337,77 341,81 345,84 349,86 354,84 358,83 362,85 366,87 370,84 374,81 379,82 383,81 387,85 391,88 395,89 399,89 403,87 407,85 411,86 415,89 419,89 419,100 0,100" fill="url(#grad)" stroke="none" />
<polyline points="0,89 4,89 8,89 12,90 16,90 20,90 24,90 29,90 33,90 37,90 41,90 45,90 49,90 53,90 57,90 61,90 66,91 70,92 74,91 78,92 82,92 86,92 90,92 95,92 99,92 103,92 107,92 111,92 115,92 120,92 124,92 128,91 132,92 136,91 140,91 145,90 149,90 153,90 157,90 161,90 165,90 169,90 173,85 178,80 182,80 186,85 190,89 194,90 198,90 202,90 206,90 211,88 215,85 219,84 223,83 227,82 231,80 235,75 240,71 244,74 248,79 252,82 256,82 260,82 264,82 268,84 272,87 276,83 280,82 284,81 288,82 293,81 297,80 301,79 305,78 309,75 313,74 317,72 321,69 325,69 329,70 333,73 337,77 341,81 345,84 349,86 354,84 358,83 362,85 366,87 370,84 374,81 379,82 383,81 387,85 391,88 395,89 399,89 403,87 407,85 411,86 415,89 419,89" stroke="#2963da" fill="none" stroke-width="3" stroke-linejoin="round" stroke-linecap="round" />
</svg>