<svg width="419" height="100" viewBox="0 0 419 100" xmlns="http://www.w3.org/2000/svg" xmlns:xlink="http://www.w3.org/1999/xlink"><defs>
<linearGradient id="grad" x1="0%" y1="0%" x2="0%" y2="100%">
<stop offset="0%" stop-color="#2963da" stop-opacity="0.40"/>
<stop offset="100%" stop-color="#070720" stop-opacity="0.20"/>
</linearGradient>
</defs>
<rect x="0" y="0" width="419" height="100" fill="none" />
<polygon points="0,92 4,92 8,92 12,92 16,92 20,92 24,92 29,92 33,92 37,92 41,92 45,92 49,91 53,91 57,90 61,90 65,90 69,89 73,87 78,83 82,83 86,84 90,88 94,89 98,89 102,90 106,90 110,91 114,90 119,89 123,85 127,84 131,85 135,85 139,87 143,90 147,91 151,92 156,92 160,91 164,91 168,90 172,89 176,89 180,90 184,85 189,85 193,89 197,90 201,91 205,90 209,87 213,83 217,84 222,86 226,86 230,91 234,90 238,92 242,92 246,91 250,92 254,91 258,89 263,88 267,90 271,87 275,85 279,87 283,90 287,91 291,90 295,89 299,84 304,84 308,85 312,85 316,87 320,90 324,91 328,92 332,92 337,91 341,91 345,90 349,88 353,90 357,89 362,85 366,86 370,89 374,91 378,91 382,90 386,87 390,83 394,84 399,86 403,86 407,91 411,91 415,92 419,92 419,100 0,100" fill="url(#grad)" stroke="none" />
<polyline points="0,92 4,92 8,92 12,92 16,92 20,92 24,92 29,92 33,92 37,92 41,92 45,92 49,91 53,91 57,90 61,90 65,90 69,89 73,87 78,83 82,83 86,84 90,88 94,89 98,89 102,90 106,90 110,91 114,90 119,89 123,85 127,84 131,85 135,85 139,87 143,90 147,91 151,92 156,92 160,91 164,91 168,90 172,89 176,89 180,90 184,85 189,85 193,89 197,90 201,91 205,90 209,87 213,83 217,84 222,86 226,86 230,91 234,90 238,92 242,92 246,91 250,92 254,91 258,89 263,88 267,90 271,87 275,85 279,87 283,90 287,91 291,90 295,89 299,84 304,84 308,85 312,85 316,87 320,90 324,91 328,92 332,92 337,91 341,91 345,90 349,88 353,90 357,89 362,85 366,86 370,89 374,91 378,91 382,90 386,87 390,83 394,84 399,86 403,86 407,91 411,91 415,92 419,92" stroke="#2963da" fill="none" stroke-width="3" stroke-linejoin="round" stroke-linecap="round" />
</svg>