<svg width="419" height="100" viewBox="0 0 419 100" xmlns="http://www.w3.org/2000/svg" xmlns:xlink="http://www.w3.org/1999/xlink"><defs>
<linearGradient id="grad" x1="0%" y1="0%" x2="0%" y2="100%">
<stop offset="0%" stop-color="#2963da" stop-opacity="0.40"/>
<stop offset="100%" stop-color="#070720" stop-opacity="0.20"/>
</linearGradient>
</defs>
<rect x="0" y="0" width="419" height="100" fill="none" />
<polygon points="0,84 4,86 8,88 12,87 16,90 20,91 24,91 28,92 32,91 36,92 40,91 45,89 49,85 53,86 57,84 61,82 65,79 69,77 73,78 77,79 81,81 85,81 90,82 95,83 99,84 103,85 107,86 111,87 115,88 119,89 123,90 127,91 132,91 136,91 140,91 144,91 148,91 152,91 156,91 160,91 164,91 168,91 172,89 177,87 181,88 185,87 189,87 193,86 197,85 201,85 205,84 209,83 213,83 217,85 221,87 226,87 230,87 234,89 238,90 242,91 246,92 250,91 254,91 258,91 262,92 267,91 271,91 276,92 280,92 284,92 288,92 292,92 297,92 301,92 305,92 309,92 313,92 317,92 321,92 325,92 329,92 334,92 338,92 342,91 346,90 350,91 355,92 359,92 363,92 368,92 372,92 376,92 380,92 384,92 389,92 393,92 398,92 402,92 406,92 410,92 414,92 418,92 419,92 419,100 0,100" fill="url(#grad)" stroke="none" />
<polyline points="0,84 4,86 8,88 12,87 16,90 20,91 24,91 28,92 32,91 36,92 40,91 45,89 49,85 53,86 57,84 61,82 65,79 69,77 73,78 77,79 81,81 85,81 90,82 95,83 99,84 103,85 107,86 111,87 115,88 119,89 123,90 127,91 132,91 136,91 140,91 144,91 148,91 152,91 156,91 160,91 164,91 168,91 172,89 177,87 181,88 185,87 189,87 193,86 197,85 201,85 205,84 209,83 213,83 217,85 221,87 226,87 230,87 234,89 238,90 242,91 246,92 250,91 254,91 258,91 262,92 267,91 271,91 276,92 280,92 284,92 288,92 292,92 297,92 301,92 305,92 309,92 313,92 317,92 321,92 325,92 329,92 334,92 338,92 342,91 346,90 350,91 355,92 359,92 363,92 368,92 372,92 376,92 380,92 384,92 389,92 393,92 398,92 402,92 406,92 410,92 414,92 418,92 419,92" stroke="#2963da" fill="none" stroke-width="3" stroke-linejoin="round" stroke-linecap="round" />
</svg>