<svg width="419" height="100" viewBox="0 0 419 100" xmlns="http://www.w3.org/2000/svg" xmlns:xlink="http://www.w3.org/1999/xlink"><defs>
<linearGradient id="grad" x1="0%" y1="0%" x2="0%" y2="100%">
<stop offset="0%" stop-color="#2963da" stop-opacity="0.40"/>
<stop offset="100%" stop-color="#070720" stop-opacity="0.20"/>
</linearGradient>
</defs>
<rect x="0" y="0" width="419" height="100" fill="none" />
<polygon points="0,92 4,92 8,92 12,90 16,89 20,91 24,92 28,91 32,91 36,88 40,84 44,82 48,82 52,84 56,86 60,89 65,90 69,90 73,90 77,89 81,87 85,87 89,88 93,87 97,88 101,88 105,87 109,87 113,86 118,86 122,86 126,86 130,85 134,85 138,84 142,84 146,83 150,83 154,83 158,82 162,82 166,78 170,79 175,80 179,78 183,78 187,75 191,72 195,69 199,65 203,62 207,58 211,59 215,62 219,66 223,69 227,71 231,75 235,76 239,75 244,73 248,72 252,71 256,69 260,69 264,68 268,66 272,62 276,60 280,64 284,64 288,64 292,64 297,63 301,60 305,57 309,54 313,51 317,48 321,48 325,48 329,47 333,48 337,50 341,52 345,55 349,55 353,53 357,51 361,52 366,52 370,51 374,48 378,46 382,43 386,39 390,36 394,32 398,28 402,25 406,26 410,26 414,25 418,24 419,24 419,100 0,100" fill="url(#grad)" stroke="none" />
<polyline points="0,92 4,92 8,92 12,90 16,89 20,91 24,92 28,91 32,91 36,88 40,84 44,82 48,82 52,84 56,86 60,89 65,90 69,90 73,90 77,89 81,87 85,87 89,88 93,87 97,88 101,88 105,87 109,87 113,86 118,86 122,86 126,86 130,85 134,85 138,84 142,84 146,83 150,83 154,83 158,82 162,82 166,78 170,79 175,80 179,78 183,78 187,75 191,72 195,69 199,65 203,62 207,58 211,59 215,62 219,66 223,69 227,71 231,75 235,76 239,75 244,73 248,72 252,71 256,69 260,69 264,68 268,66 272,62 276,60 280,64 284,64 288,64 292,64 297,63 301,60 305,57 309,54 313,51 317,48 321,48 325,48 329,47 333,48 337,50 341,52 345,55 349,55 353,53 357,51 361,52 366,52 370,51 374,48 378,46 382,43 386,39 390,36 394,32 398,28 402,25 406,26 410,26 414,25 418,24 419,24" stroke="#2963da" fill="none" stroke-width="3" stroke-linejoin="round" stroke-linecap="round" />
</svg>