<svg width="419" height="100" viewBox="0 0 419 100" xmlns="http://www.w3.org/2000/svg" xmlns:xlink="http://www.w3.org/1999/xlink"><defs>
<linearGradient id="grad" x1="0%" y1="0%" x2="0%" y2="100%">
<stop offset="0%" stop-color="#2963da" stop-opacity="0.40"/>
<stop offset="100%" stop-color="#070720" stop-opacity="0.20"/>
</linearGradient>
</defs>
<rect x="0" y="0" width="419" height="100" fill="none" />
<polygon points="0,90 4,91 8,91 12,92 16,92 20,92 24,92 29,92 33,92 37,92 41,92 45,92 50,92 54,92 58,92 62,92 66,91 70,91 74,90 78,90 83,90 87,90 91,90 95,89 99,88 103,88 108,87 112,88 116,88 120,88 124,87 128,86 132,86 136,82 141,77 145,71 149,65 153,59 157,55 161,59 165,65 169,71 173,77 178,82 182,85 186,88 190,87 194,87 198,88 202,87 206,84 210,81 214,79 218,79 223,79 227,80 231,82 235,84 239,84 243,84 247,85 251,86 256,88 260,89 264,89 268,90 272,90 277,90 281,90 285,89 289,88 293,86 297,82 301,78 305,74 309,72 314,75 318,78 322,80 326,81 330,82 334,82 338,82 343,81 347,80 351,80 355,82 359,83 363,83 368,84 372,85 376,85 380,85 384,84 388,84 392,84 396,85 401,86 405,87 409,88 413,88 417,89 419,89 419,100 0,100" fill="url(#grad)" stroke="none" />
<polyline points="0,90 4,91 8,91 12,92 16,92 20,92 24,92 29,92 33,92 37,92 41,92 45,92 50,92 54,92 58,92 62,92 66,91 70,91 74,90 78,90 83,90 87,90 91,90 95,89 99,88 103,88 108,87 112,88 116,88 120,88 124,87 128,86 132,86 136,82 141,77 145,71 149,65 153,59 157,55 161,59 165,65 169,71 173,77 178,82 182,85 186,88 190,87 194,87 198,88 202,87 206,84 210,81 214,79 218,79 223,79 227,80 231,82 235,84 239,84 243,84 247,85 251,86 256,88 260,89 264,89 268,90 272,90 277,90 281,90 285,89 289,88 293,86 297,82 301,78 305,74 309,72 314,75 318,78 322,80 326,81 330,82 334,82 338,82 343,81 347,80 351,80 355,82 359,83 363,83 368,84 372,85 376,85 380,85 384,84 388,84 392,84 396,85 401,86 405,87 409,88 413,88 417,89 419,89" stroke="#2963da" fill="none" stroke-width="3" stroke-linejoin="round" stroke-linecap="round" />
</svg>