<svg width="419" height="100" viewBox="0 0 419 100" xmlns="http://www.w3.org/2000/svg" xmlns:xlink="http://www.w3.org/1999/xlink"><defs>
<linearGradient id="grad" x1="0%" y1="0%" x2="0%" y2="100%">
<stop offset="0%" stop-color="#2963da" stop-opacity="0.40"/>
<stop offset="100%" stop-color="#070720" stop-opacity="0.20"/>
</linearGradient>
</defs>
<rect x="0" y="0" width="419" height="100" fill="none" />
<polygon points="0,92 4,92 8,92 12,92 16,92 20,92 24,91 28,91 32,90 37,89 41,88 45,87 49,85 53,83 57,81 61,80 65,78 69,76 73,75 77,75 81,75 86,75 90,73 94,73 98,72 102,68 106,63 110,57 114,54 118,56 123,53 127,47 131,42 135,38 139,35 143,36 147,34 151,30 155,35 159,41 164,46 168,52 172,57 176,60 180,62 184,66 188,71 192,76 196,80 200,84 204,85 208,85 212,81 216,76 220,69 224,65 228,59 232,54 237,49 241,44 245,39 249,35 253,30 257,27 261,33 265,38 269,42 273,45 277,50 281,55 285,61 289,64 293,64 297,66 301,69 305,73 310,77 314,83 318,86 322,86 326,86 330,85 334,83 338,85 342,84 346,81 350,80 354,79 358,76 362,71 367,68 371,63 375,58 379,53 383,48 387,44 391,41 395,37 399,34 403,30 407,25 412,23 416,18 419,15 419,100 0,100" fill="url(#grad)" stroke="none" />
<polyline points="0,92 4,92 8,92 12,92 16,92 20,92 24,91 28,91 32,90 37,89 41,88 45,87 49,85 53,83 57,81 61,80 65,78 69,76 73,75 77,75 81,75 86,75 90,73 94,73 98,72 102,68 106,63 110,57 114,54 118,56 123,53 127,47 131,42 135,38 139,35 143,36 147,34 151,30 155,35 159,41 164,46 168,52 172,57 176,60 180,62 184,66 188,71 192,76 196,80 200,84 204,85 208,85 212,81 216,76 220,69 224,65 228,59 232,54 237,49 241,44 245,39 249,35 253,30 257,27 261,33 265,38 269,42 273,45 277,50 281,55 285,61 289,64 293,64 297,66 301,69 305,73 310,77 314,83 318,86 322,86 326,86 330,85 334,83 338,85 342,84 346,81 350,80 354,79 358,76 362,71 367,68 371,63 375,58 379,53 383,48 387,44 391,41 395,37 399,34 403,30 407,25 412,23 416,18 419,15" stroke="#2963da" fill="none" stroke-width="3" stroke-linejoin="round" stroke-linecap="round" />
</svg>