<svg width="419" height="100" viewBox="0 0 419 100" xmlns="http://www.w3.org/2000/svg" xmlns:xlink="http://www.w3.org/1999/xlink"><defs>
<linearGradient id="grad" x1="0%" y1="0%" x2="0%" y2="100%">
<stop offset="0%" stop-color="#2963da" stop-opacity="0.40"/>
<stop offset="100%" stop-color="#070720" stop-opacity="0.20"/>
</linearGradient>
</defs>
<rect x="0" y="0" width="419" height="100" fill="none" />
<polygon points="0,84 4,83 8,82 12,81 16,82 20,83 24,85 28,83 32,81 36,80 40,78 44,77 48,77 52,77 56,75 60,74 64,74 68,77 72,75 76,75 80,75 85,76 89,77 93,76 97,74 101,73 105,72 109,71 113,70 117,69 121,68 125,66 129,66 133,68 137,69 141,70 145,71 149,71 153,69 157,67 162,67 166,69 170,72 174,76 178,79 182,80 186,78 190,79 194,79 198,77 202,76 206,76 210,78 214,79 218,81 222,83 226,85 230,86 234,84 239,84 243,85 247,88 251,85 255,84 259,85 263,86 267,85 271,85 275,84 279,82 283,81 287,82 291,82 295,82 299,83 303,83 307,81 311,80 315,79 320,79 324,77 328,79 332,78 336,77 340,77 344,76 348,79 352,81 356,84 360,85 364,86 368,85 372,84 376,83 380,83 384,86 388,88 392,90 397,92 401,92 405,91 409,89 413,87 417,88 419,88 419,100 0,100" fill="url(#grad)" stroke="none" />
<polyline points="0,84 4,83 8,82 12,81 16,82 20,83 24,85 28,83 32,81 36,80 40,78 44,77 48,77 52,77 56,75 60,74 64,74 68,77 72,75 76,75 80,75 85,76 89,77 93,76 97,74 101,73 105,72 109,71 113,70 117,69 121,68 125,66 129,66 133,68 137,69 141,70 145,71 149,71 153,69 157,67 162,67 166,69 170,72 174,76 178,79 182,80 186,78 190,79 194,79 198,77 202,76 206,76 210,78 214,79 218,81 222,83 226,85 230,86 234,84 239,84 243,85 247,88 251,85 255,84 259,85 263,86 267,85 271,85 275,84 279,82 283,81 287,82 291,82 295,82 299,83 303,83 307,81 311,80 315,79 320,79 324,77 328,79 332,78 336,77 340,77 344,76 348,79 352,81 356,84 360,85 364,86 368,85 372,84 376,83 380,83 384,86 388,88 392,90 397,92 401,92 405,91 409,89 413,87 417,88 419,88" stroke="#2963da" fill="none" stroke-width="3" stroke-linejoin="round" stroke-linecap="round" />
</svg>