<svg width="419" height="100" viewBox="0 0 419 100" xmlns="http://www.w3.org/2000/svg" xmlns:xlink="http://www.w3.org/1999/xlink"><defs>
<linearGradient id="grad" x1="0%" y1="0%" x2="0%" y2="100%">
<stop offset="0%" stop-color="#2963da" stop-opacity="0.40"/>
<stop offset="100%" stop-color="#070720" stop-opacity="0.20"/>
</linearGradient>
</defs>
<rect x="0" y="0" width="419" height="100" fill="none" />
<polygon points="0,91 4,92 8,92 12,92 17,92 21,92 26,92 30,92 34,92 38,92 42,92 46,92 51,92 55,92 59,92 63,92 67,92 71,92 75,92 80,92 84,92 88,92 92,92 97,92 101,92 105,92 110,92 114,92 118,92 123,92 127,92 131,92 135,92 139,92 144,92 148,92 153,92 157,92 161,92 165,92 170,92 174,91 178,91 182,90 186,89 190,87 194,87 198,89 202,89 206,89 210,91 215,90 219,89 223,89 227,86 231,88 235,89 239,89 243,90 247,91 251,90 255,89 259,87 263,87 267,90 272,89 276,90 280,91 284,90 288,89 292,89 296,86 300,88 304,89 308,89 312,90 316,91 320,89 324,89 329,86 333,87 337,90 341,88 345,90 349,91 353,90 357,89 361,88 365,87 369,89 374,88 378,89 382,90 386,91 390,89 394,89 398,86 402,87 406,89 410,89 414,90 419,91 419,100 0,100" fill="url(#grad)" stroke="none" />
<polyline points="0,91 4,92 8,92 12,92 17,92 21,92 26,92 30,92 34,92 38,92 42,92 46,92 51,92 55,92 59,92 63,92 67,92 71,92 75,92 80,92 84,92 88,92 92,92 97,92 101,92 105,92 110,92 114,92 118,92 123,92 127,92 131,92 135,92 139,92 144,92 148,92 153,92 157,92 161,92 165,92 170,92 174,91 178,91 182,90 186,89 190,87 194,87 198,89 202,89 206,89 210,91 215,90 219,89 223,89 227,86 231,88 235,89 239,89 243,90 247,91 251,90 255,89 259,87 263,87 267,90 272,89 276,90 280,91 284,90 288,89 292,89 296,86 300,88 304,89 308,89 312,90 316,91 320,89 324,89 329,86 333,87 337,90 341,88 345,90 349,91 353,90 357,89 361,88 365,87 369,89 374,88 378,89 382,90 386,91 390,89 394,89 398,86 402,87 406,89 410,89 414,90 419,91" stroke="#2963da" fill="none" stroke-width="3" stroke-linejoin="round" stroke-linecap="round" />
</svg>