<svg width="419" height="100" viewBox="0 0 419 100" xmlns="http://www.w3.org/2000/svg" xmlns:xlink="http://www.w3.org/1999/xlink"><defs>
<linearGradient id="grad" x1="0%" y1="0%" x2="0%" y2="100%">
<stop offset="0%" stop-color="#2963da" stop-opacity="0.40"/>
<stop offset="100%" stop-color="#070720" stop-opacity="0.20"/>
</linearGradient>
</defs>
<rect x="0" y="0" width="419" height="100" fill="none" />
<polygon points="0,89 4,89 8,89 12,88 16,87 20,86 24,86 28,85 33,84 37,83 41,82 46,80 50,80 54,79 58,78 62,79 66,76 70,72 74,67 78,64 82,61 86,58 90,57 94,58 98,57 102,58 107,60 111,61 115,63 119,65 123,62 127,59 131,57 135,57 139,58 144,57 148,60 152,62 156,63 160,65 164,69 168,72 172,73 176,74 180,77 184,78 188,79 192,79 197,80 201,81 205,78 209,76 213,77 217,79 221,81 225,84 229,86 233,83 237,80 241,82 245,84 250,87 254,86 258,83 262,81 266,80 270,80 274,82 278,83 282,82 286,82 290,79 294,76 298,73 302,73 306,76 310,78 314,80 319,83 323,85 327,86 331,89 335,90 339,90 343,89 348,89 352,90 357,90 361,90 366,90 371,89 375,89 379,89 383,90 387,91 391,91 396,92 400,92 404,92 408,92 412,92 416,92 419,92 419,100 0,100" fill="url(#grad)" stroke="none" />
<polyline points="0,89 4,89 8,89 12,88 16,87 20,86 24,86 28,85 33,84 37,83 41,82 46,80 50,80 54,79 58,78 62,79 66,76 70,72 74,67 78,64 82,61 86,58 90,57 94,58 98,57 102,58 107,60 111,61 115,63 119,65 123,62 127,59 131,57 135,57 139,58 144,57 148,60 152,62 156,63 160,65 164,69 168,72 172,73 176,74 180,77 184,78 188,79 192,79 197,80 201,81 205,78 209,76 213,77 217,79 221,81 225,84 229,86 233,83 237,80 241,82 245,84 250,87 254,86 258,83 262,81 266,80 270,80 274,82 278,83 282,82 286,82 290,79 294,76 298,73 302,73 306,76 310,78 314,80 319,83 323,85 327,86 331,89 335,90 339,90 343,89 348,89 352,90 357,90 361,90 366,90 371,89 375,89 379,89 383,90 387,91 391,91 396,92 400,92 404,92 408,92 412,92 416,92 419,92" stroke="#2963da" fill="none" stroke-width="3" stroke-linejoin="round" stroke-linecap="round" />
</svg>