<svg width="419" height="100" viewBox="0 0 419 100" xmlns="http://www.w3.org/2000/svg" xmlns:xlink="http://www.w3.org/1999/xlink"><defs>
<linearGradient id="grad" x1="0%" y1="0%" x2="0%" y2="100%">
<stop offset="0%" stop-color="#2963da" stop-opacity="0.40"/>
<stop offset="100%" stop-color="#070720" stop-opacity="0.20"/>
</linearGradient>
</defs>
<rect x="0" y="0" width="419" height="100" fill="none" />
<polygon points="0,92 4,91 8,92 12,91 16,92 20,91 24,90 28,89 32,86 36,85 40,82 44,80 48,76 52,73 57,73 61,77 65,79 69,76 73,76 77,75 81,78 85,80 89,83 93,84 97,83 101,81 105,85 109,84 113,81 118,80 122,82 126,81 130,81 134,79 138,76 142,75 146,75 150,77 154,80 158,83 162,82 166,80 171,77 175,74 179,77 183,79 187,82 191,85 195,87 199,86 203,87 207,83 211,80 215,76 219,78 223,82 228,85 232,83 236,85 240,88 244,89 248,87 252,89 256,88 260,89 264,90 268,89 272,87 277,89 281,90 285,91 289,91 293,90 297,90 301,88 305,89 309,89 314,88 318,88 322,86 326,83 330,79 334,80 338,81 342,84 346,86 350,88 354,88 358,88 362,88 366,90 370,90 375,91 379,90 383,88 387,83 391,83 395,87 399,89 403,90 407,90 411,91 415,92 419,92 419,100 0,100" fill="url(#grad)" stroke="none" />
<polyline points="0,92 4,91 8,92 12,91 16,92 20,91 24,90 28,89 32,86 36,85 40,82 44,80 48,76 52,73 57,73 61,77 65,79 69,76 73,76 77,75 81,78 85,80 89,83 93,84 97,83 101,81 105,85 109,84 113,81 118,80 122,82 126,81 130,81 134,79 138,76 142,75 146,75 150,77 154,80 158,83 162,82 166,80 171,77 175,74 179,77 183,79 187,82 191,85 195,87 199,86 203,87 207,83 211,80 215,76 219,78 223,82 228,85 232,83 236,85 240,88 244,89 248,87 252,89 256,88 260,89 264,90 268,89 272,87 277,89 281,90 285,91 289,91 293,90 297,90 301,88 305,89 309,89 314,88 318,88 322,86 326,83 330,79 334,80 338,81 342,84 346,86 350,88 354,88 358,88 362,88 366,90 370,90 375,91 379,90 383,88 387,83 391,83 395,87 399,89 403,90 407,90 411,91 415,92 419,92" stroke="#2963da" fill="none" stroke-width="3" stroke-linejoin="round" stroke-linecap="round" />
</svg>