<svg width="419" height="100" viewBox="0 0 419 100" xmlns="http://www.w3.org/2000/svg" xmlns:xlink="http://www.w3.org/1999/xlink"><defs>
<linearGradient id="grad" x1="0%" y1="0%" x2="0%" y2="100%">
<stop offset="0%" stop-color="#2963da" stop-opacity="0.40"/>
<stop offset="100%" stop-color="#070720" stop-opacity="0.20"/>
</linearGradient>
</defs>
<rect x="0" y="0" width="419" height="100" fill="none" />
<polygon points="0,92 4,92 8,89 12,88 16,88 20,87 24,88 28,88 32,88 36,86 41,86 45,86 49,85 53,84 57,84 61,86 65,89 69,90 73,90 77,90 81,90 85,87 89,84 93,81 97,82 102,83 106,77 110,79 114,81 118,85 122,87 126,88 130,87 134,87 138,86 142,86 147,85 151,82 155,75 159,75 163,82 167,85 171,86 175,88 179,89 183,89 187,90 192,87 196,79 200,77 204,73 208,70 212,70 216,73 220,77 224,81 228,85 233,87 237,89 241,89 245,86 249,88 253,90 257,90 261,91 265,89 269,89 274,91 278,91 282,90 286,85 290,86 294,87 298,90 303,87 307,83 311,80 315,78 319,82 323,84 327,89 331,87 335,91 339,88 343,88 348,88 352,90 356,90 360,85 364,82 368,82 372,84 376,89 380,87 384,91 389,88 393,88 397,88 401,90 405,90 409,85 413,82 417,82 419,82 419,100 0,100" fill="url(#grad)" stroke="none" />
<polyline points="0,92 4,92 8,89 12,88 16,88 20,87 24,88 28,88 32,88 36,86 41,86 45,86 49,85 53,84 57,84 61,86 65,89 69,90 73,90 77,90 81,90 85,87 89,84 93,81 97,82 102,83 106,77 110,79 114,81 118,85 122,87 126,88 130,87 134,87 138,86 142,86 147,85 151,82 155,75 159,75 163,82 167,85 171,86 175,88 179,89 183,89 187,90 192,87 196,79 200,77 204,73 208,70 212,70 216,73 220,77 224,81 228,85 233,87 237,89 241,89 245,86 249,88 253,90 257,90 261,91 265,89 269,89 274,91 278,91 282,90 286,85 290,86 294,87 298,90 303,87 307,83 311,80 315,78 319,82 323,84 327,89 331,87 335,91 339,88 343,88 348,88 352,90 356,90 360,85 364,82 368,82 372,84 376,89 380,87 384,91 389,88 393,88 397,88 401,90 405,90 409,85 413,82 417,82 419,82" stroke="#2963da" fill="none" stroke-width="3" stroke-linejoin="round" stroke-linecap="round" />
</svg>