<svg width="419" height="100" viewBox="0 0 419 100" xmlns="http://www.w3.org/2000/svg" xmlns:xlink="http://www.w3.org/1999/xlink"><defs>
<linearGradient id="grad" x1="0%" y1="0%" x2="0%" y2="100%">
<stop offset="0%" stop-color="#2963da" stop-opacity="0.40"/>
<stop offset="100%" stop-color="#070720" stop-opacity="0.20"/>
</linearGradient>
</defs>
<rect x="0" y="0" width="419" height="100" fill="none" />
<polygon points="0,92 4,92 8,92 12,92 16,92 20,92 24,92 29,92 33,92 37,92 41,92 45,92 49,92 53,92 58,92 62,92 66,92 70,92 75,92 79,92 83,92 87,92 91,92 95,92 99,92 103,92 107,92 111,91 116,91 120,91 124,91 128,91 132,91 136,91 141,91 145,91 149,91 153,91 157,90 161,90 165,90 169,90 174,90 178,90 182,90 186,89 190,89 194,89 198,89 202,89 207,89 211,89 215,88 219,88 223,87 227,87 231,88 236,87 240,87 244,86 248,85 252,85 256,83 260,84 265,85 269,86 273,85 277,86 281,86 285,85 289,85 293,86 297,86 302,85 306,85 310,84 314,85 318,85 322,85 326,85 330,84 335,84 339,84 343,85 347,84 351,85 355,84 359,79 363,81 368,82 372,83 376,82 380,85 384,85 388,85 392,85 396,86 401,86 405,86 409,86 413,86 417,85 419,84 419,100 0,100" fill="url(#grad)" stroke="none" />
<polyline points="0,92 4,92 8,92 12,92 16,92 20,92 24,92 29,92 33,92 37,92 41,92 45,92 49,92 53,92 58,92 62,92 66,92 70,92 75,92 79,92 83,92 87,92 91,92 95,92 99,92 103,92 107,92 111,91 116,91 120,91 124,91 128,91 132,91 136,91 141,91 145,91 149,91 153,91 157,90 161,90 165,90 169,90 174,90 178,90 182,90 186,89 190,89 194,89 198,89 202,89 207,89 211,89 215,88 219,88 223,87 227,87 231,88 236,87 240,87 244,86 248,85 252,85 256,83 260,84 265,85 269,86 273,85 277,86 281,86 285,85 289,85 293,86 297,86 302,85 306,85 310,84 314,85 318,85 322,85 326,85 330,84 335,84 339,84 343,85 347,84 351,85 355,84 359,79 363,81 368,82 372,83 376,82 380,85 384,85 388,85 392,85 396,86 401,86 405,86 409,86 413,86 417,85 419,84" stroke="#2963da" fill="none" stroke-width="3" stroke-linejoin="round" stroke-linecap="round" />
</svg>