<svg width="419" height="100" viewBox="0 0 419 100" xmlns="http://www.w3.org/2000/svg" xmlns:xlink="http://www.w3.org/1999/xlink"><defs>
<linearGradient id="grad" x1="0%" y1="0%" x2="0%" y2="100%">
<stop offset="0%" stop-color="#2963da" stop-opacity="0.40"/>
<stop offset="100%" stop-color="#070720" stop-opacity="0.20"/>
</linearGradient>
</defs>
<rect x="0" y="0" width="419" height="100" fill="none" />
<polygon points="0,91 4,91 8,91 12,90 17,90 22,90 27,90 31,90 35,90 39,90 43,90 48,89 52,89 57,90 61,90 65,90 69,89 74,90 79,90 83,90 88,90 93,90 98,90 102,90 106,90 111,90 115,91 120,91 124,91 128,91 132,91 136,92 141,92 148,92 154,92 158,92 162,92 166,92 170,92 175,92 179,92 184,92 188,92 193,92 197,92 202,92 206,92 211,92 215,92 219,92 223,92 229,92 233,92 237,92 241,92 247,92 251,92 255,92 260,92 264,92 268,92 272,92 278,92 282,92 287,92 296,92 302,92 306,92 310,92 315,92 319,92 323,92 328,92 332,92 337,92 341,92 346,92 351,92 355,92 360,92 364,92 369,92 373,92 377,92 381,92 386,92 392,92 400,92 404,91 409,92 413,92 417,92 419,92 419,100 0,100" fill="url(#grad)" stroke="none" />
<polyline points="0,91 4,91 8,91 12,90 17,90 22,90 27,90 31,90 35,90 39,90 43,90 48,89 52,89 57,90 61,90 65,90 69,89 74,90 79,90 83,90 88,90 93,90 98,90 102,90 106,90 111,90 115,91 120,91 124,91 128,91 132,91 136,92 141,92 148,92 154,92 158,92 162,92 166,92 170,92 175,92 179,92 184,92 188,92 193,92 197,92 202,92 206,92 211,92 215,92 219,92 223,92 229,92 233,92 237,92 241,92 247,92 251,92 255,92 260,92 264,92 268,92 272,92 278,92 282,92 287,92 296,92 302,92 306,92 310,92 315,92 319,92 323,92 328,92 332,92 337,92 341,92 346,92 351,92 355,92 360,92 364,92 369,92 373,92 377,92 381,92 386,92 392,92 400,92 404,91 409,92 413,92 417,92 419,92" stroke="#2963da" fill="none" stroke-width="3" stroke-linejoin="round" stroke-linecap="round" />
</svg>