<svg width="419" height="100" viewBox="0 0 419 100" xmlns="http://www.w3.org/2000/svg" xmlns:xlink="http://www.w3.org/1999/xlink"><defs>
<linearGradient id="grad" x1="0%" y1="0%" x2="0%" y2="100%">
<stop offset="0%" stop-color="#2963da" stop-opacity="0.40"/>
<stop offset="100%" stop-color="#070720" stop-opacity="0.20"/>
</linearGradient>
</defs>
<rect x="0" y="0" width="419" height="100" fill="none" />
<polygon points="0,85 4,85 8,84 12,83 16,82 20,78 24,79 28,78 32,77 36,76 41,75 45,73 49,76 53,79 57,82 61,83 65,84 70,85 74,85 78,85 82,85 86,84 90,81 95,78 99,74 103,74 107,72 111,72 115,75 119,75 123,81 127,86 132,85 136,83 140,85 144,87 148,88 153,88 157,88 161,89 165,88 169,88 173,86 177,81 181,80 185,79 189,78 193,79 197,78 201,77 205,81 210,85 214,82 218,80 222,83 226,87 230,88 234,89 238,86 242,83 246,81 250,85 255,89 259,90 263,91 267,91 271,91 275,91 279,92 283,91 287,88 291,87 296,91 300,91 304,91 308,92 312,92 316,92 320,92 324,91 329,91 333,92 338,92 342,92 346,92 350,92 354,92 358,92 362,91 366,91 370,90 375,89 379,87 383,84 387,76 391,73 395,76 399,81 403,84 407,87 411,89 415,89 419,89 419,100 0,100" fill="url(#grad)" stroke="none" />
<polyline points="0,85 4,85 8,84 12,83 16,82 20,78 24,79 28,78 32,77 36,76 41,75 45,73 49,76 53,79 57,82 61,83 65,84 70,85 74,85 78,85 82,85 86,84 90,81 95,78 99,74 103,74 107,72 111,72 115,75 119,75 123,81 127,86 132,85 136,83 140,85 144,87 148,88 153,88 157,88 161,89 165,88 169,88 173,86 177,81 181,80 185,79 189,78 193,79 197,78 201,77 205,81 210,85 214,82 218,80 222,83 226,87 230,88 234,89 238,86 242,83 246,81 250,85 255,89 259,90 263,91 267,91 271,91 275,91 279,92 283,91 287,88 291,87 296,91 300,91 304,91 308,92 312,92 316,92 320,92 324,91 329,91 333,92 338,92 342,92 346,92 350,92 354,92 358,92 362,91 366,91 370,90 375,89 379,87 383,84 387,76 391,73 395,76 399,81 403,84 407,87 411,89 415,89 419,89" stroke="#2963da" fill="none" stroke-width="3" stroke-linejoin="round" stroke-linecap="round" />
</svg>