<svg width="419" height="100" viewBox="0 0 419 100" xmlns="http://www.w3.org/2000/svg" xmlns:xlink="http://www.w3.org/1999/xlink"><defs>
<linearGradient id="grad" x1="0%" y1="0%" x2="0%" y2="100%">
<stop offset="0%" stop-color="#2963da" stop-opacity="0.40"/>
<stop offset="100%" stop-color="#070720" stop-opacity="0.20"/>
</linearGradient>
</defs>
<rect x="0" y="0" width="419" height="100" fill="none" />
<polygon points="0,71 4,71 8,70 12,68 16,64 20,59 24,60 28,60 32,60 36,59 40,58 44,55 49,52 53,51 57,49 61,46 65,41 69,35 73,31 77,29 81,34 85,39 89,44 93,47 97,49 101,51 105,49 110,48 114,47 118,46 122,46 126,44 130,42 134,40 138,37 142,33 146,29 150,25 155,22 159,24 163,28 167,33 171,38 175,42 179,45 183,47 187,48 191,54 195,57 199,59 203,59 208,61 212,64 216,62 220,66 224,71 228,72 232,72 236,72 241,72 245,72 249,72 254,72 258,73 262,76 266,78 270,80 274,83 278,85 282,86 286,86 290,88 294,88 298,89 302,89 306,89 311,90 315,90 319,89 323,84 327,86 331,90 335,91 339,91 343,92 347,92 351,92 355,92 359,92 364,92 368,92 372,92 376,92 381,92 385,92 389,92 393,91 397,92 401,92 405,91 410,90 414,89 418,88 419,88 419,100 0,100" fill="url(#grad)" stroke="none" />
<polyline points="0,71 4,71 8,70 12,68 16,64 20,59 24,60 28,60 32,60 36,59 40,58 44,55 49,52 53,51 57,49 61,46 65,41 69,35 73,31 77,29 81,34 85,39 89,44 93,47 97,49 101,51 105,49 110,48 114,47 118,46 122,46 126,44 130,42 134,40 138,37 142,33 146,29 150,25 155,22 159,24 163,28 167,33 171,38 175,42 179,45 183,47 187,48 191,54 195,57 199,59 203,59 208,61 212,64 216,62 220,66 224,71 228,72 232,72 236,72 241,72 245,72 249,72 254,72 258,73 262,76 266,78 270,80 274,83 278,85 282,86 286,86 290,88 294,88 298,89 302,89 306,89 311,90 315,90 319,89 323,84 327,86 331,90 335,91 339,91 343,92 347,92 351,92 355,92 359,92 364,92 368,92 372,92 376,92 381,92 385,92 389,92 393,91 397,92 401,92 405,91 410,90 414,89 418,88 419,88" stroke="#2963da" fill="none" stroke-width="3" stroke-linejoin="round" stroke-linecap="round" />
</svg>