<svg width="419" height="100" viewBox="0 0 419 100" xmlns="http://www.w3.org/2000/svg" xmlns:xlink="http://www.w3.org/1999/xlink"><defs>
<linearGradient id="grad" x1="0%" y1="0%" x2="0%" y2="100%">
<stop offset="0%" stop-color="#2963da" stop-opacity="0.40"/>
<stop offset="100%" stop-color="#070720" stop-opacity="0.20"/>
</linearGradient>
</defs>
<rect x="0" y="0" width="419" height="100" fill="none" />
<polygon points="0,92 4,92 9,91 13,89 17,87 21,85 27,86 31,87 36,88 40,90 44,91 48,89 53,89 58,89 63,90 67,89 71,90 76,91 81,91 85,91 89,92 94,92 98,91 103,90 108,92 112,91 117,91 122,91 126,92 137,92 143,92 147,92 151,92 156,92 160,92 164,92 169,92 175,92 180,92 184,91 189,88 193,88 197,87 201,85 205,84 210,84 214,80 218,80 222,80 226,80 230,82 234,85 238,82 243,82 247,82 252,83 256,83 260,83 265,85 270,87 274,90 278,92 285,92 290,92 294,92 298,91 302,90 307,89 312,88 316,89 320,88 324,88 329,87 333,85 337,84 341,84 345,84 349,84 353,84 357,84 362,84 366,84 370,85 374,87 378,88 383,88 387,90 393,92 397,92 402,92 406,92 410,92 414,92 419,92 419,100 0,100" fill="url(#grad)" stroke="none" />
<polyline points="0,92 4,92 9,91 13,89 17,87 21,85 27,86 31,87 36,88 40,90 44,91 48,89 53,89 58,89 63,90 67,89 71,90 76,91 81,91 85,91 89,92 94,92 98,91 103,90 108,92 112,91 117,91 122,91 126,92 137,92 143,92 147,92 151,92 156,92 160,92 164,92 169,92 175,92 180,92 184,91 189,88 193,88 197,87 201,85 205,84 210,84 214,80 218,80 222,80 226,80 230,82 234,85 238,82 243,82 247,82 252,83 256,83 260,83 265,85 270,87 274,90 278,92 285,92 290,92 294,92 298,91 302,90 307,89 312,88 316,89 320,88 324,88 329,87 333,85 337,84 341,84 345,84 349,84 353,84 357,84 362,84 366,84 370,85 374,87 378,88 383,88 387,90 393,92 397,92 402,92 406,92 410,92 414,92 419,92" stroke="#2963da" fill="none" stroke-width="3" stroke-linejoin="round" stroke-linecap="round" />
</svg>