<svg width="419" height="100" viewBox="0 0 419 100" xmlns="http://www.w3.org/2000/svg" xmlns:xlink="http://www.w3.org/1999/xlink"><defs>
<linearGradient id="grad" x1="0%" y1="0%" x2="0%" y2="100%">
<stop offset="0%" stop-color="#2963da" stop-opacity="0.40"/>
<stop offset="100%" stop-color="#070720" stop-opacity="0.20"/>
</linearGradient>
</defs>
<rect x="0" y="0" width="419" height="100" fill="none" />
<polygon points="0,92 4,92 8,92 12,92 16,92 20,92 24,92 28,92 32,92 36,92 40,92 44,92 48,92 52,91 56,91 60,91 64,91 68,92 72,91 76,91 80,91 85,90 89,90 93,91 97,90 101,90 105,90 109,90 113,90 117,90 121,90 125,91 129,91 133,91 137,92 141,92 145,92 149,91 153,91 157,91 161,92 165,92 170,92 174,91 178,91 182,92 186,91 190,91 194,91 198,90 202,89 206,89 210,90 214,90 218,90 222,90 226,90 230,90 234,89 238,89 242,89 247,89 251,88 255,89 259,89 263,89 267,89 271,89 275,89 279,89 283,90 287,89 291,89 295,91 299,89 303,87 307,88 311,86 315,86 319,87 324,88 328,87 332,89 336,88 340,90 344,91 348,92 352,91 356,90 360,90 364,91 368,89 372,87 376,88 380,87 384,86 388,88 392,88 396,88 400,89 405,88 409,90 413,91 417,92 419,91 419,100 0,100" fill="url(#grad)" stroke="none" />
<polyline points="0,92 4,92 8,92 12,92 16,92 20,92 24,92 28,92 32,92 36,92 40,92 44,92 48,92 52,91 56,91 60,91 64,91 68,92 72,91 76,91 80,91 85,90 89,90 93,91 97,90 101,90 105,90 109,90 113,90 117,90 121,90 125,91 129,91 133,91 137,92 141,92 145,92 149,91 153,91 157,91 161,92 165,92 170,92 174,91 178,91 182,92 186,91 190,91 194,91 198,90 202,89 206,89 210,90 214,90 218,90 222,90 226,90 230,90 234,89 238,89 242,89 247,89 251,88 255,89 259,89 263,89 267,89 271,89 275,89 279,89 283,90 287,89 291,89 295,91 299,89 303,87 307,88 311,86 315,86 319,87 324,88 328,87 332,89 336,88 340,90 344,91 348,92 352,91 356,90 360,90 364,91 368,89 372,87 376,88 380,87 384,86 388,88 392,88 396,88 400,89 405,88 409,90 413,91 417,92 419,91" stroke="#2963da" fill="none" stroke-width="3" stroke-linejoin="round" stroke-linecap="round" />
</svg>