<svg width="419" height="100" viewBox="0 0 419 100" xmlns="http://www.w3.org/2000/svg" xmlns:xlink="http://www.w3.org/1999/xlink"><defs>
<linearGradient id="grad" x1="0%" y1="0%" x2="0%" y2="100%">
<stop offset="0%" stop-color="#2963da" stop-opacity="0.40"/>
<stop offset="100%" stop-color="#070720" stop-opacity="0.20"/>
</linearGradient>
</defs>
<rect x="0" y="0" width="419" height="100" fill="none" />
<polygon points="0,92 4,92 8,91 13,87 18,85 22,85 26,85 31,85 35,85 39,85 43,82 48,80 52,78 56,79 60,80 64,81 68,84 72,86 76,85 81,84 85,86 89,86 94,86 98,84 102,85 106,85 110,85 119,88 123,89 128,90 134,90 139,90 146,90 152,89 156,87 160,89 167,90 179,91 183,92 190,92 194,92 200,92 204,92 208,92 212,92 217,92 221,92 225,91 235,91 241,91 246,91 251,90 256,90 261,91 265,90 269,89 274,90 278,90 282,89 287,87 291,88 295,89 302,91 307,91 311,91 316,92 320,92 325,92 329,92 334,92 339,92 343,92 347,92 351,92 356,91 363,91 367,92 373,91 377,91 383,90 388,90 393,91 397,90 405,90 410,90 415,89 419,87 419,100 0,100" fill="url(#grad)" stroke="none" />
<polyline points="0,92 4,92 8,91 13,87 18,85 22,85 26,85 31,85 35,85 39,85 43,82 48,80 52,78 56,79 60,80 64,81 68,84 72,86 76,85 81,84 85,86 89,86 94,86 98,84 102,85 106,85 110,85 119,88 123,89 128,90 134,90 139,90 146,90 152,89 156,87 160,89 167,90 179,91 183,92 190,92 194,92 200,92 204,92 208,92 212,92 217,92 221,92 225,91 235,91 241,91 246,91 251,90 256,90 261,91 265,90 269,89 274,90 278,90 282,89 287,87 291,88 295,89 302,91 307,91 311,91 316,92 320,92 325,92 329,92 334,92 339,92 343,92 347,92 351,92 356,91 363,91 367,92 373,91 377,91 383,90 388,90 393,91 397,90 405,90 410,90 415,89 419,87" stroke="#2963da" fill="none" stroke-width="3" stroke-linejoin="round" stroke-linecap="round" />
</svg>