<svg width="419" height="100" viewBox="0 0 419 100" xmlns="http://www.w3.org/2000/svg" xmlns:xlink="http://www.w3.org/1999/xlink"><defs>
<linearGradient id="grad" x1="0%" y1="0%" x2="0%" y2="100%">
<stop offset="0%" stop-color="#2963da" stop-opacity="0.40"/>
<stop offset="100%" stop-color="#070720" stop-opacity="0.20"/>
</linearGradient>
</defs>
<rect x="0" y="0" width="419" height="100" fill="none" />
<polygon points="0,92 4,92 8,92 12,92 16,92 20,92 24,92 28,92 32,92 36,92 40,92 45,92 49,92 53,92 57,92 61,92 65,92 69,92 73,92 78,92 82,92 86,92 90,92 94,92 98,92 102,92 106,92 110,92 115,92 119,92 123,92 127,92 131,92 135,92 139,92 143,92 147,92 152,92 156,92 160,92 164,92 168,92 172,92 176,92 180,92 184,92 188,92 192,92 196,91 201,92 205,92 209,92 213,92 217,92 221,92 225,91 229,91 233,90 237,90 241,91 245,91 250,88 254,89 258,91 262,88 266,89 270,91 274,90 278,90 282,91 286,90 291,92 295,91 299,91 303,90 307,91 311,91 315,90 319,86 323,89 328,91 332,89 336,90 340,91 344,91 348,87 352,90 356,88 360,90 364,91 369,91 373,91 377,92 381,91 385,91 389,90 393,91 397,91 401,92 405,92 409,92 413,92 418,92 419,92 419,100 0,100" fill="url(#grad)" stroke="none" />
<polyline points="0,92 4,92 8,92 12,92 16,92 20,92 24,92 28,92 32,92 36,92 40,92 45,92 49,92 53,92 57,92 61,92 65,92 69,92 73,92 78,92 82,92 86,92 90,92 94,92 98,92 102,92 106,92 110,92 115,92 119,92 123,92 127,92 131,92 135,92 139,92 143,92 147,92 152,92 156,92 160,92 164,92 168,92 172,92 176,92 180,92 184,92 188,92 192,92 196,91 201,92 205,92 209,92 213,92 217,92 221,92 225,91 229,91 233,90 237,90 241,91 245,91 250,88 254,89 258,91 262,88 266,89 270,91 274,90 278,90 282,91 286,90 291,92 295,91 299,91 303,90 307,91 311,91 315,90 319,86 323,89 328,91 332,89 336,90 340,91 344,91 348,87 352,90 356,88 360,90 364,91 369,91 373,91 377,92 381,91 385,91 389,90 393,91 397,91 401,92 405,92 409,92 413,92 418,92 419,92" stroke="#2963da" fill="none" stroke-width="3" stroke-linejoin="round" stroke-linecap="round" />
</svg>