<svg width="419" height="100" viewBox="0 0 419 100" xmlns="http://www.w3.org/2000/svg" xmlns:xlink="http://www.w3.org/1999/xlink"><defs>
<linearGradient id="grad" x1="0%" y1="0%" x2="0%" y2="100%">
<stop offset="0%" stop-color="#2963da" stop-opacity="0.40"/>
<stop offset="100%" stop-color="#070720" stop-opacity="0.20"/>
</linearGradient>
</defs>
<rect x="0" y="0" width="419" height="100" fill="none" />
<polygon points="0,91 4,92 8,92 12,92 16,92 20,92 24,92 28,92 32,92 37,92 41,92 45,91 49,91 53,91 57,91 62,90 66,91 70,90 74,89 79,90 83,89 87,89 91,88 96,88 100,87 104,87 109,87 113,86 117,86 121,85 125,86 129,85 133,85 137,84 142,85 146,86 150,87 154,88 158,89 163,89 167,89 171,89 176,89 181,89 185,90 189,90 193,90 199,90 203,90 207,90 211,91 216,91 220,91 224,91 228,92 232,90 236,91 240,90 245,89 249,89 253,88 257,88 261,88 265,87 270,87 274,86 278,86 282,85 286,85 290,85 294,85 298,87 302,88 307,89 311,89 315,90 320,90 324,90 328,91 332,91 336,91 340,92 344,92 348,92 353,92 357,92 361,92 365,92 369,92 373,92 378,92 382,92 386,92 390,92 394,92 398,92 403,92 407,92 411,92 415,92 419,92 419,100 0,100" fill="url(#grad)" stroke="none" />
<polyline points="0,91 4,92 8,92 12,92 16,92 20,92 24,92 28,92 32,92 37,92 41,92 45,91 49,91 53,91 57,91 62,90 66,91 70,90 74,89 79,90 83,89 87,89 91,88 96,88 100,87 104,87 109,87 113,86 117,86 121,85 125,86 129,85 133,85 137,84 142,85 146,86 150,87 154,88 158,89 163,89 167,89 171,89 176,89 181,89 185,90 189,90 193,90 199,90 203,90 207,90 211,91 216,91 220,91 224,91 228,92 232,90 236,91 240,90 245,89 249,89 253,88 257,88 261,88 265,87 270,87 274,86 278,86 282,85 286,85 290,85 294,85 298,87 302,88 307,89 311,89 315,90 320,90 324,90 328,91 332,91 336,91 340,92 344,92 348,92 353,92 357,92 361,92 365,92 369,92 373,92 378,92 382,92 386,92 390,92 394,92 398,92 403,92 407,92 411,92 415,92 419,92" stroke="#2963da" fill="none" stroke-width="3" stroke-linejoin="round" stroke-linecap="round" />
</svg>