<svg width="419" height="100" viewBox="0 0 419 100" xmlns="http://www.w3.org/2000/svg" xmlns:xlink="http://www.w3.org/1999/xlink"><defs>
<linearGradient id="grad" x1="0%" y1="0%" x2="0%" y2="100%">
<stop offset="0%" stop-color="#2963da" stop-opacity="0.40"/>
<stop offset="100%" stop-color="#070720" stop-opacity="0.20"/>
</linearGradient>
</defs>
<rect x="0" y="0" width="419" height="100" fill="none" />
<polygon points="0,91 4,91 8,92 12,92 16,92 20,92 24,90 28,90 32,90 36,89 40,88 44,88 48,88 52,89 57,89 61,90 65,90 69,91 73,92 77,91 81,91 85,90 89,88 93,85 97,84 101,82 105,82 110,83 114,83 118,80 122,78 126,79 130,77 134,75 138,77 142,81 146,81 150,79 154,76 158,73 162,75 166,78 170,82 174,83 178,83 182,85 186,86 191,86 195,87 199,87 203,87 207,86 211,86 215,86 219,85 223,85 227,82 231,78 235,74 239,70 243,67 247,63 251,63 255,63 260,62 264,63 268,62 272,62 276,62 280,62 284,63 288,63 293,62 297,64 301,66 305,71 309,76 313,76 317,76 321,75 325,74 329,71 333,66 337,62 341,56 345,61 349,67 353,71 357,73 361,74 366,76 370,74 374,75 378,78 382,79 386,77 390,75 394,76 398,76 402,77 406,79 410,81 414,80 418,81 419,81 419,100 0,100" fill="url(#grad)" stroke="none" />
<polyline points="0,91 4,91 8,92 12,92 16,92 20,92 24,90 28,90 32,90 36,89 40,88 44,88 48,88 52,89 57,89 61,90 65,90 69,91 73,92 77,91 81,91 85,90 89,88 93,85 97,84 101,82 105,82 110,83 114,83 118,80 122,78 126,79 130,77 134,75 138,77 142,81 146,81 150,79 154,76 158,73 162,75 166,78 170,82 174,83 178,83 182,85 186,86 191,86 195,87 199,87 203,87 207,86 211,86 215,86 219,85 223,85 227,82 231,78 235,74 239,70 243,67 247,63 251,63 255,63 260,62 264,63 268,62 272,62 276,62 280,62 284,63 288,63 293,62 297,64 301,66 305,71 309,76 313,76 317,76 321,75 325,74 329,71 333,66 337,62 341,56 345,61 349,67 353,71 357,73 361,74 366,76 370,74 374,75 378,78 382,79 386,77 390,75 394,76 398,76 402,77 406,79 410,81 414,80 418,81 419,81" stroke="#2963da" fill="none" stroke-width="3" stroke-linejoin="round" stroke-linecap="round" />
</svg>