<svg width="419" height="100" viewBox="0 0 419 100" xmlns="http://www.w3.org/2000/svg" xmlns:xlink="http://www.w3.org/1999/xlink"><defs>
<linearGradient id="grad" x1="0%" y1="0%" x2="0%" y2="100%">
<stop offset="0%" stop-color="#2963da" stop-opacity="0.40"/>
<stop offset="100%" stop-color="#070720" stop-opacity="0.20"/>
</linearGradient>
</defs>
<rect x="0" y="0" width="419" height="100" fill="none" />
<polygon points="0,92 4,92 8,92 12,91 16,90 20,89 24,87 28,86 32,84 36,82 40,79 44,80 48,81 53,83 57,85 61,87 65,87 69,87 73,86 77,85 82,84 86,83 90,82 94,82 98,83 102,84 106,84 110,83 114,81 118,79 122,78 126,80 131,80 135,79 139,76 143,73 147,73 151,73 155,71 159,66 163,64 167,66 171,66 175,62 180,63 184,60 188,56 192,53 196,54 200,55 204,56 208,55 212,53 216,50 220,52 224,57 229,60 233,64 237,68 241,71 246,73 250,74 254,75 258,77 262,78 266,79 270,79 274,78 279,76 283,75 287,73 291,72 295,70 299,69 303,67 307,65 311,60 315,54 320,48 324,44 328,40 332,36 336,32 340,29 344,28 348,30 352,33 356,36 360,39 364,43 368,47 372,50 377,51 381,45 385,39 389,33 393,28 397,25 401,25 405,23 409,22 413,18 418,16 419,15 419,100 0,100" fill="url(#grad)" stroke="none" />
<polyline points="0,92 4,92 8,92 12,91 16,90 20,89 24,87 28,86 32,84 36,82 40,79 44,80 48,81 53,83 57,85 61,87 65,87 69,87 73,86 77,85 82,84 86,83 90,82 94,82 98,83 102,84 106,84 110,83 114,81 118,79 122,78 126,80 131,80 135,79 139,76 143,73 147,73 151,73 155,71 159,66 163,64 167,66 171,66 175,62 180,63 184,60 188,56 192,53 196,54 200,55 204,56 208,55 212,53 216,50 220,52 224,57 229,60 233,64 237,68 241,71 246,73 250,74 254,75 258,77 262,78 266,79 270,79 274,78 279,76 283,75 287,73 291,72 295,70 299,69 303,67 307,65 311,60 315,54 320,48 324,44 328,40 332,36 336,32 340,29 344,28 348,30 352,33 356,36 360,39 364,43 368,47 372,50 377,51 381,45 385,39 389,33 393,28 397,25 401,25 405,23 409,22 413,18 418,16 419,15" stroke="#2963da" fill="none" stroke-width="3" stroke-linejoin="round" stroke-linecap="round" />
</svg>