<svg width="419" height="100" viewBox="0 0 419 100" xmlns="http://www.w3.org/2000/svg" xmlns:xlink="http://www.w3.org/1999/xlink"><defs>
<linearGradient id="grad" x1="0%" y1="0%" x2="0%" y2="100%">
<stop offset="0%" stop-color="#2963da" stop-opacity="0.40"/>
<stop offset="100%" stop-color="#070720" stop-opacity="0.20"/>
</linearGradient>
</defs>
<rect x="0" y="0" width="419" height="100" fill="none" />
<polygon points="0,86 4,87 8,87 12,86 16,86 20,85 24,84 29,83 33,81 37,80 41,80 45,80 49,84 53,86 57,88 61,88 66,87 70,83 74,85 78,87 82,87 86,87 90,87 94,86 98,84 103,82 107,81 111,79 115,74 119,73 123,74 127,76 131,76 135,76 139,80 143,84 148,87 152,89 156,89 160,90 164,90 168,90 173,90 177,90 181,91 186,91 190,91 194,91 198,92 203,92 207,92 211,92 215,92 220,92 224,92 228,92 232,92 236,92 241,89 245,88 249,89 254,91 258,92 262,91 266,88 271,88 277,88 281,90 285,91 290,91 294,91 298,91 302,91 306,91 310,91 315,88 319,86 323,89 328,88 332,86 336,87 340,87 344,88 348,88 352,87 356,88 360,90 364,89 369,90 373,91 377,90 381,90 385,90 389,91 394,91 398,90 402,88 408,88 413,89 417,91 419,91 419,100 0,100" fill="url(#grad)" stroke="none" />
<polyline points="0,86 4,87 8,87 12,86 16,86 20,85 24,84 29,83 33,81 37,80 41,80 45,80 49,84 53,86 57,88 61,88 66,87 70,83 74,85 78,87 82,87 86,87 90,87 94,86 98,84 103,82 107,81 111,79 115,74 119,73 123,74 127,76 131,76 135,76 139,80 143,84 148,87 152,89 156,89 160,90 164,90 168,90 173,90 177,90 181,91 186,91 190,91 194,91 198,92 203,92 207,92 211,92 215,92 220,92 224,92 228,92 232,92 236,92 241,89 245,88 249,89 254,91 258,92 262,91 266,88 271,88 277,88 281,90 285,91 290,91 294,91 298,91 302,91 306,91 310,91 315,88 319,86 323,89 328,88 332,86 336,87 340,87 344,88 348,88 352,87 356,88 360,90 364,89 369,90 373,91 377,90 381,90 385,90 389,91 394,91 398,90 402,88 408,88 413,89 417,91 419,91" stroke="#2963da" fill="none" stroke-width="3" stroke-linejoin="round" stroke-linecap="round" />
</svg>