<svg width="419" height="100" viewBox="0 0 419 100" xmlns="http://www.w3.org/2000/svg" xmlns:xlink="http://www.w3.org/1999/xlink"><defs>
<linearGradient id="grad" x1="0%" y1="0%" x2="0%" y2="100%">
<stop offset="0%" stop-color="#2963da" stop-opacity="0.40"/>
<stop offset="100%" stop-color="#070720" stop-opacity="0.20"/>
</linearGradient>
</defs>
<rect x="0" y="0" width="419" height="100" fill="none" />
<polygon points="0,89 4,87 8,81 12,83 16,88 20,90 24,91 28,90 32,91 36,91 41,91 45,91 49,91 53,91 57,91 61,92 65,91 69,91 73,91 77,87 82,83 86,78 90,75 94,71 98,68 102,69 106,72 110,74 114,75 118,75 122,75 126,76 131,77 135,77 139,80 143,77 147,75 151,73 155,72 159,69 163,64 167,59 171,61 176,64 180,70 184,72 188,75 192,77 196,77 200,77 204,76 208,75 212,74 217,75 221,78 225,79 229,77 233,74 237,74 241,73 245,72 249,73 253,77 257,81 261,85 265,89 270,92 274,92 278,92 282,91 286,92 290,92 294,92 298,92 303,92 307,92 311,91 315,91 319,91 323,91 327,92 331,90 335,90 339,90 343,90 347,90 351,91 355,91 359,91 363,91 367,91 372,91 376,91 380,91 384,90 388,90 392,90 396,90 400,90 405,90 409,90 413,90 417,89 419,89 419,100 0,100" fill="url(#grad)" stroke="none" />
<polyline points="0,89 4,87 8,81 12,83 16,88 20,90 24,91 28,90 32,91 36,91 41,91 45,91 49,91 53,91 57,91 61,92 65,91 69,91 73,91 77,87 82,83 86,78 90,75 94,71 98,68 102,69 106,72 110,74 114,75 118,75 122,75 126,76 131,77 135,77 139,80 143,77 147,75 151,73 155,72 159,69 163,64 167,59 171,61 176,64 180,70 184,72 188,75 192,77 196,77 200,77 204,76 208,75 212,74 217,75 221,78 225,79 229,77 233,74 237,74 241,73 245,72 249,73 253,77 257,81 261,85 265,89 270,92 274,92 278,92 282,91 286,92 290,92 294,92 298,92 303,92 307,92 311,91 315,91 319,91 323,91 327,92 331,90 335,90 339,90 343,90 347,90 351,91 355,91 359,91 363,91 367,91 372,91 376,91 380,91 384,90 388,90 392,90 396,90 400,90 405,90 409,90 413,90 417,89 419,89" stroke="#2963da" fill="none" stroke-width="3" stroke-linejoin="round" stroke-linecap="round" />
</svg>