<svg width="419" height="100" viewBox="0 0 419 100" xmlns="http://www.w3.org/2000/svg" xmlns:xlink="http://www.w3.org/1999/xlink"><defs>
<linearGradient id="grad" x1="0%" y1="0%" x2="0%" y2="100%">
<stop offset="0%" stop-color="#2963da" stop-opacity="0.40"/>
<stop offset="100%" stop-color="#070720" stop-opacity="0.20"/>
</linearGradient>
</defs>
<rect x="0" y="0" width="419" height="100" fill="none" />
<polygon points="0,81 4,78 8,74 12,71 16,70 20,67 24,63 28,58 32,54 36,50 40,45 44,44 48,47 52,50 56,49 60,50 64,53 68,57 72,60 76,63 81,66 85,70 89,72 93,76 97,79 101,81 105,82 109,83 113,82 117,81 121,77 125,73 129,69 133,65 137,61 141,57 145,53 149,49 153,44 157,47 161,49 165,47 170,47 174,49 178,52 182,55 186,54 190,56 194,59 198,60 202,63 206,67 210,69 214,72 218,74 222,71 226,72 230,72 235,70 239,67 243,64 247,61 251,58 255,55 259,53 263,56 267,59 271,62 275,64 279,67 283,69 287,71 291,72 295,74 299,76 303,78 308,79 312,80 316,80 320,81 324,82 328,81 332,82 336,82 340,83 344,85 348,88 352,89 356,91 360,92 364,92 368,92 372,92 376,92 380,91 384,86 388,82 393,77 397,73 401,69 405,66 409,61 413,58 417,54 419,53 419,100 0,100" fill="url(#grad)" stroke="none" />
<polyline points="0,81 4,78 8,74 12,71 16,70 20,67 24,63 28,58 32,54 36,50 40,45 44,44 48,47 52,50 56,49 60,50 64,53 68,57 72,60 76,63 81,66 85,70 89,72 93,76 97,79 101,81 105,82 109,83 113,82 117,81 121,77 125,73 129,69 133,65 137,61 141,57 145,53 149,49 153,44 157,47 161,49 165,47 170,47 174,49 178,52 182,55 186,54 190,56 194,59 198,60 202,63 206,67 210,69 214,72 218,74 222,71 226,72 230,72 235,70 239,67 243,64 247,61 251,58 255,55 259,53 263,56 267,59 271,62 275,64 279,67 283,69 287,71 291,72 295,74 299,76 303,78 308,79 312,80 316,80 320,81 324,82 328,81 332,82 336,82 340,83 344,85 348,88 352,89 356,91 360,92 364,92 368,92 372,92 376,92 380,91 384,86 388,82 393,77 397,73 401,69 405,66 409,61 413,58 417,54 419,53" stroke="#2963da" fill="none" stroke-width="3" stroke-linejoin="round" stroke-linecap="round" />
</svg>