<svg width="419" height="100" viewBox="0 0 419 100" xmlns="http://www.w3.org/2000/svg" xmlns:xlink="http://www.w3.org/1999/xlink"><defs>
<linearGradient id="grad" x1="0%" y1="0%" x2="0%" y2="100%">
<stop offset="0%" stop-color="#2963da" stop-opacity="0.40"/>
<stop offset="100%" stop-color="#070720" stop-opacity="0.20"/>
</linearGradient>
</defs>
<rect x="0" y="0" width="419" height="100" fill="none" />
<polygon points="0,90 4,90 8,92 12,91 16,90 20,90 24,90 29,88 33,90 37,91 41,91 45,92 49,92 53,91 57,91 62,91 66,89 71,88 75,88 79,88 83,88 87,88 92,88 96,88 100,88 104,89 108,90 112,89 116,88 120,90 125,90 129,89 133,90 137,90 141,88 146,88 150,91 154,90 159,90 163,89 167,89 172,89 176,90 180,90 184,89 188,90 192,92 196,92 200,90 204,90 208,89 213,92 217,92 221,92 225,92 229,92 233,91 237,90 241,92 245,92 249,92 253,90 257,90 262,92 266,92 271,92 275,92 279,92 283,92 287,91 291,90 295,90 299,91 304,90 308,90 312,90 316,90 320,90 324,90 328,91 332,91 336,91 341,91 345,91 349,91 353,91 357,91 361,91 365,92 369,92 373,92 377,92 382,92 386,92 390,91 394,92 398,91 402,91 406,91 410,92 414,92 418,92 419,92 419,100 0,100" fill="url(#grad)" stroke="none" />
<polyline points="0,90 4,90 8,92 12,91 16,90 20,90 24,90 29,88 33,90 37,91 41,91 45,92 49,92 53,91 57,91 62,91 66,89 71,88 75,88 79,88 83,88 87,88 92,88 96,88 100,88 104,89 108,90 112,89 116,88 120,90 125,90 129,89 133,90 137,90 141,88 146,88 150,91 154,90 159,90 163,89 167,89 172,89 176,90 180,90 184,89 188,90 192,92 196,92 200,90 204,90 208,89 213,92 217,92 221,92 225,92 229,92 233,91 237,90 241,92 245,92 249,92 253,90 257,90 262,92 266,92 271,92 275,92 279,92 283,92 287,91 291,90 295,90 299,91 304,90 308,90 312,90 316,90 320,90 324,90 328,91 332,91 336,91 341,91 345,91 349,91 353,91 357,91 361,91 365,92 369,92 373,92 377,92 382,92 386,92 390,91 394,92 398,91 402,91 406,91 410,92 414,92 418,92 419,92" stroke="#2963da" fill="none" stroke-width="3" stroke-linejoin="round" stroke-linecap="round" />
</svg>