<svg width="419" height="100" viewBox="0 0 419 100" xmlns="http://www.w3.org/2000/svg" xmlns:xlink="http://www.w3.org/1999/xlink"><defs>
<linearGradient id="grad" x1="0%" y1="0%" x2="0%" y2="100%">
<stop offset="0%" stop-color="#2963da" stop-opacity="0.40"/>
<stop offset="100%" stop-color="#070720" stop-opacity="0.20"/>
</linearGradient>
</defs>
<rect x="0" y="0" width="419" height="100" fill="none" />
<polygon points="0,74 4,75 8,75 12,73 16,73 20,74 24,75 28,75 32,76 36,76 40,76 44,76 48,76 52,76 56,75 61,74 65,74 69,73 73,73 77,73 81,72 85,69 89,68 93,70 97,69 101,70 105,70 109,69 113,68 117,68 121,67 125,67 129,66 134,65 138,65 142,64 146,63 150,62 154,61 158,60 162,57 166,56 170,59 174,59 178,59 182,58 186,57 190,55 194,53 198,51 202,52 206,55 211,59 215,60 219,63 223,66 227,69 231,70 235,71 239,72 243,73 247,73 251,74 255,75 259,76 264,77 268,77 272,78 276,78 280,78 284,79 288,80 292,80 296,81 300,81 304,82 308,83 312,84 317,84 321,84 325,85 329,85 333,86 337,86 341,87 345,87 349,87 353,88 357,88 361,89 365,89 369,90 373,90 377,90 381,89 386,91 390,91 394,92 398,89 402,87 406,86 410,91 414,92 419,92 419,92 419,100 0,100" fill="url(#grad)" stroke="none" />
<polyline points="0,74 4,75 8,75 12,73 16,73 20,74 24,75 28,75 32,76 36,76 40,76 44,76 48,76 52,76 56,75 61,74 65,74 69,73 73,73 77,73 81,72 85,69 89,68 93,70 97,69 101,70 105,70 109,69 113,68 117,68 121,67 125,67 129,66 134,65 138,65 142,64 146,63 150,62 154,61 158,60 162,57 166,56 170,59 174,59 178,59 182,58 186,57 190,55 194,53 198,51 202,52 206,55 211,59 215,60 219,63 223,66 227,69 231,70 235,71 239,72 243,73 247,73 251,74 255,75 259,76 264,77 268,77 272,78 276,78 280,78 284,79 288,80 292,80 296,81 300,81 304,82 308,83 312,84 317,84 321,84 325,85 329,85 333,86 337,86 341,87 345,87 349,87 353,88 357,88 361,89 365,89 369,90 373,90 377,90 381,89 386,91 390,91 394,92 398,89 402,87 406,86 410,91 414,92 419,92 419,92" stroke="#2963da" fill="none" stroke-width="3" stroke-linejoin="round" stroke-linecap="round" />
</svg>