<svg width="419" height="100" viewBox="0 0 419 100" xmlns="http://www.w3.org/2000/svg" xmlns:xlink="http://www.w3.org/1999/xlink"><defs>
<linearGradient id="grad" x1="0%" y1="0%" x2="0%" y2="100%">
<stop offset="0%" stop-color="#2963da" stop-opacity="0.40"/>
<stop offset="100%" stop-color="#070720" stop-opacity="0.20"/>
</linearGradient>
</defs>
<rect x="0" y="0" width="419" height="100" fill="none" />
<polygon points="0,88 4,88 8,88 13,89 17,89 23,89 28,89 33,91 38,89 44,90 49,92 54,92 60,92 64,92 72,91 76,91 80,90 87,89 91,89 95,89 100,89 104,88 108,88 117,87 122,86 126,86 132,87 136,86 140,84 146,84 150,83 155,82 159,82 163,80 168,79 172,80 177,81 181,85 185,86 191,88 196,89 200,89 204,89 209,88 213,88 223,87 227,86 234,86 238,87 242,85 247,84 252,84 256,83 260,82 264,82 268,80 273,79 277,80 281,81 285,84 290,86 294,86 302,88 307,89 312,88 317,88 321,88 328,87 333,86 338,86 343,87 347,86 351,84 356,84 361,83 366,82 370,82 374,80 378,79 383,80 388,81 392,85 399,86 403,88 408,88 413,89 417,88 419,88 419,100 0,100" fill="url(#grad)" stroke="none" />
<polyline points="0,88 4,88 8,88 13,89 17,89 23,89 28,89 33,91 38,89 44,90 49,92 54,92 60,92 64,92 72,91 76,91 80,90 87,89 91,89 95,89 100,89 104,88 108,88 117,87 122,86 126,86 132,87 136,86 140,84 146,84 150,83 155,82 159,82 163,80 168,79 172,80 177,81 181,85 185,86 191,88 196,89 200,89 204,89 209,88 213,88 223,87 227,86 234,86 238,87 242,85 247,84 252,84 256,83 260,82 264,82 268,80 273,79 277,80 281,81 285,84 290,86 294,86 302,88 307,89 312,88 317,88 321,88 328,87 333,86 338,86 343,87 347,86 351,84 356,84 361,83 366,82 370,82 374,80 378,79 383,80 388,81 392,85 399,86 403,88 408,88 413,89 417,88 419,88" stroke="#2963da" fill="none" stroke-width="3" stroke-linejoin="round" stroke-linecap="round" />
</svg>