<svg width="419" height="100" viewBox="0 0 419 100" xmlns="http://www.w3.org/2000/svg" xmlns:xlink="http://www.w3.org/1999/xlink"><defs>
<linearGradient id="grad" x1="0%" y1="0%" x2="0%" y2="100%">
<stop offset="0%" stop-color="#2963da" stop-opacity="0.40"/>
<stop offset="100%" stop-color="#070720" stop-opacity="0.20"/>
</linearGradient>
</defs>
<rect x="0" y="0" width="419" height="100" fill="none" />
<polygon points="0,88 4,89 8,88 12,89 16,90 20,90 24,91 28,90 32,91 37,90 41,90 45,91 49,91 53,91 57,91 61,90 65,89 70,86 74,84 78,87 82,88 86,90 90,89 94,89 98,88 102,90 107,88 111,87 115,87 119,87 123,88 127,90 131,92 135,92 139,92 143,92 147,92 151,92 155,90 160,90 164,92 168,92 172,92 176,92 180,92 184,92 188,92 192,90 196,90 200,88 205,88 209,88 213,85 217,88 221,88 225,89 229,91 233,90 237,91 241,90 245,90 249,90 254,90 258,90 262,88 266,90 270,88 274,87 278,88 282,87 287,87 291,85 295,85 299,85 303,86 307,88 311,86 315,85 320,84 324,86 328,88 332,88 336,87 340,87 345,87 349,88 353,88 357,89 361,90 365,87 369,87 373,88 378,86 382,87 386,86 390,85 394,85 398,86 402,85 406,85 410,87 414,88 419,86 419,100 0,100" fill="url(#grad)" stroke="none" />
<polyline points="0,88 4,89 8,88 12,89 16,90 20,90 24,91 28,90 32,91 37,90 41,90 45,91 49,91 53,91 57,91 61,90 65,89 70,86 74,84 78,87 82,88 86,90 90,89 94,89 98,88 102,90 107,88 111,87 115,87 119,87 123,88 127,90 131,92 135,92 139,92 143,92 147,92 151,92 155,90 160,90 164,92 168,92 172,92 176,92 180,92 184,92 188,92 192,90 196,90 200,88 205,88 209,88 213,85 217,88 221,88 225,89 229,91 233,90 237,91 241,90 245,90 249,90 254,90 258,90 262,88 266,90 270,88 274,87 278,88 282,87 287,87 291,85 295,85 299,85 303,86 307,88 311,86 315,85 320,84 324,86 328,88 332,88 336,87 340,87 345,87 349,88 353,88 357,89 361,90 365,87 369,87 373,88 378,86 382,87 386,86 390,85 394,85 398,86 402,85 406,85 410,87 414,88 419,86" stroke="#2963da" fill="none" stroke-width="3" stroke-linejoin="round" stroke-linecap="round" />
</svg>