<svg width="419" height="100" viewBox="0 0 419 100" xmlns="http://www.w3.org/2000/svg" xmlns:xlink="http://www.w3.org/1999/xlink"><defs>
<linearGradient id="grad" x1="0%" y1="0%" x2="0%" y2="100%">
<stop offset="0%" stop-color="#2963da" stop-opacity="0.40"/>
<stop offset="100%" stop-color="#070720" stop-opacity="0.20"/>
</linearGradient>
</defs>
<rect x="0" y="0" width="419" height="100" fill="none" />
<polygon points="0,83 4,83 8,84 12,84 16,84 20,85 24,85 28,85 32,85 36,86 40,86 44,86 48,83 52,80 56,76 60,75 64,78 68,81 72,84 76,85 80,86 84,87 89,87 93,87 97,88 101,88 105,88 109,88 113,89 117,89 121,89 125,89 129,88 133,89 137,88 141,88 145,89 149,90 153,89 157,87 161,85 165,85 169,86 173,87 178,90 182,90 186,89 190,87 194,89 198,90 202,91 206,92 210,92 214,92 218,92 222,91 226,92 230,90 234,88 238,86 242,84 246,87 250,85 254,85 258,83 262,79 266,82 271,85 275,90 279,90 283,89 287,89 291,88 295,88 299,87 303,84 307,81 311,75 315,78 319,80 323,83 327,88 331,89 336,89 340,89 344,89 348,89 352,89 356,88 360,88 364,87 368,85 372,83 376,83 380,81 384,78 388,73 392,69 396,68 400,61 404,55 408,49 412,40 416,34 419,35 419,100 0,100" fill="url(#grad)" stroke="none" />
<polyline points="0,83 4,83 8,84 12,84 16,84 20,85 24,85 28,85 32,85 36,86 40,86 44,86 48,83 52,80 56,76 60,75 64,78 68,81 72,84 76,85 80,86 84,87 89,87 93,87 97,88 101,88 105,88 109,88 113,89 117,89 121,89 125,89 129,88 133,89 137,88 141,88 145,89 149,90 153,89 157,87 161,85 165,85 169,86 173,87 178,90 182,90 186,89 190,87 194,89 198,90 202,91 206,92 210,92 214,92 218,92 222,91 226,92 230,90 234,88 238,86 242,84 246,87 250,85 254,85 258,83 262,79 266,82 271,85 275,90 279,90 283,89 287,89 291,88 295,88 299,87 303,84 307,81 311,75 315,78 319,80 323,83 327,88 331,89 336,89 340,89 344,89 348,89 352,89 356,88 360,88 364,87 368,85 372,83 376,83 380,81 384,78 388,73 392,69 396,68 400,61 404,55 408,49 412,40 416,34 419,35" stroke="#2963da" fill="none" stroke-width="3" stroke-linejoin="round" stroke-linecap="round" />
</svg>