<svg width="419" height="100" viewBox="0 0 419 100" xmlns="http://www.w3.org/2000/svg" xmlns:xlink="http://www.w3.org/1999/xlink"><defs>
<linearGradient id="grad" x1="0%" y1="0%" x2="0%" y2="100%">
<stop offset="0%" stop-color="#2963da" stop-opacity="0.40"/>
<stop offset="100%" stop-color="#070720" stop-opacity="0.20"/>
</linearGradient>
</defs>
<rect x="0" y="0" width="419" height="100" fill="none" />
<polygon points="0,92 4,92 8,91 12,90 16,90 20,90 24,92 28,92 33,92 37,92 42,92 46,91 51,92 55,91 59,91 64,91 68,90 73,89 77,90 81,90 86,89 91,89 95,90 99,89 103,89 108,89 114,89 118,89 122,89 127,88 131,87 135,87 140,86 144,86 148,85 152,86 156,86 160,88 164,90 168,90 172,91 177,91 181,92 185,92 189,92 193,92 197,91 201,91 205,92 210,92 214,92 218,92 222,92 226,91 230,90 234,88 238,88 242,88 246,88 250,88 255,89 259,87 263,86 267,84 271,86 275,87 279,89 283,91 287,91 291,91 296,91 300,91 304,90 308,90 312,89 316,86 320,86 324,85 328,83 332,81 336,78 341,73 345,73 349,75 353,76 357,78 361,81 365,84 369,85 373,89 377,89 381,87 385,86 389,85 394,84 398,82 402,80 406,75 410,70 414,66 418,61 419,61 419,100 0,100" fill="url(#grad)" stroke="none" />
<polyline points="0,92 4,92 8,91 12,90 16,90 20,90 24,92 28,92 33,92 37,92 42,92 46,91 51,92 55,91 59,91 64,91 68,90 73,89 77,90 81,90 86,89 91,89 95,90 99,89 103,89 108,89 114,89 118,89 122,89 127,88 131,87 135,87 140,86 144,86 148,85 152,86 156,86 160,88 164,90 168,90 172,91 177,91 181,92 185,92 189,92 193,92 197,91 201,91 205,92 210,92 214,92 218,92 222,92 226,91 230,90 234,88 238,88 242,88 246,88 250,88 255,89 259,87 263,86 267,84 271,86 275,87 279,89 283,91 287,91 291,91 296,91 300,91 304,90 308,90 312,89 316,86 320,86 324,85 328,83 332,81 336,78 341,73 345,73 349,75 353,76 357,78 361,81 365,84 369,85 373,89 377,89 381,87 385,86 389,85 394,84 398,82 402,80 406,75 410,70 414,66 418,61 419,61" stroke="#2963da" fill="none" stroke-width="3" stroke-linejoin="round" stroke-linecap="round" />
</svg>