<svg width="419" height="100" viewBox="0 0 419 100" xmlns="http://www.w3.org/2000/svg" xmlns:xlink="http://www.w3.org/1999/xlink"><defs>
<linearGradient id="grad" x1="0%" y1="0%" x2="0%" y2="100%">
<stop offset="0%" stop-color="#2963da" stop-opacity="0.40"/>
<stop offset="100%" stop-color="#070720" stop-opacity="0.20"/>
</linearGradient>
</defs>
<rect x="0" y="0" width="419" height="100" fill="none" />
<polygon points="0,92 4,92 8,92 12,92 16,92 20,92 24,92 28,92 32,92 36,92 40,91 45,90 49,92 53,92 57,92 61,92 65,92 69,92 73,92 77,92 81,92 85,92 89,92 93,92 98,92 102,92 106,92 110,92 114,92 118,92 122,92 126,92 130,92 134,92 138,92 143,92 147,92 151,92 155,92 159,92 163,91 167,91 171,90 175,90 179,90 183,90 187,91 191,91 195,92 200,92 204,92 208,92 212,91 216,91 221,91 225,91 229,91 233,91 237,91 241,91 245,91 249,90 253,90 257,90 262,90 266,89 270,89 274,88 278,90 282,90 286,91 290,91 294,91 299,91 303,91 307,91 311,91 315,90 319,88 323,90 327,90 331,91 335,91 339,91 343,91 347,91 351,91 356,91 360,91 364,90 368,91 372,91 376,91 380,91 384,91 388,91 392,90 396,89 400,91 405,91 409,91 413,89 417,90 419,90 419,100 0,100" fill="url(#grad)" stroke="none" />
<polyline points="0,92 4,92 8,92 12,92 16,92 20,92 24,92 28,92 32,92 36,92 40,91 45,90 49,92 53,92 57,92 61,92 65,92 69,92 73,92 77,92 81,92 85,92 89,92 93,92 98,92 102,92 106,92 110,92 114,92 118,92 122,92 126,92 130,92 134,92 138,92 143,92 147,92 151,92 155,92 159,92 163,91 167,91 171,90 175,90 179,90 183,90 187,91 191,91 195,92 200,92 204,92 208,92 212,91 216,91 221,91 225,91 229,91 233,91 237,91 241,91 245,91 249,90 253,90 257,90 262,90 266,89 270,89 274,88 278,90 282,90 286,91 290,91 294,91 299,91 303,91 307,91 311,91 315,90 319,88 323,90 327,90 331,91 335,91 339,91 343,91 347,91 351,91 356,91 360,91 364,90 368,91 372,91 376,91 380,91 384,91 388,91 392,90 396,89 400,91 405,91 409,91 413,89 417,90 419,90" stroke="#2963da" fill="none" stroke-width="3" stroke-linejoin="round" stroke-linecap="round" />
</svg>