<svg width="419" height="100" viewBox="0 0 419 100" xmlns="http://www.w3.org/2000/svg" xmlns:xlink="http://www.w3.org/1999/xlink"><defs>
<linearGradient id="grad" x1="0%" y1="0%" x2="0%" y2="100%">
<stop offset="0%" stop-color="#2963da" stop-opacity="0.40"/>
<stop offset="100%" stop-color="#070720" stop-opacity="0.20"/>
</linearGradient>
</defs>
<rect x="0" y="0" width="419" height="100" fill="none" />
<polygon points="0,89 4,88 8,88 12,85 16,84 20,85 24,87 29,88 33,88 37,89 41,89 45,90 49,90 53,90 57,91 62,91 66,91 70,91 74,91 78,92 83,92 87,92 91,92 95,92 99,92 103,92 108,92 112,92 116,92 120,92 124,92 128,92 133,92 137,92 141,92 145,92 149,92 153,92 158,92 162,92 166,92 170,92 174,91 179,92 183,92 187,92 191,92 195,92 200,92 204,92 208,92 212,92 216,92 220,92 224,91 228,92 233,92 237,92 241,91 245,90 249,87 253,83 257,80 262,77 266,74 270,71 274,68 278,65 282,63 286,59 290,58 294,57 298,56 302,61 306,63 311,68 315,70 319,72 323,72 327,70 331,73 335,74 339,77 343,80 348,84 352,85 356,85 360,86 364,86 368,86 372,87 377,87 381,87 385,87 389,87 393,86 397,86 402,86 406,85 410,85 414,84 418,83 419,83 419,100 0,100" fill="url(#grad)" stroke="none" />
<polyline points="0,89 4,88 8,88 12,85 16,84 20,85 24,87 29,88 33,88 37,89 41,89 45,90 49,90 53,90 57,91 62,91 66,91 70,91 74,91 78,92 83,92 87,92 91,92 95,92 99,92 103,92 108,92 112,92 116,92 120,92 124,92 128,92 133,92 137,92 141,92 145,92 149,92 153,92 158,92 162,92 166,92 170,92 174,91 179,92 183,92 187,92 191,92 195,92 200,92 204,92 208,92 212,92 216,92 220,92 224,91 228,92 233,92 237,92 241,91 245,90 249,87 253,83 257,80 262,77 266,74 270,71 274,68 278,65 282,63 286,59 290,58 294,57 298,56 302,61 306,63 311,68 315,70 319,72 323,72 327,70 331,73 335,74 339,77 343,80 348,84 352,85 356,85 360,86 364,86 368,86 372,87 377,87 381,87 385,87 389,87 393,86 397,86 402,86 406,85 410,85 414,84 418,83 419,83" stroke="#2963da" fill="none" stroke-width="3" stroke-linejoin="round" stroke-linecap="round" />
</svg>