<svg width="419" height="100" viewBox="0 0 419 100" xmlns="http://www.w3.org/2000/svg" xmlns:xlink="http://www.w3.org/1999/xlink"><defs>
<linearGradient id="grad" x1="0%" y1="0%" x2="0%" y2="100%">
<stop offset="0%" stop-color="#2963da" stop-opacity="0.40"/>
<stop offset="100%" stop-color="#070720" stop-opacity="0.20"/>
</linearGradient>
</defs>
<rect x="0" y="0" width="419" height="100" fill="none" />
<polygon points="0,92 4,91 8,91 12,91 16,92 21,92 25,91 29,92 34,92 38,92 42,92 46,91 50,91 54,88 58,87 63,85 67,84 71,84 75,85 79,84 83,84 87,85 92,88 96,88 100,88 104,88 108,86 112,84 116,82 120,79 124,76 128,73 133,71 137,69 141,67 145,65 149,65 153,67 157,70 161,72 165,75 169,79 173,79 177,76 181,73 185,71 190,71 194,71 198,72 202,70 206,69 211,71 215,73 219,78 223,82 227,82 231,82 235,83 239,81 244,78 248,78 252,78 256,76 260,76 264,78 269,78 273,78 277,77 281,73 285,69 289,65 293,63 298,63 302,65 306,65 310,65 315,65 319,64 323,62 327,61 331,59 336,59 340,61 344,62 348,60 352,59 356,57 360,53 364,49 368,48 372,48 376,46 380,43 384,44 388,48 392,48 396,46 400,42 405,37 409,34 413,30 417,26 419,26 419,100 0,100" fill="url(#grad)" stroke="none" />
<polyline points="0,92 4,91 8,91 12,91 16,92 21,92 25,91 29,92 34,92 38,92 42,92 46,91 50,91 54,88 58,87 63,85 67,84 71,84 75,85 79,84 83,84 87,85 92,88 96,88 100,88 104,88 108,86 112,84 116,82 120,79 124,76 128,73 133,71 137,69 141,67 145,65 149,65 153,67 157,70 161,72 165,75 169,79 173,79 177,76 181,73 185,71 190,71 194,71 198,72 202,70 206,69 211,71 215,73 219,78 223,82 227,82 231,82 235,83 239,81 244,78 248,78 252,78 256,76 260,76 264,78 269,78 273,78 277,77 281,73 285,69 289,65 293,63 298,63 302,65 306,65 310,65 315,65 319,64 323,62 327,61 331,59 336,59 340,61 344,62 348,60 352,59 356,57 360,53 364,49 368,48 372,48 376,46 380,43 384,44 388,48 392,48 396,46 400,42 405,37 409,34 413,30 417,26 419,26" stroke="#2963da" fill="none" stroke-width="3" stroke-linejoin="round" stroke-linecap="round" />
</svg>