<svg width="419" height="100" viewBox="0 0 419 100" xmlns="http://www.w3.org/2000/svg" xmlns:xlink="http://www.w3.org/1999/xlink"><defs>
<linearGradient id="grad" x1="0%" y1="0%" x2="0%" y2="100%">
<stop offset="0%" stop-color="#2963da" stop-opacity="0.40"/>
<stop offset="100%" stop-color="#070720" stop-opacity="0.20"/>
</linearGradient>
</defs>
<rect x="0" y="0" width="419" height="100" fill="none" />
<polygon points="0,92 4,92 8,92 12,92 16,92 20,91 25,91 29,91 33,91 37,89 41,88 46,88 50,88 54,88 58,87 63,87 67,87 71,87 75,87 79,87 83,87 88,87 92,87 97,87 101,87 105,87 109,86 113,86 118,86 122,85 126,84 130,83 134,83 138,82 142,81 146,81 150,80 154,79 158,78 163,76 167,78 171,79 175,80 179,80 183,80 188,80 192,80 196,81 200,81 204,80 208,80 212,79 216,80 220,79 225,78 229,80 233,79 237,79 241,80 245,80 250,81 254,81 258,81 262,81 266,80 270,80 274,77 278,78 283,79 287,79 291,77 296,76 300,73 304,73 308,77 312,77 316,77 320,77 324,77 328,78 333,77 337,77 341,77 345,76 349,76 353,75 357,75 361,74 366,73 370,73 374,72 378,70 382,70 386,68 390,66 395,64 399,62 403,60 407,57 411,54 415,50 419,46 419,100 0,100" fill="url(#grad)" stroke="none" />
<polyline points="0,92 4,92 8,92 12,92 16,92 20,91 25,91 29,91 33,91 37,89 41,88 46,88 50,88 54,88 58,87 63,87 67,87 71,87 75,87 79,87 83,87 88,87 92,87 97,87 101,87 105,87 109,86 113,86 118,86 122,85 126,84 130,83 134,83 138,82 142,81 146,81 150,80 154,79 158,78 163,76 167,78 171,79 175,80 179,80 183,80 188,80 192,80 196,81 200,81 204,80 208,80 212,79 216,80 220,79 225,78 229,80 233,79 237,79 241,80 245,80 250,81 254,81 258,81 262,81 266,80 270,80 274,77 278,78 283,79 287,79 291,77 296,76 300,73 304,73 308,77 312,77 316,77 320,77 324,77 328,78 333,77 337,77 341,77 345,76 349,76 353,75 357,75 361,74 366,73 370,73 374,72 378,70 382,70 386,68 390,66 395,64 399,62 403,60 407,57 411,54 415,50 419,46" stroke="#2963da" fill="none" stroke-width="3" stroke-linejoin="round" stroke-linecap="round" />
</svg>