<svg width="419" height="100" viewBox="0 0 419 100" xmlns="http://www.w3.org/2000/svg" xmlns:xlink="http://www.w3.org/1999/xlink"><defs>
<linearGradient id="grad" x1="0%" y1="0%" x2="0%" y2="100%">
<stop offset="0%" stop-color="#2963da" stop-opacity="0.40"/>
<stop offset="100%" stop-color="#070720" stop-opacity="0.20"/>
</linearGradient>
</defs>
<rect x="0" y="0" width="419" height="100" fill="none" />
<polygon points="0,92 4,91 8,92 12,92 16,92 20,92 24,92 28,91 32,92 36,92 41,91 45,91 49,91 53,91 57,91 61,91 65,91 69,91 73,90 77,90 81,90 85,90 89,90 93,91 98,91 102,90 106,91 110,90 114,91 118,91 122,91 126,91 130,91 134,91 138,91 142,91 147,92 151,92 155,92 159,92 163,91 167,91 171,92 175,92 179,92 183,92 188,92 192,92 196,92 200,92 204,92 208,92 212,92 216,92 220,92 224,92 228,92 232,92 236,92 240,92 245,92 249,91 253,92 257,92 261,91 265,92 269,91 273,91 277,91 281,91 285,91 290,91 294,91 298,91 302,92 306,92 310,92 314,92 318,92 323,92 327,92 331,92 335,92 339,92 343,91 347,91 351,91 355,91 359,91 363,91 367,91 371,91 375,91 379,91 383,92 387,92 392,92 396,92 400,92 404,92 408,91 412,92 416,92 419,92 419,100 0,100" fill="url(#grad)" stroke="none" />
<polyline points="0,92 4,91 8,92 12,92 16,92 20,92 24,92 28,91 32,92 36,92 41,91 45,91 49,91 53,91 57,91 61,91 65,91 69,91 73,90 77,90 81,90 85,90 89,90 93,91 98,91 102,90 106,91 110,90 114,91 118,91 122,91 126,91 130,91 134,91 138,91 142,91 147,92 151,92 155,92 159,92 163,91 167,91 171,92 175,92 179,92 183,92 188,92 192,92 196,92 200,92 204,92 208,92 212,92 216,92 220,92 224,92 228,92 232,92 236,92 240,92 245,92 249,91 253,92 257,92 261,91 265,92 269,91 273,91 277,91 281,91 285,91 290,91 294,91 298,91 302,92 306,92 310,92 314,92 318,92 323,92 327,92 331,92 335,92 339,92 343,91 347,91 351,91 355,91 359,91 363,91 367,91 371,91 375,91 379,91 383,92 387,92 392,92 396,92 400,92 404,92 408,91 412,92 416,92 419,92" stroke="#2963da" fill="none" stroke-width="3" stroke-linejoin="round" stroke-linecap="round" />
</svg>