<svg width="419" height="100" viewBox="0 0 419 100" xmlns="http://www.w3.org/2000/svg" xmlns:xlink="http://www.w3.org/1999/xlink"><defs>
<linearGradient id="grad" x1="0%" y1="0%" x2="0%" y2="100%">
<stop offset="0%" stop-color="#2963da" stop-opacity="0.40"/>
<stop offset="100%" stop-color="#070720" stop-opacity="0.20"/>
</linearGradient>
</defs>
<rect x="0" y="0" width="419" height="100" fill="none" />
<polygon points="0,92 4,91 8,92 12,92 16,92 20,92 24,92 28,91 32,92 36,92 40,91 44,90 48,86 52,88 56,90 60,90 64,91 68,92 73,92 77,91 81,90 85,90 89,91 93,92 97,91 101,92 105,92 109,92 113,92 117,92 121,92 125,92 129,92 134,91 138,91 142,91 146,91 150,90 154,90 158,91 162,90 166,89 170,89 174,90 178,88 182,89 186,89 190,89 195,89 199,89 203,89 207,90 211,90 215,90 219,88 223,87 227,90 231,90 235,90 239,89 243,89 248,89 252,89 256,88 260,89 264,89 268,89 272,88 276,88 280,88 284,87 288,87 293,87 297,87 301,86 305,86 309,85 313,84 317,82 321,78 325,75 329,78 333,81 337,80 341,79 345,77 349,71 353,66 357,60 361,55 365,59 369,63 373,68 378,73 382,77 386,80 390,81 394,82 398,83 402,84 406,85 410,85 414,86 418,86 419,86 419,100 0,100" fill="url(#grad)" stroke="none" />
<polyline points="0,92 4,91 8,92 12,92 16,92 20,92 24,92 28,91 32,92 36,92 40,91 44,90 48,86 52,88 56,90 60,90 64,91 68,92 73,92 77,91 81,90 85,90 89,91 93,92 97,91 101,92 105,92 109,92 113,92 117,92 121,92 125,92 129,92 134,91 138,91 142,91 146,91 150,90 154,90 158,91 162,90 166,89 170,89 174,90 178,88 182,89 186,89 190,89 195,89 199,89 203,89 207,90 211,90 215,90 219,88 223,87 227,90 231,90 235,90 239,89 243,89 248,89 252,89 256,88 260,89 264,89 268,89 272,88 276,88 280,88 284,87 288,87 293,87 297,87 301,86 305,86 309,85 313,84 317,82 321,78 325,75 329,78 333,81 337,80 341,79 345,77 349,71 353,66 357,60 361,55 365,59 369,63 373,68 378,73 382,77 386,80 390,81 394,82 398,83 402,84 406,85 410,85 414,86 418,86 419,86" stroke="#2963da" fill="none" stroke-width="3" stroke-linejoin="round" stroke-linecap="round" />
</svg>