<svg width="419" height="100" viewBox="0 0 419 100" xmlns="http://www.w3.org/2000/svg" xmlns:xlink="http://www.w3.org/1999/xlink"><defs>
<linearGradient id="grad" x1="0%" y1="0%" x2="0%" y2="100%">
<stop offset="0%" stop-color="#2963da" stop-opacity="0.40"/>
<stop offset="100%" stop-color="#070720" stop-opacity="0.20"/>
</linearGradient>
</defs>
<rect x="0" y="0" width="419" height="100" fill="none" />
<polygon points="0,87 4,88 8,88 12,90 16,90 20,87 24,84 28,81 32,80 36,79 40,80 44,81 48,82 52,84 56,86 60,87 64,87 68,88 72,89 76,89 80,89 85,88 89,88 93,88 97,88 101,89 105,88 109,87 113,87 117,87 121,88 125,89 129,89 133,89 137,89 141,88 145,87 149,86 153,85 157,85 161,83 165,83 170,84 174,85 178,86 182,86 186,86 190,87 194,88 198,88 202,88 206,88 210,86 214,85 218,86 222,86 226,85 230,84 234,82 238,80 242,78 247,78 251,79 255,80 259,81 263,84 267,86 271,87 275,89 279,90 283,90 287,91 291,92 295,92 299,91 303,89 307,88 311,86 315,86 319,87 323,88 328,89 332,90 336,91 340,92 344,92 348,92 352,91 356,90 360,88 364,87 368,85 372,86 376,87 380,88 384,89 388,89 392,89 397,89 401,88 405,85 409,84 413,82 417,79 419,77 419,100 0,100" fill="url(#grad)" stroke="none" />
<polyline points="0,87 4,88 8,88 12,90 16,90 20,87 24,84 28,81 32,80 36,79 40,80 44,81 48,82 52,84 56,86 60,87 64,87 68,88 72,89 76,89 80,89 85,88 89,88 93,88 97,88 101,89 105,88 109,87 113,87 117,87 121,88 125,89 129,89 133,89 137,89 141,88 145,87 149,86 153,85 157,85 161,83 165,83 170,84 174,85 178,86 182,86 186,86 190,87 194,88 198,88 202,88 206,88 210,86 214,85 218,86 222,86 226,85 230,84 234,82 238,80 242,78 247,78 251,79 255,80 259,81 263,84 267,86 271,87 275,89 279,90 283,90 287,91 291,92 295,92 299,91 303,89 307,88 311,86 315,86 319,87 323,88 328,89 332,90 336,91 340,92 344,92 348,92 352,91 356,90 360,88 364,87 368,85 372,86 376,87 380,88 384,89 388,89 392,89 397,89 401,88 405,85 409,84 413,82 417,79 419,77" stroke="#2963da" fill="none" stroke-width="3" stroke-linejoin="round" stroke-linecap="round" />
</svg>