<svg width="419" height="100" viewBox="0 0 419 100" xmlns="http://www.w3.org/2000/svg" xmlns:xlink="http://www.w3.org/1999/xlink"><defs>
<linearGradient id="grad" x1="0%" y1="0%" x2="0%" y2="100%">
<stop offset="0%" stop-color="#2963da" stop-opacity="0.40"/>
<stop offset="100%" stop-color="#070720" stop-opacity="0.20"/>
</linearGradient>
</defs>
<rect x="0" y="0" width="419" height="100" fill="none" />
<polygon points="0,88 5,88 9,87 14,86 18,86 22,88 26,88 30,87 34,86 38,85 42,82 46,82 51,84 55,84 59,85 63,84 68,82 72,81 77,81 81,81 85,82 89,84 94,82 98,80 102,81 106,82 111,80 115,82 119,80 123,79 128,80 132,80 136,80 141,79 145,80 149,82 153,82 157,82 161,82 166,82 170,83 174,82 178,83 182,84 186,83 191,82 195,81 199,82 206,84 211,85 216,85 220,86 226,86 230,87 235,87 239,86 243,87 248,87 253,88 257,88 262,88 266,89 270,89 275,89 279,89 283,89 287,89 291,90 295,90 299,90 303,90 307,91 311,91 316,91 320,91 324,91 328,91 332,92 336,92 340,92 344,92 348,92 352,92 356,92 361,92 365,92 369,92 373,92 377,91 381,90 385,90 389,91 393,90 397,91 401,92 405,92 409,92 413,92 417,92 419,92 419,100 0,100" fill="url(#grad)" stroke="none" />
<polyline points="0,88 5,88 9,87 14,86 18,86 22,88 26,88 30,87 34,86 38,85 42,82 46,82 51,84 55,84 59,85 63,84 68,82 72,81 77,81 81,81 85,82 89,84 94,82 98,80 102,81 106,82 111,80 115,82 119,80 123,79 128,80 132,80 136,80 141,79 145,80 149,82 153,82 157,82 161,82 166,82 170,83 174,82 178,83 182,84 186,83 191,82 195,81 199,82 206,84 211,85 216,85 220,86 226,86 230,87 235,87 239,86 243,87 248,87 253,88 257,88 262,88 266,89 270,89 275,89 279,89 283,89 287,89 291,90 295,90 299,90 303,90 307,91 311,91 316,91 320,91 324,91 328,91 332,92 336,92 340,92 344,92 348,92 352,92 356,92 361,92 365,92 369,92 373,92 377,91 381,90 385,90 389,91 393,90 397,91 401,92 405,92 409,92 413,92 417,92 419,92" stroke="#2963da" fill="none" stroke-width="3" stroke-linejoin="round" stroke-linecap="round" />
</svg>