<svg width="419" height="100" viewBox="0 0 419 100" xmlns="http://www.w3.org/2000/svg" xmlns:xlink="http://www.w3.org/1999/xlink"><defs>
<linearGradient id="grad" x1="0%" y1="0%" x2="0%" y2="100%">
<stop offset="0%" stop-color="#2963da" stop-opacity="0.40"/>
<stop offset="100%" stop-color="#070720" stop-opacity="0.20"/>
</linearGradient>
</defs>
<rect x="0" y="0" width="419" height="100" fill="none" />
<polygon points="0,88 4,88 8,89 12,89 16,90 20,91 24,91 28,91 32,89 36,86 40,84 45,87 49,90 53,90 57,89 61,87 65,87 69,87 73,89 77,89 81,89 86,92 90,92 94,92 98,92 102,91 106,87 110,83 115,82 119,87 123,89 127,89 131,87 135,84 139,85 143,84 147,84 152,84 156,87 160,87 164,89 168,87 172,88 176,90 180,92 184,92 189,92 193,92 197,92 201,92 205,92 209,92 213,91 217,88 221,88 225,86 229,86 233,87 238,87 242,89 246,91 250,88 254,91 258,87 262,86 266,87 270,87 274,88 278,86 283,85 287,88 291,88 295,88 299,88 303,88 307,90 311,89 315,90 319,87 323,87 328,87 332,86 336,85 340,85 344,88 348,84 352,84 356,87 360,88 364,86 368,87 372,89 377,89 381,88 385,87 389,88 393,87 397,85 401,86 405,87 409,85 413,88 417,86 419,86 419,100 0,100" fill="url(#grad)" stroke="none" />
<polyline points="0,88 4,88 8,89 12,89 16,90 20,91 24,91 28,91 32,89 36,86 40,84 45,87 49,90 53,90 57,89 61,87 65,87 69,87 73,89 77,89 81,89 86,92 90,92 94,92 98,92 102,91 106,87 110,83 115,82 119,87 123,89 127,89 131,87 135,84 139,85 143,84 147,84 152,84 156,87 160,87 164,89 168,87 172,88 176,90 180,92 184,92 189,92 193,92 197,92 201,92 205,92 209,92 213,91 217,88 221,88 225,86 229,86 233,87 238,87 242,89 246,91 250,88 254,91 258,87 262,86 266,87 270,87 274,88 278,86 283,85 287,88 291,88 295,88 299,88 303,88 307,90 311,89 315,90 319,87 323,87 328,87 332,86 336,85 340,85 344,88 348,84 352,84 356,87 360,88 364,86 368,87 372,89 377,89 381,88 385,87 389,88 393,87 397,85 401,86 405,87 409,85 413,88 417,86 419,86" stroke="#2963da" fill="none" stroke-width="3" stroke-linejoin="round" stroke-linecap="round" />
</svg>