<svg width="419" height="100" viewBox="0 0 419 100" xmlns="http://www.w3.org/2000/svg" xmlns:xlink="http://www.w3.org/1999/xlink"><defs>
<linearGradient id="grad" x1="0%" y1="0%" x2="0%" y2="100%">
<stop offset="0%" stop-color="#2963da" stop-opacity="0.40"/>
<stop offset="100%" stop-color="#070720" stop-opacity="0.20"/>
</linearGradient>
</defs>
<rect x="0" y="0" width="419" height="100" fill="none" />
<polygon points="0,92 4,92 8,91 12,91 16,91 20,91 24,92 29,92 33,92 37,92 41,92 45,92 49,92 53,92 58,92 62,92 66,92 70,92 74,92 78,92 83,92 88,92 93,92 97,92 102,92 106,92 110,92 114,92 119,92 123,92 127,92 131,92 135,92 139,92 143,92 148,92 152,92 156,92 160,92 164,92 169,92 174,92 178,92 182,92 186,92 191,92 195,92 200,92 204,92 208,92 212,91 217,92 221,92 225,92 229,92 234,92 238,92 242,92 246,92 250,92 254,91 258,92 262,91 266,91 271,91 275,90 279,90 283,90 287,90 292,90 296,90 300,90 304,90 308,91 312,90 316,90 320,88 325,86 329,88 333,85 337,81 341,83 345,84 349,85 353,88 357,90 362,90 366,89 370,89 374,88 378,89 382,89 386,89 390,89 394,89 398,89 402,87 406,89 411,89 415,89 419,89 419,100 0,100" fill="url(#grad)" stroke="none" />
<polyline points="0,92 4,92 8,91 12,91 16,91 20,91 24,92 29,92 33,92 37,92 41,92 45,92 49,92 53,92 58,92 62,92 66,92 70,92 74,92 78,92 83,92 88,92 93,92 97,92 102,92 106,92 110,92 114,92 119,92 123,92 127,92 131,92 135,92 139,92 143,92 148,92 152,92 156,92 160,92 164,92 169,92 174,92 178,92 182,92 186,92 191,92 195,92 200,92 204,92 208,92 212,91 217,92 221,92 225,92 229,92 234,92 238,92 242,92 246,92 250,92 254,91 258,92 262,91 266,91 271,91 275,90 279,90 283,90 287,90 292,90 296,90 300,90 304,90 308,91 312,90 316,90 320,88 325,86 329,88 333,85 337,81 341,83 345,84 349,85 353,88 357,90 362,90 366,89 370,89 374,88 378,89 382,89 386,89 390,89 394,89 398,89 402,87 406,89 411,89 415,89 419,89" stroke="#2963da" fill="none" stroke-width="3" stroke-linejoin="round" stroke-linecap="round" />
</svg>