<svg width="419" height="100" viewBox="0 0 419 100" xmlns="http://www.w3.org/2000/svg" xmlns:xlink="http://www.w3.org/1999/xlink"><defs>
<linearGradient id="grad" x1="0%" y1="0%" x2="0%" y2="100%">
<stop offset="0%" stop-color="#2963da" stop-opacity="0.40"/>
<stop offset="100%" stop-color="#070720" stop-opacity="0.20"/>
</linearGradient>
</defs>
<rect x="0" y="0" width="419" height="100" fill="none" />
<polygon points="0,92 4,92 8,91 13,90 17,86 21,84 25,81 29,79 33,78 37,76 41,73 46,75 50,72 54,71 58,69 62,70 67,74 71,74 76,77 80,77 84,77 88,75 92,74 96,75 101,79 105,81 109,82 114,81 118,80 122,80 127,80 131,79 135,77 139,77 144,80 148,79 152,79 156,77 161,79 165,81 169,83 173,83 177,83 181,84 185,84 189,85 194,83 198,85 202,87 206,89 210,88 215,83 219,80 223,76 227,74 231,73 235,74 239,74 244,74 248,74 252,76 256,74 260,75 264,76 268,80 273,82 277,80 281,81 286,79 290,80 294,80 298,79 302,77 306,77 311,80 315,79 319,78 323,76 328,80 332,82 336,83 340,84 344,84 348,84 352,85 356,84 360,83 364,85 369,86 373,89 377,88 381,83 385,79 389,75 393,74 397,73 402,74 406,74 410,74 415,75 419,76 419,100 0,100" fill="url(#grad)" stroke="none" />
<polyline points="0,92 4,92 8,91 13,90 17,86 21,84 25,81 29,79 33,78 37,76 41,73 46,75 50,72 54,71 58,69 62,70 67,74 71,74 76,77 80,77 84,77 88,75 92,74 96,75 101,79 105,81 109,82 114,81 118,80 122,80 127,80 131,79 135,77 139,77 144,80 148,79 152,79 156,77 161,79 165,81 169,83 173,83 177,83 181,84 185,84 189,85 194,83 198,85 202,87 206,89 210,88 215,83 219,80 223,76 227,74 231,73 235,74 239,74 244,74 248,74 252,76 256,74 260,75 264,76 268,80 273,82 277,80 281,81 286,79 290,80 294,80 298,79 302,77 306,77 311,80 315,79 319,78 323,76 328,80 332,82 336,83 340,84 344,84 348,84 352,85 356,84 360,83 364,85 369,86 373,89 377,88 381,83 385,79 389,75 393,74 397,73 402,74 406,74 410,74 415,75 419,76" stroke="#2963da" fill="none" stroke-width="3" stroke-linejoin="round" stroke-linecap="round" />
</svg>