<svg width="419" height="100" viewBox="0 0 419 100" xmlns="http://www.w3.org/2000/svg" xmlns:xlink="http://www.w3.org/1999/xlink"><defs>
<linearGradient id="grad" x1="0%" y1="0%" x2="0%" y2="100%">
<stop offset="0%" stop-color="#2963da" stop-opacity="0.40"/>
<stop offset="100%" stop-color="#070720" stop-opacity="0.20"/>
</linearGradient>
</defs>
<rect x="0" y="0" width="419" height="100" fill="none" />
<polygon points="0,89 4,88 8,87 12,86 16,85 20,84 24,85 28,87 32,88 36,89 40,90 44,90 49,90 53,90 57,90 61,90 65,90 69,90 73,90 77,90 81,90 85,90 89,90 93,90 97,91 101,90 105,90 110,89 114,89 118,91 122,91 126,90 130,90 134,90 138,87 142,89 146,91 150,90 154,90 158,90 162,90 167,90 171,88 175,85 179,84 183,85 187,87 191,88 195,90 199,91 203,92 207,91 211,92 215,91 219,91 223,92 227,92 231,92 236,92 240,92 244,91 248,90 252,89 256,91 260,92 264,92 268,92 272,92 276,92 280,91 284,89 288,85 292,86 296,89 300,91 304,92 308,92 312,92 317,92 321,89 325,89 329,88 333,88 337,88 341,89 345,89 349,90 353,90 357,90 361,90 365,90 369,90 373,90 378,90 382,87 386,89 390,92 394,91 398,92 402,92 406,92 410,92 414,92 419,92 419,100 0,100" fill="url(#grad)" stroke="none" />
<polyline points="0,89 4,88 8,87 12,86 16,85 20,84 24,85 28,87 32,88 36,89 40,90 44,90 49,90 53,90 57,90 61,90 65,90 69,90 73,90 77,90 81,90 85,90 89,90 93,90 97,91 101,90 105,90 110,89 114,89 118,91 122,91 126,90 130,90 134,90 138,87 142,89 146,91 150,90 154,90 158,90 162,90 167,90 171,88 175,85 179,84 183,85 187,87 191,88 195,90 199,91 203,92 207,91 211,92 215,91 219,91 223,92 227,92 231,92 236,92 240,92 244,91 248,90 252,89 256,91 260,92 264,92 268,92 272,92 276,92 280,91 284,89 288,85 292,86 296,89 300,91 304,92 308,92 312,92 317,92 321,89 325,89 329,88 333,88 337,88 341,89 345,89 349,90 353,90 357,90 361,90 365,90 369,90 373,90 378,90 382,87 386,89 390,92 394,91 398,92 402,92 406,92 410,92 414,92 419,92" stroke="#2963da" fill="none" stroke-width="3" stroke-linejoin="round" stroke-linecap="round" />
</svg>