<svg width="419" height="100" viewBox="0 0 419 100" xmlns="http://www.w3.org/2000/svg" xmlns:xlink="http://www.w3.org/1999/xlink"><defs>
<linearGradient id="grad" x1="0%" y1="0%" x2="0%" y2="100%">
<stop offset="0%" stop-color="#2963da" stop-opacity="0.40"/>
<stop offset="100%" stop-color="#070720" stop-opacity="0.20"/>
</linearGradient>
</defs>
<rect x="0" y="0" width="419" height="100" fill="none" />
<polygon points="0,90 4,91 8,91 12,92 16,91 20,91 24,91 28,91 33,90 37,89 41,91 45,91 49,90 53,90 57,91 61,91 65,90 69,90 74,90 78,90 82,90 87,89 91,90 95,89 99,89 103,90 107,89 111,88 115,88 119,88 124,88 128,88 132,87 136,87 140,88 144,87 148,88 152,88 156,88 160,89 164,89 169,89 173,90 177,89 181,89 185,90 189,90 193,90 197,89 201,90 205,91 209,91 213,90 217,90 221,90 226,91 230,91 234,92 238,92 242,92 246,92 250,92 254,92 258,92 262,92 266,92 270,92 274,92 278,92 283,92 287,92 291,92 295,92 299,92 303,92 307,92 311,92 315,92 319,92 323,92 327,92 331,91 335,91 339,91 344,91 348,91 352,92 356,92 360,92 364,92 368,92 372,92 376,91 380,91 384,91 388,91 392,91 396,91 401,92 405,92 409,92 413,91 417,92 419,92 419,100 0,100" fill="url(#grad)" stroke="none" />
<polyline points="0,90 4,91 8,91 12,92 16,91 20,91 24,91 28,91 33,90 37,89 41,91 45,91 49,90 53,90 57,91 61,91 65,90 69,90 74,90 78,90 82,90 87,89 91,90 95,89 99,89 103,90 107,89 111,88 115,88 119,88 124,88 128,88 132,87 136,87 140,88 144,87 148,88 152,88 156,88 160,89 164,89 169,89 173,90 177,89 181,89 185,90 189,90 193,90 197,89 201,90 205,91 209,91 213,90 217,90 221,90 226,91 230,91 234,92 238,92 242,92 246,92 250,92 254,92 258,92 262,92 266,92 270,92 274,92 278,92 283,92 287,92 291,92 295,92 299,92 303,92 307,92 311,92 315,92 319,92 323,92 327,92 331,91 335,91 339,91 344,91 348,91 352,92 356,92 360,92 364,92 368,92 372,92 376,91 380,91 384,91 388,91 392,91 396,91 401,92 405,92 409,92 413,91 417,92 419,92" stroke="#2963da" fill="none" stroke-width="3" stroke-linejoin="round" stroke-linecap="round" />
</svg>