<svg width="419" height="100" viewBox="0 0 419 100" xmlns="http://www.w3.org/2000/svg" xmlns:xlink="http://www.w3.org/1999/xlink"><defs>
<linearGradient id="grad" x1="0%" y1="0%" x2="0%" y2="100%">
<stop offset="0%" stop-color="#2963da" stop-opacity="0.40"/>
<stop offset="100%" stop-color="#070720" stop-opacity="0.20"/>
</linearGradient>
</defs>
<rect x="0" y="0" width="419" height="100" fill="none" />
<polygon points="0,92 4,92 8,92 12,92 16,92 20,92 24,92 29,91 33,91 37,91 41,91 45,90 49,90 53,92 57,89 61,90 65,87 69,85 73,87 77,90 82,91 86,92 90,91 94,88 98,90 102,91 107,90 111,91 115,90 119,89 123,88 127,89 131,88 135,88 139,85 143,82 147,80 151,79 155,80 160,83 164,86 168,87 172,88 176,88 181,88 185,87 189,87 193,84 197,84 201,84 205,88 209,90 213,91 218,92 222,92 226,91 230,90 234,91 238,90 242,89 246,88 250,89 254,89 258,88 262,88 266,89 270,89 274,92 278,90 282,91 286,91 291,91 295,89 299,86 303,85 307,85 311,87 315,88 319,88 323,88 328,87 332,86 336,83 340,83 344,86 348,89 352,90 356,91 360,92 364,92 368,89 372,91 376,91 381,89 385,90 389,89 393,88 397,90 401,87 405,87 409,89 413,91 417,92 419,91 419,100 0,100" fill="url(#grad)" stroke="none" />
<polyline points="0,92 4,92 8,92 12,92 16,92 20,92 24,92 29,91 33,91 37,91 41,91 45,90 49,90 53,92 57,89 61,90 65,87 69,85 73,87 77,90 82,91 86,92 90,91 94,88 98,90 102,91 107,90 111,91 115,90 119,89 123,88 127,89 131,88 135,88 139,85 143,82 147,80 151,79 155,80 160,83 164,86 168,87 172,88 176,88 181,88 185,87 189,87 193,84 197,84 201,84 205,88 209,90 213,91 218,92 222,92 226,91 230,90 234,91 238,90 242,89 246,88 250,89 254,89 258,88 262,88 266,89 270,89 274,92 278,90 282,91 286,91 291,91 295,89 299,86 303,85 307,85 311,87 315,88 319,88 323,88 328,87 332,86 336,83 340,83 344,86 348,89 352,90 356,91 360,92 364,92 368,89 372,91 376,91 381,89 385,90 389,89 393,88 397,90 401,87 405,87 409,89 413,91 417,92 419,91" stroke="#2963da" fill="none" stroke-width="3" stroke-linejoin="round" stroke-linecap="round" />
</svg>