<svg width="419" height="100" viewBox="0 0 419 100" xmlns="http://www.w3.org/2000/svg" xmlns:xlink="http://www.w3.org/1999/xlink"><defs>
<linearGradient id="grad" x1="0%" y1="0%" x2="0%" y2="100%">
<stop offset="0%" stop-color="#2963da" stop-opacity="0.40"/>
<stop offset="100%" stop-color="#070720" stop-opacity="0.20"/>
</linearGradient>
</defs>
<rect x="0" y="0" width="419" height="100" fill="none" />
<polygon points="0,88 4,88 8,88 12,88 16,87 20,87 24,89 28,88 32,88 36,88 40,88 44,89 48,88 52,88 56,88 60,89 64,90 68,89 72,87 77,85 81,86 85,88 89,89 93,89 97,88 101,88 105,88 109,87 113,88 117,87 121,87 125,88 129,89 133,90 137,90 141,89 145,89 149,89 153,89 158,89 162,89 166,89 170,89 174,88 178,88 182,88 186,89 190,88 194,88 198,88 202,89 206,88 210,89 214,91 218,92 222,92 226,92 230,92 234,92 239,92 243,92 247,91 251,90 255,91 259,90 263,89 267,88 271,88 275,89 279,91 283,90 287,88 291,87 295,84 299,83 303,82 307,81 311,80 315,80 319,80 323,80 328,80 332,80 336,80 340,80 344,79 348,78 352,78 356,79 360,80 364,82 368,84 372,86 376,87 380,89 384,90 388,91 392,91 396,91 401,91 405,91 409,90 413,90 417,90 419,91 419,100 0,100" fill="url(#grad)" stroke="none" />
<polyline points="0,88 4,88 8,88 12,88 16,87 20,87 24,89 28,88 32,88 36,88 40,88 44,89 48,88 52,88 56,88 60,89 64,90 68,89 72,87 77,85 81,86 85,88 89,89 93,89 97,88 101,88 105,88 109,87 113,88 117,87 121,87 125,88 129,89 133,90 137,90 141,89 145,89 149,89 153,89 158,89 162,89 166,89 170,89 174,88 178,88 182,88 186,89 190,88 194,88 198,88 202,89 206,88 210,89 214,91 218,92 222,92 226,92 230,92 234,92 239,92 243,92 247,91 251,90 255,91 259,90 263,89 267,88 271,88 275,89 279,91 283,90 287,88 291,87 295,84 299,83 303,82 307,81 311,80 315,80 319,80 323,80 328,80 332,80 336,80 340,80 344,79 348,78 352,78 356,79 360,80 364,82 368,84 372,86 376,87 380,89 384,90 388,91 392,91 396,91 401,91 405,91 409,90 413,90 417,90 419,91" stroke="#2963da" fill="none" stroke-width="3" stroke-linejoin="round" stroke-linecap="round" />
</svg>