<svg width="419" height="100" viewBox="0 0 419 100" xmlns="http://www.w3.org/2000/svg" xmlns:xlink="http://www.w3.org/1999/xlink"><defs>
<linearGradient id="grad" x1="0%" y1="0%" x2="0%" y2="100%">
<stop offset="0%" stop-color="#2963da" stop-opacity="0.40"/>
<stop offset="100%" stop-color="#070720" stop-opacity="0.20"/>
</linearGradient>
</defs>
<rect x="0" y="0" width="419" height="100" fill="none" />
<polygon points="0,92 4,92 8,92 12,92 16,92 20,92 24,92 28,92 33,92 37,92 41,92 45,92 49,92 53,92 57,92 62,91 66,91 70,91 74,91 78,91 82,91 86,91 91,91 95,91 99,91 103,91 107,91 111,91 115,91 119,91 124,91 128,91 132,91 136,91 140,91 144,91 148,91 152,91 156,91 161,90 165,90 169,90 173,90 177,90 181,90 185,90 189,90 194,91 198,91 202,91 206,91 210,91 214,91 218,91 223,91 227,91 231,91 235,91 239,91 244,91 248,91 252,91 256,91 260,91 264,91 269,91 273,91 277,91 281,91 285,91 289,91 293,91 297,91 302,91 306,92 310,92 314,92 318,92 322,92 326,92 331,92 335,92 339,92 343,92 347,92 352,91 356,92 360,92 364,92 368,92 373,92 377,92 381,92 385,92 389,92 393,92 397,92 401,92 406,92 410,92 414,92 418,92 419,92 419,100 0,100" fill="url(#grad)" stroke="none" />
<polyline points="0,92 4,92 8,92 12,92 16,92 20,92 24,92 28,92 33,92 37,92 41,92 45,92 49,92 53,92 57,92 62,91 66,91 70,91 74,91 78,91 82,91 86,91 91,91 95,91 99,91 103,91 107,91 111,91 115,91 119,91 124,91 128,91 132,91 136,91 140,91 144,91 148,91 152,91 156,91 161,90 165,90 169,90 173,90 177,90 181,90 185,90 189,90 194,91 198,91 202,91 206,91 210,91 214,91 218,91 223,91 227,91 231,91 235,91 239,91 244,91 248,91 252,91 256,91 260,91 264,91 269,91 273,91 277,91 281,91 285,91 289,91 293,91 297,91 302,91 306,92 310,92 314,92 318,92 322,92 326,92 331,92 335,92 339,92 343,92 347,92 352,91 356,92 360,92 364,92 368,92 373,92 377,92 381,92 385,92 389,92 393,92 397,92 401,92 406,92 410,92 414,92 418,92 419,92" stroke="#2963da" fill="none" stroke-width="3" stroke-linejoin="round" stroke-linecap="round" />
</svg>