<svg width="419" height="100" viewBox="0 0 419 100" xmlns="http://www.w3.org/2000/svg" xmlns:xlink="http://www.w3.org/1999/xlink"><defs>
<linearGradient id="grad" x1="0%" y1="0%" x2="0%" y2="100%">
<stop offset="0%" stop-color="#2963da" stop-opacity="0.40"/>
<stop offset="100%" stop-color="#070720" stop-opacity="0.20"/>
</linearGradient>
</defs>
<rect x="0" y="0" width="419" height="100" fill="none" />
<polygon points="0,92 4,91 8,87 12,85 16,83 20,81 24,80 28,79 32,77 37,76 41,76 45,76 49,78 53,77 57,77 61,77 65,79 69,82 73,84 77,84 82,85 86,85 90,84 94,84 99,84 103,84 107,82 111,83 115,82 119,79 124,79 128,78 132,80 136,82 140,82 145,80 149,80 153,82 158,81 162,81 167,80 171,79 177,81 181,81 186,81 190,82 194,81 198,80 202,80 206,82 210,83 214,84 219,85 223,84 227,83 231,83 236,80 240,82 244,83 248,85 253,84 257,84 262,85 267,85 271,85 275,85 279,85 283,84 287,81 291,84 295,83 299,82 304,81 309,82 313,82 317,81 321,82 325,83 329,84 333,83 337,82 342,82 346,82 350,82 354,81 359,82 363,84 367,84 371,84 375,83 379,82 384,81 388,82 392,82 396,81 401,83 405,83 409,84 414,83 418,82 419,82 419,100 0,100" fill="url(#grad)" stroke="none" />
<polyline points="0,92 4,91 8,87 12,85 16,83 20,81 24,80 28,79 32,77 37,76 41,76 45,76 49,78 53,77 57,77 61,77 65,79 69,82 73,84 77,84 82,85 86,85 90,84 94,84 99,84 103,84 107,82 111,83 115,82 119,79 124,79 128,78 132,80 136,82 140,82 145,80 149,80 153,82 158,81 162,81 167,80 171,79 177,81 181,81 186,81 190,82 194,81 198,80 202,80 206,82 210,83 214,84 219,85 223,84 227,83 231,83 236,80 240,82 244,83 248,85 253,84 257,84 262,85 267,85 271,85 275,85 279,85 283,84 287,81 291,84 295,83 299,82 304,81 309,82 313,82 317,81 321,82 325,83 329,84 333,83 337,82 342,82 346,82 350,82 354,81 359,82 363,84 367,84 371,84 375,83 379,82 384,81 388,82 392,82 396,81 401,83 405,83 409,84 414,83 418,82 419,82" stroke="#2963da" fill="none" stroke-width="3" stroke-linejoin="round" stroke-linecap="round" />
</svg>