<svg width="419" height="100" viewBox="0 0 419 100" xmlns="http://www.w3.org/2000/svg" xmlns:xlink="http://www.w3.org/1999/xlink"><defs>
<linearGradient id="grad" x1="0%" y1="0%" x2="0%" y2="100%">
<stop offset="0%" stop-color="#2963da" stop-opacity="0.40"/>
<stop offset="100%" stop-color="#070720" stop-opacity="0.20"/>
</linearGradient>
</defs>
<rect x="0" y="0" width="419" height="100" fill="none" />
<polygon points="0,88 4,89 8,88 12,89 17,89 21,89 25,90 29,91 33,91 37,91 41,91 46,91 50,89 54,88 58,85 62,84 66,87 71,88 75,89 79,90 83,88 87,89 91,90 95,88 99,87 103,87 108,87 112,88 116,90 120,89 124,88 128,90 133,92 137,92 141,92 145,92 149,92 153,92 157,91 162,92 166,92 170,92 174,92 178,92 182,92 186,90 191,90 195,88 199,89 203,88 207,85 211,88 215,88 219,89 224,91 228,90 232,91 236,90 240,91 244,90 248,90 252,89 256,88 260,90 264,89 269,87 273,87 277,88 281,86 285,87 289,86 293,85 297,85 302,87 306,87 310,85 314,85 318,85 322,87 326,89 331,88 335,86 339,87 343,87 347,88 351,88 355,89 359,90 364,87 368,87 372,88 376,86 380,88 384,86 388,85 392,86 396,85 401,85 405,85 409,87 413,88 417,85 419,86 419,100 0,100" fill="url(#grad)" stroke="none" />
<polyline points="0,88 4,89 8,88 12,89 17,89 21,89 25,90 29,91 33,91 37,91 41,91 46,91 50,89 54,88 58,85 62,84 66,87 71,88 75,89 79,90 83,88 87,89 91,90 95,88 99,87 103,87 108,87 112,88 116,90 120,89 124,88 128,90 133,92 137,92 141,92 145,92 149,92 153,92 157,91 162,92 166,92 170,92 174,92 178,92 182,92 186,90 191,90 195,88 199,89 203,88 207,85 211,88 215,88 219,89 224,91 228,90 232,91 236,90 240,91 244,90 248,90 252,89 256,88 260,90 264,89 269,87 273,87 277,88 281,86 285,87 289,86 293,85 297,85 302,87 306,87 310,85 314,85 318,85 322,87 326,89 331,88 335,86 339,87 343,87 347,88 351,88 355,89 359,90 364,87 368,87 372,88 376,86 380,88 384,86 388,85 392,86 396,85 401,85 405,85 409,87 413,88 417,85 419,86" stroke="#2963da" fill="none" stroke-width="3" stroke-linejoin="round" stroke-linecap="round" />
</svg>