<svg width="419" height="100" viewBox="0 0 419 100" xmlns="http://www.w3.org/2000/svg" xmlns:xlink="http://www.w3.org/1999/xlink"><defs>
<linearGradient id="grad" x1="0%" y1="0%" x2="0%" y2="100%">
<stop offset="0%" stop-color="#2963da" stop-opacity="0.40"/>
<stop offset="100%" stop-color="#070720" stop-opacity="0.20"/>
</linearGradient>
</defs>
<rect x="0" y="0" width="419" height="100" fill="none" />
<polygon points="0,89 4,89 8,89 12,89 16,90 20,90 24,90 28,89 32,90 36,90 40,90 44,88 48,83 52,81 56,74 60,73 64,77 68,75 72,76 76,77 80,72 84,71 88,72 92,75 96,77 101,79 105,80 109,80 113,78 117,81 121,83 125,84 129,85 133,86 137,87 141,88 145,89 149,90 153,90 157,90 161,88 165,90 169,92 173,92 177,92 181,92 185,90 189,87 193,85 198,86 202,83 206,81 210,80 214,81 218,78 222,74 226,70 230,66 234,62 238,58 242,55 246,52 250,50 254,54 258,55 262,55 266,54 270,56 274,58 278,60 282,62 286,64 290,64 294,62 298,63 303,62 307,65 311,65 315,64 319,65 323,65 327,68 331,66 335,67 339,64 343,68 347,73 351,74 355,76 359,75 363,69 367,65 371,68 375,67 379,66 383,68 387,67 391,66 395,70 399,66 404,66 408,69 412,70 416,74 419,73 419,100 0,100" fill="url(#grad)" stroke="none" />
<polyline points="0,89 4,89 8,89 12,89 16,90 20,90 24,90 28,89 32,90 36,90 40,90 44,88 48,83 52,81 56,74 60,73 64,77 68,75 72,76 76,77 80,72 84,71 88,72 92,75 96,77 101,79 105,80 109,80 113,78 117,81 121,83 125,84 129,85 133,86 137,87 141,88 145,89 149,90 153,90 157,90 161,88 165,90 169,92 173,92 177,92 181,92 185,90 189,87 193,85 198,86 202,83 206,81 210,80 214,81 218,78 222,74 226,70 230,66 234,62 238,58 242,55 246,52 250,50 254,54 258,55 262,55 266,54 270,56 274,58 278,60 282,62 286,64 290,64 294,62 298,63 303,62 307,65 311,65 315,64 319,65 323,65 327,68 331,66 335,67 339,64 343,68 347,73 351,74 355,76 359,75 363,69 367,65 371,68 375,67 379,66 383,68 387,67 391,66 395,70 399,66 404,66 408,69 412,70 416,74 419,73" stroke="#2963da" fill="none" stroke-width="3" stroke-linejoin="round" stroke-linecap="round" />
</svg>