<svg width="419" height="100" viewBox="0 0 419 100" xmlns="http://www.w3.org/2000/svg" xmlns:xlink="http://www.w3.org/1999/xlink"><defs>
<linearGradient id="grad" x1="0%" y1="0%" x2="0%" y2="100%">
<stop offset="0%" stop-color="#2963da" stop-opacity="0.40"/>
<stop offset="100%" stop-color="#070720" stop-opacity="0.20"/>
</linearGradient>
</defs>
<rect x="0" y="0" width="419" height="100" fill="none" />
<polygon points="0,74 4,71 8,67 12,61 16,59 20,57 24,57 28,55 32,54 37,56 42,56 46,56 50,55 54,53 59,52 63,56 67,58 71,59 75,61 79,63 84,63 88,66 92,69 96,72 100,75 104,78 108,81 112,84 117,86 121,87 125,88 130,89 134,91 138,92 142,92 146,92 150,91 155,90 159,90 163,89 167,84 171,78 175,72 179,75 183,77 188,81 192,84 196,84 200,86 204,84 208,81 213,79 217,77 221,75 225,71 229,67 233,64 237,60 241,59 246,60 250,61 254,57 258,54 262,51 267,52 271,55 275,53 279,52 284,52 288,52 292,54 296,57 300,61 304,64 309,66 313,67 317,64 321,62 325,63 329,66 333,67 338,70 342,72 346,74 350,76 354,77 358,77 362,77 366,77 370,76 374,76 378,77 383,76 387,76 391,74 395,71 399,68 403,65 407,62 411,60 415,54 419,50 419,100 0,100" fill="url(#grad)" stroke="none" />
<polyline points="0,74 4,71 8,67 12,61 16,59 20,57 24,57 28,55 32,54 37,56 42,56 46,56 50,55 54,53 59,52 63,56 67,58 71,59 75,61 79,63 84,63 88,66 92,69 96,72 100,75 104,78 108,81 112,84 117,86 121,87 125,88 130,89 134,91 138,92 142,92 146,92 150,91 155,90 159,90 163,89 167,84 171,78 175,72 179,75 183,77 188,81 192,84 196,84 200,86 204,84 208,81 213,79 217,77 221,75 225,71 229,67 233,64 237,60 241,59 246,60 250,61 254,57 258,54 262,51 267,52 271,55 275,53 279,52 284,52 288,52 292,54 296,57 300,61 304,64 309,66 313,67 317,64 321,62 325,63 329,66 333,67 338,70 342,72 346,74 350,76 354,77 358,77 362,77 366,77 370,76 374,76 378,77 383,76 387,76 391,74 395,71 399,68 403,65 407,62 411,60 415,54 419,50" stroke="#2963da" fill="none" stroke-width="3" stroke-linejoin="round" stroke-linecap="round" />
</svg>