<svg width="419" height="100" viewBox="0 0 419 100" xmlns="http://www.w3.org/2000/svg" xmlns:xlink="http://www.w3.org/1999/xlink"><defs>
<linearGradient id="grad" x1="0%" y1="0%" x2="0%" y2="100%">
<stop offset="0%" stop-color="#2963da" stop-opacity="0.40"/>
<stop offset="100%" stop-color="#070720" stop-opacity="0.20"/>
</linearGradient>
</defs>
<rect x="0" y="0" width="419" height="100" fill="none" />
<polygon points="0,88 4,87 8,87 12,86 16,86 20,85 24,87 28,86 32,86 36,84 41,84 45,83 49,82 53,81 57,79 61,76 65,72 69,68 73,65 78,61 82,55 86,52 90,52 94,55 98,59 102,61 106,65 110,61 114,58 118,57 123,57 127,57 131,58 135,57 139,57 143,60 147,59 151,60 155,64 159,66 164,68 168,67 172,67 176,67 181,68 185,70 189,73 193,75 197,74 201,70 205,68 209,64 213,66 217,69 222,68 226,67 230,67 234,68 238,72 242,72 246,74 250,75 254,77 258,78 263,79 267,81 271,81 275,82 279,82 283,82 287,79 291,79 295,80 299,79 303,77 307,78 312,79 316,79 320,79 324,79 328,79 332,79 337,78 341,79 345,81 349,83 353,80 359,80 364,81 368,81 372,84 376,89 380,91 385,92 389,92 393,92 397,92 401,92 405,91 409,91 414,92 418,91 419,91 419,100 0,100" fill="url(#grad)" stroke="none" />
<polyline points="0,88 4,87 8,87 12,86 16,86 20,85 24,87 28,86 32,86 36,84 41,84 45,83 49,82 53,81 57,79 61,76 65,72 69,68 73,65 78,61 82,55 86,52 90,52 94,55 98,59 102,61 106,65 110,61 114,58 118,57 123,57 127,57 131,58 135,57 139,57 143,60 147,59 151,60 155,64 159,66 164,68 168,67 172,67 176,67 181,68 185,70 189,73 193,75 197,74 201,70 205,68 209,64 213,66 217,69 222,68 226,67 230,67 234,68 238,72 242,72 246,74 250,75 254,77 258,78 263,79 267,81 271,81 275,82 279,82 283,82 287,79 291,79 295,80 299,79 303,77 307,78 312,79 316,79 320,79 324,79 328,79 332,79 337,78 341,79 345,81 349,83 353,80 359,80 364,81 368,81 372,84 376,89 380,91 385,92 389,92 393,92 397,92 401,92 405,91 409,91 414,92 418,91 419,91" stroke="#2963da" fill="none" stroke-width="3" stroke-linejoin="round" stroke-linecap="round" />
</svg>