<svg width="419" height="100" viewBox="0 0 419 100" xmlns="http://www.w3.org/2000/svg" xmlns:xlink="http://www.w3.org/1999/xlink"><defs>
<linearGradient id="grad" x1="0%" y1="0%" x2="0%" y2="100%">
<stop offset="0%" stop-color="#2963da" stop-opacity="0.40"/>
<stop offset="100%" stop-color="#070720" stop-opacity="0.20"/>
</linearGradient>
</defs>
<rect x="0" y="0" width="419" height="100" fill="none" />
<polygon points="0,92 4,92 8,92 13,92 17,92 21,92 25,92 29,91 34,91 38,92 43,91 49,92 53,92 57,92 61,92 65,92 70,91 75,92 79,92 84,92 88,91 92,91 97,91 101,91 105,91 110,91 115,91 121,91 125,91 130,91 134,90 138,90 145,90 151,90 156,89 166,89 173,90 178,89 184,90 190,90 199,90 209,89 213,90 219,90 224,89 230,89 234,89 239,89 245,89 249,89 253,89 260,89 266,90 274,90 279,90 283,90 288,90 292,90 296,90 300,90 306,90 310,90 315,90 319,90 323,90 328,90 332,90 337,90 341,91 345,91 350,91 354,91 360,91 365,91 369,92 375,91 379,91 385,91 389,92 395,92 401,92 406,91 410,91 414,91 418,91 419,91 419,100 0,100" fill="url(#grad)" stroke="none" />
<polyline points="0,92 4,92 8,92 13,92 17,92 21,92 25,92 29,91 34,91 38,92 43,91 49,92 53,92 57,92 61,92 65,92 70,91 75,92 79,92 84,92 88,91 92,91 97,91 101,91 105,91 110,91 115,91 121,91 125,91 130,91 134,90 138,90 145,90 151,90 156,89 166,89 173,90 178,89 184,90 190,90 199,90 209,89 213,90 219,90 224,89 230,89 234,89 239,89 245,89 249,89 253,89 260,89 266,90 274,90 279,90 283,90 288,90 292,90 296,90 300,90 306,90 310,90 315,90 319,90 323,90 328,90 332,90 337,90 341,91 345,91 350,91 354,91 360,91 365,91 369,92 375,91 379,91 385,91 389,92 395,92 401,92 406,91 410,91 414,91 418,91 419,91" stroke="#2963da" fill="none" stroke-width="3" stroke-linejoin="round" stroke-linecap="round" />
</svg>