<svg width="419" height="100" viewBox="0 0 419 100" xmlns="http://www.w3.org/2000/svg" xmlns:xlink="http://www.w3.org/1999/xlink"><defs>
<linearGradient id="grad" x1="0%" y1="0%" x2="0%" y2="100%">
<stop offset="0%" stop-color="#2963da" stop-opacity="0.40"/>
<stop offset="100%" stop-color="#070720" stop-opacity="0.20"/>
</linearGradient>
</defs>
<rect x="0" y="0" width="419" height="100" fill="none" />
<polygon points="0,92 4,92 8,92 12,92 16,92 20,92 24,91 28,87 33,86 37,85 41,86 45,86 49,85 53,85 57,85 62,85 66,86 70,85 74,85 78,88 82,89 87,90 91,90 95,90 99,90 103,89 107,85 112,85 116,85 120,85 124,85 128,87 132,88 136,86 140,84 144,86 148,87 153,85 157,85 161,84 165,85 169,84 173,84 177,85 182,86 186,85 190,86 196,86 200,86 204,86 208,84 212,86 216,84 220,84 225,85 229,85 233,87 237,87 242,88 246,89 250,89 254,89 258,87 262,85 266,87 270,86 274,87 278,90 282,91 287,91 291,92 295,90 299,89 303,92 307,92 311,91 315,87 319,86 324,86 328,86 332,86 336,85 341,85 345,86 349,88 353,89 357,89 362,89 366,86 370,85 374,87 378,87 382,89 386,90 390,91 394,91 398,92 403,88 407,91 411,92 415,92 419,88 419,100 0,100" fill="url(#grad)" stroke="none" />
<polyline points="0,92 4,92 8,92 12,92 16,92 20,92 24,91 28,87 33,86 37,85 41,86 45,86 49,85 53,85 57,85 62,85 66,86 70,85 74,85 78,88 82,89 87,90 91,90 95,90 99,90 103,89 107,85 112,85 116,85 120,85 124,85 128,87 132,88 136,86 140,84 144,86 148,87 153,85 157,85 161,84 165,85 169,84 173,84 177,85 182,86 186,85 190,86 196,86 200,86 204,86 208,84 212,86 216,84 220,84 225,85 229,85 233,87 237,87 242,88 246,89 250,89 254,89 258,87 262,85 266,87 270,86 274,87 278,90 282,91 287,91 291,92 295,90 299,89 303,92 307,92 311,91 315,87 319,86 324,86 328,86 332,86 336,85 341,85 345,86 349,88 353,89 357,89 362,89 366,86 370,85 374,87 378,87 382,89 386,90 390,91 394,91 398,92 403,88 407,91 411,92 415,92 419,88" stroke="#2963da" fill="none" stroke-width="3" stroke-linejoin="round" stroke-linecap="round" />
</svg>