<svg width="419" height="100" viewBox="0 0 419 100" xmlns="http://www.w3.org/2000/svg" xmlns:xlink="http://www.w3.org/1999/xlink"><defs>
<linearGradient id="grad" x1="0%" y1="0%" x2="0%" y2="100%">
<stop offset="0%" stop-color="#2963da" stop-opacity="0.40"/>
<stop offset="100%" stop-color="#070720" stop-opacity="0.20"/>
</linearGradient>
</defs>
<rect x="0" y="0" width="419" height="100" fill="none" />
<polygon points="0,92 4,91 8,91 12,91 16,91 20,91 24,91 28,91 32,92 36,91 40,91 44,91 48,91 52,91 56,91 60,90 64,88 68,88 72,89 76,89 80,89 84,90 88,90 92,91 97,92 101,92 105,92 109,92 113,92 117,92 121,91 125,92 129,92 133,92 137,92 141,92 145,92 149,92 153,91 157,91 161,92 165,92 169,91 173,90 177,91 181,90 185,92 189,90 193,91 198,92 202,91 206,91 210,92 214,92 218,92 222,92 226,92 230,91 234,91 238,91 242,92 246,91 250,90 254,90 258,91 262,91 266,90 270,90 274,90 278,91 282,90 287,92 291,90 295,91 299,92 303,91 307,91 311,92 315,92 319,92 323,92 327,92 331,91 335,91 339,91 343,92 347,91 351,90 355,91 359,91 363,92 367,90 371,90 375,90 380,91 384,90 388,90 392,91 396,92 400,91 404,91 408,91 412,92 416,92 419,92 419,100 0,100" fill="url(#grad)" stroke="none" />
<polyline points="0,92 4,91 8,91 12,91 16,91 20,91 24,91 28,91 32,92 36,91 40,91 44,91 48,91 52,91 56,91 60,90 64,88 68,88 72,89 76,89 80,89 84,90 88,90 92,91 97,92 101,92 105,92 109,92 113,92 117,92 121,91 125,92 129,92 133,92 137,92 141,92 145,92 149,92 153,91 157,91 161,92 165,92 169,91 173,90 177,91 181,90 185,92 189,90 193,91 198,92 202,91 206,91 210,92 214,92 218,92 222,92 226,92 230,91 234,91 238,91 242,92 246,91 250,90 254,90 258,91 262,91 266,90 270,90 274,90 278,91 282,90 287,92 291,90 295,91 299,92 303,91 307,91 311,92 315,92 319,92 323,92 327,92 331,91 335,91 339,91 343,92 347,91 351,90 355,91 359,91 363,92 367,90 371,90 375,90 380,91 384,90 388,90 392,91 396,92 400,91 404,91 408,91 412,92 416,92 419,92" stroke="#2963da" fill="none" stroke-width="3" stroke-linejoin="round" stroke-linecap="round" />
</svg>