<svg width="419" height="100" viewBox="0 0 419 100" xmlns="http://www.w3.org/2000/svg" xmlns:xlink="http://www.w3.org/1999/xlink"><defs>
<linearGradient id="grad" x1="0%" y1="0%" x2="0%" y2="100%">
<stop offset="0%" stop-color="#2963da" stop-opacity="0.40"/>
<stop offset="100%" stop-color="#070720" stop-opacity="0.20"/>
</linearGradient>
</defs>
<rect x="0" y="0" width="419" height="100" fill="none" />
<polygon points="0,92 4,92 8,92 12,90 16,90 20,86 24,82 28,79 32,78 36,79 40,77 44,77 48,78 52,82 57,86 61,88 65,87 69,87 73,85 77,80 81,77 85,79 89,80 93,76 97,77 101,78 105,82 109,86 113,86 117,88 121,90 126,88 130,83 134,79 138,75 142,74 146,77 150,82 154,86 158,83 163,79 167,74 171,74 175,75 179,76 183,80 187,83 191,82 195,77 199,73 203,72 208,71 212,72 216,69 220,69 224,68 228,65 232,66 236,70 240,73 244,75 249,74 253,74 257,75 261,72 265,70 269,71 273,69 277,67 282,66 286,63 290,58 294,57 298,59 302,60 306,58 310,55 314,52 318,56 323,59 327,63 331,66 335,70 339,71 343,72 347,72 351,71 355,66 360,63 364,62 368,60 372,62 376,61 380,62 384,58 388,54 392,50 397,52 401,56 405,59 409,64 413,61 417,56 419,54 419,100 0,100" fill="url(#grad)" stroke="none" />
<polyline points="0,92 4,92 8,92 12,90 16,90 20,86 24,82 28,79 32,78 36,79 40,77 44,77 48,78 52,82 57,86 61,88 65,87 69,87 73,85 77,80 81,77 85,79 89,80 93,76 97,77 101,78 105,82 109,86 113,86 117,88 121,90 126,88 130,83 134,79 138,75 142,74 146,77 150,82 154,86 158,83 163,79 167,74 171,74 175,75 179,76 183,80 187,83 191,82 195,77 199,73 203,72 208,71 212,72 216,69 220,69 224,68 228,65 232,66 236,70 240,73 244,75 249,74 253,74 257,75 261,72 265,70 269,71 273,69 277,67 282,66 286,63 290,58 294,57 298,59 302,60 306,58 310,55 314,52 318,56 323,59 327,63 331,66 335,70 339,71 343,72 347,72 351,71 355,66 360,63 364,62 368,60 372,62 376,61 380,62 384,58 388,54 392,50 397,52 401,56 405,59 409,64 413,61 417,56 419,54" stroke="#2963da" fill="none" stroke-width="3" stroke-linejoin="round" stroke-linecap="round" />
</svg>