<svg width="419" height="100" viewBox="0 0 419 100" xmlns="http://www.w3.org/2000/svg" xmlns:xlink="http://www.w3.org/1999/xlink"><defs>
<linearGradient id="grad" x1="0%" y1="0%" x2="0%" y2="100%">
<stop offset="0%" stop-color="#2963da" stop-opacity="0.40"/>
<stop offset="100%" stop-color="#070720" stop-opacity="0.20"/>
</linearGradient>
</defs>
<rect x="0" y="0" width="419" height="100" fill="none" />
<polygon points="0,91 4,92 8,92 12,92 17,92 21,92 25,92 29,92 33,92 37,92 42,91 46,91 50,92 54,92 58,92 62,92 66,92 71,92 75,92 79,92 83,90 87,90 91,91 96,92 100,92 104,92 108,92 113,92 117,92 121,92 125,92 129,92 133,92 137,92 141,92 145,92 150,92 154,92 158,92 162,92 166,92 171,92 175,91 179,91 183,90 187,89 192,89 196,90 200,90 204,90 208,90 212,89 217,89 221,89 226,88 230,88 234,88 238,87 242,87 246,86 251,86 255,84 259,84 263,83 267,83 271,83 275,82 279,81 283,80 287,80 292,79 296,78 300,77 304,75 308,75 312,73 316,71 320,70 324,69 328,68 332,66 337,64 341,62 345,60 349,57 353,53 357,49 361,45 365,42 369,37 373,35 377,33 381,32 386,33 390,35 394,37 398,35 402,32 406,28 410,25 414,22 419,19 419,100 0,100" fill="url(#grad)" stroke="none" />
<polyline points="0,91 4,92 8,92 12,92 17,92 21,92 25,92 29,92 33,92 37,92 42,91 46,91 50,92 54,92 58,92 62,92 66,92 71,92 75,92 79,92 83,90 87,90 91,91 96,92 100,92 104,92 108,92 113,92 117,92 121,92 125,92 129,92 133,92 137,92 141,92 145,92 150,92 154,92 158,92 162,92 166,92 171,92 175,91 179,91 183,90 187,89 192,89 196,90 200,90 204,90 208,90 212,89 217,89 221,89 226,88 230,88 234,88 238,87 242,87 246,86 251,86 255,84 259,84 263,83 267,83 271,83 275,82 279,81 283,80 287,80 292,79 296,78 300,77 304,75 308,75 312,73 316,71 320,70 324,69 328,68 332,66 337,64 341,62 345,60 349,57 353,53 357,49 361,45 365,42 369,37 373,35 377,33 381,32 386,33 390,35 394,37 398,35 402,32 406,28 410,25 414,22 419,19" stroke="#2963da" fill="none" stroke-width="3" stroke-linejoin="round" stroke-linecap="round" />
</svg>