<svg width="419" height="100" viewBox="0 0 419 100" xmlns="http://www.w3.org/2000/svg" xmlns:xlink="http://www.w3.org/1999/xlink"><defs>
<linearGradient id="grad" x1="0%" y1="0%" x2="0%" y2="100%">
<stop offset="0%" stop-color="#2963da" stop-opacity="0.40"/>
<stop offset="100%" stop-color="#070720" stop-opacity="0.20"/>
</linearGradient>
</defs>
<rect x="0" y="0" width="419" height="100" fill="none" />
<polygon points="0,92 4,92 8,92 12,91 16,91 20,91 24,90 28,90 32,89 36,88 41,87 45,85 49,82 53,82 57,85 61,86 65,87 69,87 73,87 77,87 81,86 86,85 90,84 94,83 98,82 102,81 106,77 110,74 114,72 118,69 122,68 126,69 130,70 135,72 139,76 143,80 147,81 151,81 155,83 159,85 163,85 167,80 171,79 175,78 180,83 184,87 188,87 192,86 196,84 200,83 204,80 208,76 212,77 217,80 221,80 225,82 229,83 233,81 237,79 241,77 245,80 249,81 253,79 257,74 262,72 266,76 270,80 274,83 278,84 282,83 286,86 290,86 294,86 299,88 303,90 307,90 311,89 315,89 319,88 323,86 328,82 332,80 336,79 340,80 344,81 348,81 352,83 356,87 361,87 365,87 369,86 373,86 377,84 381,82 385,80 389,77 393,73 397,70 401,66 406,62 410,58 414,53 418,48 419,48 419,100 0,100" fill="url(#grad)" stroke="none" />
<polyline points="0,92 4,92 8,92 12,91 16,91 20,91 24,90 28,90 32,89 36,88 41,87 45,85 49,82 53,82 57,85 61,86 65,87 69,87 73,87 77,87 81,86 86,85 90,84 94,83 98,82 102,81 106,77 110,74 114,72 118,69 122,68 126,69 130,70 135,72 139,76 143,80 147,81 151,81 155,83 159,85 163,85 167,80 171,79 175,78 180,83 184,87 188,87 192,86 196,84 200,83 204,80 208,76 212,77 217,80 221,80 225,82 229,83 233,81 237,79 241,77 245,80 249,81 253,79 257,74 262,72 266,76 270,80 274,83 278,84 282,83 286,86 290,86 294,86 299,88 303,90 307,90 311,89 315,89 319,88 323,86 328,82 332,80 336,79 340,80 344,81 348,81 352,83 356,87 361,87 365,87 369,86 373,86 377,84 381,82 385,80 389,77 393,73 397,70 401,66 406,62 410,58 414,53 418,48 419,48" stroke="#2963da" fill="none" stroke-width="3" stroke-linejoin="round" stroke-linecap="round" />
</svg>