<svg width="419" height="100" viewBox="0 0 419 100" xmlns="http://www.w3.org/2000/svg" xmlns:xlink="http://www.w3.org/1999/xlink"><defs>
<linearGradient id="grad" x1="0%" y1="0%" x2="0%" y2="100%">
<stop offset="0%" stop-color="#2963da" stop-opacity="0.40"/>
<stop offset="100%" stop-color="#070720" stop-opacity="0.20"/>
</linearGradient>
</defs>
<rect x="0" y="0" width="419" height="100" fill="none" />
<polygon points="0,92 4,92 8,92 12,92 16,92 20,92 24,92 28,91 32,90 36,89 40,88 44,88 48,87 52,91 56,92 60,92 64,92 68,92 72,91 76,91 80,90 84,90 88,89 93,89 97,87 101,85 105,84 109,86 113,88 117,90 121,91 125,91 129,91 133,90 137,90 141,89 145,85 149,85 153,85 157,87 161,88 165,90 169,91 173,90 177,89 181,87 186,89 190,89 194,88 198,85 202,84 206,86 210,87 214,90 218,90 222,90 226,89 230,87 234,89 238,89 242,89 246,86 250,84 254,86 258,87 262,89 266,90 270,91 274,89 279,88 283,88 287,89 291,89 295,87 299,84 303,86 307,87 311,89 315,90 319,91 323,89 327,88 331,88 335,89 339,89 343,87 347,84 351,85 355,87 359,88 364,90 368,90 372,89 376,89 380,87 384,89 388,89 392,88 396,85 400,84 404,86 408,87 412,90 416,90 419,91 419,100 0,100" fill="url(#grad)" stroke="none" />
<polyline points="0,92 4,92 8,92 12,92 16,92 20,92 24,92 28,91 32,90 36,89 40,88 44,88 48,87 52,91 56,92 60,92 64,92 68,92 72,91 76,91 80,90 84,90 88,89 93,89 97,87 101,85 105,84 109,86 113,88 117,90 121,91 125,91 129,91 133,90 137,90 141,89 145,85 149,85 153,85 157,87 161,88 165,90 169,91 173,90 177,89 181,87 186,89 190,89 194,88 198,85 202,84 206,86 210,87 214,90 218,90 222,90 226,89 230,87 234,89 238,89 242,89 246,86 250,84 254,86 258,87 262,89 266,90 270,91 274,89 279,88 283,88 287,89 291,89 295,87 299,84 303,86 307,87 311,89 315,90 319,91 323,89 327,88 331,88 335,89 339,89 343,87 347,84 351,85 355,87 359,88 364,90 368,90 372,89 376,89 380,87 384,89 388,89 392,88 396,85 400,84 404,86 408,87 412,90 416,90 419,91" stroke="#2963da" fill="none" stroke-width="3" stroke-linejoin="round" stroke-linecap="round" />
</svg>