<svg width="419" height="100" viewBox="0 0 419 100" xmlns="http://www.w3.org/2000/svg" xmlns:xlink="http://www.w3.org/1999/xlink"><defs>
<linearGradient id="grad" x1="0%" y1="0%" x2="0%" y2="100%">
<stop offset="0%" stop-color="#2963da" stop-opacity="0.40"/>
<stop offset="100%" stop-color="#070720" stop-opacity="0.20"/>
</linearGradient>
</defs>
<rect x="0" y="0" width="419" height="100" fill="none" />
<polygon points="0,87 4,87 8,84 12,80 16,76 20,73 24,73 28,75 32,75 36,77 40,80 44,82 49,84 53,86 57,87 61,87 65,88 69,88 73,88 77,88 81,88 85,86 89,82 93,78 97,75 101,71 106,68 110,70 114,73 118,75 122,77 126,81 130,85 135,88 139,89 143,88 147,86 151,83 155,80 160,85 164,88 168,92 172,92 176,92 180,91 184,91 188,90 192,90 196,88 200,89 204,89 208,89 213,89 217,88 221,88 225,86 229,82 233,78 237,74 241,70 245,68 249,71 253,73 257,76 262,78 266,82 270,85 274,88 278,89 282,88 286,86 290,83 294,80 299,85 303,88 307,92 311,92 315,92 319,91 323,91 327,90 331,90 335,88 339,89 343,89 347,89 352,89 356,89 360,88 364,88 368,88 372,86 376,85 380,83 384,79 388,75 392,74 396,78 400,82 404,86 408,87 413,88 417,89 419,88 419,100 0,100" fill="url(#grad)" stroke="none" />
<polyline points="0,87 4,87 8,84 12,80 16,76 20,73 24,73 28,75 32,75 36,77 40,80 44,82 49,84 53,86 57,87 61,87 65,88 69,88 73,88 77,88 81,88 85,86 89,82 93,78 97,75 101,71 106,68 110,70 114,73 118,75 122,77 126,81 130,85 135,88 139,89 143,88 147,86 151,83 155,80 160,85 164,88 168,92 172,92 176,92 180,91 184,91 188,90 192,90 196,88 200,89 204,89 208,89 213,89 217,88 221,88 225,86 229,82 233,78 237,74 241,70 245,68 249,71 253,73 257,76 262,78 266,82 270,85 274,88 278,89 282,88 286,86 290,83 294,80 299,85 303,88 307,92 311,92 315,92 319,91 323,91 327,90 331,90 335,88 339,89 343,89 347,89 352,89 356,89 360,88 364,88 368,88 372,86 376,85 380,83 384,79 388,75 392,74 396,78 400,82 404,86 408,87 413,88 417,89 419,88" stroke="#2963da" fill="none" stroke-width="3" stroke-linejoin="round" stroke-linecap="round" />
</svg>