<svg width="419" height="100" viewBox="0 0 419 100" xmlns="http://www.w3.org/2000/svg" xmlns:xlink="http://www.w3.org/1999/xlink"><defs>
<linearGradient id="grad" x1="0%" y1="0%" x2="0%" y2="100%">
<stop offset="0%" stop-color="#2963da" stop-opacity="0.40"/>
<stop offset="100%" stop-color="#070720" stop-opacity="0.20"/>
</linearGradient>
</defs>
<rect x="0" y="0" width="419" height="100" fill="none" />
<polygon points="0,88 4,91 8,89 12,90 16,90 20,92 24,91 28,89 32,91 36,92 40,92 44,92 48,90 53,91 57,91 61,91 65,90 69,90 73,91 77,92 81,90 85,90 89,92 93,92 98,92 102,92 106,91 110,91 114,92 118,92 123,91 127,90 131,90 135,90 139,91 143,91 147,91 151,91 156,92 160,92 164,92 168,92 172,91 176,92 180,91 184,91 188,91 192,91 197,90 201,90 205,90 209,89 213,89 217,88 221,88 225,87 229,87 233,86 238,86 242,85 246,84 250,83 254,83 258,81 262,82 266,82 270,80 274,78 278,77 282,79 287,81 291,83 295,84 299,83 303,81 307,77 311,70 315,63 319,61 323,67 327,73 331,76 335,79 339,80 343,82 347,83 352,83 356,82 360,82 364,81 368,75 372,69 376,63 380,67 384,72 388,77 392,80 396,74 401,68 405,64 409,54 413,44 417,33 419,33 419,100 0,100" fill="url(#grad)" stroke="none" />
<polyline points="0,88 4,91 8,89 12,90 16,90 20,92 24,91 28,89 32,91 36,92 40,92 44,92 48,90 53,91 57,91 61,91 65,90 69,90 73,91 77,92 81,90 85,90 89,92 93,92 98,92 102,92 106,91 110,91 114,92 118,92 123,91 127,90 131,90 135,90 139,91 143,91 147,91 151,91 156,92 160,92 164,92 168,92 172,91 176,92 180,91 184,91 188,91 192,91 197,90 201,90 205,90 209,89 213,89 217,88 221,88 225,87 229,87 233,86 238,86 242,85 246,84 250,83 254,83 258,81 262,82 266,82 270,80 274,78 278,77 282,79 287,81 291,83 295,84 299,83 303,81 307,77 311,70 315,63 319,61 323,67 327,73 331,76 335,79 339,80 343,82 347,83 352,83 356,82 360,82 364,81 368,75 372,69 376,63 380,67 384,72 388,77 392,80 396,74 401,68 405,64 409,54 413,44 417,33 419,33" stroke="#2963da" fill="none" stroke-width="3" stroke-linejoin="round" stroke-linecap="round" />
</svg>