<svg width="419" height="100" viewBox="0 0 419 100" xmlns="http://www.w3.org/2000/svg" xmlns:xlink="http://www.w3.org/1999/xlink"><defs>
<linearGradient id="grad" x1="0%" y1="0%" x2="0%" y2="100%">
<stop offset="0%" stop-color="#2963da" stop-opacity="0.40"/>
<stop offset="100%" stop-color="#070720" stop-opacity="0.20"/>
</linearGradient>
</defs>
<rect x="0" y="0" width="419" height="100" fill="none" />
<polygon points="0,81 4,80 8,78 12,79 16,80 20,80 24,78 28,74 32,74 36,73 40,71 44,68 48,67 52,69 56,68 60,68 64,71 68,70 72,71 76,70 80,69 84,68 88,69 92,70 96,69 101,69 105,67 109,69 113,72 117,75 121,77 125,80 129,82 133,83 137,82 141,83 145,84 149,84 153,84 157,83 161,83 165,80 169,77 173,74 177,74 181,76 186,72 190,69 194,65 198,61 202,59 206,60 210,63 214,65 218,68 222,70 226,69 230,65 234,62 238,61 242,64 246,67 250,71 254,73 258,71 262,70 267,68 271,69 275,67 279,67 283,66 287,64 291,64 295,66 299,69 303,73 307,76 311,77 315,77 319,79 323,82 327,86 331,89 335,91 339,91 343,91 348,91 352,91 356,92 360,91 364,91 368,91 372,92 376,92 380,92 384,92 388,92 392,92 396,92 400,92 404,92 408,92 412,92 416,92 419,92 419,100 0,100" fill="url(#grad)" stroke="none" />
<polyline points="0,81 4,80 8,78 12,79 16,80 20,80 24,78 28,74 32,74 36,73 40,71 44,68 48,67 52,69 56,68 60,68 64,71 68,70 72,71 76,70 80,69 84,68 88,69 92,70 96,69 101,69 105,67 109,69 113,72 117,75 121,77 125,80 129,82 133,83 137,82 141,83 145,84 149,84 153,84 157,83 161,83 165,80 169,77 173,74 177,74 181,76 186,72 190,69 194,65 198,61 202,59 206,60 210,63 214,65 218,68 222,70 226,69 230,65 234,62 238,61 242,64 246,67 250,71 254,73 258,71 262,70 267,68 271,69 275,67 279,67 283,66 287,64 291,64 295,66 299,69 303,73 307,76 311,77 315,77 319,79 323,82 327,86 331,89 335,91 339,91 343,91 348,91 352,91 356,92 360,91 364,91 368,91 372,92 376,92 380,92 384,92 388,92 392,92 396,92 400,92 404,92 408,92 412,92 416,92 419,92" stroke="#2963da" fill="none" stroke-width="3" stroke-linejoin="round" stroke-linecap="round" />
</svg>