<svg width="419" height="100" viewBox="0 0 419 100" xmlns="http://www.w3.org/2000/svg" xmlns:xlink="http://www.w3.org/1999/xlink"><defs>
<linearGradient id="grad" x1="0%" y1="0%" x2="0%" y2="100%">
<stop offset="0%" stop-color="#2963da" stop-opacity="0.40"/>
<stop offset="100%" stop-color="#070720" stop-opacity="0.20"/>
</linearGradient>
</defs>
<rect x="0" y="0" width="419" height="100" fill="none" />
<polygon points="0,92 4,92 8,92 12,92 16,92 20,91 24,91 28,91 32,91 37,91 41,91 45,91 49,91 54,91 58,92 62,92 66,92 70,92 74,91 78,91 82,91 86,91 91,91 95,91 99,91 103,91 107,90 111,90 115,90 119,89 123,88 127,89 132,90 136,91 140,91 144,90 148,89 152,88 156,88 160,87 164,88 168,89 172,89 176,88 181,88 185,88 189,88 193,88 197,88 201,88 206,88 210,87 214,87 218,87 222,88 226,88 230,90 234,89 238,88 243,88 247,88 251,89 255,89 259,90 263,91 267,90 271,89 275,87 279,87 283,88 287,88 291,89 295,90 299,91 304,91 308,90 312,89 316,89 320,89 324,89 328,90 332,90 336,91 340,90 344,88 348,87 353,87 357,88 361,89 365,90 369,91 373,91 377,90 381,89 385,89 389,89 393,89 397,89 401,90 405,91 409,90 413,89 417,87 419,87 419,100 0,100" fill="url(#grad)" stroke="none" />
<polyline points="0,92 4,92 8,92 12,92 16,92 20,91 24,91 28,91 32,91 37,91 41,91 45,91 49,91 54,91 58,92 62,92 66,92 70,92 74,91 78,91 82,91 86,91 91,91 95,91 99,91 103,91 107,90 111,90 115,90 119,89 123,88 127,89 132,90 136,91 140,91 144,90 148,89 152,88 156,88 160,87 164,88 168,89 172,89 176,88 181,88 185,88 189,88 193,88 197,88 201,88 206,88 210,87 214,87 218,87 222,88 226,88 230,90 234,89 238,88 243,88 247,88 251,89 255,89 259,90 263,91 267,90 271,89 275,87 279,87 283,88 287,88 291,89 295,90 299,91 304,91 308,90 312,89 316,89 320,89 324,89 328,90 332,90 336,91 340,90 344,88 348,87 353,87 357,88 361,89 365,90 369,91 373,91 377,90 381,89 385,89 389,89 393,89 397,89 401,90 405,91 409,90 413,89 417,87 419,87" stroke="#2963da" fill="none" stroke-width="3" stroke-linejoin="round" stroke-linecap="round" />
</svg>