<svg width="419" height="100" viewBox="0 0 419 100" xmlns="http://www.w3.org/2000/svg" xmlns:xlink="http://www.w3.org/1999/xlink"><defs>
<linearGradient id="grad" x1="0%" y1="0%" x2="0%" y2="100%">
<stop offset="0%" stop-color="#2963da" stop-opacity="0.40"/>
<stop offset="100%" stop-color="#070720" stop-opacity="0.20"/>
</linearGradient>
</defs>
<rect x="0" y="0" width="419" height="100" fill="none" />
<polygon points="0,91 4,92 8,92 12,90 16,91 20,92 24,92 28,92 32,91 36,90 40,89 44,89 48,90 52,89 56,90 61,89 65,89 69,89 73,88 77,88 81,88 86,87 90,87 94,86 98,84 102,80 106,77 110,73 114,70 118,67 122,70 126,74 131,77 135,80 139,84 143,87 147,89 151,89 155,90 159,90 163,90 167,89 171,89 176,90 180,89 184,89 188,88 192,89 196,89 200,89 204,89 208,88 212,88 216,87 220,87 224,87 229,85 233,85 237,83 241,82 245,85 250,88 254,88 258,89 262,90 266,89 270,85 275,82 279,85 283,88 287,89 291,90 295,90 299,90 303,90 307,89 311,89 315,87 319,87 323,86 327,86 331,85 335,83 339,78 343,74 348,68 352,65 356,65 360,69 364,73 368,76 372,80 376,83 380,84 384,86 388,86 392,86 397,86 401,87 405,87 409,87 413,88 417,89 419,89 419,100 0,100" fill="url(#grad)" stroke="none" />
<polyline points="0,91 4,92 8,92 12,90 16,91 20,92 24,92 28,92 32,91 36,90 40,89 44,89 48,90 52,89 56,90 61,89 65,89 69,89 73,88 77,88 81,88 86,87 90,87 94,86 98,84 102,80 106,77 110,73 114,70 118,67 122,70 126,74 131,77 135,80 139,84 143,87 147,89 151,89 155,90 159,90 163,90 167,89 171,89 176,90 180,89 184,89 188,88 192,89 196,89 200,89 204,89 208,88 212,88 216,87 220,87 224,87 229,85 233,85 237,83 241,82 245,85 250,88 254,88 258,89 262,90 266,89 270,85 275,82 279,85 283,88 287,89 291,90 295,90 299,90 303,90 307,89 311,89 315,87 319,87 323,86 327,86 331,85 335,83 339,78 343,74 348,68 352,65 356,65 360,69 364,73 368,76 372,80 376,83 380,84 384,86 388,86 392,86 397,86 401,87 405,87 409,87 413,88 417,89 419,89" stroke="#2963da" fill="none" stroke-width="3" stroke-linejoin="round" stroke-linecap="round" />
</svg>