<svg width="419" height="100" viewBox="0 0 419 100" xmlns="http://www.w3.org/2000/svg" xmlns:xlink="http://www.w3.org/1999/xlink"><defs>
<linearGradient id="grad" x1="0%" y1="0%" x2="0%" y2="100%">
<stop offset="0%" stop-color="#2963da" stop-opacity="0.40"/>
<stop offset="100%" stop-color="#070720" stop-opacity="0.20"/>
</linearGradient>
</defs>
<rect x="0" y="0" width="419" height="100" fill="none" />
<polygon points="0,91 4,91 8,91 12,91 16,91 20,91 24,91 28,91 32,90 36,86 40,82 44,79 48,82 52,83 56,87 60,86 64,86 68,88 72,88 76,88 80,88 84,88 88,88 93,88 97,87 101,86 105,85 109,81 113,79 117,77 121,79 125,82 129,85 133,87 137,88 141,90 145,90 149,90 153,90 157,91 161,91 165,91 169,91 173,90 178,90 182,90 186,87 190,87 194,87 198,86 202,85 206,83 210,82 214,81 218,79 222,75 226,76 230,78 234,79 238,82 242,83 246,83 250,83 254,83 258,83 263,82 267,85 271,85 275,86 279,85 283,85 287,87 291,88 295,88 299,89 303,91 307,91 311,91 315,91 319,92 323,92 327,92 331,91 335,88 339,84 344,87 348,87 352,87 356,87 360,88 364,89 368,89 372,90 376,90 380,90 384,91 388,90 392,87 396,89 400,90 404,91 408,92 412,92 416,92 419,92 419,100 0,100" fill="url(#grad)" stroke="none" />
<polyline points="0,91 4,91 8,91 12,91 16,91 20,91 24,91 28,91 32,90 36,86 40,82 44,79 48,82 52,83 56,87 60,86 64,86 68,88 72,88 76,88 80,88 84,88 88,88 93,88 97,87 101,86 105,85 109,81 113,79 117,77 121,79 125,82 129,85 133,87 137,88 141,90 145,90 149,90 153,90 157,91 161,91 165,91 169,91 173,90 178,90 182,90 186,87 190,87 194,87 198,86 202,85 206,83 210,82 214,81 218,79 222,75 226,76 230,78 234,79 238,82 242,83 246,83 250,83 254,83 258,83 263,82 267,85 271,85 275,86 279,85 283,85 287,87 291,88 295,88 299,89 303,91 307,91 311,91 315,91 319,92 323,92 327,92 331,91 335,88 339,84 344,87 348,87 352,87 356,87 360,88 364,89 368,89 372,90 376,90 380,90 384,91 388,90 392,87 396,89 400,90 404,91 408,92 412,92 416,92 419,92" stroke="#2963da" fill="none" stroke-width="3" stroke-linejoin="round" stroke-linecap="round" />
</svg>