<svg width="419" height="100" viewBox="0 0 419 100" xmlns="http://www.w3.org/2000/svg" xmlns:xlink="http://www.w3.org/1999/xlink"><defs>
<linearGradient id="grad" x1="0%" y1="0%" x2="0%" y2="100%">
<stop offset="0%" stop-color="#2963da" stop-opacity="0.40"/>
<stop offset="100%" stop-color="#070720" stop-opacity="0.20"/>
</linearGradient>
</defs>
<rect x="0" y="0" width="419" height="100" fill="none" />
<polygon points="0,92 7,92 14,92 19,92 24,92 29,92 34,92 38,92 44,92 49,92 53,92 59,92 65,92 70,92 75,92 83,92 88,92 92,92 97,92 103,92 109,92 116,92 139,91 151,91 157,91 168,91 172,91 184,91 196,91 213,91 221,91 228,91 232,91 237,91 242,92 247,92 253,92 258,92 263,92 268,92 275,92 280,92 285,92 290,92 298,91 302,92 313,92 317,92 325,92 338,92 344,92 360,92 367,92 376,92 382,92 386,92 391,92 396,92 401,92 405,92 413,92 419,92 419,100 0,100" fill="url(#grad)" stroke="none" />
<polyline points="0,92 7,92 14,92 19,92 24,92 29,92 34,92 38,92 44,92 49,92 53,92 59,92 65,92 70,92 75,92 83,92 88,92 92,92 97,92 103,92 109,92 116,92 139,91 151,91 157,91 168,91 172,91 184,91 196,91 213,91 221,91 228,91 232,91 237,91 242,92 247,92 253,92 258,92 263,92 268,92 275,92 280,92 285,92 290,92 298,91 302,92 313,92 317,92 325,92 338,92 344,92 360,92 367,92 376,92 382,92 386,92 391,92 396,92 401,92 405,92 413,92 419,92" stroke="#2963da" fill="none" stroke-width="3" stroke-linejoin="round" stroke-linecap="round" />
</svg>