<svg width="419" height="100" viewBox="0 0 419 100" xmlns="http://www.w3.org/2000/svg" xmlns:xlink="http://www.w3.org/1999/xlink"><defs>
<linearGradient id="grad" x1="0%" y1="0%" x2="0%" y2="100%">
<stop offset="0%" stop-color="#2963da" stop-opacity="0.40"/>
<stop offset="100%" stop-color="#070720" stop-opacity="0.20"/>
</linearGradient>
</defs>
<rect x="0" y="0" width="419" height="100" fill="none" />
<polygon points="0,57 4,53 8,49 12,52 16,57 20,61 24,65 28,66 32,70 36,73 40,75 44,76 48,78 53,79 57,80 62,79 66,79 70,77 74,74 78,69 82,66 86,66 90,64 94,60 98,56 102,52 106,51 111,52 115,56 119,60 123,63 127,68 131,72 136,75 140,75 144,76 148,75 153,75 157,74 161,72 165,72 169,71 173,70 178,69 182,67 186,70 190,74 194,70 198,64 202,62 206,66 210,66 214,66 220,64 224,67 228,72 232,76 236,81 241,81 245,79 249,79 253,77 257,76 261,74 265,71 270,70 274,75 278,80 282,83 286,85 290,87 294,88 298,90 303,91 307,91 311,91 315,91 319,91 324,91 328,91 332,92 336,92 340,92 344,92 348,91 352,92 356,91 361,91 365,91 369,91 373,89 377,90 382,91 386,92 390,91 394,91 398,92 403,92 407,92 411,92 415,92 419,92 419,100 0,100" fill="url(#grad)" stroke="none" />
<polyline points="0,57 4,53 8,49 12,52 16,57 20,61 24,65 28,66 32,70 36,73 40,75 44,76 48,78 53,79 57,80 62,79 66,79 70,77 74,74 78,69 82,66 86,66 90,64 94,60 98,56 102,52 106,51 111,52 115,56 119,60 123,63 127,68 131,72 136,75 140,75 144,76 148,75 153,75 157,74 161,72 165,72 169,71 173,70 178,69 182,67 186,70 190,74 194,70 198,64 202,62 206,66 210,66 214,66 220,64 224,67 228,72 232,76 236,81 241,81 245,79 249,79 253,77 257,76 261,74 265,71 270,70 274,75 278,80 282,83 286,85 290,87 294,88 298,90 303,91 307,91 311,91 315,91 319,91 324,91 328,91 332,92 336,92 340,92 344,92 348,91 352,92 356,91 361,91 365,91 369,91 373,89 377,90 382,91 386,92 390,91 394,91 398,92 403,92 407,92 411,92 415,92 419,92" stroke="#2963da" fill="none" stroke-width="3" stroke-linejoin="round" stroke-linecap="round" />
</svg>