<svg width="419" height="100" viewBox="0 0 419 100" xmlns="http://www.w3.org/2000/svg" xmlns:xlink="http://www.w3.org/1999/xlink"><defs>
<linearGradient id="grad" x1="0%" y1="0%" x2="0%" y2="100%">
<stop offset="0%" stop-color="#2963da" stop-opacity="0.40"/>
<stop offset="100%" stop-color="#070720" stop-opacity="0.20"/>
</linearGradient>
</defs>
<rect x="0" y="0" width="419" height="100" fill="none" />
<polygon points="0,92 4,92 8,92 12,92 16,92 20,92 24,91 28,92 32,92 36,92 40,90 44,89 48,91 52,92 56,92 60,90 64,90 68,91 72,92 76,92 80,92 84,92 88,92 93,92 97,92 101,92 105,92 109,92 113,92 117,92 121,92 125,92 129,91 133,92 137,92 141,92 145,90 149,90 153,91 157,92 161,92 166,90 170,90 174,91 178,92 182,92 186,92 190,92 194,92 198,92 202,92 206,92 210,92 214,92 218,92 222,92 226,92 230,92 234,91 238,92 242,92 246,92 251,90 255,90 259,91 263,92 267,92 271,90 275,90 279,91 283,92 287,92 291,92 295,92 299,92 303,92 307,92 311,92 315,92 319,92 323,92 328,92 332,92 336,92 340,91 344,92 348,92 352,92 356,91 360,90 364,92 368,92 372,92 376,90 380,90 384,91 388,92 392,92 396,92 400,92 404,92 408,92 412,92 417,92 419,92 419,100 0,100" fill="url(#grad)" stroke="none" />
<polyline points="0,92 4,92 8,92 12,92 16,92 20,92 24,91 28,92 32,92 36,92 40,90 44,89 48,91 52,92 56,92 60,90 64,90 68,91 72,92 76,92 80,92 84,92 88,92 93,92 97,92 101,92 105,92 109,92 113,92 117,92 121,92 125,92 129,91 133,92 137,92 141,92 145,90 149,90 153,91 157,92 161,92 166,90 170,90 174,91 178,92 182,92 186,92 190,92 194,92 198,92 202,92 206,92 210,92 214,92 218,92 222,92 226,92 230,92 234,91 238,92 242,92 246,92 251,90 255,90 259,91 263,92 267,92 271,90 275,90 279,91 283,92 287,92 291,92 295,92 299,92 303,92 307,92 311,92 315,92 319,92 323,92 328,92 332,92 336,92 340,91 344,92 348,92 352,92 356,91 360,90 364,92 368,92 372,92 376,90 380,90 384,91 388,92 392,92 396,92 400,92 404,92 408,92 412,92 417,92 419,92" stroke="#2963da" fill="none" stroke-width="3" stroke-linejoin="round" stroke-linecap="round" />
</svg>