<svg width="419" height="100" viewBox="0 0 419 100" xmlns="http://www.w3.org/2000/svg" xmlns:xlink="http://www.w3.org/1999/xlink"><defs>
<linearGradient id="grad" x1="0%" y1="0%" x2="0%" y2="100%">
<stop offset="0%" stop-color="#2963da" stop-opacity="0.40"/>
<stop offset="100%" stop-color="#070720" stop-opacity="0.20"/>
</linearGradient>
</defs>
<rect x="0" y="0" width="419" height="100" fill="none" />
<polygon points="0,92 5,92 9,90 14,89 18,88 22,85 26,84 30,83 34,87 38,87 42,86 46,85 51,84 55,82 60,81 64,79 68,77 72,77 76,79 80,74 84,77 88,74 93,72 97,70 101,69 105,71 109,74 113,76 118,79 122,83 127,84 131,84 135,83 139,84 143,84 148,84 152,85 156,83 160,84 164,84 168,86 173,86 177,85 182,82 186,85 190,83 194,83 198,84 203,86 207,87 211,87 215,87 219,88 224,87 228,88 232,87 236,86 240,85 244,84 248,84 252,83 256,80 261,77 265,78 269,80 273,80 277,77 281,78 285,79 289,80 294,81 298,81 303,83 308,84 312,85 316,85 320,85 326,85 330,84 336,82 340,79 344,79 348,80 352,80 356,79 360,79 365,78 369,77 373,75 377,75 381,74 386,73 390,72 394,66 398,62 402,57 406,53 410,49 414,48 418,46 419,45 419,100 0,100" fill="url(#grad)" stroke="none" />
<polyline points="0,92 5,92 9,90 14,89 18,88 22,85 26,84 30,83 34,87 38,87 42,86 46,85 51,84 55,82 60,81 64,79 68,77 72,77 76,79 80,74 84,77 88,74 93,72 97,70 101,69 105,71 109,74 113,76 118,79 122,83 127,84 131,84 135,83 139,84 143,84 148,84 152,85 156,83 160,84 164,84 168,86 173,86 177,85 182,82 186,85 190,83 194,83 198,84 203,86 207,87 211,87 215,87 219,88 224,87 228,88 232,87 236,86 240,85 244,84 248,84 252,83 256,80 261,77 265,78 269,80 273,80 277,77 281,78 285,79 289,80 294,81 298,81 303,83 308,84 312,85 316,85 320,85 326,85 330,84 336,82 340,79 344,79 348,80 352,80 356,79 360,79 365,78 369,77 373,75 377,75 381,74 386,73 390,72 394,66 398,62 402,57 406,53 410,49 414,48 418,46 419,45" stroke="#2963da" fill="none" stroke-width="3" stroke-linejoin="round" stroke-linecap="round" />
</svg>