<svg width="419" height="100" viewBox="0 0 419 100" xmlns="http://www.w3.org/2000/svg" xmlns:xlink="http://www.w3.org/1999/xlink"><defs>
<linearGradient id="grad" x1="0%" y1="0%" x2="0%" y2="100%">
<stop offset="0%" stop-color="#2963da" stop-opacity="0.40"/>
<stop offset="100%" stop-color="#070720" stop-opacity="0.20"/>
</linearGradient>
</defs>
<rect x="0" y="0" width="419" height="100" fill="none" />
<polygon points="0,88 4,89 8,88 12,88 17,88 22,87 27,88 31,88 36,88 40,88 44,89 50,89 54,89 60,89 66,88 76,88 80,89 89,89 98,90 104,90 111,90 115,90 119,89 124,89 128,89 134,89 138,90 143,90 148,90 153,90 158,90 165,91 170,91 174,91 178,91 182,91 189,92 193,91 199,91 204,92 208,92 214,92 219,92 223,92 228,92 234,92 239,92 245,92 249,92 253,91 261,92 265,92 270,91 276,91 280,92 284,91 288,91 292,91 297,91 301,91 310,91 314,90 320,90 324,90 330,90 334,89 339,89 343,89 348,89 355,89 361,89 366,89 370,89 376,89 380,89 384,88 388,87 393,85 397,81 401,76 405,71 409,66 413,61 417,60 419,59 419,100 0,100" fill="url(#grad)" stroke="none" />
<polyline points="0,88 4,89 8,88 12,88 17,88 22,87 27,88 31,88 36,88 40,88 44,89 50,89 54,89 60,89 66,88 76,88 80,89 89,89 98,90 104,90 111,90 115,90 119,89 124,89 128,89 134,89 138,90 143,90 148,90 153,90 158,90 165,91 170,91 174,91 178,91 182,91 189,92 193,91 199,91 204,92 208,92 214,92 219,92 223,92 228,92 234,92 239,92 245,92 249,92 253,91 261,92 265,92 270,91 276,91 280,92 284,91 288,91 292,91 297,91 301,91 310,91 314,90 320,90 324,90 330,90 334,89 339,89 343,89 348,89 355,89 361,89 366,89 370,89 376,89 380,89 384,88 388,87 393,85 397,81 401,76 405,71 409,66 413,61 417,60 419,59" stroke="#2963da" fill="none" stroke-width="3" stroke-linejoin="round" stroke-linecap="round" />
</svg>