<svg width="419" height="100" viewBox="0 0 419 100" xmlns="http://www.w3.org/2000/svg" xmlns:xlink="http://www.w3.org/1999/xlink"><defs>
<linearGradient id="grad" x1="0%" y1="0%" x2="0%" y2="100%">
<stop offset="0%" stop-color="#2963da" stop-opacity="0.40"/>
<stop offset="100%" stop-color="#070720" stop-opacity="0.20"/>
</linearGradient>
</defs>
<rect x="0" y="0" width="419" height="100" fill="none" />
<polygon points="0,92 4,92 8,92 12,92 16,92 20,92 24,91 29,88 33,85 37,82 41,78 45,76 49,73 53,69 57,66 61,63 65,59 69,54 74,53 78,57 82,61 86,65 90,70 94,74 99,75 103,76 107,73 111,70 115,67 119,68 123,71 128,75 132,80 136,83 140,87 144,90 148,92 152,92 156,92 161,91 165,92 169,92 174,92 178,91 184,91 189,91 193,91 197,91 201,91 205,91 209,91 213,90 217,85 222,81 226,78 230,75 234,72 238,70 242,66 246,63 250,62 254,66 258,65 263,61 267,59 271,58 275,56 279,58 283,61 287,65 291,70 295,73 300,73 304,74 308,75 312,75 316,74 320,75 324,75 329,78 333,81 337,85 341,89 345,92 349,92 353,90 357,86 361,84 365,80 370,77 374,74 378,71 382,67 386,64 391,60 395,55 399,51 403,46 407,42 411,37 415,34 419,31 419,100 0,100" fill="url(#grad)" stroke="none" />
<polyline points="0,92 4,92 8,92 12,92 16,92 20,92 24,91 29,88 33,85 37,82 41,78 45,76 49,73 53,69 57,66 61,63 65,59 69,54 74,53 78,57 82,61 86,65 90,70 94,74 99,75 103,76 107,73 111,70 115,67 119,68 123,71 128,75 132,80 136,83 140,87 144,90 148,92 152,92 156,92 161,91 165,92 169,92 174,92 178,91 184,91 189,91 193,91 197,91 201,91 205,91 209,91 213,90 217,85 222,81 226,78 230,75 234,72 238,70 242,66 246,63 250,62 254,66 258,65 263,61 267,59 271,58 275,56 279,58 283,61 287,65 291,70 295,73 300,73 304,74 308,75 312,75 316,74 320,75 324,75 329,78 333,81 337,85 341,89 345,92 349,92 353,90 357,86 361,84 365,80 370,77 374,74 378,71 382,67 386,64 391,60 395,55 399,51 403,46 407,42 411,37 415,34 419,31" stroke="#2963da" fill="none" stroke-width="3" stroke-linejoin="round" stroke-linecap="round" />
</svg>