<svg width="419" height="100" viewBox="0 0 419 100" xmlns="http://www.w3.org/2000/svg" xmlns:xlink="http://www.w3.org/1999/xlink"><defs>
<linearGradient id="grad" x1="0%" y1="0%" x2="0%" y2="100%">
<stop offset="0%" stop-color="#2963da" stop-opacity="0.40"/>
<stop offset="100%" stop-color="#070720" stop-opacity="0.20"/>
</linearGradient>
</defs>
<rect x="0" y="0" width="419" height="100" fill="none" />
<polygon points="0,92 4,92 10,92 14,92 18,92 24,92 29,92 33,91 38,91 44,91 48,91 52,90 56,91 60,91 64,90 69,89 73,90 77,90 82,91 86,91 90,91 95,90 99,90 103,90 108,91 112,91 117,91 121,91 125,91 129,91 133,91 137,91 141,91 146,91 150,90 155,91 159,91 164,90 168,89 172,88 176,87 181,88 185,89 189,88 193,90 197,89 202,89 206,89 210,90 214,88 221,89 225,88 229,88 233,89 237,89 242,89 246,89 250,88 254,87 258,87 262,86 266,86 270,85 274,83 279,79 283,77 287,75 291,76 295,78 299,76 303,76 307,79 311,81 316,83 320,84 324,84 328,83 332,86 336,86 340,87 344,86 348,87 352,86 356,86 360,83 364,82 369,76 373,75 377,78 381,82 385,84 389,87 393,87 397,88 401,87 405,84 409,83 413,80 418,76 419,74 419,100 0,100" fill="url(#grad)" stroke="none" />
<polyline points="0,92 4,92 10,92 14,92 18,92 24,92 29,92 33,91 38,91 44,91 48,91 52,90 56,91 60,91 64,90 69,89 73,90 77,90 82,91 86,91 90,91 95,90 99,90 103,90 108,91 112,91 117,91 121,91 125,91 129,91 133,91 137,91 141,91 146,91 150,90 155,91 159,91 164,90 168,89 172,88 176,87 181,88 185,89 189,88 193,90 197,89 202,89 206,89 210,90 214,88 221,89 225,88 229,88 233,89 237,89 242,89 246,89 250,88 254,87 258,87 262,86 266,86 270,85 274,83 279,79 283,77 287,75 291,76 295,78 299,76 303,76 307,79 311,81 316,83 320,84 324,84 328,83 332,86 336,86 340,87 344,86 348,87 352,86 356,86 360,83 364,82 369,76 373,75 377,78 381,82 385,84 389,87 393,87 397,88 401,87 405,84 409,83 413,80 418,76 419,74" stroke="#2963da" fill="none" stroke-width="3" stroke-linejoin="round" stroke-linecap="round" />
</svg>