<svg width="419" height="100" viewBox="0 0 419 100" xmlns="http://www.w3.org/2000/svg" xmlns:xlink="http://www.w3.org/1999/xlink"><defs>
<linearGradient id="grad" x1="0%" y1="0%" x2="0%" y2="100%">
<stop offset="0%" stop-color="#2963da" stop-opacity="0.40"/>
<stop offset="100%" stop-color="#070720" stop-opacity="0.20"/>
</linearGradient>
</defs>
<rect x="0" y="0" width="419" height="100" fill="none" />
<polygon points="0,92 4,92 9,92 14,92 19,90 24,90 28,86 32,83 36,83 40,83 45,84 49,86 54,87 58,87 62,88 66,88 71,90 76,90 80,91 85,91 89,91 93,91 97,91 102,90 106,92 111,92 115,92 121,92 125,92 134,91 139,91 145,92 149,92 153,92 157,92 162,92 167,92 172,92 176,90 181,90 185,86 190,83 194,83 198,83 202,84 207,86 211,87 216,87 220,88 224,88 229,90 234,90 238,91 242,91 247,91 251,91 255,91 260,90 264,92 269,92 273,92 278,92 283,92 292,91 297,91 303,92 307,92 311,92 315,92 319,92 324,92 329,92 334,90 339,90 343,86 347,83 352,83 356,83 360,84 364,86 369,87 373,87 378,88 382,88 387,90 391,90 396,91 400,91 404,91 410,92 415,92 419,92 419,100 0,100" fill="url(#grad)" stroke="none" />
<polyline points="0,92 4,92 9,92 14,92 19,90 24,90 28,86 32,83 36,83 40,83 45,84 49,86 54,87 58,87 62,88 66,88 71,90 76,90 80,91 85,91 89,91 93,91 97,91 102,90 106,92 111,92 115,92 121,92 125,92 134,91 139,91 145,92 149,92 153,92 157,92 162,92 167,92 172,92 176,90 181,90 185,86 190,83 194,83 198,83 202,84 207,86 211,87 216,87 220,88 224,88 229,90 234,90 238,91 242,91 247,91 251,91 255,91 260,90 264,92 269,92 273,92 278,92 283,92 292,91 297,91 303,92 307,92 311,92 315,92 319,92 324,92 329,92 334,90 339,90 343,86 347,83 352,83 356,83 360,84 364,86 369,87 373,87 378,88 382,88 387,90 391,90 396,91 400,91 404,91 410,92 415,92 419,92" stroke="#2963da" fill="none" stroke-width="3" stroke-linejoin="round" stroke-linecap="round" />
</svg>