<svg width="419" height="100" viewBox="0 0 419 100" xmlns="http://www.w3.org/2000/svg" xmlns:xlink="http://www.w3.org/1999/xlink"><defs>
<linearGradient id="grad" x1="0%" y1="0%" x2="0%" y2="100%">
<stop offset="0%" stop-color="#2963da" stop-opacity="0.40"/>
<stop offset="100%" stop-color="#070720" stop-opacity="0.20"/>
</linearGradient>
</defs>
<rect x="0" y="0" width="419" height="100" fill="none" />
<polygon points="0,76 4,75 8,75 12,76 16,77 20,77 24,78 28,79 32,81 37,83 41,84 45,85 49,86 53,86 58,86 62,86 66,86 70,87 74,85 78,88 82,87 86,88 90,85 94,85 98,88 102,89 107,89 111,89 115,90 119,90 123,90 127,91 131,91 135,91 139,92 143,92 148,92 152,92 156,92 160,92 164,92 168,92 172,90 176,90 180,90 184,89 189,90 193,92 197,91 201,90 205,90 209,90 213,89 217,88 221,88 225,88 229,88 233,89 237,90 241,92 245,92 250,92 254,91 258,92 262,91 266,90 270,91 274,91 278,91 282,91 286,91 290,91 295,91 299,90 303,90 307,90 311,90 315,90 319,89 324,86 328,85 332,87 336,88 340,85 344,86 348,89 352,86 356,85 360,85 364,86 369,87 373,87 377,87 381,87 385,87 389,85 393,88 397,89 401,89 405,89 410,90 414,90 418,90 419,90 419,100 0,100" fill="url(#grad)" stroke="none" />
<polyline points="0,76 4,75 8,75 12,76 16,77 20,77 24,78 28,79 32,81 37,83 41,84 45,85 49,86 53,86 58,86 62,86 66,86 70,87 74,85 78,88 82,87 86,88 90,85 94,85 98,88 102,89 107,89 111,89 115,90 119,90 123,90 127,91 131,91 135,91 139,92 143,92 148,92 152,92 156,92 160,92 164,92 168,92 172,90 176,90 180,90 184,89 189,90 193,92 197,91 201,90 205,90 209,90 213,89 217,88 221,88 225,88 229,88 233,89 237,90 241,92 245,92 250,92 254,91 258,92 262,91 266,90 270,91 274,91 278,91 282,91 286,91 290,91 295,91 299,90 303,90 307,90 311,90 315,90 319,89 324,86 328,85 332,87 336,88 340,85 344,86 348,89 352,86 356,85 360,85 364,86 369,87 373,87 377,87 381,87 385,87 389,85 393,88 397,89 401,89 405,89 410,90 414,90 418,90 419,90" stroke="#2963da" fill="none" stroke-width="3" stroke-linejoin="round" stroke-linecap="round" />
</svg>