<svg width="419" height="100" viewBox="0 0 419 100" xmlns="http://www.w3.org/2000/svg" xmlns:xlink="http://www.w3.org/1999/xlink"><defs>
<linearGradient id="grad" x1="0%" y1="0%" x2="0%" y2="100%">
<stop offset="0%" stop-color="#2963da" stop-opacity="0.40"/>
<stop offset="100%" stop-color="#070720" stop-opacity="0.20"/>
</linearGradient>
</defs>
<rect x="0" y="0" width="419" height="100" fill="none" />
<polygon points="0,92 4,92 8,91 12,90 16,87 20,84 24,86 28,89 33,89 37,89 41,89 45,89 49,88 54,88 58,88 62,89 66,87 70,85 74,84 78,86 83,84 87,81 91,78 95,76 99,73 103,71 107,68 111,71 115,69 119,69 123,71 127,71 132,70 136,68 140,64 144,63 148,61 152,62 156,62 160,66 164,67 168,68 172,68 176,73 181,74 185,73 189,77 193,76 197,74 201,73 205,73 209,75 213,73 217,73 221,72 226,72 230,70 234,67 238,66 242,65 246,62 250,61 254,62 258,65 262,68 267,70 271,71 275,71 279,71 283,72 287,70 291,70 295,70 300,69 304,69 308,68 312,68 316,67 320,66 324,66 328,65 333,64 337,64 341,63 345,63 349,62 354,61 358,60 362,59 366,58 370,57 374,55 378,53 382,51 387,49 391,46 395,42 399,36 403,31 407,25 411,21 415,16 419,13 419,100 0,100" fill="url(#grad)" stroke="none" />
<polyline points="0,92 4,92 8,91 12,90 16,87 20,84 24,86 28,89 33,89 37,89 41,89 45,89 49,88 54,88 58,88 62,89 66,87 70,85 74,84 78,86 83,84 87,81 91,78 95,76 99,73 103,71 107,68 111,71 115,69 119,69 123,71 127,71 132,70 136,68 140,64 144,63 148,61 152,62 156,62 160,66 164,67 168,68 172,68 176,73 181,74 185,73 189,77 193,76 197,74 201,73 205,73 209,75 213,73 217,73 221,72 226,72 230,70 234,67 238,66 242,65 246,62 250,61 254,62 258,65 262,68 267,70 271,71 275,71 279,71 283,72 287,70 291,70 295,70 300,69 304,69 308,68 312,68 316,67 320,66 324,66 328,65 333,64 337,64 341,63 345,63 349,62 354,61 358,60 362,59 366,58 370,57 374,55 378,53 382,51 387,49 391,46 395,42 399,36 403,31 407,25 411,21 415,16 419,13" stroke="#2963da" fill="none" stroke-width="3" stroke-linejoin="round" stroke-linecap="round" />
</svg>