<svg width="419" height="100" viewBox="0 0 419 100" xmlns="http://www.w3.org/2000/svg" xmlns:xlink="http://www.w3.org/1999/xlink"><defs>
<linearGradient id="grad" x1="0%" y1="0%" x2="0%" y2="100%">
<stop offset="0%" stop-color="#2963da" stop-opacity="0.40"/>
<stop offset="100%" stop-color="#070720" stop-opacity="0.20"/>
</linearGradient>
</defs>
<rect x="0" y="0" width="419" height="100" fill="none" />
<polygon points="0,77 4,78 8,78 12,78 17,76 21,74 25,73 29,71 33,70 37,68 41,67 45,66 49,63 53,60 57,65 62,70 66,71 70,72 74,73 78,73 82,74 86,75 91,74 95,74 99,72 103,68 107,66 111,68 115,71 119,71 123,71 128,69 132,69 136,66 140,68 144,71 148,70 153,70 157,71 162,74 166,80 170,83 174,85 178,84 182,81 186,77 190,76 194,74 198,74 202,75 206,76 211,78 215,78 219,78 223,81 227,84 231,85 236,84 240,84 244,84 248,82 252,84 256,85 261,87 265,88 269,88 273,87 277,86 281,87 286,89 290,90 294,90 298,91 302,92 306,92 311,91 315,89 319,88 323,88 328,91 332,91 336,90 340,89 344,87 348,92 352,89 356,88 360,86 364,83 369,81 373,80 377,83 381,84 385,84 389,86 393,85 397,87 401,91 405,88 409,89 413,87 417,85 419,85 419,100 0,100" fill="url(#grad)" stroke="none" />
<polyline points="0,77 4,78 8,78 12,78 17,76 21,74 25,73 29,71 33,70 37,68 41,67 45,66 49,63 53,60 57,65 62,70 66,71 70,72 74,73 78,73 82,74 86,75 91,74 95,74 99,72 103,68 107,66 111,68 115,71 119,71 123,71 128,69 132,69 136,66 140,68 144,71 148,70 153,70 157,71 162,74 166,80 170,83 174,85 178,84 182,81 186,77 190,76 194,74 198,74 202,75 206,76 211,78 215,78 219,78 223,81 227,84 231,85 236,84 240,84 244,84 248,82 252,84 256,85 261,87 265,88 269,88 273,87 277,86 281,87 286,89 290,90 294,90 298,91 302,92 306,92 311,91 315,89 319,88 323,88 328,91 332,91 336,90 340,89 344,87 348,92 352,89 356,88 360,86 364,83 369,81 373,80 377,83 381,84 385,84 389,86 393,85 397,87 401,91 405,88 409,89 413,87 417,85 419,85" stroke="#2963da" fill="none" stroke-width="3" stroke-linejoin="round" stroke-linecap="round" />
</svg>