<svg width="419" height="100" viewBox="0 0 419 100" xmlns="http://www.w3.org/2000/svg" xmlns:xlink="http://www.w3.org/1999/xlink"><defs>
<linearGradient id="grad" x1="0%" y1="0%" x2="0%" y2="100%">
<stop offset="0%" stop-color="#2963da" stop-opacity="0.40"/>
<stop offset="100%" stop-color="#070720" stop-opacity="0.20"/>
</linearGradient>
</defs>
<rect x="0" y="0" width="419" height="100" fill="none" />
<polygon points="0,90 4,89 8,89 12,88 17,88 21,87 25,84 29,81 33,79 38,77 42,75 46,73 50,73 54,71 59,71 63,70 67,69 71,69 75,68 79,69 83,72 87,75 92,70 96,66 100,66 104,62 109,58 113,56 117,60 121,64 125,68 129,71 133,76 137,79 141,83 146,86 151,87 155,88 159,88 163,89 167,89 171,90 176,90 180,91 184,90 188,87 192,84 196,86 200,86 205,82 209,82 213,85 217,89 221,92 225,92 229,92 234,92 238,92 242,92 246,92 250,92 254,92 258,91 262,89 266,83 271,80 275,81 279,80 283,77 287,74 291,71 295,71 299,73 303,78 307,82 311,86 315,89 319,88 324,92 328,92 332,91 336,87 340,83 344,79 348,75 352,70 356,66 360,67 364,70 369,72 373,70 377,73 381,77 385,82 389,86 393,91 397,92 402,92 406,91 410,90 414,88 418,87 419,87 419,100 0,100" fill="url(#grad)" stroke="none" />
<polyline points="0,90 4,89 8,89 12,88 17,88 21,87 25,84 29,81 33,79 38,77 42,75 46,73 50,73 54,71 59,71 63,70 67,69 71,69 75,68 79,69 83,72 87,75 92,70 96,66 100,66 104,62 109,58 113,56 117,60 121,64 125,68 129,71 133,76 137,79 141,83 146,86 151,87 155,88 159,88 163,89 167,89 171,90 176,90 180,91 184,90 188,87 192,84 196,86 200,86 205,82 209,82 213,85 217,89 221,92 225,92 229,92 234,92 238,92 242,92 246,92 250,92 254,92 258,91 262,89 266,83 271,80 275,81 279,80 283,77 287,74 291,71 295,71 299,73 303,78 307,82 311,86 315,89 319,88 324,92 328,92 332,91 336,87 340,83 344,79 348,75 352,70 356,66 360,67 364,70 369,72 373,70 377,73 381,77 385,82 389,86 393,91 397,92 402,92 406,91 410,90 414,88 418,87 419,87" stroke="#2963da" fill="none" stroke-width="3" stroke-linejoin="round" stroke-linecap="round" />
</svg>