<svg width="419" height="100" viewBox="0 0 419 100" xmlns="http://www.w3.org/2000/svg" xmlns:xlink="http://www.w3.org/1999/xlink"><defs>
<linearGradient id="grad" x1="0%" y1="0%" x2="0%" y2="100%">
<stop offset="0%" stop-color="#2963da" stop-opacity="0.40"/>
<stop offset="100%" stop-color="#070720" stop-opacity="0.20"/>
</linearGradient>
</defs>
<rect x="0" y="0" width="419" height="100" fill="none" />
<polygon points="0,90 4,92 8,91 12,90 16,87 20,86 24,86 28,86 32,88 36,88 41,88 45,88 49,88 53,88 57,88 61,88 65,88 69,89 73,89 77,88 82,89 86,89 90,89 94,88 98,89 102,88 106,88 110,88 115,88 119,87 123,87 127,85 131,84 135,83 139,81 143,80 147,78 151,75 155,72 159,69 163,68 167,67 171,66 175,63 180,63 184,62 188,66 192,69 196,72 200,75 204,79 208,81 213,82 217,84 221,85 225,86 229,87 233,88 238,89 242,89 246,89 250,91 254,90 258,90 263,90 267,90 271,90 275,90 279,89 283,90 287,89 291,88 295,88 299,89 304,88 308,88 313,88 317,88 321,88 325,87 329,86 333,83 337,84 341,85 346,89 350,90 354,91 358,92 362,92 366,90 370,90 374,91 378,89 382,90 386,89 390,89 394,90 398,88 402,88 406,89 411,89 415,92 419,91 419,100 0,100" fill="url(#grad)" stroke="none" />
<polyline points="0,90 4,92 8,91 12,90 16,87 20,86 24,86 28,86 32,88 36,88 41,88 45,88 49,88 53,88 57,88 61,88 65,88 69,89 73,89 77,88 82,89 86,89 90,89 94,88 98,89 102,88 106,88 110,88 115,88 119,87 123,87 127,85 131,84 135,83 139,81 143,80 147,78 151,75 155,72 159,69 163,68 167,67 171,66 175,63 180,63 184,62 188,66 192,69 196,72 200,75 204,79 208,81 213,82 217,84 221,85 225,86 229,87 233,88 238,89 242,89 246,89 250,91 254,90 258,90 263,90 267,90 271,90 275,90 279,89 283,90 287,89 291,88 295,88 299,89 304,88 308,88 313,88 317,88 321,88 325,87 329,86 333,83 337,84 341,85 346,89 350,90 354,91 358,92 362,92 366,90 370,90 374,91 378,89 382,90 386,89 390,89 394,90 398,88 402,88 406,89 411,89 415,92 419,91" stroke="#2963da" fill="none" stroke-width="3" stroke-linejoin="round" stroke-linecap="round" />
</svg>