<svg width="419" height="100" viewBox="0 0 419 100" xmlns="http://www.w3.org/2000/svg" xmlns:xlink="http://www.w3.org/1999/xlink"><defs>
<linearGradient id="grad" x1="0%" y1="0%" x2="0%" y2="100%">
<stop offset="0%" stop-color="#2963da" stop-opacity="0.40"/>
<stop offset="100%" stop-color="#070720" stop-opacity="0.20"/>
</linearGradient>
</defs>
<rect x="0" y="0" width="419" height="100" fill="none" />
<polygon points="0,92 4,92 8,92 12,92 16,92 20,92 24,92 28,92 32,92 36,90 40,91 44,92 49,92 53,92 57,92 61,92 65,90 69,90 73,89 77,90 81,91 85,91 89,92 93,92 97,92 102,91 106,90 110,90 114,90 118,91 122,90 126,90 130,91 134,91 138,92 143,91 147,92 151,92 155,91 159,90 163,89 167,89 171,90 175,91 179,92 183,90 187,87 191,88 195,90 200,90 204,89 208,91 212,91 216,92 220,91 224,92 228,89 232,88 236,88 240,91 245,92 249,90 253,91 257,90 261,91 265,92 269,91 273,91 277,89 281,92 285,90 289,92 293,90 297,92 301,92 305,92 310,91 314,92 318,92 322,92 326,90 330,90 334,92 338,92 342,89 346,89 350,92 355,90 359,90 363,92 367,92 371,92 375,91 379,90 383,91 388,91 392,92 396,92 400,92 404,92 408,92 412,92 416,92 419,92 419,100 0,100" fill="url(#grad)" stroke="none" />
<polyline points="0,92 4,92 8,92 12,92 16,92 20,92 24,92 28,92 32,92 36,90 40,91 44,92 49,92 53,92 57,92 61,92 65,90 69,90 73,89 77,90 81,91 85,91 89,92 93,92 97,92 102,91 106,90 110,90 114,90 118,91 122,90 126,90 130,91 134,91 138,92 143,91 147,92 151,92 155,91 159,90 163,89 167,89 171,90 175,91 179,92 183,90 187,87 191,88 195,90 200,90 204,89 208,91 212,91 216,92 220,91 224,92 228,89 232,88 236,88 240,91 245,92 249,90 253,91 257,90 261,91 265,92 269,91 273,91 277,89 281,92 285,90 289,92 293,90 297,92 301,92 305,92 310,91 314,92 318,92 322,92 326,90 330,90 334,92 338,92 342,89 346,89 350,92 355,90 359,90 363,92 367,92 371,92 375,91 379,90 383,91 388,91 392,92 396,92 400,92 404,92 408,92 412,92 416,92 419,92" stroke="#2963da" fill="none" stroke-width="3" stroke-linejoin="round" stroke-linecap="round" />
</svg>