<svg width="419" height="100" viewBox="0 0 419 100" xmlns="http://www.w3.org/2000/svg" xmlns:xlink="http://www.w3.org/1999/xlink"><defs>
<linearGradient id="grad" x1="0%" y1="0%" x2="0%" y2="100%">
<stop offset="0%" stop-color="#2963da" stop-opacity="0.40"/>
<stop offset="100%" stop-color="#070720" stop-opacity="0.20"/>
</linearGradient>
</defs>
<rect x="0" y="0" width="419" height="100" fill="none" />
<polygon points="0,92 4,91 8,91 12,92 16,92 20,90 24,87 28,85 33,86 37,89 41,89 45,92 49,92 53,92 58,92 62,92 66,92 70,92 74,92 79,91 84,91 88,91 94,91 98,89 103,88 108,85 112,85 116,85 120,81 124,79 128,77 132,77 136,78 140,77 145,80 149,83 153,86 157,84 161,81 165,78 169,78 173,79 177,81 181,81 185,83 189,82 193,83 198,84 202,80 206,78 210,75 214,74 218,72 222,73 227,76 231,76 235,78 239,79 243,80 247,81 251,82 255,83 259,84 263,85 267,84 271,85 276,85 280,86 284,86 290,86 295,87 299,87 303,85 308,83 312,82 316,85 320,84 324,84 328,86 332,89 336,90 341,89 345,89 349,88 353,84 357,84 361,86 365,85 369,84 373,83 377,81 381,80 385,76 389,74 393,74 398,69 402,63 406,56 410,50 414,47 418,43 419,42 419,100 0,100" fill="url(#grad)" stroke="none" />
<polyline points="0,92 4,91 8,91 12,92 16,92 20,90 24,87 28,85 33,86 37,89 41,89 45,92 49,92 53,92 58,92 62,92 66,92 70,92 74,92 79,91 84,91 88,91 94,91 98,89 103,88 108,85 112,85 116,85 120,81 124,79 128,77 132,77 136,78 140,77 145,80 149,83 153,86 157,84 161,81 165,78 169,78 173,79 177,81 181,81 185,83 189,82 193,83 198,84 202,80 206,78 210,75 214,74 218,72 222,73 227,76 231,76 235,78 239,79 243,80 247,81 251,82 255,83 259,84 263,85 267,84 271,85 276,85 280,86 284,86 290,86 295,87 299,87 303,85 308,83 312,82 316,85 320,84 324,84 328,86 332,89 336,90 341,89 345,89 349,88 353,84 357,84 361,86 365,85 369,84 373,83 377,81 381,80 385,76 389,74 393,74 398,69 402,63 406,56 410,50 414,47 418,43 419,42" stroke="#2963da" fill="none" stroke-width="3" stroke-linejoin="round" stroke-linecap="round" />
</svg>