<svg width="419" height="100" viewBox="0 0 419 100" xmlns="http://www.w3.org/2000/svg" xmlns:xlink="http://www.w3.org/1999/xlink"><defs>
<linearGradient id="grad" x1="0%" y1="0%" x2="0%" y2="100%">
<stop offset="0%" stop-color="#2963da" stop-opacity="0.40"/>
<stop offset="100%" stop-color="#070720" stop-opacity="0.20"/>
</linearGradient>
</defs>
<rect x="0" y="0" width="419" height="100" fill="none" />
<polygon points="0,89 4,88 8,88 12,89 16,89 20,89 24,88 28,87 32,86 36,88 40,88 44,88 48,88 52,88 56,87 60,87 64,86 68,86 72,85 76,84 80,83 84,78 88,75 93,72 97,76 101,81 105,84 109,87 113,88 117,88 121,87 125,83 129,79 133,83 137,86 141,89 145,89 149,89 153,90 157,90 161,90 165,90 170,90 174,91 178,91 182,91 186,90 190,90 194,89 198,89 202,90 206,88 210,86 214,87 218,89 222,89 226,92 230,92 234,92 238,92 242,92 246,91 250,89 255,87 259,88 263,90 267,90 271,90 275,87 279,85 283,87 287,87 291,86 295,88 299,90 303,92 307,92 311,91 315,91 319,90 323,90 327,90 331,88 335,87 340,88 344,90 348,90 352,91 356,91 360,91 364,91 368,90 372,90 376,89 380,90 384,90 388,91 392,91 396,91 400,90 404,90 408,90 412,90 416,90 419,90 419,100 0,100" fill="url(#grad)" stroke="none" />
<polyline points="0,89 4,88 8,88 12,89 16,89 20,89 24,88 28,87 32,86 36,88 40,88 44,88 48,88 52,88 56,87 60,87 64,86 68,86 72,85 76,84 80,83 84,78 88,75 93,72 97,76 101,81 105,84 109,87 113,88 117,88 121,87 125,83 129,79 133,83 137,86 141,89 145,89 149,89 153,90 157,90 161,90 165,90 170,90 174,91 178,91 182,91 186,90 190,90 194,89 198,89 202,90 206,88 210,86 214,87 218,89 222,89 226,92 230,92 234,92 238,92 242,92 246,91 250,89 255,87 259,88 263,90 267,90 271,90 275,87 279,85 283,87 287,87 291,86 295,88 299,90 303,92 307,92 311,91 315,91 319,90 323,90 327,90 331,88 335,87 340,88 344,90 348,90 352,91 356,91 360,91 364,91 368,90 372,90 376,89 380,90 384,90 388,91 392,91 396,91 400,90 404,90 408,90 412,90 416,90 419,90" stroke="#2963da" fill="none" stroke-width="3" stroke-linejoin="round" stroke-linecap="round" />
</svg>