<svg width="419" height="100" viewBox="0 0 419 100" xmlns="http://www.w3.org/2000/svg" xmlns:xlink="http://www.w3.org/1999/xlink"><defs>
<linearGradient id="grad" x1="0%" y1="0%" x2="0%" y2="100%">
<stop offset="0%" stop-color="#2963da" stop-opacity="0.40"/>
<stop offset="100%" stop-color="#070720" stop-opacity="0.20"/>
</linearGradient>
</defs>
<rect x="0" y="0" width="419" height="100" fill="none" />
<polygon points="0,89 4,89 8,89 12,89 16,89 20,89 24,90 28,90 32,90 36,89 40,90 44,90 48,90 52,89 56,90 60,90 64,90 68,90 73,90 77,90 81,90 85,90 89,91 93,91 97,92 101,91 105,91 109,92 113,92 117,92 121,92 125,92 129,92 133,92 137,92 141,92 145,92 149,92 153,92 158,92 162,92 166,92 170,92 174,91 178,92 182,91 186,91 190,91 194,89 198,90 202,90 206,90 210,90 214,90 218,90 222,90 226,90 230,86 234,82 238,78 243,81 247,84 251,88 255,90 259,90 263,90 267,90 271,90 275,90 279,87 283,85 287,84 291,82 295,83 299,82 303,81 307,78 311,74 315,71 319,73 323,76 327,80 332,83 336,82 340,81 344,82 348,82 352,83 356,87 360,85 364,82 368,82 372,83 376,85 380,88 384,89 388,89 392,89 396,89 400,86 404,85 409,86 413,89 417,89 419,89 419,100 0,100" fill="url(#grad)" stroke="none" />
<polyline points="0,89 4,89 8,89 12,89 16,89 20,89 24,90 28,90 32,90 36,89 40,90 44,90 48,90 52,89 56,90 60,90 64,90 68,90 73,90 77,90 81,90 85,90 89,91 93,91 97,92 101,91 105,91 109,92 113,92 117,92 121,92 125,92 129,92 133,92 137,92 141,92 145,92 149,92 153,92 158,92 162,92 166,92 170,92 174,91 178,92 182,91 186,91 190,91 194,89 198,90 202,90 206,90 210,90 214,90 218,90 222,90 226,90 230,86 234,82 238,78 243,81 247,84 251,88 255,90 259,90 263,90 267,90 271,90 275,90 279,87 283,85 287,84 291,82 295,83 299,82 303,81 307,78 311,74 315,71 319,73 323,76 327,80 332,83 336,82 340,81 344,82 348,82 352,83 356,87 360,85 364,82 368,82 372,83 376,85 380,88 384,89 388,89 392,89 396,89 400,86 404,85 409,86 413,89 417,89 419,89" stroke="#2963da" fill="none" stroke-width="3" stroke-linejoin="round" stroke-linecap="round" />
</svg>