<svg width="419" height="100" viewBox="0 0 419 100" xmlns="http://www.w3.org/2000/svg" xmlns:xlink="http://www.w3.org/1999/xlink"><defs>
<linearGradient id="grad" x1="0%" y1="0%" x2="0%" y2="100%">
<stop offset="0%" stop-color="#2963da" stop-opacity="0.40"/>
<stop offset="100%" stop-color="#070720" stop-opacity="0.20"/>
</linearGradient>
</defs>
<rect x="0" y="0" width="419" height="100" fill="none" />
<polygon points="0,92 4,92 8,92 12,91 16,88 20,85 24,83 28,82 32,80 37,77 41,75 45,74 49,74 53,75 57,78 61,80 65,81 69,82 73,83 78,85 82,86 86,87 90,89 94,91 98,92 102,92 106,92 110,92 114,92 119,91 123,88 127,85 131,83 135,82 139,80 143,77 147,75 151,74 155,74 160,75 164,78 168,80 172,81 176,82 180,83 184,85 188,86 192,87 196,89 201,91 205,92 209,92 213,92 217,92 221,92 225,91 229,88 233,85 237,83 242,82 246,80 250,77 254,75 258,74 262,74 266,75 270,78 274,80 278,81 282,82 287,83 291,85 295,86 299,87 303,89 307,91 311,92 315,92 319,92 323,92 327,92 332,91 336,88 340,85 344,81 348,78 352,76 356,74 361,74 365,74 369,77 373,79 377,81 381,82 385,83 389,85 393,86 397,87 402,88 406,91 410,92 414,92 418,92 419,92 419,100 0,100" fill="url(#grad)" stroke="none" />
<polyline points="0,92 4,92 8,92 12,91 16,88 20,85 24,83 28,82 32,80 37,77 41,75 45,74 49,74 53,75 57,78 61,80 65,81 69,82 73,83 78,85 82,86 86,87 90,89 94,91 98,92 102,92 106,92 110,92 114,92 119,91 123,88 127,85 131,83 135,82 139,80 143,77 147,75 151,74 155,74 160,75 164,78 168,80 172,81 176,82 180,83 184,85 188,86 192,87 196,89 201,91 205,92 209,92 213,92 217,92 221,92 225,91 229,88 233,85 237,83 242,82 246,80 250,77 254,75 258,74 262,74 266,75 270,78 274,80 278,81 282,82 287,83 291,85 295,86 299,87 303,89 307,91 311,92 315,92 319,92 323,92 327,92 332,91 336,88 340,85 344,81 348,78 352,76 356,74 361,74 365,74 369,77 373,79 377,81 381,82 385,83 389,85 393,86 397,87 402,88 406,91 410,92 414,92 418,92 419,92" stroke="#2963da" fill="none" stroke-width="3" stroke-linejoin="round" stroke-linecap="round" />
</svg>