<svg width="419" height="100" viewBox="0 0 419 100" xmlns="http://www.w3.org/2000/svg" xmlns:xlink="http://www.w3.org/1999/xlink"><defs>
<linearGradient id="grad" x1="0%" y1="0%" x2="0%" y2="100%">
<stop offset="0%" stop-color="#2963da" stop-opacity="0.40"/>
<stop offset="100%" stop-color="#070720" stop-opacity="0.20"/>
</linearGradient>
</defs>
<rect x="0" y="0" width="419" height="100" fill="none" />
<polygon points="0,92 4,92 9,92 13,92 17,91 21,91 25,91 29,90 34,90 38,89 43,89 47,89 51,88 55,88 59,85 63,83 67,83 71,84 75,83 79,83 83,81 87,81 91,82 96,81 100,81 104,81 108,82 113,83 117,83 121,82 125,83 129,83 133,84 137,83 142,81 146,78 150,79 157,79 162,78 166,78 170,78 174,77 178,78 183,79 187,79 191,81 195,81 199,80 204,81 208,82 212,82 216,82 220,82 224,80 228,79 232,76 237,77 241,78 246,78 252,78 256,78 260,78 265,77 269,76 273,78 278,78 283,79 287,79 291,79 295,80 299,80 303,80 308,81 312,80 316,81 320,82 324,82 328,82 332,81 336,80 340,78 344,75 349,78 353,78 358,79 363,78 367,78 371,78 376,77 380,76 384,78 389,78 394,79 400,79 404,80 408,80 412,80 416,81 419,81 419,100 0,100" fill="url(#grad)" stroke="none" />
<polyline points="0,92 4,92 9,92 13,92 17,91 21,91 25,91 29,90 34,90 38,89 43,89 47,89 51,88 55,88 59,85 63,83 67,83 71,84 75,83 79,83 83,81 87,81 91,82 96,81 100,81 104,81 108,82 113,83 117,83 121,82 125,83 129,83 133,84 137,83 142,81 146,78 150,79 157,79 162,78 166,78 170,78 174,77 178,78 183,79 187,79 191,81 195,81 199,80 204,81 208,82 212,82 216,82 220,82 224,80 228,79 232,76 237,77 241,78 246,78 252,78 256,78 260,78 265,77 269,76 273,78 278,78 283,79 287,79 291,79 295,80 299,80 303,80 308,81 312,80 316,81 320,82 324,82 328,82 332,81 336,80 340,78 344,75 349,78 353,78 358,79 363,78 367,78 371,78 376,77 380,76 384,78 389,78 394,79 400,79 404,80 408,80 412,80 416,81 419,81" stroke="#2963da" fill="none" stroke-width="3" stroke-linejoin="round" stroke-linecap="round" />
</svg>