<svg width="419" height="100" viewBox="0 0 419 100" xmlns="http://www.w3.org/2000/svg" xmlns:xlink="http://www.w3.org/1999/xlink"><defs>
<linearGradient id="grad" x1="0%" y1="0%" x2="0%" y2="100%">
<stop offset="0%" stop-color="#2963da" stop-opacity="0.40"/>
<stop offset="100%" stop-color="#070720" stop-opacity="0.20"/>
</linearGradient>
</defs>
<rect x="0" y="0" width="419" height="100" fill="none" />
<polygon points="0,88 4,90 8,91 12,91 16,92 20,91 24,91 28,92 32,92 36,92 40,90 44,88 49,86 53,87 57,87 61,90 65,89 69,88 74,88 78,87 82,87 86,86 90,85 94,84 98,84 102,83 106,82 111,81 115,80 119,79 123,77 127,76 131,75 135,78 139,75 143,73 147,72 152,70 156,67 160,68 164,65 168,64 172,68 176,71 180,72 185,75 189,75 193,77 197,77 201,78 205,78 209,80 213,80 218,81 222,81 226,78 230,75 234,72 238,68 242,68 246,65 250,58 254,53 258,45 262,44 266,46 270,49 274,54 278,58 282,62 287,66 291,64 295,61 299,61 303,62 307,66 311,69 315,72 319,76 323,79 327,81 331,83 335,82 339,77 343,71 347,67 351,69 355,75 359,79 363,82 367,84 372,83 376,81 380,83 384,82 388,80 392,81 396,83 400,84 404,82 408,77 412,73 416,68 419,66 419,100 0,100" fill="url(#grad)" stroke="none" />
<polyline points="0,88 4,90 8,91 12,91 16,92 20,91 24,91 28,92 32,92 36,92 40,90 44,88 49,86 53,87 57,87 61,90 65,89 69,88 74,88 78,87 82,87 86,86 90,85 94,84 98,84 102,83 106,82 111,81 115,80 119,79 123,77 127,76 131,75 135,78 139,75 143,73 147,72 152,70 156,67 160,68 164,65 168,64 172,68 176,71 180,72 185,75 189,75 193,77 197,77 201,78 205,78 209,80 213,80 218,81 222,81 226,78 230,75 234,72 238,68 242,68 246,65 250,58 254,53 258,45 262,44 266,46 270,49 274,54 278,58 282,62 287,66 291,64 295,61 299,61 303,62 307,66 311,69 315,72 319,76 323,79 327,81 331,83 335,82 339,77 343,71 347,67 351,69 355,75 359,79 363,82 367,84 372,83 376,81 380,83 384,82 388,80 392,81 396,83 400,84 404,82 408,77 412,73 416,68 419,66" stroke="#2963da" fill="none" stroke-width="3" stroke-linejoin="round" stroke-linecap="round" />
</svg>