<svg width="419" height="100" viewBox="0 0 419 100" xmlns="http://www.w3.org/2000/svg" xmlns:xlink="http://www.w3.org/1999/xlink"><defs>
<linearGradient id="grad" x1="0%" y1="0%" x2="0%" y2="100%">
<stop offset="0%" stop-color="#2963da" stop-opacity="0.40"/>
<stop offset="100%" stop-color="#070720" stop-opacity="0.20"/>
</linearGradient>
</defs>
<rect x="0" y="0" width="419" height="100" fill="none" />
<polygon points="0,92 4,90 8,92 12,92 16,91 20,91 24,91 28,90 32,92 36,92 41,91 45,90 49,88 53,87 57,84 61,82 65,81 69,82 73,83 77,87 82,87 86,88 90,88 94,88 98,90 102,91 106,91 110,91 114,91 119,90 123,90 127,91 131,91 135,91 139,91 143,90 147,90 151,89 156,89 160,88 164,91 168,92 172,92 176,92 180,92 185,91 189,88 193,84 197,83 201,81 205,77 209,79 213,82 218,84 222,87 226,92 231,92 235,92 239,92 243,92 247,91 251,86 255,83 259,79 263,76 267,74 271,70 275,70 280,73 284,74 288,76 292,78 296,80 300,81 304,79 308,80 312,82 316,86 320,90 324,91 328,86 333,82 337,84 341,85 345,86 349,87 353,85 357,78 361,76 365,76 369,79 373,83 377,87 382,83 386,84 390,88 394,91 398,90 402,86 406,80 410,78 414,77 418,74 419,73 419,100 0,100" fill="url(#grad)" stroke="none" />
<polyline points="0,92 4,90 8,92 12,92 16,91 20,91 24,91 28,90 32,92 36,92 41,91 45,90 49,88 53,87 57,84 61,82 65,81 69,82 73,83 77,87 82,87 86,88 90,88 94,88 98,90 102,91 106,91 110,91 114,91 119,90 123,90 127,91 131,91 135,91 139,91 143,90 147,90 151,89 156,89 160,88 164,91 168,92 172,92 176,92 180,92 185,91 189,88 193,84 197,83 201,81 205,77 209,79 213,82 218,84 222,87 226,92 231,92 235,92 239,92 243,92 247,91 251,86 255,83 259,79 263,76 267,74 271,70 275,70 280,73 284,74 288,76 292,78 296,80 300,81 304,79 308,80 312,82 316,86 320,90 324,91 328,86 333,82 337,84 341,85 345,86 349,87 353,85 357,78 361,76 365,76 369,79 373,83 377,87 382,83 386,84 390,88 394,91 398,90 402,86 406,80 410,78 414,77 418,74 419,73" stroke="#2963da" fill="none" stroke-width="3" stroke-linejoin="round" stroke-linecap="round" />
</svg>