<svg width="419" height="100" viewBox="0 0 419 100" xmlns="http://www.w3.org/2000/svg" xmlns:xlink="http://www.w3.org/1999/xlink"><defs>
<linearGradient id="grad" x1="0%" y1="0%" x2="0%" y2="100%">
<stop offset="0%" stop-color="#2963da" stop-opacity="0.40"/>
<stop offset="100%" stop-color="#070720" stop-opacity="0.20"/>
</linearGradient>
</defs>
<rect x="0" y="0" width="419" height="100" fill="none" />
<polygon points="0,92 4,92 8,92 12,92 16,92 20,92 24,92 29,92 33,92 37,92 41,92 46,92 50,92 54,92 58,92 63,92 67,92 71,92 75,92 80,92 84,92 88,92 93,92 98,92 102,92 106,92 111,92 115,92 119,91 127,91 133,91 139,91 144,91 148,91 153,91 158,91 162,91 167,91 171,91 176,90 181,90 185,90 189,90 194,90 199,90 203,89 209,90 213,89 218,89 223,89 227,90 232,90 241,90 249,89 255,89 259,89 267,89 271,89 276,89 280,89 286,88 290,88 294,88 298,89 303,89 307,89 311,89 316,89 328,90 342,90 346,90 350,90 354,90 360,91 365,91 369,91 373,91 377,91 382,91 387,91 392,91 396,92 401,92 405,91 410,91 414,91 418,91 419,91 419,100 0,100" fill="url(#grad)" stroke="none" />
<polyline points="0,92 4,92 8,92 12,92 16,92 20,92 24,92 29,92 33,92 37,92 41,92 46,92 50,92 54,92 58,92 63,92 67,92 71,92 75,92 80,92 84,92 88,92 93,92 98,92 102,92 106,92 111,92 115,92 119,91 127,91 133,91 139,91 144,91 148,91 153,91 158,91 162,91 167,91 171,91 176,90 181,90 185,90 189,90 194,90 199,90 203,89 209,90 213,89 218,89 223,89 227,90 232,90 241,90 249,89 255,89 259,89 267,89 271,89 276,89 280,89 286,88 290,88 294,88 298,89 303,89 307,89 311,89 316,89 328,90 342,90 346,90 350,90 354,90 360,91 365,91 369,91 373,91 377,91 382,91 387,91 392,91 396,92 401,92 405,91 410,91 414,91 418,91 419,91" stroke="#2963da" fill="none" stroke-width="3" stroke-linejoin="round" stroke-linecap="round" />
</svg>