<svg width="419" height="100" viewBox="0 0 419 100" xmlns="http://www.w3.org/2000/svg" xmlns:xlink="http://www.w3.org/1999/xlink"><defs>
<linearGradient id="grad" x1="0%" y1="0%" x2="0%" y2="100%">
<stop offset="0%" stop-color="#2963da" stop-opacity="0.40"/>
<stop offset="100%" stop-color="#070720" stop-opacity="0.20"/>
</linearGradient>
</defs>
<rect x="0" y="0" width="419" height="100" fill="none" />
<polygon points="0,92 4,92 8,92 12,92 16,92 20,92 24,91 28,92 32,92 37,92 41,92 45,91 49,91 53,91 57,90 62,89 66,90 70,90 74,90 78,90 82,91 86,91 90,91 95,92 99,92 103,92 107,92 111,92 115,92 119,92 123,92 128,92 132,92 136,92 140,92 144,92 148,92 152,92 157,92 161,92 165,91 169,91 173,91 177,91 181,91 185,91 190,91 194,91 198,91 202,91 206,90 210,90 214,90 218,90 223,89 227,89 231,89 235,89 239,89 243,88 247,88 252,88 256,87 260,87 264,86 268,86 272,85 276,85 280,85 284,84 289,83 293,83 297,83 301,85 305,88 309,88 313,88 317,88 321,89 325,88 329,88 334,88 338,89 342,88 346,89 350,88 354,89 358,89 362,89 366,88 370,84 374,86 379,87 383,85 387,78 391,74 395,77 399,82 403,86 407,87 411,89 415,88 419,89 419,100 0,100" fill="url(#grad)" stroke="none" />
<polyline points="0,92 4,92 8,92 12,92 16,92 20,92 24,91 28,92 32,92 37,92 41,92 45,91 49,91 53,91 57,90 62,89 66,90 70,90 74,90 78,90 82,91 86,91 90,91 95,92 99,92 103,92 107,92 111,92 115,92 119,92 123,92 128,92 132,92 136,92 140,92 144,92 148,92 152,92 157,92 161,92 165,91 169,91 173,91 177,91 181,91 185,91 190,91 194,91 198,91 202,91 206,90 210,90 214,90 218,90 223,89 227,89 231,89 235,89 239,89 243,88 247,88 252,88 256,87 260,87 264,86 268,86 272,85 276,85 280,85 284,84 289,83 293,83 297,83 301,85 305,88 309,88 313,88 317,88 321,89 325,88 329,88 334,88 338,89 342,88 346,89 350,88 354,89 358,89 362,89 366,88 370,84 374,86 379,87 383,85 387,78 391,74 395,77 399,82 403,86 407,87 411,89 415,88 419,89" stroke="#2963da" fill="none" stroke-width="3" stroke-linejoin="round" stroke-linecap="round" />
</svg>