<svg width="419" height="100" viewBox="0 0 419 100" xmlns="http://www.w3.org/2000/svg" xmlns:xlink="http://www.w3.org/1999/xlink"><defs>
<linearGradient id="grad" x1="0%" y1="0%" x2="0%" y2="100%">
<stop offset="0%" stop-color="#2963da" stop-opacity="0.40"/>
<stop offset="100%" stop-color="#070720" stop-opacity="0.20"/>
</linearGradient>
</defs>
<rect x="0" y="0" width="419" height="100" fill="none" />
<polygon points="0,92 4,92 8,92 12,91 16,90 20,88 24,85 28,85 32,87 36,88 40,89 45,90 49,90 53,91 57,91 61,92 65,92 69,92 73,91 77,91 81,90 85,90 89,90 93,90 97,90 101,89 105,89 110,88 114,88 118,88 122,87 126,87 130,87 134,84 138,80 142,79 146,79 150,81 154,85 158,84 163,83 167,82 171,82 175,80 179,78 183,73 187,67 191,62 195,56 199,49 203,46 207,37 211,31 215,36 220,41 224,45 228,45 232,47 236,48 240,49 244,49 248,48 252,49 256,49 260,51 264,53 268,54 273,56 277,58 281,62 285,67 289,71 293,76 297,80 301,79 305,81 309,78 313,74 317,71 321,66 326,62 330,60 334,60 338,61 342,62 346,65 350,62 354,67 358,72 362,70 366,68 370,71 374,72 379,76 383,78 387,77 391,76 395,75 399,71 403,66 407,63 411,66 415,66 419,65 419,100 0,100" fill="url(#grad)" stroke="none" />
<polyline points="0,92 4,92 8,92 12,91 16,90 20,88 24,85 28,85 32,87 36,88 40,89 45,90 49,90 53,91 57,91 61,92 65,92 69,92 73,91 77,91 81,90 85,90 89,90 93,90 97,90 101,89 105,89 110,88 114,88 118,88 122,87 126,87 130,87 134,84 138,80 142,79 146,79 150,81 154,85 158,84 163,83 167,82 171,82 175,80 179,78 183,73 187,67 191,62 195,56 199,49 203,46 207,37 211,31 215,36 220,41 224,45 228,45 232,47 236,48 240,49 244,49 248,48 252,49 256,49 260,51 264,53 268,54 273,56 277,58 281,62 285,67 289,71 293,76 297,80 301,79 305,81 309,78 313,74 317,71 321,66 326,62 330,60 334,60 338,61 342,62 346,65 350,62 354,67 358,72 362,70 366,68 370,71 374,72 379,76 383,78 387,77 391,76 395,75 399,71 403,66 407,63 411,66 415,66 419,65" stroke="#2963da" fill="none" stroke-width="3" stroke-linejoin="round" stroke-linecap="round" />
</svg>