<svg width="419" height="100" viewBox="0 0 419 100" xmlns="http://www.w3.org/2000/svg" xmlns:xlink="http://www.w3.org/1999/xlink"><defs>
<linearGradient id="grad" x1="0%" y1="0%" x2="0%" y2="100%">
<stop offset="0%" stop-color="#2963da" stop-opacity="0.40"/>
<stop offset="100%" stop-color="#070720" stop-opacity="0.20"/>
</linearGradient>
</defs>
<rect x="0" y="0" width="419" height="100" fill="none" />
<polygon points="0,92 4,92 8,92 12,92 16,92 20,92 24,92 28,92 32,92 36,92 40,92 44,91 49,90 53,89 57,90 61,88 65,84 69,80 73,75 77,71 81,70 85,67 89,67 93,69 97,68 101,64 105,59 110,54 114,51 118,54 122,56 126,56 130,56 134,55 138,59 142,62 146,64 150,65 154,67 158,70 162,73 166,77 170,81 174,82 179,82 183,79 187,76 191,71 195,68 199,69 203,65 207,66 211,68 215,73 219,76 223,77 227,79 231,79 235,80 239,80 244,76 248,72 252,68 256,63 260,59 264,57 268,60 272,61 276,65 280,71 284,75 288,79 292,82 296,82 300,83 304,84 308,84 313,85 317,86 321,85 325,82 329,79 333,80 337,77 341,74 345,76 349,80 353,85 357,88 361,87 365,87 369,86 374,86 378,82 382,78 386,72 390,71 394,66 398,62 402,58 406,55 410,56 414,56 418,57 419,56 419,100 0,100" fill="url(#grad)" stroke="none" />
<polyline points="0,92 4,92 8,92 12,92 16,92 20,92 24,92 28,92 32,92 36,92 40,92 44,91 49,90 53,89 57,90 61,88 65,84 69,80 73,75 77,71 81,70 85,67 89,67 93,69 97,68 101,64 105,59 110,54 114,51 118,54 122,56 126,56 130,56 134,55 138,59 142,62 146,64 150,65 154,67 158,70 162,73 166,77 170,81 174,82 179,82 183,79 187,76 191,71 195,68 199,69 203,65 207,66 211,68 215,73 219,76 223,77 227,79 231,79 235,80 239,80 244,76 248,72 252,68 256,63 260,59 264,57 268,60 272,61 276,65 280,71 284,75 288,79 292,82 296,82 300,83 304,84 308,84 313,85 317,86 321,85 325,82 329,79 333,80 337,77 341,74 345,76 349,80 353,85 357,88 361,87 365,87 369,86 374,86 378,82 382,78 386,72 390,71 394,66 398,62 402,58 406,55 410,56 414,56 418,57 419,56" stroke="#2963da" fill="none" stroke-width="3" stroke-linejoin="round" stroke-linecap="round" />
</svg>