<svg width="419" height="100" viewBox="0 0 419 100" xmlns="http://www.w3.org/2000/svg" xmlns:xlink="http://www.w3.org/1999/xlink"><defs>
<linearGradient id="grad" x1="0%" y1="0%" x2="0%" y2="100%">
<stop offset="0%" stop-color="#2963da" stop-opacity="0.40"/>
<stop offset="100%" stop-color="#070720" stop-opacity="0.20"/>
</linearGradient>
</defs>
<rect x="0" y="0" width="419" height="100" fill="none" />
<polygon points="0,92 4,92 8,92 12,91 16,90 20,89 24,89 28,89 33,88 37,92 41,92 45,90 49,90 53,90 57,87 61,84 65,87 69,88 73,87 78,85 82,81 86,84 90,84 94,85 98,86 103,85 107,84 111,83 115,82 119,82 123,81 127,80 131,78 135,78 139,81 144,83 148,84 152,84 156,88 160,85 164,82 168,85 172,84 176,88 180,91 184,91 188,91 192,90 196,91 200,91 204,90 208,91 213,91 217,91 221,91 225,85 229,81 233,82 237,80 241,79 245,75 249,75 253,72 257,71 261,72 266,71 270,75 274,78 278,79 282,83 286,86 290,88 294,91 298,91 302,91 306,90 310,90 314,90 318,90 322,89 326,88 330,90 334,90 338,90 343,90 347,90 351,89 355,90 359,90 363,90 367,90 371,90 375,87 379,80 383,74 387,73 391,79 395,86 400,90 404,90 408,88 412,89 416,81 419,78 419,100 0,100" fill="url(#grad)" stroke="none" />
<polyline points="0,92 4,92 8,92 12,91 16,90 20,89 24,89 28,89 33,88 37,92 41,92 45,90 49,90 53,90 57,87 61,84 65,87 69,88 73,87 78,85 82,81 86,84 90,84 94,85 98,86 103,85 107,84 111,83 115,82 119,82 123,81 127,80 131,78 135,78 139,81 144,83 148,84 152,84 156,88 160,85 164,82 168,85 172,84 176,88 180,91 184,91 188,91 192,90 196,91 200,91 204,90 208,91 213,91 217,91 221,91 225,85 229,81 233,82 237,80 241,79 245,75 249,75 253,72 257,71 261,72 266,71 270,75 274,78 278,79 282,83 286,86 290,88 294,91 298,91 302,91 306,90 310,90 314,90 318,90 322,89 326,88 330,90 334,90 338,90 343,90 347,90 351,89 355,90 359,90 363,90 367,90 371,90 375,87 379,80 383,74 387,73 391,79 395,86 400,90 404,90 408,88 412,89 416,81 419,78" stroke="#2963da" fill="none" stroke-width="3" stroke-linejoin="round" stroke-linecap="round" />
</svg>