<svg width="419" height="100" viewBox="0 0 419 100" xmlns="http://www.w3.org/2000/svg" xmlns:xlink="http://www.w3.org/1999/xlink"><defs>
<linearGradient id="grad" x1="0%" y1="0%" x2="0%" y2="100%">
<stop offset="0%" stop-color="#2963da" stop-opacity="0.40"/>
<stop offset="100%" stop-color="#070720" stop-opacity="0.20"/>
</linearGradient>
</defs>
<rect x="0" y="0" width="419" height="100" fill="none" />
<polygon points="0,88 4,88 8,88 12,88 16,88 20,90 24,89 29,90 33,91 37,91 41,92 45,92 49,92 53,92 57,92 61,92 66,92 70,92 74,92 78,90 82,89 87,87 91,89 95,89 100,89 104,89 108,89 112,90 116,90 120,88 124,88 129,88 133,86 137,84 141,80 145,81 149,82 153,85 157,87 161,86 165,86 170,85 174,83 178,83 182,82 186,79 190,80 194,78 198,75 202,74 206,71 210,73 214,68 219,62 223,58 227,58 231,57 235,54 239,54 243,61 247,67 251,71 255,75 260,79 264,85 268,88 272,88 276,88 280,88 285,88 289,87 293,87 297,86 301,86 305,85 309,85 313,84 317,84 321,84 325,83 329,76 333,69 337,62 342,55 346,48 350,41 354,34 358,27 362,20 366,24 370,29 374,32 378,37 382,43 386,47 390,46 394,45 399,43 403,41 407,37 411,32 415,27 419,24 419,100 0,100" fill="url(#grad)" stroke="none" />
<polyline points="0,88 4,88 8,88 12,88 16,88 20,90 24,89 29,90 33,91 37,91 41,92 45,92 49,92 53,92 57,92 61,92 66,92 70,92 74,92 78,90 82,89 87,87 91,89 95,89 100,89 104,89 108,89 112,90 116,90 120,88 124,88 129,88 133,86 137,84 141,80 145,81 149,82 153,85 157,87 161,86 165,86 170,85 174,83 178,83 182,82 186,79 190,80 194,78 198,75 202,74 206,71 210,73 214,68 219,62 223,58 227,58 231,57 235,54 239,54 243,61 247,67 251,71 255,75 260,79 264,85 268,88 272,88 276,88 280,88 285,88 289,87 293,87 297,86 301,86 305,85 309,85 313,84 317,84 321,84 325,83 329,76 333,69 337,62 342,55 346,48 350,41 354,34 358,27 362,20 366,24 370,29 374,32 378,37 382,43 386,47 390,46 394,45 399,43 403,41 407,37 411,32 415,27 419,24" stroke="#2963da" fill="none" stroke-width="3" stroke-linejoin="round" stroke-linecap="round" />
</svg>