<svg width="419" height="100" viewBox="0 0 419 100" xmlns="http://www.w3.org/2000/svg" xmlns:xlink="http://www.w3.org/1999/xlink"><defs>
<linearGradient id="grad" x1="0%" y1="0%" x2="0%" y2="100%">
<stop offset="0%" stop-color="#2963da" stop-opacity="0.40"/>
<stop offset="100%" stop-color="#070720" stop-opacity="0.20"/>
</linearGradient>
</defs>
<rect x="0" y="0" width="419" height="100" fill="none" />
<polygon points="0,92 4,91 8,91 12,91 16,90 20,90 24,90 28,89 32,89 37,88 41,88 45,87 49,87 53,87 57,85 62,82 66,81 70,82 74,83 78,82 82,80 86,80 90,82 94,84 99,81 104,81 108,82 112,83 116,84 120,84 125,83 129,83 133,84 137,83 141,85 145,86 149,87 153,88 157,88 161,88 165,87 170,86 176,85 182,85 186,86 190,86 194,87 198,88 203,88 207,88 211,87 215,88 219,87 224,88 229,89 233,88 237,90 242,90 247,91 251,91 255,92 260,92 264,91 270,91 274,91 278,90 282,90 288,90 292,89 296,89 301,89 305,89 309,88 314,87 318,87 323,89 330,90 334,91 339,91 346,92 351,92 355,91 360,91 364,90 370,90 375,89 380,89 385,89 389,89 393,89 400,89 405,88 410,88 414,88 419,87 419,100 0,100" fill="url(#grad)" stroke="none" />
<polyline points="0,92 4,91 8,91 12,91 16,90 20,90 24,90 28,89 32,89 37,88 41,88 45,87 49,87 53,87 57,85 62,82 66,81 70,82 74,83 78,82 82,80 86,80 90,82 94,84 99,81 104,81 108,82 112,83 116,84 120,84 125,83 129,83 133,84 137,83 141,85 145,86 149,87 153,88 157,88 161,88 165,87 170,86 176,85 182,85 186,86 190,86 194,87 198,88 203,88 207,88 211,87 215,88 219,87 224,88 229,89 233,88 237,90 242,90 247,91 251,91 255,92 260,92 264,91 270,91 274,91 278,90 282,90 288,90 292,89 296,89 301,89 305,89 309,88 314,87 318,87 323,89 330,90 334,91 339,91 346,92 351,92 355,91 360,91 364,90 370,90 375,89 380,89 385,89 389,89 393,89 400,89 405,88 410,88 414,88 419,87" stroke="#2963da" fill="none" stroke-width="3" stroke-linejoin="round" stroke-linecap="round" />
</svg>