<svg width="419" height="100" viewBox="0 0 419 100" xmlns="http://www.w3.org/2000/svg" xmlns:xlink="http://www.w3.org/1999/xlink"><defs>
<linearGradient id="grad" x1="0%" y1="0%" x2="0%" y2="100%">
<stop offset="0%" stop-color="#2963da" stop-opacity="0.40"/>
<stop offset="100%" stop-color="#070720" stop-opacity="0.20"/>
</linearGradient>
</defs>
<rect x="0" y="0" width="419" height="100" fill="none" />
<polygon points="0,92 4,92 8,92 12,92 16,89 20,87 24,86 28,88 32,91 37,91 41,90 45,90 49,89 53,89 57,89 61,85 65,81 69,83 73,82 77,84 81,85 85,81 89,82 94,84 98,81 102,77 106,75 110,78 114,78 118,80 122,82 126,84 130,85 134,86 138,86 142,86 146,86 150,83 154,79 159,83 163,84 167,84 171,85 175,86 179,86 183,85 187,84 191,84 195,84 199,83 203,82 207,82 211,81 216,82 220,83 224,83 228,83 232,79 236,75 240,74 244,75 248,75 252,71 256,70 260,74 264,72 268,73 272,77 276,77 280,74 284,76 288,78 293,79 297,78 301,78 305,77 309,76 313,75 317,74 321,73 325,70 329,67 333,65 337,61 341,57 345,59 349,57 353,53 357,57 362,62 366,63 370,66 374,69 378,70 382,71 386,71 390,70 394,69 398,68 402,65 406,60 410,54 414,49 418,45 419,45 419,100 0,100" fill="url(#grad)" stroke="none" />
<polyline points="0,92 4,92 8,92 12,92 16,89 20,87 24,86 28,88 32,91 37,91 41,90 45,90 49,89 53,89 57,89 61,85 65,81 69,83 73,82 77,84 81,85 85,81 89,82 94,84 98,81 102,77 106,75 110,78 114,78 118,80 122,82 126,84 130,85 134,86 138,86 142,86 146,86 150,83 154,79 159,83 163,84 167,84 171,85 175,86 179,86 183,85 187,84 191,84 195,84 199,83 203,82 207,82 211,81 216,82 220,83 224,83 228,83 232,79 236,75 240,74 244,75 248,75 252,71 256,70 260,74 264,72 268,73 272,77 276,77 280,74 284,76 288,78 293,79 297,78 301,78 305,77 309,76 313,75 317,74 321,73 325,70 329,67 333,65 337,61 341,57 345,59 349,57 353,53 357,57 362,62 366,63 370,66 374,69 378,70 382,71 386,71 390,70 394,69 398,68 402,65 406,60 410,54 414,49 418,45 419,45" stroke="#2963da" fill="none" stroke-width="3" stroke-linejoin="round" stroke-linecap="round" />
</svg>