<svg width="419" height="100" viewBox="0 0 419 100" xmlns="http://www.w3.org/2000/svg" xmlns:xlink="http://www.w3.org/1999/xlink"><defs>
<linearGradient id="grad" x1="0%" y1="0%" x2="0%" y2="100%">
<stop offset="0%" stop-color="#2963da" stop-opacity="0.40"/>
<stop offset="100%" stop-color="#070720" stop-opacity="0.20"/>
</linearGradient>
</defs>
<rect x="0" y="0" width="419" height="100" fill="none" />
<polygon points="0,92 4,92 8,92 12,92 16,92 21,91 25,91 29,92 33,92 37,92 41,92 45,91 49,92 53,92 57,92 61,92 65,92 70,92 74,92 78,92 82,92 87,92 91,92 95,92 99,92 103,92 107,92 112,92 116,92 120,92 124,92 129,92 133,92 137,92 141,92 145,92 149,92 153,92 157,92 161,92 165,92 170,92 174,92 178,92 182,92 186,92 190,92 195,92 199,92 203,92 207,92 211,92 215,92 219,92 223,92 227,92 231,92 235,92 239,92 243,92 248,92 252,92 256,92 260,92 264,92 268,92 273,92 277,92 281,92 285,92 289,92 293,92 297,92 301,92 305,92 310,92 314,92 318,92 322,92 326,92 330,92 334,92 338,92 342,92 346,92 350,92 355,92 359,92 363,92 367,92 372,92 376,92 380,92 384,92 388,92 392,92 396,92 400,92 404,92 408,92 413,92 417,92 419,92 419,100 0,100" fill="url(#grad)" stroke="none" />
<polyline points="0,92 4,92 8,92 12,92 16,92 21,91 25,91 29,92 33,92 37,92 41,92 45,91 49,92 53,92 57,92 61,92 65,92 70,92 74,92 78,92 82,92 87,92 91,92 95,92 99,92 103,92 107,92 112,92 116,92 120,92 124,92 129,92 133,92 137,92 141,92 145,92 149,92 153,92 157,92 161,92 165,92 170,92 174,92 178,92 182,92 186,92 190,92 195,92 199,92 203,92 207,92 211,92 215,92 219,92 223,92 227,92 231,92 235,92 239,92 243,92 248,92 252,92 256,92 260,92 264,92 268,92 273,92 277,92 281,92 285,92 289,92 293,92 297,92 301,92 305,92 310,92 314,92 318,92 322,92 326,92 330,92 334,92 338,92 342,92 346,92 350,92 355,92 359,92 363,92 367,92 372,92 376,92 380,92 384,92 388,92 392,92 396,92 400,92 404,92 408,92 413,92 417,92 419,92" stroke="#2963da" fill="none" stroke-width="3" stroke-linejoin="round" stroke-linecap="round" />
</svg>