<svg width="419" height="100" viewBox="0 0 419 100" xmlns="http://www.w3.org/2000/svg" xmlns:xlink="http://www.w3.org/1999/xlink"><defs>
<linearGradient id="grad" x1="0%" y1="0%" x2="0%" y2="100%">
<stop offset="0%" stop-color="#2963da" stop-opacity="0.40"/>
<stop offset="100%" stop-color="#070720" stop-opacity="0.20"/>
</linearGradient>
</defs>
<rect x="0" y="0" width="419" height="100" fill="none" />
<polygon points="0,92 4,92 8,92 12,92 16,92 20,92 24,92 28,92 32,92 36,92 40,92 44,92 48,92 52,92 56,92 60,92 64,92 69,92 73,92 77,92 81,92 85,92 89,92 93,92 97,92 101,92 105,92 109,92 113,92 117,92 121,92 125,92 130,92 134,92 138,92 142,91 146,92 150,92 154,92 158,92 162,92 166,92 170,92 174,92 178,92 182,92 186,92 191,92 195,92 199,91 203,91 207,91 211,91 215,91 219,91 223,91 227,91 231,92 235,92 239,91 243,92 247,92 251,92 256,92 260,92 264,92 268,91 272,91 276,91 280,91 284,92 288,91 292,92 296,92 300,92 304,92 308,92 312,92 316,91 321,92 325,92 329,91 333,92 337,92 341,92 345,92 349,92 353,91 357,91 361,92 365,92 369,92 373,92 377,92 381,92 385,92 390,92 394,91 398,91 402,92 406,92 410,92 414,92 418,92 419,92 419,100 0,100" fill="url(#grad)" stroke="none" />
<polyline points="0,92 4,92 8,92 12,92 16,92 20,92 24,92 28,92 32,92 36,92 40,92 44,92 48,92 52,92 56,92 60,92 64,92 69,92 73,92 77,92 81,92 85,92 89,92 93,92 97,92 101,92 105,92 109,92 113,92 117,92 121,92 125,92 130,92 134,92 138,92 142,91 146,92 150,92 154,92 158,92 162,92 166,92 170,92 174,92 178,92 182,92 186,92 191,92 195,92 199,91 203,91 207,91 211,91 215,91 219,91 223,91 227,91 231,92 235,92 239,91 243,92 247,92 251,92 256,92 260,92 264,92 268,91 272,91 276,91 280,91 284,92 288,91 292,92 296,92 300,92 304,92 308,92 312,92 316,91 321,92 325,92 329,91 333,92 337,92 341,92 345,92 349,92 353,91 357,91 361,92 365,92 369,92 373,92 377,92 381,92 385,92 390,92 394,91 398,91 402,92 406,92 410,92 414,92 418,92 419,92" stroke="#2963da" fill="none" stroke-width="3" stroke-linejoin="round" stroke-linecap="round" />
</svg>