<svg width="419" height="100" viewBox="0 0 419 100" xmlns="http://www.w3.org/2000/svg" xmlns:xlink="http://www.w3.org/1999/xlink"><defs>
<linearGradient id="grad" x1="0%" y1="0%" x2="0%" y2="100%">
<stop offset="0%" stop-color="#2963da" stop-opacity="0.40"/>
<stop offset="100%" stop-color="#070720" stop-opacity="0.20"/>
</linearGradient>
</defs>
<rect x="0" y="0" width="419" height="100" fill="none" />
<polygon points="0,89 4,88 8,83 12,81 16,84 20,87 24,89 28,90 32,90 36,89 40,90 44,90 48,90 52,90 56,90 60,90 64,90 68,91 72,90 77,90 81,90 85,91 89,91 93,91 97,91 101,90 105,90 109,90 113,90 117,90 121,90 125,91 129,91 133,90 137,91 141,90 145,91 149,92 153,92 158,92 162,91 166,92 170,92 174,91 178,89 182,91 186,90 190,91 194,91 198,91 202,91 206,91 210,92 214,92 218,92 222,92 226,92 230,92 235,92 239,92 243,92 247,92 251,92 255,92 259,92 263,91 267,92 271,92 275,92 279,91 283,90 287,91 291,90 295,91 299,91 303,90 307,90 311,90 316,90 320,90 324,90 328,91 332,91 336,91 340,91 344,91 348,91 352,91 356,90 360,90 364,90 368,90 372,90 376,90 380,90 384,90 388,90 392,90 397,90 401,90 405,90 409,89 413,89 417,89 419,89 419,100 0,100" fill="url(#grad)" stroke="none" />
<polyline points="0,89 4,88 8,83 12,81 16,84 20,87 24,89 28,90 32,90 36,89 40,90 44,90 48,90 52,90 56,90 60,90 64,90 68,91 72,90 77,90 81,90 85,91 89,91 93,91 97,91 101,90 105,90 109,90 113,90 117,90 121,90 125,91 129,91 133,90 137,91 141,90 145,91 149,92 153,92 158,92 162,91 166,92 170,92 174,91 178,89 182,91 186,90 190,91 194,91 198,91 202,91 206,91 210,92 214,92 218,92 222,92 226,92 230,92 235,92 239,92 243,92 247,92 251,92 255,92 259,92 263,91 267,92 271,92 275,92 279,91 283,90 287,91 291,90 295,91 299,91 303,90 307,90 311,90 316,90 320,90 324,90 328,91 332,91 336,91 340,91 344,91 348,91 352,91 356,90 360,90 364,90 368,90 372,90 376,90 380,90 384,90 388,90 392,90 397,90 401,90 405,90 409,89 413,89 417,89 419,89" stroke="#2963da" fill="none" stroke-width="3" stroke-linejoin="round" stroke-linecap="round" />
</svg>