<svg width="419" height="100" viewBox="0 0 419 100" xmlns="http://www.w3.org/2000/svg" xmlns:xlink="http://www.w3.org/1999/xlink"><defs>
<linearGradient id="grad" x1="0%" y1="0%" x2="0%" y2="100%">
<stop offset="0%" stop-color="#2963da" stop-opacity="0.40"/>
<stop offset="100%" stop-color="#070720" stop-opacity="0.20"/>
</linearGradient>
</defs>
<rect x="0" y="0" width="419" height="100" fill="none" />
<polygon points="0,89 4,89 8,88 12,89 16,89 20,89 24,89 28,88 32,89 36,88 40,88 44,88 48,88 52,88 56,88 60,88 64,88 68,88 72,89 76,88 81,88 85,88 89,88 93,88 97,88 101,88 105,87 109,88 113,88 117,88 121,88 125,88 129,88 133,88 137,88 141,88 145,88 149,88 153,88 157,88 162,88 166,88 170,88 174,88 178,88 182,88 186,88 190,88 194,88 198,88 202,88 206,88 210,88 214,88 218,88 222,88 226,88 230,88 235,88 239,88 243,89 247,88 251,88 255,89 259,89 263,89 267,89 271,89 275,89 279,89 283,89 287,89 291,89 295,89 299,89 303,90 308,90 312,90 316,90 320,90 324,90 328,90 332,91 336,91 340,91 344,91 348,91 352,91 356,91 360,91 364,92 368,92 372,92 376,92 380,92 384,92 389,92 393,92 397,92 401,92 405,92 409,92 413,92 417,92 419,92 419,100 0,100" fill="url(#grad)" stroke="none" />
<polyline points="0,89 4,89 8,88 12,89 16,89 20,89 24,89 28,88 32,89 36,88 40,88 44,88 48,88 52,88 56,88 60,88 64,88 68,88 72,89 76,88 81,88 85,88 89,88 93,88 97,88 101,88 105,87 109,88 113,88 117,88 121,88 125,88 129,88 133,88 137,88 141,88 145,88 149,88 153,88 157,88 162,88 166,88 170,88 174,88 178,88 182,88 186,88 190,88 194,88 198,88 202,88 206,88 210,88 214,88 218,88 222,88 226,88 230,88 235,88 239,88 243,89 247,88 251,88 255,89 259,89 263,89 267,89 271,89 275,89 279,89 283,89 287,89 291,89 295,89 299,89 303,90 308,90 312,90 316,90 320,90 324,90 328,90 332,91 336,91 340,91 344,91 348,91 352,91 356,91 360,91 364,92 368,92 372,92 376,92 380,92 384,92 389,92 393,92 397,92 401,92 405,92 409,92 413,92 417,92 419,92" stroke="#2963da" fill="none" stroke-width="3" stroke-linejoin="round" stroke-linecap="round" />
</svg>