<svg width="419" height="100" viewBox="0 0 419 100" xmlns="http://www.w3.org/2000/svg" xmlns:xlink="http://www.w3.org/1999/xlink"><defs>
<linearGradient id="grad" x1="0%" y1="0%" x2="0%" y2="100%">
<stop offset="0%" stop-color="#2963da" stop-opacity="0.40"/>
<stop offset="100%" stop-color="#070720" stop-opacity="0.20"/>
</linearGradient>
</defs>
<rect x="0" y="0" width="419" height="100" fill="none" />
<polygon points="0,92 4,92 8,92 12,92 16,92 20,92 24,92 29,92 33,92 37,92 41,92 45,91 49,91 53,91 57,91 61,91 65,91 70,91 74,91 78,91 82,91 86,91 90,91 94,90 98,90 102,90 106,90 111,90 115,90 119,89 123,88 127,89 131,87 136,87 140,87 144,86 148,85 152,84 156,84 160,83 165,82 169,82 173,81 177,81 181,80 185,79 189,79 193,78 198,77 202,76 206,74 210,73 214,71 218,69 222,68 226,66 230,63 235,59 239,55 243,52 247,48 251,48 255,50 259,53 263,57 267,60 271,61 275,63 279,63 284,64 288,65 292,66 296,66 300,67 304,67 309,67 313,68 317,66 321,66 325,67 329,67 333,67 337,67 341,70 345,71 349,72 354,72 358,72 362,73 366,73 370,73 374,74 378,75 383,75 387,76 391,76 395,77 399,77 403,76 407,77 412,77 416,78 419,78 419,100 0,100" fill="url(#grad)" stroke="none" />
<polyline points="0,92 4,92 8,92 12,92 16,92 20,92 24,92 29,92 33,92 37,92 41,92 45,91 49,91 53,91 57,91 61,91 65,91 70,91 74,91 78,91 82,91 86,91 90,91 94,90 98,90 102,90 106,90 111,90 115,90 119,89 123,88 127,89 131,87 136,87 140,87 144,86 148,85 152,84 156,84 160,83 165,82 169,82 173,81 177,81 181,80 185,79 189,79 193,78 198,77 202,76 206,74 210,73 214,71 218,69 222,68 226,66 230,63 235,59 239,55 243,52 247,48 251,48 255,50 259,53 263,57 267,60 271,61 275,63 279,63 284,64 288,65 292,66 296,66 300,67 304,67 309,67 313,68 317,66 321,66 325,67 329,67 333,67 337,67 341,70 345,71 349,72 354,72 358,72 362,73 366,73 370,73 374,74 378,75 383,75 387,76 391,76 395,77 399,77 403,76 407,77 412,77 416,78 419,78" stroke="#2963da" fill="none" stroke-width="3" stroke-linejoin="round" stroke-linecap="round" />
</svg>