<svg width="419" height="100" viewBox="0 0 419 100" xmlns="http://www.w3.org/2000/svg" xmlns:xlink="http://www.w3.org/1999/xlink"><defs>
<linearGradient id="grad" x1="0%" y1="0%" x2="0%" y2="100%">
<stop offset="0%" stop-color="#2963da" stop-opacity="0.40"/>
<stop offset="100%" stop-color="#070720" stop-opacity="0.20"/>
</linearGradient>
</defs>
<rect x="0" y="0" width="419" height="100" fill="none" />
<polygon points="0,92 4,92 8,92 12,92 16,91 20,91 24,90 28,90 32,92 36,92 40,92 44,92 48,91 52,91 56,89 60,89 64,91 68,92 72,91 77,91 81,89 85,88 89,86 93,88 97,90 101,92 105,91 109,90 113,91 117,92 121,92 125,92 129,92 133,92 137,91 141,88 145,85 149,83 153,81 157,78 161,76 166,76 170,78 174,81 178,84 182,85 186,86 190,89 194,91 198,92 202,92 206,92 210,92 214,91 218,91 222,92 226,90 230,88 234,86 239,89 243,90 247,91 251,92 255,92 259,92 263,92 267,92 271,92 275,91 279,92 283,92 287,92 291,92 295,92 299,92 303,92 307,91 311,91 315,90 319,91 324,92 328,92 332,92 336,92 340,92 344,92 348,92 352,92 356,92 360,90 364,88 368,85 372,82 376,80 380,80 384,80 388,82 392,83 396,84 400,86 404,89 409,92 413,92 417,92 419,92 419,100 0,100" fill="url(#grad)" stroke="none" />
<polyline points="0,92 4,92 8,92 12,92 16,91 20,91 24,90 28,90 32,92 36,92 40,92 44,92 48,91 52,91 56,89 60,89 64,91 68,92 72,91 77,91 81,89 85,88 89,86 93,88 97,90 101,92 105,91 109,90 113,91 117,92 121,92 125,92 129,92 133,92 137,91 141,88 145,85 149,83 153,81 157,78 161,76 166,76 170,78 174,81 178,84 182,85 186,86 190,89 194,91 198,92 202,92 206,92 210,92 214,91 218,91 222,92 226,90 230,88 234,86 239,89 243,90 247,91 251,92 255,92 259,92 263,92 267,92 271,92 275,91 279,92 283,92 287,92 291,92 295,92 299,92 303,92 307,91 311,91 315,90 319,91 324,92 328,92 332,92 336,92 340,92 344,92 348,92 352,92 356,92 360,90 364,88 368,85 372,82 376,80 380,80 384,80 388,82 392,83 396,84 400,86 404,89 409,92 413,92 417,92 419,92" stroke="#2963da" fill="none" stroke-width="3" stroke-linejoin="round" stroke-linecap="round" />
</svg>