<svg width="419" height="100" viewBox="0 0 419 100" xmlns="http://www.w3.org/2000/svg" xmlns:xlink="http://www.w3.org/1999/xlink"><defs>
<linearGradient id="grad" x1="0%" y1="0%" x2="0%" y2="100%">
<stop offset="0%" stop-color="#2963da" stop-opacity="0.40"/>
<stop offset="100%" stop-color="#070720" stop-opacity="0.20"/>
</linearGradient>
</defs>
<rect x="0" y="0" width="419" height="100" fill="none" />
<polygon points="0,92 4,91 8,92 12,92 16,92 20,91 24,90 28,91 32,91 36,90 40,90 44,90 48,89 52,89 57,89 61,88 65,88 69,87 73,87 77,86 81,85 85,85 89,84 94,85 98,85 102,84 106,83 110,83 114,84 119,84 123,81 127,79 131,81 135,81 139,80 143,79 147,78 151,76 155,75 159,77 164,77 168,80 172,84 176,86 180,82 184,80 188,76 192,75 196,74 200,74 204,74 208,72 213,74 217,75 221,76 225,76 229,75 233,74 237,73 241,73 245,72 249,69 253,64 257,60 261,54 265,49 269,43 273,46 277,51 282,57 286,59 290,62 294,64 298,67 302,64 306,62 310,57 314,52 318,45 322,39 326,32 330,26 334,20 338,23 342,29 346,34 350,40 354,45 358,50 363,55 367,60 371,66 375,71 379,72 383,69 387,67 391,64 395,63 399,61 403,59 407,55 411,52 415,49 419,46 419,100 0,100" fill="url(#grad)" stroke="none" />
<polyline points="0,92 4,91 8,92 12,92 16,92 20,91 24,90 28,91 32,91 36,90 40,90 44,90 48,89 52,89 57,89 61,88 65,88 69,87 73,87 77,86 81,85 85,85 89,84 94,85 98,85 102,84 106,83 110,83 114,84 119,84 123,81 127,79 131,81 135,81 139,80 143,79 147,78 151,76 155,75 159,77 164,77 168,80 172,84 176,86 180,82 184,80 188,76 192,75 196,74 200,74 204,74 208,72 213,74 217,75 221,76 225,76 229,75 233,74 237,73 241,73 245,72 249,69 253,64 257,60 261,54 265,49 269,43 273,46 277,51 282,57 286,59 290,62 294,64 298,67 302,64 306,62 310,57 314,52 318,45 322,39 326,32 330,26 334,20 338,23 342,29 346,34 350,40 354,45 358,50 363,55 367,60 371,66 375,71 379,72 383,69 387,67 391,64 395,63 399,61 403,59 407,55 411,52 415,49 419,46" stroke="#2963da" fill="none" stroke-width="3" stroke-linejoin="round" stroke-linecap="round" />
</svg>