<svg width="419" height="100" viewBox="0 0 419 100" xmlns="http://www.w3.org/2000/svg" xmlns:xlink="http://www.w3.org/1999/xlink"><defs>
<linearGradient id="grad" x1="0%" y1="0%" x2="0%" y2="100%">
<stop offset="0%" stop-color="#2963da" stop-opacity="0.40"/>
<stop offset="100%" stop-color="#070720" stop-opacity="0.20"/>
</linearGradient>
</defs>
<rect x="0" y="0" width="419" height="100" fill="none" />
<polygon points="0,89 4,89 8,88 12,89 16,89 20,89 24,89 28,89 32,89 36,89 40,89 44,90 48,90 52,91 56,91 60,91 64,91 68,91 72,91 76,91 80,90 84,90 88,90 92,89 96,89 101,90 105,90 109,90 113,91 117,91 121,92 125,92 129,92 133,92 137,92 141,92 145,92 149,92 153,92 157,92 161,91 165,90 169,90 173,90 177,90 181,91 185,90 189,91 193,92 197,92 202,90 206,90 210,91 214,90 218,89 222,89 226,88 230,88 234,89 238,90 242,90 246,90 250,89 254,88 258,88 262,87 266,87 270,88 274,89 278,89 282,88 286,88 290,88 295,89 299,88 303,88 307,88 311,88 315,88 319,88 323,89 327,88 331,89 335,89 339,90 343,90 347,90 351,90 355,90 359,90 363,90 367,90 371,89 375,88 379,91 383,90 387,90 392,90 396,90 400,90 404,89 408,90 412,91 416,90 419,90 419,100 0,100" fill="url(#grad)" stroke="none" />
<polyline points="0,89 4,89 8,88 12,89 16,89 20,89 24,89 28,89 32,89 36,89 40,89 44,90 48,90 52,91 56,91 60,91 64,91 68,91 72,91 76,91 80,90 84,90 88,90 92,89 96,89 101,90 105,90 109,90 113,91 117,91 121,92 125,92 129,92 133,92 137,92 141,92 145,92 149,92 153,92 157,92 161,91 165,90 169,90 173,90 177,90 181,91 185,90 189,91 193,92 197,92 202,90 206,90 210,91 214,90 218,89 222,89 226,88 230,88 234,89 238,90 242,90 246,90 250,89 254,88 258,88 262,87 266,87 270,88 274,89 278,89 282,88 286,88 290,88 295,89 299,88 303,88 307,88 311,88 315,88 319,88 323,89 327,88 331,89 335,89 339,90 343,90 347,90 351,90 355,90 359,90 363,90 367,90 371,89 375,88 379,91 383,90 387,90 392,90 396,90 400,90 404,89 408,90 412,91 416,90 419,90" stroke="#2963da" fill="none" stroke-width="3" stroke-linejoin="round" stroke-linecap="round" />
</svg>