<svg width="419" height="100" viewBox="0 0 419 100" xmlns="http://www.w3.org/2000/svg" xmlns:xlink="http://www.w3.org/1999/xlink"><defs>
<linearGradient id="grad" x1="0%" y1="0%" x2="0%" y2="100%">
<stop offset="0%" stop-color="#2963da" stop-opacity="0.40"/>
<stop offset="100%" stop-color="#070720" stop-opacity="0.20"/>
</linearGradient>
</defs>
<rect x="0" y="0" width="419" height="100" fill="none" />
<polygon points="0,92 4,92 10,92 14,91 18,90 22,86 26,84 30,82 35,83 39,84 43,85 47,87 51,87 56,87 60,85 64,82 68,80 72,80 76,81 80,82 84,83 89,86 93,87 97,87 101,85 106,86 110,86 114,87 119,88 123,87 127,87 132,86 136,86 140,86 144,86 149,87 153,87 157,87 161,88 168,90 172,91 178,91 182,92 186,92 190,91 195,91 200,91 204,90 210,90 214,91 219,90 223,88 228,87 236,86 240,86 244,87 249,86 253,86 257,86 261,86 266,87 270,87 274,87 278,88 284,90 288,91 292,91 296,92 301,92 305,91 310,91 314,91 318,92 323,91 327,90 331,87 335,83 339,80 343,80 348,80 352,80 357,80 361,81 365,82 370,86 375,89 379,90 383,91 389,91 393,91 397,92 401,91 405,90 410,87 414,83 418,80 419,80 419,100 0,100" fill="url(#grad)" stroke="none" />
<polyline points="0,92 4,92 10,92 14,91 18,90 22,86 26,84 30,82 35,83 39,84 43,85 47,87 51,87 56,87 60,85 64,82 68,80 72,80 76,81 80,82 84,83 89,86 93,87 97,87 101,85 106,86 110,86 114,87 119,88 123,87 127,87 132,86 136,86 140,86 144,86 149,87 153,87 157,87 161,88 168,90 172,91 178,91 182,92 186,92 190,91 195,91 200,91 204,90 210,90 214,91 219,90 223,88 228,87 236,86 240,86 244,87 249,86 253,86 257,86 261,86 266,87 270,87 274,87 278,88 284,90 288,91 292,91 296,92 301,92 305,91 310,91 314,91 318,92 323,91 327,90 331,87 335,83 339,80 343,80 348,80 352,80 357,80 361,81 365,82 370,86 375,89 379,90 383,91 389,91 393,91 397,92 401,91 405,90 410,87 414,83 418,80 419,80" stroke="#2963da" fill="none" stroke-width="3" stroke-linejoin="round" stroke-linecap="round" />
</svg>