<svg width="419" height="100" viewBox="0 0 419 100" xmlns="http://www.w3.org/2000/svg" xmlns:xlink="http://www.w3.org/1999/xlink"><defs>
<linearGradient id="grad" x1="0%" y1="0%" x2="0%" y2="100%">
<stop offset="0%" stop-color="#2963da" stop-opacity="0.40"/>
<stop offset="100%" stop-color="#070720" stop-opacity="0.20"/>
</linearGradient>
</defs>
<rect x="0" y="0" width="419" height="100" fill="none" />
<polygon points="0,89 4,90 8,90 12,92 16,92 20,92 24,91 28,92 32,92 37,92 41,92 45,92 49,92 53,92 57,92 61,92 65,92 70,92 74,92 78,89 82,86 86,82 90,78 94,74 98,70 102,67 106,65 110,64 114,61 118,60 122,58 126,57 130,55 135,55 139,59 143,64 147,68 151,74 155,79 159,83 163,86 167,84 171,89 175,90 179,90 184,89 188,88 192,88 196,88 200,85 204,83 208,80 212,76 216,71 220,67 224,67 228,68 232,64 236,64 240,65 244,66 248,67 253,71 257,77 261,71 265,67 269,68 273,70 277,67 281,65 285,65 289,66 293,66 297,66 301,64 305,63 309,69 313,69 317,69 321,66 325,65 329,65 334,67 338,66 342,64 346,64 350,63 354,61 358,59 362,59 366,59 370,59 374,57 378,52 382,54 386,57 391,56 395,54 399,52 403,49 407,44 411,39 415,34 419,31 419,100 0,100" fill="url(#grad)" stroke="none" />
<polyline points="0,89 4,90 8,90 12,92 16,92 20,92 24,91 28,92 32,92 37,92 41,92 45,92 49,92 53,92 57,92 61,92 65,92 70,92 74,92 78,89 82,86 86,82 90,78 94,74 98,70 102,67 106,65 110,64 114,61 118,60 122,58 126,57 130,55 135,55 139,59 143,64 147,68 151,74 155,79 159,83 163,86 167,84 171,89 175,90 179,90 184,89 188,88 192,88 196,88 200,85 204,83 208,80 212,76 216,71 220,67 224,67 228,68 232,64 236,64 240,65 244,66 248,67 253,71 257,77 261,71 265,67 269,68 273,70 277,67 281,65 285,65 289,66 293,66 297,66 301,64 305,63 309,69 313,69 317,69 321,66 325,65 329,65 334,67 338,66 342,64 346,64 350,63 354,61 358,59 362,59 366,59 370,59 374,57 378,52 382,54 386,57 391,56 395,54 399,52 403,49 407,44 411,39 415,34 419,31" stroke="#2963da" fill="none" stroke-width="3" stroke-linejoin="round" stroke-linecap="round" />
</svg>