<svg width="419" height="100" viewBox="0 0 419 100" xmlns="http://www.w3.org/2000/svg" xmlns:xlink="http://www.w3.org/1999/xlink"><defs>
<linearGradient id="grad" x1="0%" y1="0%" x2="0%" y2="100%">
<stop offset="0%" stop-color="#2963da" stop-opacity="0.40"/>
<stop offset="100%" stop-color="#070720" stop-opacity="0.20"/>
</linearGradient>
</defs>
<rect x="0" y="0" width="419" height="100" fill="none" />
<polygon points="0,92 4,89 8,85 12,81 16,78 20,75 24,72 28,70 32,70 36,70 40,67 44,64 48,60 52,56 56,52 60,49 64,47 68,44 72,40 76,35 80,33 85,37 89,41 93,44 97,48 101,52 105,56 109,59 113,63 117,67 121,71 125,75 129,79 133,84 137,87 141,91 146,92 150,91 154,89 158,86 162,82 166,79 170,75 174,71 178,68 182,67 186,65 190,62 194,58 198,53 202,49 207,46 211,41 215,36 219,34 223,31 227,32 231,36 235,40 239,44 243,48 247,51 251,52 255,50 259,50 263,53 267,56 271,59 275,59 279,61 283,66 288,70 292,75 296,78 300,77 304,77 308,81 312,84 316,88 320,88 324,88 328,87 332,83 336,83 341,85 345,83 349,83 353,83 357,83 361,82 365,82 369,79 373,75 377,71 381,67 385,64 389,61 393,58 397,55 401,52 406,50 410,47 414,43 418,40 419,39 419,100 0,100" fill="url(#grad)" stroke="none" />
<polyline points="0,92 4,89 8,85 12,81 16,78 20,75 24,72 28,70 32,70 36,70 40,67 44,64 48,60 52,56 56,52 60,49 64,47 68,44 72,40 76,35 80,33 85,37 89,41 93,44 97,48 101,52 105,56 109,59 113,63 117,67 121,71 125,75 129,79 133,84 137,87 141,91 146,92 150,91 154,89 158,86 162,82 166,79 170,75 174,71 178,68 182,67 186,65 190,62 194,58 198,53 202,49 207,46 211,41 215,36 219,34 223,31 227,32 231,36 235,40 239,44 243,48 247,51 251,52 255,50 259,50 263,53 267,56 271,59 275,59 279,61 283,66 288,70 292,75 296,78 300,77 304,77 308,81 312,84 316,88 320,88 324,88 328,87 332,83 336,83 341,85 345,83 349,83 353,83 357,83 361,82 365,82 369,79 373,75 377,71 381,67 385,64 389,61 393,58 397,55 401,52 406,50 410,47 414,43 418,40 419,39" stroke="#2963da" fill="none" stroke-width="3" stroke-linejoin="round" stroke-linecap="round" />
</svg>