<svg width="419" height="100" viewBox="0 0 419 100" xmlns="http://www.w3.org/2000/svg" xmlns:xlink="http://www.w3.org/1999/xlink"><defs>
<linearGradient id="grad" x1="0%" y1="0%" x2="0%" y2="100%">
<stop offset="0%" stop-color="#2963da" stop-opacity="0.40"/>
<stop offset="100%" stop-color="#070720" stop-opacity="0.20"/>
</linearGradient>
</defs>
<rect x="0" y="0" width="419" height="100" fill="none" />
<polygon points="0,91 4,91 8,91 12,91 16,92 20,92 24,91 28,92 32,91 36,89 40,90 44,90 48,91 52,90 57,91 61,90 65,91 69,90 73,90 77,90 81,90 85,89 89,89 93,90 97,89 102,90 106,90 110,89 114,89 118,89 122,88 126,88 130,88 134,87 138,88 142,88 146,88 150,88 154,88 158,89 162,88 167,89 171,89 175,89 179,89 183,90 187,89 191,89 195,90 199,91 203,91 207,90 211,90 215,90 219,90 223,90 227,91 231,92 235,92 239,92 243,92 248,92 252,92 256,92 260,92 264,92 268,92 272,92 276,92 280,92 284,92 288,92 292,92 296,92 300,92 304,92 308,92 312,92 317,92 321,91 325,92 329,91 333,91 337,91 341,91 345,91 349,91 353,92 357,92 361,92 365,92 369,92 373,92 377,91 381,91 385,91 389,91 394,91 398,92 402,92 406,92 410,92 414,91 418,92 419,92 419,100 0,100" fill="url(#grad)" stroke="none" />
<polyline points="0,91 4,91 8,91 12,91 16,92 20,92 24,91 28,92 32,91 36,89 40,90 44,90 48,91 52,90 57,91 61,90 65,91 69,90 73,90 77,90 81,90 85,89 89,89 93,90 97,89 102,90 106,90 110,89 114,89 118,89 122,88 126,88 130,88 134,87 138,88 142,88 146,88 150,88 154,88 158,89 162,88 167,89 171,89 175,89 179,89 183,90 187,89 191,89 195,90 199,91 203,91 207,90 211,90 215,90 219,90 223,90 227,91 231,92 235,92 239,92 243,92 248,92 252,92 256,92 260,92 264,92 268,92 272,92 276,92 280,92 284,92 288,92 292,92 296,92 300,92 304,92 308,92 312,92 317,92 321,91 325,92 329,91 333,91 337,91 341,91 345,91 349,91 353,92 357,92 361,92 365,92 369,92 373,92 377,91 381,91 385,91 389,91 394,91 398,92 402,92 406,92 410,92 414,91 418,92 419,92" stroke="#2963da" fill="none" stroke-width="3" stroke-linejoin="round" stroke-linecap="round" />
</svg>