<svg width="419" height="100" viewBox="0 0 419 100" xmlns="http://www.w3.org/2000/svg" xmlns:xlink="http://www.w3.org/1999/xlink"><defs>
<linearGradient id="grad" x1="0%" y1="0%" x2="0%" y2="100%">
<stop offset="0%" stop-color="#2963da" stop-opacity="0.40"/>
<stop offset="100%" stop-color="#070720" stop-opacity="0.20"/>
</linearGradient>
</defs>
<rect x="0" y="0" width="419" height="100" fill="none" />
<polygon points="0,59 4,57 8,55 12,55 16,54 20,51 24,47 28,44 32,42 36,45 40,47 44,50 48,53 52,56 56,58 60,61 64,63 68,64 73,64 77,65 81,66 85,66 89,66 93,67 97,67 101,67 105,70 109,72 113,74 117,75 121,76 125,78 129,81 133,83 137,85 141,87 146,90 150,91 154,92 158,92 162,92 166,90 170,88 174,85 178,82 182,79 186,76 190,73 194,71 198,68 202,65 206,63 210,60 214,58 218,56 222,56 227,55 231,52 235,49 239,45 243,42 247,44 251,46 255,49 259,52 263,55 267,57 271,60 275,63 279,64 283,64 287,64 291,66 295,66 299,66 304,67 308,67 312,67 316,69 320,71 324,73 328,75 332,76 336,77 340,80 344,82 348,84 352,86 357,89 361,91 365,92 369,92 373,92 377,91 381,89 385,86 389,83 393,80 397,77 401,74 405,72 409,70 413,66 417,63 419,63 419,100 0,100" fill="url(#grad)" stroke="none" />
<polyline points="0,59 4,57 8,55 12,55 16,54 20,51 24,47 28,44 32,42 36,45 40,47 44,50 48,53 52,56 56,58 60,61 64,63 68,64 73,64 77,65 81,66 85,66 89,66 93,67 97,67 101,67 105,70 109,72 113,74 117,75 121,76 125,78 129,81 133,83 137,85 141,87 146,90 150,91 154,92 158,92 162,92 166,90 170,88 174,85 178,82 182,79 186,76 190,73 194,71 198,68 202,65 206,63 210,60 214,58 218,56 222,56 227,55 231,52 235,49 239,45 243,42 247,44 251,46 255,49 259,52 263,55 267,57 271,60 275,63 279,64 283,64 287,64 291,66 295,66 299,66 304,67 308,67 312,67 316,69 320,71 324,73 328,75 332,76 336,77 340,80 344,82 348,84 352,86 357,89 361,91 365,92 369,92 373,92 377,91 381,89 385,86 389,83 393,80 397,77 401,74 405,72 409,70 413,66 417,63 419,63" stroke="#2963da" fill="none" stroke-width="3" stroke-linejoin="round" stroke-linecap="round" />
</svg>