<svg width="419" height="100" viewBox="0 0 419 100" xmlns="http://www.w3.org/2000/svg" xmlns:xlink="http://www.w3.org/1999/xlink"><defs>
<linearGradient id="grad" x1="0%" y1="0%" x2="0%" y2="100%">
<stop offset="0%" stop-color="#2963da" stop-opacity="0.40"/>
<stop offset="100%" stop-color="#070720" stop-opacity="0.20"/>
</linearGradient>
</defs>
<rect x="0" y="0" width="419" height="100" fill="none" />
<polygon points="0,90 4,91 8,92 12,90 16,85 20,84 24,80 28,75 33,70 37,66 41,65 45,67 49,71 53,70 58,70 62,72 66,77 70,81 74,81 78,81 82,81 86,80 90,74 95,70 99,67 103,66 107,65 111,61 116,62 120,62 124,62 128,64 132,68 137,73 141,78 145,83 149,87 153,89 157,91 161,91 165,91 169,91 173,92 178,91 182,91 186,92 190,92 195,92 199,92 203,92 207,91 211,90 215,92 219,90 223,86 227,86 231,81 236,77 240,78 244,80 248,79 252,79 256,80 260,83 265,83 269,82 273,82 277,82 281,80 286,75 290,68 294,67 298,71 302,74 307,73 311,74 315,77 319,79 323,79 327,83 331,89 335,92 340,92 344,92 348,92 352,92 356,92 361,92 365,92 369,92 373,92 377,92 381,92 385,92 389,92 393,92 398,90 402,91 406,92 410,92 414,92 418,92 419,92 419,100 0,100" fill="url(#grad)" stroke="none" />
<polyline points="0,90 4,91 8,92 12,90 16,85 20,84 24,80 28,75 33,70 37,66 41,65 45,67 49,71 53,70 58,70 62,72 66,77 70,81 74,81 78,81 82,81 86,80 90,74 95,70 99,67 103,66 107,65 111,61 116,62 120,62 124,62 128,64 132,68 137,73 141,78 145,83 149,87 153,89 157,91 161,91 165,91 169,91 173,92 178,91 182,91 186,92 190,92 195,92 199,92 203,92 207,91 211,90 215,92 219,90 223,86 227,86 231,81 236,77 240,78 244,80 248,79 252,79 256,80 260,83 265,83 269,82 273,82 277,82 281,80 286,75 290,68 294,67 298,71 302,74 307,73 311,74 315,77 319,79 323,79 327,83 331,89 335,92 340,92 344,92 348,92 352,92 356,92 361,92 365,92 369,92 373,92 377,92 381,92 385,92 389,92 393,92 398,90 402,91 406,92 410,92 414,92 418,92 419,92" stroke="#2963da" fill="none" stroke-width="3" stroke-linejoin="round" stroke-linecap="round" />
</svg>