<svg width="419" height="100" viewBox="0 0 419 100" xmlns="http://www.w3.org/2000/svg" xmlns:xlink="http://www.w3.org/1999/xlink"><defs>
<linearGradient id="grad" x1="0%" y1="0%" x2="0%" y2="100%">
<stop offset="0%" stop-color="#2963da" stop-opacity="0.40"/>
<stop offset="100%" stop-color="#070720" stop-opacity="0.20"/>
</linearGradient>
</defs>
<rect x="0" y="0" width="419" height="100" fill="none" />
<polygon points="0,91 4,92 8,92 12,92 16,92 20,92 24,90 28,89 32,89 36,88 40,87 44,87 48,88 52,88 56,87 60,87 64,89 68,91 72,89 76,87 80,86 84,86 89,86 93,86 97,87 101,86 105,86 109,86 113,88 117,90 121,88 125,89 129,92 133,92 137,92 141,92 145,92 149,92 153,92 157,92 161,92 165,92 170,91 174,89 178,87 182,86 186,86 190,85 194,85 198,83 202,81 206,80 210,81 214,82 218,84 222,86 226,86 230,85 234,86 238,85 242,85 247,85 251,84 255,84 259,83 263,84 267,81 271,81 275,83 279,82 283,83 287,84 291,82 295,83 299,83 303,81 307,79 311,79 315,79 319,79 323,82 328,81 332,80 336,81 340,82 344,84 348,86 352,86 356,85 360,86 364,85 368,85 372,85 376,84 380,84 384,83 388,84 392,81 396,81 401,81 405,83 409,77 413,70 417,66 419,64 419,100 0,100" fill="url(#grad)" stroke="none" />
<polyline points="0,91 4,92 8,92 12,92 16,92 20,92 24,90 28,89 32,89 36,88 40,87 44,87 48,88 52,88 56,87 60,87 64,89 68,91 72,89 76,87 80,86 84,86 89,86 93,86 97,87 101,86 105,86 109,86 113,88 117,90 121,88 125,89 129,92 133,92 137,92 141,92 145,92 149,92 153,92 157,92 161,92 165,92 170,91 174,89 178,87 182,86 186,86 190,85 194,85 198,83 202,81 206,80 210,81 214,82 218,84 222,86 226,86 230,85 234,86 238,85 242,85 247,85 251,84 255,84 259,83 263,84 267,81 271,81 275,83 279,82 283,83 287,84 291,82 295,83 299,83 303,81 307,79 311,79 315,79 319,79 323,82 328,81 332,80 336,81 340,82 344,84 348,86 352,86 356,85 360,86 364,85 368,85 372,85 376,84 380,84 384,83 388,84 392,81 396,81 401,81 405,83 409,77 413,70 417,66 419,64" stroke="#2963da" fill="none" stroke-width="3" stroke-linejoin="round" stroke-linecap="round" />
</svg>