<svg width="419" height="100" viewBox="0 0 419 100" xmlns="http://www.w3.org/2000/svg" xmlns:xlink="http://www.w3.org/1999/xlink"><defs>
<linearGradient id="grad" x1="0%" y1="0%" x2="0%" y2="100%">
<stop offset="0%" stop-color="#2963da" stop-opacity="0.40"/>
<stop offset="100%" stop-color="#070720" stop-opacity="0.20"/>
</linearGradient>
</defs>
<rect x="0" y="0" width="419" height="100" fill="none" />
<polygon points="0,89 4,89 8,89 12,88 16,87 20,88 24,87 28,87 32,86 36,87 40,87 44,87 48,87 52,86 56,83 60,81 64,78 69,73 73,75 77,76 81,80 85,88 89,91 93,92 97,92 101,92 105,92 110,86 114,86 118,92 122,92 126,92 130,92 134,92 138,88 142,86 146,87 150,90 154,89 159,90 163,89 167,88 171,83 175,76 179,69 183,65 187,62 191,62 195,64 199,71 203,78 208,83 212,85 216,86 220,83 224,79 228,74 232,76 236,82 240,86 244,88 248,89 253,88 257,87 261,87 265,86 269,81 273,78 277,71 281,65 285,60 289,61 293,61 297,61 301,60 306,56 310,54 314,61 318,67 322,71 326,75 330,81 334,83 338,84 342,85 346,86 351,81 355,75 359,70 363,62 367,62 371,64 375,67 379,72 383,77 387,82 391,87 395,89 399,90 403,90 408,90 412,88 416,89 419,91 419,100 0,100" fill="url(#grad)" stroke="none" />
<polyline points="0,89 4,89 8,89 12,88 16,87 20,88 24,87 28,87 32,86 36,87 40,87 44,87 48,87 52,86 56,83 60,81 64,78 69,73 73,75 77,76 81,80 85,88 89,91 93,92 97,92 101,92 105,92 110,86 114,86 118,92 122,92 126,92 130,92 134,92 138,88 142,86 146,87 150,90 154,89 159,90 163,89 167,88 171,83 175,76 179,69 183,65 187,62 191,62 195,64 199,71 203,78 208,83 212,85 216,86 220,83 224,79 228,74 232,76 236,82 240,86 244,88 248,89 253,88 257,87 261,87 265,86 269,81 273,78 277,71 281,65 285,60 289,61 293,61 297,61 301,60 306,56 310,54 314,61 318,67 322,71 326,75 330,81 334,83 338,84 342,85 346,86 351,81 355,75 359,70 363,62 367,62 371,64 375,67 379,72 383,77 387,82 391,87 395,89 399,90 403,90 408,90 412,88 416,89 419,91" stroke="#2963da" fill="none" stroke-width="3" stroke-linejoin="round" stroke-linecap="round" />
</svg>