<svg width="419" height="100" viewBox="0 0 419 100" xmlns="http://www.w3.org/2000/svg" xmlns:xlink="http://www.w3.org/1999/xlink"><defs>
<linearGradient id="grad" x1="0%" y1="0%" x2="0%" y2="100%">
<stop offset="0%" stop-color="#2963da" stop-opacity="0.40"/>
<stop offset="100%" stop-color="#070720" stop-opacity="0.20"/>
</linearGradient>
</defs>
<rect x="0" y="0" width="419" height="100" fill="none" />
<polygon points="0,89 4,86 8,86 12,86 16,88 20,89 24,91 28,91 32,91 36,91 40,91 44,90 48,89 52,87 56,86 60,83 64,80 69,79 73,78 77,76 81,77 85,78 89,78 93,77 97,76 101,73 105,73 109,70 113,69 117,66 121,66 126,64 130,59 134,57 138,62 142,68 146,72 150,77 154,77 158,78 162,82 166,87 170,89 174,89 178,89 182,89 186,87 191,85 195,83 199,82 203,80 207,78 211,76 215,77 219,79 223,83 227,85 232,85 236,85 240,86 244,84 248,86 252,89 256,89 260,90 264,90 268,89 272,88 276,88 281,86 285,86 289,84 293,83 297,83 301,82 305,82 309,82 313,82 317,83 321,82 325,81 329,81 333,80 337,78 341,79 345,79 350,80 354,81 358,82 362,82 366,83 370,83 374,83 378,83 382,86 386,85 390,87 394,91 398,92 402,92 407,92 411,90 415,88 419,89 419,100 0,100" fill="url(#grad)" stroke="none" />
<polyline points="0,89 4,86 8,86 12,86 16,88 20,89 24,91 28,91 32,91 36,91 40,91 44,90 48,89 52,87 56,86 60,83 64,80 69,79 73,78 77,76 81,77 85,78 89,78 93,77 97,76 101,73 105,73 109,70 113,69 117,66 121,66 126,64 130,59 134,57 138,62 142,68 146,72 150,77 154,77 158,78 162,82 166,87 170,89 174,89 178,89 182,89 186,87 191,85 195,83 199,82 203,80 207,78 211,76 215,77 219,79 223,83 227,85 232,85 236,85 240,86 244,84 248,86 252,89 256,89 260,90 264,90 268,89 272,88 276,88 281,86 285,86 289,84 293,83 297,83 301,82 305,82 309,82 313,82 317,83 321,82 325,81 329,81 333,80 337,78 341,79 345,79 350,80 354,81 358,82 362,82 366,83 370,83 374,83 378,83 382,86 386,85 390,87 394,91 398,92 402,92 407,92 411,90 415,88 419,89" stroke="#2963da" fill="none" stroke-width="3" stroke-linejoin="round" stroke-linecap="round" />
</svg>