<svg width="419" height="100" viewBox="0 0 419 100" xmlns="http://www.w3.org/2000/svg" xmlns:xlink="http://www.w3.org/1999/xlink"><defs>
<linearGradient id="grad" x1="0%" y1="0%" x2="0%" y2="100%">
<stop offset="0%" stop-color="#2963da" stop-opacity="0.40"/>
<stop offset="100%" stop-color="#070720" stop-opacity="0.20"/>
</linearGradient>
</defs>
<rect x="0" y="0" width="419" height="100" fill="none" />
<polygon points="0,92 4,92 8,92 12,92 16,91 20,92 24,92 28,92 32,92 36,92 40,92 44,92 49,92 53,92 57,92 61,92 65,91 69,91 73,91 77,90 81,89 85,89 89,89 93,89 97,87 101,89 105,91 109,92 113,92 118,91 122,88 126,88 130,89 134,88 138,88 142,89 146,86 150,84 154,83 158,84 162,84 166,86 170,89 175,89 179,89 183,89 187,88 191,88 195,87 199,84 203,82 207,81 212,80 216,79 220,77 224,76 228,75 232,74 236,71 240,69 244,66 248,63 252,61 256,58 260,55 264,53 268,51 272,53 276,56 280,59 285,62 289,65 293,68 297,70 301,70 305,67 309,65 313,62 317,59 321,57 325,60 329,63 333,66 337,69 341,72 345,75 349,79 353,81 357,80 361,81 365,79 369,76 374,74 378,72 382,73 386,73 390,72 394,72 398,74 402,77 406,80 410,83 414,84 419,84 419,100 0,100" fill="url(#grad)" stroke="none" />
<polyline points="0,92 4,92 8,92 12,92 16,91 20,92 24,92 28,92 32,92 36,92 40,92 44,92 49,92 53,92 57,92 61,92 65,91 69,91 73,91 77,90 81,89 85,89 89,89 93,89 97,87 101,89 105,91 109,92 113,92 118,91 122,88 126,88 130,89 134,88 138,88 142,89 146,86 150,84 154,83 158,84 162,84 166,86 170,89 175,89 179,89 183,89 187,88 191,88 195,87 199,84 203,82 207,81 212,80 216,79 220,77 224,76 228,75 232,74 236,71 240,69 244,66 248,63 252,61 256,58 260,55 264,53 268,51 272,53 276,56 280,59 285,62 289,65 293,68 297,70 301,70 305,67 309,65 313,62 317,59 321,57 325,60 329,63 333,66 337,69 341,72 345,75 349,79 353,81 357,80 361,81 365,79 369,76 374,74 378,72 382,73 386,73 390,72 394,72 398,74 402,77 406,80 410,83 414,84 419,84" stroke="#2963da" fill="none" stroke-width="3" stroke-linejoin="round" stroke-linecap="round" />
</svg>