<svg width="419" height="100" viewBox="0 0 419 100" xmlns="http://www.w3.org/2000/svg" xmlns:xlink="http://www.w3.org/1999/xlink"><defs>
<linearGradient id="grad" x1="0%" y1="0%" x2="0%" y2="100%">
<stop offset="0%" stop-color="#2963da" stop-opacity="0.40"/>
<stop offset="100%" stop-color="#070720" stop-opacity="0.20"/>
</linearGradient>
</defs>
<rect x="0" y="0" width="419" height="100" fill="none" />
<polygon points="0,68 4,70 8,72 12,75 16,76 20,74 24,71 28,68 32,67 36,68 40,67 44,63 49,65 53,64 57,62 61,64 65,68 69,67 73,70 77,69 81,66 85,67 89,69 94,71 98,71 102,71 106,73 111,75 115,80 119,78 123,75 127,74 131,73 135,75 139,78 144,76 148,76 152,77 156,78 160,80 164,78 168,80 172,85 176,82 180,79 184,81 188,85 192,82 197,82 201,82 205,85 209,87 213,83 217,81 221,80 225,82 229,83 233,85 237,88 242,89 246,89 250,89 254,89 258,90 262,90 266,90 270,89 275,90 279,90 283,90 288,91 292,92 296,91 300,89 304,88 309,88 313,88 317,88 321,88 325,90 330,92 335,92 340,92 344,92 348,91 352,91 356,91 360,91 365,91 369,91 373,92 377,91 381,92 385,92 390,91 394,91 399,92 403,92 407,92 411,92 415,92 419,92 419,100 0,100" fill="url(#grad)" stroke="none" />
<polyline points="0,68 4,70 8,72 12,75 16,76 20,74 24,71 28,68 32,67 36,68 40,67 44,63 49,65 53,64 57,62 61,64 65,68 69,67 73,70 77,69 81,66 85,67 89,69 94,71 98,71 102,71 106,73 111,75 115,80 119,78 123,75 127,74 131,73 135,75 139,78 144,76 148,76 152,77 156,78 160,80 164,78 168,80 172,85 176,82 180,79 184,81 188,85 192,82 197,82 201,82 205,85 209,87 213,83 217,81 221,80 225,82 229,83 233,85 237,88 242,89 246,89 250,89 254,89 258,90 262,90 266,90 270,89 275,90 279,90 283,90 288,91 292,92 296,91 300,89 304,88 309,88 313,88 317,88 321,88 325,90 330,92 335,92 340,92 344,92 348,91 352,91 356,91 360,91 365,91 369,91 373,92 377,91 381,92 385,92 390,91 394,91 399,92 403,92 407,92 411,92 415,92 419,92" stroke="#2963da" fill="none" stroke-width="3" stroke-linejoin="round" stroke-linecap="round" />
</svg>