<svg width="419" height="100" viewBox="0 0 419 100" xmlns="http://www.w3.org/2000/svg" xmlns:xlink="http://www.w3.org/1999/xlink"><defs>
<linearGradient id="grad" x1="0%" y1="0%" x2="0%" y2="100%">
<stop offset="0%" stop-color="#2963da" stop-opacity="0.40"/>
<stop offset="100%" stop-color="#070720" stop-opacity="0.20"/>
</linearGradient>
</defs>
<rect x="0" y="0" width="419" height="100" fill="none" />
<polygon points="0,91 4,91 8,91 12,91 16,92 21,92 25,92 29,92 33,92 37,92 41,92 45,92 49,92 53,92 58,92 62,92 66,91 70,91 74,90 78,91 82,91 86,92 90,91 94,91 98,91 102,91 107,91 111,90 115,91 119,91 124,90 128,90 132,90 136,89 140,90 144,91 148,91 152,91 156,91 160,91 164,91 168,91 173,91 177,92 181,92 185,92 189,92 194,92 198,92 202,92 206,91 210,90 214,90 218,92 222,90 226,90 230,91 234,91 239,92 243,90 247,91 251,89 255,89 259,90 263,89 267,90 271,91 276,91 280,92 284,90 288,90 292,92 296,92 301,92 305,90 309,92 313,91 317,91 321,91 325,90 329,90 333,89 337,89 341,90 346,90 350,88 354,88 358,88 362,89 366,92 370,92 374,90 378,88 383,91 387,91 391,92 395,92 399,92 403,92 407,92 411,92 415,92 419,92 419,100 0,100" fill="url(#grad)" stroke="none" />
<polyline points="0,91 4,91 8,91 12,91 16,92 21,92 25,92 29,92 33,92 37,92 41,92 45,92 49,92 53,92 58,92 62,92 66,91 70,91 74,90 78,91 82,91 86,92 90,91 94,91 98,91 102,91 107,91 111,90 115,91 119,91 124,90 128,90 132,90 136,89 140,90 144,91 148,91 152,91 156,91 160,91 164,91 168,91 173,91 177,92 181,92 185,92 189,92 194,92 198,92 202,92 206,91 210,90 214,90 218,92 222,90 226,90 230,91 234,91 239,92 243,90 247,91 251,89 255,89 259,90 263,89 267,90 271,91 276,91 280,92 284,90 288,90 292,92 296,92 301,92 305,90 309,92 313,91 317,91 321,91 325,90 329,90 333,89 337,89 341,90 346,90 350,88 354,88 358,88 362,89 366,92 370,92 374,90 378,88 383,91 387,91 391,92 395,92 399,92 403,92 407,92 411,92 415,92 419,92" stroke="#2963da" fill="none" stroke-width="3" stroke-linejoin="round" stroke-linecap="round" />
</svg>