<svg width="419" height="100" viewBox="0 0 419 100" xmlns="http://www.w3.org/2000/svg" xmlns:xlink="http://www.w3.org/1999/xlink"><defs>
<linearGradient id="grad" x1="0%" y1="0%" x2="0%" y2="100%">
<stop offset="0%" stop-color="#2963da" stop-opacity="0.40"/>
<stop offset="100%" stop-color="#070720" stop-opacity="0.20"/>
</linearGradient>
</defs>
<rect x="0" y="0" width="419" height="100" fill="none" />
<polygon points="0,80 4,82 8,86 12,88 16,87 20,86 24,82 28,79 32,82 36,86 40,88 44,90 48,91 52,88 56,90 60,91 64,92 68,91 72,90 76,92 80,92 84,91 89,91 93,92 97,91 101,90 105,90 109,89 113,87 117,84 121,79 125,79 129,79 133,82 137,84 141,89 145,88 149,87 153,86 157,81 161,79 165,83 169,86 174,88 178,90 182,90 186,88 190,90 194,91 198,92 202,91 206,90 210,92 214,92 218,91 222,92 226,92 230,91 234,90 238,90 242,88 246,87 250,83 254,79 258,80 262,80 267,82 271,85 275,88 279,88 283,87 287,86 291,81 295,80 299,83 303,86 307,88 311,90 315,90 319,88 323,90 327,91 331,92 335,91 339,90 343,92 347,92 352,91 356,92 360,92 364,90 368,90 372,90 376,88 380,87 384,82 388,79 392,79 396,80 400,83 404,85 408,88 412,86 416,82 419,82 419,100 0,100" fill="url(#grad)" stroke="none" />
<polyline points="0,80 4,82 8,86 12,88 16,87 20,86 24,82 28,79 32,82 36,86 40,88 44,90 48,91 52,88 56,90 60,91 64,92 68,91 72,90 76,92 80,92 84,91 89,91 93,92 97,91 101,90 105,90 109,89 113,87 117,84 121,79 125,79 129,79 133,82 137,84 141,89 145,88 149,87 153,86 157,81 161,79 165,83 169,86 174,88 178,90 182,90 186,88 190,90 194,91 198,92 202,91 206,90 210,92 214,92 218,91 222,92 226,92 230,91 234,90 238,90 242,88 246,87 250,83 254,79 258,80 262,80 267,82 271,85 275,88 279,88 283,87 287,86 291,81 295,80 299,83 303,86 307,88 311,90 315,90 319,88 323,90 327,91 331,92 335,91 339,90 343,92 347,92 352,91 356,92 360,92 364,90 368,90 372,90 376,88 380,87 384,82 388,79 392,79 396,80 400,83 404,85 408,88 412,86 416,82 419,82" stroke="#2963da" fill="none" stroke-width="3" stroke-linejoin="round" stroke-linecap="round" />
</svg>