<svg width="419" height="100" viewBox="0 0 419 100" xmlns="http://www.w3.org/2000/svg" xmlns:xlink="http://www.w3.org/1999/xlink"><defs>
<linearGradient id="grad" x1="0%" y1="0%" x2="0%" y2="100%">
<stop offset="0%" stop-color="#2963da" stop-opacity="0.40"/>
<stop offset="100%" stop-color="#070720" stop-opacity="0.20"/>
</linearGradient>
</defs>
<rect x="0" y="0" width="419" height="100" fill="none" />
<polygon points="0,92 4,92 8,92 12,92 16,92 20,92 24,92 28,92 32,92 36,92 40,92 44,92 48,92 52,92 56,92 60,92 64,92 68,92 72,92 76,92 80,91 84,91 89,92 93,90 97,91 101,91 105,92 109,92 113,92 117,92 121,92 125,92 129,92 133,92 137,92 141,92 145,92 149,92 153,90 157,89 161,89 165,90 169,91 173,91 177,91 182,90 186,89 190,89 194,89 198,89 202,89 206,91 210,92 214,91 218,92 222,92 226,92 230,91 234,92 238,91 242,88 246,89 250,88 254,88 259,89 263,89 267,89 271,90 275,92 279,91 283,92 287,92 291,90 295,90 299,92 303,92 307,92 311,92 315,92 319,92 323,92 327,92 331,91 335,91 339,91 344,90 348,91 352,91 356,92 360,92 364,92 368,92 372,92 376,92 380,92 384,92 388,91 392,91 396,92 400,92 404,92 408,92 412,92 416,92 419,92 419,100 0,100" fill="url(#grad)" stroke="none" />
<polyline points="0,92 4,92 8,92 12,92 16,92 20,92 24,92 28,92 32,92 36,92 40,92 44,92 48,92 52,92 56,92 60,92 64,92 68,92 72,92 76,92 80,91 84,91 89,92 93,90 97,91 101,91 105,92 109,92 113,92 117,92 121,92 125,92 129,92 133,92 137,92 141,92 145,92 149,92 153,90 157,89 161,89 165,90 169,91 173,91 177,91 182,90 186,89 190,89 194,89 198,89 202,89 206,91 210,92 214,91 218,92 222,92 226,92 230,91 234,92 238,91 242,88 246,89 250,88 254,88 259,89 263,89 267,89 271,90 275,92 279,91 283,92 287,92 291,90 295,90 299,92 303,92 307,92 311,92 315,92 319,92 323,92 327,92 331,91 335,91 339,91 344,90 348,91 352,91 356,92 360,92 364,92 368,92 372,92 376,92 380,92 384,92 388,91 392,91 396,92 400,92 404,92 408,92 412,92 416,92 419,92" stroke="#2963da" fill="none" stroke-width="3" stroke-linejoin="round" stroke-linecap="round" />
</svg>