<svg width="419" height="100" viewBox="0 0 419 100" xmlns="http://www.w3.org/2000/svg" xmlns:xlink="http://www.w3.org/1999/xlink"><defs>
<linearGradient id="grad" x1="0%" y1="0%" x2="0%" y2="100%">
<stop offset="0%" stop-color="#2963da" stop-opacity="0.40"/>
<stop offset="100%" stop-color="#070720" stop-opacity="0.20"/>
</linearGradient>
</defs>
<rect x="0" y="0" width="419" height="100" fill="none" />
<polygon points="0,92 8,92 15,92 19,92 26,92 32,92 36,92 41,92 47,92 56,92 64,92 69,92 74,92 82,92 91,92 97,92 101,92 105,92 117,92 124,92 130,92 137,92 142,92 147,92 159,92 165,92 172,92 181,92 185,92 190,92 196,92 204,92 212,92 216,92 221,92 227,92 238,92 245,92 250,92 268,92 273,92 279,92 284,92 293,92 302,92 306,92 311,92 315,92 325,92 333,92 338,92 342,92 346,92 353,92 358,92 363,92 367,92 375,92 380,92 385,92 389,92 397,92 403,92 408,92 413,92 417,92 419,92 419,100 0,100" fill="url(#grad)" stroke="none" />
<polyline points="0,92 8,92 15,92 19,92 26,92 32,92 36,92 41,92 47,92 56,92 64,92 69,92 74,92 82,92 91,92 97,92 101,92 105,92 117,92 124,92 130,92 137,92 142,92 147,92 159,92 165,92 172,92 181,92 185,92 190,92 196,92 204,92 212,92 216,92 221,92 227,92 238,92 245,92 250,92 268,92 273,92 279,92 284,92 293,92 302,92 306,92 311,92 315,92 325,92 333,92 338,92 342,92 346,92 353,92 358,92 363,92 367,92 375,92 380,92 385,92 389,92 397,92 403,92 408,92 413,92 417,92 419,92" stroke="#2963da" fill="none" stroke-width="3" stroke-linejoin="round" stroke-linecap="round" />
</svg>