<svg width="419" height="100" viewBox="0 0 419 100" xmlns="http://www.w3.org/2000/svg" xmlns:xlink="http://www.w3.org/1999/xlink"><defs>
<linearGradient id="grad" x1="0%" y1="0%" x2="0%" y2="100%">
<stop offset="0%" stop-color="#2963da" stop-opacity="0.40"/>
<stop offset="100%" stop-color="#070720" stop-opacity="0.20"/>
</linearGradient>
</defs>
<rect x="0" y="0" width="419" height="100" fill="none" />
<polygon points="0,88 4,88 8,89 12,89 16,89 20,89 24,89 29,89 33,89 37,89 41,89 45,86 49,86 53,87 58,88 62,88 66,87 70,88 74,86 78,86 82,88 86,87 91,89 95,89 99,90 103,89 107,88 111,88 115,87 120,87 124,88 129,88 133,86 137,86 141,87 145,85 149,85 153,88 158,88 162,88 166,88 170,88 175,87 179,83 183,83 187,86 191,86 195,85 199,81 203,77 207,74 211,71 216,69 220,67 224,67 228,71 232,74 236,77 240,81 244,85 249,87 253,86 257,87 261,88 265,87 269,86 273,85 277,85 282,82 286,76 290,72 294,71 298,69 302,68 306,67 310,65 314,63 318,64 322,64 326,64 331,67 335,66 339,67 343,67 347,70 351,72 355,75 359,76 363,77 369,80 373,83 377,84 381,85 385,86 390,89 394,91 399,91 403,92 407,92 411,92 415,92 419,92 419,100 0,100" fill="url(#grad)" stroke="none" />
<polyline points="0,88 4,88 8,89 12,89 16,89 20,89 24,89 29,89 33,89 37,89 41,89 45,86 49,86 53,87 58,88 62,88 66,87 70,88 74,86 78,86 82,88 86,87 91,89 95,89 99,90 103,89 107,88 111,88 115,87 120,87 124,88 129,88 133,86 137,86 141,87 145,85 149,85 153,88 158,88 162,88 166,88 170,88 175,87 179,83 183,83 187,86 191,86 195,85 199,81 203,77 207,74 211,71 216,69 220,67 224,67 228,71 232,74 236,77 240,81 244,85 249,87 253,86 257,87 261,88 265,87 269,86 273,85 277,85 282,82 286,76 290,72 294,71 298,69 302,68 306,67 310,65 314,63 318,64 322,64 326,64 331,67 335,66 339,67 343,67 347,70 351,72 355,75 359,76 363,77 369,80 373,83 377,84 381,85 385,86 390,89 394,91 399,91 403,92 407,92 411,92 415,92 419,92" stroke="#2963da" fill="none" stroke-width="3" stroke-linejoin="round" stroke-linecap="round" />
</svg>