<svg width="419" height="100" viewBox="0 0 419 100" xmlns="http://www.w3.org/2000/svg" xmlns:xlink="http://www.w3.org/1999/xlink"><defs>
<linearGradient id="grad" x1="0%" y1="0%" x2="0%" y2="100%">
<stop offset="0%" stop-color="#2963da" stop-opacity="0.40"/>
<stop offset="100%" stop-color="#070720" stop-opacity="0.20"/>
</linearGradient>
</defs>
<rect x="0" y="0" width="419" height="100" fill="none" />
<polygon points="0,88 4,86 8,85 12,82 16,80 20,78 24,77 28,74 33,73 37,72 41,71 45,70 49,69 53,68 57,66 61,64 65,62 69,60 74,57 78,54 82,53 86,50 90,48 94,45 98,42 102,40 107,41 111,44 115,47 119,50 123,51 127,53 131,53 136,53 140,53 144,54 148,56 152,59 157,61 161,64 165,66 169,67 173,69 177,70 181,71 185,73 189,73 193,77 198,78 202,79 206,82 210,84 214,81 218,78 222,73 226,70 230,68 234,65 238,63 242,65 246,67 251,70 255,74 259,77 263,81 267,82 271,83 275,82 279,79 283,77 288,73 292,70 296,67 300,64 304,62 308,59 312,56 316,57 320,57 324,57 328,60 333,62 337,64 341,67 345,70 349,73 353,75 357,77 361,78 365,81 369,83 373,85 377,86 382,88 386,86 390,84 394,84 398,80 402,83 406,86 410,89 414,92 418,92 419,92 419,100 0,100" fill="url(#grad)" stroke="none" />
<polyline points="0,88 4,86 8,85 12,82 16,80 20,78 24,77 28,74 33,73 37,72 41,71 45,70 49,69 53,68 57,66 61,64 65,62 69,60 74,57 78,54 82,53 86,50 90,48 94,45 98,42 102,40 107,41 111,44 115,47 119,50 123,51 127,53 131,53 136,53 140,53 144,54 148,56 152,59 157,61 161,64 165,66 169,67 173,69 177,70 181,71 185,73 189,73 193,77 198,78 202,79 206,82 210,84 214,81 218,78 222,73 226,70 230,68 234,65 238,63 242,65 246,67 251,70 255,74 259,77 263,81 267,82 271,83 275,82 279,79 283,77 288,73 292,70 296,67 300,64 304,62 308,59 312,56 316,57 320,57 324,57 328,60 333,62 337,64 341,67 345,70 349,73 353,75 357,77 361,78 365,81 369,83 373,85 377,86 382,88 386,86 390,84 394,84 398,80 402,83 406,86 410,89 414,92 418,92 419,92" stroke="#2963da" fill="none" stroke-width="3" stroke-linejoin="round" stroke-linecap="round" />
</svg>