<svg width="419" height="100" viewBox="0 0 419 100" xmlns="http://www.w3.org/2000/svg" xmlns:xlink="http://www.w3.org/1999/xlink"><defs>
<linearGradient id="grad" x1="0%" y1="0%" x2="0%" y2="100%">
<stop offset="0%" stop-color="#2963da" stop-opacity="0.40"/>
<stop offset="100%" stop-color="#070720" stop-opacity="0.20"/>
</linearGradient>
</defs>
<rect x="0" y="0" width="419" height="100" fill="none" />
<polygon points="0,92 4,92 8,92 12,92 16,92 20,92 24,91 28,91 32,91 36,91 40,91 44,92 48,91 52,90 56,91 60,91 64,91 68,90 72,88 76,85 80,84 85,85 89,86 93,87 97,86 101,87 105,87 109,86 113,85 117,86 121,84 125,83 129,85 133,84 137,84 141,82 145,80 149,80 153,80 157,81 161,80 165,80 169,79 174,79 178,78 182,78 186,78 190,76 194,78 198,78 202,79 206,78 210,76 214,75 218,74 222,75 226,78 230,81 234,84 238,86 242,87 246,88 250,88 254,88 259,88 263,89 267,88 271,88 275,88 279,88 283,86 287,86 291,84 295,85 299,87 303,89 307,91 311,90 315,87 319,87 323,89 327,89 331,87 335,87 339,88 344,91 348,92 352,89 356,89 360,92 364,91 368,92 372,88 376,86 380,89 384,89 388,90 392,91 396,88 400,90 404,91 408,91 412,92 416,92 419,92 419,100 0,100" fill="url(#grad)" stroke="none" />
<polyline points="0,92 4,92 8,92 12,92 16,92 20,92 24,91 28,91 32,91 36,91 40,91 44,92 48,91 52,90 56,91 60,91 64,91 68,90 72,88 76,85 80,84 85,85 89,86 93,87 97,86 101,87 105,87 109,86 113,85 117,86 121,84 125,83 129,85 133,84 137,84 141,82 145,80 149,80 153,80 157,81 161,80 165,80 169,79 174,79 178,78 182,78 186,78 190,76 194,78 198,78 202,79 206,78 210,76 214,75 218,74 222,75 226,78 230,81 234,84 238,86 242,87 246,88 250,88 254,88 259,88 263,89 267,88 271,88 275,88 279,88 283,86 287,86 291,84 295,85 299,87 303,89 307,91 311,90 315,87 319,87 323,89 327,89 331,87 335,87 339,88 344,91 348,92 352,89 356,89 360,92 364,91 368,92 372,88 376,86 380,89 384,89 388,90 392,91 396,88 400,90 404,91 408,91 412,92 416,92 419,92" stroke="#2963da" fill="none" stroke-width="3" stroke-linejoin="round" stroke-linecap="round" />
</svg>