<svg width="419" height="100" viewBox="0 0 419 100" xmlns="http://www.w3.org/2000/svg" xmlns:xlink="http://www.w3.org/1999/xlink"><defs>
<linearGradient id="grad" x1="0%" y1="0%" x2="0%" y2="100%">
<stop offset="0%" stop-color="#2963da" stop-opacity="0.40"/>
<stop offset="100%" stop-color="#070720" stop-opacity="0.20"/>
</linearGradient>
</defs>
<rect x="0" y="0" width="419" height="100" fill="none" />
<polygon points="0,92 4,91 8,91 12,92 16,92 20,92 24,92 28,92 32,92 36,91 40,91 44,92 48,92 52,92 56,92 60,92 64,90 68,89 73,90 77,89 81,91 85,91 89,91 93,92 97,92 101,91 105,91 109,92 113,92 117,92 121,92 125,92 129,91 133,91 137,90 141,92 145,92 150,92 154,92 158,92 162,92 166,92 170,92 174,91 178,92 182,92 186,92 190,92 194,92 198,90 202,89 206,89 210,89 215,91 219,91 223,91 227,92 231,92 235,92 239,91 243,92 247,92 251,92 255,92 259,92 263,92 267,91 271,91 275,91 279,92 284,92 288,92 292,92 296,92 300,92 304,92 308,92 312,91 316,92 320,92 324,92 328,92 332,91 336,92 340,92 344,91 349,92 353,92 357,92 361,92 365,91 369,92 373,92 377,91 381,92 385,92 389,92 393,92 397,91 401,92 405,92 409,91 413,92 418,92 419,92 419,100 0,100" fill="url(#grad)" stroke="none" />
<polyline points="0,92 4,91 8,91 12,92 16,92 20,92 24,92 28,92 32,92 36,91 40,91 44,92 48,92 52,92 56,92 60,92 64,90 68,89 73,90 77,89 81,91 85,91 89,91 93,92 97,92 101,91 105,91 109,92 113,92 117,92 121,92 125,92 129,91 133,91 137,90 141,92 145,92 150,92 154,92 158,92 162,92 166,92 170,92 174,91 178,92 182,92 186,92 190,92 194,92 198,90 202,89 206,89 210,89 215,91 219,91 223,91 227,92 231,92 235,92 239,91 243,92 247,92 251,92 255,92 259,92 263,92 267,91 271,91 275,91 279,92 284,92 288,92 292,92 296,92 300,92 304,92 308,92 312,91 316,92 320,92 324,92 328,92 332,91 336,92 340,92 344,91 349,92 353,92 357,92 361,92 365,91 369,92 373,92 377,91 381,92 385,92 389,92 393,92 397,91 401,92 405,92 409,91 413,92 418,92 419,92" stroke="#2963da" fill="none" stroke-width="3" stroke-linejoin="round" stroke-linecap="round" />
</svg>