<svg width="419" height="100" viewBox="0 0 419 100" xmlns="http://www.w3.org/2000/svg" xmlns:xlink="http://www.w3.org/1999/xlink"><defs>
<linearGradient id="grad" x1="0%" y1="0%" x2="0%" y2="100%">
<stop offset="0%" stop-color="#2963da" stop-opacity="0.40"/>
<stop offset="100%" stop-color="#070720" stop-opacity="0.20"/>
</linearGradient>
</defs>
<rect x="0" y="0" width="419" height="100" fill="none" />
<polygon points="0,92 4,92 8,92 12,92 17,92 21,92 25,92 30,92 34,92 38,92 43,92 47,92 51,92 55,92 59,92 64,92 68,92 72,92 76,92 80,92 85,92 89,92 93,92 98,92 102,92 106,92 111,92 115,92 119,92 123,92 128,92 132,92 136,92 140,92 145,92 149,92 153,92 158,92 162,92 166,92 171,92 175,92 180,92 184,92 188,92 193,92 197,92 201,92 206,92 210,92 214,92 218,92 222,92 227,92 231,92 236,92 240,92 244,92 248,92 253,92 257,92 261,92 266,92 270,92 274,92 279,92 283,92 287,92 292,92 296,92 301,92 305,92 309,92 314,92 318,92 323,92 327,92 331,92 336,92 340,92 344,92 349,92 353,92 358,92 362,92 366,92 371,92 375,92 380,92 384,92 389,92 393,92 398,92 402,92 406,92 410,92 414,92 419,92 419,100 0,100" fill="url(#grad)" stroke="none" />
<polyline points="0,92 4,92 8,92 12,92 17,92 21,92 25,92 30,92 34,92 38,92 43,92 47,92 51,92 55,92 59,92 64,92 68,92 72,92 76,92 80,92 85,92 89,92 93,92 98,92 102,92 106,92 111,92 115,92 119,92 123,92 128,92 132,92 136,92 140,92 145,92 149,92 153,92 158,92 162,92 166,92 171,92 175,92 180,92 184,92 188,92 193,92 197,92 201,92 206,92 210,92 214,92 218,92 222,92 227,92 231,92 236,92 240,92 244,92 248,92 253,92 257,92 261,92 266,92 270,92 274,92 279,92 283,92 287,92 292,92 296,92 301,92 305,92 309,92 314,92 318,92 323,92 327,92 331,92 336,92 340,92 344,92 349,92 353,92 358,92 362,92 366,92 371,92 375,92 380,92 384,92 389,92 393,92 398,92 402,92 406,92 410,92 414,92 419,92" stroke="#2963da" fill="none" stroke-width="3" stroke-linejoin="round" stroke-linecap="round" />
</svg>