<svg width="419" height="100" viewBox="0 0 419 100" xmlns="http://www.w3.org/2000/svg" xmlns:xlink="http://www.w3.org/1999/xlink"><defs>
<linearGradient id="grad" x1="0%" y1="0%" x2="0%" y2="100%">
<stop offset="0%" stop-color="#2963da" stop-opacity="0.40"/>
<stop offset="100%" stop-color="#070720" stop-opacity="0.20"/>
</linearGradient>
</defs>
<rect x="0" y="0" width="419" height="100" fill="none" />
<polygon points="0,92 4,92 10,92 18,92 22,92 27,92 32,92 40,92 45,92 53,92 57,92 62,92 71,92 79,92 83,92 87,92 93,92 97,92 107,92 111,91 115,91 125,92 137,92 142,92 148,92 153,92 160,92 166,92 170,92 174,92 181,92 186,92 190,91 195,91 199,91 207,91 212,91 218,92 222,92 226,92 231,91 235,91 240,92 246,92 260,92 266,92 271,92 276,92 283,92 288,92 293,92 297,92 302,92 306,92 311,92 316,92 320,92 324,92 330,92 334,92 341,92 345,92 350,92 355,92 359,92 363,92 368,92 372,92 376,92 381,92 385,92 392,92 396,92 402,92 406,92 410,92 416,92 419,92 419,100 0,100" fill="url(#grad)" stroke="none" />
<polyline points="0,92 4,92 10,92 18,92 22,92 27,92 32,92 40,92 45,92 53,92 57,92 62,92 71,92 79,92 83,92 87,92 93,92 97,92 107,92 111,91 115,91 125,92 137,92 142,92 148,92 153,92 160,92 166,92 170,92 174,92 181,92 186,92 190,91 195,91 199,91 207,91 212,91 218,92 222,92 226,92 231,91 235,91 240,92 246,92 260,92 266,92 271,92 276,92 283,92 288,92 293,92 297,92 302,92 306,92 311,92 316,92 320,92 324,92 330,92 334,92 341,92 345,92 350,92 355,92 359,92 363,92 368,92 372,92 376,92 381,92 385,92 392,92 396,92 402,92 406,92 410,92 416,92 419,92" stroke="#2963da" fill="none" stroke-width="3" stroke-linejoin="round" stroke-linecap="round" />
</svg>