<svg width="419" height="100" viewBox="0 0 419 100" xmlns="http://www.w3.org/2000/svg" xmlns:xlink="http://www.w3.org/1999/xlink"><defs>
<linearGradient id="grad" x1="0%" y1="0%" x2="0%" y2="100%">
<stop offset="0%" stop-color="#2963da" stop-opacity="0.40"/>
<stop offset="100%" stop-color="#070720" stop-opacity="0.20"/>
</linearGradient>
</defs>
<rect x="0" y="0" width="419" height="100" fill="none" />
<polygon points="0,92 4,92 8,92 12,92 16,92 20,92 24,92 28,92 32,92 36,92 40,92 44,92 48,91 52,89 56,87 60,87 64,86 68,84 72,86 76,88 80,90 84,92 88,92 93,92 97,92 101,91 105,91 109,90 113,86 117,85 121,89 125,91 129,91 133,92 137,92 141,92 145,92 149,91 153,90 157,87 161,83 165,80 169,81 173,84 177,87 182,88 186,88 190,88 194,89 198,89 202,89 206,89 210,89 214,88 218,88 222,87 226,84 230,80 234,76 238,75 242,72 246,69 250,66 254,70 258,73 262,74 266,74 270,74 274,72 279,74 283,76 287,79 291,81 295,83 299,85 303,85 307,82 311,78 315,75 319,73 323,73 327,75 331,77 335,80 339,84 343,84 347,84 351,87 356,90 360,91 364,92 368,92 372,92 376,92 380,90 384,88 388,87 392,84 396,87 400,91 404,92 408,92 412,92 416,92 419,92 419,100 0,100" fill="url(#grad)" stroke="none" />
<polyline points="0,92 4,92 8,92 12,92 16,92 20,92 24,92 28,92 32,92 36,92 40,92 44,92 48,91 52,89 56,87 60,87 64,86 68,84 72,86 76,88 80,90 84,92 88,92 93,92 97,92 101,91 105,91 109,90 113,86 117,85 121,89 125,91 129,91 133,92 137,92 141,92 145,92 149,91 153,90 157,87 161,83 165,80 169,81 173,84 177,87 182,88 186,88 190,88 194,89 198,89 202,89 206,89 210,89 214,88 218,88 222,87 226,84 230,80 234,76 238,75 242,72 246,69 250,66 254,70 258,73 262,74 266,74 270,74 274,72 279,74 283,76 287,79 291,81 295,83 299,85 303,85 307,82 311,78 315,75 319,73 323,73 327,75 331,77 335,80 339,84 343,84 347,84 351,87 356,90 360,91 364,92 368,92 372,92 376,92 380,90 384,88 388,87 392,84 396,87 400,91 404,92 408,92 412,92 416,92 419,92" stroke="#2963da" fill="none" stroke-width="3" stroke-linejoin="round" stroke-linecap="round" />
</svg>