<svg width="419" height="100" viewBox="0 0 419 100" xmlns="http://www.w3.org/2000/svg" xmlns:xlink="http://www.w3.org/1999/xlink"><defs>
<linearGradient id="grad" x1="0%" y1="0%" x2="0%" y2="100%">
<stop offset="0%" stop-color="#2963da" stop-opacity="0.40"/>
<stop offset="100%" stop-color="#070720" stop-opacity="0.20"/>
</linearGradient>
</defs>
<rect x="0" y="0" width="419" height="100" fill="none" />
<polygon points="0,87 5,88 9,88 13,88 20,88 24,88 28,88 33,88 39,88 43,88 47,88 51,88 55,88 60,88 64,88 68,89 72,89 76,89 82,89 86,89 91,88 100,88 104,89 112,89 121,90 126,90 132,90 136,90 144,89 149,89 154,89 158,90 163,90 167,90 171,90 176,90 183,91 188,91 193,91 197,91 201,91 205,91 214,91 219,92 228,92 232,92 237,92 241,92 247,92 251,92 257,92 261,92 265,91 272,92 276,92 280,91 286,91 292,91 296,91 300,91 304,91 309,91 317,91 322,90 327,90 331,90 337,90 341,89 345,89 351,89 356,89 360,89 365,89 370,89 374,89 379,89 383,89 387,88 391,88 395,84 399,80 403,75 407,69 411,64 415,61 419,59 419,100 0,100" fill="url(#grad)" stroke="none" />
<polyline points="0,87 5,88 9,88 13,88 20,88 24,88 28,88 33,88 39,88 43,88 47,88 51,88 55,88 60,88 64,88 68,89 72,89 76,89 82,89 86,89 91,88 100,88 104,89 112,89 121,90 126,90 132,90 136,90 144,89 149,89 154,89 158,90 163,90 167,90 171,90 176,90 183,91 188,91 193,91 197,91 201,91 205,91 214,91 219,92 228,92 232,92 237,92 241,92 247,92 251,92 257,92 261,92 265,91 272,92 276,92 280,91 286,91 292,91 296,91 300,91 304,91 309,91 317,91 322,90 327,90 331,90 337,90 341,89 345,89 351,89 356,89 360,89 365,89 370,89 374,89 379,89 383,89 387,88 391,88 395,84 399,80 403,75 407,69 411,64 415,61 419,59" stroke="#2963da" fill="none" stroke-width="3" stroke-linejoin="round" stroke-linecap="round" />
</svg>