<svg width="419" height="100" viewBox="0 0 419 100" xmlns="http://www.w3.org/2000/svg" xmlns:xlink="http://www.w3.org/1999/xlink"><defs>
<linearGradient id="grad" x1="0%" y1="0%" x2="0%" y2="100%">
<stop offset="0%" stop-color="#2963da" stop-opacity="0.40"/>
<stop offset="100%" stop-color="#070720" stop-opacity="0.20"/>
</linearGradient>
</defs>
<rect x="0" y="0" width="419" height="100" fill="none" />
<polygon points="0,92 4,92 8,92 12,92 16,92 20,92 24,92 28,92 32,92 36,91 40,90 44,89 48,88 52,89 56,90 60,89 64,90 68,91 72,91 76,91 80,92 84,92 88,92 93,92 97,92 101,91 105,91 109,91 113,91 117,91 121,91 125,91 129,90 133,91 137,90 141,90 145,90 149,89 153,89 157,89 161,89 165,89 169,89 173,90 177,90 182,90 186,90 190,90 194,90 198,89 202,89 206,88 210,88 214,87 218,88 222,88 226,88 230,88 234,87 238,87 242,87 246,86 250,85 254,85 258,82 262,86 266,88 270,86 275,88 279,88 283,87 287,87 291,87 295,87 299,87 303,87 307,87 311,87 315,87 319,86 323,86 327,86 331,85 335,83 339,80 343,77 347,75 351,74 355,74 359,72 363,72 368,72 372,71 376,71 380,71 384,71 388,71 392,71 396,70 400,70 404,70 408,69 412,69 416,69 419,68 419,100 0,100" fill="url(#grad)" stroke="none" />
<polyline points="0,92 4,92 8,92 12,92 16,92 20,92 24,92 28,92 32,92 36,91 40,90 44,89 48,88 52,89 56,90 60,89 64,90 68,91 72,91 76,91 80,92 84,92 88,92 93,92 97,92 101,91 105,91 109,91 113,91 117,91 121,91 125,91 129,90 133,91 137,90 141,90 145,90 149,89 153,89 157,89 161,89 165,89 169,89 173,90 177,90 182,90 186,90 190,90 194,90 198,89 202,89 206,88 210,88 214,87 218,88 222,88 226,88 230,88 234,87 238,87 242,87 246,86 250,85 254,85 258,82 262,86 266,88 270,86 275,88 279,88 283,87 287,87 291,87 295,87 299,87 303,87 307,87 311,87 315,87 319,86 323,86 327,86 331,85 335,83 339,80 343,77 347,75 351,74 355,74 359,72 363,72 368,72 372,71 376,71 380,71 384,71 388,71 392,71 396,70 400,70 404,70 408,69 412,69 416,69 419,68" stroke="#2963da" fill="none" stroke-width="3" stroke-linejoin="round" stroke-linecap="round" />
</svg>