<svg width="419" height="100" viewBox="0 0 419 100" xmlns="http://www.w3.org/2000/svg" xmlns:xlink="http://www.w3.org/1999/xlink"><defs>
<linearGradient id="grad" x1="0%" y1="0%" x2="0%" y2="100%">
<stop offset="0%" stop-color="#2963da" stop-opacity="0.40"/>
<stop offset="100%" stop-color="#070720" stop-opacity="0.20"/>
</linearGradient>
</defs>
<rect x="0" y="0" width="419" height="100" fill="none" />
<polygon points="0,72 4,71 8,71 12,70 16,70 20,71 24,73 28,76 32,78 36,80 40,84 44,86 48,89 52,91 56,91 60,92 64,92 68,92 73,92 77,92 81,92 85,92 89,92 93,92 97,89 101,85 105,81 109,78 113,76 117,75 121,75 125,75 129,75 133,78 137,81 141,83 145,85 149,86 154,87 158,87 162,87 166,87 170,86 174,86 178,85 182,85 186,83 190,79 194,76 199,72 203,69 207,65 211,61 215,56 219,52 223,48 227,49 231,50 235,50 239,54 243,59 247,62 251,65 255,68 259,74 263,74 267,74 271,75 276,77 280,78 284,79 288,80 292,81 296,82 300,82 304,82 308,77 312,74 316,69 320,66 324,67 328,70 332,74 336,77 340,80 345,79 349,77 353,76 357,76 361,76 365,75 369,74 373,74 377,73 381,72 385,72 389,71 393,70 398,66 402,67 406,69 410,67 414,65 418,63 419,62 419,100 0,100" fill="url(#grad)" stroke="none" />
<polyline points="0,72 4,71 8,71 12,70 16,70 20,71 24,73 28,76 32,78 36,80 40,84 44,86 48,89 52,91 56,91 60,92 64,92 68,92 73,92 77,92 81,92 85,92 89,92 93,92 97,89 101,85 105,81 109,78 113,76 117,75 121,75 125,75 129,75 133,78 137,81 141,83 145,85 149,86 154,87 158,87 162,87 166,87 170,86 174,86 178,85 182,85 186,83 190,79 194,76 199,72 203,69 207,65 211,61 215,56 219,52 223,48 227,49 231,50 235,50 239,54 243,59 247,62 251,65 255,68 259,74 263,74 267,74 271,75 276,77 280,78 284,79 288,80 292,81 296,82 300,82 304,82 308,77 312,74 316,69 320,66 324,67 328,70 332,74 336,77 340,80 345,79 349,77 353,76 357,76 361,76 365,75 369,74 373,74 377,73 381,72 385,72 389,71 393,70 398,66 402,67 406,69 410,67 414,65 418,63 419,62" stroke="#2963da" fill="none" stroke-width="3" stroke-linejoin="round" stroke-linecap="round" />
</svg>