<svg width="419" height="100" viewBox="0 0 419 100" xmlns="http://www.w3.org/2000/svg" xmlns:xlink="http://www.w3.org/1999/xlink"><defs>
<linearGradient id="grad" x1="0%" y1="0%" x2="0%" y2="100%">
<stop offset="0%" stop-color="#2963da" stop-opacity="0.40"/>
<stop offset="100%" stop-color="#070720" stop-opacity="0.20"/>
</linearGradient>
</defs>
<rect x="0" y="0" width="419" height="100" fill="none" />
<polygon points="0,92 4,92 8,92 12,92 16,92 20,92 24,92 28,91 32,92 37,92 41,90 45,87 49,89 53,90 57,92 61,92 65,90 69,89 73,88 77,84 81,82 85,80 90,79 94,78 98,78 102,77 106,76 110,80 114,83 118,87 122,89 126,87 130,83 134,80 139,83 143,86 147,90 151,90 155,90 159,90 163,89 167,86 171,81 175,76 179,73 183,68 187,68 192,72 196,76 200,78 204,83 208,87 212,84 216,83 220,83 224,81 228,78 232,74 236,73 240,76 244,80 249,83 253,86 257,85 261,84 265,80 269,83 273,81 277,84 281,85 285,85 289,85 293,86 297,87 301,87 305,87 309,87 313,87 318,85 322,76 326,78 330,79 334,77 338,78 342,83 346,86 350,87 354,88 358,88 362,89 366,89 370,88 374,88 379,88 383,88 387,88 391,87 395,87 399,86 403,83 407,81 411,83 415,87 419,87 419,100 0,100" fill="url(#grad)" stroke="none" />
<polyline points="0,92 4,92 8,92 12,92 16,92 20,92 24,92 28,91 32,92 37,92 41,90 45,87 49,89 53,90 57,92 61,92 65,90 69,89 73,88 77,84 81,82 85,80 90,79 94,78 98,78 102,77 106,76 110,80 114,83 118,87 122,89 126,87 130,83 134,80 139,83 143,86 147,90 151,90 155,90 159,90 163,89 167,86 171,81 175,76 179,73 183,68 187,68 192,72 196,76 200,78 204,83 208,87 212,84 216,83 220,83 224,81 228,78 232,74 236,73 240,76 244,80 249,83 253,86 257,85 261,84 265,80 269,83 273,81 277,84 281,85 285,85 289,85 293,86 297,87 301,87 305,87 309,87 313,87 318,85 322,76 326,78 330,79 334,77 338,78 342,83 346,86 350,87 354,88 358,88 362,89 366,89 370,88 374,88 379,88 383,88 387,88 391,87 395,87 399,86 403,83 407,81 411,83 415,87 419,87" stroke="#2963da" fill="none" stroke-width="3" stroke-linejoin="round" stroke-linecap="round" />
</svg>