<svg width="419" height="100" viewBox="0 0 419 100" xmlns="http://www.w3.org/2000/svg" xmlns:xlink="http://www.w3.org/1999/xlink"><defs>
<linearGradient id="grad" x1="0%" y1="0%" x2="0%" y2="100%">
<stop offset="0%" stop-color="#2963da" stop-opacity="0.40"/>
<stop offset="100%" stop-color="#070720" stop-opacity="0.20"/>
</linearGradient>
</defs>
<rect x="0" y="0" width="419" height="100" fill="none" />
<polygon points="0,72 4,73 8,72 12,69 16,66 20,64 24,64 28,67 32,70 36,72 40,76 44,77 48,77 52,79 56,80 60,80 64,81 68,81 72,81 76,82 80,82 84,83 88,83 93,83 97,84 101,84 105,84 109,86 113,87 117,88 121,88 125,88 129,88 133,87 137,87 141,88 145,88 149,88 153,90 157,91 161,91 165,91 169,91 173,91 177,90 181,88 186,84 190,80 194,77 198,78 202,78 206,80 210,80 214,79 218,78 222,77 226,75 230,71 234,69 238,74 242,75 246,79 250,77 254,75 258,77 262,79 266,80 270,81 275,82 279,81 283,80 287,80 291,82 295,83 299,84 303,84 307,85 311,85 315,85 319,81 323,82 327,82 331,83 335,88 339,89 343,90 347,89 351,88 355,89 359,85 363,79 367,78 371,76 376,81 380,83 384,85 388,90 392,91 396,91 400,92 404,92 408,92 412,92 416,92 419,92 419,100 0,100" fill="url(#grad)" stroke="none" />
<polyline points="0,72 4,73 8,72 12,69 16,66 20,64 24,64 28,67 32,70 36,72 40,76 44,77 48,77 52,79 56,80 60,80 64,81 68,81 72,81 76,82 80,82 84,83 88,83 93,83 97,84 101,84 105,84 109,86 113,87 117,88 121,88 125,88 129,88 133,87 137,87 141,88 145,88 149,88 153,90 157,91 161,91 165,91 169,91 173,91 177,90 181,88 186,84 190,80 194,77 198,78 202,78 206,80 210,80 214,79 218,78 222,77 226,75 230,71 234,69 238,74 242,75 246,79 250,77 254,75 258,77 262,79 266,80 270,81 275,82 279,81 283,80 287,80 291,82 295,83 299,84 303,84 307,85 311,85 315,85 319,81 323,82 327,82 331,83 335,88 339,89 343,90 347,89 351,88 355,89 359,85 363,79 367,78 371,76 376,81 380,83 384,85 388,90 392,91 396,91 400,92 404,92 408,92 412,92 416,92 419,92" stroke="#2963da" fill="none" stroke-width="3" stroke-linejoin="round" stroke-linecap="round" />
</svg>