<svg width="419" height="100" viewBox="0 0 419 100" xmlns="http://www.w3.org/2000/svg" xmlns:xlink="http://www.w3.org/1999/xlink"><defs>
<linearGradient id="grad" x1="0%" y1="0%" x2="0%" y2="100%">
<stop offset="0%" stop-color="#2963da" stop-opacity="0.40"/>
<stop offset="100%" stop-color="#070720" stop-opacity="0.20"/>
</linearGradient>
</defs>
<rect x="0" y="0" width="419" height="100" fill="none" />
<polygon points="0,92 4,92 8,92 12,92 16,92 20,91 24,91 28,92 32,92 37,92 41,92 45,92 49,92 53,92 57,91 62,92 66,92 70,91 74,91 78,91 82,91 86,92 90,92 94,92 98,92 103,92 107,92 111,91 115,92 119,92 123,92 127,92 132,92 136,92 140,92 144,91 149,92 153,92 157,91 161,92 165,90 169,92 174,92 178,92 182,92 186,91 190,92 194,92 199,92 203,92 207,92 211,91 215,92 219,92 223,92 227,92 232,92 236,92 240,91 244,92 248,92 252,92 256,92 260,92 264,92 269,92 273,91 277,91 281,92 285,92 289,92 293,92 297,92 301,91 306,92 310,92 314,91 318,92 322,92 326,92 330,92 334,92 339,92 343,91 347,92 351,92 355,92 359,92 363,90 367,92 371,92 376,92 380,92 384,92 388,92 392,92 396,92 400,92 405,92 409,92 413,92 417,91 419,91 419,100 0,100" fill="url(#grad)" stroke="none" />
<polyline points="0,92 4,92 8,92 12,92 16,92 20,91 24,91 28,92 32,92 37,92 41,92 45,92 49,92 53,92 57,91 62,92 66,92 70,91 74,91 78,91 82,91 86,92 90,92 94,92 98,92 103,92 107,92 111,91 115,92 119,92 123,92 127,92 132,92 136,92 140,92 144,91 149,92 153,92 157,91 161,92 165,90 169,92 174,92 178,92 182,92 186,91 190,92 194,92 199,92 203,92 207,92 211,91 215,92 219,92 223,92 227,92 232,92 236,92 240,91 244,92 248,92 252,92 256,92 260,92 264,92 269,92 273,91 277,91 281,92 285,92 289,92 293,92 297,92 301,91 306,92 310,92 314,91 318,92 322,92 326,92 330,92 334,92 339,92 343,91 347,92 351,92 355,92 359,92 363,90 367,92 371,92 376,92 380,92 384,92 388,92 392,92 396,92 400,92 405,92 409,92 413,92 417,91 419,91" stroke="#2963da" fill="none" stroke-width="3" stroke-linejoin="round" stroke-linecap="round" />
</svg>