<svg width="419" height="100" viewBox="0 0 419 100" xmlns="http://www.w3.org/2000/svg" xmlns:xlink="http://www.w3.org/1999/xlink"><defs>
<linearGradient id="grad" x1="0%" y1="0%" x2="0%" y2="100%">
<stop offset="0%" stop-color="#2963da" stop-opacity="0.40"/>
<stop offset="100%" stop-color="#070720" stop-opacity="0.20"/>
</linearGradient>
</defs>
<rect x="0" y="0" width="419" height="100" fill="none" />
<polygon points="0,82 4,81 8,80 12,78 16,75 20,71 24,71 28,74 32,69 36,64 40,59 44,60 48,60 52,61 56,60 60,58 64,56 68,57 72,56 76,57 80,56 84,58 89,61 93,62 97,62 101,62 105,64 109,66 113,67 117,64 121,63 125,62 129,64 133,64 137,67 141,71 145,73 149,77 153,78 158,73 162,71 166,71 170,69 174,66 178,65 182,66 186,64 190,67 194,66 198,63 202,66 206,65 210,65 214,64 218,64 222,64 226,63 231,62 235,65 239,68 243,67 247,66 251,64 255,61 259,59 263,63 267,68 271,71 275,74 279,76 283,77 287,75 291,73 295,74 300,76 304,77 308,80 312,81 316,84 320,86 324,89 328,92 332,92 336,92 340,92 344,91 348,90 352,90 357,89 361,88 365,88 369,88 373,87 377,86 381,83 385,81 389,85 393,87 397,86 401,85 406,87 410,86 414,85 418,85 419,85 419,100 0,100" fill="url(#grad)" stroke="none" />
<polyline points="0,82 4,81 8,80 12,78 16,75 20,71 24,71 28,74 32,69 36,64 40,59 44,60 48,60 52,61 56,60 60,58 64,56 68,57 72,56 76,57 80,56 84,58 89,61 93,62 97,62 101,62 105,64 109,66 113,67 117,64 121,63 125,62 129,64 133,64 137,67 141,71 145,73 149,77 153,78 158,73 162,71 166,71 170,69 174,66 178,65 182,66 186,64 190,67 194,66 198,63 202,66 206,65 210,65 214,64 218,64 222,64 226,63 231,62 235,65 239,68 243,67 247,66 251,64 255,61 259,59 263,63 267,68 271,71 275,74 279,76 283,77 287,75 291,73 295,74 300,76 304,77 308,80 312,81 316,84 320,86 324,89 328,92 332,92 336,92 340,92 344,91 348,90 352,90 357,89 361,88 365,88 369,88 373,87 377,86 381,83 385,81 389,85 393,87 397,86 401,85 406,87 410,86 414,85 418,85 419,85" stroke="#2963da" fill="none" stroke-width="3" stroke-linejoin="round" stroke-linecap="round" />
</svg>