<svg width="419" height="100" viewBox="0 0 419 100" xmlns="http://www.w3.org/2000/svg" xmlns:xlink="http://www.w3.org/1999/xlink"><defs>
<linearGradient id="grad" x1="0%" y1="0%" x2="0%" y2="100%">
<stop offset="0%" stop-color="#2963da" stop-opacity="0.40"/>
<stop offset="100%" stop-color="#070720" stop-opacity="0.20"/>
</linearGradient>
</defs>
<rect x="0" y="0" width="419" height="100" fill="none" />
<polygon points="0,92 4,92 8,92 12,92 16,92 20,92 24,92 28,92 32,92 37,91 41,91 45,90 49,89 53,89 57,88 61,86 65,85 69,87 73,90 77,91 81,92 86,92 90,92 94,92 98,92 102,92 106,92 110,92 114,92 118,91 122,91 126,91 130,92 134,92 139,92 143,92 147,92 151,92 155,92 159,92 163,92 167,92 171,91 175,87 179,91 184,92 188,92 192,92 196,92 200,91 204,88 208,83 212,84 216,85 220,87 225,88 229,83 233,86 237,82 241,78 245,75 249,73 253,75 257,81 261,86 265,91 269,92 274,88 278,84 282,79 286,72 290,69 294,70 298,70 302,70 306,70 310,71 314,76 319,77 323,81 327,81 331,84 335,89 339,92 343,91 347,91 351,87 355,80 359,79 363,85 367,88 372,89 376,90 380,92 384,88 388,83 392,79 396,85 400,89 404,92 408,92 412,92 417,92 419,92 419,100 0,100" fill="url(#grad)" stroke="none" />
<polyline points="0,92 4,92 8,92 12,92 16,92 20,92 24,92 28,92 32,92 37,91 41,91 45,90 49,89 53,89 57,88 61,86 65,85 69,87 73,90 77,91 81,92 86,92 90,92 94,92 98,92 102,92 106,92 110,92 114,92 118,91 122,91 126,91 130,92 134,92 139,92 143,92 147,92 151,92 155,92 159,92 163,92 167,92 171,91 175,87 179,91 184,92 188,92 192,92 196,92 200,91 204,88 208,83 212,84 216,85 220,87 225,88 229,83 233,86 237,82 241,78 245,75 249,73 253,75 257,81 261,86 265,91 269,92 274,88 278,84 282,79 286,72 290,69 294,70 298,70 302,70 306,70 310,71 314,76 319,77 323,81 327,81 331,84 335,89 339,92 343,91 347,91 351,87 355,80 359,79 363,85 367,88 372,89 376,90 380,92 384,88 388,83 392,79 396,85 400,89 404,92 408,92 412,92 417,92 419,92" stroke="#2963da" fill="none" stroke-width="3" stroke-linejoin="round" stroke-linecap="round" />
</svg>