<svg width="419" height="100" viewBox="0 0 419 100" xmlns="http://www.w3.org/2000/svg" xmlns:xlink="http://www.w3.org/1999/xlink"><defs>
<linearGradient id="grad" x1="0%" y1="0%" x2="0%" y2="100%">
<stop offset="0%" stop-color="#2963da" stop-opacity="0.40"/>
<stop offset="100%" stop-color="#070720" stop-opacity="0.20"/>
</linearGradient>
</defs>
<rect x="0" y="0" width="419" height="100" fill="none" />
<polygon points="0,92 4,89 8,85 12,84 16,85 20,87 24,85 28,87 32,89 36,90 41,87 45,86 49,83 53,83 57,86 61,88 65,84 69,82 73,81 77,78 81,77 86,77 90,76 94,77 98,75 103,74 107,70 111,71 115,72 119,74 124,77 128,78 132,82 136,78 141,79 145,77 149,76 153,75 157,76 161,76 166,77 170,79 174,77 178,79 182,82 186,83 190,80 194,78 198,81 203,83 207,86 211,82 215,77 219,76 223,74 227,72 231,71 235,70 240,72 244,75 248,77 253,79 257,81 261,81 265,82 269,82 273,81 277,78 281,82 285,82 289,83 294,77 298,76 302,77 306,79 310,81 314,76 318,75 322,79 326,81 330,86 334,84 338,82 343,81 347,81 351,81 355,84 359,89 363,86 367,87 371,84 375,86 380,87 384,86 388,87 392,91 396,89 400,87 405,85 409,86 413,89 417,92 419,92 419,100 0,100" fill="url(#grad)" stroke="none" />
<polyline points="0,92 4,89 8,85 12,84 16,85 20,87 24,85 28,87 32,89 36,90 41,87 45,86 49,83 53,83 57,86 61,88 65,84 69,82 73,81 77,78 81,77 86,77 90,76 94,77 98,75 103,74 107,70 111,71 115,72 119,74 124,77 128,78 132,82 136,78 141,79 145,77 149,76 153,75 157,76 161,76 166,77 170,79 174,77 178,79 182,82 186,83 190,80 194,78 198,81 203,83 207,86 211,82 215,77 219,76 223,74 227,72 231,71 235,70 240,72 244,75 248,77 253,79 257,81 261,81 265,82 269,82 273,81 277,78 281,82 285,82 289,83 294,77 298,76 302,77 306,79 310,81 314,76 318,75 322,79 326,81 330,86 334,84 338,82 343,81 347,81 351,81 355,84 359,89 363,86 367,87 371,84 375,86 380,87 384,86 388,87 392,91 396,89 400,87 405,85 409,86 413,89 417,92 419,92" stroke="#2963da" fill="none" stroke-width="3" stroke-linejoin="round" stroke-linecap="round" />
</svg>