<svg width="419" height="100" viewBox="0 0 419 100" xmlns="http://www.w3.org/2000/svg" xmlns:xlink="http://www.w3.org/1999/xlink"><defs>
<linearGradient id="grad" x1="0%" y1="0%" x2="0%" y2="100%">
<stop offset="0%" stop-color="#2963da" stop-opacity="0.40"/>
<stop offset="100%" stop-color="#070720" stop-opacity="0.20"/>
</linearGradient>
</defs>
<rect x="0" y="0" width="419" height="100" fill="none" />
<polygon points="0,92 4,92 8,92 12,92 16,92 20,92 25,92 29,92 34,92 38,92 43,92 47,92 52,92 56,92 60,92 65,92 69,92 73,92 78,92 82,92 87,92 91,92 95,92 99,92 104,92 108,92 113,92 117,92 121,92 126,92 130,92 135,92 139,92 143,92 147,92 152,92 156,92 160,92 165,92 169,92 173,92 177,92 182,92 186,92 191,92 195,92 199,92 204,92 208,92 212,92 216,92 220,92 225,92 229,92 233,92 237,92 242,92 246,92 250,92 255,92 259,92 264,92 268,92 272,92 277,92 281,92 285,92 290,92 294,92 299,92 303,92 307,92 311,92 315,92 319,92 324,92 328,92 333,92 337,92 341,92 346,92 350,92 354,92 359,92 363,92 367,92 371,92 375,92 380,92 384,92 388,92 393,92 397,92 401,92 406,92 410,92 414,92 418,92 419,92 419,100 0,100" fill="url(#grad)" stroke="none" />
<polyline points="0,92 4,92 8,92 12,92 16,92 20,92 25,92 29,92 34,92 38,92 43,92 47,92 52,92 56,92 60,92 65,92 69,92 73,92 78,92 82,92 87,92 91,92 95,92 99,92 104,92 108,92 113,92 117,92 121,92 126,92 130,92 135,92 139,92 143,92 147,92 152,92 156,92 160,92 165,92 169,92 173,92 177,92 182,92 186,92 191,92 195,92 199,92 204,92 208,92 212,92 216,92 220,92 225,92 229,92 233,92 237,92 242,92 246,92 250,92 255,92 259,92 264,92 268,92 272,92 277,92 281,92 285,92 290,92 294,92 299,92 303,92 307,92 311,92 315,92 319,92 324,92 328,92 333,92 337,92 341,92 346,92 350,92 354,92 359,92 363,92 367,92 371,92 375,92 380,92 384,92 388,92 393,92 397,92 401,92 406,92 410,92 414,92 418,92 419,92" stroke="#2963da" fill="none" stroke-width="3" stroke-linejoin="round" stroke-linecap="round" />
</svg>