<svg width="419" height="100" viewBox="0 0 419 100" xmlns="http://www.w3.org/2000/svg" xmlns:xlink="http://www.w3.org/1999/xlink"><defs>
<linearGradient id="grad" x1="0%" y1="0%" x2="0%" y2="100%">
<stop offset="0%" stop-color="#2963da" stop-opacity="0.40"/>
<stop offset="100%" stop-color="#070720" stop-opacity="0.20"/>
</linearGradient>
</defs>
<rect x="0" y="0" width="419" height="100" fill="none" />
<polygon points="0,92 4,92 8,90 12,90 16,88 20,88 24,86 28,84 33,81 37,80 41,79 45,80 49,80 54,82 58,84 63,84 67,84 71,82 75,81 79,79 84,77 88,76 92,76 96,77 100,74 104,72 108,73 112,73 117,75 121,77 126,78 130,76 134,76 138,72 142,76 146,79 151,82 155,86 159,89 163,88 167,85 172,85 176,87 180,90 184,92 188,90 192,88 196,85 200,84 205,82 209,79 213,81 217,84 221,84 225,82 229,80 233,76 237,72 242,69 246,66 250,62 254,63 258,66 262,68 266,72 271,76 275,79 279,81 283,80 287,81 291,83 295,82 300,80 304,80 308,82 312,81 316,81 320,83 324,82 328,82 333,83 337,81 341,77 345,77 349,74 353,70 357,67 361,68 365,70 369,72 373,74 377,73 382,71 386,71 390,67 394,63 398,60 402,56 406,52 410,45 414,40 418,38 419,38 419,100 0,100" fill="url(#grad)" stroke="none" />
<polyline points="0,92 4,92 8,90 12,90 16,88 20,88 24,86 28,84 33,81 37,80 41,79 45,80 49,80 54,82 58,84 63,84 67,84 71,82 75,81 79,79 84,77 88,76 92,76 96,77 100,74 104,72 108,73 112,73 117,75 121,77 126,78 130,76 134,76 138,72 142,76 146,79 151,82 155,86 159,89 163,88 167,85 172,85 176,87 180,90 184,92 188,90 192,88 196,85 200,84 205,82 209,79 213,81 217,84 221,84 225,82 229,80 233,76 237,72 242,69 246,66 250,62 254,63 258,66 262,68 266,72 271,76 275,79 279,81 283,80 287,81 291,83 295,82 300,80 304,80 308,82 312,81 316,81 320,83 324,82 328,82 333,83 337,81 341,77 345,77 349,74 353,70 357,67 361,68 365,70 369,72 373,74 377,73 382,71 386,71 390,67 394,63 398,60 402,56 406,52 410,45 414,40 418,38 419,38" stroke="#2963da" fill="none" stroke-width="3" stroke-linejoin="round" stroke-linecap="round" />
</svg>