<svg width="419" height="100" viewBox="0 0 419 100" xmlns="http://www.w3.org/2000/svg" xmlns:xlink="http://www.w3.org/1999/xlink"><defs>
<linearGradient id="grad" x1="0%" y1="0%" x2="0%" y2="100%">
<stop offset="0%" stop-color="#2963da" stop-opacity="0.40"/>
<stop offset="100%" stop-color="#070720" stop-opacity="0.20"/>
</linearGradient>
</defs>
<rect x="0" y="0" width="419" height="100" fill="none" />
<polygon points="0,84 4,82 8,81 12,78 16,81 20,85 24,87 28,88 33,89 37,89 41,89 45,88 49,87 53,86 57,84 62,81 67,79 71,78 75,77 79,77 83,78 87,79 91,83 95,86 99,88 104,88 108,84 112,81 117,80 121,80 125,81 129,83 133,79 137,78 141,77 145,77 150,76 154,77 158,80 162,82 166,84 170,87 174,86 178,84 183,82 187,78 191,76 195,74 199,75 204,77 208,79 212,82 216,82 220,85 224,86 228,82 232,80 236,79 241,78 245,79 249,79 253,83 257,82 262,83 266,80 270,80 274,81 278,82 282,84 286,83 290,85 295,85 299,82 303,80 307,78 311,76 315,76 319,76 323,75 328,78 332,81 336,85 340,88 344,91 348,92 352,92 356,92 360,92 365,92 369,92 373,92 377,91 381,91 385,89 389,85 393,81 397,76 401,74 405,70 409,66 414,60 418,57 419,57 419,100 0,100" fill="url(#grad)" stroke="none" />
<polyline points="0,84 4,82 8,81 12,78 16,81 20,85 24,87 28,88 33,89 37,89 41,89 45,88 49,87 53,86 57,84 62,81 67,79 71,78 75,77 79,77 83,78 87,79 91,83 95,86 99,88 104,88 108,84 112,81 117,80 121,80 125,81 129,83 133,79 137,78 141,77 145,77 150,76 154,77 158,80 162,82 166,84 170,87 174,86 178,84 183,82 187,78 191,76 195,74 199,75 204,77 208,79 212,82 216,82 220,85 224,86 228,82 232,80 236,79 241,78 245,79 249,79 253,83 257,82 262,83 266,80 270,80 274,81 278,82 282,84 286,83 290,85 295,85 299,82 303,80 307,78 311,76 315,76 319,76 323,75 328,78 332,81 336,85 340,88 344,91 348,92 352,92 356,92 360,92 365,92 369,92 373,92 377,91 381,91 385,89 389,85 393,81 397,76 401,74 405,70 409,66 414,60 418,57 419,57" stroke="#2963da" fill="none" stroke-width="3" stroke-linejoin="round" stroke-linecap="round" />
</svg>