<svg width="419" height="100" viewBox="0 0 419 100" xmlns="http://www.w3.org/2000/svg" xmlns:xlink="http://www.w3.org/1999/xlink"><defs>
<linearGradient id="grad" x1="0%" y1="0%" x2="0%" y2="100%">
<stop offset="0%" stop-color="#2963da" stop-opacity="0.40"/>
<stop offset="100%" stop-color="#070720" stop-opacity="0.20"/>
</linearGradient>
</defs>
<rect x="0" y="0" width="419" height="100" fill="none" />
<polygon points="0,91 4,91 8,90 12,90 16,90 20,89 24,86 28,82 32,82 36,84 40,87 44,86 49,89 53,92 57,92 61,92 65,92 69,92 73,92 78,92 82,92 86,91 90,92 94,91 98,91 102,91 106,91 110,87 114,87 118,83 122,83 127,88 131,92 135,92 139,90 143,85 147,82 151,84 155,86 159,89 163,91 168,92 172,92 176,92 180,91 184,90 188,86 192,86 196,88 200,92 204,92 208,89 212,86 217,85 221,84 225,85 229,89 233,91 237,91 241,91 245,91 249,88 253,82 257,79 261,79 265,77 270,78 274,81 278,83 282,87 286,92 290,92 294,91 298,91 303,90 307,89 311,89 315,90 319,90 323,90 327,91 332,91 336,90 340,85 344,79 348,78 352,80 356,82 360,86 364,91 368,92 372,92 376,91 380,91 385,90 389,89 393,83 397,80 401,85 405,88 409,91 413,91 417,89 419,87 419,100 0,100" fill="url(#grad)" stroke="none" />
<polyline points="0,91 4,91 8,90 12,90 16,90 20,89 24,86 28,82 32,82 36,84 40,87 44,86 49,89 53,92 57,92 61,92 65,92 69,92 73,92 78,92 82,92 86,91 90,92 94,91 98,91 102,91 106,91 110,87 114,87 118,83 122,83 127,88 131,92 135,92 139,90 143,85 147,82 151,84 155,86 159,89 163,91 168,92 172,92 176,92 180,91 184,90 188,86 192,86 196,88 200,92 204,92 208,89 212,86 217,85 221,84 225,85 229,89 233,91 237,91 241,91 245,91 249,88 253,82 257,79 261,79 265,77 270,78 274,81 278,83 282,87 286,92 290,92 294,91 298,91 303,90 307,89 311,89 315,90 319,90 323,90 327,91 332,91 336,90 340,85 344,79 348,78 352,80 356,82 360,86 364,91 368,92 372,92 376,91 380,91 385,90 389,89 393,83 397,80 401,85 405,88 409,91 413,91 417,89 419,87" stroke="#2963da" fill="none" stroke-width="3" stroke-linejoin="round" stroke-linecap="round" />
</svg>