<svg width="419" height="100" viewBox="0 0 419 100" xmlns="http://www.w3.org/2000/svg" xmlns:xlink="http://www.w3.org/1999/xlink"><defs>
<linearGradient id="grad" x1="0%" y1="0%" x2="0%" y2="100%">
<stop offset="0%" stop-color="#2963da" stop-opacity="0.40"/>
<stop offset="100%" stop-color="#070720" stop-opacity="0.20"/>
</linearGradient>
</defs>
<rect x="0" y="0" width="419" height="100" fill="none" />
<polygon points="0,79 4,81 8,82 12,83 18,84 22,85 26,89 30,87 35,88 39,91 43,91 47,91 51,91 55,91 59,91 63,91 67,91 71,89 75,87 79,88 83,87 88,87 92,86 96,85 100,85 104,84 108,83 112,83 116,85 120,87 124,87 128,87 133,89 137,90 141,91 145,92 149,92 153,92 157,92 162,92 166,92 170,92 174,92 178,92 182,92 187,92 191,92 195,92 199,92 203,92 208,92 212,92 216,92 220,92 224,92 228,92 232,92 236,92 240,92 244,92 248,92 252,92 256,92 261,92 265,92 269,92 273,92 277,92 281,92 285,90 289,87 293,86 297,88 302,91 306,92 310,92 314,91 318,86 322,85 326,84 330,85 334,88 339,87 343,85 347,86 351,88 355,83 359,79 363,80 367,83 371,85 376,87 380,88 384,88 388,91 392,92 396,92 400,92 404,92 408,92 412,92 416,92 419,92 419,100 0,100" fill="url(#grad)" stroke="none" />
<polyline points="0,79 4,81 8,82 12,83 18,84 22,85 26,89 30,87 35,88 39,91 43,91 47,91 51,91 55,91 59,91 63,91 67,91 71,89 75,87 79,88 83,87 88,87 92,86 96,85 100,85 104,84 108,83 112,83 116,85 120,87 124,87 128,87 133,89 137,90 141,91 145,92 149,92 153,92 157,92 162,92 166,92 170,92 174,92 178,92 182,92 187,92 191,92 195,92 199,92 203,92 208,92 212,92 216,92 220,92 224,92 228,92 232,92 236,92 240,92 244,92 248,92 252,92 256,92 261,92 265,92 269,92 273,92 277,92 281,92 285,90 289,87 293,86 297,88 302,91 306,92 310,92 314,91 318,86 322,85 326,84 330,85 334,88 339,87 343,85 347,86 351,88 355,83 359,79 363,80 367,83 371,85 376,87 380,88 384,88 388,91 392,92 396,92 400,92 404,92 408,92 412,92 416,92 419,92" stroke="#2963da" fill="none" stroke-width="3" stroke-linejoin="round" stroke-linecap="round" />
</svg>