<svg width="419" height="100" viewBox="0 0 419 100" xmlns="http://www.w3.org/2000/svg" xmlns:xlink="http://www.w3.org/1999/xlink"><defs>
<linearGradient id="grad" x1="0%" y1="0%" x2="0%" y2="100%">
<stop offset="0%" stop-color="#2963da" stop-opacity="0.40"/>
<stop offset="100%" stop-color="#070720" stop-opacity="0.20"/>
</linearGradient>
</defs>
<rect x="0" y="0" width="419" height="100" fill="none" />
<polygon points="0,92 4,92 8,92 13,92 17,92 22,92 27,92 31,92 36,92 40,92 44,92 50,92 54,92 58,92 65,92 70,92 75,92 79,92 84,92 89,92 93,92 98,92 103,92 107,92 112,92 116,92 121,92 125,92 129,92 133,92 137,92 142,92 147,92 151,92 155,92 160,92 164,91 168,90 172,89 176,89 181,88 185,87 189,87 193,87 197,86 201,86 205,86 210,86 214,86 218,87 222,87 226,88 230,88 235,89 239,89 243,89 247,89 251,88 256,88 260,88 264,88 269,88 273,89 277,89 281,89 287,89 292,89 296,89 301,90 305,90 309,90 314,90 318,90 322,90 326,90 330,91 335,91 339,91 343,91 348,91 352,91 356,91 361,91 365,91 369,91 373,91 378,91 382,91 386,91 390,91 394,92 399,91 403,91 408,92 412,92 416,92 419,91 419,100 0,100" fill="url(#grad)" stroke="none" />
<polyline points="0,92 4,92 8,92 13,92 17,92 22,92 27,92 31,92 36,92 40,92 44,92 50,92 54,92 58,92 65,92 70,92 75,92 79,92 84,92 89,92 93,92 98,92 103,92 107,92 112,92 116,92 121,92 125,92 129,92 133,92 137,92 142,92 147,92 151,92 155,92 160,92 164,91 168,90 172,89 176,89 181,88 185,87 189,87 193,87 197,86 201,86 205,86 210,86 214,86 218,87 222,87 226,88 230,88 235,89 239,89 243,89 247,89 251,88 256,88 260,88 264,88 269,88 273,89 277,89 281,89 287,89 292,89 296,89 301,90 305,90 309,90 314,90 318,90 322,90 326,90 330,91 335,91 339,91 343,91 348,91 352,91 356,91 361,91 365,91 369,91 373,91 378,91 382,91 386,91 390,91 394,92 399,91 403,91 408,92 412,92 416,92 419,91" stroke="#2963da" fill="none" stroke-width="3" stroke-linejoin="round" stroke-linecap="round" />
</svg>