<svg width="419" height="100" viewBox="0 0 419 100" xmlns="http://www.w3.org/2000/svg" xmlns:xlink="http://www.w3.org/1999/xlink"><defs>
<linearGradient id="grad" x1="0%" y1="0%" x2="0%" y2="100%">
<stop offset="0%" stop-color="#2963da" stop-opacity="0.40"/>
<stop offset="100%" stop-color="#070720" stop-opacity="0.20"/>
</linearGradient>
</defs>
<rect x="0" y="0" width="419" height="100" fill="none" />
<polygon points="0,92 28,92 42,92 56,92 70,92 84,92 90,92 94,92 99,92 105,92 110,92 115,92 121,92 141,92 156,92 160,92 192,92 196,92 200,92 209,92 214,92 218,92 224,92 231,92 238,92 244,92 250,92 258,92 272,92 287,92 301,92 307,92 311,92 316,92 321,92 326,92 331,92 336,92 340,92 347,92 353,92 358,92 363,92 369,92 374,92 379,92 383,92 390,92 396,92 401,92 406,92 411,92 415,92 419,92 419,100 0,100" fill="url(#grad)" stroke="none" />
<polyline points="0,92 28,92 42,92 56,92 70,92 84,92 90,92 94,92 99,92 105,92 110,92 115,92 121,92 141,92 156,92 160,92 192,92 196,92 200,92 209,92 214,92 218,92 224,92 231,92 238,92 244,92 250,92 258,92 272,92 287,92 301,92 307,92 311,92 316,92 321,92 326,92 331,92 336,92 340,92 347,92 353,92 358,92 363,92 369,92 374,92 379,92 383,92 390,92 396,92 401,92 406,92 411,92 415,92 419,92" stroke="#2963da" fill="none" stroke-width="3" stroke-linejoin="round" stroke-linecap="round" />
</svg>