<svg width="419" height="100" viewBox="0 0 419 100" xmlns="http://www.w3.org/2000/svg" xmlns:xlink="http://www.w3.org/1999/xlink"><defs>
<linearGradient id="grad" x1="0%" y1="0%" x2="0%" y2="100%">
<stop offset="0%" stop-color="#2963da" stop-opacity="0.40"/>
<stop offset="100%" stop-color="#070720" stop-opacity="0.20"/>
</linearGradient>
</defs>
<rect x="0" y="0" width="419" height="100" fill="none" />
<polygon points="0,91 4,90 8,90 12,89 16,88 20,87 24,86 28,81 32,80 36,71 40,81 45,82 49,83 53,85 57,85 61,86 65,86 69,87 73,88 77,88 81,89 85,90 89,90 93,90 98,91 102,91 106,92 110,92 114,92 118,92 122,92 126,92 130,92 135,92 139,92 143,92 147,92 151,92 155,92 159,92 164,92 168,92 172,92 176,92 180,92 184,92 188,92 192,91 196,92 200,92 205,92 209,92 213,92 217,91 221,92 225,92 229,91 233,89 237,87 241,84 246,80 250,79 254,76 258,72 262,75 266,76 270,78 274,78 278,76 282,75 286,70 290,66 295,63 299,66 303,65 307,64 311,67 315,68 319,68 323,72 327,77 331,78 335,79 339,81 344,84 348,84 352,85 356,85 360,86 364,85 368,86 372,86 376,86 381,87 385,85 389,84 393,87 397,86 401,85 405,84 409,85 414,85 418,84 419,84 419,100 0,100" fill="url(#grad)" stroke="none" />
<polyline points="0,91 4,90 8,90 12,89 16,88 20,87 24,86 28,81 32,80 36,71 40,81 45,82 49,83 53,85 57,85 61,86 65,86 69,87 73,88 77,88 81,89 85,90 89,90 93,90 98,91 102,91 106,92 110,92 114,92 118,92 122,92 126,92 130,92 135,92 139,92 143,92 147,92 151,92 155,92 159,92 164,92 168,92 172,92 176,92 180,92 184,92 188,92 192,91 196,92 200,92 205,92 209,92 213,92 217,91 221,92 225,92 229,91 233,89 237,87 241,84 246,80 250,79 254,76 258,72 262,75 266,76 270,78 274,78 278,76 282,75 286,70 290,66 295,63 299,66 303,65 307,64 311,67 315,68 319,68 323,72 327,77 331,78 335,79 339,81 344,84 348,84 352,85 356,85 360,86 364,85 368,86 372,86 376,86 381,87 385,85 389,84 393,87 397,86 401,85 405,84 409,85 414,85 418,84 419,84" stroke="#2963da" fill="none" stroke-width="3" stroke-linejoin="round" stroke-linecap="round" />
</svg>