<svg width="419" height="100" viewBox="0 0 419 100" xmlns="http://www.w3.org/2000/svg" xmlns:xlink="http://www.w3.org/1999/xlink"><defs>
<linearGradient id="grad" x1="0%" y1="0%" x2="0%" y2="100%">
<stop offset="0%" stop-color="#2963da" stop-opacity="0.40"/>
<stop offset="100%" stop-color="#070720" stop-opacity="0.20"/>
</linearGradient>
</defs>
<rect x="0" y="0" width="419" height="100" fill="none" />
<polygon points="0,88 4,87 8,86 12,86 16,86 20,88 24,88 28,89 32,89 36,90 40,90 44,90 48,92 52,92 56,92 60,91 65,91 69,91 73,91 77,90 81,91 85,91 89,91 93,91 97,91 101,91 105,90 109,89 113,88 117,89 121,89 125,87 129,85 133,85 138,84 142,82 146,80 150,80 154,79 158,79 162,79 166,78 170,78 174,78 178,77 182,77 186,77 190,77 194,78 198,80 203,81 207,82 211,83 215,83 219,84 223,87 227,87 231,84 235,83 239,83 243,84 247,85 251,85 255,85 259,83 263,86 267,84 271,86 276,86 280,86 284,86 288,87 292,87 296,88 300,88 304,89 308,89 312,89 316,89 320,89 324,89 328,89 332,89 336,89 340,89 345,89 349,89 353,89 357,89 361,89 365,89 369,89 373,90 377,90 381,89 385,90 389,89 393,90 397,91 401,92 405,92 409,92 414,92 418,92 419,92 419,100 0,100" fill="url(#grad)" stroke="none" />
<polyline points="0,88 4,87 8,86 12,86 16,86 20,88 24,88 28,89 32,89 36,90 40,90 44,90 48,92 52,92 56,92 60,91 65,91 69,91 73,91 77,90 81,91 85,91 89,91 93,91 97,91 101,91 105,90 109,89 113,88 117,89 121,89 125,87 129,85 133,85 138,84 142,82 146,80 150,80 154,79 158,79 162,79 166,78 170,78 174,78 178,77 182,77 186,77 190,77 194,78 198,80 203,81 207,82 211,83 215,83 219,84 223,87 227,87 231,84 235,83 239,83 243,84 247,85 251,85 255,85 259,83 263,86 267,84 271,86 276,86 280,86 284,86 288,87 292,87 296,88 300,88 304,89 308,89 312,89 316,89 320,89 324,89 328,89 332,89 336,89 340,89 345,89 349,89 353,89 357,89 361,89 365,89 369,89 373,90 377,90 381,89 385,90 389,89 393,90 397,91 401,92 405,92 409,92 414,92 418,92 419,92" stroke="#2963da" fill="none" stroke-width="3" stroke-linejoin="round" stroke-linecap="round" />
</svg>