<svg width="419" height="100" viewBox="0 0 419 100" xmlns="http://www.w3.org/2000/svg" xmlns:xlink="http://www.w3.org/1999/xlink"><defs>
<linearGradient id="grad" x1="0%" y1="0%" x2="0%" y2="100%">
<stop offset="0%" stop-color="#2963da" stop-opacity="0.40"/>
<stop offset="100%" stop-color="#070720" stop-opacity="0.20"/>
</linearGradient>
</defs>
<rect x="0" y="0" width="419" height="100" fill="none" />
<polygon points="0,92 4,92 8,92 12,92 16,92 20,92 24,87 28,89 32,90 36,90 40,92 44,92 48,92 52,92 56,92 60,92 64,92 68,92 72,92 77,92 81,92 85,92 89,92 93,91 97,92 101,92 105,90 109,87 113,89 117,89 121,91 125,92 129,92 133,92 137,92 141,92 145,92 149,92 154,92 158,92 162,92 166,92 170,92 174,92 178,92 182,92 186,92 190,89 194,88 198,89 202,89 206,91 210,92 214,92 218,92 222,92 226,92 231,92 235,92 239,92 243,92 247,92 251,92 255,92 259,92 263,92 267,92 271,92 275,88 279,89 283,90 287,89 291,91 295,92 299,92 303,92 307,92 312,92 316,92 320,92 324,92 328,92 332,92 336,92 340,92 344,92 348,92 352,92 356,92 360,87 364,89 368,90 372,90 376,91 380,92 384,92 388,92 393,92 397,92 401,92 405,92 409,92 413,92 417,92 419,92 419,100 0,100" fill="url(#grad)" stroke="none" />
<polyline points="0,92 4,92 8,92 12,92 16,92 20,92 24,87 28,89 32,90 36,90 40,92 44,92 48,92 52,92 56,92 60,92 64,92 68,92 72,92 77,92 81,92 85,92 89,92 93,91 97,92 101,92 105,90 109,87 113,89 117,89 121,91 125,92 129,92 133,92 137,92 141,92 145,92 149,92 154,92 158,92 162,92 166,92 170,92 174,92 178,92 182,92 186,92 190,89 194,88 198,89 202,89 206,91 210,92 214,92 218,92 222,92 226,92 231,92 235,92 239,92 243,92 247,92 251,92 255,92 259,92 263,92 267,92 271,92 275,88 279,89 283,90 287,89 291,91 295,92 299,92 303,92 307,92 312,92 316,92 320,92 324,92 328,92 332,92 336,92 340,92 344,92 348,92 352,92 356,92 360,87 364,89 368,90 372,90 376,91 380,92 384,92 388,92 393,92 397,92 401,92 405,92 409,92 413,92 417,92 419,92" stroke="#2963da" fill="none" stroke-width="3" stroke-linejoin="round" stroke-linecap="round" />
</svg>