<svg width="419" height="100" viewBox="0 0 419 100" xmlns="http://www.w3.org/2000/svg" xmlns:xlink="http://www.w3.org/1999/xlink"><defs>
<linearGradient id="grad" x1="0%" y1="0%" x2="0%" y2="100%">
<stop offset="0%" stop-color="#2963da" stop-opacity="0.40"/>
<stop offset="100%" stop-color="#070720" stop-opacity="0.20"/>
</linearGradient>
</defs>
<rect x="0" y="0" width="419" height="100" fill="none" />
<polygon points="0,91 4,91 8,91 12,91 16,91 20,91 24,91 28,92 32,92 36,92 40,91 44,90 48,90 52,88 56,88 60,88 65,88 69,88 73,88 77,88 81,88 85,88 89,88 93,88 97,88 101,88 105,88 109,88 114,88 118,88 122,88 126,88 130,89 134,89 138,89 142,90 146,90 150,90 154,90 158,91 163,92 167,92 171,92 175,92 179,91 183,92 187,92 191,92 195,92 199,92 203,91 207,90 211,90 215,91 220,90 224,89 228,88 232,85 236,85 240,82 244,78 248,75 252,76 256,79 260,82 264,83 268,81 272,78 276,75 280,76 284,77 288,80 293,83 297,85 301,87 305,89 309,88 313,87 317,89 321,88 325,86 329,85 333,87 337,90 341,90 345,90 349,87 353,85 357,81 361,83 365,86 370,89 374,90 378,90 382,91 386,91 390,92 394,92 398,91 402,91 406,91 410,92 414,92 418,92 419,92 419,100 0,100" fill="url(#grad)" stroke="none" />
<polyline points="0,91 4,91 8,91 12,91 16,91 20,91 24,91 28,92 32,92 36,92 40,91 44,90 48,90 52,88 56,88 60,88 65,88 69,88 73,88 77,88 81,88 85,88 89,88 93,88 97,88 101,88 105,88 109,88 114,88 118,88 122,88 126,88 130,89 134,89 138,89 142,90 146,90 150,90 154,90 158,91 163,92 167,92 171,92 175,92 179,91 183,92 187,92 191,92 195,92 199,92 203,91 207,90 211,90 215,91 220,90 224,89 228,88 232,85 236,85 240,82 244,78 248,75 252,76 256,79 260,82 264,83 268,81 272,78 276,75 280,76 284,77 288,80 293,83 297,85 301,87 305,89 309,88 313,87 317,89 321,88 325,86 329,85 333,87 337,90 341,90 345,90 349,87 353,85 357,81 361,83 365,86 370,89 374,90 378,90 382,91 386,91 390,92 394,92 398,91 402,91 406,91 410,92 414,92 418,92 419,92" stroke="#2963da" fill="none" stroke-width="3" stroke-linejoin="round" stroke-linecap="round" />
</svg>