<svg width="419" height="100" viewBox="0 0 419 100" xmlns="http://www.w3.org/2000/svg" xmlns:xlink="http://www.w3.org/1999/xlink"><defs>
<linearGradient id="grad" x1="0%" y1="0%" x2="0%" y2="100%">
<stop offset="0%" stop-color="#2963da" stop-opacity="0.40"/>
<stop offset="100%" stop-color="#070720" stop-opacity="0.20"/>
</linearGradient>
</defs>
<rect x="0" y="0" width="419" height="100" fill="none" />
<polygon points="0,90 4,90 8,91 12,91 16,91 20,91 24,91 28,91 32,91 36,90 40,91 44,91 48,90 52,90 56,90 60,90 64,91 68,90 73,90 77,89 81,90 85,90 89,91 93,91 97,90 101,92 105,91 109,92 113,92 117,91 121,92 125,91 129,92 133,92 138,91 142,91 146,91 150,91 154,91 158,91 162,91 166,90 170,91 174,91 178,90 182,90 186,88 190,88 194,88 198,89 202,89 206,87 210,89 215,89 219,88 223,88 227,88 231,85 235,86 239,88 243,88 247,89 251,89 255,89 260,87 264,87 268,85 272,86 276,85 280,85 284,87 288,86 292,87 297,87 301,89 305,88 309,88 313,87 317,88 321,88 325,88 329,88 334,87 338,85 342,84 346,83 350,82 354,85 358,88 362,88 366,88 370,85 374,87 378,90 382,91 387,91 391,91 395,92 399,92 403,92 407,92 411,92 415,92 419,92 419,100 0,100" fill="url(#grad)" stroke="none" />
<polyline points="0,90 4,90 8,91 12,91 16,91 20,91 24,91 28,91 32,91 36,90 40,91 44,91 48,90 52,90 56,90 60,90 64,91 68,90 73,90 77,89 81,90 85,90 89,91 93,91 97,90 101,92 105,91 109,92 113,92 117,91 121,92 125,91 129,92 133,92 138,91 142,91 146,91 150,91 154,91 158,91 162,91 166,90 170,91 174,91 178,90 182,90 186,88 190,88 194,88 198,89 202,89 206,87 210,89 215,89 219,88 223,88 227,88 231,85 235,86 239,88 243,88 247,89 251,89 255,89 260,87 264,87 268,85 272,86 276,85 280,85 284,87 288,86 292,87 297,87 301,89 305,88 309,88 313,87 317,88 321,88 325,88 329,88 334,87 338,85 342,84 346,83 350,82 354,85 358,88 362,88 366,88 370,85 374,87 378,90 382,91 387,91 391,91 395,92 399,92 403,92 407,92 411,92 415,92 419,92" stroke="#2963da" fill="none" stroke-width="3" stroke-linejoin="round" stroke-linecap="round" />
</svg>