<svg width="419" height="100" viewBox="0 0 419 100" xmlns="http://www.w3.org/2000/svg" xmlns:xlink="http://www.w3.org/1999/xlink"><defs>
<linearGradient id="grad" x1="0%" y1="0%" x2="0%" y2="100%">
<stop offset="0%" stop-color="#2963da" stop-opacity="0.40"/>
<stop offset="100%" stop-color="#070720" stop-opacity="0.20"/>
</linearGradient>
</defs>
<rect x="0" y="0" width="419" height="100" fill="none" />
<polygon points="0,69 4,69 8,70 12,69 16,69 20,68 24,67 28,67 32,67 36,67 40,70 44,72 48,73 52,74 56,74 60,74 64,75 68,73 72,73 76,72 80,72 84,72 88,73 92,73 96,74 100,74 105,75 109,75 113,75 117,76 121,76 125,76 129,76 133,75 137,78 141,78 145,78 149,78 153,77 157,75 161,76 165,77 169,75 173,74 177,74 181,75 185,75 189,76 193,77 197,77 201,77 206,76 210,80 214,82 218,83 222,85 226,89 230,91 234,92 238,92 242,92 246,92 250,92 254,92 258,92 262,92 266,92 270,92 274,92 278,92 282,92 286,89 290,87 294,88 299,87 303,89 307,87 311,85 315,83 319,81 323,81 327,81 331,80 335,76 339,78 343,78 347,78 351,77 355,76 359,78 363,79 367,80 371,84 376,85 380,85 384,86 388,85 392,84 396,82 400,85 404,87 408,87 412,88 416,87 419,88 419,100 0,100" fill="url(#grad)" stroke="none" />
<polyline points="0,69 4,69 8,70 12,69 16,69 20,68 24,67 28,67 32,67 36,67 40,70 44,72 48,73 52,74 56,74 60,74 64,75 68,73 72,73 76,72 80,72 84,72 88,73 92,73 96,74 100,74 105,75 109,75 113,75 117,76 121,76 125,76 129,76 133,75 137,78 141,78 145,78 149,78 153,77 157,75 161,76 165,77 169,75 173,74 177,74 181,75 185,75 189,76 193,77 197,77 201,77 206,76 210,80 214,82 218,83 222,85 226,89 230,91 234,92 238,92 242,92 246,92 250,92 254,92 258,92 262,92 266,92 270,92 274,92 278,92 282,92 286,89 290,87 294,88 299,87 303,89 307,87 311,85 315,83 319,81 323,81 327,81 331,80 335,76 339,78 343,78 347,78 351,77 355,76 359,78 363,79 367,80 371,84 376,85 380,85 384,86 388,85 392,84 396,82 400,85 404,87 408,87 412,88 416,87 419,88" stroke="#2963da" fill="none" stroke-width="3" stroke-linejoin="round" stroke-linecap="round" />
</svg>