<svg width="419" height="100" viewBox="0 0 419 100" xmlns="http://www.w3.org/2000/svg" xmlns:xlink="http://www.w3.org/1999/xlink"><defs>
<linearGradient id="grad" x1="0%" y1="0%" x2="0%" y2="100%">
<stop offset="0%" stop-color="#2963da" stop-opacity="0.40"/>
<stop offset="100%" stop-color="#070720" stop-opacity="0.20"/>
</linearGradient>
</defs>
<rect x="0" y="0" width="419" height="100" fill="none" />
<polygon points="0,82 4,81 8,81 12,81 16,81 20,81 24,82 28,82 32,82 36,82 40,82 44,82 48,80 52,77 57,75 61,75 65,73 69,72 73,72 77,71 81,69 85,67 89,67 93,70 97,73 101,77 105,80 109,81 113,80 117,81 121,80 125,79 130,76 134,72 138,72 142,70 146,68 150,67 154,67 158,69 162,66 166,65 170,65 174,66 178,66 182,65 186,68 190,67 194,64 199,62 203,62 207,60 211,57 215,56 219,57 223,57 227,55 231,55 235,55 239,53 243,54 247,57 251,59 255,62 259,65 264,69 268,72 272,69 276,65 280,62 284,59 288,57 292,56 296,57 300,59 304,62 308,65 312,68 316,70 320,73 324,75 328,78 332,81 337,81 341,80 345,79 349,79 353,80 357,83 361,86 365,86 369,83 373,79 377,78 381,79 385,80 389,82 393,81 397,86 401,90 405,91 409,92 413,92 418,92 419,92 419,100 0,100" fill="url(#grad)" stroke="none" />
<polyline points="0,82 4,81 8,81 12,81 16,81 20,81 24,82 28,82 32,82 36,82 40,82 44,82 48,80 52,77 57,75 61,75 65,73 69,72 73,72 77,71 81,69 85,67 89,67 93,70 97,73 101,77 105,80 109,81 113,80 117,81 121,80 125,79 130,76 134,72 138,72 142,70 146,68 150,67 154,67 158,69 162,66 166,65 170,65 174,66 178,66 182,65 186,68 190,67 194,64 199,62 203,62 207,60 211,57 215,56 219,57 223,57 227,55 231,55 235,55 239,53 243,54 247,57 251,59 255,62 259,65 264,69 268,72 272,69 276,65 280,62 284,59 288,57 292,56 296,57 300,59 304,62 308,65 312,68 316,70 320,73 324,75 328,78 332,81 337,81 341,80 345,79 349,79 353,80 357,83 361,86 365,86 369,83 373,79 377,78 381,79 385,80 389,82 393,81 397,86 401,90 405,91 409,92 413,92 418,92 419,92" stroke="#2963da" fill="none" stroke-width="3" stroke-linejoin="round" stroke-linecap="round" />
</svg>