<svg width="419" height="100" viewBox="0 0 419 100" xmlns="http://www.w3.org/2000/svg" xmlns:xlink="http://www.w3.org/1999/xlink"><defs>
<linearGradient id="grad" x1="0%" y1="0%" x2="0%" y2="100%">
<stop offset="0%" stop-color="#2963da" stop-opacity="0.40"/>
<stop offset="100%" stop-color="#070720" stop-opacity="0.20"/>
</linearGradient>
</defs>
<rect x="0" y="0" width="419" height="100" fill="none" />
<polygon points="0,90 4,90 8,88 12,87 16,87 21,86 25,83 29,81 33,84 37,86 41,84 45,82 49,85 53,86 57,85 62,84 67,83 72,80 76,78 80,74 84,71 88,67 92,64 96,62 100,62 104,61 109,62 113,65 117,69 121,72 125,72 130,72 135,73 139,72 144,75 148,70 152,66 156,63 160,65 164,65 169,68 173,72 177,75 181,78 185,81 189,80 194,79 198,81 202,81 206,82 210,82 215,83 219,82 223,80 227,80 232,83 236,86 240,89 244,91 248,92 252,92 256,92 260,92 265,91 269,89 273,92 277,92 281,92 285,90 289,85 293,81 297,78 301,78 305,81 309,84 313,88 317,90 322,92 326,92 330,92 334,92 338,92 342,92 346,91 350,88 354,83 358,79 362,73 366,67 370,69 374,76 379,80 383,83 387,86 391,89 396,91 400,92 404,92 408,92 412,92 416,92 419,92 419,100 0,100" fill="url(#grad)" stroke="none" />
<polyline points="0,90 4,90 8,88 12,87 16,87 21,86 25,83 29,81 33,84 37,86 41,84 45,82 49,85 53,86 57,85 62,84 67,83 72,80 76,78 80,74 84,71 88,67 92,64 96,62 100,62 104,61 109,62 113,65 117,69 121,72 125,72 130,72 135,73 139,72 144,75 148,70 152,66 156,63 160,65 164,65 169,68 173,72 177,75 181,78 185,81 189,80 194,79 198,81 202,81 206,82 210,82 215,83 219,82 223,80 227,80 232,83 236,86 240,89 244,91 248,92 252,92 256,92 260,92 265,91 269,89 273,92 277,92 281,92 285,90 289,85 293,81 297,78 301,78 305,81 309,84 313,88 317,90 322,92 326,92 330,92 334,92 338,92 342,92 346,91 350,88 354,83 358,79 362,73 366,67 370,69 374,76 379,80 383,83 387,86 391,89 396,91 400,92 404,92 408,92 412,92 416,92 419,92" stroke="#2963da" fill="none" stroke-width="3" stroke-linejoin="round" stroke-linecap="round" />
</svg>