<svg width="419" height="100" viewBox="0 0 419 100" xmlns="http://www.w3.org/2000/svg" xmlns:xlink="http://www.w3.org/1999/xlink"><defs>
<linearGradient id="grad" x1="0%" y1="0%" x2="0%" y2="100%">
<stop offset="0%" stop-color="#2963da" stop-opacity="0.40"/>
<stop offset="100%" stop-color="#070720" stop-opacity="0.20"/>
</linearGradient>
</defs>
<rect x="0" y="0" width="419" height="100" fill="none" />
<polygon points="0,92 4,92 8,92 12,92 16,92 21,92 26,92 30,92 34,92 39,91 43,88 47,85 51,85 55,85 59,85 63,82 67,78 71,79 76,80 80,81 84,84 88,86 92,84 96,85 100,86 105,86 109,85 116,85 120,84 124,80 128,78 133,77 137,79 142,79 147,79 151,81 155,82 162,82 166,82 171,81 175,81 179,81 183,81 189,80 194,80 198,78 202,78 207,78 211,80 215,82 219,83 224,84 228,85 232,86 236,87 241,90 245,90 250,89 255,88 259,88 264,87 268,84 272,81 276,82 281,80 285,81 289,80 293,78 298,77 302,77 306,77 310,79 314,76 318,77 322,79 327,80 331,80 335,80 339,80 344,81 348,80 353,78 357,78 361,78 365,79 369,78 374,78 379,77 383,76 387,75 391,77 395,79 399,79 404,81 408,80 412,79 416,79 419,79 419,100 0,100" fill="url(#grad)" stroke="none" />
<polyline points="0,92 4,92 8,92 12,92 16,92 21,92 26,92 30,92 34,92 39,91 43,88 47,85 51,85 55,85 59,85 63,82 67,78 71,79 76,80 80,81 84,84 88,86 92,84 96,85 100,86 105,86 109,85 116,85 120,84 124,80 128,78 133,77 137,79 142,79 147,79 151,81 155,82 162,82 166,82 171,81 175,81 179,81 183,81 189,80 194,80 198,78 202,78 207,78 211,80 215,82 219,83 224,84 228,85 232,86 236,87 241,90 245,90 250,89 255,88 259,88 264,87 268,84 272,81 276,82 281,80 285,81 289,80 293,78 298,77 302,77 306,77 310,79 314,76 318,77 322,79 327,80 331,80 335,80 339,80 344,81 348,80 353,78 357,78 361,78 365,79 369,78 374,78 379,77 383,76 387,75 391,77 395,79 399,79 404,81 408,80 412,79 416,79 419,79" stroke="#2963da" fill="none" stroke-width="3" stroke-linejoin="round" stroke-linecap="round" />
</svg>