<svg width="419" height="100" viewBox="0 0 419 100" xmlns="http://www.w3.org/2000/svg" xmlns:xlink="http://www.w3.org/1999/xlink"><defs>
<linearGradient id="grad" x1="0%" y1="0%" x2="0%" y2="100%">
<stop offset="0%" stop-color="#2963da" stop-opacity="0.40"/>
<stop offset="100%" stop-color="#070720" stop-opacity="0.20"/>
</linearGradient>
</defs>
<rect x="0" y="0" width="419" height="100" fill="none" />
<polygon points="0,92 4,92 8,92 12,92 16,92 20,92 24,92 28,92 32,92 36,92 40,92 45,92 49,92 53,92 57,91 61,91 66,90 70,91 74,90 78,90 82,91 86,91 90,91 95,91 99,91 103,92 107,91 111,90 115,91 119,90 123,89 127,89 131,89 135,89 140,91 144,92 148,92 152,90 156,92 160,92 164,91 168,91 172,91 176,91 181,92 185,92 189,92 194,92 198,92 202,92 206,92 210,92 214,91 218,91 222,91 226,91 230,90 234,91 239,91 243,91 247,92 251,91 255,90 259,91 263,90 267,89 271,89 276,90 280,89 284,91 288,91 292,92 296,89 300,90 304,90 308,91 312,90 316,90 321,91 325,92 329,90 333,91 337,90 341,90 345,89 349,92 353,89 357,89 361,91 365,91 369,91 373,90 378,90 382,91 386,90 390,90 394,90 398,89 402,90 406,91 410,91 414,91 419,92 419,100 0,100" fill="url(#grad)" stroke="none" />
<polyline points="0,92 4,92 8,92 12,92 16,92 20,92 24,92 28,92 32,92 36,92 40,92 45,92 49,92 53,92 57,91 61,91 66,90 70,91 74,90 78,90 82,91 86,91 90,91 95,91 99,91 103,92 107,91 111,90 115,91 119,90 123,89 127,89 131,89 135,89 140,91 144,92 148,92 152,90 156,92 160,92 164,91 168,91 172,91 176,91 181,92 185,92 189,92 194,92 198,92 202,92 206,92 210,92 214,91 218,91 222,91 226,91 230,90 234,91 239,91 243,91 247,92 251,91 255,90 259,91 263,90 267,89 271,89 276,90 280,89 284,91 288,91 292,92 296,89 300,90 304,90 308,91 312,90 316,90 321,91 325,92 329,90 333,91 337,90 341,90 345,89 349,92 353,89 357,89 361,91 365,91 369,91 373,90 378,90 382,91 386,90 390,90 394,90 398,89 402,90 406,91 410,91 414,91 419,92" stroke="#2963da" fill="none" stroke-width="3" stroke-linejoin="round" stroke-linecap="round" />
</svg>