<svg width="419" height="100" viewBox="0 0 419 100" xmlns="http://www.w3.org/2000/svg" xmlns:xlink="http://www.w3.org/1999/xlink"><defs>
<linearGradient id="grad" x1="0%" y1="0%" x2="0%" y2="100%">
<stop offset="0%" stop-color="#2963da" stop-opacity="0.40"/>
<stop offset="100%" stop-color="#070720" stop-opacity="0.20"/>
</linearGradient>
</defs>
<rect x="0" y="0" width="419" height="100" fill="none" />
<polygon points="0,91 4,92 8,89 12,89 16,92 20,92 24,91 28,92 32,92 36,92 40,91 44,91 48,92 52,92 56,92 60,91 64,89 68,91 73,90 77,90 81,89 85,89 89,88 93,88 97,88 101,89 105,90 109,89 113,90 118,89 122,89 126,85 130,86 134,90 138,89 142,91 147,91 151,90 155,90 159,90 163,89 167,88 171,88 175,88 179,90 183,88 187,88 191,85 195,83 200,85 204,86 208,86 212,85 216,85 220,84 224,84 228,83 232,83 236,83 240,81 244,78 249,78 253,78 257,81 261,84 265,83 269,81 273,81 277,79 281,76 285,76 289,76 293,77 297,75 301,76 305,77 310,75 314,76 318,76 322,76 326,76 330,76 334,76 338,73 342,71 346,70 350,69 354,71 358,76 363,81 367,86 371,87 375,83 379,78 383,76 387,81 391,85 395,82 399,80 403,79 407,79 412,81 416,77 419,75 419,100 0,100" fill="url(#grad)" stroke="none" />
<polyline points="0,91 4,92 8,89 12,89 16,92 20,92 24,91 28,92 32,92 36,92 40,91 44,91 48,92 52,92 56,92 60,91 64,89 68,91 73,90 77,90 81,89 85,89 89,88 93,88 97,88 101,89 105,90 109,89 113,90 118,89 122,89 126,85 130,86 134,90 138,89 142,91 147,91 151,90 155,90 159,90 163,89 167,88 171,88 175,88 179,90 183,88 187,88 191,85 195,83 200,85 204,86 208,86 212,85 216,85 220,84 224,84 228,83 232,83 236,83 240,81 244,78 249,78 253,78 257,81 261,84 265,83 269,81 273,81 277,79 281,76 285,76 289,76 293,77 297,75 301,76 305,77 310,75 314,76 318,76 322,76 326,76 330,76 334,76 338,73 342,71 346,70 350,69 354,71 358,76 363,81 367,86 371,87 375,83 379,78 383,76 387,81 391,85 395,82 399,80 403,79 407,79 412,81 416,77 419,75" stroke="#2963da" fill="none" stroke-width="3" stroke-linejoin="round" stroke-linecap="round" />
</svg>