<svg width="419" height="100" viewBox="0 0 419 100" xmlns="http://www.w3.org/2000/svg" xmlns:xlink="http://www.w3.org/1999/xlink"><defs>
<linearGradient id="grad" x1="0%" y1="0%" x2="0%" y2="100%">
<stop offset="0%" stop-color="#2963da" stop-opacity="0.40"/>
<stop offset="100%" stop-color="#070720" stop-opacity="0.20"/>
</linearGradient>
</defs>
<rect x="0" y="0" width="419" height="100" fill="none" />
<polygon points="0,92 4,92 8,92 12,92 16,92 20,92 24,92 28,92 33,92 37,92 41,92 45,92 49,92 54,92 58,92 62,92 66,92 70,92 74,92 78,92 82,92 86,92 90,92 95,92 99,92 103,92 107,92 111,92 115,92 119,92 123,92 128,92 132,92 136,92 140,92 144,92 148,92 152,92 156,91 161,92 165,92 169,92 173,92 177,92 181,92 185,92 189,92 194,91 198,91 202,91 206,91 210,91 214,91 219,91 223,91 227,91 231,90 235,90 239,90 243,90 247,90 251,89 256,89 260,88 264,88 268,88 272,87 276,86 280,86 284,84 288,84 293,84 297,83 301,81 305,81 309,80 313,79 317,79 321,79 326,77 330,74 334,73 338,73 342,70 346,67 350,68 354,71 358,74 363,77 367,79 371,80 375,81 379,82 383,82 387,83 391,83 396,84 400,85 404,86 408,86 412,86 416,87 419,87 419,100 0,100" fill="url(#grad)" stroke="none" />
<polyline points="0,92 4,92 8,92 12,92 16,92 20,92 24,92 28,92 33,92 37,92 41,92 45,92 49,92 54,92 58,92 62,92 66,92 70,92 74,92 78,92 82,92 86,92 90,92 95,92 99,92 103,92 107,92 111,92 115,92 119,92 123,92 128,92 132,92 136,92 140,92 144,92 148,92 152,92 156,91 161,92 165,92 169,92 173,92 177,92 181,92 185,92 189,92 194,91 198,91 202,91 206,91 210,91 214,91 219,91 223,91 227,91 231,90 235,90 239,90 243,90 247,90 251,89 256,89 260,88 264,88 268,88 272,87 276,86 280,86 284,84 288,84 293,84 297,83 301,81 305,81 309,80 313,79 317,79 321,79 326,77 330,74 334,73 338,73 342,70 346,67 350,68 354,71 358,74 363,77 367,79 371,80 375,81 379,82 383,82 387,83 391,83 396,84 400,85 404,86 408,86 412,86 416,87 419,87" stroke="#2963da" fill="none" stroke-width="3" stroke-linejoin="round" stroke-linecap="round" />
</svg>