<svg width="419" height="100" viewBox="0 0 419 100" xmlns="http://www.w3.org/2000/svg" xmlns:xlink="http://www.w3.org/1999/xlink"><defs>
<linearGradient id="grad" x1="0%" y1="0%" x2="0%" y2="100%">
<stop offset="0%" stop-color="#2963da" stop-opacity="0.40"/>
<stop offset="100%" stop-color="#070720" stop-opacity="0.20"/>
</linearGradient>
</defs>
<rect x="0" y="0" width="419" height="100" fill="none" />
<polygon points="0,88 4,90 8,91 12,91 16,91 20,91 24,90 28,91 32,92 36,92 41,90 45,88 49,85 53,87 57,88 61,90 65,89 69,88 74,88 78,87 82,87 86,86 90,85 94,84 98,84 102,83 106,82 110,80 115,80 119,78 123,78 127,75 131,76 135,77 139,74 143,72 147,72 152,69 156,67 160,68 164,64 168,65 172,69 176,71 180,73 184,74 188,75 192,77 196,77 201,78 205,79 210,80 214,81 218,82 222,79 226,76 230,73 234,70 238,67 242,66 246,60 250,55 254,47 258,43 262,45 266,48 270,52 274,58 279,61 283,64 287,64 291,62 295,61 299,62 303,65 307,69 311,72 315,76 319,79 323,82 327,83 331,83 336,77 340,72 344,67 348,69 352,74 356,79 360,82 364,84 368,83 372,81 376,83 380,82 384,80 388,81 392,83 396,86 401,84 405,82 409,76 413,72 417,67 419,66 419,100 0,100" fill="url(#grad)" stroke="none" />
<polyline points="0,88 4,90 8,91 12,91 16,91 20,91 24,90 28,91 32,92 36,92 41,90 45,88 49,85 53,87 57,88 61,90 65,89 69,88 74,88 78,87 82,87 86,86 90,85 94,84 98,84 102,83 106,82 110,80 115,80 119,78 123,78 127,75 131,76 135,77 139,74 143,72 147,72 152,69 156,67 160,68 164,64 168,65 172,69 176,71 180,73 184,74 188,75 192,77 196,77 201,78 205,79 210,80 214,81 218,82 222,79 226,76 230,73 234,70 238,67 242,66 246,60 250,55 254,47 258,43 262,45 266,48 270,52 274,58 279,61 283,64 287,64 291,62 295,61 299,62 303,65 307,69 311,72 315,76 319,79 323,82 327,83 331,83 336,77 340,72 344,67 348,69 352,74 356,79 360,82 364,84 368,83 372,81 376,83 380,82 384,80 388,81 392,83 396,86 401,84 405,82 409,76 413,72 417,67 419,66" stroke="#2963da" fill="none" stroke-width="3" stroke-linejoin="round" stroke-linecap="round" />
</svg>