<svg width="419" height="100" viewBox="0 0 419 100" xmlns="http://www.w3.org/2000/svg" xmlns:xlink="http://www.w3.org/1999/xlink"><defs>
<linearGradient id="grad" x1="0%" y1="0%" x2="0%" y2="100%">
<stop offset="0%" stop-color="#2963da" stop-opacity="0.40"/>
<stop offset="100%" stop-color="#070720" stop-opacity="0.20"/>
</linearGradient>
</defs>
<rect x="0" y="0" width="419" height="100" fill="none" />
<polygon points="0,65 4,65 8,65 12,66 16,66 20,65 24,63 28,63 32,65 36,66 41,65 45,64 49,62 53,58 57,54 61,51 65,46 69,42 73,41 77,41 82,42 86,44 90,44 94,44 98,43 102,46 106,47 110,49 114,52 118,56 123,60 127,63 131,66 135,69 139,70 143,69 147,66 151,68 156,67 160,68 164,67 168,67 172,65 176,62 180,59 184,55 188,51 192,47 196,44 200,43 205,47 209,49 213,50 217,52 221,55 225,59 229,63 233,66 237,68 241,71 245,73 249,76 253,77 257,79 262,81 266,82 270,83 274,84 278,84 282,85 286,86 290,86 294,87 298,87 302,88 307,88 311,85 315,80 319,75 323,75 327,81 331,83 335,82 339,85 344,88 348,90 352,90 356,89 360,86 364,84 368,85 372,87 376,92 381,89 385,87 389,90 393,87 397,89 401,92 405,92 409,92 413,92 417,92 419,92 419,100 0,100" fill="url(#grad)" stroke="none" />
<polyline points="0,65 4,65 8,65 12,66 16,66 20,65 24,63 28,63 32,65 36,66 41,65 45,64 49,62 53,58 57,54 61,51 65,46 69,42 73,41 77,41 82,42 86,44 90,44 94,44 98,43 102,46 106,47 110,49 114,52 118,56 123,60 127,63 131,66 135,69 139,70 143,69 147,66 151,68 156,67 160,68 164,67 168,67 172,65 176,62 180,59 184,55 188,51 192,47 196,44 200,43 205,47 209,49 213,50 217,52 221,55 225,59 229,63 233,66 237,68 241,71 245,73 249,76 253,77 257,79 262,81 266,82 270,83 274,84 278,84 282,85 286,86 290,86 294,87 298,87 302,88 307,88 311,85 315,80 319,75 323,75 327,81 331,83 335,82 339,85 344,88 348,90 352,90 356,89 360,86 364,84 368,85 372,87 376,92 381,89 385,87 389,90 393,87 397,89 401,92 405,92 409,92 413,92 417,92 419,92" stroke="#2963da" fill="none" stroke-width="3" stroke-linejoin="round" stroke-linecap="round" />
</svg>