<svg width="419" height="100" viewBox="0 0 419 100" xmlns="http://www.w3.org/2000/svg" xmlns:xlink="http://www.w3.org/1999/xlink"><defs>
<linearGradient id="grad" x1="0%" y1="0%" x2="0%" y2="100%">
<stop offset="0%" stop-color="#2963da" stop-opacity="0.40"/>
<stop offset="100%" stop-color="#070720" stop-opacity="0.20"/>
</linearGradient>
</defs>
<rect x="0" y="0" width="419" height="100" fill="none" />
<polygon points="0,90 4,91 8,90 12,91 16,91 20,91 25,90 29,90 33,89 37,89 41,88 45,88 49,86 53,87 57,88 61,88 65,88 69,87 73,87 77,86 82,87 86,89 90,88 95,86 99,87 103,88 107,89 111,89 115,89 119,86 123,86 127,82 131,81 135,81 139,81 143,82 148,81 152,84 156,85 160,86 164,86 168,84 172,84 176,82 180,83 184,84 188,85 192,85 196,88 200,90 204,87 208,83 213,81 217,80 221,80 225,81 229,80 233,81 237,82 241,83 245,80 249,80 253,81 257,79 261,80 265,81 270,81 274,82 278,83 282,82 286,84 290,85 294,90 298,92 302,92 306,92 310,92 315,92 319,92 324,92 328,92 332,92 336,92 340,92 344,89 348,84 352,81 356,83 360,89 365,92 369,92 373,92 377,85 381,83 385,86 389,91 393,91 397,84 401,82 405,85 409,87 413,85 417,82 419,81 419,100 0,100" fill="url(#grad)" stroke="none" />
<polyline points="0,90 4,91 8,90 12,91 16,91 20,91 25,90 29,90 33,89 37,89 41,88 45,88 49,86 53,87 57,88 61,88 65,88 69,87 73,87 77,86 82,87 86,89 90,88 95,86 99,87 103,88 107,89 111,89 115,89 119,86 123,86 127,82 131,81 135,81 139,81 143,82 148,81 152,84 156,85 160,86 164,86 168,84 172,84 176,82 180,83 184,84 188,85 192,85 196,88 200,90 204,87 208,83 213,81 217,80 221,80 225,81 229,80 233,81 237,82 241,83 245,80 249,80 253,81 257,79 261,80 265,81 270,81 274,82 278,83 282,82 286,84 290,85 294,90 298,92 302,92 306,92 310,92 315,92 319,92 324,92 328,92 332,92 336,92 340,92 344,89 348,84 352,81 356,83 360,89 365,92 369,92 373,92 377,85 381,83 385,86 389,91 393,91 397,84 401,82 405,85 409,87 413,85 417,82 419,81" stroke="#2963da" fill="none" stroke-width="3" stroke-linejoin="round" stroke-linecap="round" />
</svg>