<svg width="419" height="100" viewBox="0 0 419 100" xmlns="http://www.w3.org/2000/svg" xmlns:xlink="http://www.w3.org/1999/xlink"><defs>
<linearGradient id="grad" x1="0%" y1="0%" x2="0%" y2="100%">
<stop offset="0%" stop-color="#2963da" stop-opacity="0.40"/>
<stop offset="100%" stop-color="#070720" stop-opacity="0.20"/>
</linearGradient>
</defs>
<rect x="0" y="0" width="419" height="100" fill="none" />
<polygon points="0,92 4,92 9,92 13,92 18,92 22,92 26,92 30,92 34,92 38,92 42,91 46,91 51,91 55,90 59,89 63,88 67,87 71,86 76,87 80,87 84,89 88,89 92,89 96,88 101,88 105,88 109,89 113,90 117,90 121,89 125,89 129,89 133,89 137,89 142,88 146,87 150,86 155,85 159,84 163,85 167,85 171,85 175,86 179,85 184,85 188,85 192,85 196,85 200,84 204,85 208,85 212,84 216,86 220,87 224,87 228,87 233,88 237,88 241,89 245,88 249,89 253,89 257,89 261,90 265,90 269,91 274,91 278,91 282,91 286,92 290,92 294,92 298,92 302,92 307,92 311,92 315,91 319,91 323,90 327,90 331,89 335,89 339,90 344,91 348,91 352,88 356,85 360,81 364,79 368,79 372,78 376,83 380,86 385,88 389,90 393,91 397,91 401,92 405,92 409,92 413,92 417,92 419,92 419,100 0,100" fill="url(#grad)" stroke="none" />
<polyline points="0,92 4,92 9,92 13,92 18,92 22,92 26,92 30,92 34,92 38,92 42,91 46,91 51,91 55,90 59,89 63,88 67,87 71,86 76,87 80,87 84,89 88,89 92,89 96,88 101,88 105,88 109,89 113,90 117,90 121,89 125,89 129,89 133,89 137,89 142,88 146,87 150,86 155,85 159,84 163,85 167,85 171,85 175,86 179,85 184,85 188,85 192,85 196,85 200,84 204,85 208,85 212,84 216,86 220,87 224,87 228,87 233,88 237,88 241,89 245,88 249,89 253,89 257,89 261,90 265,90 269,91 274,91 278,91 282,91 286,92 290,92 294,92 298,92 302,92 307,92 311,92 315,91 319,91 323,90 327,90 331,89 335,89 339,90 344,91 348,91 352,88 356,85 360,81 364,79 368,79 372,78 376,83 380,86 385,88 389,90 393,91 397,91 401,92 405,92 409,92 413,92 417,92 419,92" stroke="#2963da" fill="none" stroke-width="3" stroke-linejoin="round" stroke-linecap="round" />
</svg>