<svg width="419" height="100" viewBox="0 0 419 100" xmlns="http://www.w3.org/2000/svg" xmlns:xlink="http://www.w3.org/1999/xlink"><defs>
<linearGradient id="grad" x1="0%" y1="0%" x2="0%" y2="100%">
<stop offset="0%" stop-color="#2963da" stop-opacity="0.40"/>
<stop offset="100%" stop-color="#070720" stop-opacity="0.20"/>
</linearGradient>
</defs>
<rect x="0" y="0" width="419" height="100" fill="none" />
<polygon points="0,86 4,86 8,86 12,86 16,86 20,84 24,86 28,86 32,86 36,86 40,85 45,85 49,85 53,84 57,84 61,84 65,84 69,83 73,83 77,83 81,84 85,85 89,85 94,84 98,84 102,84 106,84 110,84 114,83 118,83 122,83 126,83 131,83 135,83 139,82 143,82 147,82 151,82 155,82 159,80 164,81 168,81 172,80 176,79 180,79 184,80 188,80 192,80 196,80 200,79 204,78 208,79 212,77 216,76 220,77 225,78 229,77 233,77 237,75 241,74 245,70 249,67 253,68 257,66 261,64 265,65 269,62 274,58 278,54 282,51 286,48 290,48 294,46 298,45 302,39 306,35 310,30 314,24 318,23 322,28 326,29 330,30 335,33 339,39 343,45 347,52 351,54 355,59 359,60 363,61 367,65 371,69 375,74 379,80 383,85 387,88 391,90 395,91 399,92 403,92 408,91 412,89 416,87 419,86 419,100 0,100" fill="url(#grad)" stroke="none" />
<polyline points="0,86 4,86 8,86 12,86 16,86 20,84 24,86 28,86 32,86 36,86 40,85 45,85 49,85 53,84 57,84 61,84 65,84 69,83 73,83 77,83 81,84 85,85 89,85 94,84 98,84 102,84 106,84 110,84 114,83 118,83 122,83 126,83 131,83 135,83 139,82 143,82 147,82 151,82 155,82 159,80 164,81 168,81 172,80 176,79 180,79 184,80 188,80 192,80 196,80 200,79 204,78 208,79 212,77 216,76 220,77 225,78 229,77 233,77 237,75 241,74 245,70 249,67 253,68 257,66 261,64 265,65 269,62 274,58 278,54 282,51 286,48 290,48 294,46 298,45 302,39 306,35 310,30 314,24 318,23 322,28 326,29 330,30 335,33 339,39 343,45 347,52 351,54 355,59 359,60 363,61 367,65 371,69 375,74 379,80 383,85 387,88 391,90 395,91 399,92 403,92 408,91 412,89 416,87 419,86" stroke="#2963da" fill="none" stroke-width="3" stroke-linejoin="round" stroke-linecap="round" />
</svg>