<svg width="419" height="100" viewBox="0 0 419 100" xmlns="http://www.w3.org/2000/svg" xmlns:xlink="http://www.w3.org/1999/xlink"><defs>
<linearGradient id="grad" x1="0%" y1="0%" x2="0%" y2="100%">
<stop offset="0%" stop-color="#2963da" stop-opacity="0.40"/>
<stop offset="100%" stop-color="#070720" stop-opacity="0.20"/>
</linearGradient>
</defs>
<rect x="0" y="0" width="419" height="100" fill="none" />
<polygon points="0,92 4,89 8,88 12,88 16,89 20,90 24,91 28,90 32,90 36,91 40,90 44,89 48,91 52,92 56,91 61,91 65,91 69,92 73,91 77,92 81,92 85,91 89,92 93,92 97,92 101,92 105,92 109,91 113,89 117,88 121,86 126,88 130,89 134,91 138,92 142,91 146,90 150,89 154,89 158,89 162,91 166,92 170,92 174,92 178,92 182,91 186,88 190,85 194,85 199,87 203,89 207,89 211,89 215,89 219,89 223,89 227,89 231,89 235,88 239,87 243,89 248,89 252,89 256,89 260,86 264,85 268,88 272,88 276,88 280,87 285,87 289,89 293,90 297,92 301,90 305,89 309,91 313,92 317,92 321,90 325,91 330,92 334,91 338,91 342,92 346,92 350,90 354,89 358,89 362,90 366,89 370,87 375,87 379,87 383,88 387,90 391,90 395,92 399,90 403,89 407,91 411,92 415,91 419,90 419,100 0,100" fill="url(#grad)" stroke="none" />
<polyline points="0,92 4,89 8,88 12,88 16,89 20,90 24,91 28,90 32,90 36,91 40,90 44,89 48,91 52,92 56,91 61,91 65,91 69,92 73,91 77,92 81,92 85,91 89,92 93,92 97,92 101,92 105,92 109,91 113,89 117,88 121,86 126,88 130,89 134,91 138,92 142,91 146,90 150,89 154,89 158,89 162,91 166,92 170,92 174,92 178,92 182,91 186,88 190,85 194,85 199,87 203,89 207,89 211,89 215,89 219,89 223,89 227,89 231,89 235,88 239,87 243,89 248,89 252,89 256,89 260,86 264,85 268,88 272,88 276,88 280,87 285,87 289,89 293,90 297,92 301,90 305,89 309,91 313,92 317,92 321,90 325,91 330,92 334,91 338,91 342,92 346,92 350,90 354,89 358,89 362,90 366,89 370,87 375,87 379,87 383,88 387,90 391,90 395,92 399,90 403,89 407,91 411,92 415,91 419,90" stroke="#2963da" fill="none" stroke-width="3" stroke-linejoin="round" stroke-linecap="round" />
</svg>