<svg width="419" height="100" viewBox="0 0 419 100" xmlns="http://www.w3.org/2000/svg" xmlns:xlink="http://www.w3.org/1999/xlink"><defs>
<linearGradient id="grad" x1="0%" y1="0%" x2="0%" y2="100%">
<stop offset="0%" stop-color="#2963da" stop-opacity="0.40"/>
<stop offset="100%" stop-color="#070720" stop-opacity="0.20"/>
</linearGradient>
</defs>
<rect x="0" y="0" width="419" height="100" fill="none" />
<polygon points="0,90 4,90 8,89 12,91 16,90 20,89 24,88 28,89 32,89 36,89 40,91 44,92 48,91 52,88 56,88 60,89 64,87 68,86 72,87 76,87 80,86 84,85 88,89 92,90 96,90 101,91 105,91 109,92 113,92 117,92 121,90 125,86 129,85 133,85 137,87 141,88 145,85 149,84 153,85 157,84 161,85 165,84 169,85 173,88 177,89 181,90 185,91 190,92 194,91 198,88 202,89 206,88 210,92 214,88 218,88 222,90 226,85 230,89 234,87 238,89 242,91 246,92 250,92 254,89 258,89 262,87 266,86 270,86 274,87 278,92 282,92 287,88 291,86 295,86 299,86 303,85 307,88 311,87 315,85 319,87 323,87 327,90 331,88 335,86 339,86 343,90 347,92 351,92 355,87 359,85 363,86 367,85 371,86 376,89 380,85 384,87 388,86 392,90 396,90 400,86 404,86 408,88 412,92 416,92 419,89 419,100 0,100" fill="url(#grad)" stroke="none" />
<polyline points="0,90 4,90 8,89 12,91 16,90 20,89 24,88 28,89 32,89 36,89 40,91 44,92 48,91 52,88 56,88 60,89 64,87 68,86 72,87 76,87 80,86 84,85 88,89 92,90 96,90 101,91 105,91 109,92 113,92 117,92 121,90 125,86 129,85 133,85 137,87 141,88 145,85 149,84 153,85 157,84 161,85 165,84 169,85 173,88 177,89 181,90 185,91 190,92 194,91 198,88 202,89 206,88 210,92 214,88 218,88 222,90 226,85 230,89 234,87 238,89 242,91 246,92 250,92 254,89 258,89 262,87 266,86 270,86 274,87 278,92 282,92 287,88 291,86 295,86 299,86 303,85 307,88 311,87 315,85 319,87 323,87 327,90 331,88 335,86 339,86 343,90 347,92 351,92 355,87 359,85 363,86 367,85 371,86 376,89 380,85 384,87 388,86 392,90 396,90 400,86 404,86 408,88 412,92 416,92 419,89" stroke="#2963da" fill="none" stroke-width="3" stroke-linejoin="round" stroke-linecap="round" />
</svg>