<svg width="419" height="100" viewBox="0 0 419 100" xmlns="http://www.w3.org/2000/svg" xmlns:xlink="http://www.w3.org/1999/xlink"><defs>
<linearGradient id="grad" x1="0%" y1="0%" x2="0%" y2="100%">
<stop offset="0%" stop-color="#2963da" stop-opacity="0.40"/>
<stop offset="100%" stop-color="#070720" stop-opacity="0.20"/>
</linearGradient>
</defs>
<rect x="0" y="0" width="419" height="100" fill="none" />
<polygon points="0,86 4,86 8,86 12,86 16,86 20,86 24,85 29,84 33,82 37,80 41,76 45,70 49,65 53,65 57,65 61,60 65,54 69,50 73,47 77,46 81,46 85,41 89,37 94,36 98,41 102,47 106,52 110,56 114,59 118,61 122,65 126,66 130,64 134,66 138,72 142,77 146,83 150,81 155,84 159,89 163,92 167,92 171,90 175,89 179,88 183,87 187,87 191,86 195,82 200,77 204,72 208,67 212,63 216,59 220,54 224,55 228,57 232,60 236,56 240,53 244,51 248,46 252,41 256,37 260,32 264,26 268,21 272,16 277,15 281,19 285,23 289,28 293,32 297,36 301,39 305,43 309,47 313,51 317,54 321,57 325,60 329,63 333,65 337,68 342,71 346,72 350,72 354,73 358,68 362,64 366,61 370,58 374,52 378,47 382,41 386,39 390,45 394,45 398,43 402,44 406,48 410,51 415,46 419,43 419,100 0,100" fill="url(#grad)" stroke="none" />
<polyline points="0,86 4,86 8,86 12,86 16,86 20,86 24,85 29,84 33,82 37,80 41,76 45,70 49,65 53,65 57,65 61,60 65,54 69,50 73,47 77,46 81,46 85,41 89,37 94,36 98,41 102,47 106,52 110,56 114,59 118,61 122,65 126,66 130,64 134,66 138,72 142,77 146,83 150,81 155,84 159,89 163,92 167,92 171,90 175,89 179,88 183,87 187,87 191,86 195,82 200,77 204,72 208,67 212,63 216,59 220,54 224,55 228,57 232,60 236,56 240,53 244,51 248,46 252,41 256,37 260,32 264,26 268,21 272,16 277,15 281,19 285,23 289,28 293,32 297,36 301,39 305,43 309,47 313,51 317,54 321,57 325,60 329,63 333,65 337,68 342,71 346,72 350,72 354,73 358,68 362,64 366,61 370,58 374,52 378,47 382,41 386,39 390,45 394,45 398,43 402,44 406,48 410,51 415,46 419,43" stroke="#2963da" fill="none" stroke-width="3" stroke-linejoin="round" stroke-linecap="round" />
</svg>