<svg width="419" height="100" viewBox="0 0 419 100" xmlns="http://www.w3.org/2000/svg" xmlns:xlink="http://www.w3.org/1999/xlink"><defs>
<linearGradient id="grad" x1="0%" y1="0%" x2="0%" y2="100%">
<stop offset="0%" stop-color="#2963da" stop-opacity="0.40"/>
<stop offset="100%" stop-color="#070720" stop-opacity="0.20"/>
</linearGradient>
</defs>
<rect x="0" y="0" width="419" height="100" fill="none" />
<polygon points="0,86 4,85 8,85 12,84 16,83 20,83 24,81 28,80 32,83 36,86 40,88 44,89 48,90 52,91 56,91 60,92 64,92 68,92 72,92 76,91 80,90 84,90 88,90 93,89 97,89 101,88 105,87 109,84 113,82 117,79 121,77 125,77 129,77 133,78 137,78 141,78 145,78 149,78 153,78 157,78 161,78 165,78 169,78 173,77 177,77 181,76 186,76 190,75 194,76 198,76 202,77 206,77 210,77 214,76 218,76 222,75 226,72 230,68 234,64 238,60 242,61 246,64 250,66 254,69 258,68 262,68 266,68 271,69 275,69 279,70 283,73 287,75 291,76 295,77 299,78 303,78 307,78 311,77 315,77 319,76 323,75 327,75 331,75 335,74 339,74 343,73 347,71 351,69 355,68 359,66 364,69 368,73 372,75 376,76 380,77 384,77 388,78 392,76 396,77 400,77 404,76 408,77 412,77 416,77 419,77 419,100 0,100" fill="url(#grad)" stroke="none" />
<polyline points="0,86 4,85 8,85 12,84 16,83 20,83 24,81 28,80 32,83 36,86 40,88 44,89 48,90 52,91 56,91 60,92 64,92 68,92 72,92 76,91 80,90 84,90 88,90 93,89 97,89 101,88 105,87 109,84 113,82 117,79 121,77 125,77 129,77 133,78 137,78 141,78 145,78 149,78 153,78 157,78 161,78 165,78 169,78 173,77 177,77 181,76 186,76 190,75 194,76 198,76 202,77 206,77 210,77 214,76 218,76 222,75 226,72 230,68 234,64 238,60 242,61 246,64 250,66 254,69 258,68 262,68 266,68 271,69 275,69 279,70 283,73 287,75 291,76 295,77 299,78 303,78 307,78 311,77 315,77 319,76 323,75 327,75 331,75 335,74 339,74 343,73 347,71 351,69 355,68 359,66 364,69 368,73 372,75 376,76 380,77 384,77 388,78 392,76 396,77 400,77 404,76 408,77 412,77 416,77 419,77" stroke="#2963da" fill="none" stroke-width="3" stroke-linejoin="round" stroke-linecap="round" />
</svg>