<svg width="419" height="100" viewBox="0 0 419 100" xmlns="http://www.w3.org/2000/svg" xmlns:xlink="http://www.w3.org/1999/xlink"><defs>
<linearGradient id="grad" x1="0%" y1="0%" x2="0%" y2="100%">
<stop offset="0%" stop-color="#2963da" stop-opacity="0.40"/>
<stop offset="100%" stop-color="#070720" stop-opacity="0.20"/>
</linearGradient>
</defs>
<rect x="0" y="0" width="419" height="100" fill="none" />
<polygon points="0,82 4,82 8,81 12,83 16,84 20,86 24,88 28,88 32,86 36,85 40,84 44,83 48,84 52,86 56,86 60,87 65,87 69,87 73,85 77,86 81,86 85,85 89,84 93,82 97,82 101,84 105,85 109,86 113,88 117,89 121,89 125,90 129,90 133,89 138,89 142,89 146,90 150,91 154,91 158,91 162,91 166,91 170,91 174,92 178,92 182,92 186,91 190,91 194,90 198,89 202,90 206,90 210,88 214,88 219,90 223,90 227,90 231,91 235,92 239,92 243,92 247,92 251,92 255,92 259,92 263,92 267,91 271,91 275,90 279,90 283,91 288,90 292,89 296,89 300,91 304,91 308,90 312,90 316,91 320,90 324,87 328,85 332,86 336,87 340,89 344,89 348,88 352,87 357,86 361,85 365,86 369,87 373,87 377,86 381,86 385,85 389,83 393,79 397,76 401,73 405,69 409,66 413,62 417,59 419,58 419,100 0,100" fill="url(#grad)" stroke="none" />
<polyline points="0,82 4,82 8,81 12,83 16,84 20,86 24,88 28,88 32,86 36,85 40,84 44,83 48,84 52,86 56,86 60,87 65,87 69,87 73,85 77,86 81,86 85,85 89,84 93,82 97,82 101,84 105,85 109,86 113,88 117,89 121,89 125,90 129,90 133,89 138,89 142,89 146,90 150,91 154,91 158,91 162,91 166,91 170,91 174,92 178,92 182,92 186,91 190,91 194,90 198,89 202,90 206,90 210,88 214,88 219,90 223,90 227,90 231,91 235,92 239,92 243,92 247,92 251,92 255,92 259,92 263,92 267,91 271,91 275,90 279,90 283,91 288,90 292,89 296,89 300,91 304,91 308,90 312,90 316,91 320,90 324,87 328,85 332,86 336,87 340,89 344,89 348,88 352,87 357,86 361,85 365,86 369,87 373,87 377,86 381,86 385,85 389,83 393,79 397,76 401,73 405,69 409,66 413,62 417,59 419,58" stroke="#2963da" fill="none" stroke-width="3" stroke-linejoin="round" stroke-linecap="round" />
</svg>