<svg width="419" height="100" viewBox="0 0 419 100" xmlns="http://www.w3.org/2000/svg" xmlns:xlink="http://www.w3.org/1999/xlink"><defs>
<linearGradient id="grad" x1="0%" y1="0%" x2="0%" y2="100%">
<stop offset="0%" stop-color="#2963da" stop-opacity="0.40"/>
<stop offset="100%" stop-color="#070720" stop-opacity="0.20"/>
</linearGradient>
</defs>
<rect x="0" y="0" width="419" height="100" fill="none" />
<polygon points="0,92 4,91 8,92 12,92 16,92 20,92 24,91 28,92 32,91 36,92 40,91 44,92 48,90 52,91 56,91 60,91 64,91 68,90 72,91 76,90 81,91 85,91 89,90 93,90 97,90 101,90 105,90 109,90 113,90 117,90 121,90 125,89 129,89 133,89 137,89 141,89 145,88 149,87 153,87 157,86 161,86 166,86 170,86 174,85 178,83 182,82 186,84 190,85 194,86 198,86 202,87 206,87 210,88 214,89 218,89 222,89 226,89 230,89 234,89 238,90 242,90 247,90 251,90 255,90 259,90 263,90 267,90 271,91 275,90 279,91 283,90 287,90 291,91 295,91 299,91 303,91 307,91 311,92 315,91 320,92 324,91 328,92 332,92 336,92 340,92 344,92 348,92 352,92 356,89 360,86 364,84 368,83 372,84 376,87 380,90 384,86 388,85 392,88 397,90 401,92 405,92 409,92 413,92 417,92 419,92 419,100 0,100" fill="url(#grad)" stroke="none" />
<polyline points="0,92 4,91 8,92 12,92 16,92 20,92 24,91 28,92 32,91 36,92 40,91 44,92 48,90 52,91 56,91 60,91 64,91 68,90 72,91 76,90 81,91 85,91 89,90 93,90 97,90 101,90 105,90 109,90 113,90 117,90 121,90 125,89 129,89 133,89 137,89 141,89 145,88 149,87 153,87 157,86 161,86 166,86 170,86 174,85 178,83 182,82 186,84 190,85 194,86 198,86 202,87 206,87 210,88 214,89 218,89 222,89 226,89 230,89 234,89 238,90 242,90 247,90 251,90 255,90 259,90 263,90 267,90 271,91 275,90 279,91 283,90 287,90 291,91 295,91 299,91 303,91 307,91 311,92 315,91 320,92 324,91 328,92 332,92 336,92 340,92 344,92 348,92 352,92 356,89 360,86 364,84 368,83 372,84 376,87 380,90 384,86 388,85 392,88 397,90 401,92 405,92 409,92 413,92 417,92 419,92" stroke="#2963da" fill="none" stroke-width="3" stroke-linejoin="round" stroke-linecap="round" />
</svg>