<svg width="419" height="100" viewBox="0 0 419 100" xmlns="http://www.w3.org/2000/svg" xmlns:xlink="http://www.w3.org/1999/xlink"><defs>
<linearGradient id="grad" x1="0%" y1="0%" x2="0%" y2="100%">
<stop offset="0%" stop-color="#2963da" stop-opacity="0.40"/>
<stop offset="100%" stop-color="#070720" stop-opacity="0.20"/>
</linearGradient>
</defs>
<rect x="0" y="0" width="419" height="100" fill="none" />
<polygon points="0,88 4,81 8,83 12,83 16,86 20,85 24,83 28,82 32,82 36,84 40,84 44,87 48,91 53,90 57,88 61,85 65,88 69,89 73,92 77,92 81,92 85,92 89,91 93,92 97,91 101,91 105,90 109,90 113,89 117,88 121,87 126,86 130,86 134,82 138,81 142,81 146,80 150,80 154,79 158,79 162,78 166,76 170,74 174,74 178,73 183,71 187,68 191,66 195,63 199,61 203,66 207,73 211,77 215,70 219,65 224,65 228,70 232,74 236,76 240,78 244,79 248,77 252,69 256,64 260,68 264,72 268,71 273,73 277,76 281,77 285,82 289,89 293,90 297,90 302,90 306,90 310,90 314,90 318,90 322,88 326,90 330,90 334,90 339,90 343,90 347,89 351,90 356,89 360,88 364,86 368,86 372,86 376,85 380,86 384,84 388,84 392,82 397,82 401,81 405,81 409,80 413,84 417,83 419,83 419,100 0,100" fill="url(#grad)" stroke="none" />
<polyline points="0,88 4,81 8,83 12,83 16,86 20,85 24,83 28,82 32,82 36,84 40,84 44,87 48,91 53,90 57,88 61,85 65,88 69,89 73,92 77,92 81,92 85,92 89,91 93,92 97,91 101,91 105,90 109,90 113,89 117,88 121,87 126,86 130,86 134,82 138,81 142,81 146,80 150,80 154,79 158,79 162,78 166,76 170,74 174,74 178,73 183,71 187,68 191,66 195,63 199,61 203,66 207,73 211,77 215,70 219,65 224,65 228,70 232,74 236,76 240,78 244,79 248,77 252,69 256,64 260,68 264,72 268,71 273,73 277,76 281,77 285,82 289,89 293,90 297,90 302,90 306,90 310,90 314,90 318,90 322,88 326,90 330,90 334,90 339,90 343,90 347,89 351,90 356,89 360,88 364,86 368,86 372,86 376,85 380,86 384,84 388,84 392,82 397,82 401,81 405,81 409,80 413,84 417,83 419,83" stroke="#2963da" fill="none" stroke-width="3" stroke-linejoin="round" stroke-linecap="round" />
</svg>