<svg width="419" height="100" viewBox="0 0 419 100" xmlns="http://www.w3.org/2000/svg" xmlns:xlink="http://www.w3.org/1999/xlink"><defs>
<linearGradient id="grad" x1="0%" y1="0%" x2="0%" y2="100%">
<stop offset="0%" stop-color="#2963da" stop-opacity="0.40"/>
<stop offset="100%" stop-color="#070720" stop-opacity="0.20"/>
</linearGradient>
</defs>
<rect x="0" y="0" width="419" height="100" fill="none" />
<polygon points="0,92 4,92 8,92 12,92 16,92 20,92 24,92 28,92 32,92 36,92 40,92 44,92 49,92 53,92 57,92 61,92 65,92 69,92 73,92 77,92 81,92 85,91 89,92 93,92 97,92 101,92 106,92 110,92 114,92 118,92 122,92 126,92 130,92 134,92 138,92 142,92 147,92 151,92 155,92 159,92 163,92 167,91 171,92 175,92 179,92 183,92 188,92 192,92 196,92 200,89 205,88 209,88 213,89 217,91 221,92 225,90 229,92 233,90 238,90 242,91 246,91 250,91 254,92 258,92 262,91 266,90 270,89 275,92 279,91 283,91 287,89 291,89 295,91 299,91 303,89 308,89 312,89 316,89 320,88 324,88 328,92 332,90 336,89 340,91 344,92 348,92 352,92 357,91 361,90 365,89 369,89 373,91 377,87 381,88 385,92 389,92 394,89 398,90 402,92 406,92 410,92 414,92 418,92 419,92 419,100 0,100" fill="url(#grad)" stroke="none" />
<polyline points="0,92 4,92 8,92 12,92 16,92 20,92 24,92 28,92 32,92 36,92 40,92 44,92 49,92 53,92 57,92 61,92 65,92 69,92 73,92 77,92 81,92 85,91 89,92 93,92 97,92 101,92 106,92 110,92 114,92 118,92 122,92 126,92 130,92 134,92 138,92 142,92 147,92 151,92 155,92 159,92 163,92 167,91 171,92 175,92 179,92 183,92 188,92 192,92 196,92 200,89 205,88 209,88 213,89 217,91 221,92 225,90 229,92 233,90 238,90 242,91 246,91 250,91 254,92 258,92 262,91 266,90 270,89 275,92 279,91 283,91 287,89 291,89 295,91 299,91 303,89 308,89 312,89 316,89 320,88 324,88 328,92 332,90 336,89 340,91 344,92 348,92 352,92 357,91 361,90 365,89 369,89 373,91 377,87 381,88 385,92 389,92 394,89 398,90 402,92 406,92 410,92 414,92 418,92 419,92" stroke="#2963da" fill="none" stroke-width="3" stroke-linejoin="round" stroke-linecap="round" />
</svg>