<svg width="419" height="100" viewBox="0 0 419 100" xmlns="http://www.w3.org/2000/svg" xmlns:xlink="http://www.w3.org/1999/xlink"><defs>
<linearGradient id="grad" x1="0%" y1="0%" x2="0%" y2="100%">
<stop offset="0%" stop-color="#2963da" stop-opacity="0.40"/>
<stop offset="100%" stop-color="#070720" stop-opacity="0.20"/>
</linearGradient>
</defs>
<rect x="0" y="0" width="419" height="100" fill="none" />
<polygon points="0,92 4,92 8,92 12,92 16,92 20,91 24,91 28,91 32,90 36,87 40,89 44,91 48,92 52,92 56,91 61,91 65,91 69,89 73,87 77,91 82,90 86,90 90,90 94,89 98,90 102,90 106,90 111,90 115,89 119,89 124,88 128,88 132,88 136,87 140,86 144,88 148,87 152,87 156,87 160,86 164,85 168,84 172,83 176,82 180,81 184,81 188,82 192,85 196,85 201,86 205,87 209,87 213,88 217,88 221,88 225,87 229,85 233,85 237,88 241,85 245,81 249,79 254,78 258,79 262,80 266,80 270,78 274,77 278,77 282,77 286,74 290,72 294,69 298,66 303,66 307,66 311,71 315,74 319,76 323,78 327,80 331,79 335,81 340,81 344,83 348,83 352,83 356,83 360,83 364,81 368,81 372,80 376,79 380,75 384,75 388,74 393,75 397,76 401,76 405,75 409,72 413,69 417,68 419,68 419,100 0,100" fill="url(#grad)" stroke="none" />
<polyline points="0,92 4,92 8,92 12,92 16,92 20,91 24,91 28,91 32,90 36,87 40,89 44,91 48,92 52,92 56,91 61,91 65,91 69,89 73,87 77,91 82,90 86,90 90,90 94,89 98,90 102,90 106,90 111,90 115,89 119,89 124,88 128,88 132,88 136,87 140,86 144,88 148,87 152,87 156,87 160,86 164,85 168,84 172,83 176,82 180,81 184,81 188,82 192,85 196,85 201,86 205,87 209,87 213,88 217,88 221,88 225,87 229,85 233,85 237,88 241,85 245,81 249,79 254,78 258,79 262,80 266,80 270,78 274,77 278,77 282,77 286,74 290,72 294,69 298,66 303,66 307,66 311,71 315,74 319,76 323,78 327,80 331,79 335,81 340,81 344,83 348,83 352,83 356,83 360,83 364,81 368,81 372,80 376,79 380,75 384,75 388,74 393,75 397,76 401,76 405,75 409,72 413,69 417,68 419,68" stroke="#2963da" fill="none" stroke-width="3" stroke-linejoin="round" stroke-linecap="round" />
</svg>