<svg width="419" height="100" viewBox="0 0 419 100" xmlns="http://www.w3.org/2000/svg" xmlns:xlink="http://www.w3.org/1999/xlink"><defs>
<linearGradient id="grad" x1="0%" y1="0%" x2="0%" y2="100%">
<stop offset="0%" stop-color="#2963da" stop-opacity="0.40"/>
<stop offset="100%" stop-color="#070720" stop-opacity="0.20"/>
</linearGradient>
</defs>
<rect x="0" y="0" width="419" height="100" fill="none" />
<polygon points="0,89 4,88 8,83 12,86 16,89 20,90 24,90 28,91 32,91 37,91 41,92 45,92 49,90 53,91 57,90 61,89 65,88 70,87 74,86 78,86 82,84 86,83 90,83 94,82 98,80 102,79 107,77 111,78 115,78 119,78 123,73 127,69 131,63 135,57 139,51 143,47 147,43 151,44 155,47 160,53 164,60 168,64 172,67 176,70 180,72 184,70 188,70 193,68 197,70 201,74 205,79 209,83 213,84 217,83 221,82 225,81 230,74 234,76 238,73 242,73 246,77 250,77 254,76 258,79 262,83 266,86 271,85 275,85 279,84 283,82 287,77 291,74 295,74 299,76 304,72 308,74 312,77 316,76 320,77 324,80 328,85 332,86 336,85 341,85 345,83 349,80 353,74 357,76 361,75 365,76 369,72 373,75 377,75 381,76 386,78 390,81 394,86 398,86 402,85 406,85 410,83 414,79 418,73 419,73 419,100 0,100" fill="url(#grad)" stroke="none" />
<polyline points="0,89 4,88 8,83 12,86 16,89 20,90 24,90 28,91 32,91 37,91 41,92 45,92 49,90 53,91 57,90 61,89 65,88 70,87 74,86 78,86 82,84 86,83 90,83 94,82 98,80 102,79 107,77 111,78 115,78 119,78 123,73 127,69 131,63 135,57 139,51 143,47 147,43 151,44 155,47 160,53 164,60 168,64 172,67 176,70 180,72 184,70 188,70 193,68 197,70 201,74 205,79 209,83 213,84 217,83 221,82 225,81 230,74 234,76 238,73 242,73 246,77 250,77 254,76 258,79 262,83 266,86 271,85 275,85 279,84 283,82 287,77 291,74 295,74 299,76 304,72 308,74 312,77 316,76 320,77 324,80 328,85 332,86 336,85 341,85 345,83 349,80 353,74 357,76 361,75 365,76 369,72 373,75 377,75 381,76 386,78 390,81 394,86 398,86 402,85 406,85 410,83 414,79 418,73 419,73" stroke="#2963da" fill="none" stroke-width="3" stroke-linejoin="round" stroke-linecap="round" />
</svg>