<svg width="419" height="100" viewBox="0 0 419 100" xmlns="http://www.w3.org/2000/svg" xmlns:xlink="http://www.w3.org/1999/xlink"><defs>
<linearGradient id="grad" x1="0%" y1="0%" x2="0%" y2="100%">
<stop offset="0%" stop-color="#2963da" stop-opacity="0.40"/>
<stop offset="100%" stop-color="#070720" stop-opacity="0.20"/>
</linearGradient>
</defs>
<rect x="0" y="0" width="419" height="100" fill="none" />
<polygon points="0,90 4,90 8,90 12,90 16,91 20,91 24,91 28,91 32,91 36,90 40,89 44,87 49,87 53,87 57,87 61,87 65,87 69,87 73,87 77,88 82,87 86,87 90,88 94,89 98,89 102,89 106,89 110,89 114,89 118,89 122,90 126,88 130,88 134,90 139,92 143,92 147,92 151,92 155,92 159,92 163,92 167,92 171,92 175,92 179,92 183,91 187,92 191,92 196,92 200,92 204,91 208,92 212,92 216,92 221,92 225,91 229,91 233,92 237,92 241,92 245,91 249,92 253,91 257,91 261,89 265,90 269,91 274,91 278,91 282,92 286,92 290,92 294,92 299,91 303,92 307,91 311,90 315,90 319,91 323,91 327,91 332,92 336,92 340,92 344,92 348,92 352,92 356,91 360,91 364,89 368,90 372,91 377,91 381,91 385,92 389,92 394,92 398,92 402,91 406,92 410,92 414,92 418,92 419,92 419,100 0,100" fill="url(#grad)" stroke="none" />
<polyline points="0,90 4,90 8,90 12,90 16,91 20,91 24,91 28,91 32,91 36,90 40,89 44,87 49,87 53,87 57,87 61,87 65,87 69,87 73,87 77,88 82,87 86,87 90,88 94,89 98,89 102,89 106,89 110,89 114,89 118,89 122,90 126,88 130,88 134,90 139,92 143,92 147,92 151,92 155,92 159,92 163,92 167,92 171,92 175,92 179,92 183,91 187,92 191,92 196,92 200,92 204,91 208,92 212,92 216,92 221,92 225,91 229,91 233,92 237,92 241,92 245,91 249,92 253,91 257,91 261,89 265,90 269,91 274,91 278,91 282,92 286,92 290,92 294,92 299,91 303,92 307,91 311,90 315,90 319,91 323,91 327,91 332,92 336,92 340,92 344,92 348,92 352,92 356,91 360,91 364,89 368,90 372,91 377,91 381,91 385,92 389,92 394,92 398,92 402,91 406,92 410,92 414,92 418,92 419,92" stroke="#2963da" fill="none" stroke-width="3" stroke-linejoin="round" stroke-linecap="round" />
</svg>