<svg width="419" height="100" viewBox="0 0 419 100" xmlns="http://www.w3.org/2000/svg" xmlns:xlink="http://www.w3.org/1999/xlink"><defs>
<linearGradient id="grad" x1="0%" y1="0%" x2="0%" y2="100%">
<stop offset="0%" stop-color="#2963da" stop-opacity="0.40"/>
<stop offset="100%" stop-color="#070720" stop-opacity="0.20"/>
</linearGradient>
</defs>
<rect x="0" y="0" width="419" height="100" fill="none" />
<polygon points="0,92 4,92 8,92 12,92 16,92 20,92 25,92 29,92 33,92 37,92 41,92 45,92 49,92 53,92 57,92 62,92 66,92 70,92 74,92 78,92 82,92 86,92 90,92 94,92 99,92 103,92 107,92 111,91 115,92 119,91 123,91 127,91 131,91 136,91 140,92 144,92 148,91 152,91 156,91 160,91 164,91 168,92 172,92 176,92 180,92 185,91 189,91 193,91 197,91 201,90 205,91 209,91 213,90 218,90 222,91 226,90 230,90 234,91 238,91 242,91 246,91 250,91 255,91 259,91 263,91 267,91 271,92 275,92 279,91 283,91 287,91 291,91 295,92 299,92 303,92 308,92 312,92 316,91 320,92 324,92 328,92 332,92 336,92 340,92 344,92 348,92 352,92 356,92 361,92 365,92 369,92 373,92 377,92 381,92 385,92 389,92 393,92 397,92 401,92 405,92 409,92 413,92 418,92 419,92 419,100 0,100" fill="url(#grad)" stroke="none" />
<polyline points="0,92 4,92 8,92 12,92 16,92 20,92 25,92 29,92 33,92 37,92 41,92 45,92 49,92 53,92 57,92 62,92 66,92 70,92 74,92 78,92 82,92 86,92 90,92 94,92 99,92 103,92 107,92 111,91 115,92 119,91 123,91 127,91 131,91 136,91 140,92 144,92 148,91 152,91 156,91 160,91 164,91 168,92 172,92 176,92 180,92 185,91 189,91 193,91 197,91 201,90 205,91 209,91 213,90 218,90 222,91 226,90 230,90 234,91 238,91 242,91 246,91 250,91 255,91 259,91 263,91 267,91 271,92 275,92 279,91 283,91 287,91 291,91 295,92 299,92 303,92 308,92 312,92 316,91 320,92 324,92 328,92 332,92 336,92 340,92 344,92 348,92 352,92 356,92 361,92 365,92 369,92 373,92 377,92 381,92 385,92 389,92 393,92 397,92 401,92 405,92 409,92 413,92 418,92 419,92" stroke="#2963da" fill="none" stroke-width="3" stroke-linejoin="round" stroke-linecap="round" />
</svg>