<svg width="419" height="100" viewBox="0 0 419 100" xmlns="http://www.w3.org/2000/svg" xmlns:xlink="http://www.w3.org/1999/xlink"><defs>
<linearGradient id="grad" x1="0%" y1="0%" x2="0%" y2="100%">
<stop offset="0%" stop-color="#2963da" stop-opacity="0.40"/>
<stop offset="100%" stop-color="#070720" stop-opacity="0.20"/>
</linearGradient>
</defs>
<rect x="0" y="0" width="419" height="100" fill="none" />
<polygon points="0,89 4,89 8,88 12,88 16,88 20,88 24,88 28,88 32,88 36,89 40,89 44,89 48,89 52,89 56,89 60,88 64,88 68,88 72,88 76,89 80,89 84,89 89,90 93,90 97,90 101,90 105,90 109,90 113,90 117,90 121,89 125,89 129,89 133,90 137,90 141,90 145,90 149,90 153,90 157,91 161,91 165,91 169,91 173,91 177,91 182,91 186,91 190,92 194,91 198,92 202,92 206,92 210,92 214,92 218,92 222,92 226,92 230,92 234,92 238,92 242,92 246,92 250,92 254,92 258,92 262,92 267,92 271,92 275,91 279,91 283,91 287,91 291,91 295,91 299,91 303,91 307,91 311,91 315,90 319,90 323,90 327,90 331,90 335,90 339,89 343,89 347,89 351,89 356,89 360,89 364,89 368,90 372,89 376,90 380,89 384,89 388,88 392,86 396,83 400,78 404,73 408,68 412,63 416,60 419,60 419,100 0,100" fill="url(#grad)" stroke="none" />
<polyline points="0,89 4,89 8,88 12,88 16,88 20,88 24,88 28,88 32,88 36,89 40,89 44,89 48,89 52,89 56,89 60,88 64,88 68,88 72,88 76,89 80,89 84,89 89,90 93,90 97,90 101,90 105,90 109,90 113,90 117,90 121,89 125,89 129,89 133,90 137,90 141,90 145,90 149,90 153,90 157,91 161,91 165,91 169,91 173,91 177,91 182,91 186,91 190,92 194,91 198,92 202,92 206,92 210,92 214,92 218,92 222,92 226,92 230,92 234,92 238,92 242,92 246,92 250,92 254,92 258,92 262,92 267,92 271,92 275,91 279,91 283,91 287,91 291,91 295,91 299,91 303,91 307,91 311,91 315,90 319,90 323,90 327,90 331,90 335,90 339,89 343,89 347,89 351,89 356,89 360,89 364,89 368,90 372,89 376,90 380,89 384,89 388,88 392,86 396,83 400,78 404,73 408,68 412,63 416,60 419,60" stroke="#2963da" fill="none" stroke-width="3" stroke-linejoin="round" stroke-linecap="round" />
</svg>