<svg width="419" height="100" viewBox="0 0 419 100" xmlns="http://www.w3.org/2000/svg" xmlns:xlink="http://www.w3.org/1999/xlink"><defs>
<linearGradient id="grad" x1="0%" y1="0%" x2="0%" y2="100%">
<stop offset="0%" stop-color="#2963da" stop-opacity="0.40"/>
<stop offset="100%" stop-color="#070720" stop-opacity="0.20"/>
</linearGradient>
</defs>
<rect x="0" y="0" width="419" height="100" fill="none" />
<polygon points="0,92 4,92 8,92 12,92 16,92 20,92 24,92 29,92 33,92 37,92 41,92 45,92 49,92 53,92 58,92 62,92 66,92 70,92 74,92 78,92 82,92 87,92 91,92 95,92 99,91 103,90 107,89 111,87 115,85 119,85 124,87 128,88 132,89 136,90 140,91 144,91 148,91 153,92 157,92 161,92 165,92 169,92 173,91 177,92 181,92 185,92 190,90 194,91 198,91 202,91 206,91 210,91 214,91 219,91 223,90 227,90 231,89 235,89 239,90 243,91 248,91 252,91 256,91 260,91 264,91 269,91 273,91 277,91 281,91 285,91 289,92 293,92 297,92 301,92 306,92 310,91 314,91 318,91 322,91 326,91 330,91 334,91 339,91 343,91 347,90 351,89 355,90 360,90 364,91 368,92 372,92 376,91 380,90 384,91 389,92 393,92 397,92 401,92 405,92 409,92 413,92 417,92 419,91 419,100 0,100" fill="url(#grad)" stroke="none" />
<polyline points="0,92 4,92 8,92 12,92 16,92 20,92 24,92 29,92 33,92 37,92 41,92 45,92 49,92 53,92 58,92 62,92 66,92 70,92 74,92 78,92 82,92 87,92 91,92 95,92 99,91 103,90 107,89 111,87 115,85 119,85 124,87 128,88 132,89 136,90 140,91 144,91 148,91 153,92 157,92 161,92 165,92 169,92 173,91 177,92 181,92 185,92 190,90 194,91 198,91 202,91 206,91 210,91 214,91 219,91 223,90 227,90 231,89 235,89 239,90 243,91 248,91 252,91 256,91 260,91 264,91 269,91 273,91 277,91 281,91 285,91 289,92 293,92 297,92 301,92 306,92 310,91 314,91 318,91 322,91 326,91 330,91 334,91 339,91 343,91 347,90 351,89 355,90 360,90 364,91 368,92 372,92 376,91 380,90 384,91 389,92 393,92 397,92 401,92 405,92 409,92 413,92 417,92 419,91" stroke="#2963da" fill="none" stroke-width="3" stroke-linejoin="round" stroke-linecap="round" />
</svg>