<svg width="419" height="100" viewBox="0 0 419 100" xmlns="http://www.w3.org/2000/svg" xmlns:xlink="http://www.w3.org/1999/xlink"><defs>
<linearGradient id="grad" x1="0%" y1="0%" x2="0%" y2="100%">
<stop offset="0%" stop-color="#2963da" stop-opacity="0.40"/>
<stop offset="100%" stop-color="#070720" stop-opacity="0.20"/>
</linearGradient>
</defs>
<rect x="0" y="0" width="419" height="100" fill="none" />
<polygon points="0,74 4,73 8,73 12,71 16,71 20,71 24,73 29,74 35,76 42,77 46,79 50,83 54,84 58,84 63,84 67,84 71,85 76,81 80,80 84,79 88,79 92,77 96,81 100,80 104,77 108,74 112,72 117,70 121,72 125,73 129,75 133,77 137,78 141,79 145,82 149,85 153,87 157,88 161,89 165,89 170,86 174,82 178,79 182,78 186,81 190,75 194,66 198,59 202,55 206,59 210,61 214,66 218,70 222,75 226,80 230,82 235,88 239,90 243,91 247,92 251,92 255,92 259,91 263,88 267,88 271,82 275,75 279,69 283,64 288,63 292,67 296,71 300,77 304,82 308,86 312,88 316,85 320,82 324,78 328,78 332,80 336,74 341,65 345,59 349,56 353,59 357,62 361,66 365,70 369,75 373,80 377,85 381,89 385,87 389,81 393,79 397,78 401,75 405,70 409,63 414,56 418,49 419,47 419,100 0,100" fill="url(#grad)" stroke="none" />
<polyline points="0,74 4,73 8,73 12,71 16,71 20,71 24,73 29,74 35,76 42,77 46,79 50,83 54,84 58,84 63,84 67,84 71,85 76,81 80,80 84,79 88,79 92,77 96,81 100,80 104,77 108,74 112,72 117,70 121,72 125,73 129,75 133,77 137,78 141,79 145,82 149,85 153,87 157,88 161,89 165,89 170,86 174,82 178,79 182,78 186,81 190,75 194,66 198,59 202,55 206,59 210,61 214,66 218,70 222,75 226,80 230,82 235,88 239,90 243,91 247,92 251,92 255,92 259,91 263,88 267,88 271,82 275,75 279,69 283,64 288,63 292,67 296,71 300,77 304,82 308,86 312,88 316,85 320,82 324,78 328,78 332,80 336,74 341,65 345,59 349,56 353,59 357,62 361,66 365,70 369,75 373,80 377,85 381,89 385,87 389,81 393,79 397,78 401,75 405,70 409,63 414,56 418,49 419,47" stroke="#2963da" fill="none" stroke-width="3" stroke-linejoin="round" stroke-linecap="round" />
</svg>