<svg width="419" height="100" viewBox="0 0 419 100" xmlns="http://www.w3.org/2000/svg" xmlns:xlink="http://www.w3.org/1999/xlink"><defs>
<linearGradient id="grad" x1="0%" y1="0%" x2="0%" y2="100%">
<stop offset="0%" stop-color="#2963da" stop-opacity="0.40"/>
<stop offset="100%" stop-color="#070720" stop-opacity="0.20"/>
</linearGradient>
</defs>
<rect x="0" y="0" width="419" height="100" fill="none" />
<polygon points="0,92 4,91 8,89 12,87 16,86 20,84 24,84 28,85 32,87 36,86 40,87 44,85 48,84 52,84 56,84 60,82 64,78 68,78 72,80 77,81 81,79 85,78 89,79 93,81 97,81 101,80 105,79 109,81 113,85 117,85 121,82 125,79 129,78 133,78 137,82 141,84 145,80 149,78 154,77 158,76 162,76 166,75 170,74 174,76 178,79 182,79 186,79 190,79 194,78 198,77 202,76 206,77 210,76 214,74 218,71 223,69 227,67 231,68 235,69 239,72 243,75 247,78 251,81 255,84 259,85 263,82 267,80 271,83 275,86 279,88 283,89 287,90 291,90 295,90 299,84 304,82 308,80 312,83 316,84 320,86 324,90 328,90 332,90 336,90 340,89 344,89 348,89 352,89 356,89 360,87 364,87 368,87 372,89 376,90 381,90 385,88 389,88 393,90 397,90 401,90 405,90 409,88 413,91 417,90 419,90 419,100 0,100" fill="url(#grad)" stroke="none" />
<polyline points="0,92 4,91 8,89 12,87 16,86 20,84 24,84 28,85 32,87 36,86 40,87 44,85 48,84 52,84 56,84 60,82 64,78 68,78 72,80 77,81 81,79 85,78 89,79 93,81 97,81 101,80 105,79 109,81 113,85 117,85 121,82 125,79 129,78 133,78 137,82 141,84 145,80 149,78 154,77 158,76 162,76 166,75 170,74 174,76 178,79 182,79 186,79 190,79 194,78 198,77 202,76 206,77 210,76 214,74 218,71 223,69 227,67 231,68 235,69 239,72 243,75 247,78 251,81 255,84 259,85 263,82 267,80 271,83 275,86 279,88 283,89 287,90 291,90 295,90 299,84 304,82 308,80 312,83 316,84 320,86 324,90 328,90 332,90 336,90 340,89 344,89 348,89 352,89 356,89 360,87 364,87 368,87 372,89 376,90 381,90 385,88 389,88 393,90 397,90 401,90 405,90 409,88 413,91 417,90 419,90" stroke="#2963da" fill="none" stroke-width="3" stroke-linejoin="round" stroke-linecap="round" />
</svg>