<svg width="419" height="100" viewBox="0 0 419 100" xmlns="http://www.w3.org/2000/svg" xmlns:xlink="http://www.w3.org/1999/xlink"><defs>
<linearGradient id="grad" x1="0%" y1="0%" x2="0%" y2="100%">
<stop offset="0%" stop-color="#2963da" stop-opacity="0.40"/>
<stop offset="100%" stop-color="#070720" stop-opacity="0.20"/>
</linearGradient>
</defs>
<rect x="0" y="0" width="419" height="100" fill="none" />
<polygon points="0,92 4,91 8,89 12,88 16,87 20,87 24,90 28,89 32,87 36,89 40,91 44,91 48,92 53,92 57,91 61,92 65,92 69,92 73,90 77,90 81,90 85,91 89,91 93,91 97,91 102,91 106,91 110,91 114,91 118,92 122,89 126,89 130,90 135,90 139,90 143,91 147,90 151,90 155,90 159,90 163,89 168,89 172,89 176,88 180,87 184,87 188,87 192,87 197,87 201,87 205,88 209,88 213,87 217,87 222,87 226,87 230,88 234,87 238,87 242,88 247,90 251,90 255,87 259,89 263,90 267,90 271,88 275,88 279,87 284,87 288,88 292,90 296,89 300,89 305,90 309,90 313,91 317,92 321,92 325,92 330,91 334,92 338,91 342,91 346,91 350,91 354,90 359,91 363,91 367,91 371,91 375,90 379,90 384,91 388,91 392,91 396,92 400,92 405,91 409,91 413,92 417,91 419,90 419,100 0,100" fill="url(#grad)" stroke="none" />
<polyline points="0,92 4,91 8,89 12,88 16,87 20,87 24,90 28,89 32,87 36,89 40,91 44,91 48,92 53,92 57,91 61,92 65,92 69,92 73,90 77,90 81,90 85,91 89,91 93,91 97,91 102,91 106,91 110,91 114,91 118,92 122,89 126,89 130,90 135,90 139,90 143,91 147,90 151,90 155,90 159,90 163,89 168,89 172,89 176,88 180,87 184,87 188,87 192,87 197,87 201,87 205,88 209,88 213,87 217,87 222,87 226,87 230,88 234,87 238,87 242,88 247,90 251,90 255,87 259,89 263,90 267,90 271,88 275,88 279,87 284,87 288,88 292,90 296,89 300,89 305,90 309,90 313,91 317,92 321,92 325,92 330,91 334,92 338,91 342,91 346,91 350,91 354,90 359,91 363,91 367,91 371,91 375,90 379,90 384,91 388,91 392,91 396,92 400,92 405,91 409,91 413,92 417,91 419,90" stroke="#2963da" fill="none" stroke-width="3" stroke-linejoin="round" stroke-linecap="round" />
</svg>