<svg width="419" height="100" viewBox="0 0 419 100" xmlns="http://www.w3.org/2000/svg" xmlns:xlink="http://www.w3.org/1999/xlink"><defs>
<linearGradient id="grad" x1="0%" y1="0%" x2="0%" y2="100%">
<stop offset="0%" stop-color="#2963da" stop-opacity="0.40"/>
<stop offset="100%" stop-color="#070720" stop-opacity="0.20"/>
</linearGradient>
</defs>
<rect x="0" y="0" width="419" height="100" fill="none" />
<polygon points="0,82 4,84 8,84 12,85 16,85 20,87 25,87 29,88 33,83 37,77 41,71 45,69 49,67 53,65 57,63 61,62 65,57 69,53 73,53 78,52 82,48 86,49 90,50 94,54 98,59 102,62 106,64 110,68 114,72 118,77 122,81 126,86 130,86 134,87 139,86 143,88 147,88 151,89 155,89 159,90 163,91 167,91 171,91 175,92 179,92 183,92 187,92 192,92 196,90 200,88 204,86 209,85 213,84 217,82 221,80 225,77 229,73 233,68 237,64 241,64 245,67 250,66 254,70 258,75 262,78 266,80 270,81 274,80 278,80 282,79 286,77 290,76 294,77 298,75 302,73 306,69 310,64 314,59 319,59 323,59 327,60 331,59 335,59 339,63 343,68 347,71 351,75 355,78 359,78 364,78 368,76 372,73 377,72 381,71 385,70 389,68 393,65 397,59 401,54 405,50 409,45 413,44 418,40 419,40 419,100 0,100" fill="url(#grad)" stroke="none" />
<polyline points="0,82 4,84 8,84 12,85 16,85 20,87 25,87 29,88 33,83 37,77 41,71 45,69 49,67 53,65 57,63 61,62 65,57 69,53 73,53 78,52 82,48 86,49 90,50 94,54 98,59 102,62 106,64 110,68 114,72 118,77 122,81 126,86 130,86 134,87 139,86 143,88 147,88 151,89 155,89 159,90 163,91 167,91 171,91 175,92 179,92 183,92 187,92 192,92 196,90 200,88 204,86 209,85 213,84 217,82 221,80 225,77 229,73 233,68 237,64 241,64 245,67 250,66 254,70 258,75 262,78 266,80 270,81 274,80 278,80 282,79 286,77 290,76 294,77 298,75 302,73 306,69 310,64 314,59 319,59 323,59 327,60 331,59 335,59 339,63 343,68 347,71 351,75 355,78 359,78 364,78 368,76 372,73 377,72 381,71 385,70 389,68 393,65 397,59 401,54 405,50 409,45 413,44 418,40 419,40" stroke="#2963da" fill="none" stroke-width="3" stroke-linejoin="round" stroke-linecap="round" />
</svg>