<svg width="419" height="100" viewBox="0 0 419 100" xmlns="http://www.w3.org/2000/svg" xmlns:xlink="http://www.w3.org/1999/xlink"><defs>
<linearGradient id="grad" x1="0%" y1="0%" x2="0%" y2="100%">
<stop offset="0%" stop-color="#2963da" stop-opacity="0.40"/>
<stop offset="100%" stop-color="#070720" stop-opacity="0.20"/>
</linearGradient>
</defs>
<rect x="0" y="0" width="419" height="100" fill="none" />
<polygon points="0,58 4,57 8,56 12,56 16,55 20,53 25,52 29,50 33,48 37,45 41,42 45,39 49,36 53,33 57,30 61,28 66,30 70,32 74,35 78,38 82,41 86,44 90,47 94,50 98,53 102,56 107,59 111,62 115,63 119,64 123,64 127,65 131,65 135,67 139,68 144,69 148,69 152,71 156,71 160,72 164,73 168,73 172,73 176,73 180,74 185,74 189,75 193,76 197,77 201,76 205,75 210,75 214,75 218,75 222,77 226,78 230,80 234,79 238,80 242,82 247,82 251,82 255,84 259,87 263,88 267,89 272,90 276,90 280,90 284,90 288,91 292,91 296,92 300,92 305,92 309,91 313,92 317,92 321,92 325,92 329,92 333,92 337,92 342,92 346,92 350,92 354,92 358,92 363,92 367,92 371,92 375,92 379,92 383,92 387,91 391,91 396,92 400,92 404,92 408,92 413,92 417,92 419,92 419,100 0,100" fill="url(#grad)" stroke="none" />
<polyline points="0,58 4,57 8,56 12,56 16,55 20,53 25,52 29,50 33,48 37,45 41,42 45,39 49,36 53,33 57,30 61,28 66,30 70,32 74,35 78,38 82,41 86,44 90,47 94,50 98,53 102,56 107,59 111,62 115,63 119,64 123,64 127,65 131,65 135,67 139,68 144,69 148,69 152,71 156,71 160,72 164,73 168,73 172,73 176,73 180,74 185,74 189,75 193,76 197,77 201,76 205,75 210,75 214,75 218,75 222,77 226,78 230,80 234,79 238,80 242,82 247,82 251,82 255,84 259,87 263,88 267,89 272,90 276,90 280,90 284,90 288,91 292,91 296,92 300,92 305,92 309,91 313,92 317,92 321,92 325,92 329,92 333,92 337,92 342,92 346,92 350,92 354,92 358,92 363,92 367,92 371,92 375,92 379,92 383,92 387,91 391,91 396,92 400,92 404,92 408,92 413,92 417,92 419,92" stroke="#2963da" fill="none" stroke-width="3" stroke-linejoin="round" stroke-linecap="round" />
</svg>