<svg width="419" height="100" viewBox="0 0 419 100" xmlns="http://www.w3.org/2000/svg" xmlns:xlink="http://www.w3.org/1999/xlink"><defs>
<linearGradient id="grad" x1="0%" y1="0%" x2="0%" y2="100%">
<stop offset="0%" stop-color="#2963da" stop-opacity="0.40"/>
<stop offset="100%" stop-color="#070720" stop-opacity="0.20"/>
</linearGradient>
</defs>
<rect x="0" y="0" width="419" height="100" fill="none" />
<polygon points="0,92 4,90 8,86 12,82 16,78 20,76 24,76 28,75 32,78 36,82 40,83 44,85 48,86 53,87 57,87 61,88 65,88 69,88 73,88 78,87 82,86 86,85 90,84 94,83 98,81 102,80 106,78 110,75 114,73 118,70 122,68 126,65 130,62 135,60 139,58 143,56 147,53 151,51 155,49 159,48 163,47 167,47 171,46 175,49 179,51 183,54 187,58 191,61 195,64 200,68 204,70 208,72 212,71 216,72 220,72 224,73 228,75 232,76 236,76 241,76 245,76 249,78 253,78 257,79 261,80 265,80 269,81 273,82 277,83 281,84 286,85 290,86 294,87 298,87 302,88 306,89 310,88 314,87 318,86 322,85 326,84 330,83 334,82 338,81 343,80 347,79 351,77 355,77 359,73 363,68 367,64 371,68 375,71 379,74 383,73 387,70 391,68 395,66 400,63 404,59 408,55 412,50 416,45 419,43 419,100 0,100" fill="url(#grad)" stroke="none" />
<polyline points="0,92 4,90 8,86 12,82 16,78 20,76 24,76 28,75 32,78 36,82 40,83 44,85 48,86 53,87 57,87 61,88 65,88 69,88 73,88 78,87 82,86 86,85 90,84 94,83 98,81 102,80 106,78 110,75 114,73 118,70 122,68 126,65 130,62 135,60 139,58 143,56 147,53 151,51 155,49 159,48 163,47 167,47 171,46 175,49 179,51 183,54 187,58 191,61 195,64 200,68 204,70 208,72 212,71 216,72 220,72 224,73 228,75 232,76 236,76 241,76 245,76 249,78 253,78 257,79 261,80 265,80 269,81 273,82 277,83 281,84 286,85 290,86 294,87 298,87 302,88 306,89 310,88 314,87 318,86 322,85 326,84 330,83 334,82 338,81 343,80 347,79 351,77 355,77 359,73 363,68 367,64 371,68 375,71 379,74 383,73 387,70 391,68 395,66 400,63 404,59 408,55 412,50 416,45 419,43" stroke="#2963da" fill="none" stroke-width="3" stroke-linejoin="round" stroke-linecap="round" />
</svg>