<svg width="419" height="100" viewBox="0 0 419 100" xmlns="http://www.w3.org/2000/svg" xmlns:xlink="http://www.w3.org/1999/xlink"><defs>
<linearGradient id="grad" x1="0%" y1="0%" x2="0%" y2="100%">
<stop offset="0%" stop-color="#2963da" stop-opacity="0.40"/>
<stop offset="100%" stop-color="#070720" stop-opacity="0.20"/>
</linearGradient>
</defs>
<rect x="0" y="0" width="419" height="100" fill="none" />
<polygon points="0,92 4,92 8,92 12,92 16,92 20,92 24,92 28,92 32,92 37,90 41,91 45,92 49,92 53,92 57,92 61,92 65,91 69,90 73,89 77,91 81,91 86,91 90,92 94,92 98,91 102,91 106,90 110,90 114,91 118,92 122,91 126,91 130,90 134,89 138,89 143,91 147,91 151,92 155,88 159,89 163,90 167,91 171,90 175,89 179,92 183,91 187,90 191,90 196,89 200,89 204,90 208,91 212,92 216,90 220,91 224,92 228,91 232,89 236,92 240,92 244,90 249,89 253,88 257,89 261,92 265,92 269,90 273,91 277,90 281,92 285,92 289,90 293,91 297,92 301,90 305,92 310,90 314,91 318,92 322,92 326,91 330,89 334,91 338,92 342,90 346,89 350,91 354,91 358,88 362,92 366,92 371,92 375,92 379,91 383,92 387,91 391,92 395,92 399,92 403,92 407,92 411,92 416,92 419,92 419,100 0,100" fill="url(#grad)" stroke="none" />
<polyline points="0,92 4,92 8,92 12,92 16,92 20,92 24,92 28,92 32,92 37,90 41,91 45,92 49,92 53,92 57,92 61,92 65,91 69,90 73,89 77,91 81,91 86,91 90,92 94,92 98,91 102,91 106,90 110,90 114,91 118,92 122,91 126,91 130,90 134,89 138,89 143,91 147,91 151,92 155,88 159,89 163,90 167,91 171,90 175,89 179,92 183,91 187,90 191,90 196,89 200,89 204,90 208,91 212,92 216,90 220,91 224,92 228,91 232,89 236,92 240,92 244,90 249,89 253,88 257,89 261,92 265,92 269,90 273,91 277,90 281,92 285,92 289,90 293,91 297,92 301,90 305,92 310,90 314,91 318,92 322,92 326,91 330,89 334,91 338,92 342,90 346,89 350,91 354,91 358,88 362,92 366,92 371,92 375,92 379,91 383,92 387,91 391,92 395,92 399,92 403,92 407,92 411,92 416,92 419,92" stroke="#2963da" fill="none" stroke-width="3" stroke-linejoin="round" stroke-linecap="round" />
</svg>