<svg width="419" height="100" viewBox="0 0 419 100" xmlns="http://www.w3.org/2000/svg" xmlns:xlink="http://www.w3.org/1999/xlink"><defs>
<linearGradient id="grad" x1="0%" y1="0%" x2="0%" y2="100%">
<stop offset="0%" stop-color="#2963da" stop-opacity="0.40"/>
<stop offset="100%" stop-color="#070720" stop-opacity="0.20"/>
</linearGradient>
</defs>
<rect x="0" y="0" width="419" height="100" fill="none" />
<polygon points="0,92 4,92 8,92 13,92 17,92 23,92 29,92 34,92 40,92 45,92 51,92 56,91 60,91 66,91 71,91 75,91 81,91 87,91 92,91 97,91 101,91 105,91 111,91 116,91 120,91 125,91 129,91 135,91 140,91 144,91 149,91 153,91 157,91 162,91 166,91 171,91 176,91 182,91 188,91 192,91 196,91 201,91 207,91 212,92 217,92 223,92 229,92 234,92 240,92 244,92 249,92 255,92 260,92 267,92 272,92 277,91 282,91 288,91 294,91 298,91 303,91 307,91 312,91 317,91 322,92 327,92 331,92 337,92 342,92 348,92 353,92 358,92 364,92 368,92 373,92 379,92 384,92 388,92 393,92 399,92 403,92 409,92 416,92 419,92 419,100 0,100" fill="url(#grad)" stroke="none" />
<polyline points="0,92 4,92 8,92 13,92 17,92 23,92 29,92 34,92 40,92 45,92 51,92 56,91 60,91 66,91 71,91 75,91 81,91 87,91 92,91 97,91 101,91 105,91 111,91 116,91 120,91 125,91 129,91 135,91 140,91 144,91 149,91 153,91 157,91 162,91 166,91 171,91 176,91 182,91 188,91 192,91 196,91 201,91 207,91 212,92 217,92 223,92 229,92 234,92 240,92 244,92 249,92 255,92 260,92 267,92 272,92 277,91 282,91 288,91 294,91 298,91 303,91 307,91 312,91 317,91 322,92 327,92 331,92 337,92 342,92 348,92 353,92 358,92 364,92 368,92 373,92 379,92 384,92 388,92 393,92 399,92 403,92 409,92 416,92 419,92" stroke="#2963da" fill="none" stroke-width="3" stroke-linejoin="round" stroke-linecap="round" />
</svg>