<svg width="419" height="100" viewBox="0 0 419 100" xmlns="http://www.w3.org/2000/svg" xmlns:xlink="http://www.w3.org/1999/xlink"><defs>
<linearGradient id="grad" x1="0%" y1="0%" x2="0%" y2="100%">
<stop offset="0%" stop-color="#2963da" stop-opacity="0.40"/>
<stop offset="100%" stop-color="#070720" stop-opacity="0.20"/>
</linearGradient>
</defs>
<rect x="0" y="0" width="419" height="100" fill="none" />
<polygon points="0,92 4,91 8,91 12,90 16,89 20,89 24,88 28,86 32,81 36,75 40,71 44,66 48,65 53,64 57,61 61,64 65,68 69,68 73,64 77,62 81,60 85,59 89,59 93,63 97,66 101,66 106,68 110,71 114,75 118,75 122,77 126,78 130,79 134,80 138,79 142,77 146,81 150,81 154,82 158,83 163,83 167,83 171,83 175,82 179,81 183,81 187,82 191,83 196,83 200,83 204,84 208,84 212,84 216,84 220,84 224,82 228,82 232,81 236,81 241,80 245,80 249,79 253,78 257,76 261,73 265,71 269,73 273,73 277,72 282,71 286,68 290,67 294,62 298,57 302,60 306,61 310,52 314,44 318,40 322,45 327,43 331,44 335,47 339,46 343,44 347,46 351,45 355,43 359,42 363,40 368,41 372,44 376,46 380,50 384,55 388,58 392,60 396,64 400,64 404,67 409,63 413,66 417,66 419,66 419,100 0,100" fill="url(#grad)" stroke="none" />
<polyline points="0,92 4,91 8,91 12,90 16,89 20,89 24,88 28,86 32,81 36,75 40,71 44,66 48,65 53,64 57,61 61,64 65,68 69,68 73,64 77,62 81,60 85,59 89,59 93,63 97,66 101,66 106,68 110,71 114,75 118,75 122,77 126,78 130,79 134,80 138,79 142,77 146,81 150,81 154,82 158,83 163,83 167,83 171,83 175,82 179,81 183,81 187,82 191,83 196,83 200,83 204,84 208,84 212,84 216,84 220,84 224,82 228,82 232,81 236,81 241,80 245,80 249,79 253,78 257,76 261,73 265,71 269,73 273,73 277,72 282,71 286,68 290,67 294,62 298,57 302,60 306,61 310,52 314,44 318,40 322,45 327,43 331,44 335,47 339,46 343,44 347,46 351,45 355,43 359,42 363,40 368,41 372,44 376,46 380,50 384,55 388,58 392,60 396,64 400,64 404,67 409,63 413,66 417,66 419,66" stroke="#2963da" fill="none" stroke-width="3" stroke-linejoin="round" stroke-linecap="round" />
</svg>