<svg width="419" height="100" viewBox="0 0 419 100" xmlns="http://www.w3.org/2000/svg" xmlns:xlink="http://www.w3.org/1999/xlink"><defs>
<linearGradient id="grad" x1="0%" y1="0%" x2="0%" y2="100%">
<stop offset="0%" stop-color="#2963da" stop-opacity="0.40"/>
<stop offset="100%" stop-color="#070720" stop-opacity="0.20"/>
</linearGradient>
</defs>
<rect x="0" y="0" width="419" height="100" fill="none" />
<polygon points="0,86 4,86 8,86 12,87 17,87 21,87 25,88 29,88 33,89 38,90 43,90 47,90 51,92 55,92 59,91 63,90 67,88 71,88 76,89 80,88 84,86 88,86 92,86 96,87 100,87 105,87 109,88 113,88 117,89 122,90 126,90 130,90 134,92 139,92 143,91 147,90 151,88 155,88 159,89 163,88 167,86 172,86 176,86 180,87 184,87 188,87 193,88 197,88 201,89 206,90 210,90 214,90 218,92 223,92 227,91 231,90 235,88 239,88 243,89 247,88 251,86 256,86 260,86 264,87 268,87 272,87 276,88 280,88 285,89 289,90 294,90 298,90 302,92 306,92 311,91 315,90 319,88 323,88 327,89 331,88 335,86 339,86 343,86 347,87 352,87 356,87 360,88 364,88 368,89 373,90 378,90 382,90 386,92 390,92 394,91 398,90 403,88 407,88 411,89 415,88 419,86 419,100 0,100" fill="url(#grad)" stroke="none" />
<polyline points="0,86 4,86 8,86 12,87 17,87 21,87 25,88 29,88 33,89 38,90 43,90 47,90 51,92 55,92 59,91 63,90 67,88 71,88 76,89 80,88 84,86 88,86 92,86 96,87 100,87 105,87 109,88 113,88 117,89 122,90 126,90 130,90 134,92 139,92 143,91 147,90 151,88 155,88 159,89 163,88 167,86 172,86 176,86 180,87 184,87 188,87 193,88 197,88 201,89 206,90 210,90 214,90 218,92 223,92 227,91 231,90 235,88 239,88 243,89 247,88 251,86 256,86 260,86 264,87 268,87 272,87 276,88 280,88 285,89 289,90 294,90 298,90 302,92 306,92 311,91 315,90 319,88 323,88 327,89 331,88 335,86 339,86 343,86 347,87 352,87 356,87 360,88 364,88 368,89 373,90 378,90 382,90 386,92 390,92 394,91 398,90 403,88 407,88 411,89 415,88 419,86" stroke="#2963da" fill="none" stroke-width="3" stroke-linejoin="round" stroke-linecap="round" />
</svg>