<svg width="419" height="100" viewBox="0 0 419 100" xmlns="http://www.w3.org/2000/svg" xmlns:xlink="http://www.w3.org/1999/xlink"><defs>
<linearGradient id="grad" x1="0%" y1="0%" x2="0%" y2="100%">
<stop offset="0%" stop-color="#2963da" stop-opacity="0.40"/>
<stop offset="100%" stop-color="#070720" stop-opacity="0.20"/>
</linearGradient>
</defs>
<rect x="0" y="0" width="419" height="100" fill="none" />
<polygon points="0,85 4,86 8,86 12,87 16,86 21,87 25,87 29,88 33,88 37,86 41,80 46,83 50,89 54,89 58,89 62,89 66,90 70,90 74,90 78,90 82,90 86,90 91,90 95,89 99,88 103,82 107,77 111,72 115,69 119,67 123,71 127,73 132,74 136,73 140,75 144,76 149,77 153,78 157,75 161,70 165,68 169,65 173,70 177,74 182,80 186,81 190,82 194,83 198,83 202,83 206,84 210,84 214,84 219,81 223,80 227,82 231,81 235,79 239,79 243,81 247,84 251,85 256,86 260,87 264,87 268,87 272,88 277,88 281,87 285,89 289,89 293,89 297,89 301,87 305,88 309,91 313,92 318,90 322,89 326,89 330,91 334,92 338,92 342,92 347,90 351,88 355,90 359,91 363,90 367,89 371,90 375,91 380,91 384,90 388,90 392,89 396,91 401,92 405,92 409,92 413,92 417,92 419,92 419,100 0,100" fill="url(#grad)" stroke="none" />
<polyline points="0,85 4,86 8,86 12,87 16,86 21,87 25,87 29,88 33,88 37,86 41,80 46,83 50,89 54,89 58,89 62,89 66,90 70,90 74,90 78,90 82,90 86,90 91,90 95,89 99,88 103,82 107,77 111,72 115,69 119,67 123,71 127,73 132,74 136,73 140,75 144,76 149,77 153,78 157,75 161,70 165,68 169,65 173,70 177,74 182,80 186,81 190,82 194,83 198,83 202,83 206,84 210,84 214,84 219,81 223,80 227,82 231,81 235,79 239,79 243,81 247,84 251,85 256,86 260,87 264,87 268,87 272,88 277,88 281,87 285,89 289,89 293,89 297,89 301,87 305,88 309,91 313,92 318,90 322,89 326,89 330,91 334,92 338,92 342,92 347,90 351,88 355,90 359,91 363,90 367,89 371,90 375,91 380,91 384,90 388,90 392,89 396,91 401,92 405,92 409,92 413,92 417,92 419,92" stroke="#2963da" fill="none" stroke-width="3" stroke-linejoin="round" stroke-linecap="round" />
</svg>