<svg width="419" height="100" viewBox="0 0 419 100" xmlns="http://www.w3.org/2000/svg" xmlns:xlink="http://www.w3.org/1999/xlink"><defs>
<linearGradient id="grad" x1="0%" y1="0%" x2="0%" y2="100%">
<stop offset="0%" stop-color="#2963da" stop-opacity="0.40"/>
<stop offset="100%" stop-color="#070720" stop-opacity="0.20"/>
</linearGradient>
</defs>
<rect x="0" y="0" width="419" height="100" fill="none" />
<polygon points="0,89 4,91 8,91 12,92 16,92 20,92 24,92 28,88 32,87 36,88 40,85 44,82 48,77 52,70 57,67 61,72 65,75 69,81 73,85 77,88 81,87 86,89 90,89 94,89 98,87 102,87 106,85 110,82 114,77 118,73 122,73 126,76 130,80 134,84 138,84 142,88 146,91 150,91 155,92 159,91 163,88 167,87 172,85 176,86 180,88 184,92 188,92 192,92 196,90 200,90 204,85 208,87 213,91 217,92 221,92 225,92 229,91 233,91 237,91 241,90 245,89 249,85 253,77 257,71 261,71 265,74 269,78 274,83 278,86 282,88 286,89 290,90 294,89 298,88 302,87 306,83 310,78 314,80 319,84 323,83 327,81 331,81 335,87 339,87 343,86 347,83 351,76 356,73 360,78 364,82 368,86 372,88 376,89 380,86 384,83 388,80 392,80 396,84 400,88 404,91 408,90 412,89 417,88 419,88 419,100 0,100" fill="url(#grad)" stroke="none" />
<polyline points="0,89 4,91 8,91 12,92 16,92 20,92 24,92 28,88 32,87 36,88 40,85 44,82 48,77 52,70 57,67 61,72 65,75 69,81 73,85 77,88 81,87 86,89 90,89 94,89 98,87 102,87 106,85 110,82 114,77 118,73 122,73 126,76 130,80 134,84 138,84 142,88 146,91 150,91 155,92 159,91 163,88 167,87 172,85 176,86 180,88 184,92 188,92 192,92 196,90 200,90 204,85 208,87 213,91 217,92 221,92 225,92 229,91 233,91 237,91 241,90 245,89 249,85 253,77 257,71 261,71 265,74 269,78 274,83 278,86 282,88 286,89 290,90 294,89 298,88 302,87 306,83 310,78 314,80 319,84 323,83 327,81 331,81 335,87 339,87 343,86 347,83 351,76 356,73 360,78 364,82 368,86 372,88 376,89 380,86 384,83 388,80 392,80 396,84 400,88 404,91 408,90 412,89 417,88 419,88" stroke="#2963da" fill="none" stroke-width="3" stroke-linejoin="round" stroke-linecap="round" />
</svg>