<svg width="419" height="100" viewBox="0 0 419 100" xmlns="http://www.w3.org/2000/svg" xmlns:xlink="http://www.w3.org/1999/xlink"><defs>
<linearGradient id="grad" x1="0%" y1="0%" x2="0%" y2="100%">
<stop offset="0%" stop-color="#2963da" stop-opacity="0.40"/>
<stop offset="100%" stop-color="#070720" stop-opacity="0.20"/>
</linearGradient>
</defs>
<rect x="0" y="0" width="419" height="100" fill="none" />
<polygon points="0,92 4,92 8,92 12,92 16,91 20,92 24,92 28,92 32,92 36,92 41,92 45,92 49,92 53,92 57,91 61,91 65,91 69,91 73,91 77,91 81,91 85,91 90,91 94,91 98,91 102,91 106,91 110,91 114,89 118,90 122,90 127,90 131,90 135,90 139,91 143,91 147,91 151,91 155,92 159,92 163,92 167,92 171,92 175,91 179,92 183,92 187,92 191,92 195,91 200,91 204,92 208,92 213,92 217,92 221,91 225,91 229,91 233,91 237,91 241,91 245,92 249,92 253,91 257,91 261,91 265,92 270,92 274,92 278,91 282,92 286,92 290,92 294,92 298,92 302,91 306,91 310,90 314,91 318,90 323,91 327,91 331,91 335,91 339,91 343,89 347,86 351,90 355,90 359,91 363,92 367,92 372,92 376,92 380,92 384,92 388,92 392,92 396,92 400,92 404,92 408,92 412,92 416,92 419,92 419,100 0,100" fill="url(#grad)" stroke="none" />
<polyline points="0,92 4,92 8,92 12,92 16,91 20,92 24,92 28,92 32,92 36,92 41,92 45,92 49,92 53,92 57,91 61,91 65,91 69,91 73,91 77,91 81,91 85,91 90,91 94,91 98,91 102,91 106,91 110,91 114,89 118,90 122,90 127,90 131,90 135,90 139,91 143,91 147,91 151,91 155,92 159,92 163,92 167,92 171,92 175,91 179,92 183,92 187,92 191,92 195,91 200,91 204,92 208,92 213,92 217,92 221,91 225,91 229,91 233,91 237,91 241,91 245,92 249,92 253,91 257,91 261,91 265,92 270,92 274,92 278,91 282,92 286,92 290,92 294,92 298,92 302,91 306,91 310,90 314,91 318,90 323,91 327,91 331,91 335,91 339,91 343,89 347,86 351,90 355,90 359,91 363,92 367,92 372,92 376,92 380,92 384,92 388,92 392,92 396,92 400,92 404,92 408,92 412,92 416,92 419,92" stroke="#2963da" fill="none" stroke-width="3" stroke-linejoin="round" stroke-linecap="round" />
</svg>