<svg width="419" height="100" viewBox="0 0 419 100" xmlns="http://www.w3.org/2000/svg" xmlns:xlink="http://www.w3.org/1999/xlink"><defs>
<linearGradient id="grad" x1="0%" y1="0%" x2="0%" y2="100%">
<stop offset="0%" stop-color="#2963da" stop-opacity="0.40"/>
<stop offset="100%" stop-color="#070720" stop-opacity="0.20"/>
</linearGradient>
</defs>
<rect x="0" y="0" width="419" height="100" fill="none" />
<polygon points="0,90 4,90 8,89 12,90 16,90 20,90 24,91 28,91 32,91 36,92 40,92 45,92 49,91 53,90 57,92 61,91 65,91 69,91 73,90 77,90 81,90 85,90 90,91 94,91 98,91 102,90 106,91 110,91 114,92 118,91 122,91 126,92 130,92 134,89 139,90 143,92 147,92 151,92 155,88 159,92 163,91 167,89 171,84 175,80 180,77 184,80 188,86 192,88 196,89 200,90 204,89 208,89 212,88 216,87 220,89 224,88 229,88 233,88 237,88 241,87 245,86 249,86 253,86 257,88 261,87 266,87 270,89 274,90 278,92 282,85 286,76 290,70 295,64 299,59 303,53 307,50 311,51 315,55 319,59 323,64 327,67 331,74 335,79 339,83 343,82 347,82 352,75 356,86 360,86 364,87 368,88 372,87 376,86 381,89 385,90 389,90 393,84 397,76 401,69 405,64 409,59 413,53 417,50 419,49 419,100 0,100" fill="url(#grad)" stroke="none" />
<polyline points="0,90 4,90 8,89 12,90 16,90 20,90 24,91 28,91 32,91 36,92 40,92 45,92 49,91 53,90 57,92 61,91 65,91 69,91 73,90 77,90 81,90 85,90 90,91 94,91 98,91 102,90 106,91 110,91 114,92 118,91 122,91 126,92 130,92 134,89 139,90 143,92 147,92 151,92 155,88 159,92 163,91 167,89 171,84 175,80 180,77 184,80 188,86 192,88 196,89 200,90 204,89 208,89 212,88 216,87 220,89 224,88 229,88 233,88 237,88 241,87 245,86 249,86 253,86 257,88 261,87 266,87 270,89 274,90 278,92 282,85 286,76 290,70 295,64 299,59 303,53 307,50 311,51 315,55 319,59 323,64 327,67 331,74 335,79 339,83 343,82 347,82 352,75 356,86 360,86 364,87 368,88 372,87 376,86 381,89 385,90 389,90 393,84 397,76 401,69 405,64 409,59 413,53 417,50 419,49" stroke="#2963da" fill="none" stroke-width="3" stroke-linejoin="round" stroke-linecap="round" />
</svg>