<svg width="419" height="100" viewBox="0 0 419 100" xmlns="http://www.w3.org/2000/svg" xmlns:xlink="http://www.w3.org/1999/xlink"><defs>
<linearGradient id="grad" x1="0%" y1="0%" x2="0%" y2="100%">
<stop offset="0%" stop-color="#2963da" stop-opacity="0.40"/>
<stop offset="100%" stop-color="#070720" stop-opacity="0.20"/>
</linearGradient>
</defs>
<rect x="0" y="0" width="419" height="100" fill="none" />
<polygon points="0,92 4,92 8,92 12,92 16,92 20,92 24,92 28,92 32,92 36,91 40,92 44,92 48,92 52,91 56,92 60,92 65,92 69,92 73,92 77,92 81,92 85,92 89,92 93,92 97,92 102,91 106,92 110,92 114,91 118,91 122,92 126,92 130,90 134,90 138,90 142,90 146,90 150,90 154,90 158,90 163,91 167,91 171,91 175,91 179,92 184,92 188,92 192,92 196,92 200,92 204,92 208,92 212,90 216,88 221,88 225,89 229,90 233,92 237,90 241,89 245,90 249,92 253,89 257,91 262,92 266,90 270,89 274,91 278,89 282,90 286,91 290,89 294,89 298,91 302,91 306,89 311,89 315,89 319,88 323,88 327,89 331,92 335,89 339,90 343,92 347,92 351,90 355,91 360,91 364,89 368,89 372,89 376,89 380,88 384,88 388,92 392,89 396,89 400,92 404,92 408,92 412,92 417,92 419,92 419,100 0,100" fill="url(#grad)" stroke="none" />
<polyline points="0,92 4,92 8,92 12,92 16,92 20,92 24,92 28,92 32,92 36,91 40,92 44,92 48,92 52,91 56,92 60,92 65,92 69,92 73,92 77,92 81,92 85,92 89,92 93,92 97,92 102,91 106,92 110,92 114,91 118,91 122,92 126,92 130,90 134,90 138,90 142,90 146,90 150,90 154,90 158,90 163,91 167,91 171,91 175,91 179,92 184,92 188,92 192,92 196,92 200,92 204,92 208,92 212,90 216,88 221,88 225,89 229,90 233,92 237,90 241,89 245,90 249,92 253,89 257,91 262,92 266,90 270,89 274,91 278,89 282,90 286,91 290,89 294,89 298,91 302,91 306,89 311,89 315,89 319,88 323,88 327,89 331,92 335,89 339,90 343,92 347,92 351,90 355,91 360,91 364,89 368,89 372,89 376,89 380,88 384,88 388,92 392,89 396,89 400,92 404,92 408,92 412,92 417,92 419,92" stroke="#2963da" fill="none" stroke-width="3" stroke-linejoin="round" stroke-linecap="round" />
</svg>