<svg width="419" height="100" viewBox="0 0 419 100" xmlns="http://www.w3.org/2000/svg" xmlns:xlink="http://www.w3.org/1999/xlink"><defs>
<linearGradient id="grad" x1="0%" y1="0%" x2="0%" y2="100%">
<stop offset="0%" stop-color="#2963da" stop-opacity="0.40"/>
<stop offset="100%" stop-color="#070720" stop-opacity="0.20"/>
</linearGradient>
</defs>
<rect x="0" y="0" width="419" height="100" fill="none" />
<polygon points="0,82 4,79 8,81 12,82 16,86 20,89 24,92 28,92 32,92 36,92 40,92 45,92 49,92 53,92 57,92 61,92 65,89 69,86 73,85 77,84 81,81 85,78 89,78 93,79 97,79 101,80 106,83 110,85 114,85 118,83 122,86 126,88 130,85 134,83 138,86 142,85 146,84 150,84 155,82 159,82 163,83 167,83 171,84 175,83 179,81 183,81 187,82 191,83 195,83 199,79 203,76 207,75 211,74 215,69 220,69 224,71 228,71 232,69 236,66 240,67 244,69 248,70 252,70 256,71 260,74 264,73 268,73 272,73 277,73 281,72 285,72 289,75 293,75 297,77 301,78 305,78 310,74 314,72 318,75 322,76 326,78 330,75 334,75 338,77 342,76 346,80 350,80 354,80 358,78 363,77 367,76 371,74 375,73 379,71 383,71 387,72 391,73 395,75 399,77 403,80 407,81 411,81 415,79 419,77 419,100 0,100" fill="url(#grad)" stroke="none" />
<polyline points="0,82 4,79 8,81 12,82 16,86 20,89 24,92 28,92 32,92 36,92 40,92 45,92 49,92 53,92 57,92 61,92 65,89 69,86 73,85 77,84 81,81 85,78 89,78 93,79 97,79 101,80 106,83 110,85 114,85 118,83 122,86 126,88 130,85 134,83 138,86 142,85 146,84 150,84 155,82 159,82 163,83 167,83 171,84 175,83 179,81 183,81 187,82 191,83 195,83 199,79 203,76 207,75 211,74 215,69 220,69 224,71 228,71 232,69 236,66 240,67 244,69 248,70 252,70 256,71 260,74 264,73 268,73 272,73 277,73 281,72 285,72 289,75 293,75 297,77 301,78 305,78 310,74 314,72 318,75 322,76 326,78 330,75 334,75 338,77 342,76 346,80 350,80 354,80 358,78 363,77 367,76 371,74 375,73 379,71 383,71 387,72 391,73 395,75 399,77 403,80 407,81 411,81 415,79 419,77" stroke="#2963da" fill="none" stroke-width="3" stroke-linejoin="round" stroke-linecap="round" />
</svg>