<svg width="419" height="100" viewBox="0 0 419 100" xmlns="http://www.w3.org/2000/svg" xmlns:xlink="http://www.w3.org/1999/xlink"><defs>
<linearGradient id="grad" x1="0%" y1="0%" x2="0%" y2="100%">
<stop offset="0%" stop-color="#2963da" stop-opacity="0.40"/>
<stop offset="100%" stop-color="#070720" stop-opacity="0.20"/>
</linearGradient>
</defs>
<rect x="0" y="0" width="419" height="100" fill="none" />
<polygon points="0,92 4,92 8,92 12,92 16,91 20,91 25,88 29,90 33,92 37,89 41,92 45,92 49,91 54,91 58,91 62,89 66,90 70,90 75,89 79,87 83,90 87,89 92,86 96,87 100,90 104,91 108,90 112,89 117,90 121,90 125,89 129,90 133,90 137,89 141,88 145,85 150,85 154,84 158,84 162,85 167,84 171,83 175,83 179,82 184,82 188,81 192,81 197,81 201,84 205,84 209,82 213,81 218,87 222,88 226,88 230,88 234,87 238,87 242,86 247,86 251,85 255,85 259,83 263,82 267,82 271,81 275,80 279,78 283,76 287,71 291,67 295,62 299,57 303,50 307,45 312,43 316,49 320,54 324,59 328,64 332,61 336,55 340,55 344,61 348,63 352,66 356,67 361,66 365,68 369,70 373,74 377,80 382,82 386,81 390,77 394,72 398,67 402,63 406,57 410,51 414,45 418,40 419,40 419,100 0,100" fill="url(#grad)" stroke="none" />
<polyline points="0,92 4,92 8,92 12,92 16,91 20,91 25,88 29,90 33,92 37,89 41,92 45,92 49,91 54,91 58,91 62,89 66,90 70,90 75,89 79,87 83,90 87,89 92,86 96,87 100,90 104,91 108,90 112,89 117,90 121,90 125,89 129,90 133,90 137,89 141,88 145,85 150,85 154,84 158,84 162,85 167,84 171,83 175,83 179,82 184,82 188,81 192,81 197,81 201,84 205,84 209,82 213,81 218,87 222,88 226,88 230,88 234,87 238,87 242,86 247,86 251,85 255,85 259,83 263,82 267,82 271,81 275,80 279,78 283,76 287,71 291,67 295,62 299,57 303,50 307,45 312,43 316,49 320,54 324,59 328,64 332,61 336,55 340,55 344,61 348,63 352,66 356,67 361,66 365,68 369,70 373,74 377,80 382,82 386,81 390,77 394,72 398,67 402,63 406,57 410,51 414,45 418,40 419,40" stroke="#2963da" fill="none" stroke-width="3" stroke-linejoin="round" stroke-linecap="round" />
</svg>