<svg width="419" height="100" viewBox="0 0 419 100" xmlns="http://www.w3.org/2000/svg" xmlns:xlink="http://www.w3.org/1999/xlink"><defs>
<linearGradient id="grad" x1="0%" y1="0%" x2="0%" y2="100%">
<stop offset="0%" stop-color="#2963da" stop-opacity="0.40"/>
<stop offset="100%" stop-color="#070720" stop-opacity="0.20"/>
</linearGradient>
</defs>
<rect x="0" y="0" width="419" height="100" fill="none" />
<polygon points="0,92 4,92 8,92 12,92 16,92 20,92 24,92 28,92 32,92 36,92 40,92 44,92 48,92 52,92 56,92 60,92 64,92 68,92 72,92 76,92 80,92 84,92 89,91 93,91 97,91 101,91 105,91 109,91 113,92 117,91 121,91 125,91 129,91 133,91 137,91 141,92 145,92 149,92 153,92 157,92 161,92 165,92 169,92 174,92 178,92 182,92 186,92 190,92 194,92 198,91 202,92 206,92 210,92 214,92 218,92 222,92 226,92 230,92 234,92 238,91 242,91 246,91 250,91 254,91 258,91 263,91 267,90 271,90 275,91 279,91 283,91 287,91 291,91 295,91 299,91 303,91 307,91 311,91 315,91 319,90 323,90 327,90 331,90 335,90 339,91 343,90 348,90 352,90 356,90 360,90 364,90 368,90 372,90 376,90 380,90 384,89 388,89 392,89 396,89 400,90 404,90 408,90 412,90 416,91 419,91 419,100 0,100" fill="url(#grad)" stroke="none" />
<polyline points="0,92 4,92 8,92 12,92 16,92 20,92 24,92 28,92 32,92 36,92 40,92 44,92 48,92 52,92 56,92 60,92 64,92 68,92 72,92 76,92 80,92 84,92 89,91 93,91 97,91 101,91 105,91 109,91 113,92 117,91 121,91 125,91 129,91 133,91 137,91 141,92 145,92 149,92 153,92 157,92 161,92 165,92 169,92 174,92 178,92 182,92 186,92 190,92 194,92 198,91 202,92 206,92 210,92 214,92 218,92 222,92 226,92 230,92 234,92 238,91 242,91 246,91 250,91 254,91 258,91 263,91 267,90 271,90 275,91 279,91 283,91 287,91 291,91 295,91 299,91 303,91 307,91 311,91 315,91 319,90 323,90 327,90 331,90 335,90 339,91 343,90 348,90 352,90 356,90 360,90 364,90 368,90 372,90 376,90 380,90 384,89 388,89 392,89 396,89 400,90 404,90 408,90 412,90 416,91 419,91" stroke="#2963da" fill="none" stroke-width="3" stroke-linejoin="round" stroke-linecap="round" />
</svg>