<svg width="419" height="100" viewBox="0 0 419 100" xmlns="http://www.w3.org/2000/svg" xmlns:xlink="http://www.w3.org/1999/xlink"><defs>
<linearGradient id="grad" x1="0%" y1="0%" x2="0%" y2="100%">
<stop offset="0%" stop-color="#2963da" stop-opacity="0.40"/>
<stop offset="100%" stop-color="#070720" stop-opacity="0.20"/>
</linearGradient>
</defs>
<rect x="0" y="0" width="419" height="100" fill="none" />
<polygon points="0,92 4,92 9,92 14,92 19,92 24,92 28,92 33,92 37,92 41,92 46,92 50,92 55,92 60,92 65,92 70,92 74,92 78,92 83,92 87,92 91,92 95,92 100,92 105,92 109,92 113,92 118,92 122,92 126,92 130,92 134,92 138,92 142,92 147,92 151,91 156,91 160,91 164,91 168,91 172,91 176,91 181,90 185,90 189,90 193,90 197,90 201,90 206,90 210,89 215,89 219,89 223,89 227,89 231,89 235,89 240,89 244,89 248,89 252,89 256,88 261,89 265,89 269,88 273,88 278,89 282,88 286,88 291,88 295,88 299,88 303,88 307,88 311,88 316,88 321,88 325,88 331,88 337,88 343,88 347,88 351,88 356,88 360,88 365,88 370,88 374,88 378,88 382,88 386,88 391,88 395,88 399,88 403,88 408,88 412,88 417,88 419,88 419,100 0,100" fill="url(#grad)" stroke="none" />
<polyline points="0,92 4,92 9,92 14,92 19,92 24,92 28,92 33,92 37,92 41,92 46,92 50,92 55,92 60,92 65,92 70,92 74,92 78,92 83,92 87,92 91,92 95,92 100,92 105,92 109,92 113,92 118,92 122,92 126,92 130,92 134,92 138,92 142,92 147,92 151,91 156,91 160,91 164,91 168,91 172,91 176,91 181,90 185,90 189,90 193,90 197,90 201,90 206,90 210,89 215,89 219,89 223,89 227,89 231,89 235,89 240,89 244,89 248,89 252,89 256,88 261,89 265,89 269,88 273,88 278,89 282,88 286,88 291,88 295,88 299,88 303,88 307,88 311,88 316,88 321,88 325,88 331,88 337,88 343,88 347,88 351,88 356,88 360,88 365,88 370,88 374,88 378,88 382,88 386,88 391,88 395,88 399,88 403,88 408,88 412,88 417,88 419,88" stroke="#2963da" fill="none" stroke-width="3" stroke-linejoin="round" stroke-linecap="round" />
</svg>