<svg width="419" height="100" viewBox="0 0 419 100" xmlns="http://www.w3.org/2000/svg" xmlns:xlink="http://www.w3.org/1999/xlink"><defs>
<linearGradient id="grad" x1="0%" y1="0%" x2="0%" y2="100%">
<stop offset="0%" stop-color="#2963da" stop-opacity="0.40"/>
<stop offset="100%" stop-color="#070720" stop-opacity="0.20"/>
</linearGradient>
</defs>
<rect x="0" y="0" width="419" height="100" fill="none" />
<polygon points="0,92 4,90 8,86 12,83 16,80 20,77 24,76 28,72 32,67 36,64 41,60 45,62 49,65 53,67 57,68 61,65 65,62 69,62 73,65 77,64 81,64 85,69 89,75 94,71 98,71 102,74 106,76 110,72 114,68 118,64 123,62 127,62 131,61 135,59 139,59 143,59 148,61 152,57 156,60 160,60 164,60 168,58 172,57 176,57 180,58 184,61 188,65 193,66 197,65 201,62 205,60 209,59 213,60 217,64 221,66 226,64 230,61 234,65 238,69 242,71 246,70 251,71 255,71 259,72 263,73 267,74 271,75 275,76 279,76 283,77 287,78 291,79 295,79 300,79 304,79 308,78 313,78 317,77 322,75 326,75 330,77 334,76 338,74 342,70 346,71 351,71 355,69 359,73 363,76 367,78 371,78 376,79 380,80 384,80 388,80 393,81 398,81 402,82 406,82 410,82 414,82 418,82 419,82 419,100 0,100" fill="url(#grad)" stroke="none" />
<polyline points="0,92 4,90 8,86 12,83 16,80 20,77 24,76 28,72 32,67 36,64 41,60 45,62 49,65 53,67 57,68 61,65 65,62 69,62 73,65 77,64 81,64 85,69 89,75 94,71 98,71 102,74 106,76 110,72 114,68 118,64 123,62 127,62 131,61 135,59 139,59 143,59 148,61 152,57 156,60 160,60 164,60 168,58 172,57 176,57 180,58 184,61 188,65 193,66 197,65 201,62 205,60 209,59 213,60 217,64 221,66 226,64 230,61 234,65 238,69 242,71 246,70 251,71 255,71 259,72 263,73 267,74 271,75 275,76 279,76 283,77 287,78 291,79 295,79 300,79 304,79 308,78 313,78 317,77 322,75 326,75 330,77 334,76 338,74 342,70 346,71 351,71 355,69 359,73 363,76 367,78 371,78 376,79 380,80 384,80 388,80 393,81 398,81 402,82 406,82 410,82 414,82 418,82 419,82" stroke="#2963da" fill="none" stroke-width="3" stroke-linejoin="round" stroke-linecap="round" />
</svg>