<svg width="419" height="100" viewBox="0 0 419 100" xmlns="http://www.w3.org/2000/svg" xmlns:xlink="http://www.w3.org/1999/xlink"><defs>
<linearGradient id="grad" x1="0%" y1="0%" x2="0%" y2="100%">
<stop offset="0%" stop-color="#2963da" stop-opacity="0.40"/>
<stop offset="100%" stop-color="#070720" stop-opacity="0.20"/>
</linearGradient>
</defs>
<rect x="0" y="0" width="419" height="100" fill="none" />
<polygon points="0,92 4,92 8,92 12,92 16,92 20,92 24,91 28,88 32,87 36,86 41,85 45,86 49,85 53,85 57,85 61,86 65,86 69,85 73,84 77,85 82,85 86,85 90,84 94,85 98,85 102,84 106,83 110,84 114,83 118,86 122,85 126,88 130,88 134,88 139,88 143,88 147,87 151,88 155,88 159,87 163,87 167,89 171,87 175,84 179,83 183,85 188,86 192,85 196,85 200,86 204,84 208,84 212,85 216,86 220,86 225,86 229,86 233,88 237,89 241,89 245,90 249,87 253,85 257,86 261,86 265,87 269,90 274,90 278,91 282,92 286,92 290,88 294,90 298,92 302,92 306,90 310,87 314,86 318,86 322,86 326,85 331,85 335,85 339,86 343,87 347,89 351,89 355,89 360,88 364,85 368,86 372,87 376,87 380,90 384,90 388,91 392,92 397,92 401,89 405,90 409,92 413,92 417,90 419,88 419,100 0,100" fill="url(#grad)" stroke="none" />
<polyline points="0,92 4,92 8,92 12,92 16,92 20,92 24,91 28,88 32,87 36,86 41,85 45,86 49,85 53,85 57,85 61,86 65,86 69,85 73,84 77,85 82,85 86,85 90,84 94,85 98,85 102,84 106,83 110,84 114,83 118,86 122,85 126,88 130,88 134,88 139,88 143,88 147,87 151,88 155,88 159,87 163,87 167,89 171,87 175,84 179,83 183,85 188,86 192,85 196,85 200,86 204,84 208,84 212,85 216,86 220,86 225,86 229,86 233,88 237,89 241,89 245,90 249,87 253,85 257,86 261,86 265,87 269,90 274,90 278,91 282,92 286,92 290,88 294,90 298,92 302,92 306,90 310,87 314,86 318,86 322,86 326,85 331,85 335,85 339,86 343,87 347,89 351,89 355,89 360,88 364,85 368,86 372,87 376,87 380,90 384,90 388,91 392,92 397,92 401,89 405,90 409,92 413,92 417,90 419,88" stroke="#2963da" fill="none" stroke-width="3" stroke-linejoin="round" stroke-linecap="round" />
</svg>