<svg width="419" height="100" viewBox="0 0 419 100" xmlns="http://www.w3.org/2000/svg" xmlns:xlink="http://www.w3.org/1999/xlink"><defs>
<linearGradient id="grad" x1="0%" y1="0%" x2="0%" y2="100%">
<stop offset="0%" stop-color="#2963da" stop-opacity="0.40"/>
<stop offset="100%" stop-color="#070720" stop-opacity="0.20"/>
</linearGradient>
</defs>
<rect x="0" y="0" width="419" height="100" fill="none" />
<polygon points="0,91 4,91 8,90 13,91 17,91 22,90 27,90 31,89 35,88 43,89 50,89 55,91 59,91 63,91 68,91 73,90 79,90 83,90 89,90 94,89 99,89 104,89 108,89 112,90 117,90 121,91 125,91 131,91 135,91 139,91 143,91 147,91 151,91 155,91 160,91 164,91 168,91 173,91 177,91 183,91 188,91 194,90 198,91 206,91 210,92 214,92 218,92 223,92 227,91 231,92 235,92 239,91 243,91 247,91 251,92 255,92 260,92 264,92 268,92 272,92 276,92 280,92 285,92 289,92 293,91 297,91 301,92 305,92 310,92 314,92 318,92 322,92 326,92 330,91 334,91 339,90 343,90 348,88 353,87 357,87 361,87 365,88 370,91 374,89 381,87 385,87 389,87 394,89 400,91 404,89 408,89 412,91 416,92 419,91 419,100 0,100" fill="url(#grad)" stroke="none" />
<polyline points="0,91 4,91 8,90 13,91 17,91 22,90 27,90 31,89 35,88 43,89 50,89 55,91 59,91 63,91 68,91 73,90 79,90 83,90 89,90 94,89 99,89 104,89 108,89 112,90 117,90 121,91 125,91 131,91 135,91 139,91 143,91 147,91 151,91 155,91 160,91 164,91 168,91 173,91 177,91 183,91 188,91 194,90 198,91 206,91 210,92 214,92 218,92 223,92 227,91 231,92 235,92 239,91 243,91 247,91 251,92 255,92 260,92 264,92 268,92 272,92 276,92 280,92 285,92 289,92 293,91 297,91 301,92 305,92 310,92 314,92 318,92 322,92 326,92 330,91 334,91 339,90 343,90 348,88 353,87 357,87 361,87 365,88 370,91 374,89 381,87 385,87 389,87 394,89 400,91 404,89 408,89 412,91 416,92 419,91" stroke="#2963da" fill="none" stroke-width="3" stroke-linejoin="round" stroke-linecap="round" />
</svg>