<svg width="419" height="100" viewBox="0 0 419 100" xmlns="http://www.w3.org/2000/svg" xmlns:xlink="http://www.w3.org/1999/xlink"><defs>
<linearGradient id="grad" x1="0%" y1="0%" x2="0%" y2="100%">
<stop offset="0%" stop-color="#2963da" stop-opacity="0.40"/>
<stop offset="100%" stop-color="#070720" stop-opacity="0.20"/>
</linearGradient>
</defs>
<rect x="0" y="0" width="419" height="100" fill="none" />
<polygon points="0,92 4,92 8,92 12,92 16,92 20,92 24,92 28,92 32,92 36,92 40,91 44,92 48,92 52,91 56,91 60,91 64,92 68,92 72,92 76,92 80,92 84,92 88,92 92,92 97,92 101,91 105,91 109,91 113,91 117,92 121,91 125,92 129,92 133,92 137,91 141,91 145,91 149,92 153,92 157,91 161,91 165,90 169,91 173,91 177,92 181,92 186,91 190,92 194,92 198,92 202,92 206,92 210,92 214,91 218,92 222,91 226,91 230,91 234,91 238,89 242,87 246,90 250,90 254,91 258,91 262,91 266,90 270,90 274,91 279,92 283,92 287,92 291,90 295,88 299,90 303,91 307,90 311,89 315,90 319,91 323,91 327,92 331,92 335,92 339,92 343,92 347,92 351,92 355,92 359,91 364,91 368,91 372,91 376,92 380,92 384,92 388,92 392,92 396,92 400,92 404,92 408,92 412,92 416,92 419,92 419,100 0,100" fill="url(#grad)" stroke="none" />
<polyline points="0,92 4,92 8,92 12,92 16,92 20,92 24,92 28,92 32,92 36,92 40,91 44,92 48,92 52,91 56,91 60,91 64,92 68,92 72,92 76,92 80,92 84,92 88,92 92,92 97,92 101,91 105,91 109,91 113,91 117,92 121,91 125,92 129,92 133,92 137,91 141,91 145,91 149,92 153,92 157,91 161,91 165,90 169,91 173,91 177,92 181,92 186,91 190,92 194,92 198,92 202,92 206,92 210,92 214,91 218,92 222,91 226,91 230,91 234,91 238,89 242,87 246,90 250,90 254,91 258,91 262,91 266,90 270,90 274,91 279,92 283,92 287,92 291,90 295,88 299,90 303,91 307,90 311,89 315,90 319,91 323,91 327,92 331,92 335,92 339,92 343,92 347,92 351,92 355,92 359,91 364,91 368,91 372,91 376,92 380,92 384,92 388,92 392,92 396,92 400,92 404,92 408,92 412,92 416,92 419,92" stroke="#2963da" fill="none" stroke-width="3" stroke-linejoin="round" stroke-linecap="round" />
</svg>