<svg width="419" height="100" viewBox="0 0 419 100" xmlns="http://www.w3.org/2000/svg" xmlns:xlink="http://www.w3.org/1999/xlink"><defs>
<linearGradient id="grad" x1="0%" y1="0%" x2="0%" y2="100%">
<stop offset="0%" stop-color="#2963da" stop-opacity="0.40"/>
<stop offset="100%" stop-color="#070720" stop-opacity="0.20"/>
</linearGradient>
</defs>
<rect x="0" y="0" width="419" height="100" fill="none" />
<polygon points="0,91 4,92 8,92 12,92 16,92 20,92 24,91 28,91 32,91 36,92 40,92 44,92 49,92 53,92 57,92 61,91 65,91 69,90 73,90 77,92 82,92 86,92 90,92 94,92 98,92 102,92 107,92 111,92 115,91 119,91 123,92 127,92 131,92 135,92 139,91 143,91 148,91 152,89 156,90 160,91 164,92 168,92 172,92 176,92 180,92 184,92 189,92 193,92 197,92 201,92 205,92 209,88 213,84 217,81 221,77 225,78 230,79 234,79 238,81 242,81 246,83 250,81 254,79 258,77 262,81 266,83 270,85 274,87 278,89 282,90 287,92 291,91 295,88 299,85 303,80 307,79 311,77 315,80 319,80 323,83 328,87 332,89 336,90 340,91 344,91 348,92 352,90 356,87 360,88 364,90 368,92 372,90 376,91 380,90 385,86 389,89 393,90 397,92 401,90 405,91 409,91 413,86 417,90 419,88 419,100 0,100" fill="url(#grad)" stroke="none" />
<polyline points="0,91 4,92 8,92 12,92 16,92 20,92 24,91 28,91 32,91 36,92 40,92 44,92 49,92 53,92 57,92 61,91 65,91 69,90 73,90 77,92 82,92 86,92 90,92 94,92 98,92 102,92 107,92 111,92 115,91 119,91 123,92 127,92 131,92 135,92 139,91 143,91 148,91 152,89 156,90 160,91 164,92 168,92 172,92 176,92 180,92 184,92 189,92 193,92 197,92 201,92 205,92 209,88 213,84 217,81 221,77 225,78 230,79 234,79 238,81 242,81 246,83 250,81 254,79 258,77 262,81 266,83 270,85 274,87 278,89 282,90 287,92 291,91 295,88 299,85 303,80 307,79 311,77 315,80 319,80 323,83 328,87 332,89 336,90 340,91 344,91 348,92 352,90 356,87 360,88 364,90 368,92 372,90 376,91 380,90 385,86 389,89 393,90 397,92 401,90 405,91 409,91 413,86 417,90 419,88" stroke="#2963da" fill="none" stroke-width="3" stroke-linejoin="round" stroke-linecap="round" />
</svg>