<svg width="419" height="100" viewBox="0 0 419 100" xmlns="http://www.w3.org/2000/svg" xmlns:xlink="http://www.w3.org/1999/xlink"><defs>
<linearGradient id="grad" x1="0%" y1="0%" x2="0%" y2="100%">
<stop offset="0%" stop-color="#2963da" stop-opacity="0.40"/>
<stop offset="100%" stop-color="#070720" stop-opacity="0.20"/>
</linearGradient>
</defs>
<rect x="0" y="0" width="419" height="100" fill="none" />
<polygon points="0,92 4,92 8,92 12,92 16,92 20,92 24,92 29,92 33,92 37,92 41,92 46,92 51,92 55,92 59,92 63,92 67,92 72,92 76,92 80,92 84,92 88,92 92,92 96,92 101,92 105,92 109,92 113,92 117,92 121,92 125,92 129,92 133,92 138,92 142,92 146,92 150,92 154,92 158,92 162,92 167,92 171,92 175,92 180,92 184,92 188,92 192,92 196,92 200,92 205,92 209,92 213,92 217,92 221,92 225,92 229,92 233,92 238,92 242,92 246,92 251,92 255,92 259,92 263,92 268,92 272,92 276,92 280,92 284,92 288,92 292,92 296,92 301,92 305,92 309,92 313,92 317,92 321,92 325,92 329,92 333,92 337,92 342,92 346,92 350,92 354,92 358,92 362,92 366,92 370,92 375,92 379,92 383,92 387,92 391,92 395,92 400,92 404,92 408,92 412,92 416,92 419,92 419,100 0,100" fill="url(#grad)" stroke="none" />
<polyline points="0,92 4,92 8,92 12,92 16,92 20,92 24,92 29,92 33,92 37,92 41,92 46,92 51,92 55,92 59,92 63,92 67,92 72,92 76,92 80,92 84,92 88,92 92,92 96,92 101,92 105,92 109,92 113,92 117,92 121,92 125,92 129,92 133,92 138,92 142,92 146,92 150,92 154,92 158,92 162,92 167,92 171,92 175,92 180,92 184,92 188,92 192,92 196,92 200,92 205,92 209,92 213,92 217,92 221,92 225,92 229,92 233,92 238,92 242,92 246,92 251,92 255,92 259,92 263,92 268,92 272,92 276,92 280,92 284,92 288,92 292,92 296,92 301,92 305,92 309,92 313,92 317,92 321,92 325,92 329,92 333,92 337,92 342,92 346,92 350,92 354,92 358,92 362,92 366,92 370,92 375,92 379,92 383,92 387,92 391,92 395,92 400,92 404,92 408,92 412,92 416,92 419,92" stroke="#2963da" fill="none" stroke-width="3" stroke-linejoin="round" stroke-linecap="round" />
</svg>