<svg width="419" height="100" viewBox="0 0 419 100" xmlns="http://www.w3.org/2000/svg" xmlns:xlink="http://www.w3.org/1999/xlink"><defs>
<linearGradient id="grad" x1="0%" y1="0%" x2="0%" y2="100%">
<stop offset="0%" stop-color="#2963da" stop-opacity="0.40"/>
<stop offset="100%" stop-color="#070720" stop-opacity="0.20"/>
</linearGradient>
</defs>
<rect x="0" y="0" width="419" height="100" fill="none" />
<polygon points="0,82 4,81 8,81 12,80 17,80 21,80 25,81 29,80 33,79 37,78 41,77 45,76 50,77 54,77 58,76 62,76 66,74 71,73 75,74 80,75 84,75 88,78 92,80 97,82 101,82 105,82 109,83 113,86 117,88 121,89 125,91 129,91 134,91 138,91 142,92 147,92 151,92 155,92 159,92 164,92 168,92 172,92 176,92 181,92 186,92 191,92 195,92 199,92 204,92 209,92 213,92 217,92 223,92 227,92 231,92 235,92 240,92 244,92 248,92 253,92 257,92 261,92 266,92 270,92 274,91 278,87 282,87 286,87 290,87 294,86 298,87 302,86 306,86 311,87 315,90 319,91 323,91 327,90 331,91 335,89 339,83 343,81 347,86 352,88 356,88 361,87 365,87 369,87 373,85 377,82 381,79 385,77 389,76 393,77 397,81 402,82 406,79 410,80 414,78 418,77 419,77 419,100 0,100" fill="url(#grad)" stroke="none" />
<polyline points="0,82 4,81 8,81 12,80 17,80 21,80 25,81 29,80 33,79 37,78 41,77 45,76 50,77 54,77 58,76 62,76 66,74 71,73 75,74 80,75 84,75 88,78 92,80 97,82 101,82 105,82 109,83 113,86 117,88 121,89 125,91 129,91 134,91 138,91 142,92 147,92 151,92 155,92 159,92 164,92 168,92 172,92 176,92 181,92 186,92 191,92 195,92 199,92 204,92 209,92 213,92 217,92 223,92 227,92 231,92 235,92 240,92 244,92 248,92 253,92 257,92 261,92 266,92 270,92 274,91 278,87 282,87 286,87 290,87 294,86 298,87 302,86 306,86 311,87 315,90 319,91 323,91 327,90 331,91 335,89 339,83 343,81 347,86 352,88 356,88 361,87 365,87 369,87 373,85 377,82 381,79 385,77 389,76 393,77 397,81 402,82 406,79 410,80 414,78 418,77 419,77" stroke="#2963da" fill="none" stroke-width="3" stroke-linejoin="round" stroke-linecap="round" />
</svg>