<svg width="419" height="100" viewBox="0 0 419 100" xmlns="http://www.w3.org/2000/svg" xmlns:xlink="http://www.w3.org/1999/xlink"><defs>
<linearGradient id="grad" x1="0%" y1="0%" x2="0%" y2="100%">
<stop offset="0%" stop-color="#2963da" stop-opacity="0.40"/>
<stop offset="100%" stop-color="#070720" stop-opacity="0.20"/>
</linearGradient>
</defs>
<rect x="0" y="0" width="419" height="100" fill="none" />
<polygon points="0,92 4,92 8,92 13,92 18,90 23,86 27,86 31,87 35,89 39,91 45,89 49,90 53,89 60,91 64,91 68,92 72,91 77,92 81,91 88,92 96,92 101,92 105,92 109,92 113,92 117,92 122,92 126,90 131,88 135,87 139,84 143,82 148,80 152,80 156,82 160,84 164,82 169,83 173,84 178,84 182,88 186,92 191,92 196,92 201,91 205,90 210,89 215,89 219,88 223,88 227,88 232,87 236,81 240,79 244,79 249,79 253,81 257,82 262,83 266,83 270,83 274,85 278,87 283,89 287,90 292,90 296,89 301,89 307,88 311,87 318,92 322,91 326,92 330,91 334,91 339,90 343,91 347,90 351,88 355,89 359,90 364,85 368,84 372,84 377,89 381,90 385,91 389,90 394,88 398,88 403,89 407,91 411,92 415,92 419,92 419,100 0,100" fill="url(#grad)" stroke="none" />
<polyline points="0,92 4,92 8,92 13,92 18,90 23,86 27,86 31,87 35,89 39,91 45,89 49,90 53,89 60,91 64,91 68,92 72,91 77,92 81,91 88,92 96,92 101,92 105,92 109,92 113,92 117,92 122,92 126,90 131,88 135,87 139,84 143,82 148,80 152,80 156,82 160,84 164,82 169,83 173,84 178,84 182,88 186,92 191,92 196,92 201,91 205,90 210,89 215,89 219,88 223,88 227,88 232,87 236,81 240,79 244,79 249,79 253,81 257,82 262,83 266,83 270,83 274,85 278,87 283,89 287,90 292,90 296,89 301,89 307,88 311,87 318,92 322,91 326,92 330,91 334,91 339,90 343,91 347,90 351,88 355,89 359,90 364,85 368,84 372,84 377,89 381,90 385,91 389,90 394,88 398,88 403,89 407,91 411,92 415,92 419,92" stroke="#2963da" fill="none" stroke-width="3" stroke-linejoin="round" stroke-linecap="round" />
</svg>