<svg width="419" height="100" viewBox="0 0 419 100" xmlns="http://www.w3.org/2000/svg" xmlns:xlink="http://www.w3.org/1999/xlink"><defs>
<linearGradient id="grad" x1="0%" y1="0%" x2="0%" y2="100%">
<stop offset="0%" stop-color="#2963da" stop-opacity="0.40"/>
<stop offset="100%" stop-color="#070720" stop-opacity="0.20"/>
</linearGradient>
</defs>
<rect x="0" y="0" width="419" height="100" fill="none" />
<polygon points="0,92 5,92 10,92 14,92 18,92 23,92 27,92 31,92 37,92 41,92 45,92 50,92 54,92 58,92 62,92 68,92 72,92 76,92 83,92 88,92 94,92 98,92 102,92 106,92 111,92 115,92 119,92 124,92 130,92 134,92 139,92 144,92 148,92 154,92 160,92 164,92 168,92 172,92 177,92 183,92 188,92 192,91 197,91 202,91 206,91 211,91 215,91 219,91 224,91 228,91 232,91 236,91 240,91 245,91 249,91 254,91 258,91 262,91 267,91 271,91 276,91 280,91 285,91 290,91 294,91 299,91 304,91 308,91 312,91 316,91 321,91 325,91 329,91 334,91 339,91 344,90 348,90 352,90 356,89 361,88 365,89 369,89 374,89 379,90 383,90 387,90 392,91 396,91 400,91 404,90 408,90 413,89 417,88 419,88 419,100 0,100" fill="url(#grad)" stroke="none" />
<polyline points="0,92 5,92 10,92 14,92 18,92 23,92 27,92 31,92 37,92 41,92 45,92 50,92 54,92 58,92 62,92 68,92 72,92 76,92 83,92 88,92 94,92 98,92 102,92 106,92 111,92 115,92 119,92 124,92 130,92 134,92 139,92 144,92 148,92 154,92 160,92 164,92 168,92 172,92 177,92 183,92 188,92 192,91 197,91 202,91 206,91 211,91 215,91 219,91 224,91 228,91 232,91 236,91 240,91 245,91 249,91 254,91 258,91 262,91 267,91 271,91 276,91 280,91 285,91 290,91 294,91 299,91 304,91 308,91 312,91 316,91 321,91 325,91 329,91 334,91 339,91 344,90 348,90 352,90 356,89 361,88 365,89 369,89 374,89 379,90 383,90 387,90 392,91 396,91 400,91 404,90 408,90 413,89 417,88 419,88" stroke="#2963da" fill="none" stroke-width="3" stroke-linejoin="round" stroke-linecap="round" />
</svg>