<svg width="419" height="100" viewBox="0 0 419 100" xmlns="http://www.w3.org/2000/svg" xmlns:xlink="http://www.w3.org/1999/xlink"><defs>
<linearGradient id="grad" x1="0%" y1="0%" x2="0%" y2="100%">
<stop offset="0%" stop-color="#2963da" stop-opacity="0.40"/>
<stop offset="100%" stop-color="#070720" stop-opacity="0.20"/>
</linearGradient>
</defs>
<rect x="0" y="0" width="419" height="100" fill="none" />
<polygon points="0,92 4,92 8,92 13,92 17,92 22,92 27,92 31,92 36,92 41,92 46,92 51,92 56,92 61,92 66,92 70,92 75,92 79,92 84,92 88,92 93,92 97,92 101,92 106,92 111,92 116,92 121,92 126,92 131,92 135,92 140,92 145,92 150,92 154,92 158,92 163,92 167,92 171,92 176,92 180,92 185,92 189,92 194,92 199,92 203,92 208,92 212,92 217,92 222,92 226,92 231,92 235,92 240,92 244,92 249,92 253,92 258,92 262,92 266,92 270,92 275,92 280,92 284,92 289,92 293,92 297,92 302,92 307,92 311,92 316,92 320,92 325,92 330,92 335,92 339,92 343,92 348,92 353,92 357,92 362,92 367,92 372,92 377,92 382,92 387,92 391,92 396,92 401,92 406,92 410,92 415,92 419,92 419,100 0,100" fill="url(#grad)" stroke="none" />
<polyline points="0,92 4,92 8,92 13,92 17,92 22,92 27,92 31,92 36,92 41,92 46,92 51,92 56,92 61,92 66,92 70,92 75,92 79,92 84,92 88,92 93,92 97,92 101,92 106,92 111,92 116,92 121,92 126,92 131,92 135,92 140,92 145,92 150,92 154,92 158,92 163,92 167,92 171,92 176,92 180,92 185,92 189,92 194,92 199,92 203,92 208,92 212,92 217,92 222,92 226,92 231,92 235,92 240,92 244,92 249,92 253,92 258,92 262,92 266,92 270,92 275,92 280,92 284,92 289,92 293,92 297,92 302,92 307,92 311,92 316,92 320,92 325,92 330,92 335,92 339,92 343,92 348,92 353,92 357,92 362,92 367,92 372,92 377,92 382,92 387,92 391,92 396,92 401,92 406,92 410,92 415,92 419,92" stroke="#2963da" fill="none" stroke-width="3" stroke-linejoin="round" stroke-linecap="round" />
</svg>