<svg width="419" height="100" viewBox="0 0 419 100" xmlns="http://www.w3.org/2000/svg" xmlns:xlink="http://www.w3.org/1999/xlink"><defs>
<linearGradient id="grad" x1="0%" y1="0%" x2="0%" y2="100%">
<stop offset="0%" stop-color="#2963da" stop-opacity="0.40"/>
<stop offset="100%" stop-color="#070720" stop-opacity="0.20"/>
</linearGradient>
</defs>
<rect x="0" y="0" width="419" height="100" fill="none" />
<polygon points="0,90 4,88 8,86 12,87 16,86 20,85 24,85 28,84 32,84 37,83 41,81 45,80 49,76 53,70 57,66 61,61 65,64 70,69 74,74 78,78 82,82 86,87 90,86 95,86 99,80 103,76 107,70 111,66 115,61 119,64 124,68 128,74 132,79 136,80 140,82 144,83 148,84 152,85 157,85 161,86 165,86 169,86 173,87 177,90 181,91 185,92 190,92 194,92 198,91 202,91 206,90 210,90 215,90 219,89 223,89 227,88 231,87 235,86 239,85 243,84 247,85 251,83 256,84 260,83 264,81 268,81 272,81 276,82 280,81 285,81 289,80 293,78 297,75 301,72 306,70 310,72 314,75 318,77 322,80 326,82 330,83 334,84 338,85 343,86 347,87 351,85 355,80 359,76 363,71 367,66 371,62 375,64 380,68 384,74 388,79 392,80 396,82 400,83 405,84 409,85 413,85 417,86 419,86 419,100 0,100" fill="url(#grad)" stroke="none" />
<polyline points="0,90 4,88 8,86 12,87 16,86 20,85 24,85 28,84 32,84 37,83 41,81 45,80 49,76 53,70 57,66 61,61 65,64 70,69 74,74 78,78 82,82 86,87 90,86 95,86 99,80 103,76 107,70 111,66 115,61 119,64 124,68 128,74 132,79 136,80 140,82 144,83 148,84 152,85 157,85 161,86 165,86 169,86 173,87 177,90 181,91 185,92 190,92 194,92 198,91 202,91 206,90 210,90 215,90 219,89 223,89 227,88 231,87 235,86 239,85 243,84 247,85 251,83 256,84 260,83 264,81 268,81 272,81 276,82 280,81 285,81 289,80 293,78 297,75 301,72 306,70 310,72 314,75 318,77 322,80 326,82 330,83 334,84 338,85 343,86 347,87 351,85 355,80 359,76 363,71 367,66 371,62 375,64 380,68 384,74 388,79 392,80 396,82 400,83 405,84 409,85 413,85 417,86 419,86" stroke="#2963da" fill="none" stroke-width="3" stroke-linejoin="round" stroke-linecap="round" />
</svg>