<svg width="419" height="100" viewBox="0 0 419 100" xmlns="http://www.w3.org/2000/svg" xmlns:xlink="http://www.w3.org/1999/xlink"><defs>
<linearGradient id="grad" x1="0%" y1="0%" x2="0%" y2="100%">
<stop offset="0%" stop-color="#2963da" stop-opacity="0.40"/>
<stop offset="100%" stop-color="#070720" stop-opacity="0.20"/>
</linearGradient>
</defs>
<rect x="0" y="0" width="419" height="100" fill="none" />
<polygon points="0,92 4,91 8,91 12,91 16,91 20,92 24,92 28,92 32,92 36,92 40,92 44,92 48,92 52,92 56,92 60,92 64,92 68,91 72,91 76,91 80,91 84,91 88,92 92,92 96,92 101,92 105,92 109,91 113,91 117,92 121,92 125,92 129,92 133,92 137,92 141,92 145,92 149,92 153,92 157,92 161,92 165,92 169,92 173,92 177,92 181,92 185,92 189,92 193,92 197,92 202,92 206,92 210,92 214,92 218,92 222,92 226,92 230,92 234,92 238,91 242,91 246,90 250,90 254,91 258,91 262,87 266,89 270,90 274,87 278,89 282,90 286,89 290,90 294,91 298,91 303,92 307,91 311,91 315,91 319,91 323,88 327,89 331,90 335,90 339,89 343,91 347,91 351,89 355,89 359,90 363,89 367,91 371,91 375,91 379,92 383,91 387,91 391,90 395,91 399,91 404,92 408,92 412,92 416,92 419,92 419,100 0,100" fill="url(#grad)" stroke="none" />
<polyline points="0,92 4,91 8,91 12,91 16,91 20,92 24,92 28,92 32,92 36,92 40,92 44,92 48,92 52,92 56,92 60,92 64,92 68,91 72,91 76,91 80,91 84,91 88,92 92,92 96,92 101,92 105,92 109,91 113,91 117,92 121,92 125,92 129,92 133,92 137,92 141,92 145,92 149,92 153,92 157,92 161,92 165,92 169,92 173,92 177,92 181,92 185,92 189,92 193,92 197,92 202,92 206,92 210,92 214,92 218,92 222,92 226,92 230,92 234,92 238,91 242,91 246,90 250,90 254,91 258,91 262,87 266,89 270,90 274,87 278,89 282,90 286,89 290,90 294,91 298,91 303,92 307,91 311,91 315,91 319,91 323,88 327,89 331,90 335,90 339,89 343,91 347,91 351,89 355,89 359,90 363,89 367,91 371,91 375,91 379,92 383,91 387,91 391,90 395,91 399,91 404,92 408,92 412,92 416,92 419,92" stroke="#2963da" fill="none" stroke-width="3" stroke-linejoin="round" stroke-linecap="round" />
</svg>