<svg width="419" height="100" viewBox="0 0 419 100" xmlns="http://www.w3.org/2000/svg" xmlns:xlink="http://www.w3.org/1999/xlink"><defs>
<linearGradient id="grad" x1="0%" y1="0%" x2="0%" y2="100%">
<stop offset="0%" stop-color="#2963da" stop-opacity="0.40"/>
<stop offset="100%" stop-color="#070720" stop-opacity="0.20"/>
</linearGradient>
</defs>
<rect x="0" y="0" width="419" height="100" fill="none" />
<polygon points="0,92 4,92 8,92 12,92 16,92 20,92 24,92 28,92 32,92 37,92 41,92 45,92 49,92 54,92 58,92 62,92 66,92 70,92 74,92 78,92 82,92 86,92 91,92 95,92 99,91 103,91 107,90 111,91 116,92 120,92 124,92 128,92 132,92 136,92 140,92 144,92 148,90 152,89 156,89 161,92 165,91 169,91 173,88 177,89 181,89 185,90 189,92 193,91 197,92 201,91 205,92 209,91 213,88 217,88 221,88 226,89 230,90 234,91 238,92 242,89 246,91 251,91 255,90 259,89 263,89 267,89 271,92 275,91 280,92 284,92 288,92 292,92 296,88 300,88 304,88 309,89 313,89 317,91 321,91 325,92 329,90 333,91 338,92 342,92 346,92 350,92 354,92 358,91 362,91 366,90 370,91 374,92 378,92 382,92 386,92 390,92 395,92 399,91 403,92 407,92 411,92 415,92 419,92 419,100 0,100" fill="url(#grad)" stroke="none" />
<polyline points="0,92 4,92 8,92 12,92 16,92 20,92 24,92 28,92 32,92 37,92 41,92 45,92 49,92 54,92 58,92 62,92 66,92 70,92 74,92 78,92 82,92 86,92 91,92 95,92 99,91 103,91 107,90 111,91 116,92 120,92 124,92 128,92 132,92 136,92 140,92 144,92 148,90 152,89 156,89 161,92 165,91 169,91 173,88 177,89 181,89 185,90 189,92 193,91 197,92 201,91 205,92 209,91 213,88 217,88 221,88 226,89 230,90 234,91 238,92 242,89 246,91 251,91 255,90 259,89 263,89 267,89 271,92 275,91 280,92 284,92 288,92 292,92 296,88 300,88 304,88 309,89 313,89 317,91 321,91 325,92 329,90 333,91 338,92 342,92 346,92 350,92 354,92 358,91 362,91 366,90 370,91 374,92 378,92 382,92 386,92 390,92 395,92 399,91 403,92 407,92 411,92 415,92 419,92" stroke="#2963da" fill="none" stroke-width="3" stroke-linejoin="round" stroke-linecap="round" />
</svg>