<svg width="419" height="100" viewBox="0 0 419 100" xmlns="http://www.w3.org/2000/svg" xmlns:xlink="http://www.w3.org/1999/xlink"><defs>
<linearGradient id="grad" x1="0%" y1="0%" x2="0%" y2="100%">
<stop offset="0%" stop-color="#2963da" stop-opacity="0.40"/>
<stop offset="100%" stop-color="#070720" stop-opacity="0.20"/>
</linearGradient>
</defs>
<rect x="0" y="0" width="419" height="100" fill="none" />
<polygon points="0,91 4,91 8,91 12,91 16,91 20,91 24,91 28,91 32,91 36,90 40,90 44,90 48,91 52,90 56,91 60,90 64,90 68,88 72,87 76,88 80,89 85,89 89,89 93,89 97,89 101,88 105,88 109,89 113,90 117,90 121,90 125,90 129,90 133,90 137,91 141,91 145,91 149,91 153,91 157,91 162,91 166,90 170,90 174,90 178,89 182,89 186,87 190,87 194,87 198,87 202,87 206,87 210,87 214,87 218,87 222,89 226,90 230,90 234,88 238,87 242,87 246,88 251,88 255,89 259,89 263,90 267,90 271,90 275,90 279,90 283,89 287,90 291,90 295,89 299,88 303,90 307,90 311,91 315,92 319,92 323,92 327,91 331,91 336,92 340,92 344,92 348,92 352,92 356,92 360,92 364,92 368,92 372,92 376,92 380,92 384,92 388,92 392,89 396,88 400,90 404,91 408,91 413,92 417,91 419,91 419,100 0,100" fill="url(#grad)" stroke="none" />
<polyline points="0,91 4,91 8,91 12,91 16,91 20,91 24,91 28,91 32,91 36,90 40,90 44,90 48,91 52,90 56,91 60,90 64,90 68,88 72,87 76,88 80,89 85,89 89,89 93,89 97,89 101,88 105,88 109,89 113,90 117,90 121,90 125,90 129,90 133,90 137,91 141,91 145,91 149,91 153,91 157,91 162,91 166,90 170,90 174,90 178,89 182,89 186,87 190,87 194,87 198,87 202,87 206,87 210,87 214,87 218,87 222,89 226,90 230,90 234,88 238,87 242,87 246,88 251,88 255,89 259,89 263,90 267,90 271,90 275,90 279,90 283,89 287,90 291,90 295,89 299,88 303,90 307,90 311,91 315,92 319,92 323,92 327,91 331,91 336,92 340,92 344,92 348,92 352,92 356,92 360,92 364,92 368,92 372,92 376,92 380,92 384,92 388,92 392,89 396,88 400,90 404,91 408,91 413,92 417,91 419,91" stroke="#2963da" fill="none" stroke-width="3" stroke-linejoin="round" stroke-linecap="round" />
</svg>