<svg width="419" height="100" viewBox="0 0 419 100" xmlns="http://www.w3.org/2000/svg" xmlns:xlink="http://www.w3.org/1999/xlink"><defs>
<linearGradient id="grad" x1="0%" y1="0%" x2="0%" y2="100%">
<stop offset="0%" stop-color="#2963da" stop-opacity="0.40"/>
<stop offset="100%" stop-color="#070720" stop-opacity="0.20"/>
</linearGradient>
</defs>
<rect x="0" y="0" width="419" height="100" fill="none" />
<polygon points="0,90 4,92 8,92 12,92 16,91 20,91 24,89 29,90 33,87 37,84 41,83 45,80 49,75 53,70 57,66 61,62 65,64 69,68 73,68 77,66 82,68 86,72 90,72 94,66 98,67 102,66 106,60 110,62 114,65 118,65 122,65 126,65 130,65 134,63 139,62 143,61 147,60 151,56 155,54 159,54 163,50 167,47 171,43 176,42 180,42 184,44 188,49 193,52 197,56 201,58 205,60 209,61 213,61 217,58 221,60 225,61 229,59 234,57 238,55 242,54 246,58 250,61 254,62 258,64 263,65 267,66 271,66 275,66 279,67 283,70 287,68 292,71 296,71 300,71 304,73 308,71 312,72 316,71 321,70 325,66 329,62 333,57 337,53 341,54 345,58 349,63 353,66 357,67 362,67 366,68 370,70 374,71 378,72 382,73 386,74 390,74 394,75 398,75 403,75 407,75 411,75 415,76 419,74 419,100 0,100" fill="url(#grad)" stroke="none" />
<polyline points="0,90 4,92 8,92 12,92 16,91 20,91 24,89 29,90 33,87 37,84 41,83 45,80 49,75 53,70 57,66 61,62 65,64 69,68 73,68 77,66 82,68 86,72 90,72 94,66 98,67 102,66 106,60 110,62 114,65 118,65 122,65 126,65 130,65 134,63 139,62 143,61 147,60 151,56 155,54 159,54 163,50 167,47 171,43 176,42 180,42 184,44 188,49 193,52 197,56 201,58 205,60 209,61 213,61 217,58 221,60 225,61 229,59 234,57 238,55 242,54 246,58 250,61 254,62 258,64 263,65 267,66 271,66 275,66 279,67 283,70 287,68 292,71 296,71 300,71 304,73 308,71 312,72 316,71 321,70 325,66 329,62 333,57 337,53 341,54 345,58 349,63 353,66 357,67 362,67 366,68 370,70 374,71 378,72 382,73 386,74 390,74 394,75 398,75 403,75 407,75 411,75 415,76 419,74" stroke="#2963da" fill="none" stroke-width="3" stroke-linejoin="round" stroke-linecap="round" />
</svg>