<svg width="419" height="100" viewBox="0 0 419 100" xmlns="http://www.w3.org/2000/svg" xmlns:xlink="http://www.w3.org/1999/xlink"><defs>
<linearGradient id="grad" x1="0%" y1="0%" x2="0%" y2="100%">
<stop offset="0%" stop-color="#2963da" stop-opacity="0.40"/>
<stop offset="100%" stop-color="#070720" stop-opacity="0.20"/>
</linearGradient>
</defs>
<rect x="0" y="0" width="419" height="100" fill="none" />
<polygon points="0,92 4,92 8,92 12,92 16,92 20,92 24,92 28,92 32,92 36,92 40,92 44,92 48,91 52,90 56,91 60,91 64,92 68,91 72,91 76,92 80,92 84,92 88,92 92,92 96,92 101,92 105,92 109,92 113,92 117,92 121,92 125,92 129,92 133,92 137,92 141,92 145,92 149,92 153,92 157,92 161,92 165,92 169,92 173,92 177,91 181,91 185,91 190,90 194,90 198,91 202,90 206,90 210,91 214,91 218,91 222,90 226,90 230,90 234,89 238,89 242,89 246,90 250,90 254,91 258,91 262,91 266,91 270,92 274,92 278,92 282,92 287,92 291,92 295,92 299,92 303,91 307,92 311,91 315,91 319,90 323,91 327,92 331,91 335,90 339,89 343,86 347,85 351,85 355,84 359,83 363,82 367,81 371,80 375,77 379,73 384,70 388,66 392,62 396,58 400,54 404,50 408,46 412,42 416,38 419,35 419,100 0,100" fill="url(#grad)" stroke="none" />
<polyline points="0,92 4,92 8,92 12,92 16,92 20,92 24,92 28,92 32,92 36,92 40,92 44,92 48,91 52,90 56,91 60,91 64,92 68,91 72,91 76,92 80,92 84,92 88,92 92,92 96,92 101,92 105,92 109,92 113,92 117,92 121,92 125,92 129,92 133,92 137,92 141,92 145,92 149,92 153,92 157,92 161,92 165,92 169,92 173,92 177,91 181,91 185,91 190,90 194,90 198,91 202,90 206,90 210,91 214,91 218,91 222,90 226,90 230,90 234,89 238,89 242,89 246,90 250,90 254,91 258,91 262,91 266,91 270,92 274,92 278,92 282,92 287,92 291,92 295,92 299,92 303,91 307,92 311,91 315,91 319,90 323,91 327,92 331,91 335,90 339,89 343,86 347,85 351,85 355,84 359,83 363,82 367,81 371,80 375,77 379,73 384,70 388,66 392,62 396,58 400,54 404,50 408,46 412,42 416,38 419,35" stroke="#2963da" fill="none" stroke-width="3" stroke-linejoin="round" stroke-linecap="round" />
</svg>