<svg width="419" height="100" viewBox="0 0 419 100" xmlns="http://www.w3.org/2000/svg" xmlns:xlink="http://www.w3.org/1999/xlink"><defs>
<linearGradient id="grad" x1="0%" y1="0%" x2="0%" y2="100%">
<stop offset="0%" stop-color="#2963da" stop-opacity="0.40"/>
<stop offset="100%" stop-color="#070720" stop-opacity="0.20"/>
</linearGradient>
</defs>
<rect x="0" y="0" width="419" height="100" fill="none" />
<polygon points="0,76 4,72 8,70 12,73 16,70 20,69 24,66 28,67 32,67 36,69 40,70 44,72 48,74 52,76 56,79 60,79 64,76 68,74 72,72 76,69 80,68 84,68 88,73 92,77 97,82 101,80 105,77 109,74 113,73 117,73 121,71 125,71 129,72 133,73 137,73 141,74 145,78 149,81 153,81 157,84 161,87 165,86 169,87 173,88 177,89 181,85 185,81 189,79 194,79 198,79 202,83 206,85 210,85 214,85 218,88 222,88 226,89 230,88 234,88 238,89 242,89 246,88 250,89 254,90 258,91 262,91 266,92 270,92 274,92 278,92 283,91 287,92 291,90 295,89 299,90 303,90 307,90 311,90 315,89 319,89 323,89 327,89 331,89 335,89 339,89 343,89 347,89 351,89 355,89 359,89 363,88 367,88 371,88 376,88 380,88 384,88 388,88 392,88 396,88 400,88 404,88 408,88 412,88 416,88 419,88 419,100 0,100" fill="url(#grad)" stroke="none" />
<polyline points="0,76 4,72 8,70 12,73 16,70 20,69 24,66 28,67 32,67 36,69 40,70 44,72 48,74 52,76 56,79 60,79 64,76 68,74 72,72 76,69 80,68 84,68 88,73 92,77 97,82 101,80 105,77 109,74 113,73 117,73 121,71 125,71 129,72 133,73 137,73 141,74 145,78 149,81 153,81 157,84 161,87 165,86 169,87 173,88 177,89 181,85 185,81 189,79 194,79 198,79 202,83 206,85 210,85 214,85 218,88 222,88 226,89 230,88 234,88 238,89 242,89 246,88 250,89 254,90 258,91 262,91 266,92 270,92 274,92 278,92 283,91 287,92 291,90 295,89 299,90 303,90 307,90 311,90 315,89 319,89 323,89 327,89 331,89 335,89 339,89 343,89 347,89 351,89 355,89 359,89 363,88 367,88 371,88 376,88 380,88 384,88 388,88 392,88 396,88 400,88 404,88 408,88 412,88 416,88 419,88" stroke="#2963da" fill="none" stroke-width="3" stroke-linejoin="round" stroke-linecap="round" />
</svg>