<svg width="419" height="100" viewBox="0 0 419 100" xmlns="http://www.w3.org/2000/svg" xmlns:xlink="http://www.w3.org/1999/xlink"><defs>
<linearGradient id="grad" x1="0%" y1="0%" x2="0%" y2="100%">
<stop offset="0%" stop-color="#2963da" stop-opacity="0.40"/>
<stop offset="100%" stop-color="#070720" stop-opacity="0.20"/>
</linearGradient>
</defs>
<rect x="0" y="0" width="419" height="100" fill="none" />
<polygon points="0,89 4,89 8,89 12,88 16,88 20,88 24,88 28,88 32,88 36,88 40,88 44,88 48,88 52,88 56,88 60,88 64,88 68,88 72,88 76,88 80,89 84,88 89,89 93,89 97,89 101,89 105,89 109,88 113,88 117,88 121,89 125,89 129,89 133,90 137,90 141,90 145,90 149,90 153,90 157,89 161,89 165,89 169,90 173,90 178,90 182,90 186,90 190,90 194,91 198,91 202,91 206,91 210,91 214,91 218,91 222,91 226,92 230,92 234,92 238,92 242,92 246,92 250,92 254,92 258,92 263,92 267,92 271,92 275,92 279,92 283,92 287,92 291,92 295,91 299,91 303,91 307,91 311,91 315,91 319,91 323,91 327,90 331,90 335,90 339,90 343,90 348,89 352,89 356,89 360,89 364,89 368,89 372,89 376,89 380,89 384,89 388,89 392,88 396,85 400,81 404,75 408,69 412,64 416,60 419,59 419,100 0,100" fill="url(#grad)" stroke="none" />
<polyline points="0,89 4,89 8,89 12,88 16,88 20,88 24,88 28,88 32,88 36,88 40,88 44,88 48,88 52,88 56,88 60,88 64,88 68,88 72,88 76,88 80,89 84,88 89,89 93,89 97,89 101,89 105,89 109,88 113,88 117,88 121,89 125,89 129,89 133,90 137,90 141,90 145,90 149,90 153,90 157,89 161,89 165,89 169,90 173,90 178,90 182,90 186,90 190,90 194,91 198,91 202,91 206,91 210,91 214,91 218,91 222,91 226,92 230,92 234,92 238,92 242,92 246,92 250,92 254,92 258,92 263,92 267,92 271,92 275,92 279,92 283,92 287,92 291,92 295,91 299,91 303,91 307,91 311,91 315,91 319,91 323,91 327,90 331,90 335,90 339,90 343,90 348,89 352,89 356,89 360,89 364,89 368,89 372,89 376,89 380,89 384,89 388,89 392,88 396,85 400,81 404,75 408,69 412,64 416,60 419,59" stroke="#2963da" fill="none" stroke-width="3" stroke-linejoin="round" stroke-linecap="round" />
</svg>