<svg width="419" height="100" viewBox="0 0 419 100" xmlns="http://www.w3.org/2000/svg" xmlns:xlink="http://www.w3.org/1999/xlink"><defs>
<linearGradient id="grad" x1="0%" y1="0%" x2="0%" y2="100%">
<stop offset="0%" stop-color="#2963da" stop-opacity="0.40"/>
<stop offset="100%" stop-color="#070720" stop-opacity="0.20"/>
</linearGradient>
</defs>
<rect x="0" y="0" width="419" height="100" fill="none" />
<polygon points="0,92 4,92 8,91 13,92 17,91 21,91 26,91 31,90 35,90 39,89 43,89 47,88 52,88 56,88 60,87 64,86 68,86 73,86 78,85 82,85 86,85 90,84 94,84 98,85 103,83 107,84 111,84 115,83 119,83 123,83 127,83 131,82 135,81 140,80 144,78 148,76 152,76 156,75 160,73 164,70 168,66 172,60 176,55 180,50 184,45 188,41 193,35 197,30 201,25 205,19 209,25 213,31 217,37 221,43 225,48 229,54 233,60 237,63 241,65 245,67 249,65 253,62 257,59 261,57 266,52 270,47 274,44 278,49 282,54 286,59 290,64 294,67 298,71 302,73 306,70 310,69 314,67 318,66 322,65 327,63 331,57 335,52 339,47 343,41 347,43 351,49 355,54 359,59 363,64 367,69 371,71 375,76 379,75 384,72 388,68 392,64 396,59 400,55 404,51 408,45 412,40 416,35 419,31 419,100 0,100" fill="url(#grad)" stroke="none" />
<polyline points="0,92 4,92 8,91 13,92 17,91 21,91 26,91 31,90 35,90 39,89 43,89 47,88 52,88 56,88 60,87 64,86 68,86 73,86 78,85 82,85 86,85 90,84 94,84 98,85 103,83 107,84 111,84 115,83 119,83 123,83 127,83 131,82 135,81 140,80 144,78 148,76 152,76 156,75 160,73 164,70 168,66 172,60 176,55 180,50 184,45 188,41 193,35 197,30 201,25 205,19 209,25 213,31 217,37 221,43 225,48 229,54 233,60 237,63 241,65 245,67 249,65 253,62 257,59 261,57 266,52 270,47 274,44 278,49 282,54 286,59 290,64 294,67 298,71 302,73 306,70 310,69 314,67 318,66 322,65 327,63 331,57 335,52 339,47 343,41 347,43 351,49 355,54 359,59 363,64 367,69 371,71 375,76 379,75 384,72 388,68 392,64 396,59 400,55 404,51 408,45 412,40 416,35 419,31" stroke="#2963da" fill="none" stroke-width="3" stroke-linejoin="round" stroke-linecap="round" />
</svg>