<svg width="419" height="100" viewBox="0 0 419 100" xmlns="http://www.w3.org/2000/svg" xmlns:xlink="http://www.w3.org/1999/xlink"><defs>
<linearGradient id="grad" x1="0%" y1="0%" x2="0%" y2="100%">
<stop offset="0%" stop-color="#2963da" stop-opacity="0.40"/>
<stop offset="100%" stop-color="#070720" stop-opacity="0.20"/>
</linearGradient>
</defs>
<rect x="0" y="0" width="419" height="100" fill="none" />
<polygon points="0,90 5,90 10,90 15,88 19,86 24,85 28,86 32,85 36,85 40,85 45,85 49,85 56,85 60,84 64,81 69,77 73,77 77,78 81,79 85,79 90,79 94,78 99,79 103,78 107,80 112,85 116,89 121,90 126,91 130,92 135,92 139,92 143,92 150,92 155,92 159,92 163,92 168,92 173,92 177,92 183,91 188,91 194,91 199,90 203,90 208,91 212,90 216,90 222,90 228,89 233,89 238,91 248,92 252,92 258,92 262,92 267,92 271,92 275,92 280,92 284,92 289,92 298,91 304,91 309,91 316,91 321,90 325,91 329,90 334,90 341,89 345,88 349,83 353,79 357,78 362,78 366,79 370,79 375,80 379,85 383,88 390,90 394,90 400,90 405,89 409,88 413,83 417,79 419,79 419,100 0,100" fill="url(#grad)" stroke="none" />
<polyline points="0,90 5,90 10,90 15,88 19,86 24,85 28,86 32,85 36,85 40,85 45,85 49,85 56,85 60,84 64,81 69,77 73,77 77,78 81,79 85,79 90,79 94,78 99,79 103,78 107,80 112,85 116,89 121,90 126,91 130,92 135,92 139,92 143,92 150,92 155,92 159,92 163,92 168,92 173,92 177,92 183,91 188,91 194,91 199,90 203,90 208,91 212,90 216,90 222,90 228,89 233,89 238,91 248,92 252,92 258,92 262,92 267,92 271,92 275,92 280,92 284,92 289,92 298,91 304,91 309,91 316,91 321,90 325,91 329,90 334,90 341,89 345,88 349,83 353,79 357,78 362,78 366,79 370,79 375,80 379,85 383,88 390,90 394,90 400,90 405,89 409,88 413,83 417,79 419,79" stroke="#2963da" fill="none" stroke-width="3" stroke-linejoin="round" stroke-linecap="round" />
</svg>