<svg width="419" height="100" viewBox="0 0 419 100" xmlns="http://www.w3.org/2000/svg" xmlns:xlink="http://www.w3.org/1999/xlink"><defs>
<linearGradient id="grad" x1="0%" y1="0%" x2="0%" y2="100%">
<stop offset="0%" stop-color="#2963da" stop-opacity="0.40"/>
<stop offset="100%" stop-color="#070720" stop-opacity="0.20"/>
</linearGradient>
</defs>
<rect x="0" y="0" width="419" height="100" fill="none" />
<polygon points="0,90 4,88 8,84 12,85 16,85 20,89 24,92 28,92 32,92 36,92 40,92 44,92 48,92 53,92 57,92 61,92 65,92 69,92 73,92 77,92 81,92 85,92 89,92 93,92 97,92 102,92 106,92 110,92 114,92 118,92 122,92 127,92 131,92 135,91 139,91 143,91 147,90 151,90 155,89 159,90 163,91 167,91 172,91 176,91 180,91 184,90 188,90 192,91 196,92 200,92 205,92 209,92 213,91 217,91 221,91 225,91 229,91 233,90 237,90 241,90 245,90 250,90 254,90 258,88 262,84 266,82 270,80 274,80 278,81 283,80 287,77 291,78 295,74 299,73 303,70 307,75 311,79 315,78 319,78 323,77 327,78 331,80 335,83 340,86 344,84 348,79 352,79 356,77 360,80 364,82 368,79 372,81 376,83 380,83 385,83 389,83 393,83 397,84 401,87 405,88 409,84 413,84 417,82 419,80 419,100 0,100" fill="url(#grad)" stroke="none" />
<polyline points="0,90 4,88 8,84 12,85 16,85 20,89 24,92 28,92 32,92 36,92 40,92 44,92 48,92 53,92 57,92 61,92 65,92 69,92 73,92 77,92 81,92 85,92 89,92 93,92 97,92 102,92 106,92 110,92 114,92 118,92 122,92 127,92 131,92 135,91 139,91 143,91 147,90 151,90 155,89 159,90 163,91 167,91 172,91 176,91 180,91 184,90 188,90 192,91 196,92 200,92 205,92 209,92 213,91 217,91 221,91 225,91 229,91 233,90 237,90 241,90 245,90 250,90 254,90 258,88 262,84 266,82 270,80 274,80 278,81 283,80 287,77 291,78 295,74 299,73 303,70 307,75 311,79 315,78 319,78 323,77 327,78 331,80 335,83 340,86 344,84 348,79 352,79 356,77 360,80 364,82 368,79 372,81 376,83 380,83 385,83 389,83 393,83 397,84 401,87 405,88 409,84 413,84 417,82 419,80" stroke="#2963da" fill="none" stroke-width="3" stroke-linejoin="round" stroke-linecap="round" />
</svg>