<svg width="419" height="100" viewBox="0 0 419 100" xmlns="http://www.w3.org/2000/svg" xmlns:xlink="http://www.w3.org/1999/xlink"><defs>
<linearGradient id="grad" x1="0%" y1="0%" x2="0%" y2="100%">
<stop offset="0%" stop-color="#2963da" stop-opacity="0.40"/>
<stop offset="100%" stop-color="#070720" stop-opacity="0.20"/>
</linearGradient>
</defs>
<rect x="0" y="0" width="419" height="100" fill="none" />
<polygon points="0,89 4,88 8,89 12,90 16,90 20,90 24,92 28,90 32,90 36,90 40,92 45,92 49,92 53,92 57,92 61,91 65,90 69,91 73,91 77,88 81,88 85,88 89,88 93,88 97,88 101,88 106,88 110,88 114,89 118,89 122,89 126,88 130,89 134,90 138,89 142,89 146,90 150,88 154,88 159,88 163,91 167,90 171,89 175,89 179,89 183,89 187,89 191,89 195,89 199,89 203,89 207,89 212,89 216,89 220,89 224,89 228,89 232,89 236,89 240,89 244,89 249,90 253,89 257,89 261,89 265,90 269,90 273,90 277,90 281,90 285,90 289,90 293,90 297,90 301,90 305,90 309,90 314,90 318,90 322,90 326,90 330,90 334,90 338,90 342,89 346,89 350,90 354,91 358,91 362,91 367,90 371,90 375,90 379,90 383,90 387,89 391,90 395,90 399,90 403,91 408,91 412,91 416,90 419,90 419,100 0,100" fill="url(#grad)" stroke="none" />
<polyline points="0,89 4,88 8,89 12,90 16,90 20,90 24,92 28,90 32,90 36,90 40,92 45,92 49,92 53,92 57,92 61,91 65,90 69,91 73,91 77,88 81,88 85,88 89,88 93,88 97,88 101,88 106,88 110,88 114,89 118,89 122,89 126,88 130,89 134,90 138,89 142,89 146,90 150,88 154,88 159,88 163,91 167,90 171,89 175,89 179,89 183,89 187,89 191,89 195,89 199,89 203,89 207,89 212,89 216,89 220,89 224,89 228,89 232,89 236,89 240,89 244,89 249,90 253,89 257,89 261,89 265,90 269,90 273,90 277,90 281,90 285,90 289,90 293,90 297,90 301,90 305,90 309,90 314,90 318,90 322,90 326,90 330,90 334,90 338,90 342,89 346,89 350,90 354,91 358,91 362,91 367,90 371,90 375,90 379,90 383,90 387,89 391,90 395,90 399,90 403,91 408,91 412,91 416,90 419,90" stroke="#2963da" fill="none" stroke-width="3" stroke-linejoin="round" stroke-linecap="round" />
</svg>