<svg width="419" height="100" viewBox="0 0 419 100" xmlns="http://www.w3.org/2000/svg" xmlns:xlink="http://www.w3.org/1999/xlink"><defs>
<linearGradient id="grad" x1="0%" y1="0%" x2="0%" y2="100%">
<stop offset="0%" stop-color="#2963da" stop-opacity="0.40"/>
<stop offset="100%" stop-color="#070720" stop-opacity="0.20"/>
</linearGradient>
</defs>
<rect x="0" y="0" width="419" height="100" fill="none" />
<polygon points="0,91 4,91 8,92 12,91 17,90 21,90 26,89 30,91 34,92 38,92 42,92 47,92 51,92 55,92 60,92 64,92 69,91 73,91 77,92 81,91 85,91 90,92 96,92 100,92 105,91 109,91 114,91 118,91 122,90 127,90 131,89 135,91 139,92 144,92 148,92 152,92 157,91 161,90 166,89 170,88 175,89 179,89 183,88 187,87 192,85 196,86 200,86 204,87 209,87 215,88 219,88 224,89 228,89 232,89 236,89 240,89 244,88 249,88 253,89 257,89 261,89 265,89 269,90 273,90 277,90 281,89 285,89 289,88 293,88 298,87 302,87 306,86 310,85 314,85 318,83 323,82 328,83 332,83 336,85 340,87 344,86 348,87 352,88 356,88 360,88 364,86 369,85 373,85 377,84 381,85 386,84 390,84 394,83 398,81 402,82 407,84 411,84 415,83 419,81 419,100 0,100" fill="url(#grad)" stroke="none" />
<polyline points="0,91 4,91 8,92 12,91 17,90 21,90 26,89 30,91 34,92 38,92 42,92 47,92 51,92 55,92 60,92 64,92 69,91 73,91 77,92 81,91 85,91 90,92 96,92 100,92 105,91 109,91 114,91 118,91 122,90 127,90 131,89 135,91 139,92 144,92 148,92 152,92 157,91 161,90 166,89 170,88 175,89 179,89 183,88 187,87 192,85 196,86 200,86 204,87 209,87 215,88 219,88 224,89 228,89 232,89 236,89 240,89 244,88 249,88 253,89 257,89 261,89 265,89 269,90 273,90 277,90 281,89 285,89 289,88 293,88 298,87 302,87 306,86 310,85 314,85 318,83 323,82 328,83 332,83 336,85 340,87 344,86 348,87 352,88 356,88 360,88 364,86 369,85 373,85 377,84 381,85 386,84 390,84 394,83 398,81 402,82 407,84 411,84 415,83 419,81" stroke="#2963da" fill="none" stroke-width="3" stroke-linejoin="round" stroke-linecap="round" />
</svg>