<svg width="419" height="100" viewBox="0 0 419 100" xmlns="http://www.w3.org/2000/svg" xmlns:xlink="http://www.w3.org/1999/xlink"><defs>
<linearGradient id="grad" x1="0%" y1="0%" x2="0%" y2="100%">
<stop offset="0%" stop-color="#2963da" stop-opacity="0.40"/>
<stop offset="100%" stop-color="#070720" stop-opacity="0.20"/>
</linearGradient>
</defs>
<rect x="0" y="0" width="419" height="100" fill="none" />
<polygon points="0,91 4,92 8,92 12,92 16,91 20,91 24,92 28,91 32,91 37,92 41,92 45,91 49,91 53,92 57,91 61,90 65,91 69,92 73,92 78,92 82,92 86,92 90,92 94,92 98,92 102,92 107,92 111,92 115,92 119,92 123,91 128,90 132,91 136,92 140,91 144,91 148,92 152,92 156,91 160,92 165,92 169,91 173,91 177,92 181,91 185,92 189,92 193,92 197,92 201,91 205,92 209,91 213,91 217,92 221,92 226,92 230,91 234,91 238,92 242,91 246,92 250,92 254,91 258,91 262,91 266,92 270,92 274,92 278,92 283,91 287,92 291,91 295,91 299,91 303,92 307,92 311,91 315,92 319,91 323,91 327,91 331,92 335,91 339,91 344,91 348,91 352,91 356,92 360,92 364,91 368,91 372,92 376,91 381,91 385,92 389,92 393,92 397,91 401,91 405,92 409,91 413,92 417,92 419,91 419,100 0,100" fill="url(#grad)" stroke="none" />
<polyline points="0,91 4,92 8,92 12,92 16,91 20,91 24,92 28,91 32,91 37,92 41,92 45,91 49,91 53,92 57,91 61,90 65,91 69,92 73,92 78,92 82,92 86,92 90,92 94,92 98,92 102,92 107,92 111,92 115,92 119,92 123,91 128,90 132,91 136,92 140,91 144,91 148,92 152,92 156,91 160,92 165,92 169,91 173,91 177,92 181,91 185,92 189,92 193,92 197,92 201,91 205,92 209,91 213,91 217,92 221,92 226,92 230,91 234,91 238,92 242,91 246,92 250,92 254,91 258,91 262,91 266,92 270,92 274,92 278,92 283,91 287,92 291,91 295,91 299,91 303,92 307,92 311,91 315,92 319,91 323,91 327,91 331,92 335,91 339,91 344,91 348,91 352,91 356,92 360,92 364,91 368,91 372,92 376,91 381,91 385,92 389,92 393,92 397,91 401,91 405,92 409,91 413,92 417,92 419,91" stroke="#2963da" fill="none" stroke-width="3" stroke-linejoin="round" stroke-linecap="round" />
</svg>