<svg width="419" height="100" viewBox="0 0 419 100" xmlns="http://www.w3.org/2000/svg" xmlns:xlink="http://www.w3.org/1999/xlink"><defs>
<linearGradient id="grad" x1="0%" y1="0%" x2="0%" y2="100%">
<stop offset="0%" stop-color="#2963da" stop-opacity="0.40"/>
<stop offset="100%" stop-color="#070720" stop-opacity="0.20"/>
</linearGradient>
</defs>
<rect x="0" y="0" width="419" height="100" fill="none" />
<polygon points="0,92 4,92 8,92 13,92 18,92 22,92 27,91 31,91 35,90 39,91 43,90 47,90 51,89 56,89 60,88 64,85 68,84 72,84 76,85 80,85 84,84 88,84 92,82 96,83 100,80 104,83 109,82 113,82 117,82 121,81 125,82 130,81 134,81 138,80 142,80 147,80 151,80 156,79 160,78 165,77 170,78 175,79 179,79 183,79 187,78 192,78 196,80 201,79 205,81 209,81 213,81 218,82 223,82 227,82 232,82 236,83 240,80 245,81 249,79 254,80 258,80 262,79 266,78 270,78 275,76 279,78 283,81 288,82 292,83 296,84 300,83 304,84 308,85 312,85 316,85 321,84 325,85 329,86 333,89 337,88 341,84 345,80 349,83 354,85 358,87 363,90 367,91 371,90 375,91 379,90 383,89 387,89 392,88 396,86 400,81 404,83 408,85 412,86 416,89 419,90 419,100 0,100" fill="url(#grad)" stroke="none" />
<polyline points="0,92 4,92 8,92 13,92 18,92 22,92 27,91 31,91 35,90 39,91 43,90 47,90 51,89 56,89 60,88 64,85 68,84 72,84 76,85 80,85 84,84 88,84 92,82 96,83 100,80 104,83 109,82 113,82 117,82 121,81 125,82 130,81 134,81 138,80 142,80 147,80 151,80 156,79 160,78 165,77 170,78 175,79 179,79 183,79 187,78 192,78 196,80 201,79 205,81 209,81 213,81 218,82 223,82 227,82 232,82 236,83 240,80 245,81 249,79 254,80 258,80 262,79 266,78 270,78 275,76 279,78 283,81 288,82 292,83 296,84 300,83 304,84 308,85 312,85 316,85 321,84 325,85 329,86 333,89 337,88 341,84 345,80 349,83 354,85 358,87 363,90 367,91 371,90 375,91 379,90 383,89 387,89 392,88 396,86 400,81 404,83 408,85 412,86 416,89 419,90" stroke="#2963da" fill="none" stroke-width="3" stroke-linejoin="round" stroke-linecap="round" />
</svg>