<svg width="419" height="100" viewBox="0 0 419 100" xmlns="http://www.w3.org/2000/svg" xmlns:xlink="http://www.w3.org/1999/xlink"><defs>
<linearGradient id="grad" x1="0%" y1="0%" x2="0%" y2="100%">
<stop offset="0%" stop-color="#2963da" stop-opacity="0.40"/>
<stop offset="100%" stop-color="#070720" stop-opacity="0.20"/>
</linearGradient>
</defs>
<rect x="0" y="0" width="419" height="100" fill="none" />
<polygon points="0,92 4,92 10,92 14,92 18,91 22,90 27,88 31,85 35,83 39,80 43,79 47,75 51,73 55,70 59,68 63,73 67,76 71,76 76,71 80,67 84,63 88,60 92,58 96,54 100,50 104,47 108,47 112,44 116,44 121,47 125,50 129,54 133,57 137,60 141,62 145,65 149,68 154,71 158,75 162,78 166,80 170,79 174,76 178,73 182,69 186,67 191,64 195,60 199,55 203,51 207,46 211,41 215,41 219,45 223,48 227,45 231,45 235,45 239,42 243,38 248,35 252,32 256,33 260,36 264,39 268,42 272,46 276,48 280,50 284,52 288,56 292,60 297,63 301,67 305,69 309,70 313,73 317,75 321,74 325,75 329,75 333,75 337,77 342,77 346,78 350,78 354,80 358,81 362,78 366,75 370,71 374,67 378,63 382,60 386,56 390,52 394,48 399,45 403,41 407,37 411,34 415,31 419,28 419,100 0,100" fill="url(#grad)" stroke="none" />
<polyline points="0,92 4,92 10,92 14,92 18,91 22,90 27,88 31,85 35,83 39,80 43,79 47,75 51,73 55,70 59,68 63,73 67,76 71,76 76,71 80,67 84,63 88,60 92,58 96,54 100,50 104,47 108,47 112,44 116,44 121,47 125,50 129,54 133,57 137,60 141,62 145,65 149,68 154,71 158,75 162,78 166,80 170,79 174,76 178,73 182,69 186,67 191,64 195,60 199,55 203,51 207,46 211,41 215,41 219,45 223,48 227,45 231,45 235,45 239,42 243,38 248,35 252,32 256,33 260,36 264,39 268,42 272,46 276,48 280,50 284,52 288,56 292,60 297,63 301,67 305,69 309,70 313,73 317,75 321,74 325,75 329,75 333,75 337,77 342,77 346,78 350,78 354,80 358,81 362,78 366,75 370,71 374,67 378,63 382,60 386,56 390,52 394,48 399,45 403,41 407,37 411,34 415,31 419,28" stroke="#2963da" fill="none" stroke-width="3" stroke-linejoin="round" stroke-linecap="round" />
</svg>