<svg width="419" height="100" viewBox="0 0 419 100" xmlns="http://www.w3.org/2000/svg" xmlns:xlink="http://www.w3.org/1999/xlink"><defs>
<linearGradient id="grad" x1="0%" y1="0%" x2="0%" y2="100%">
<stop offset="0%" stop-color="#2963da" stop-opacity="0.40"/>
<stop offset="100%" stop-color="#070720" stop-opacity="0.20"/>
</linearGradient>
</defs>
<rect x="0" y="0" width="419" height="100" fill="none" />
<polygon points="0,92 4,91 8,91 12,91 16,92 20,92 24,92 28,91 32,91 36,91 40,92 44,92 48,92 52,92 56,92 60,92 64,92 68,92 72,92 76,92 80,92 84,92 89,92 93,92 97,92 101,92 105,92 109,92 113,92 117,92 121,92 125,92 129,91 133,88 137,86 141,89 145,91 149,91 153,92 157,92 161,92 165,91 169,92 174,92 178,91 182,91 186,91 190,92 194,92 198,92 202,92 206,92 210,92 214,92 218,92 222,92 226,92 230,92 234,92 238,92 242,92 246,92 250,92 255,92 259,92 263,92 267,92 271,92 275,92 279,92 283,89 287,86 291,89 295,91 299,91 303,92 307,92 311,92 315,92 319,92 323,92 327,92 331,91 335,91 339,92 344,92 348,92 352,92 356,92 360,92 364,92 368,92 372,92 376,88 380,84 384,80 388,75 392,71 397,69 401,68 405,64 409,61 413,57 417,53 419,52 419,100 0,100" fill="url(#grad)" stroke="none" />
<polyline points="0,92 4,91 8,91 12,91 16,92 20,92 24,92 28,91 32,91 36,91 40,92 44,92 48,92 52,92 56,92 60,92 64,92 68,92 72,92 76,92 80,92 84,92 89,92 93,92 97,92 101,92 105,92 109,92 113,92 117,92 121,92 125,92 129,91 133,88 137,86 141,89 145,91 149,91 153,92 157,92 161,92 165,91 169,92 174,92 178,91 182,91 186,91 190,92 194,92 198,92 202,92 206,92 210,92 214,92 218,92 222,92 226,92 230,92 234,92 238,92 242,92 246,92 250,92 255,92 259,92 263,92 267,92 271,92 275,92 279,92 283,89 287,86 291,89 295,91 299,91 303,92 307,92 311,92 315,92 319,92 323,92 327,92 331,91 335,91 339,92 344,92 348,92 352,92 356,92 360,92 364,92 368,92 372,92 376,88 380,84 384,80 388,75 392,71 397,69 401,68 405,64 409,61 413,57 417,53 419,52" stroke="#2963da" fill="none" stroke-width="3" stroke-linejoin="round" stroke-linecap="round" />
</svg>