<svg width="419" height="100" viewBox="0 0 419 100" xmlns="http://www.w3.org/2000/svg" xmlns:xlink="http://www.w3.org/1999/xlink"><defs>
<linearGradient id="grad" x1="0%" y1="0%" x2="0%" y2="100%">
<stop offset="0%" stop-color="#2963da" stop-opacity="0.40"/>
<stop offset="100%" stop-color="#070720" stop-opacity="0.20"/>
</linearGradient>
</defs>
<rect x="0" y="0" width="419" height="100" fill="none" />
<polygon points="0,92 4,92 8,92 12,92 16,90 20,89 24,89 28,88 32,87 36,88 40,92 44,92 48,92 52,92 56,91 60,91 64,91 68,89 72,88 76,84 80,82 84,81 88,81 92,81 97,81 101,82 105,84 109,85 113,87 117,88 121,90 125,91 129,90 133,89 137,87 141,89 145,89 149,87 153,85 157,85 161,87 165,88 169,90 173,91 178,90 182,89 186,87 190,89 194,89 198,87 202,85 206,85 210,87 214,88 218,90 222,91 226,90 230,89 234,87 238,89 242,89 246,87 250,85 254,85 258,87 263,88 267,90 271,90 275,90 279,89 283,87 287,89 291,89 295,88 299,85 303,85 307,87 311,88 315,90 319,90 323,90 327,89 331,87 335,89 339,89 343,88 347,85 351,85 355,87 360,88 364,90 368,90 372,90 376,89 380,87 384,89 388,89 392,88 396,85 400,85 404,87 408,88 412,90 416,90 419,91 419,100 0,100" fill="url(#grad)" stroke="none" />
<polyline points="0,92 4,92 8,92 12,92 16,90 20,89 24,89 28,88 32,87 36,88 40,92 44,92 48,92 52,92 56,91 60,91 64,91 68,89 72,88 76,84 80,82 84,81 88,81 92,81 97,81 101,82 105,84 109,85 113,87 117,88 121,90 125,91 129,90 133,89 137,87 141,89 145,89 149,87 153,85 157,85 161,87 165,88 169,90 173,91 178,90 182,89 186,87 190,89 194,89 198,87 202,85 206,85 210,87 214,88 218,90 222,91 226,90 230,89 234,87 238,89 242,89 246,87 250,85 254,85 258,87 263,88 267,90 271,90 275,90 279,89 283,87 287,89 291,89 295,88 299,85 303,85 307,87 311,88 315,90 319,90 323,90 327,89 331,87 335,89 339,89 343,88 347,85 351,85 355,87 360,88 364,90 368,90 372,90 376,89 380,87 384,89 388,89 392,88 396,85 400,85 404,87 408,88 412,90 416,90 419,91" stroke="#2963da" fill="none" stroke-width="3" stroke-linejoin="round" stroke-linecap="round" />
</svg>