<svg width="419" height="100" viewBox="0 0 419 100" xmlns="http://www.w3.org/2000/svg" xmlns:xlink="http://www.w3.org/1999/xlink"><defs>
<linearGradient id="grad" x1="0%" y1="0%" x2="0%" y2="100%">
<stop offset="0%" stop-color="#2963da" stop-opacity="0.40"/>
<stop offset="100%" stop-color="#070720" stop-opacity="0.20"/>
</linearGradient>
</defs>
<rect x="0" y="0" width="419" height="100" fill="none" />
<polygon points="0,92 4,92 8,92 12,92 16,92 20,92 24,92 28,92 32,92 36,91 40,91 44,91 48,91 52,92 57,92 61,91 65,91 69,92 73,92 77,92 81,92 85,92 89,92 93,92 97,92 101,92 105,92 109,92 114,92 118,92 122,92 126,92 130,92 134,92 138,92 142,92 146,92 150,92 154,91 158,90 162,91 166,91 170,91 175,89 179,89 183,90 187,90 191,91 195,91 199,89 203,89 207,90 211,90 215,90 219,90 223,89 227,89 231,89 235,89 240,88 244,88 248,88 252,88 256,88 260,88 264,87 268,87 272,86 276,86 280,86 284,86 288,86 292,86 296,87 300,88 304,89 309,88 313,86 317,87 321,90 325,92 329,92 333,88 337,91 341,91 345,90 349,91 353,92 357,92 361,92 365,92 370,92 374,92 378,92 382,92 386,92 390,90 394,89 398,92 402,91 406,91 410,92 414,92 418,92 419,92 419,100 0,100" fill="url(#grad)" stroke="none" />
<polyline points="0,92 4,92 8,92 12,92 16,92 20,92 24,92 28,92 32,92 36,91 40,91 44,91 48,91 52,92 57,92 61,91 65,91 69,92 73,92 77,92 81,92 85,92 89,92 93,92 97,92 101,92 105,92 109,92 114,92 118,92 122,92 126,92 130,92 134,92 138,92 142,92 146,92 150,92 154,91 158,90 162,91 166,91 170,91 175,89 179,89 183,90 187,90 191,91 195,91 199,89 203,89 207,90 211,90 215,90 219,90 223,89 227,89 231,89 235,89 240,88 244,88 248,88 252,88 256,88 260,88 264,87 268,87 272,86 276,86 280,86 284,86 288,86 292,86 296,87 300,88 304,89 309,88 313,86 317,87 321,90 325,92 329,92 333,88 337,91 341,91 345,90 349,91 353,92 357,92 361,92 365,92 370,92 374,92 378,92 382,92 386,92 390,90 394,89 398,92 402,91 406,91 410,92 414,92 418,92 419,92" stroke="#2963da" fill="none" stroke-width="3" stroke-linejoin="round" stroke-linecap="round" />
</svg>