<svg width="419" height="100" viewBox="0 0 419 100" xmlns="http://www.w3.org/2000/svg" xmlns:xlink="http://www.w3.org/1999/xlink"><defs>
<linearGradient id="grad" x1="0%" y1="0%" x2="0%" y2="100%">
<stop offset="0%" stop-color="#2963da" stop-opacity="0.40"/>
<stop offset="100%" stop-color="#070720" stop-opacity="0.20"/>
</linearGradient>
</defs>
<rect x="0" y="0" width="419" height="100" fill="none" />
<polygon points="0,91 4,91 8,91 12,91 16,91 20,91 24,91 28,91 33,91 37,90 41,90 45,91 49,90 54,90 58,90 62,91 66,90 70,90 75,90 79,90 83,90 88,90 92,90 96,90 101,90 105,90 109,90 113,90 117,90 122,90 126,90 130,90 134,90 138,91 142,91 146,90 151,91 155,91 159,91 163,92 167,92 171,91 175,92 179,92 183,90 188,92 192,92 196,91 200,90 204,92 208,91 213,92 217,90 221,92 225,91 229,92 233,91 237,92 241,92 246,92 250,92 254,92 258,92 262,91 266,92 270,92 274,91 278,91 283,92 287,92 291,92 295,92 299,92 303,92 307,92 311,91 315,91 319,92 323,92 328,90 332,91 336,92 340,92 344,91 348,92 353,91 357,91 361,92 365,92 369,92 373,91 377,92 381,92 386,90 390,92 394,92 398,91 402,92 406,91 410,91 415,91 419,88 419,100 0,100" fill="url(#grad)" stroke="none" />
<polyline points="0,91 4,91 8,91 12,91 16,91 20,91 24,91 28,91 33,91 37,90 41,90 45,91 49,90 54,90 58,90 62,91 66,90 70,90 75,90 79,90 83,90 88,90 92,90 96,90 101,90 105,90 109,90 113,90 117,90 122,90 126,90 130,90 134,90 138,91 142,91 146,90 151,91 155,91 159,91 163,92 167,92 171,91 175,92 179,92 183,90 188,92 192,92 196,91 200,90 204,92 208,91 213,92 217,90 221,92 225,91 229,92 233,91 237,92 241,92 246,92 250,92 254,92 258,92 262,91 266,92 270,92 274,91 278,91 283,92 287,92 291,92 295,92 299,92 303,92 307,92 311,91 315,91 319,92 323,92 328,90 332,91 336,92 340,92 344,91 348,92 353,91 357,91 361,92 365,92 369,92 373,91 377,92 381,92 386,90 390,92 394,92 398,91 402,92 406,91 410,91 415,91 419,88" stroke="#2963da" fill="none" stroke-width="3" stroke-linejoin="round" stroke-linecap="round" />
</svg>