<svg width="419" height="100" viewBox="0 0 419 100" xmlns="http://www.w3.org/2000/svg" xmlns:xlink="http://www.w3.org/1999/xlink"><defs>
<linearGradient id="grad" x1="0%" y1="0%" x2="0%" y2="100%">
<stop offset="0%" stop-color="#2963da" stop-opacity="0.40"/>
<stop offset="100%" stop-color="#070720" stop-opacity="0.20"/>
</linearGradient>
</defs>
<rect x="0" y="0" width="419" height="100" fill="none" />
<polygon points="0,91 4,90 8,90 12,91 16,91 20,92 24,91 28,92 32,91 36,92 40,92 44,92 48,92 52,92 56,92 60,92 64,92 68,92 72,92 76,92 80,92 84,92 88,92 92,92 97,91 101,91 105,90 109,91 113,90 117,88 121,89 125,89 129,91 133,91 137,91 141,90 145,90 149,88 153,86 157,84 161,82 165,85 169,80 173,74 177,77 181,83 186,84 190,86 194,86 198,83 202,84 206,84 210,82 214,81 218,81 222,83 226,85 230,86 234,86 238,86 242,84 246,81 250,76 254,81 258,82 262,81 266,79 270,77 274,75 278,73 283,68 287,64 291,66 295,70 299,73 303,74 307,75 311,76 315,77 319,76 323,78 327,77 331,77 335,77 339,76 343,76 347,76 351,75 355,74 359,76 363,75 367,75 372,72 376,72 380,71 384,69 388,68 392,65 396,60 400,62 404,67 408,68 412,70 416,68 419,67 419,100 0,100" fill="url(#grad)" stroke="none" />
<polyline points="0,91 4,90 8,90 12,91 16,91 20,92 24,91 28,92 32,91 36,92 40,92 44,92 48,92 52,92 56,92 60,92 64,92 68,92 72,92 76,92 80,92 84,92 88,92 92,92 97,91 101,91 105,90 109,91 113,90 117,88 121,89 125,89 129,91 133,91 137,91 141,90 145,90 149,88 153,86 157,84 161,82 165,85 169,80 173,74 177,77 181,83 186,84 190,86 194,86 198,83 202,84 206,84 210,82 214,81 218,81 222,83 226,85 230,86 234,86 238,86 242,84 246,81 250,76 254,81 258,82 262,81 266,79 270,77 274,75 278,73 283,68 287,64 291,66 295,70 299,73 303,74 307,75 311,76 315,77 319,76 323,78 327,77 331,77 335,77 339,76 343,76 347,76 351,75 355,74 359,76 363,75 367,75 372,72 376,72 380,71 384,69 388,68 392,65 396,60 400,62 404,67 408,68 412,70 416,68 419,67" stroke="#2963da" fill="none" stroke-width="3" stroke-linejoin="round" stroke-linecap="round" />
</svg>