<svg width="419" height="100" viewBox="0 0 419 100" xmlns="http://www.w3.org/2000/svg" xmlns:xlink="http://www.w3.org/1999/xlink"><defs>
<linearGradient id="grad" x1="0%" y1="0%" x2="0%" y2="100%">
<stop offset="0%" stop-color="#2963da" stop-opacity="0.40"/>
<stop offset="100%" stop-color="#070720" stop-opacity="0.20"/>
</linearGradient>
</defs>
<rect x="0" y="0" width="419" height="100" fill="none" />
<polygon points="0,92 4,92 10,92 17,92 24,92 30,92 36,92 42,92 49,92 56,92 63,92 69,92 74,92 80,92 85,92 91,92 95,92 102,92 109,92 113,92 120,92 127,92 134,92 141,92 148,92 154,92 160,92 167,92 173,92 180,92 186,92 193,92 199,92 206,92 211,92 216,92 223,92 230,92 236,92 242,92 248,92 253,92 260,92 266,92 271,92 276,92 282,92 289,92 295,92 299,92 305,92 311,92 317,92 323,92 329,92 335,92 341,92 347,92 354,92 361,92 368,92 375,92 379,92 384,92 390,92 397,92 404,92 409,92 415,92 419,92 419,100 0,100" fill="url(#grad)" stroke="none" />
<polyline points="0,92 4,92 10,92 17,92 24,92 30,92 36,92 42,92 49,92 56,92 63,92 69,92 74,92 80,92 85,92 91,92 95,92 102,92 109,92 113,92 120,92 127,92 134,92 141,92 148,92 154,92 160,92 167,92 173,92 180,92 186,92 193,92 199,92 206,92 211,92 216,92 223,92 230,92 236,92 242,92 248,92 253,92 260,92 266,92 271,92 276,92 282,92 289,92 295,92 299,92 305,92 311,92 317,92 323,92 329,92 335,92 341,92 347,92 354,92 361,92 368,92 375,92 379,92 384,92 390,92 397,92 404,92 409,92 415,92 419,92" stroke="#2963da" fill="none" stroke-width="3" stroke-linejoin="round" stroke-linecap="round" />
</svg>