<svg width="419" height="100" viewBox="0 0 419 100" xmlns="http://www.w3.org/2000/svg" xmlns:xlink="http://www.w3.org/1999/xlink"><defs>
<linearGradient id="grad" x1="0%" y1="0%" x2="0%" y2="100%">
<stop offset="0%" stop-color="#2963da" stop-opacity="0.40"/>
<stop offset="100%" stop-color="#070720" stop-opacity="0.20"/>
</linearGradient>
</defs>
<rect x="0" y="0" width="419" height="100" fill="none" />
<polygon points="0,92 4,92 8,92 12,92 16,91 20,91 24,91 28,91 33,91 37,90 41,91 45,90 49,90 53,90 57,91 61,90 65,91 69,91 74,91 78,91 82,91 86,92 90,92 94,91 98,90 102,91 106,90 110,89 114,89 118,90 123,89 127,89 131,90 135,90 139,92 143,92 147,92 151,91 155,91 159,91 163,92 167,92 171,92 175,92 179,92 184,92 188,92 192,92 196,92 200,91 204,91 208,92 212,91 217,91 221,91 225,91 230,91 234,92 238,92 242,90 246,92 250,90 254,90 258,89 262,91 266,91 270,91 274,89 279,90 283,89 287,90 291,91 295,92 299,91 303,90 307,90 311,90 315,90 319,91 323,92 327,91 331,91 335,91 340,90 344,89 348,90 352,90 356,90 360,90 364,90 368,91 373,92 377,91 381,92 385,89 389,91 393,89 397,90 401,90 405,91 409,91 413,91 417,92 419,92 419,100 0,100" fill="url(#grad)" stroke="none" />
<polyline points="0,92 4,92 8,92 12,92 16,91 20,91 24,91 28,91 33,91 37,90 41,91 45,90 49,90 53,90 57,91 61,90 65,91 69,91 74,91 78,91 82,91 86,92 90,92 94,91 98,90 102,91 106,90 110,89 114,89 118,90 123,89 127,89 131,90 135,90 139,92 143,92 147,92 151,91 155,91 159,91 163,92 167,92 171,92 175,92 179,92 184,92 188,92 192,92 196,92 200,91 204,91 208,92 212,91 217,91 221,91 225,91 230,91 234,92 238,92 242,90 246,92 250,90 254,90 258,89 262,91 266,91 270,91 274,89 279,90 283,89 287,90 291,91 295,92 299,91 303,90 307,90 311,90 315,90 319,91 323,92 327,91 331,91 335,91 340,90 344,89 348,90 352,90 356,90 360,90 364,90 368,91 373,92 377,91 381,92 385,89 389,91 393,89 397,90 401,90 405,91 409,91 413,91 417,92 419,92" stroke="#2963da" fill="none" stroke-width="3" stroke-linejoin="round" stroke-linecap="round" />
</svg>