<svg width="419" height="100" viewBox="0 0 419 100" xmlns="http://www.w3.org/2000/svg" xmlns:xlink="http://www.w3.org/1999/xlink"><defs>
<linearGradient id="grad" x1="0%" y1="0%" x2="0%" y2="100%">
<stop offset="0%" stop-color="#2963da" stop-opacity="0.40"/>
<stop offset="100%" stop-color="#070720" stop-opacity="0.20"/>
</linearGradient>
</defs>
<rect x="0" y="0" width="419" height="100" fill="none" />
<polygon points="0,92 4,92 8,92 12,92 16,91 20,91 24,92 28,92 33,92 37,91 41,90 45,90 49,90 54,89 58,88 62,87 66,86 70,86 74,86 78,88 82,91 87,92 91,91 95,92 99,92 103,92 107,92 112,92 116,92 120,91 124,92 128,92 132,92 136,92 141,92 145,91 149,91 153,91 157,91 161,91 165,91 170,91 174,90 178,90 182,90 186,90 191,89 195,89 199,89 203,89 207,88 211,88 216,88 220,88 224,88 228,87 233,87 237,87 241,83 245,79 249,76 253,72 257,68 261,65 265,61 269,58 274,54 278,50 282,46 286,43 290,39 294,36 298,32 302,29 306,25 310,24 315,28 319,31 323,33 327,33 331,36 335,38 339,41 343,44 348,47 352,50 356,51 360,51 364,50 369,49 373,48 377,48 381,47 385,45 389,44 393,42 397,40 402,37 406,34 410,32 414,29 418,28 419,28 419,100 0,100" fill="url(#grad)" stroke="none" />
<polyline points="0,92 4,92 8,92 12,92 16,91 20,91 24,92 28,92 33,92 37,91 41,90 45,90 49,90 54,89 58,88 62,87 66,86 70,86 74,86 78,88 82,91 87,92 91,91 95,92 99,92 103,92 107,92 112,92 116,92 120,91 124,92 128,92 132,92 136,92 141,92 145,91 149,91 153,91 157,91 161,91 165,91 170,91 174,90 178,90 182,90 186,90 191,89 195,89 199,89 203,89 207,88 211,88 216,88 220,88 224,88 228,87 233,87 237,87 241,83 245,79 249,76 253,72 257,68 261,65 265,61 269,58 274,54 278,50 282,46 286,43 290,39 294,36 298,32 302,29 306,25 310,24 315,28 319,31 323,33 327,33 331,36 335,38 339,41 343,44 348,47 352,50 356,51 360,51 364,50 369,49 373,48 377,48 381,47 385,45 389,44 393,42 397,40 402,37 406,34 410,32 414,29 418,28 419,28" stroke="#2963da" fill="none" stroke-width="3" stroke-linejoin="round" stroke-linecap="round" />
</svg>