<svg width="419" height="100" viewBox="0 0 419 100" xmlns="http://www.w3.org/2000/svg" xmlns:xlink="http://www.w3.org/1999/xlink"><defs>
<linearGradient id="grad" x1="0%" y1="0%" x2="0%" y2="100%">
<stop offset="0%" stop-color="#2963da" stop-opacity="0.40"/>
<stop offset="100%" stop-color="#070720" stop-opacity="0.20"/>
</linearGradient>
</defs>
<rect x="0" y="0" width="419" height="100" fill="none" />
<polygon points="0,92 4,92 8,92 12,92 17,92 21,92 25,92 29,92 33,92 37,92 42,92 46,92 50,92 54,92 58,92 62,92 66,92 70,92 74,92 79,92 83,92 87,92 91,92 95,92 99,92 103,92 107,92 111,92 115,92 119,92 124,92 128,92 132,92 136,92 140,91 144,91 149,91 153,91 157,92 161,92 165,92 169,92 173,91 177,90 181,90 185,91 190,90 194,89 198,88 202,89 206,90 210,90 214,91 218,89 222,88 226,89 230,90 235,90 239,90 243,91 247,92 251,92 255,90 260,91 264,92 268,89 272,91 276,91 280,89 284,90 288,92 292,92 296,91 300,90 304,92 308,91 312,91 317,91 321,92 325,91 329,91 333,90 337,91 341,91 346,90 350,91 354,89 358,90 362,92 366,92 370,92 375,90 379,92 383,91 387,91 391,91 395,92 399,92 403,92 407,90 411,90 415,92 419,91 419,100 0,100" fill="url(#grad)" stroke="none" />
<polyline points="0,92 4,92 8,92 12,92 17,92 21,92 25,92 29,92 33,92 37,92 42,92 46,92 50,92 54,92 58,92 62,92 66,92 70,92 74,92 79,92 83,92 87,92 91,92 95,92 99,92 103,92 107,92 111,92 115,92 119,92 124,92 128,92 132,92 136,92 140,91 144,91 149,91 153,91 157,92 161,92 165,92 169,92 173,91 177,90 181,90 185,91 190,90 194,89 198,88 202,89 206,90 210,90 214,91 218,89 222,88 226,89 230,90 235,90 239,90 243,91 247,92 251,92 255,90 260,91 264,92 268,89 272,91 276,91 280,89 284,90 288,92 292,92 296,91 300,90 304,92 308,91 312,91 317,91 321,92 325,91 329,91 333,90 337,91 341,91 346,90 350,91 354,89 358,90 362,92 366,92 370,92 375,90 379,92 383,91 387,91 391,91 395,92 399,92 403,92 407,90 411,90 415,92 419,91" stroke="#2963da" fill="none" stroke-width="3" stroke-linejoin="round" stroke-linecap="round" />
</svg>