<svg width="419" height="100" viewBox="0 0 419 100" xmlns="http://www.w3.org/2000/svg" xmlns:xlink="http://www.w3.org/1999/xlink"><defs>
<linearGradient id="grad" x1="0%" y1="0%" x2="0%" y2="100%">
<stop offset="0%" stop-color="#2963da" stop-opacity="0.40"/>
<stop offset="100%" stop-color="#070720" stop-opacity="0.20"/>
</linearGradient>
</defs>
<rect x="0" y="0" width="419" height="100" fill="none" />
<polygon points="0,90 4,89 8,88 12,88 16,86 20,85 24,84 28,82 32,80 36,80 40,77 45,75 49,73 53,75 57,77 61,79 65,81 69,84 73,86 77,85 81,85 85,85 89,85 93,85 97,86 102,87 106,88 110,88 114,87 120,86 124,85 128,84 132,83 136,84 140,84 144,83 148,81 153,82 157,84 161,84 165,84 169,84 174,83 178,82 182,82 186,81 190,81 194,81 199,81 203,81 207,82 212,82 216,83 220,83 225,84 229,85 234,85 238,85 243,85 247,84 251,84 256,84 261,84 265,84 270,83 274,83 278,82 282,83 286,83 290,83 294,82 298,82 302,81 306,82 311,83 315,83 319,82 323,81 327,81 331,80 336,79 340,79 344,79 348,79 352,78 356,77 361,79 365,81 369,82 373,84 377,87 381,89 386,91 390,92 394,92 398,92 402,92 406,92 411,92 415,92 419,91 419,100 0,100" fill="url(#grad)" stroke="none" />
<polyline points="0,90 4,89 8,88 12,88 16,86 20,85 24,84 28,82 32,80 36,80 40,77 45,75 49,73 53,75 57,77 61,79 65,81 69,84 73,86 77,85 81,85 85,85 89,85 93,85 97,86 102,87 106,88 110,88 114,87 120,86 124,85 128,84 132,83 136,84 140,84 144,83 148,81 153,82 157,84 161,84 165,84 169,84 174,83 178,82 182,82 186,81 190,81 194,81 199,81 203,81 207,82 212,82 216,83 220,83 225,84 229,85 234,85 238,85 243,85 247,84 251,84 256,84 261,84 265,84 270,83 274,83 278,82 282,83 286,83 290,83 294,82 298,82 302,81 306,82 311,83 315,83 319,82 323,81 327,81 331,80 336,79 340,79 344,79 348,79 352,78 356,77 361,79 365,81 369,82 373,84 377,87 381,89 386,91 390,92 394,92 398,92 402,92 406,92 411,92 415,92 419,91" stroke="#2963da" fill="none" stroke-width="3" stroke-linejoin="round" stroke-linecap="round" />
</svg>