<svg width="419" height="100" viewBox="0 0 419 100" xmlns="http://www.w3.org/2000/svg" xmlns:xlink="http://www.w3.org/1999/xlink"><defs>
<linearGradient id="grad" x1="0%" y1="0%" x2="0%" y2="100%">
<stop offset="0%" stop-color="#2963da" stop-opacity="0.40"/>
<stop offset="100%" stop-color="#070720" stop-opacity="0.20"/>
</linearGradient>
</defs>
<rect x="0" y="0" width="419" height="100" fill="none" />
<polygon points="0,92 4,92 8,92 12,92 16,92 20,91 24,91 28,91 32,91 36,91 40,91 44,90 48,90 52,90 56,90 60,89 64,89 68,89 72,88 76,88 80,88 85,87 89,87 93,87 97,87 101,87 105,85 109,84 113,84 117,84 121,84 125,85 129,87 133,87 137,88 141,87 145,86 149,84 153,84 157,82 161,79 165,80 170,82 174,84 178,86 182,86 186,87 190,87 194,86 198,85 202,84 206,83 210,83 214,84 218,84 222,84 226,84 230,85 234,86 238,86 242,86 246,87 251,87 255,87 259,84 263,82 267,80 271,80 275,80 279,81 283,81 287,79 291,80 295,80 299,83 303,84 307,85 311,86 315,86 319,86 323,87 327,87 331,88 336,88 340,88 344,88 348,89 352,89 356,89 360,89 364,89 368,90 372,90 376,90 380,90 384,91 388,91 392,91 396,91 400,91 404,92 409,92 413,92 417,92 419,91 419,100 0,100" fill="url(#grad)" stroke="none" />
<polyline points="0,92 4,92 8,92 12,92 16,92 20,91 24,91 28,91 32,91 36,91 40,91 44,90 48,90 52,90 56,90 60,89 64,89 68,89 72,88 76,88 80,88 85,87 89,87 93,87 97,87 101,87 105,85 109,84 113,84 117,84 121,84 125,85 129,87 133,87 137,88 141,87 145,86 149,84 153,84 157,82 161,79 165,80 170,82 174,84 178,86 182,86 186,87 190,87 194,86 198,85 202,84 206,83 210,83 214,84 218,84 222,84 226,84 230,85 234,86 238,86 242,86 246,87 251,87 255,87 259,84 263,82 267,80 271,80 275,80 279,81 283,81 287,79 291,80 295,80 299,83 303,84 307,85 311,86 315,86 319,86 323,87 327,87 331,88 336,88 340,88 344,88 348,89 352,89 356,89 360,89 364,89 368,90 372,90 376,90 380,90 384,91 388,91 392,91 396,91 400,91 404,92 409,92 413,92 417,92 419,91" stroke="#2963da" fill="none" stroke-width="3" stroke-linejoin="round" stroke-linecap="round" />
</svg>