<svg width="419" height="100" viewBox="0 0 419 100" xmlns="http://www.w3.org/2000/svg" xmlns:xlink="http://www.w3.org/1999/xlink"><defs>
<linearGradient id="grad" x1="0%" y1="0%" x2="0%" y2="100%">
<stop offset="0%" stop-color="#2963da" stop-opacity="0.40"/>
<stop offset="100%" stop-color="#070720" stop-opacity="0.20"/>
</linearGradient>
</defs>
<rect x="0" y="0" width="419" height="100" fill="none" />
<polygon points="0,92 4,92 8,91 12,90 16,92 20,92 24,90 29,90 33,92 37,92 41,92 45,92 49,92 53,92 58,92 62,92 66,92 70,92 74,92 79,92 83,92 87,92 91,92 95,91 99,90 103,90 108,92 112,92 116,91 120,91 124,92 128,91 132,91 137,91 141,91 145,91 149,92 153,91 158,91 162,91 166,91 170,92 174,92 178,91 182,91 186,91 190,92 195,91 199,92 203,92 207,91 211,91 215,91 220,91 224,91 228,91 232,92 236,91 240,91 244,91 248,91 252,91 257,91 261,92 265,92 269,91 273,91 277,92 281,91 285,91 290,92 294,92 298,91 302,91 307,91 311,91 315,91 319,91 323,92 327,91 331,91 335,91 339,91 344,91 348,91 352,92 356,92 360,91 364,91 368,92 373,91 377,91 381,92 385,92 389,91 394,91 398,91 402,91 406,91 410,91 414,92 418,91 419,91 419,100 0,100" fill="url(#grad)" stroke="none" />
<polyline points="0,92 4,92 8,91 12,90 16,92 20,92 24,90 29,90 33,92 37,92 41,92 45,92 49,92 53,92 58,92 62,92 66,92 70,92 74,92 79,92 83,92 87,92 91,92 95,91 99,90 103,90 108,92 112,92 116,91 120,91 124,92 128,91 132,91 137,91 141,91 145,91 149,92 153,91 158,91 162,91 166,91 170,92 174,92 178,91 182,91 186,91 190,92 195,91 199,92 203,92 207,91 211,91 215,91 220,91 224,91 228,91 232,92 236,91 240,91 244,91 248,91 252,91 257,91 261,92 265,92 269,91 273,91 277,92 281,91 285,91 290,92 294,92 298,91 302,91 307,91 311,91 315,91 319,91 323,92 327,91 331,91 335,91 339,91 344,91 348,91 352,92 356,92 360,91 364,91 368,92 373,91 377,91 381,92 385,92 389,91 394,91 398,91 402,91 406,91 410,91 414,92 418,91 419,91" stroke="#2963da" fill="none" stroke-width="3" stroke-linejoin="round" stroke-linecap="round" />
</svg>