<svg width="419" height="100" viewBox="0 0 419 100" xmlns="http://www.w3.org/2000/svg" xmlns:xlink="http://www.w3.org/1999/xlink"><defs>
<linearGradient id="grad" x1="0%" y1="0%" x2="0%" y2="100%">
<stop offset="0%" stop-color="#2963da" stop-opacity="0.40"/>
<stop offset="100%" stop-color="#070720" stop-opacity="0.20"/>
</linearGradient>
</defs>
<rect x="0" y="0" width="419" height="100" fill="none" />
<polygon points="0,65 4,64 8,64 12,64 16,62 20,63 24,62 28,61 33,61 37,61 41,60 45,58 49,59 53,58 58,58 62,57 66,56 70,55 74,54 79,52 83,50 87,53 91,58 95,62 99,65 103,67 107,71 112,76 116,79 120,82 124,84 128,85 132,86 136,87 140,88 144,88 148,89 152,90 156,90 161,91 165,91 169,91 173,92 177,92 181,91 185,91 189,91 193,90 198,90 202,89 206,88 210,87 214,87 219,85 223,85 227,80 231,76 235,71 239,71 243,75 247,79 251,83 255,86 260,88 264,89 268,90 272,90 277,91 281,91 285,92 289,92 293,91 297,88 301,85 305,80 309,75 313,70 317,73 321,78 325,83 329,85 333,86 337,88 341,89 346,91 350,92 354,92 358,92 362,92 366,92 370,91 374,91 379,89 383,89 387,89 391,87 395,83 399,78 403,74 407,69 411,65 415,60 419,56 419,100 0,100" fill="url(#grad)" stroke="none" />
<polyline points="0,65 4,64 8,64 12,64 16,62 20,63 24,62 28,61 33,61 37,61 41,60 45,58 49,59 53,58 58,58 62,57 66,56 70,55 74,54 79,52 83,50 87,53 91,58 95,62 99,65 103,67 107,71 112,76 116,79 120,82 124,84 128,85 132,86 136,87 140,88 144,88 148,89 152,90 156,90 161,91 165,91 169,91 173,92 177,92 181,91 185,91 189,91 193,90 198,90 202,89 206,88 210,87 214,87 219,85 223,85 227,80 231,76 235,71 239,71 243,75 247,79 251,83 255,86 260,88 264,89 268,90 272,90 277,91 281,91 285,92 289,92 293,91 297,88 301,85 305,80 309,75 313,70 317,73 321,78 325,83 329,85 333,86 337,88 341,89 346,91 350,92 354,92 358,92 362,92 366,92 370,91 374,91 379,89 383,89 387,89 391,87 395,83 399,78 403,74 407,69 411,65 415,60 419,56" stroke="#2963da" fill="none" stroke-width="3" stroke-linejoin="round" stroke-linecap="round" />
</svg>