<svg width="419" height="100" viewBox="0 0 419 100" xmlns="http://www.w3.org/2000/svg" xmlns:xlink="http://www.w3.org/1999/xlink"><defs>
<linearGradient id="grad" x1="0%" y1="0%" x2="0%" y2="100%">
<stop offset="0%" stop-color="#2963da" stop-opacity="0.40"/>
<stop offset="100%" stop-color="#070720" stop-opacity="0.20"/>
</linearGradient>
</defs>
<rect x="0" y="0" width="419" height="100" fill="none" />
<polygon points="0,92 4,91 8,92 12,92 17,92 21,92 25,92 29,92 33,92 37,92 42,92 46,92 51,92 55,92 59,91 63,91 67,91 71,92 75,92 80,92 84,92 88,92 92,90 96,86 100,82 104,80 108,76 112,75 116,79 120,82 125,82 129,81 133,79 137,79 142,79 146,78 150,77 154,76 158,73 162,73 167,73 171,75 175,79 179,83 183,87 187,90 191,92 195,92 199,92 204,91 208,88 212,85 216,83 220,80 224,78 228,77 232,80 236,83 241,86 245,87 249,85 253,83 257,83 262,86 266,85 270,86 274,87 278,89 282,90 286,90 290,91 295,92 299,92 303,92 307,91 311,91 315,91 319,91 324,92 328,92 332,92 336,92 341,92 345,92 349,92 353,92 357,92 362,92 366,92 370,92 374,92 378,92 382,92 386,92 390,92 394,92 399,92 403,92 407,92 411,92 415,92 419,92 419,100 0,100" fill="url(#grad)" stroke="none" />
<polyline points="0,92 4,91 8,92 12,92 17,92 21,92 25,92 29,92 33,92 37,92 42,92 46,92 51,92 55,92 59,91 63,91 67,91 71,92 75,92 80,92 84,92 88,92 92,90 96,86 100,82 104,80 108,76 112,75 116,79 120,82 125,82 129,81 133,79 137,79 142,79 146,78 150,77 154,76 158,73 162,73 167,73 171,75 175,79 179,83 183,87 187,90 191,92 195,92 199,92 204,91 208,88 212,85 216,83 220,80 224,78 228,77 232,80 236,83 241,86 245,87 249,85 253,83 257,83 262,86 266,85 270,86 274,87 278,89 282,90 286,90 290,91 295,92 299,92 303,92 307,91 311,91 315,91 319,91 324,92 328,92 332,92 336,92 341,92 345,92 349,92 353,92 357,92 362,92 366,92 370,92 374,92 378,92 382,92 386,92 390,92 394,92 399,92 403,92 407,92 411,92 415,92 419,92" stroke="#2963da" fill="none" stroke-width="3" stroke-linejoin="round" stroke-linecap="round" />
</svg>