<svg width="419" height="100" viewBox="0 0 419 100" xmlns="http://www.w3.org/2000/svg" xmlns:xlink="http://www.w3.org/1999/xlink"><defs>
<linearGradient id="grad" x1="0%" y1="0%" x2="0%" y2="100%">
<stop offset="0%" stop-color="#2963da" stop-opacity="0.40"/>
<stop offset="100%" stop-color="#070720" stop-opacity="0.20"/>
</linearGradient>
</defs>
<rect x="0" y="0" width="419" height="100" fill="none" />
<polygon points="0,92 4,92 8,92 13,91 18,91 22,90 26,89 30,88 34,87 39,86 43,84 47,84 51,82 56,81 60,85 64,87 68,89 72,88 76,87 80,85 85,86 89,85 93,85 98,84 102,83 106,82 110,81 114,77 118,74 122,71 126,68 130,66 134,70 138,73 143,74 147,76 151,75 155,72 159,75 163,75 167,74 171,74 175,71 180,70 184,75 188,75 192,73 196,74 200,69 204,64 209,58 213,51 217,45 221,41 225,38 229,40 233,44 237,51 241,57 246,61 250,65 254,65 258,67 262,66 266,63 270,66 274,66 278,70 282,75 286,77 291,77 295,76 299,74 303,72 307,70 311,69 315,65 319,61 323,55 327,58 331,60 335,65 339,70 343,73 348,74 352,75 356,75 360,79 365,80 369,80 373,77 377,73 381,74 385,77 389,79 394,79 398,76 402,77 406,75 410,76 414,82 418,82 419,81 419,100 0,100" fill="url(#grad)" stroke="none" />
<polyline points="0,92 4,92 8,92 13,91 18,91 22,90 26,89 30,88 34,87 39,86 43,84 47,84 51,82 56,81 60,85 64,87 68,89 72,88 76,87 80,85 85,86 89,85 93,85 98,84 102,83 106,82 110,81 114,77 118,74 122,71 126,68 130,66 134,70 138,73 143,74 147,76 151,75 155,72 159,75 163,75 167,74 171,74 175,71 180,70 184,75 188,75 192,73 196,74 200,69 204,64 209,58 213,51 217,45 221,41 225,38 229,40 233,44 237,51 241,57 246,61 250,65 254,65 258,67 262,66 266,63 270,66 274,66 278,70 282,75 286,77 291,77 295,76 299,74 303,72 307,70 311,69 315,65 319,61 323,55 327,58 331,60 335,65 339,70 343,73 348,74 352,75 356,75 360,79 365,80 369,80 373,77 377,73 381,74 385,77 389,79 394,79 398,76 402,77 406,75 410,76 414,82 418,82 419,81" stroke="#2963da" fill="none" stroke-width="3" stroke-linejoin="round" stroke-linecap="round" />
</svg>