<svg width="419" height="100" viewBox="0 0 419 100" xmlns="http://www.w3.org/2000/svg" xmlns:xlink="http://www.w3.org/1999/xlink"><defs>
<linearGradient id="grad" x1="0%" y1="0%" x2="0%" y2="100%">
<stop offset="0%" stop-color="#2963da" stop-opacity="0.40"/>
<stop offset="100%" stop-color="#070720" stop-opacity="0.20"/>
</linearGradient>
</defs>
<rect x="0" y="0" width="419" height="100" fill="none" />
<polygon points="0,89 4,91 8,90 12,87 16,86 20,90 24,89 28,89 32,89 36,88 40,87 44,86 48,85 52,82 57,81 61,79 65,77 69,75 73,75 77,78 81,79 85,78 89,76 93,73 97,72 101,72 105,72 110,74 114,76 118,77 122,79 126,80 130,81 134,81 138,81 142,81 146,81 151,82 155,82 159,80 163,78 167,79 171,78 175,80 179,80 183,81 187,78 191,77 195,77 199,79 204,79 208,78 212,77 217,75 221,73 225,72 229,72 233,75 237,77 241,78 245,80 250,82 254,82 258,83 263,81 267,80 271,78 275,73 279,70 283,70 287,75 291,78 296,80 300,82 304,84 308,85 312,82 316,80 320,77 324,76 328,77 332,78 336,81 340,83 344,86 349,86 353,86 357,82 361,81 366,83 370,87 374,88 378,89 382,90 386,91 390,92 395,92 399,92 403,88 407,83 411,78 415,74 419,70 419,100 0,100" fill="url(#grad)" stroke="none" />
<polyline points="0,89 4,91 8,90 12,87 16,86 20,90 24,89 28,89 32,89 36,88 40,87 44,86 48,85 52,82 57,81 61,79 65,77 69,75 73,75 77,78 81,79 85,78 89,76 93,73 97,72 101,72 105,72 110,74 114,76 118,77 122,79 126,80 130,81 134,81 138,81 142,81 146,81 151,82 155,82 159,80 163,78 167,79 171,78 175,80 179,80 183,81 187,78 191,77 195,77 199,79 204,79 208,78 212,77 217,75 221,73 225,72 229,72 233,75 237,77 241,78 245,80 250,82 254,82 258,83 263,81 267,80 271,78 275,73 279,70 283,70 287,75 291,78 296,80 300,82 304,84 308,85 312,82 316,80 320,77 324,76 328,77 332,78 336,81 340,83 344,86 349,86 353,86 357,82 361,81 366,83 370,87 374,88 378,89 382,90 386,91 390,92 395,92 399,92 403,88 407,83 411,78 415,74 419,70" stroke="#2963da" fill="none" stroke-width="3" stroke-linejoin="round" stroke-linecap="round" />
</svg>