<svg width="419" height="100" viewBox="0 0 419 100" xmlns="http://www.w3.org/2000/svg" xmlns:xlink="http://www.w3.org/1999/xlink"><defs>
<linearGradient id="grad" x1="0%" y1="0%" x2="0%" y2="100%">
<stop offset="0%" stop-color="#2963da" stop-opacity="0.40"/>
<stop offset="100%" stop-color="#070720" stop-opacity="0.20"/>
</linearGradient>
</defs>
<rect x="0" y="0" width="419" height="100" fill="none" />
<polygon points="0,90 4,88 8,86 12,83 16,80 20,75 24,71 28,70 32,72 36,73 40,77 44,80 48,81 53,81 57,79 61,78 65,77 69,77 73,74 77,70 81,66 85,62 89,57 93,56 97,60 102,60 106,64 110,66 114,69 118,69 122,71 126,71 130,74 134,77 138,78 142,80 146,83 150,82 154,81 158,81 163,82 167,83 171,83 175,86 179,89 183,86 187,83 191,84 196,85 200,84 204,84 208,84 212,84 216,83 220,84 224,86 228,88 232,88 236,86 240,86 244,86 248,88 252,91 256,92 261,91 265,89 269,88 273,90 277,89 281,87 285,87 289,86 293,85 297,84 301,82 305,80 309,79 313,77 317,73 322,70 326,66 330,67 334,70 338,74 342,78 346,80 350,83 354,85 359,88 363,90 367,91 371,91 375,90 379,85 383,80 387,77 391,72 395,69 399,64 403,61 407,56 411,52 415,49 419,48 419,100 0,100" fill="url(#grad)" stroke="none" />
<polyline points="0,90 4,88 8,86 12,83 16,80 20,75 24,71 28,70 32,72 36,73 40,77 44,80 48,81 53,81 57,79 61,78 65,77 69,77 73,74 77,70 81,66 85,62 89,57 93,56 97,60 102,60 106,64 110,66 114,69 118,69 122,71 126,71 130,74 134,77 138,78 142,80 146,83 150,82 154,81 158,81 163,82 167,83 171,83 175,86 179,89 183,86 187,83 191,84 196,85 200,84 204,84 208,84 212,84 216,83 220,84 224,86 228,88 232,88 236,86 240,86 244,86 248,88 252,91 256,92 261,91 265,89 269,88 273,90 277,89 281,87 285,87 289,86 293,85 297,84 301,82 305,80 309,79 313,77 317,73 322,70 326,66 330,67 334,70 338,74 342,78 346,80 350,83 354,85 359,88 363,90 367,91 371,91 375,90 379,85 383,80 387,77 391,72 395,69 399,64 403,61 407,56 411,52 415,49 419,48" stroke="#2963da" fill="none" stroke-width="3" stroke-linejoin="round" stroke-linecap="round" />
</svg>