<svg width="419" height="100" viewBox="0 0 419 100" xmlns="http://www.w3.org/2000/svg" xmlns:xlink="http://www.w3.org/1999/xlink"><defs>
<linearGradient id="grad" x1="0%" y1="0%" x2="0%" y2="100%">
<stop offset="0%" stop-color="#2963da" stop-opacity="0.40"/>
<stop offset="100%" stop-color="#070720" stop-opacity="0.20"/>
</linearGradient>
</defs>
<rect x="0" y="0" width="419" height="100" fill="none" />
<polygon points="0,76 4,77 8,77 13,77 17,78 21,78 25,79 29,82 34,82 38,80 42,80 46,81 50,82 54,82 58,83 62,85 66,86 71,86 75,87 79,89 83,92 87,92 92,92 96,92 100,92 105,92 110,92 116,92 120,92 125,91 129,90 134,90 138,90 142,90 146,90 150,90 154,90 159,90 163,91 168,91 173,90 178,90 182,88 186,84 190,86 195,86 201,85 205,84 209,84 213,84 217,84 222,85 226,86 230,86 235,87 239,88 243,88 247,88 251,89 255,88 260,90 264,90 268,90 272,91 277,91 281,91 285,91 289,92 294,92 298,91 302,91 306,91 310,92 316,92 320,92 324,92 328,92 332,92 336,92 341,92 345,92 349,91 354,92 358,92 362,92 366,92 370,92 374,92 378,92 383,92 387,92 391,92 395,92 399,92 403,92 407,92 411,92 415,92 419,92 419,100 0,100" fill="url(#grad)" stroke="none" />
<polyline points="0,76 4,77 8,77 13,77 17,78 21,78 25,79 29,82 34,82 38,80 42,80 46,81 50,82 54,82 58,83 62,85 66,86 71,86 75,87 79,89 83,92 87,92 92,92 96,92 100,92 105,92 110,92 116,92 120,92 125,91 129,90 134,90 138,90 142,90 146,90 150,90 154,90 159,90 163,91 168,91 173,90 178,90 182,88 186,84 190,86 195,86 201,85 205,84 209,84 213,84 217,84 222,85 226,86 230,86 235,87 239,88 243,88 247,88 251,89 255,88 260,90 264,90 268,90 272,91 277,91 281,91 285,91 289,92 294,92 298,91 302,91 306,91 310,92 316,92 320,92 324,92 328,92 332,92 336,92 341,92 345,92 349,91 354,92 358,92 362,92 366,92 370,92 374,92 378,92 383,92 387,92 391,92 395,92 399,92 403,92 407,92 411,92 415,92 419,92" stroke="#2963da" fill="none" stroke-width="3" stroke-linejoin="round" stroke-linecap="round" />
</svg>