<svg width="419" height="100" viewBox="0 0 419 100" xmlns="http://www.w3.org/2000/svg" xmlns:xlink="http://www.w3.org/1999/xlink"><defs>
<linearGradient id="grad" x1="0%" y1="0%" x2="0%" y2="100%">
<stop offset="0%" stop-color="#2963da" stop-opacity="0.40"/>
<stop offset="100%" stop-color="#070720" stop-opacity="0.20"/>
</linearGradient>
</defs>
<rect x="0" y="0" width="419" height="100" fill="none" />
<polygon points="0,92 4,90 8,87 12,86 16,84 20,83 24,86 28,89 32,89 36,88 40,86 44,87 48,89 53,89 57,88 61,88 65,88 69,85 73,81 77,77 81,73 85,76 89,74 93,75 97,72 101,75 106,80 110,83 114,85 118,86 122,87 126,90 130,91 134,91 138,89 142,90 146,92 151,92 155,91 159,82 163,77 167,73 171,74 175,74 179,73 183,72 187,72 192,71 196,71 200,67 204,64 208,68 212,66 216,67 220,69 224,71 228,73 232,75 236,74 240,76 244,75 248,73 253,70 257,70 261,67 265,64 269,60 273,57 277,59 281,61 285,65 290,68 294,69 298,69 302,68 306,63 310,59 314,57 318,62 322,65 326,66 330,62 334,65 338,68 343,72 347,76 351,78 355,78 359,79 363,81 367,84 371,85 375,81 379,79 383,76 387,73 391,70 395,66 399,61 403,57 407,51 411,46 415,40 419,37 419,100 0,100" fill="url(#grad)" stroke="none" />
<polyline points="0,92 4,90 8,87 12,86 16,84 20,83 24,86 28,89 32,89 36,88 40,86 44,87 48,89 53,89 57,88 61,88 65,88 69,85 73,81 77,77 81,73 85,76 89,74 93,75 97,72 101,75 106,80 110,83 114,85 118,86 122,87 126,90 130,91 134,91 138,89 142,90 146,92 151,92 155,91 159,82 163,77 167,73 171,74 175,74 179,73 183,72 187,72 192,71 196,71 200,67 204,64 208,68 212,66 216,67 220,69 224,71 228,73 232,75 236,74 240,76 244,75 248,73 253,70 257,70 261,67 265,64 269,60 273,57 277,59 281,61 285,65 290,68 294,69 298,69 302,68 306,63 310,59 314,57 318,62 322,65 326,66 330,62 334,65 338,68 343,72 347,76 351,78 355,78 359,79 363,81 367,84 371,85 375,81 379,79 383,76 387,73 391,70 395,66 399,61 403,57 407,51 411,46 415,40 419,37" stroke="#2963da" fill="none" stroke-width="3" stroke-linejoin="round" stroke-linecap="round" />
</svg>