<svg width="419" height="100" viewBox="0 0 419 100" xmlns="http://www.w3.org/2000/svg" xmlns:xlink="http://www.w3.org/1999/xlink"><defs>
<linearGradient id="grad" x1="0%" y1="0%" x2="0%" y2="100%">
<stop offset="0%" stop-color="#2963da" stop-opacity="0.40"/>
<stop offset="100%" stop-color="#070720" stop-opacity="0.20"/>
</linearGradient>
</defs>
<rect x="0" y="0" width="419" height="100" fill="none" />
<polygon points="0,92 4,89 8,85 12,84 16,84 20,87 24,85 28,87 32,89 36,90 40,89 44,87 48,84 52,83 56,80 60,78 64,77 69,76 73,76 77,78 81,75 85,73 89,70 93,71 97,72 101,74 106,78 110,77 114,81 118,78 122,79 126,77 130,77 134,75 138,75 142,75 146,76 150,77 154,78 158,77 162,80 166,82 170,83 174,80 178,78 183,80 187,83 191,86 195,82 199,76 203,77 207,74 211,73 215,72 219,71 223,71 227,74 231,76 235,77 239,79 243,81 247,80 252,76 256,77 260,78 264,74 268,77 272,82 276,77 280,81 284,82 288,79 292,82 296,77 300,76 304,77 308,80 312,81 316,76 320,75 325,79 329,81 333,85 337,86 341,81 345,80 349,81 353,85 357,89 361,87 365,87 369,84 373,86 377,88 381,85 385,85 389,89 393,92 398,88 402,85 406,85 410,86 414,90 418,92 419,92 419,100 0,100" fill="url(#grad)" stroke="none" />
<polyline points="0,92 4,89 8,85 12,84 16,84 20,87 24,85 28,87 32,89 36,90 40,89 44,87 48,84 52,83 56,80 60,78 64,77 69,76 73,76 77,78 81,75 85,73 89,70 93,71 97,72 101,74 106,78 110,77 114,81 118,78 122,79 126,77 130,77 134,75 138,75 142,75 146,76 150,77 154,78 158,77 162,80 166,82 170,83 174,80 178,78 183,80 187,83 191,86 195,82 199,76 203,77 207,74 211,73 215,72 219,71 223,71 227,74 231,76 235,77 239,79 243,81 247,80 252,76 256,77 260,78 264,74 268,77 272,82 276,77 280,81 284,82 288,79 292,82 296,77 300,76 304,77 308,80 312,81 316,76 320,75 325,79 329,81 333,85 337,86 341,81 345,80 349,81 353,85 357,89 361,87 365,87 369,84 373,86 377,88 381,85 385,85 389,89 393,92 398,88 402,85 406,85 410,86 414,90 418,92 419,92" stroke="#2963da" fill="none" stroke-width="3" stroke-linejoin="round" stroke-linecap="round" />
</svg>