<svg width="419" height="100" viewBox="0 0 419 100" xmlns="http://www.w3.org/2000/svg" xmlns:xlink="http://www.w3.org/1999/xlink"><defs>
<linearGradient id="grad" x1="0%" y1="0%" x2="0%" y2="100%">
<stop offset="0%" stop-color="#2963da" stop-opacity="0.40"/>
<stop offset="100%" stop-color="#070720" stop-opacity="0.20"/>
</linearGradient>
</defs>
<rect x="0" y="0" width="419" height="100" fill="none" />
<polygon points="0,91 4,91 8,91 12,91 16,91 20,91 24,91 29,92 33,92 37,92 41,92 45,91 49,90 53,90 57,89 61,89 66,89 70,88 74,88 78,88 82,88 86,87 90,87 94,87 98,86 103,86 107,86 111,86 115,86 119,87 123,87 127,88 132,88 136,89 140,89 144,89 148,90 152,90 156,91 160,90 165,90 169,90 173,89 177,89 181,89 185,89 189,88 193,88 198,88 202,87 206,87 210,87 214,87 218,87 223,87 227,86 231,85 235,85 239,85 243,85 247,85 251,86 255,86 260,87 264,87 268,87 272,87 276,86 280,86 284,87 288,87 293,88 297,88 301,88 305,89 310,89 314,90 318,90 322,90 326,90 330,91 334,91 338,91 342,91 346,91 351,91 355,91 359,91 363,92 367,92 371,92 375,92 380,92 384,92 388,92 392,92 396,92 400,92 404,92 408,92 412,91 417,91 419,90 419,100 0,100" fill="url(#grad)" stroke="none" />
<polyline points="0,91 4,91 8,91 12,91 16,91 20,91 24,91 29,92 33,92 37,92 41,92 45,91 49,90 53,90 57,89 61,89 66,89 70,88 74,88 78,88 82,88 86,87 90,87 94,87 98,86 103,86 107,86 111,86 115,86 119,87 123,87 127,88 132,88 136,89 140,89 144,89 148,90 152,90 156,91 160,90 165,90 169,90 173,89 177,89 181,89 185,89 189,88 193,88 198,88 202,87 206,87 210,87 214,87 218,87 223,87 227,86 231,85 235,85 239,85 243,85 247,85 251,86 255,86 260,87 264,87 268,87 272,87 276,86 280,86 284,87 288,87 293,88 297,88 301,88 305,89 310,89 314,90 318,90 322,90 326,90 330,91 334,91 338,91 342,91 346,91 351,91 355,91 359,91 363,92 367,92 371,92 375,92 380,92 384,92 388,92 392,92 396,92 400,92 404,92 408,92 412,91 417,91 419,90" stroke="#2963da" fill="none" stroke-width="3" stroke-linejoin="round" stroke-linecap="round" />
</svg>