<svg width="419" height="100" viewBox="0 0 419 100" xmlns="http://www.w3.org/2000/svg" xmlns:xlink="http://www.w3.org/1999/xlink"><defs>
<linearGradient id="grad" x1="0%" y1="0%" x2="0%" y2="100%">
<stop offset="0%" stop-color="#2963da" stop-opacity="0.40"/>
<stop offset="100%" stop-color="#070720" stop-opacity="0.20"/>
</linearGradient>
</defs>
<rect x="0" y="0" width="419" height="100" fill="none" />
<polygon points="0,86 4,86 8,86 12,85 16,84 20,82 25,81 29,82 33,81 37,78 41,74 45,77 49,79 53,82 57,84 62,85 66,85 70,85 74,86 78,89 82,91 86,92 90,92 94,92 99,91 103,89 107,87 111,84 115,86 119,88 123,89 127,90 132,90 136,91 140,91 144,89 148,90 152,89 156,89 161,89 165,88 169,86 173,83 177,85 181,86 186,85 190,82 194,84 198,86 202,87 206,88 210,89 214,89 218,88 222,86 227,87 231,87 235,87 239,88 243,89 248,89 252,88 256,89 260,90 264,90 268,90 273,90 277,90 281,89 285,89 289,90 293,90 298,90 302,90 306,90 310,87 314,83 318,85 322,87 327,88 331,88 335,88 339,88 343,87 348,89 352,89 356,87 360,89 364,88 368,83 372,84 376,86 381,88 385,88 389,88 393,89 397,89 401,88 405,89 409,90 414,90 418,90 419,90 419,100 0,100" fill="url(#grad)" stroke="none" />
<polyline points="0,86 4,86 8,86 12,85 16,84 20,82 25,81 29,82 33,81 37,78 41,74 45,77 49,79 53,82 57,84 62,85 66,85 70,85 74,86 78,89 82,91 86,92 90,92 94,92 99,91 103,89 107,87 111,84 115,86 119,88 123,89 127,90 132,90 136,91 140,91 144,89 148,90 152,89 156,89 161,89 165,88 169,86 173,83 177,85 181,86 186,85 190,82 194,84 198,86 202,87 206,88 210,89 214,89 218,88 222,86 227,87 231,87 235,87 239,88 243,89 248,89 252,88 256,89 260,90 264,90 268,90 273,90 277,90 281,89 285,89 289,90 293,90 298,90 302,90 306,90 310,87 314,83 318,85 322,87 327,88 331,88 335,88 339,88 343,87 348,89 352,89 356,87 360,89 364,88 368,83 372,84 376,86 381,88 385,88 389,88 393,89 397,89 401,88 405,89 409,90 414,90 418,90 419,90" stroke="#2963da" fill="none" stroke-width="3" stroke-linejoin="round" stroke-linecap="round" />
</svg>