<svg width="419" height="100" viewBox="0 0 419 100" xmlns="http://www.w3.org/2000/svg" xmlns:xlink="http://www.w3.org/1999/xlink"><defs>
<linearGradient id="grad" x1="0%" y1="0%" x2="0%" y2="100%">
<stop offset="0%" stop-color="#2963da" stop-opacity="0.40"/>
<stop offset="100%" stop-color="#070720" stop-opacity="0.20"/>
</linearGradient>
</defs>
<rect x="0" y="0" width="419" height="100" fill="none" />
<polygon points="0,89 4,89 8,89 12,89 16,89 20,89 24,89 28,90 32,90 36,90 40,89 44,89 48,89 52,89 57,89 61,90 65,90 69,90 73,90 77,89 81,89 85,89 89,88 93,87 97,87 102,87 106,87 110,88 114,88 118,88 122,88 126,87 130,87 134,86 138,85 143,86 147,86 151,87 155,87 159,87 163,86 167,86 171,86 175,86 179,84 184,83 188,81 192,81 196,79 200,78 204,77 208,73 212,77 216,83 220,89 224,92 228,92 232,92 237,90 241,92 245,91 249,91 253,92 257,92 261,92 265,92 269,92 273,92 277,92 281,92 286,92 290,92 294,92 298,92 302,92 306,92 310,92 314,92 318,92 322,92 327,92 331,92 335,92 339,92 343,92 347,91 351,91 355,92 359,92 363,89 367,92 371,91 375,92 380,92 384,88 388,84 392,90 396,92 400,92 404,92 408,88 412,88 416,92 419,92 419,100 0,100" fill="url(#grad)" stroke="none" />
<polyline points="0,89 4,89 8,89 12,89 16,89 20,89 24,89 28,90 32,90 36,90 40,89 44,89 48,89 52,89 57,89 61,90 65,90 69,90 73,90 77,89 81,89 85,89 89,88 93,87 97,87 102,87 106,87 110,88 114,88 118,88 122,88 126,87 130,87 134,86 138,85 143,86 147,86 151,87 155,87 159,87 163,86 167,86 171,86 175,86 179,84 184,83 188,81 192,81 196,79 200,78 204,77 208,73 212,77 216,83 220,89 224,92 228,92 232,92 237,90 241,92 245,91 249,91 253,92 257,92 261,92 265,92 269,92 273,92 277,92 281,92 286,92 290,92 294,92 298,92 302,92 306,92 310,92 314,92 318,92 322,92 327,92 331,92 335,92 339,92 343,92 347,91 351,91 355,92 359,92 363,89 367,92 371,91 375,92 380,92 384,88 388,84 392,90 396,92 400,92 404,92 408,88 412,88 416,92 419,92" stroke="#2963da" fill="none" stroke-width="3" stroke-linejoin="round" stroke-linecap="round" />
</svg>