<svg width="419" height="100" viewBox="0 0 419 100" xmlns="http://www.w3.org/2000/svg" xmlns:xlink="http://www.w3.org/1999/xlink"><defs>
<linearGradient id="grad" x1="0%" y1="0%" x2="0%" y2="100%">
<stop offset="0%" stop-color="#2963da" stop-opacity="0.40"/>
<stop offset="100%" stop-color="#070720" stop-opacity="0.20"/>
</linearGradient>
</defs>
<rect x="0" y="0" width="419" height="100" fill="none" />
<polygon points="0,82 4,82 8,83 12,84 16,84 20,83 24,83 29,82 33,80 37,78 41,78 45,76 49,78 53,82 57,82 62,82 66,84 70,83 74,84 78,85 83,86 87,85 91,86 95,87 99,86 103,87 107,88 111,88 116,89 120,89 124,89 128,89 132,88 136,88 140,87 144,85 148,84 152,88 157,88 161,89 165,89 169,90 174,90 178,90 182,90 186,90 190,89 194,89 199,90 203,91 207,90 211,90 215,88 219,85 223,80 227,84 231,86 236,86 240,89 244,90 248,89 252,86 256,83 260,86 264,89 268,92 273,92 277,92 281,92 285,92 289,91 293,90 297,91 301,90 306,85 310,86 314,90 318,87 322,85 326,84 330,83 334,83 339,81 343,81 347,80 351,83 355,87 359,90 363,92 367,92 372,92 376,88 380,83 384,81 388,82 392,83 396,86 400,89 405,92 409,92 413,90 417,92 419,92 419,100 0,100" fill="url(#grad)" stroke="none" />
<polyline points="0,82 4,82 8,83 12,84 16,84 20,83 24,83 29,82 33,80 37,78 41,78 45,76 49,78 53,82 57,82 62,82 66,84 70,83 74,84 78,85 83,86 87,85 91,86 95,87 99,86 103,87 107,88 111,88 116,89 120,89 124,89 128,89 132,88 136,88 140,87 144,85 148,84 152,88 157,88 161,89 165,89 169,90 174,90 178,90 182,90 186,90 190,89 194,89 199,90 203,91 207,90 211,90 215,88 219,85 223,80 227,84 231,86 236,86 240,89 244,90 248,89 252,86 256,83 260,86 264,89 268,92 273,92 277,92 281,92 285,92 289,91 293,90 297,91 301,90 306,85 310,86 314,90 318,87 322,85 326,84 330,83 334,83 339,81 343,81 347,80 351,83 355,87 359,90 363,92 367,92 372,92 376,88 380,83 384,81 388,82 392,83 396,86 400,89 405,92 409,92 413,90 417,92 419,92" stroke="#2963da" fill="none" stroke-width="3" stroke-linejoin="round" stroke-linecap="round" />
</svg>