<svg width="419" height="100" viewBox="0 0 419 100" xmlns="http://www.w3.org/2000/svg" xmlns:xlink="http://www.w3.org/1999/xlink"><defs>
<linearGradient id="grad" x1="0%" y1="0%" x2="0%" y2="100%">
<stop offset="0%" stop-color="#2963da" stop-opacity="0.40"/>
<stop offset="100%" stop-color="#070720" stop-opacity="0.20"/>
</linearGradient>
</defs>
<rect x="0" y="0" width="419" height="100" fill="none" />
<polygon points="0,92 4,92 8,91 12,91 16,90 20,90 24,90 28,89 32,89 36,88 40,85 44,86 49,88 53,89 57,90 61,90 65,90 69,92 73,91 77,92 81,91 85,91 89,90 93,90 97,89 101,89 106,88 110,87 114,87 118,84 122,83 126,86 130,85 134,82 138,81 142,86 146,88 150,85 154,87 158,84 163,83 167,82 171,84 175,85 179,84 183,86 187,85 191,85 195,85 199,84 203,84 208,83 212,80 216,76 220,72 225,70 229,69 233,70 237,70 241,68 245,70 249,70 254,70 258,72 262,77 266,78 270,81 274,82 278,83 282,83 287,84 291,84 295,85 299,86 303,87 307,88 311,87 315,86 319,85 323,82 327,78 331,73 335,79 339,83 343,88 347,87 352,85 356,87 360,88 364,89 368,90 372,90 376,90 380,91 384,91 388,91 392,92 396,92 400,88 404,90 408,90 412,92 416,92 419,89 419,100 0,100" fill="url(#grad)" stroke="none" />
<polyline points="0,92 4,92 8,91 12,91 16,90 20,90 24,90 28,89 32,89 36,88 40,85 44,86 49,88 53,89 57,90 61,90 65,90 69,92 73,91 77,92 81,91 85,91 89,90 93,90 97,89 101,89 106,88 110,87 114,87 118,84 122,83 126,86 130,85 134,82 138,81 142,86 146,88 150,85 154,87 158,84 163,83 167,82 171,84 175,85 179,84 183,86 187,85 191,85 195,85 199,84 203,84 208,83 212,80 216,76 220,72 225,70 229,69 233,70 237,70 241,68 245,70 249,70 254,70 258,72 262,77 266,78 270,81 274,82 278,83 282,83 287,84 291,84 295,85 299,86 303,87 307,88 311,87 315,86 319,85 323,82 327,78 331,73 335,79 339,83 343,88 347,87 352,85 356,87 360,88 364,89 368,90 372,90 376,90 380,91 384,91 388,91 392,92 396,92 400,88 404,90 408,90 412,92 416,92 419,89" stroke="#2963da" fill="none" stroke-width="3" stroke-linejoin="round" stroke-linecap="round" />
</svg>