<svg width="419" height="100" viewBox="0 0 419 100" xmlns="http://www.w3.org/2000/svg" xmlns:xlink="http://www.w3.org/1999/xlink"><defs>
<linearGradient id="grad" x1="0%" y1="0%" x2="0%" y2="100%">
<stop offset="0%" stop-color="#2963da" stop-opacity="0.40"/>
<stop offset="100%" stop-color="#070720" stop-opacity="0.20"/>
</linearGradient>
</defs>
<rect x="0" y="0" width="419" height="100" fill="none" />
<polygon points="0,92 4,92 8,91 12,91 16,91 20,92 24,92 29,91 33,91 37,91 42,91 47,91 52,91 56,91 60,92 64,92 68,92 73,92 77,92 81,92 87,92 93,92 97,92 102,92 106,92 111,92 115,92 119,92 123,92 128,92 135,92 141,92 146,92 150,92 154,92 158,92 163,92 170,92 176,92 180,92 185,92 190,92 194,92 198,92 211,92 215,92 219,92 224,92 228,91 232,91 236,91 240,90 245,90 250,90 254,89 258,89 262,89 269,89 273,89 277,88 283,88 287,88 295,88 300,88 304,89 308,89 313,89 317,90 321,90 325,90 330,91 335,91 339,92 343,92 348,92 354,92 359,92 363,92 367,92 371,92 376,92 380,92 385,92 390,92 394,92 399,92 404,91 408,92 412,92 416,92 419,92 419,100 0,100" fill="url(#grad)" stroke="none" />
<polyline points="0,92 4,92 8,91 12,91 16,91 20,92 24,92 29,91 33,91 37,91 42,91 47,91 52,91 56,91 60,92 64,92 68,92 73,92 77,92 81,92 87,92 93,92 97,92 102,92 106,92 111,92 115,92 119,92 123,92 128,92 135,92 141,92 146,92 150,92 154,92 158,92 163,92 170,92 176,92 180,92 185,92 190,92 194,92 198,92 211,92 215,92 219,92 224,92 228,91 232,91 236,91 240,90 245,90 250,90 254,89 258,89 262,89 269,89 273,89 277,88 283,88 287,88 295,88 300,88 304,89 308,89 313,89 317,90 321,90 325,90 330,91 335,91 339,92 343,92 348,92 354,92 359,92 363,92 367,92 371,92 376,92 380,92 385,92 390,92 394,92 399,92 404,91 408,92 412,92 416,92 419,92" stroke="#2963da" fill="none" stroke-width="3" stroke-linejoin="round" stroke-linecap="round" />
</svg>