<svg width="419" height="100" viewBox="0 0 419 100" xmlns="http://www.w3.org/2000/svg" xmlns:xlink="http://www.w3.org/1999/xlink"><defs>
<linearGradient id="grad" x1="0%" y1="0%" x2="0%" y2="100%">
<stop offset="0%" stop-color="#2963da" stop-opacity="0.40"/>
<stop offset="100%" stop-color="#070720" stop-opacity="0.20"/>
</linearGradient>
</defs>
<rect x="0" y="0" width="419" height="100" fill="none" />
<polygon points="0,90 4,90 8,90 12,90 16,89 20,89 25,90 29,89 33,89 37,89 41,90 45,90 51,90 55,89 59,89 63,89 67,88 71,87 75,86 80,86 86,86 91,86 95,86 100,88 104,87 108,86 113,86 117,86 121,88 125,86 130,87 134,85 138,86 144,87 148,88 152,89 157,89 161,89 165,87 169,85 173,86 177,86 182,88 186,88 190,87 194,88 200,88 204,87 208,88 214,89 218,88 223,88 227,87 232,88 237,88 241,90 245,92 249,92 253,89 258,88 262,87 266,87 270,87 274,88 278,87 283,87 287,87 291,91 296,92 300,91 304,88 309,87 313,87 317,87 321,89 325,88 330,88 334,90 338,92 342,92 346,92 350,89 355,87 359,87 363,88 367,90 371,87 375,88 379,92 383,92 387,90 392,88 396,88 400,92 404,91 408,87 412,89 416,92 419,91 419,100 0,100" fill="url(#grad)" stroke="none" />
<polyline points="0,90 4,90 8,90 12,90 16,89 20,89 25,90 29,89 33,89 37,89 41,90 45,90 51,90 55,89 59,89 63,89 67,88 71,87 75,86 80,86 86,86 91,86 95,86 100,88 104,87 108,86 113,86 117,86 121,88 125,86 130,87 134,85 138,86 144,87 148,88 152,89 157,89 161,89 165,87 169,85 173,86 177,86 182,88 186,88 190,87 194,88 200,88 204,87 208,88 214,89 218,88 223,88 227,87 232,88 237,88 241,90 245,92 249,92 253,89 258,88 262,87 266,87 270,87 274,88 278,87 283,87 287,87 291,91 296,92 300,91 304,88 309,87 313,87 317,87 321,89 325,88 330,88 334,90 338,92 342,92 346,92 350,89 355,87 359,87 363,88 367,90 371,87 375,88 379,92 383,92 387,90 392,88 396,88 400,92 404,91 408,87 412,89 416,92 419,91" stroke="#2963da" fill="none" stroke-width="3" stroke-linejoin="round" stroke-linecap="round" />
</svg>