<svg width="419" height="100" viewBox="0 0 419 100" xmlns="http://www.w3.org/2000/svg" xmlns:xlink="http://www.w3.org/1999/xlink"><defs>
<linearGradient id="grad" x1="0%" y1="0%" x2="0%" y2="100%">
<stop offset="0%" stop-color="#2963da" stop-opacity="0.40"/>
<stop offset="100%" stop-color="#070720" stop-opacity="0.20"/>
</linearGradient>
</defs>
<rect x="0" y="0" width="419" height="100" fill="none" />
<polygon points="0,80 4,81 8,82 12,82 16,81 20,80 24,80 28,80 32,78 36,76 40,78 44,79 48,80 52,81 56,80 60,81 64,81 68,81 72,81 76,81 80,81 84,80 89,80 93,80 97,80 101,80 105,79 109,79 113,79 117,78 121,78 125,75 129,76 133,77 137,77 141,76 145,75 149,75 153,76 157,76 161,74 165,74 169,76 174,78 178,81 182,82 186,83 190,84 194,85 198,85 202,84 206,83 210,82 214,79 218,76 222,74 226,73 230,74 234,74 238,77 242,76 246,75 250,75 255,76 259,76 263,77 267,76 271,76 275,78 279,80 283,83 287,87 291,90 295,92 299,92 303,91 307,91 311,90 315,91 319,92 323,92 328,91 332,89 336,87 340,87 344,90 348,92 352,92 356,92 360,91 364,91 368,92 372,92 376,92 380,91 384,91 388,91 392,91 396,91 400,90 405,90 409,90 413,90 417,88 419,87 419,100 0,100" fill="url(#grad)" stroke="none" />
<polyline points="0,80 4,81 8,82 12,82 16,81 20,80 24,80 28,80 32,78 36,76 40,78 44,79 48,80 52,81 56,80 60,81 64,81 68,81 72,81 76,81 80,81 84,80 89,80 93,80 97,80 101,80 105,79 109,79 113,79 117,78 121,78 125,75 129,76 133,77 137,77 141,76 145,75 149,75 153,76 157,76 161,74 165,74 169,76 174,78 178,81 182,82 186,83 190,84 194,85 198,85 202,84 206,83 210,82 214,79 218,76 222,74 226,73 230,74 234,74 238,77 242,76 246,75 250,75 255,76 259,76 263,77 267,76 271,76 275,78 279,80 283,83 287,87 291,90 295,92 299,92 303,91 307,91 311,90 315,91 319,92 323,92 328,91 332,89 336,87 340,87 344,90 348,92 352,92 356,92 360,91 364,91 368,92 372,92 376,92 380,91 384,91 388,91 392,91 396,91 400,90 405,90 409,90 413,90 417,88 419,87" stroke="#2963da" fill="none" stroke-width="3" stroke-linejoin="round" stroke-linecap="round" />
</svg>