<svg width="419" height="100" viewBox="0 0 419 100" xmlns="http://www.w3.org/2000/svg" xmlns:xlink="http://www.w3.org/1999/xlink"><defs>
<linearGradient id="grad" x1="0%" y1="0%" x2="0%" y2="100%">
<stop offset="0%" stop-color="#2963da" stop-opacity="0.40"/>
<stop offset="100%" stop-color="#070720" stop-opacity="0.20"/>
</linearGradient>
</defs>
<rect x="0" y="0" width="419" height="100" fill="none" />
<polygon points="0,91 4,92 8,92 12,92 16,92 21,92 25,92 29,92 33,92 37,92 41,92 45,92 49,92 54,92 58,92 62,92 66,92 70,92 75,91 79,91 83,91 87,90 91,90 95,87 99,89 103,90 107,90 111,88 115,88 119,90 124,90 128,91 132,92 136,92 140,92 144,92 148,92 153,92 157,92 161,92 167,92 171,92 175,92 180,92 184,92 188,92 192,92 196,92 201,92 205,92 210,92 214,92 218,92 222,92 226,92 231,91 235,90 239,88 243,89 247,91 251,92 255,90 259,89 263,91 267,92 271,92 275,92 280,92 284,91 288,90 292,90 296,92 300,91 304,91 308,91 313,91 317,88 322,91 326,92 330,92 335,92 339,92 344,92 348,92 352,92 356,92 360,92 364,92 369,92 373,92 377,92 382,92 386,92 390,92 394,92 398,92 402,92 406,92 411,92 415,92 419,92 419,100 0,100" fill="url(#grad)" stroke="none" />
<polyline points="0,91 4,92 8,92 12,92 16,92 21,92 25,92 29,92 33,92 37,92 41,92 45,92 49,92 54,92 58,92 62,92 66,92 70,92 75,91 79,91 83,91 87,90 91,90 95,87 99,89 103,90 107,90 111,88 115,88 119,90 124,90 128,91 132,92 136,92 140,92 144,92 148,92 153,92 157,92 161,92 167,92 171,92 175,92 180,92 184,92 188,92 192,92 196,92 201,92 205,92 210,92 214,92 218,92 222,92 226,92 231,91 235,90 239,88 243,89 247,91 251,92 255,90 259,89 263,91 267,92 271,92 275,92 280,92 284,91 288,90 292,90 296,92 300,91 304,91 308,91 313,91 317,88 322,91 326,92 330,92 335,92 339,92 344,92 348,92 352,92 356,92 360,92 364,92 369,92 373,92 377,92 382,92 386,92 390,92 394,92 398,92 402,92 406,92 411,92 415,92 419,92" stroke="#2963da" fill="none" stroke-width="3" stroke-linejoin="round" stroke-linecap="round" />
</svg>