<svg width="419" height="100" viewBox="0 0 419 100" xmlns="http://www.w3.org/2000/svg" xmlns:xlink="http://www.w3.org/1999/xlink"><defs>
<linearGradient id="grad" x1="0%" y1="0%" x2="0%" y2="100%">
<stop offset="0%" stop-color="#2963da" stop-opacity="0.40"/>
<stop offset="100%" stop-color="#070720" stop-opacity="0.20"/>
</linearGradient>
</defs>
<rect x="0" y="0" width="419" height="100" fill="none" />
<polygon points="0,92 4,92 8,92 14,92 18,92 22,92 26,92 30,92 34,92 39,92 44,92 48,91 53,91 57,91 62,90 66,90 70,89 75,89 79,89 83,88 87,87 91,87 95,86 100,86 104,85 109,85 113,85 117,85 121,84 125,84 130,84 134,84 139,83 144,83 148,83 153,82 157,82 161,82 167,81 172,81 176,81 182,81 186,80 190,80 194,80 199,80 204,80 208,80 213,80 217,79 222,79 226,78 231,78 235,77 239,77 243,77 247,76 252,76 256,76 260,75 264,75 268,74 273,74 279,74 283,73 288,73 292,72 296,72 300,72 305,71 309,71 313,70 318,70 322,70 328,69 333,69 337,68 342,68 348,68 353,67 358,67 364,66 369,65 374,64 378,64 383,64 387,63 391,63 396,62 401,62 405,62 409,62 414,61 419,61 419,100 0,100" fill="url(#grad)" stroke="none" />
<polyline points="0,92 4,92 8,92 14,92 18,92 22,92 26,92 30,92 34,92 39,92 44,92 48,91 53,91 57,91 62,90 66,90 70,89 75,89 79,89 83,88 87,87 91,87 95,86 100,86 104,85 109,85 113,85 117,85 121,84 125,84 130,84 134,84 139,83 144,83 148,83 153,82 157,82 161,82 167,81 172,81 176,81 182,81 186,80 190,80 194,80 199,80 204,80 208,80 213,80 217,79 222,79 226,78 231,78 235,77 239,77 243,77 247,76 252,76 256,76 260,75 264,75 268,74 273,74 279,74 283,73 288,73 292,72 296,72 300,72 305,71 309,71 313,70 318,70 322,70 328,69 333,69 337,68 342,68 348,68 353,67 358,67 364,66 369,65 374,64 378,64 383,64 387,63 391,63 396,62 401,62 405,62 409,62 414,61 419,61" stroke="#2963da" fill="none" stroke-width="3" stroke-linejoin="round" stroke-linecap="round" />
</svg>