<svg width="419" height="100" viewBox="0 0 419 100" xmlns="http://www.w3.org/2000/svg" xmlns:xlink="http://www.w3.org/1999/xlink"><defs>
<linearGradient id="grad" x1="0%" y1="0%" x2="0%" y2="100%">
<stop offset="0%" stop-color="#2963da" stop-opacity="0.40"/>
<stop offset="100%" stop-color="#070720" stop-opacity="0.20"/>
</linearGradient>
</defs>
<rect x="0" y="0" width="419" height="100" fill="none" />
<polygon points="0,92 4,92 8,92 12,92 16,91 20,90 24,90 28,90 32,92 36,91 40,91 44,91 48,92 52,92 56,92 60,91 64,89 68,89 72,88 76,89 80,89 84,90 89,92 93,92 97,90 101,90 105,91 109,92 113,92 117,91 121,90 125,91 129,90 133,89 137,87 141,85 145,83 149,80 153,78 157,80 161,83 166,85 170,86 174,88 178,91 182,90 186,88 190,85 194,84 198,84 202,86 206,84 210,86 214,89 218,90 222,91 226,92 230,92 234,92 238,91 242,90 247,89 251,88 255,87 259,84 263,83 267,82 271,82 275,82 279,82 283,83 287,85 291,88 295,87 299,88 303,88 307,87 311,88 315,90 319,91 323,91 327,91 331,91 336,91 340,91 344,91 348,90 352,89 356,88 360,89 364,89 368,90 372,89 376,90 380,89 384,88 388,88 392,90 396,91 400,92 404,91 409,91 413,91 417,91 419,90 419,100 0,100" fill="url(#grad)" stroke="none" />
<polyline points="0,92 4,92 8,92 12,92 16,91 20,90 24,90 28,90 32,92 36,91 40,91 44,91 48,92 52,92 56,92 60,91 64,89 68,89 72,88 76,89 80,89 84,90 89,92 93,92 97,90 101,90 105,91 109,92 113,92 117,91 121,90 125,91 129,90 133,89 137,87 141,85 145,83 149,80 153,78 157,80 161,83 166,85 170,86 174,88 178,91 182,90 186,88 190,85 194,84 198,84 202,86 206,84 210,86 214,89 218,90 222,91 226,92 230,92 234,92 238,91 242,90 247,89 251,88 255,87 259,84 263,83 267,82 271,82 275,82 279,82 283,83 287,85 291,88 295,87 299,88 303,88 307,87 311,88 315,90 319,91 323,91 327,91 331,91 336,91 340,91 344,91 348,90 352,89 356,88 360,89 364,89 368,90 372,89 376,90 380,89 384,88 388,88 392,90 396,91 400,92 404,91 409,91 413,91 417,91 419,90" stroke="#2963da" fill="none" stroke-width="3" stroke-linejoin="round" stroke-linecap="round" />
</svg>