<svg width="419" height="100" viewBox="0 0 419 100" xmlns="http://www.w3.org/2000/svg" xmlns:xlink="http://www.w3.org/1999/xlink"><defs>
<linearGradient id="grad" x1="0%" y1="0%" x2="0%" y2="100%">
<stop offset="0%" stop-color="#2963da" stop-opacity="0.40"/>
<stop offset="100%" stop-color="#070720" stop-opacity="0.20"/>
</linearGradient>
</defs>
<rect x="0" y="0" width="419" height="100" fill="none" />
<polygon points="0,91 4,91 8,91 12,90 16,90 20,90 24,89 29,89 33,89 37,89 41,88 45,88 50,88 54,88 58,88 63,88 67,88 71,88 76,88 80,88 84,88 88,88 92,88 97,88 101,88 105,88 109,88 113,88 117,88 121,88 126,87 130,87 134,87 138,88 143,88 147,88 151,88 156,88 160,88 165,89 169,89 174,89 178,89 183,89 187,89 191,89 195,89 200,89 204,89 209,89 213,89 218,90 222,90 226,90 231,90 235,90 239,90 243,90 248,90 253,90 257,90 261,90 265,90 269,91 274,91 278,91 282,91 286,91 291,91 295,91 299,91 304,92 308,92 312,92 317,91 321,91 325,91 330,92 334,92 338,92 342,92 346,92 350,92 355,92 359,92 364,92 369,92 373,92 377,92 382,92 386,92 390,92 394,92 398,92 403,92 407,92 411,92 416,92 419,92 419,100 0,100" fill="url(#grad)" stroke="none" />
<polyline points="0,91 4,91 8,91 12,90 16,90 20,90 24,89 29,89 33,89 37,89 41,88 45,88 50,88 54,88 58,88 63,88 67,88 71,88 76,88 80,88 84,88 88,88 92,88 97,88 101,88 105,88 109,88 113,88 117,88 121,88 126,87 130,87 134,87 138,88 143,88 147,88 151,88 156,88 160,88 165,89 169,89 174,89 178,89 183,89 187,89 191,89 195,89 200,89 204,89 209,89 213,89 218,90 222,90 226,90 231,90 235,90 239,90 243,90 248,90 253,90 257,90 261,90 265,90 269,91 274,91 278,91 282,91 286,91 291,91 295,91 299,91 304,92 308,92 312,92 317,91 321,91 325,91 330,92 334,92 338,92 342,92 346,92 350,92 355,92 359,92 364,92 369,92 373,92 377,92 382,92 386,92 390,92 394,92 398,92 403,92 407,92 411,92 416,92 419,92" stroke="#2963da" fill="none" stroke-width="3" stroke-linejoin="round" stroke-linecap="round" />
</svg>