<svg width="419" height="100" viewBox="0 0 419 100" xmlns="http://www.w3.org/2000/svg" xmlns:xlink="http://www.w3.org/1999/xlink"><defs>
<linearGradient id="grad" x1="0%" y1="0%" x2="0%" y2="100%">
<stop offset="0%" stop-color="#2963da" stop-opacity="0.40"/>
<stop offset="100%" stop-color="#070720" stop-opacity="0.20"/>
</linearGradient>
</defs>
<rect x="0" y="0" width="419" height="100" fill="none" />
<polygon points="0,87 4,85 8,83 12,80 16,77 20,74 24,71 29,68 33,65 37,67 41,68 45,66 49,66 53,64 57,64 61,68 65,72 69,75 73,78 77,81 82,82 86,83 90,83 94,84 98,84 102,85 106,86 110,87 114,88 118,90 122,91 126,92 130,92 135,89 139,86 143,82 147,79 151,77 155,76 159,75 163,75 167,77 171,80 175,83 179,85 183,86 187,83 191,81 195,79 199,80 203,78 207,80 212,77 216,74 220,70 224,65 228,60 232,56 236,52 240,53 244,53 248,53 252,54 256,60 260,63 264,63 268,63 272,62 276,60 281,60 285,60 289,61 293,65 297,68 301,72 305,75 309,79 313,81 317,84 321,86 325,86 330,87 334,87 338,87 342,87 346,87 351,85 355,86 359,86 363,87 367,87 371,87 376,87 380,87 384,85 388,86 392,87 396,87 400,87 405,87 409,87 413,86 417,85 419,86 419,100 0,100" fill="url(#grad)" stroke="none" />
<polyline points="0,87 4,85 8,83 12,80 16,77 20,74 24,71 29,68 33,65 37,67 41,68 45,66 49,66 53,64 57,64 61,68 65,72 69,75 73,78 77,81 82,82 86,83 90,83 94,84 98,84 102,85 106,86 110,87 114,88 118,90 122,91 126,92 130,92 135,89 139,86 143,82 147,79 151,77 155,76 159,75 163,75 167,77 171,80 175,83 179,85 183,86 187,83 191,81 195,79 199,80 203,78 207,80 212,77 216,74 220,70 224,65 228,60 232,56 236,52 240,53 244,53 248,53 252,54 256,60 260,63 264,63 268,63 272,62 276,60 281,60 285,60 289,61 293,65 297,68 301,72 305,75 309,79 313,81 317,84 321,86 325,86 330,87 334,87 338,87 342,87 346,87 351,85 355,86 359,86 363,87 367,87 371,87 376,87 380,87 384,85 388,86 392,87 396,87 400,87 405,87 409,87 413,86 417,85 419,86" stroke="#2963da" fill="none" stroke-width="3" stroke-linejoin="round" stroke-linecap="round" />
</svg>