<svg width="419" height="100" viewBox="0 0 419 100" xmlns="http://www.w3.org/2000/svg" xmlns:xlink="http://www.w3.org/1999/xlink"><defs>
<linearGradient id="grad" x1="0%" y1="0%" x2="0%" y2="100%">
<stop offset="0%" stop-color="#2963da" stop-opacity="0.40"/>
<stop offset="100%" stop-color="#070720" stop-opacity="0.20"/>
</linearGradient>
</defs>
<rect x="0" y="0" width="419" height="100" fill="none" />
<polygon points="0,90 4,88 8,87 12,86 16,85 20,85 24,84 28,86 32,84 36,88 41,88 45,88 49,89 53,90 57,90 61,91 65,88 69,91 74,92 78,92 82,92 86,92 90,92 94,92 98,92 102,92 107,92 111,92 115,92 119,92 123,92 127,92 132,92 136,92 140,92 144,92 148,92 153,92 157,92 161,92 165,92 169,92 173,92 177,92 181,92 185,92 190,92 194,92 198,92 202,92 206,92 210,92 214,92 218,92 222,92 226,92 230,92 235,92 239,92 243,92 247,92 251,92 255,92 259,92 264,92 268,88 272,87 276,84 280,82 284,80 288,79 292,82 296,84 301,88 305,89 309,87 313,83 317,81 321,80 325,83 330,86 334,89 338,91 342,89 346,86 350,86 354,85 358,85 362,88 366,90 371,91 375,92 379,92 383,92 387,92 391,91 395,87 399,84 403,87 407,89 412,84 416,83 419,81 419,100 0,100" fill="url(#grad)" stroke="none" />
<polyline points="0,90 4,88 8,87 12,86 16,85 20,85 24,84 28,86 32,84 36,88 41,88 45,88 49,89 53,90 57,90 61,91 65,88 69,91 74,92 78,92 82,92 86,92 90,92 94,92 98,92 102,92 107,92 111,92 115,92 119,92 123,92 127,92 132,92 136,92 140,92 144,92 148,92 153,92 157,92 161,92 165,92 169,92 173,92 177,92 181,92 185,92 190,92 194,92 198,92 202,92 206,92 210,92 214,92 218,92 222,92 226,92 230,92 235,92 239,92 243,92 247,92 251,92 255,92 259,92 264,92 268,88 272,87 276,84 280,82 284,80 288,79 292,82 296,84 301,88 305,89 309,87 313,83 317,81 321,80 325,83 330,86 334,89 338,91 342,89 346,86 350,86 354,85 358,85 362,88 366,90 371,91 375,92 379,92 383,92 387,92 391,91 395,87 399,84 403,87 407,89 412,84 416,83 419,81" stroke="#2963da" fill="none" stroke-width="3" stroke-linejoin="round" stroke-linecap="round" />
</svg>