<svg width="419" height="100" viewBox="0 0 419 100" xmlns="http://www.w3.org/2000/svg" xmlns:xlink="http://www.w3.org/1999/xlink"><defs>
<linearGradient id="grad" x1="0%" y1="0%" x2="0%" y2="100%">
<stop offset="0%" stop-color="#2963da" stop-opacity="0.40"/>
<stop offset="100%" stop-color="#070720" stop-opacity="0.20"/>
</linearGradient>
</defs>
<rect x="0" y="0" width="419" height="100" fill="none" />
<polygon points="0,90 4,89 8,88 12,85 16,82 20,78 24,75 28,71 32,69 36,64 41,62 45,62 49,56 53,53 57,51 61,50 65,51 69,52 73,55 78,58 82,63 86,63 90,67 94,72 98,76 102,80 106,85 111,88 115,92 119,92 123,92 127,92 131,92 135,92 139,92 144,92 148,90 152,89 156,86 160,83 164,82 168,82 172,80 176,82 181,79 185,78 189,74 193,69 197,68 201,68 205,71 209,75 214,77 218,81 222,83 226,83 230,82 234,85 238,83 242,80 246,76 250,72 254,67 258,65 263,63 267,66 271,66 275,64 279,60 283,57 287,52 292,51 296,54 300,58 304,61 308,65 312,67 316,71 320,73 324,77 328,80 333,83 337,87 341,87 345,88 349,88 353,88 357,88 361,90 366,89 370,86 374,84 378,81 382,76 386,72 391,68 395,65 399,62 403,59 407,54 411,52 415,47 419,44 419,100 0,100" fill="url(#grad)" stroke="none" />
<polyline points="0,90 4,89 8,88 12,85 16,82 20,78 24,75 28,71 32,69 36,64 41,62 45,62 49,56 53,53 57,51 61,50 65,51 69,52 73,55 78,58 82,63 86,63 90,67 94,72 98,76 102,80 106,85 111,88 115,92 119,92 123,92 127,92 131,92 135,92 139,92 144,92 148,90 152,89 156,86 160,83 164,82 168,82 172,80 176,82 181,79 185,78 189,74 193,69 197,68 201,68 205,71 209,75 214,77 218,81 222,83 226,83 230,82 234,85 238,83 242,80 246,76 250,72 254,67 258,65 263,63 267,66 271,66 275,64 279,60 283,57 287,52 292,51 296,54 300,58 304,61 308,65 312,67 316,71 320,73 324,77 328,80 333,83 337,87 341,87 345,88 349,88 353,88 357,88 361,90 366,89 370,86 374,84 378,81 382,76 386,72 391,68 395,65 399,62 403,59 407,54 411,52 415,47 419,44" stroke="#2963da" fill="none" stroke-width="3" stroke-linejoin="round" stroke-linecap="round" />
</svg>