<svg width="419" height="100" viewBox="0 0 419 100" xmlns="http://www.w3.org/2000/svg" xmlns:xlink="http://www.w3.org/1999/xlink"><defs>
<linearGradient id="grad" x1="0%" y1="0%" x2="0%" y2="100%">
<stop offset="0%" stop-color="#2963da" stop-opacity="0.40"/>
<stop offset="100%" stop-color="#070720" stop-opacity="0.20"/>
</linearGradient>
</defs>
<rect x="0" y="0" width="419" height="100" fill="none" />
<polygon points="0,92 4,92 8,92 12,91 16,91 20,91 24,91 28,91 32,92 36,91 40,91 44,91 48,91 52,92 56,91 60,91 64,92 68,92 72,92 76,92 80,92 84,92 88,92 92,92 96,92 100,92 105,92 109,90 113,90 117,89 121,89 125,88 129,88 133,88 137,87 141,87 145,86 149,86 153,86 157,87 161,87 165,87 169,88 173,88 177,86 181,83 185,79 189,78 194,83 198,87 202,89 206,89 210,89 214,88 218,88 222,88 226,87 230,88 234,87 238,86 242,85 246,84 250,83 254,79 258,81 262,81 266,79 270,77 274,72 278,67 282,70 286,75 291,80 295,82 299,83 303,84 307,85 311,86 315,86 319,87 323,87 327,88 331,88 335,88 339,88 343,87 347,89 351,90 355,91 359,91 363,91 367,91 371,91 375,91 380,90 384,91 388,91 392,90 396,91 400,91 404,91 408,91 412,92 416,91 419,90 419,100 0,100" fill="url(#grad)" stroke="none" />
<polyline points="0,92 4,92 8,92 12,91 16,91 20,91 24,91 28,91 32,92 36,91 40,91 44,91 48,91 52,92 56,91 60,91 64,92 68,92 72,92 76,92 80,92 84,92 88,92 92,92 96,92 100,92 105,92 109,90 113,90 117,89 121,89 125,88 129,88 133,88 137,87 141,87 145,86 149,86 153,86 157,87 161,87 165,87 169,88 173,88 177,86 181,83 185,79 189,78 194,83 198,87 202,89 206,89 210,89 214,88 218,88 222,88 226,87 230,88 234,87 238,86 242,85 246,84 250,83 254,79 258,81 262,81 266,79 270,77 274,72 278,67 282,70 286,75 291,80 295,82 299,83 303,84 307,85 311,86 315,86 319,87 323,87 327,88 331,88 335,88 339,88 343,87 347,89 351,90 355,91 359,91 363,91 367,91 371,91 375,91 380,90 384,91 388,91 392,90 396,91 400,91 404,91 408,91 412,92 416,91 419,90" stroke="#2963da" fill="none" stroke-width="3" stroke-linejoin="round" stroke-linecap="round" />
</svg>