<svg width="419" height="100" viewBox="0 0 419 100" xmlns="http://www.w3.org/2000/svg" xmlns:xlink="http://www.w3.org/1999/xlink"><defs>
<linearGradient id="grad" x1="0%" y1="0%" x2="0%" y2="100%">
<stop offset="0%" stop-color="#2963da" stop-opacity="0.40"/>
<stop offset="100%" stop-color="#070720" stop-opacity="0.20"/>
</linearGradient>
</defs>
<rect x="0" y="0" width="419" height="100" fill="none" />
<polygon points="0,91 4,91 8,90 12,90 17,91 21,91 25,91 29,91 33,91 37,91 41,91 45,91 50,90 54,91 58,90 63,90 67,91 71,91 75,91 80,91 84,90 88,90 92,91 96,91 100,91 104,91 108,92 113,92 117,92 121,91 125,91 129,92 134,92 138,91 142,90 146,90 151,91 155,92 159,91 163,90 167,90 171,90 175,90 179,90 184,90 188,91 192,90 196,92 200,90 204,90 208,91 212,90 216,90 220,90 224,90 229,91 233,91 237,91 242,91 246,91 250,91 254,91 258,91 262,91 267,91 271,91 275,91 279,91 283,91 287,91 292,92 296,91 300,92 304,92 308,92 313,92 317,91 321,92 327,92 331,92 335,91 339,91 343,91 348,91 353,91 357,90 361,91 366,90 370,91 374,91 378,91 382,90 386,91 390,92 395,92 399,92 403,92 407,92 411,92 415,92 419,90 419,100 0,100" fill="url(#grad)" stroke="none" />
<polyline points="0,91 4,91 8,90 12,90 17,91 21,91 25,91 29,91 33,91 37,91 41,91 45,91 50,90 54,91 58,90 63,90 67,91 71,91 75,91 80,91 84,90 88,90 92,91 96,91 100,91 104,91 108,92 113,92 117,92 121,91 125,91 129,92 134,92 138,91 142,90 146,90 151,91 155,92 159,91 163,90 167,90 171,90 175,90 179,90 184,90 188,91 192,90 196,92 200,90 204,90 208,91 212,90 216,90 220,90 224,90 229,91 233,91 237,91 242,91 246,91 250,91 254,91 258,91 262,91 267,91 271,91 275,91 279,91 283,91 287,91 292,92 296,91 300,92 304,92 308,92 313,92 317,91 321,92 327,92 331,92 335,91 339,91 343,91 348,91 353,91 357,90 361,91 366,90 370,91 374,91 378,91 382,90 386,91 390,92 395,92 399,92 403,92 407,92 411,92 415,92 419,90" stroke="#2963da" fill="none" stroke-width="3" stroke-linejoin="round" stroke-linecap="round" />
</svg>