<svg width="419" height="100" viewBox="0 0 419 100" xmlns="http://www.w3.org/2000/svg" xmlns:xlink="http://www.w3.org/1999/xlink"><defs>
<linearGradient id="grad" x1="0%" y1="0%" x2="0%" y2="100%">
<stop offset="0%" stop-color="#2963da" stop-opacity="0.40"/>
<stop offset="100%" stop-color="#070720" stop-opacity="0.20"/>
</linearGradient>
</defs>
<rect x="0" y="0" width="419" height="100" fill="none" />
<polygon points="0,92 4,92 8,92 12,92 16,92 20,92 24,91 28,91 32,91 36,90 40,90 44,90 48,90 52,89 56,89 60,88 64,88 68,88 72,86 76,84 80,82 84,79 89,81 93,81 97,80 101,80 105,81 109,84 113,86 117,87 121,87 125,86 129,84 133,82 137,81 141,80 145,80 149,82 153,83 157,83 161,80 165,80 169,81 173,80 178,80 182,83 186,85 190,88 194,90 198,89 202,89 206,88 210,87 214,90 218,88 222,86 226,86 230,84 234,84 238,84 242,83 246,82 250,82 255,84 259,82 263,84 267,82 271,82 275,83 279,84 283,87 287,87 291,85 295,83 299,82 303,80 307,78 311,79 315,79 319,80 323,80 327,81 331,81 335,80 339,80 343,79 347,80 352,80 356,82 360,83 364,83 368,82 372,80 376,79 380,79 384,80 388,81 392,83 396,84 400,83 404,84 408,84 412,83 416,82 419,82 419,100 0,100" fill="url(#grad)" stroke="none" />
<polyline points="0,92 4,92 8,92 12,92 16,92 20,92 24,91 28,91 32,91 36,90 40,90 44,90 48,90 52,89 56,89 60,88 64,88 68,88 72,86 76,84 80,82 84,79 89,81 93,81 97,80 101,80 105,81 109,84 113,86 117,87 121,87 125,86 129,84 133,82 137,81 141,80 145,80 149,82 153,83 157,83 161,80 165,80 169,81 173,80 178,80 182,83 186,85 190,88 194,90 198,89 202,89 206,88 210,87 214,90 218,88 222,86 226,86 230,84 234,84 238,84 242,83 246,82 250,82 255,84 259,82 263,84 267,82 271,82 275,83 279,84 283,87 287,87 291,85 295,83 299,82 303,80 307,78 311,79 315,79 319,80 323,80 327,81 331,81 335,80 339,80 343,79 347,80 352,80 356,82 360,83 364,83 368,82 372,80 376,79 380,79 384,80 388,81 392,83 396,84 400,83 404,84 408,84 412,83 416,82 419,82" stroke="#2963da" fill="none" stroke-width="3" stroke-linejoin="round" stroke-linecap="round" />
</svg>