<svg width="419" height="100" viewBox="0 0 419 100" xmlns="http://www.w3.org/2000/svg" xmlns:xlink="http://www.w3.org/1999/xlink"><defs>
<linearGradient id="grad" x1="0%" y1="0%" x2="0%" y2="100%">
<stop offset="0%" stop-color="#2963da" stop-opacity="0.40"/>
<stop offset="100%" stop-color="#070720" stop-opacity="0.20"/>
</linearGradient>
</defs>
<rect x="0" y="0" width="419" height="100" fill="none" />
<polygon points="0,92 4,92 8,92 12,91 16,90 20,90 24,91 28,91 32,90 36,91 40,89 45,89 49,89 53,86 57,83 61,79 65,84 69,87 73,89 77,90 81,90 85,91 89,90 93,90 97,90 101,89 106,89 110,89 114,85 118,83 122,77 126,75 130,70 134,70 138,73 142,77 146,82 150,84 154,83 158,80 162,79 166,82 170,83 175,82 179,82 183,82 187,81 191,79 195,74 199,74 203,72 207,76 211,77 215,79 219,80 223,80 227,80 232,83 236,83 240,83 244,83 248,82 252,80 256,80 260,83 264,84 268,84 272,84 276,84 281,84 285,84 289,85 293,85 297,84 301,84 305,81 309,84 313,84 317,86 321,86 325,86 329,86 333,86 337,85 341,86 345,85 350,86 354,86 358,86 362,85 366,85 370,84 374,84 378,83 382,77 386,75 390,74 394,73 398,71 402,69 407,64 411,62 415,64 419,64 419,100 0,100" fill="url(#grad)" stroke="none" />
<polyline points="0,92 4,92 8,92 12,91 16,90 20,90 24,91 28,91 32,90 36,91 40,89 45,89 49,89 53,86 57,83 61,79 65,84 69,87 73,89 77,90 81,90 85,91 89,90 93,90 97,90 101,89 106,89 110,89 114,85 118,83 122,77 126,75 130,70 134,70 138,73 142,77 146,82 150,84 154,83 158,80 162,79 166,82 170,83 175,82 179,82 183,82 187,81 191,79 195,74 199,74 203,72 207,76 211,77 215,79 219,80 223,80 227,80 232,83 236,83 240,83 244,83 248,82 252,80 256,80 260,83 264,84 268,84 272,84 276,84 281,84 285,84 289,85 293,85 297,84 301,84 305,81 309,84 313,84 317,86 321,86 325,86 329,86 333,86 337,85 341,86 345,85 350,86 354,86 358,86 362,85 366,85 370,84 374,84 378,83 382,77 386,75 390,74 394,73 398,71 402,69 407,64 411,62 415,64 419,64" stroke="#2963da" fill="none" stroke-width="3" stroke-linejoin="round" stroke-linecap="round" />
</svg>