<svg width="419" height="100" viewBox="0 0 419 100" xmlns="http://www.w3.org/2000/svg" xmlns:xlink="http://www.w3.org/1999/xlink"><defs>
<linearGradient id="grad" x1="0%" y1="0%" x2="0%" y2="100%">
<stop offset="0%" stop-color="#2963da" stop-opacity="0.40"/>
<stop offset="100%" stop-color="#070720" stop-opacity="0.20"/>
</linearGradient>
</defs>
<rect x="0" y="0" width="419" height="100" fill="none" />
<polygon points="0,92 4,92 8,92 12,90 16,90 20,92 24,92 28,92 32,92 36,92 40,92 44,92 49,90 53,88 57,85 61,86 65,89 69,91 73,92 77,92 82,92 86,92 90,90 94,90 98,89 102,89 107,89 112,89 116,90 121,89 125,88 129,88 133,88 137,88 141,89 145,89 149,89 154,89 158,89 162,89 166,89 170,89 174,89 178,90 182,90 187,89 191,89 196,89 200,89 204,88 208,88 212,88 216,87 220,86 224,84 228,82 233,80 237,82 241,80 245,77 249,78 253,80 257,82 261,83 265,84 269,84 273,84 277,83 281,82 285,80 289,81 293,81 297,81 302,80 306,79 310,79 314,78 318,78 322,78 326,76 331,74 335,71 339,68 343,68 347,71 351,75 355,78 359,78 363,79 367,80 372,81 376,80 380,77 384,76 388,78 392,82 396,83 401,82 405,78 409,76 413,82 417,84 419,84 419,100 0,100" fill="url(#grad)" stroke="none" />
<polyline points="0,92 4,92 8,92 12,90 16,90 20,92 24,92 28,92 32,92 36,92 40,92 44,92 49,90 53,88 57,85 61,86 65,89 69,91 73,92 77,92 82,92 86,92 90,90 94,90 98,89 102,89 107,89 112,89 116,90 121,89 125,88 129,88 133,88 137,88 141,89 145,89 149,89 154,89 158,89 162,89 166,89 170,89 174,89 178,90 182,90 187,89 191,89 196,89 200,89 204,88 208,88 212,88 216,87 220,86 224,84 228,82 233,80 237,82 241,80 245,77 249,78 253,80 257,82 261,83 265,84 269,84 273,84 277,83 281,82 285,80 289,81 293,81 297,81 302,80 306,79 310,79 314,78 318,78 322,78 326,76 331,74 335,71 339,68 343,68 347,71 351,75 355,78 359,78 363,79 367,80 372,81 376,80 380,77 384,76 388,78 392,82 396,83 401,82 405,78 409,76 413,82 417,84 419,84" stroke="#2963da" fill="none" stroke-width="3" stroke-linejoin="round" stroke-linecap="round" />
</svg>