<svg width="419" height="100" viewBox="0 0 419 100" xmlns="http://www.w3.org/2000/svg" xmlns:xlink="http://www.w3.org/1999/xlink"><defs>
<linearGradient id="grad" x1="0%" y1="0%" x2="0%" y2="100%">
<stop offset="0%" stop-color="#2963da" stop-opacity="0.40"/>
<stop offset="100%" stop-color="#070720" stop-opacity="0.20"/>
</linearGradient>
</defs>
<rect x="0" y="0" width="419" height="100" fill="none" />
<polygon points="0,92 4,91 8,91 12,91 17,90 21,90 25,89 29,89 33,88 37,88 42,88 46,87 50,87 55,86 59,85 64,85 68,84 72,84 76,83 81,83 85,82 89,82 93,82 98,81 102,81 107,81 111,81 115,81 119,80 123,80 127,80 131,79 136,79 140,78 144,78 148,77 152,77 157,76 161,77 165,76 169,76 173,76 177,76 181,76 186,76 190,77 194,77 198,78 203,79 207,79 212,80 216,81 220,81 224,82 228,83 232,83 237,84 241,85 245,85 249,86 253,87 257,88 262,88 266,89 270,90 274,91 279,91 283,90 287,90 291,90 296,90 300,90 304,90 308,90 313,90 317,90 321,90 325,90 330,91 334,91 338,91 342,91 346,91 350,91 355,90 359,90 363,90 367,90 371,91 375,91 379,91 383,91 387,92 392,92 396,92 400,92 405,92 409,92 413,92 417,92 419,92 419,100 0,100" fill="url(#grad)" stroke="none" />
<polyline points="0,92 4,91 8,91 12,91 17,90 21,90 25,89 29,89 33,88 37,88 42,88 46,87 50,87 55,86 59,85 64,85 68,84 72,84 76,83 81,83 85,82 89,82 93,82 98,81 102,81 107,81 111,81 115,81 119,80 123,80 127,80 131,79 136,79 140,78 144,78 148,77 152,77 157,76 161,77 165,76 169,76 173,76 177,76 181,76 186,76 190,77 194,77 198,78 203,79 207,79 212,80 216,81 220,81 224,82 228,83 232,83 237,84 241,85 245,85 249,86 253,87 257,88 262,88 266,89 270,90 274,91 279,91 283,90 287,90 291,90 296,90 300,90 304,90 308,90 313,90 317,90 321,90 325,90 330,91 334,91 338,91 342,91 346,91 350,91 355,90 359,90 363,90 367,90 371,91 375,91 379,91 383,91 387,92 392,92 396,92 400,92 405,92 409,92 413,92 417,92 419,92" stroke="#2963da" fill="none" stroke-width="3" stroke-linejoin="round" stroke-linecap="round" />
</svg>