<svg width="419" height="100" viewBox="0 0 419 100" xmlns="http://www.w3.org/2000/svg" xmlns:xlink="http://www.w3.org/1999/xlink"><defs>
<linearGradient id="grad" x1="0%" y1="0%" x2="0%" y2="100%">
<stop offset="0%" stop-color="#2963da" stop-opacity="0.40"/>
<stop offset="100%" stop-color="#070720" stop-opacity="0.20"/>
</linearGradient>
</defs>
<rect x="0" y="0" width="419" height="100" fill="none" />
<polygon points="0,77 4,77 8,77 12,77 16,78 20,80 24,80 28,83 32,83 36,82 40,80 44,79 49,79 53,80 57,80 61,84 65,86 69,85 73,82 78,77 82,78 86,77 90,75 94,74 98,73 103,72 107,71 111,71 115,70 119,72 123,73 128,75 132,76 136,77 141,78 145,79 149,80 153,81 157,81 161,82 165,82 170,83 174,82 178,81 182,76 186,80 190,82 194,82 198,83 202,83 206,82 210,78 214,76 218,76 222,76 227,77 231,80 235,82 239,81 243,78 247,75 251,74 255,77 259,80 263,80 267,83 271,85 275,87 279,84 283,81 287,84 292,83 296,80 300,80 304,81 308,82 312,84 316,87 321,90 325,89 329,85 333,87 337,85 341,84 345,86 349,87 353,88 357,84 361,85 365,86 369,88 374,90 378,92 382,89 386,88 390,86 394,85 398,85 402,86 406,87 410,90 414,92 418,92 419,92 419,100 0,100" fill="url(#grad)" stroke="none" />
<polyline points="0,77 4,77 8,77 12,77 16,78 20,80 24,80 28,83 32,83 36,82 40,80 44,79 49,79 53,80 57,80 61,84 65,86 69,85 73,82 78,77 82,78 86,77 90,75 94,74 98,73 103,72 107,71 111,71 115,70 119,72 123,73 128,75 132,76 136,77 141,78 145,79 149,80 153,81 157,81 161,82 165,82 170,83 174,82 178,81 182,76 186,80 190,82 194,82 198,83 202,83 206,82 210,78 214,76 218,76 222,76 227,77 231,80 235,82 239,81 243,78 247,75 251,74 255,77 259,80 263,80 267,83 271,85 275,87 279,84 283,81 287,84 292,83 296,80 300,80 304,81 308,82 312,84 316,87 321,90 325,89 329,85 333,87 337,85 341,84 345,86 349,87 353,88 357,84 361,85 365,86 369,88 374,90 378,92 382,89 386,88 390,86 394,85 398,85 402,86 406,87 410,90 414,92 418,92 419,92" stroke="#2963da" fill="none" stroke-width="3" stroke-linejoin="round" stroke-linecap="round" />
</svg>