<svg width="419" height="100" viewBox="0 0 419 100" xmlns="http://www.w3.org/2000/svg" xmlns:xlink="http://www.w3.org/1999/xlink"><defs>
<linearGradient id="grad" x1="0%" y1="0%" x2="0%" y2="100%">
<stop offset="0%" stop-color="#2963da" stop-opacity="0.40"/>
<stop offset="100%" stop-color="#070720" stop-opacity="0.20"/>
</linearGradient>
</defs>
<rect x="0" y="0" width="419" height="100" fill="none" />
<polygon points="0,92 4,92 8,92 12,92 16,92 20,92 24,92 28,91 33,91 37,91 41,91 45,92 49,91 53,91 58,92 62,92 66,92 70,92 74,92 78,92 82,92 86,92 90,92 94,92 99,92 103,92 107,92 111,92 116,92 120,92 124,92 128,90 132,90 136,90 140,92 144,88 148,89 153,90 157,91 161,90 165,89 169,90 174,90 178,89 182,90 186,89 190,89 194,89 198,89 202,87 206,87 210,87 214,86 219,86 223,87 227,88 231,88 235,87 240,88 244,91 248,92 252,89 256,92 260,90 264,91 268,92 272,92 276,92 281,92 285,92 289,92 293,92 297,91 301,89 305,92 309,90 313,91 317,92 321,92 325,92 329,92 334,92 338,92 342,92 346,91 350,89 354,92 358,90 362,91 366,92 370,92 374,92 378,92 383,92 387,92 391,92 395,91 399,89 403,92 407,90 411,91 415,92 419,92 419,100 0,100" fill="url(#grad)" stroke="none" />
<polyline points="0,92 4,92 8,92 12,92 16,92 20,92 24,92 28,91 33,91 37,91 41,91 45,92 49,91 53,91 58,92 62,92 66,92 70,92 74,92 78,92 82,92 86,92 90,92 94,92 99,92 103,92 107,92 111,92 116,92 120,92 124,92 128,90 132,90 136,90 140,92 144,88 148,89 153,90 157,91 161,90 165,89 169,90 174,90 178,89 182,90 186,89 190,89 194,89 198,89 202,87 206,87 210,87 214,86 219,86 223,87 227,88 231,88 235,87 240,88 244,91 248,92 252,89 256,92 260,90 264,91 268,92 272,92 276,92 281,92 285,92 289,92 293,92 297,91 301,89 305,92 309,90 313,91 317,92 321,92 325,92 329,92 334,92 338,92 342,92 346,91 350,89 354,92 358,90 362,91 366,92 370,92 374,92 378,92 383,92 387,92 391,92 395,91 399,89 403,92 407,90 411,91 415,92 419,92" stroke="#2963da" fill="none" stroke-width="3" stroke-linejoin="round" stroke-linecap="round" />
</svg>