<svg width="419" height="100" viewBox="0 0 419 100" xmlns="http://www.w3.org/2000/svg" xmlns:xlink="http://www.w3.org/1999/xlink"><defs>
<linearGradient id="grad" x1="0%" y1="0%" x2="0%" y2="100%">
<stop offset="0%" stop-color="#2963da" stop-opacity="0.40"/>
<stop offset="100%" stop-color="#070720" stop-opacity="0.20"/>
</linearGradient>
</defs>
<rect x="0" y="0" width="419" height="100" fill="none" />
<polygon points="0,92 4,91 8,91 12,91 16,91 21,90 25,90 29,90 33,90 37,90 41,89 45,89 49,88 53,88 58,88 62,87 66,87 70,86 74,86 78,85 82,85 86,83 90,82 94,82 98,82 102,81 106,80 110,80 114,80 118,77 123,76 127,76 131,76 135,74 139,72 143,69 147,68 151,71 155,69 159,66 163,63 167,59 171,56 175,53 179,53 183,54 187,57 191,59 196,62 200,64 204,67 208,69 212,72 216,74 220,76 224,78 228,79 232,80 236,80 240,82 244,83 248,84 252,85 256,83 260,79 264,76 269,73 273,70 277,68 281,67 285,67 289,68 293,69 297,69 301,70 305,71 309,73 313,75 318,75 322,77 326,79 330,76 334,74 338,74 342,76 346,78 350,82 354,85 358,86 362,87 366,89 370,92 375,92 379,88 383,85 387,80 391,83 395,85 399,87 403,87 407,90 411,92 415,92 419,92 419,100 0,100" fill="url(#grad)" stroke="none" />
<polyline points="0,92 4,91 8,91 12,91 16,91 21,90 25,90 29,90 33,90 37,90 41,89 45,89 49,88 53,88 58,88 62,87 66,87 70,86 74,86 78,85 82,85 86,83 90,82 94,82 98,82 102,81 106,80 110,80 114,80 118,77 123,76 127,76 131,76 135,74 139,72 143,69 147,68 151,71 155,69 159,66 163,63 167,59 171,56 175,53 179,53 183,54 187,57 191,59 196,62 200,64 204,67 208,69 212,72 216,74 220,76 224,78 228,79 232,80 236,80 240,82 244,83 248,84 252,85 256,83 260,79 264,76 269,73 273,70 277,68 281,67 285,67 289,68 293,69 297,69 301,70 305,71 309,73 313,75 318,75 322,77 326,79 330,76 334,74 338,74 342,76 346,78 350,82 354,85 358,86 362,87 366,89 370,92 375,92 379,88 383,85 387,80 391,83 395,85 399,87 403,87 407,90 411,92 415,92 419,92" stroke="#2963da" fill="none" stroke-width="3" stroke-linejoin="round" stroke-linecap="round" />
</svg>