<svg width="419" height="100" viewBox="0 0 419 100" xmlns="http://www.w3.org/2000/svg" xmlns:xlink="http://www.w3.org/1999/xlink"><defs>
<linearGradient id="grad" x1="0%" y1="0%" x2="0%" y2="100%">
<stop offset="0%" stop-color="#2963da" stop-opacity="0.40"/>
<stop offset="100%" stop-color="#070720" stop-opacity="0.20"/>
</linearGradient>
</defs>
<rect x="0" y="0" width="419" height="100" fill="none" />
<polygon points="0,91 4,91 8,91 12,91 16,91 20,92 24,92 28,92 32,92 36,92 40,92 44,92 48,92 52,92 56,92 60,92 64,92 68,92 72,92 76,92 80,92 85,92 89,92 93,92 97,92 101,92 105,92 109,92 113,92 117,92 121,91 125,91 129,91 133,92 137,91 141,91 145,91 149,90 153,91 157,91 161,90 165,88 170,86 174,90 178,91 182,91 186,90 190,89 194,89 198,89 202,90 206,89 210,89 214,89 218,89 222,90 226,90 230,87 234,83 238,88 242,91 246,91 250,91 255,91 259,91 263,91 267,90 271,88 275,86 279,90 283,91 287,91 291,90 295,89 299,89 303,89 307,89 311,89 315,89 319,89 323,89 327,90 331,90 336,87 340,83 344,87 348,91 352,91 356,91 360,91 364,91 368,91 372,91 376,89 380,89 384,85 388,86 392,85 396,89 400,91 404,91 408,92 412,91 417,91 419,91 419,100 0,100" fill="url(#grad)" stroke="none" />
<polyline points="0,91 4,91 8,91 12,91 16,91 20,92 24,92 28,92 32,92 36,92 40,92 44,92 48,92 52,92 56,92 60,92 64,92 68,92 72,92 76,92 80,92 85,92 89,92 93,92 97,92 101,92 105,92 109,92 113,92 117,92 121,91 125,91 129,91 133,92 137,91 141,91 145,91 149,90 153,91 157,91 161,90 165,88 170,86 174,90 178,91 182,91 186,90 190,89 194,89 198,89 202,90 206,89 210,89 214,89 218,89 222,90 226,90 230,87 234,83 238,88 242,91 246,91 250,91 255,91 259,91 263,91 267,90 271,88 275,86 279,90 283,91 287,91 291,90 295,89 299,89 303,89 307,89 311,89 315,89 319,89 323,89 327,90 331,90 336,87 340,83 344,87 348,91 352,91 356,91 360,91 364,91 368,91 372,91 376,89 380,89 384,85 388,86 392,85 396,89 400,91 404,91 408,92 412,91 417,91 419,91" stroke="#2963da" fill="none" stroke-width="3" stroke-linejoin="round" stroke-linecap="round" />
</svg>