<svg width="419" height="100" viewBox="0 0 419 100" xmlns="http://www.w3.org/2000/svg" xmlns:xlink="http://www.w3.org/1999/xlink"><defs>
<linearGradient id="grad" x1="0%" y1="0%" x2="0%" y2="100%">
<stop offset="0%" stop-color="#2963da" stop-opacity="0.40"/>
<stop offset="100%" stop-color="#070720" stop-opacity="0.20"/>
</linearGradient>
</defs>
<rect x="0" y="0" width="419" height="100" fill="none" />
<polygon points="0,91 4,92 8,92 12,92 16,92 20,92 24,92 28,92 32,92 37,92 41,92 45,92 49,92 53,92 57,92 61,92 65,92 69,92 73,92 77,91 82,92 86,91 90,91 94,91 98,91 102,91 106,91 110,90 114,86 119,84 123,86 127,84 131,85 135,87 139,88 143,89 147,91 151,91 155,92 159,92 163,92 167,92 171,92 176,92 180,92 184,92 188,92 192,92 196,92 200,92 204,92 209,92 213,92 217,92 222,92 226,92 230,92 234,92 238,92 243,92 247,92 251,92 255,92 260,92 264,92 268,92 272,92 276,91 280,89 284,88 288,87 292,88 296,90 301,91 305,89 309,87 313,88 317,89 321,90 325,91 329,89 333,86 337,89 341,89 345,90 349,90 354,89 358,87 362,90 366,89 370,91 374,90 378,89 382,87 386,90 390,89 394,91 398,89 402,89 407,87 411,89 415,90 419,91 419,100 0,100" fill="url(#grad)" stroke="none" />
<polyline points="0,91 4,92 8,92 12,92 16,92 20,92 24,92 28,92 32,92 37,92 41,92 45,92 49,92 53,92 57,92 61,92 65,92 69,92 73,92 77,91 82,92 86,91 90,91 94,91 98,91 102,91 106,91 110,90 114,86 119,84 123,86 127,84 131,85 135,87 139,88 143,89 147,91 151,91 155,92 159,92 163,92 167,92 171,92 176,92 180,92 184,92 188,92 192,92 196,92 200,92 204,92 209,92 213,92 217,92 222,92 226,92 230,92 234,92 238,92 243,92 247,92 251,92 255,92 260,92 264,92 268,92 272,92 276,91 280,89 284,88 288,87 292,88 296,90 301,91 305,89 309,87 313,88 317,89 321,90 325,91 329,89 333,86 337,89 341,89 345,90 349,90 354,89 358,87 362,90 366,89 370,91 374,90 378,89 382,87 386,90 390,89 394,91 398,89 402,89 407,87 411,89 415,90 419,91" stroke="#2963da" fill="none" stroke-width="3" stroke-linejoin="round" stroke-linecap="round" />
</svg>