<svg width="419" height="100" viewBox="0 0 419 100" xmlns="http://www.w3.org/2000/svg" xmlns:xlink="http://www.w3.org/1999/xlink"><defs>
<linearGradient id="grad" x1="0%" y1="0%" x2="0%" y2="100%">
<stop offset="0%" stop-color="#2963da" stop-opacity="0.40"/>
<stop offset="100%" stop-color="#070720" stop-opacity="0.20"/>
</linearGradient>
</defs>
<rect x="0" y="0" width="419" height="100" fill="none" />
<polygon points="0,92 4,92 8,92 12,92 16,92 20,92 24,92 28,92 32,92 36,92 41,92 45,92 49,92 53,92 57,92 61,92 65,92 69,92 74,92 78,92 82,92 86,92 90,92 94,92 98,92 102,92 106,92 110,91 114,92 119,92 123,92 127,92 131,92 135,92 139,92 143,92 147,92 152,91 156,91 160,91 164,91 168,91 172,91 176,91 180,91 184,91 189,91 193,91 197,91 201,91 205,91 209,90 213,91 217,90 221,90 225,90 229,89 234,88 238,88 242,87 246,85 250,81 254,83 258,88 262,89 266,88 271,88 275,88 279,87 283,87 287,87 291,86 295,85 299,86 303,85 307,85 312,85 316,85 320,84 324,84 328,84 332,82 336,82 340,82 344,80 349,80 353,80 357,79 361,77 365,72 369,68 373,66 377,64 381,62 385,63 389,65 394,61 398,57 402,54 406,53 410,48 414,43 418,37 419,37 419,100 0,100" fill="url(#grad)" stroke="none" />
<polyline points="0,92 4,92 8,92 12,92 16,92 20,92 24,92 28,92 32,92 36,92 41,92 45,92 49,92 53,92 57,92 61,92 65,92 69,92 74,92 78,92 82,92 86,92 90,92 94,92 98,92 102,92 106,92 110,91 114,92 119,92 123,92 127,92 131,92 135,92 139,92 143,92 147,92 152,91 156,91 160,91 164,91 168,91 172,91 176,91 180,91 184,91 189,91 193,91 197,91 201,91 205,91 209,90 213,91 217,90 221,90 225,90 229,89 234,88 238,88 242,87 246,85 250,81 254,83 258,88 262,89 266,88 271,88 275,88 279,87 283,87 287,87 291,86 295,85 299,86 303,85 307,85 312,85 316,85 320,84 324,84 328,84 332,82 336,82 340,82 344,80 349,80 353,80 357,79 361,77 365,72 369,68 373,66 377,64 381,62 385,63 389,65 394,61 398,57 402,54 406,53 410,48 414,43 418,37 419,37" stroke="#2963da" fill="none" stroke-width="3" stroke-linejoin="round" stroke-linecap="round" />
</svg>