<svg width="419" height="100" viewBox="0 0 419 100" xmlns="http://www.w3.org/2000/svg" xmlns:xlink="http://www.w3.org/1999/xlink"><defs>
<linearGradient id="grad" x1="0%" y1="0%" x2="0%" y2="100%">
<stop offset="0%" stop-color="#2963da" stop-opacity="0.40"/>
<stop offset="100%" stop-color="#070720" stop-opacity="0.20"/>
</linearGradient>
</defs>
<rect x="0" y="0" width="419" height="100" fill="none" />
<polygon points="0,92 4,92 8,92 12,92 16,92 20,92 24,92 28,89 32,88 36,89 40,90 44,90 48,91 52,92 56,92 60,92 64,92 68,92 72,92 77,92 81,92 85,92 89,92 93,92 97,92 101,92 105,92 109,92 113,92 117,92 121,92 125,92 129,92 133,89 137,88 141,89 145,90 149,90 153,91 158,92 162,92 166,92 170,92 174,92 178,92 182,92 186,92 190,92 194,92 198,92 202,92 206,92 210,92 214,92 218,92 222,92 226,92 231,92 235,92 239,89 243,88 247,89 251,90 255,89 259,91 263,92 267,92 271,92 275,92 279,92 283,92 287,92 291,92 295,92 299,92 304,92 308,92 312,92 316,92 320,92 324,92 328,91 332,92 336,92 340,92 344,89 348,88 352,89 356,90 360,89 364,91 368,91 372,92 377,92 381,92 385,91 389,92 393,92 397,92 401,92 405,92 409,92 413,92 417,92 419,92 419,100 0,100" fill="url(#grad)" stroke="none" />
<polyline points="0,92 4,92 8,92 12,92 16,92 20,92 24,92 28,89 32,88 36,89 40,90 44,90 48,91 52,92 56,92 60,92 64,92 68,92 72,92 77,92 81,92 85,92 89,92 93,92 97,92 101,92 105,92 109,92 113,92 117,92 121,92 125,92 129,92 133,89 137,88 141,89 145,90 149,90 153,91 158,92 162,92 166,92 170,92 174,92 178,92 182,92 186,92 190,92 194,92 198,92 202,92 206,92 210,92 214,92 218,92 222,92 226,92 231,92 235,92 239,89 243,88 247,89 251,90 255,89 259,91 263,92 267,92 271,92 275,92 279,92 283,92 287,92 291,92 295,92 299,92 304,92 308,92 312,92 316,92 320,92 324,92 328,91 332,92 336,92 340,92 344,89 348,88 352,89 356,90 360,89 364,91 368,91 372,92 377,92 381,92 385,91 389,92 393,92 397,92 401,92 405,92 409,92 413,92 417,92 419,92" stroke="#2963da" fill="none" stroke-width="3" stroke-linejoin="round" stroke-linecap="round" />
</svg>