<svg width="419" height="100" viewBox="0 0 419 100" xmlns="http://www.w3.org/2000/svg" xmlns:xlink="http://www.w3.org/1999/xlink"><defs>
<linearGradient id="grad" x1="0%" y1="0%" x2="0%" y2="100%">
<stop offset="0%" stop-color="#2963da" stop-opacity="0.40"/>
<stop offset="100%" stop-color="#070720" stop-opacity="0.20"/>
</linearGradient>
</defs>
<rect x="0" y="0" width="419" height="100" fill="none" />
<polygon points="0,92 4,92 8,90 12,88 16,85 20,84 24,83 28,83 32,84 36,84 41,82 45,80 49,81 53,81 57,82 61,83 66,84 70,83 74,83 78,83 82,83 86,85 91,85 95,85 99,86 103,86 107,88 111,90 115,90 119,90 123,90 127,89 131,87 136,87 140,89 144,90 149,90 153,90 157,90 161,89 165,87 170,89 174,90 178,89 182,89 186,89 190,90 194,90 198,90 203,90 207,89 211,89 215,88 220,88 224,88 228,88 232,88 236,89 241,88 245,88 249,86 253,85 257,81 261,78 265,78 269,79 273,81 278,84 282,86 286,85 290,86 294,85 298,81 302,80 306,79 310,79 315,77 319,79 323,78 328,78 332,81 336,81 340,80 344,83 348,83 352,84 356,86 361,89 365,92 369,92 373,92 377,92 381,92 385,92 390,92 394,92 398,92 402,92 406,92 410,92 414,90 418,88 419,88 419,100 0,100" fill="url(#grad)" stroke="none" />
<polyline points="0,92 4,92 8,90 12,88 16,85 20,84 24,83 28,83 32,84 36,84 41,82 45,80 49,81 53,81 57,82 61,83 66,84 70,83 74,83 78,83 82,83 86,85 91,85 95,85 99,86 103,86 107,88 111,90 115,90 119,90 123,90 127,89 131,87 136,87 140,89 144,90 149,90 153,90 157,90 161,89 165,87 170,89 174,90 178,89 182,89 186,89 190,90 194,90 198,90 203,90 207,89 211,89 215,88 220,88 224,88 228,88 232,88 236,89 241,88 245,88 249,86 253,85 257,81 261,78 265,78 269,79 273,81 278,84 282,86 286,85 290,86 294,85 298,81 302,80 306,79 310,79 315,77 319,79 323,78 328,78 332,81 336,81 340,80 344,83 348,83 352,84 356,86 361,89 365,92 369,92 373,92 377,92 381,92 385,92 390,92 394,92 398,92 402,92 406,92 410,92 414,90 418,88 419,88" stroke="#2963da" fill="none" stroke-width="3" stroke-linejoin="round" stroke-linecap="round" />
</svg>