<svg width="419" height="100" viewBox="0 0 419 100" xmlns="http://www.w3.org/2000/svg" xmlns:xlink="http://www.w3.org/1999/xlink"><defs>
<linearGradient id="grad" x1="0%" y1="0%" x2="0%" y2="100%">
<stop offset="0%" stop-color="#2963da" stop-opacity="0.40"/>
<stop offset="100%" stop-color="#070720" stop-opacity="0.20"/>
</linearGradient>
</defs>
<rect x="0" y="0" width="419" height="100" fill="none" />
<polygon points="0,92 4,92 9,92 13,92 17,92 22,92 28,92 34,92 39,92 43,92 49,92 53,92 59,92 63,92 71,92 75,92 79,92 84,92 88,92 93,92 97,92 102,92 106,92 114,92 119,92 124,92 133,92 138,92 142,92 146,92 152,92 156,92 161,92 165,92 170,92 174,92 178,92 183,92 187,92 193,92 198,92 203,92 207,91 216,91 220,90 228,90 233,89 238,89 242,89 246,89 253,89 258,89 263,89 267,89 271,90 276,90 285,91 289,91 294,92 300,92 306,92 311,92 315,92 320,92 325,92 330,92 335,92 339,92 345,92 350,92 354,92 358,92 362,92 366,92 371,92 375,92 380,92 384,92 389,92 394,92 403,92 410,92 417,92 419,92 419,100 0,100" fill="url(#grad)" stroke="none" />
<polyline points="0,92 4,92 9,92 13,92 17,92 22,92 28,92 34,92 39,92 43,92 49,92 53,92 59,92 63,92 71,92 75,92 79,92 84,92 88,92 93,92 97,92 102,92 106,92 114,92 119,92 124,92 133,92 138,92 142,92 146,92 152,92 156,92 161,92 165,92 170,92 174,92 178,92 183,92 187,92 193,92 198,92 203,92 207,91 216,91 220,90 228,90 233,89 238,89 242,89 246,89 253,89 258,89 263,89 267,89 271,90 276,90 285,91 289,91 294,92 300,92 306,92 311,92 315,92 320,92 325,92 330,92 335,92 339,92 345,92 350,92 354,92 358,92 362,92 366,92 371,92 375,92 380,92 384,92 389,92 394,92 403,92 410,92 417,92 419,92" stroke="#2963da" fill="none" stroke-width="3" stroke-linejoin="round" stroke-linecap="round" />
</svg>