<svg width="419" height="100" viewBox="0 0 419 100" xmlns="http://www.w3.org/2000/svg" xmlns:xlink="http://www.w3.org/1999/xlink"><defs>
<linearGradient id="grad" x1="0%" y1="0%" x2="0%" y2="100%">
<stop offset="0%" stop-color="#2963da" stop-opacity="0.40"/>
<stop offset="100%" stop-color="#070720" stop-opacity="0.20"/>
</linearGradient>
</defs>
<rect x="0" y="0" width="419" height="100" fill="none" />
<polygon points="0,92 4,92 8,92 12,92 16,92 20,91 24,91 28,90 32,90 36,92 40,92 44,92 48,92 52,91 56,91 60,89 64,89 68,91 72,92 76,92 81,92 85,90 89,88 93,87 97,89 101,91 105,92 109,91 113,90 117,91 121,92 125,92 129,92 133,92 137,92 141,90 145,87 149,83 153,82 157,80 161,77 165,76 170,77 174,80 178,83 182,86 186,86 190,88 194,91 198,92 202,92 206,92 210,92 214,91 218,92 222,92 226,90 230,88 234,86 238,88 242,90 247,91 251,92 255,92 259,92 263,92 267,92 271,92 275,91 279,92 283,92 287,92 291,92 295,92 299,92 303,91 307,91 311,91 315,91 319,91 324,92 328,92 332,92 336,92 340,92 344,92 348,92 352,92 356,92 360,89 364,87 368,84 372,81 376,80 380,80 384,81 388,83 392,84 396,85 401,88 405,91 409,92 413,92 417,92 419,92 419,100 0,100" fill="url(#grad)" stroke="none" />
<polyline points="0,92 4,92 8,92 12,92 16,92 20,91 24,91 28,90 32,90 36,92 40,92 44,92 48,92 52,91 56,91 60,89 64,89 68,91 72,92 76,92 81,92 85,90 89,88 93,87 97,89 101,91 105,92 109,91 113,90 117,91 121,92 125,92 129,92 133,92 137,92 141,90 145,87 149,83 153,82 157,80 161,77 165,76 170,77 174,80 178,83 182,86 186,86 190,88 194,91 198,92 202,92 206,92 210,92 214,91 218,92 222,92 226,90 230,88 234,86 238,88 242,90 247,91 251,92 255,92 259,92 263,92 267,92 271,92 275,91 279,92 283,92 287,92 291,92 295,92 299,92 303,91 307,91 311,91 315,91 319,91 324,92 328,92 332,92 336,92 340,92 344,92 348,92 352,92 356,92 360,89 364,87 368,84 372,81 376,80 380,80 384,81 388,83 392,84 396,85 401,88 405,91 409,92 413,92 417,92 419,92" stroke="#2963da" fill="none" stroke-width="3" stroke-linejoin="round" stroke-linecap="round" />
</svg>