<svg width="419" height="100" viewBox="0 0 419 100" xmlns="http://www.w3.org/2000/svg" xmlns:xlink="http://www.w3.org/1999/xlink"><defs>
<linearGradient id="grad" x1="0%" y1="0%" x2="0%" y2="100%">
<stop offset="0%" stop-color="#2963da" stop-opacity="0.40"/>
<stop offset="100%" stop-color="#070720" stop-opacity="0.20"/>
</linearGradient>
</defs>
<rect x="0" y="0" width="419" height="100" fill="none" />
<polygon points="0,91 4,88 8,85 12,82 16,79 20,76 24,73 28,71 32,69 36,67 40,63 44,60 48,58 52,59 56,63 60,66 64,68 69,69 73,72 77,72 81,72 85,74 89,77 93,80 97,80 102,79 106,78 110,76 114,75 118,76 122,77 126,77 130,76 134,75 139,75 143,74 147,73 151,73 155,72 159,70 163,67 167,70 171,73 175,75 179,78 184,82 188,84 192,87 196,89 200,92 204,92 208,91 212,89 216,90 220,92 224,92 228,92 232,92 237,92 241,91 245,91 249,91 253,91 257,91 261,89 265,86 269,83 273,82 277,80 281,82 285,84 289,86 293,88 298,89 302,89 306,89 310,89 314,87 318,85 322,86 326,88 330,87 334,87 338,87 342,87 346,85 351,84 355,81 359,77 363,73 367,69 371,65 375,62 379,58 383,55 387,51 391,47 395,45 399,42 403,39 407,36 411,33 415,30 419,27 419,100 0,100" fill="url(#grad)" stroke="none" />
<polyline points="0,91 4,88 8,85 12,82 16,79 20,76 24,73 28,71 32,69 36,67 40,63 44,60 48,58 52,59 56,63 60,66 64,68 69,69 73,72 77,72 81,72 85,74 89,77 93,80 97,80 102,79 106,78 110,76 114,75 118,76 122,77 126,77 130,76 134,75 139,75 143,74 147,73 151,73 155,72 159,70 163,67 167,70 171,73 175,75 179,78 184,82 188,84 192,87 196,89 200,92 204,92 208,91 212,89 216,90 220,92 224,92 228,92 232,92 237,92 241,91 245,91 249,91 253,91 257,91 261,89 265,86 269,83 273,82 277,80 281,82 285,84 289,86 293,88 298,89 302,89 306,89 310,89 314,87 318,85 322,86 326,88 330,87 334,87 338,87 342,87 346,85 351,84 355,81 359,77 363,73 367,69 371,65 375,62 379,58 383,55 387,51 391,47 395,45 399,42 403,39 407,36 411,33 415,30 419,27" stroke="#2963da" fill="none" stroke-width="3" stroke-linejoin="round" stroke-linecap="round" />
</svg>