<svg width="419" height="100" viewBox="0 0 419 100" xmlns="http://www.w3.org/2000/svg" xmlns:xlink="http://www.w3.org/1999/xlink"><defs>
<linearGradient id="grad" x1="0%" y1="0%" x2="0%" y2="100%">
<stop offset="0%" stop-color="#2963da" stop-opacity="0.40"/>
<stop offset="100%" stop-color="#070720" stop-opacity="0.20"/>
</linearGradient>
</defs>
<rect x="0" y="0" width="419" height="100" fill="none" />
<polygon points="0,92 4,92 8,92 12,92 16,92 20,92 24,92 28,92 32,91 36,89 40,87 44,85 48,83 52,79 56,81 60,84 64,83 68,83 72,82 77,80 81,80 85,79 89,76 93,72 97,70 101,66 105,64 109,60 113,64 117,68 121,70 125,70 129,71 133,75 137,79 141,79 145,82 150,84 154,83 158,82 162,81 166,82 170,82 174,81 178,80 182,79 186,78 191,77 195,75 199,71 203,70 207,71 211,70 216,66 220,65 224,66 228,71 232,72 236,70 240,69 244,68 248,67 252,66 257,64 261,63 265,62 269,59 273,62 277,58 281,56 285,54 289,52 293,49 297,49 301,54 305,56 309,58 313,59 317,56 321,52 326,50 330,45 334,41 338,36 342,31 346,25 350,21 354,20 358,26 362,24 366,26 370,29 374,33 378,38 382,41 386,46 391,48 395,49 399,43 403,38 407,32 411,29 415,31 419,28 419,100 0,100" fill="url(#grad)" stroke="none" />
<polyline points="0,92 4,92 8,92 12,92 16,92 20,92 24,92 28,92 32,91 36,89 40,87 44,85 48,83 52,79 56,81 60,84 64,83 68,83 72,82 77,80 81,80 85,79 89,76 93,72 97,70 101,66 105,64 109,60 113,64 117,68 121,70 125,70 129,71 133,75 137,79 141,79 145,82 150,84 154,83 158,82 162,81 166,82 170,82 174,81 178,80 182,79 186,78 191,77 195,75 199,71 203,70 207,71 211,70 216,66 220,65 224,66 228,71 232,72 236,70 240,69 244,68 248,67 252,66 257,64 261,63 265,62 269,59 273,62 277,58 281,56 285,54 289,52 293,49 297,49 301,54 305,56 309,58 313,59 317,56 321,52 326,50 330,45 334,41 338,36 342,31 346,25 350,21 354,20 358,26 362,24 366,26 370,29 374,33 378,38 382,41 386,46 391,48 395,49 399,43 403,38 407,32 411,29 415,31 419,28" stroke="#2963da" fill="none" stroke-width="3" stroke-linejoin="round" stroke-linecap="round" />
</svg>