<svg width="419" height="100" viewBox="0 0 419 100" xmlns="http://www.w3.org/2000/svg" xmlns:xlink="http://www.w3.org/1999/xlink"><defs>
<linearGradient id="grad" x1="0%" y1="0%" x2="0%" y2="100%">
<stop offset="0%" stop-color="#2963da" stop-opacity="0.40"/>
<stop offset="100%" stop-color="#070720" stop-opacity="0.20"/>
</linearGradient>
</defs>
<rect x="0" y="0" width="419" height="100" fill="none" />
<polygon points="0,92 4,91 8,92 12,91 16,92 20,91 25,89 29,88 33,88 37,87 41,82 45,81 49,77 53,74 57,73 61,76 65,73 69,71 73,71 77,69 82,72 86,75 90,77 94,78 98,76 102,75 107,76 111,76 115,75 119,75 123,78 127,80 132,79 136,79 140,80 144,80 148,81 153,81 157,79 161,78 165,79 169,78 173,78 177,77 182,75 186,76 190,75 194,74 198,73 202,73 206,72 210,71 215,71 219,70 223,69 227,67 231,66 235,63 239,63 244,60 248,57 252,54 256,54 260,54 264,50 268,48 272,44 276,38 280,31 284,30 288,32 292,37 296,42 300,44 304,49 308,52 313,54 317,56 321,56 325,55 329,55 333,54 337,52 341,50 345,47 349,43 353,39 358,37 362,36 366,32 370,28 374,31 378,34 382,36 386,36 390,33 395,33 399,36 403,40 407,38 411,36 415,31 419,28 419,100 0,100" fill="url(#grad)" stroke="none" />
<polyline points="0,92 4,91 8,92 12,91 16,92 20,91 25,89 29,88 33,88 37,87 41,82 45,81 49,77 53,74 57,73 61,76 65,73 69,71 73,71 77,69 82,72 86,75 90,77 94,78 98,76 102,75 107,76 111,76 115,75 119,75 123,78 127,80 132,79 136,79 140,80 144,80 148,81 153,81 157,79 161,78 165,79 169,78 173,78 177,77 182,75 186,76 190,75 194,74 198,73 202,73 206,72 210,71 215,71 219,70 223,69 227,67 231,66 235,63 239,63 244,60 248,57 252,54 256,54 260,54 264,50 268,48 272,44 276,38 280,31 284,30 288,32 292,37 296,42 300,44 304,49 308,52 313,54 317,56 321,56 325,55 329,55 333,54 337,52 341,50 345,47 349,43 353,39 358,37 362,36 366,32 370,28 374,31 378,34 382,36 386,36 390,33 395,33 399,36 403,40 407,38 411,36 415,31 419,28" stroke="#2963da" fill="none" stroke-width="3" stroke-linejoin="round" stroke-linecap="round" />
</svg>