<svg width="419" height="100" viewBox="0 0 419 100" xmlns="http://www.w3.org/2000/svg" xmlns:xlink="http://www.w3.org/1999/xlink"><defs>
<linearGradient id="grad" x1="0%" y1="0%" x2="0%" y2="100%">
<stop offset="0%" stop-color="#2963da" stop-opacity="0.40"/>
<stop offset="100%" stop-color="#070720" stop-opacity="0.20"/>
</linearGradient>
</defs>
<rect x="0" y="0" width="419" height="100" fill="none" />
<polygon points="0,92 4,92 8,92 12,92 17,92 21,92 25,92 30,92 34,91 38,91 42,92 46,92 51,91 55,91 59,90 63,88 67,89 71,88 75,86 80,82 84,80 88,78 92,76 96,75 100,76 104,73 108,74 112,75 116,75 121,73 125,74 129,78 133,77 138,74 142,74 146,72 150,70 154,67 158,65 163,65 167,66 171,67 175,68 179,71 183,74 187,74 191,73 195,73 200,76 204,77 208,76 212,74 216,71 220,74 224,76 229,77 234,77 239,77 243,76 247,73 251,70 255,71 259,75 263,77 267,77 272,78 276,77 280,77 284,73 288,71 292,67 296,69 300,71 304,73 308,74 312,75 316,77 320,79 325,78 329,78 333,78 337,83 341,79 345,80 349,84 353,86 357,82 361,79 365,75 369,78 373,80 378,80 382,79 386,78 390,79 394,83 398,87 403,89 407,90 411,90 415,91 419,91 419,100 0,100" fill="url(#grad)" stroke="none" />
<polyline points="0,92 4,92 8,92 12,92 17,92 21,92 25,92 30,92 34,91 38,91 42,92 46,92 51,91 55,91 59,90 63,88 67,89 71,88 75,86 80,82 84,80 88,78 92,76 96,75 100,76 104,73 108,74 112,75 116,75 121,73 125,74 129,78 133,77 138,74 142,74 146,72 150,70 154,67 158,65 163,65 167,66 171,67 175,68 179,71 183,74 187,74 191,73 195,73 200,76 204,77 208,76 212,74 216,71 220,74 224,76 229,77 234,77 239,77 243,76 247,73 251,70 255,71 259,75 263,77 267,77 272,78 276,77 280,77 284,73 288,71 292,67 296,69 300,71 304,73 308,74 312,75 316,77 320,79 325,78 329,78 333,78 337,83 341,79 345,80 349,84 353,86 357,82 361,79 365,75 369,78 373,80 378,80 382,79 386,78 390,79 394,83 398,87 403,89 407,90 411,90 415,91 419,91" stroke="#2963da" fill="none" stroke-width="3" stroke-linejoin="round" stroke-linecap="round" />
</svg>