<svg width="419" height="100" viewBox="0 0 419 100" xmlns="http://www.w3.org/2000/svg" xmlns:xlink="http://www.w3.org/1999/xlink"><defs>
<linearGradient id="grad" x1="0%" y1="0%" x2="0%" y2="100%">
<stop offset="0%" stop-color="#2963da" stop-opacity="0.40"/>
<stop offset="100%" stop-color="#070720" stop-opacity="0.20"/>
</linearGradient>
</defs>
<rect x="0" y="0" width="419" height="100" fill="none" />
<polygon points="0,91 4,92 8,91 12,91 17,90 21,90 25,89 29,88 33,89 37,89 42,90 46,88 50,87 54,89 59,89 63,88 67,83 71,83 75,83 79,84 84,83 88,87 92,90 96,92 100,92 104,92 108,92 112,91 116,85 120,83 125,85 129,89 133,91 137,92 141,90 145,86 149,86 153,87 157,86 161,85 166,85 170,86 174,83 178,85 182,86 186,86 190,84 195,83 199,86 203,84 207,84 212,85 216,88 220,87 224,84 229,83 233,82 237,83 241,85 245,86 250,87 254,89 258,90 262,89 266,88 270,87 275,87 279,88 283,87 287,82 291,84 295,83 300,83 304,86 308,90 312,90 316,89 320,84 324,85 328,90 332,90 337,91 341,91 345,90 349,87 353,88 357,86 361,82 365,81 369,82 373,83 378,87 382,87 386,87 390,89 394,87 398,89 402,89 406,89 411,85 415,89 419,86 419,100 0,100" fill="url(#grad)" stroke="none" />
<polyline points="0,91 4,92 8,91 12,91 17,90 21,90 25,89 29,88 33,89 37,89 42,90 46,88 50,87 54,89 59,89 63,88 67,83 71,83 75,83 79,84 84,83 88,87 92,90 96,92 100,92 104,92 108,92 112,91 116,85 120,83 125,85 129,89 133,91 137,92 141,90 145,86 149,86 153,87 157,86 161,85 166,85 170,86 174,83 178,85 182,86 186,86 190,84 195,83 199,86 203,84 207,84 212,85 216,88 220,87 224,84 229,83 233,82 237,83 241,85 245,86 250,87 254,89 258,90 262,89 266,88 270,87 275,87 279,88 283,87 287,82 291,84 295,83 300,83 304,86 308,90 312,90 316,89 320,84 324,85 328,90 332,90 337,91 341,91 345,90 349,87 353,88 357,86 361,82 365,81 369,82 373,83 378,87 382,87 386,87 390,89 394,87 398,89 402,89 406,89 411,85 415,89 419,86" stroke="#2963da" fill="none" stroke-width="3" stroke-linejoin="round" stroke-linecap="round" />
</svg>