<svg width="419" height="100" viewBox="0 0 419 100" xmlns="http://www.w3.org/2000/svg" xmlns:xlink="http://www.w3.org/1999/xlink"><defs>
<linearGradient id="grad" x1="0%" y1="0%" x2="0%" y2="100%">
<stop offset="0%" stop-color="#2963da" stop-opacity="0.40"/>
<stop offset="100%" stop-color="#070720" stop-opacity="0.20"/>
</linearGradient>
</defs>
<rect x="0" y="0" width="419" height="100" fill="none" />
<polygon points="0,87 4,87 8,90 12,90 16,89 20,88 24,88 28,89 32,91 36,88 40,86 44,83 49,85 53,83 57,85 61,84 65,81 69,82 74,84 78,85 82,85 86,86 90,87 94,86 98,87 103,88 107,91 111,90 115,90 119,92 123,89 127,88 131,90 135,88 139,86 143,88 147,88 151,87 156,86 160,85 164,85 168,84 172,81 177,80 181,80 186,81 190,81 194,82 198,82 202,83 206,83 210,85 215,85 219,86 223,88 227,90 231,90 235,90 239,92 244,89 248,88 252,89 256,89 260,86 264,88 268,88 273,87 277,86 281,84 286,82 290,81 294,83 298,79 302,75 306,73 310,72 315,68 319,66 323,65 327,64 331,67 335,71 339,75 343,78 348,81 352,80 356,81 360,81 365,81 369,83 373,83 377,82 381,85 385,85 389,86 394,87 398,89 402,91 406,90 410,92 414,91 418,87 419,87 419,100 0,100" fill="url(#grad)" stroke="none" />
<polyline points="0,87 4,87 8,90 12,90 16,89 20,88 24,88 28,89 32,91 36,88 40,86 44,83 49,85 53,83 57,85 61,84 65,81 69,82 74,84 78,85 82,85 86,86 90,87 94,86 98,87 103,88 107,91 111,90 115,90 119,92 123,89 127,88 131,90 135,88 139,86 143,88 147,88 151,87 156,86 160,85 164,85 168,84 172,81 177,80 181,80 186,81 190,81 194,82 198,82 202,83 206,83 210,85 215,85 219,86 223,88 227,90 231,90 235,90 239,92 244,89 248,88 252,89 256,89 260,86 264,88 268,88 273,87 277,86 281,84 286,82 290,81 294,83 298,79 302,75 306,73 310,72 315,68 319,66 323,65 327,64 331,67 335,71 339,75 343,78 348,81 352,80 356,81 360,81 365,81 369,83 373,83 377,82 381,85 385,85 389,86 394,87 398,89 402,91 406,90 410,92 414,91 418,87 419,87" stroke="#2963da" fill="none" stroke-width="3" stroke-linejoin="round" stroke-linecap="round" />
</svg>