<svg width="419" height="100" viewBox="0 0 419 100" xmlns="http://www.w3.org/2000/svg" xmlns:xlink="http://www.w3.org/1999/xlink"><defs>
<linearGradient id="grad" x1="0%" y1="0%" x2="0%" y2="100%">
<stop offset="0%" stop-color="#2963da" stop-opacity="0.40"/>
<stop offset="100%" stop-color="#070720" stop-opacity="0.20"/>
</linearGradient>
</defs>
<rect x="0" y="0" width="419" height="100" fill="none" />
<polygon points="0,92 4,92 8,92 12,92 16,92 20,92 24,92 28,92 32,92 37,92 41,92 45,92 49,92 53,92 57,92 61,92 65,92 69,92 74,92 78,92 82,92 86,92 90,92 94,91 98,91 102,90 106,90 110,90 115,89 119,89 123,89 127,85 131,85 135,88 139,88 143,84 147,82 151,81 155,79 159,75 163,75 167,76 171,78 176,80 180,82 184,84 188,86 192,88 196,91 200,92 204,92 208,92 212,92 216,92 220,92 224,92 229,92 233,92 237,92 241,92 245,92 249,92 253,92 257,92 261,92 266,92 270,92 274,92 278,92 282,92 286,92 290,92 294,92 298,92 302,92 306,92 310,92 315,92 319,92 323,92 327,92 331,92 335,92 339,92 343,92 347,92 351,92 356,92 360,92 364,92 368,92 372,92 376,92 380,92 384,92 388,92 392,92 396,92 401,92 405,92 409,92 413,92 417,92 419,92 419,100 0,100" fill="url(#grad)" stroke="none" />
<polyline points="0,92 4,92 8,92 12,92 16,92 20,92 24,92 28,92 32,92 37,92 41,92 45,92 49,92 53,92 57,92 61,92 65,92 69,92 74,92 78,92 82,92 86,92 90,92 94,91 98,91 102,90 106,90 110,90 115,89 119,89 123,89 127,85 131,85 135,88 139,88 143,84 147,82 151,81 155,79 159,75 163,75 167,76 171,78 176,80 180,82 184,84 188,86 192,88 196,91 200,92 204,92 208,92 212,92 216,92 220,92 224,92 229,92 233,92 237,92 241,92 245,92 249,92 253,92 257,92 261,92 266,92 270,92 274,92 278,92 282,92 286,92 290,92 294,92 298,92 302,92 306,92 310,92 315,92 319,92 323,92 327,92 331,92 335,92 339,92 343,92 347,92 351,92 356,92 360,92 364,92 368,92 372,92 376,92 380,92 384,92 388,92 392,92 396,92 401,92 405,92 409,92 413,92 417,92 419,92" stroke="#2963da" fill="none" stroke-width="3" stroke-linejoin="round" stroke-linecap="round" />
</svg>