<svg width="419" height="100" viewBox="0 0 419 100" xmlns="http://www.w3.org/2000/svg" xmlns:xlink="http://www.w3.org/1999/xlink"><defs>
<linearGradient id="grad" x1="0%" y1="0%" x2="0%" y2="100%">
<stop offset="0%" stop-color="#2963da" stop-opacity="0.40"/>
<stop offset="100%" stop-color="#070720" stop-opacity="0.20"/>
</linearGradient>
</defs>
<rect x="0" y="0" width="419" height="100" fill="none" />
<polygon points="0,88 4,88 8,89 12,90 16,90 20,90 24,90 28,91 32,91 36,91 41,90 45,85 49,85 53,88 57,88 61,88 65,90 69,88 73,87 77,87 81,90 85,92 90,92 94,92 98,92 102,92 106,92 110,92 114,92 118,88 122,84 126,82 130,86 134,89 139,89 143,86 147,84 151,84 155,84 159,84 163,84 167,88 171,86 175,90 179,87 183,89 188,92 192,92 196,92 200,90 204,92 208,92 212,92 216,92 220,92 224,91 228,88 233,87 237,86 241,87 245,88 249,87 253,91 257,88 261,89 265,87 269,86 273,86 277,87 281,88 285,86 289,85 294,88 298,87 302,89 306,88 310,88 314,88 318,88 322,90 326,87 330,88 334,87 338,85 342,85 347,88 351,85 355,84 359,87 363,88 367,86 371,87 376,90 380,90 384,87 388,87 392,86 396,85 400,85 404,84 408,85 413,87 417,88 419,86 419,100 0,100" fill="url(#grad)" stroke="none" />
<polyline points="0,88 4,88 8,89 12,90 16,90 20,90 24,90 28,91 32,91 36,91 41,90 45,85 49,85 53,88 57,88 61,88 65,90 69,88 73,87 77,87 81,90 85,92 90,92 94,92 98,92 102,92 106,92 110,92 114,92 118,88 122,84 126,82 130,86 134,89 139,89 143,86 147,84 151,84 155,84 159,84 163,84 167,88 171,86 175,90 179,87 183,89 188,92 192,92 196,92 200,90 204,92 208,92 212,92 216,92 220,92 224,91 228,88 233,87 237,86 241,87 245,88 249,87 253,91 257,88 261,89 265,87 269,86 273,86 277,87 281,88 285,86 289,85 294,88 298,87 302,89 306,88 310,88 314,88 318,88 322,90 326,87 330,88 334,87 338,85 342,85 347,88 351,85 355,84 359,87 363,88 367,86 371,87 376,90 380,90 384,87 388,87 392,86 396,85 400,85 404,84 408,85 413,87 417,88 419,86" stroke="#2963da" fill="none" stroke-width="3" stroke-linejoin="round" stroke-linecap="round" />
</svg>