<svg width="419" height="100" viewBox="0 0 419 100" xmlns="http://www.w3.org/2000/svg" xmlns:xlink="http://www.w3.org/1999/xlink"><defs>
<linearGradient id="grad" x1="0%" y1="0%" x2="0%" y2="100%">
<stop offset="0%" stop-color="#2963da" stop-opacity="0.40"/>
<stop offset="100%" stop-color="#070720" stop-opacity="0.20"/>
</linearGradient>
</defs>
<rect x="0" y="0" width="419" height="100" fill="none" />
<polygon points="0,89 4,89 8,88 14,88 18,88 23,87 27,87 31,86 35,86 39,85 43,85 48,85 52,85 56,84 61,84 65,83 70,83 74,83 78,83 82,83 88,83 94,83 99,83 103,84 107,84 111,84 116,84 120,84 124,84 128,84 132,84 137,84 141,84 147,84 151,84 156,85 161,85 166,85 173,85 178,85 184,85 189,86 193,86 201,86 205,86 209,86 214,86 220,86 227,87 231,87 235,88 239,88 244,89 248,89 252,89 258,89 262,89 266,89 270,89 275,89 280,90 284,90 290,90 294,90 299,91 304,91 309,91 313,91 318,91 322,91 328,92 332,92 336,92 340,92 345,92 350,92 354,92 358,92 363,92 367,92 372,92 376,92 381,92 385,92 390,92 395,92 399,92 403,92 407,92 411,91 415,91 419,90 419,100 0,100" fill="url(#grad)" stroke="none" />
<polyline points="0,89 4,89 8,88 14,88 18,88 23,87 27,87 31,86 35,86 39,85 43,85 48,85 52,85 56,84 61,84 65,83 70,83 74,83 78,83 82,83 88,83 94,83 99,83 103,84 107,84 111,84 116,84 120,84 124,84 128,84 132,84 137,84 141,84 147,84 151,84 156,85 161,85 166,85 173,85 178,85 184,85 189,86 193,86 201,86 205,86 209,86 214,86 220,86 227,87 231,87 235,88 239,88 244,89 248,89 252,89 258,89 262,89 266,89 270,89 275,89 280,90 284,90 290,90 294,90 299,91 304,91 309,91 313,91 318,91 322,91 328,92 332,92 336,92 340,92 345,92 350,92 354,92 358,92 363,92 367,92 372,92 376,92 381,92 385,92 390,92 395,92 399,92 403,92 407,92 411,91 415,91 419,90" stroke="#2963da" fill="none" stroke-width="3" stroke-linejoin="round" stroke-linecap="round" />
</svg>