<svg width="419" height="100" viewBox="0 0 419 100" xmlns="http://www.w3.org/2000/svg" xmlns:xlink="http://www.w3.org/1999/xlink"><defs>
<linearGradient id="grad" x1="0%" y1="0%" x2="0%" y2="100%">
<stop offset="0%" stop-color="#2963da" stop-opacity="0.40"/>
<stop offset="100%" stop-color="#070720" stop-opacity="0.20"/>
</linearGradient>
</defs>
<rect x="0" y="0" width="419" height="100" fill="none" />
<polygon points="0,91 4,92 8,92 12,92 16,92 20,92 24,92 29,92 33,92 37,92 42,92 46,92 52,90 57,90 61,91 66,91 70,90 75,89 79,89 83,89 87,90 91,90 96,88 100,89 104,91 108,91 112,91 116,92 120,92 124,92 128,90 132,90 137,90 141,89 145,89 149,89 153,90 158,91 162,91 166,91 171,91 175,91 179,92 183,91 188,90 192,89 196,90 201,90 205,91 210,91 214,91 218,91 223,91 227,91 231,91 236,91 241,90 245,90 250,90 254,90 258,90 262,90 267,90 271,91 275,91 279,91 283,91 288,90 292,90 297,90 301,90 305,89 309,89 313,90 317,90 321,89 325,89 330,89 334,88 339,89 344,89 348,89 352,89 356,89 360,89 365,89 369,89 375,89 379,88 383,88 387,88 393,88 397,88 401,89 405,88 409,89 413,88 418,88 419,88 419,100 0,100" fill="url(#grad)" stroke="none" />
<polyline points="0,91 4,92 8,92 12,92 16,92 20,92 24,92 29,92 33,92 37,92 42,92 46,92 52,90 57,90 61,91 66,91 70,90 75,89 79,89 83,89 87,90 91,90 96,88 100,89 104,91 108,91 112,91 116,92 120,92 124,92 128,90 132,90 137,90 141,89 145,89 149,89 153,90 158,91 162,91 166,91 171,91 175,91 179,92 183,91 188,90 192,89 196,90 201,90 205,91 210,91 214,91 218,91 223,91 227,91 231,91 236,91 241,90 245,90 250,90 254,90 258,90 262,90 267,90 271,91 275,91 279,91 283,91 288,90 292,90 297,90 301,90 305,89 309,89 313,90 317,90 321,89 325,89 330,89 334,88 339,89 344,89 348,89 352,89 356,89 360,89 365,89 369,89 375,89 379,88 383,88 387,88 393,88 397,88 401,89 405,88 409,89 413,88 418,88 419,88" stroke="#2963da" fill="none" stroke-width="3" stroke-linejoin="round" stroke-linecap="round" />
</svg>