<svg width="419" height="100" viewBox="0 0 419 100" xmlns="http://www.w3.org/2000/svg" xmlns:xlink="http://www.w3.org/1999/xlink"><defs>
<linearGradient id="grad" x1="0%" y1="0%" x2="0%" y2="100%">
<stop offset="0%" stop-color="#2963da" stop-opacity="0.40"/>
<stop offset="100%" stop-color="#070720" stop-opacity="0.20"/>
</linearGradient>
</defs>
<rect x="0" y="0" width="419" height="100" fill="none" />
<polygon points="0,92 4,92 10,92 14,92 18,92 23,92 27,92 32,92 37,92 41,92 45,92 50,92 54,92 58,92 62,92 66,92 70,92 75,92 79,92 83,92 87,92 91,92 96,92 100,92 104,92 108,92 112,92 117,92 121,92 126,92 130,92 134,92 139,92 143,92 154,92 158,92 162,92 166,92 170,92 174,92 179,92 183,92 188,92 192,92 201,92 205,92 211,92 215,92 219,92 223,92 227,92 231,92 235,92 240,92 244,92 248,92 252,92 257,92 261,92 265,92 269,92 276,92 281,92 285,92 291,92 295,92 299,92 303,92 307,92 311,92 316,92 320,92 324,92 328,92 332,92 337,92 341,92 346,92 350,92 354,92 359,92 363,92 369,92 373,92 377,92 382,91 386,92 390,92 396,92 402,92 406,92 410,92 414,92 419,92 419,100 0,100" fill="url(#grad)" stroke="none" />
<polyline points="0,92 4,92 10,92 14,92 18,92 23,92 27,92 32,92 37,92 41,92 45,92 50,92 54,92 58,92 62,92 66,92 70,92 75,92 79,92 83,92 87,92 91,92 96,92 100,92 104,92 108,92 112,92 117,92 121,92 126,92 130,92 134,92 139,92 143,92 154,92 158,92 162,92 166,92 170,92 174,92 179,92 183,92 188,92 192,92 201,92 205,92 211,92 215,92 219,92 223,92 227,92 231,92 235,92 240,92 244,92 248,92 252,92 257,92 261,92 265,92 269,92 276,92 281,92 285,92 291,92 295,92 299,92 303,92 307,92 311,92 316,92 320,92 324,92 328,92 332,92 337,92 341,92 346,92 350,92 354,92 359,92 363,92 369,92 373,92 377,92 382,91 386,92 390,92 396,92 402,92 406,92 410,92 414,92 419,92" stroke="#2963da" fill="none" stroke-width="3" stroke-linejoin="round" stroke-linecap="round" />
</svg>