<svg width="419" height="100" viewBox="0 0 419 100" xmlns="http://www.w3.org/2000/svg" xmlns:xlink="http://www.w3.org/1999/xlink"><defs>
<linearGradient id="grad" x1="0%" y1="0%" x2="0%" y2="100%">
<stop offset="0%" stop-color="#2963da" stop-opacity="0.40"/>
<stop offset="100%" stop-color="#070720" stop-opacity="0.20"/>
</linearGradient>
</defs>
<rect x="0" y="0" width="419" height="100" fill="none" />
<polygon points="0,91 4,90 8,90 12,88 16,86 20,88 24,87 28,87 32,88 36,88 40,87 44,89 48,88 52,88 56,89 60,89 64,90 68,90 72,88 76,87 80,87 84,88 88,89 93,89 97,90 101,90 105,90 109,89 113,86 117,84 121,86 125,87 129,88 133,88 137,88 141,88 145,88 149,86 153,87 157,87 161,89 165,90 169,90 173,90 178,91 182,88 186,85 190,85 194,87 198,90 202,91 206,90 210,91 214,91 218,90 222,91 226,91 230,90 234,90 238,90 242,91 246,90 250,91 254,91 258,92 263,92 267,91 271,91 275,91 279,90 283,88 287,88 291,88 295,89 299,89 303,90 307,89 311,87 315,86 319,87 323,90 327,89 331,89 335,90 339,89 343,90 347,87 352,84 356,85 360,87 364,87 368,89 372,90 376,90 380,90 384,90 388,90 392,91 396,91 400,91 404,91 408,91 412,92 416,92 419,92 419,100 0,100" fill="url(#grad)" stroke="none" />
<polyline points="0,91 4,90 8,90 12,88 16,86 20,88 24,87 28,87 32,88 36,88 40,87 44,89 48,88 52,88 56,89 60,89 64,90 68,90 72,88 76,87 80,87 84,88 88,89 93,89 97,90 101,90 105,90 109,89 113,86 117,84 121,86 125,87 129,88 133,88 137,88 141,88 145,88 149,86 153,87 157,87 161,89 165,90 169,90 173,90 178,91 182,88 186,85 190,85 194,87 198,90 202,91 206,90 210,91 214,91 218,90 222,91 226,91 230,90 234,90 238,90 242,91 246,90 250,91 254,91 258,92 263,92 267,91 271,91 275,91 279,90 283,88 287,88 291,88 295,89 299,89 303,90 307,89 311,87 315,86 319,87 323,90 327,89 331,89 335,90 339,89 343,90 347,87 352,84 356,85 360,87 364,87 368,89 372,90 376,90 380,90 384,90 388,90 392,91 396,91 400,91 404,91 408,91 412,92 416,92 419,92" stroke="#2963da" fill="none" stroke-width="3" stroke-linejoin="round" stroke-linecap="round" />
</svg>