<svg width="419" height="100" viewBox="0 0 419 100" xmlns="http://www.w3.org/2000/svg" xmlns:xlink="http://www.w3.org/1999/xlink"><defs>
<linearGradient id="grad" x1="0%" y1="0%" x2="0%" y2="100%">
<stop offset="0%" stop-color="#2963da" stop-opacity="0.40"/>
<stop offset="100%" stop-color="#070720" stop-opacity="0.20"/>
</linearGradient>
</defs>
<rect x="0" y="0" width="419" height="100" fill="none" />
<polygon points="0,87 4,87 8,87 12,87 16,87 20,87 24,87 28,87 32,87 36,87 40,87 45,87 49,87 53,87 57,87 61,86 65,88 69,88 73,87 77,88 82,89 86,88 90,87 94,89 98,87 102,86 106,86 110,90 114,91 118,91 122,91 127,91 131,91 135,91 139,91 143,90 147,91 151,90 155,86 159,85 163,85 168,86 172,88 176,89 180,88 184,88 188,87 192,86 196,85 200,82 204,79 208,82 212,82 217,87 221,90 225,91 229,92 233,92 237,91 241,88 245,84 249,83 253,83 257,83 261,82 265,82 269,82 274,80 278,81 282,83 286,83 290,83 294,83 298,82 302,82 306,82 310,82 314,82 319,81 323,81 327,81 331,79 335,76 339,72 343,71 347,72 351,71 356,69 360,69 364,68 368,70 372,67 376,68 380,69 384,67 388,67 392,66 397,69 401,70 405,70 409,70 413,70 417,70 419,70 419,100 0,100" fill="url(#grad)" stroke="none" />
<polyline points="0,87 4,87 8,87 12,87 16,87 20,87 24,87 28,87 32,87 36,87 40,87 45,87 49,87 53,87 57,87 61,86 65,88 69,88 73,87 77,88 82,89 86,88 90,87 94,89 98,87 102,86 106,86 110,90 114,91 118,91 122,91 127,91 131,91 135,91 139,91 143,90 147,91 151,90 155,86 159,85 163,85 168,86 172,88 176,89 180,88 184,88 188,87 192,86 196,85 200,82 204,79 208,82 212,82 217,87 221,90 225,91 229,92 233,92 237,91 241,88 245,84 249,83 253,83 257,83 261,82 265,82 269,82 274,80 278,81 282,83 286,83 290,83 294,83 298,82 302,82 306,82 310,82 314,82 319,81 323,81 327,81 331,79 335,76 339,72 343,71 347,72 351,71 356,69 360,69 364,68 368,70 372,67 376,68 380,69 384,67 388,67 392,66 397,69 401,70 405,70 409,70 413,70 417,70 419,70" stroke="#2963da" fill="none" stroke-width="3" stroke-linejoin="round" stroke-linecap="round" />
</svg>