<svg width="419" height="100" viewBox="0 0 419 100" xmlns="http://www.w3.org/2000/svg" xmlns:xlink="http://www.w3.org/1999/xlink"><defs>
<linearGradient id="grad" x1="0%" y1="0%" x2="0%" y2="100%">
<stop offset="0%" stop-color="#2963da" stop-opacity="0.40"/>
<stop offset="100%" stop-color="#070720" stop-opacity="0.20"/>
</linearGradient>
</defs>
<rect x="0" y="0" width="419" height="100" fill="none" />
<polygon points="0,91 4,91 8,91 12,91 16,91 20,90 24,90 28,89 32,89 36,88 40,89 44,89 48,89 52,89 56,88 60,89 64,88 68,88 72,88 76,87 80,88 85,88 89,88 93,89 97,89 101,89 105,90 109,90 113,91 117,91 121,91 125,91 129,91 133,90 137,91 141,91 145,91 149,91 153,91 157,91 161,91 165,92 169,92 174,92 178,92 182,91 186,92 190,92 194,92 198,92 202,92 206,92 210,92 214,92 218,91 222,92 226,91 230,90 234,91 238,91 242,91 246,91 250,91 254,90 258,90 262,90 267,89 271,89 275,90 279,89 283,91 287,90 291,91 295,88 299,87 303,86 307,89 311,89 315,88 319,88 323,88 327,87 331,88 335,85 339,88 343,89 347,89 352,86 356,86 360,85 364,85 368,84 372,83 376,83 380,83 384,84 388,85 392,85 396,86 400,87 404,87 408,87 412,85 416,81 419,79 419,100 0,100" fill="url(#grad)" stroke="none" />
<polyline points="0,91 4,91 8,91 12,91 16,91 20,90 24,90 28,89 32,89 36,88 40,89 44,89 48,89 52,89 56,88 60,89 64,88 68,88 72,88 76,87 80,88 85,88 89,88 93,89 97,89 101,89 105,90 109,90 113,91 117,91 121,91 125,91 129,91 133,90 137,91 141,91 145,91 149,91 153,91 157,91 161,91 165,92 169,92 174,92 178,92 182,91 186,92 190,92 194,92 198,92 202,92 206,92 210,92 214,92 218,91 222,92 226,91 230,90 234,91 238,91 242,91 246,91 250,91 254,90 258,90 262,90 267,89 271,89 275,90 279,89 283,91 287,90 291,91 295,88 299,87 303,86 307,89 311,89 315,88 319,88 323,88 327,87 331,88 335,85 339,88 343,89 347,89 352,86 356,86 360,85 364,85 368,84 372,83 376,83 380,83 384,84 388,85 392,85 396,86 400,87 404,87 408,87 412,85 416,81 419,79" stroke="#2963da" fill="none" stroke-width="3" stroke-linejoin="round" stroke-linecap="round" />
</svg>