<svg width="419" height="100" viewBox="0 0 419 100" xmlns="http://www.w3.org/2000/svg" xmlns:xlink="http://www.w3.org/1999/xlink"><defs>
<linearGradient id="grad" x1="0%" y1="0%" x2="0%" y2="100%">
<stop offset="0%" stop-color="#2963da" stop-opacity="0.40"/>
<stop offset="100%" stop-color="#070720" stop-opacity="0.20"/>
</linearGradient>
</defs>
<rect x="0" y="0" width="419" height="100" fill="none" />
<polygon points="0,92 4,92 9,92 13,92 17,92 21,92 26,92 30,92 37,91 41,92 45,91 50,91 54,91 59,91 63,90 70,91 74,91 80,91 89,91 94,92 100,91 105,91 109,91 114,91 118,91 123,91 127,91 132,90 136,91 142,91 147,92 152,92 156,92 160,92 165,92 170,92 174,91 179,91 183,91 187,91 191,92 195,92 200,92 205,92 209,92 213,92 217,92 221,92 226,92 231,92 236,92 240,92 244,92 248,92 252,92 256,92 260,92 265,92 269,92 273,92 277,92 283,92 288,92 296,92 302,91 306,91 311,90 316,90 322,89 327,88 332,88 336,87 340,86 344,86 348,84 352,83 357,82 361,81 365,82 370,83 374,84 378,85 383,86 387,86 391,84 395,77 399,73 403,76 407,68 411,60 416,50 419,45 419,100 0,100" fill="url(#grad)" stroke="none" />
<polyline points="0,92 4,92 9,92 13,92 17,92 21,92 26,92 30,92 37,91 41,92 45,91 50,91 54,91 59,91 63,90 70,91 74,91 80,91 89,91 94,92 100,91 105,91 109,91 114,91 118,91 123,91 127,91 132,90 136,91 142,91 147,92 152,92 156,92 160,92 165,92 170,92 174,91 179,91 183,91 187,91 191,92 195,92 200,92 205,92 209,92 213,92 217,92 221,92 226,92 231,92 236,92 240,92 244,92 248,92 252,92 256,92 260,92 265,92 269,92 273,92 277,92 283,92 288,92 296,92 302,91 306,91 311,90 316,90 322,89 327,88 332,88 336,87 340,86 344,86 348,84 352,83 357,82 361,81 365,82 370,83 374,84 378,85 383,86 387,86 391,84 395,77 399,73 403,76 407,68 411,60 416,50 419,45" stroke="#2963da" fill="none" stroke-width="3" stroke-linejoin="round" stroke-linecap="round" />
</svg>