<svg width="419" height="100" viewBox="0 0 419 100" xmlns="http://www.w3.org/2000/svg" xmlns:xlink="http://www.w3.org/1999/xlink"><defs>
<linearGradient id="grad" x1="0%" y1="0%" x2="0%" y2="100%">
<stop offset="0%" stop-color="#2963da" stop-opacity="0.40"/>
<stop offset="100%" stop-color="#070720" stop-opacity="0.20"/>
</linearGradient>
</defs>
<rect x="0" y="0" width="419" height="100" fill="none" />
<polygon points="0,92 4,92 8,92 12,92 16,92 20,92 24,92 29,92 33,92 37,92 41,92 45,92 49,91 53,90 57,90 62,89 66,89 70,88 74,87 78,88 82,88 86,85 90,84 94,85 99,87 103,88 107,88 111,88 115,89 119,89 123,88 127,88 131,88 135,87 140,87 144,87 148,87 152,87 156,86 160,85 164,84 168,84 173,81 177,82 181,81 185,82 189,85 193,86 197,86 202,83 206,76 210,70 214,64 218,60 222,55 226,55 230,53 234,48 238,43 242,37 246,32 250,35 254,39 258,38 262,41 267,45 271,51 275,53 279,57 283,62 287,69 291,76 295,81 299,81 303,81 307,82 312,82 316,81 320,81 324,79 328,80 332,84 336,84 340,79 344,75 348,71 352,67 357,63 361,57 365,53 369,51 373,53 377,56 381,51 385,52 389,54 393,54 397,53 401,52 405,52 409,51 413,53 418,55 419,55 419,100 0,100" fill="url(#grad)" stroke="none" />
<polyline points="0,92 4,92 8,92 12,92 16,92 20,92 24,92 29,92 33,92 37,92 41,92 45,92 49,91 53,90 57,90 62,89 66,89 70,88 74,87 78,88 82,88 86,85 90,84 94,85 99,87 103,88 107,88 111,88 115,89 119,89 123,88 127,88 131,88 135,87 140,87 144,87 148,87 152,87 156,86 160,85 164,84 168,84 173,81 177,82 181,81 185,82 189,85 193,86 197,86 202,83 206,76 210,70 214,64 218,60 222,55 226,55 230,53 234,48 238,43 242,37 246,32 250,35 254,39 258,38 262,41 267,45 271,51 275,53 279,57 283,62 287,69 291,76 295,81 299,81 303,81 307,82 312,82 316,81 320,81 324,79 328,80 332,84 336,84 340,79 344,75 348,71 352,67 357,63 361,57 365,53 369,51 373,53 377,56 381,51 385,52 389,54 393,54 397,53 401,52 405,52 409,51 413,53 418,55 419,55" stroke="#2963da" fill="none" stroke-width="3" stroke-linejoin="round" stroke-linecap="round" />
</svg>