<svg width="419" height="100" viewBox="0 0 419 100" xmlns="http://www.w3.org/2000/svg" xmlns:xlink="http://www.w3.org/1999/xlink"><defs>
<linearGradient id="grad" x1="0%" y1="0%" x2="0%" y2="100%">
<stop offset="0%" stop-color="#2963da" stop-opacity="0.40"/>
<stop offset="100%" stop-color="#070720" stop-opacity="0.20"/>
</linearGradient>
</defs>
<rect x="0" y="0" width="419" height="100" fill="none" />
<polygon points="0,91 5,91 9,91 13,91 19,91 23,91 28,91 35,92 39,92 44,92 50,92 54,92 58,92 64,92 71,91 75,91 79,91 84,90 89,90 94,90 98,90 104,90 109,90 113,90 119,90 124,90 129,89 133,89 137,89 141,89 146,89 150,89 156,89 160,89 166,89 172,89 178,88 185,87 189,87 193,86 197,86 202,85 207,85 212,84 216,83 222,82 227,82 233,81 239,81 243,80 249,79 254,79 259,78 263,78 269,77 273,77 278,76 283,76 288,75 293,74 298,74 302,73 306,72 310,72 315,71 320,71 327,71 333,70 338,70 343,69 348,69 352,68 358,68 363,68 368,67 372,67 377,67 382,67 386,67 393,67 398,67 402,67 406,66 412,66 416,66 419,65 419,100 0,100" fill="url(#grad)" stroke="none" />
<polyline points="0,91 5,91 9,91 13,91 19,91 23,91 28,91 35,92 39,92 44,92 50,92 54,92 58,92 64,92 71,91 75,91 79,91 84,90 89,90 94,90 98,90 104,90 109,90 113,90 119,90 124,90 129,89 133,89 137,89 141,89 146,89 150,89 156,89 160,89 166,89 172,89 178,88 185,87 189,87 193,86 197,86 202,85 207,85 212,84 216,83 222,82 227,82 233,81 239,81 243,80 249,79 254,79 259,78 263,78 269,77 273,77 278,76 283,76 288,75 293,74 298,74 302,73 306,72 310,72 315,71 320,71 327,71 333,70 338,70 343,69 348,69 352,68 358,68 363,68 368,67 372,67 377,67 382,67 386,67 393,67 398,67 402,67 406,66 412,66 416,66 419,65" stroke="#2963da" fill="none" stroke-width="3" stroke-linejoin="round" stroke-linecap="round" />
</svg>