<svg width="419" height="100" viewBox="0 0 419 100" xmlns="http://www.w3.org/2000/svg" xmlns:xlink="http://www.w3.org/1999/xlink"><defs>
<linearGradient id="grad" x1="0%" y1="0%" x2="0%" y2="100%">
<stop offset="0%" stop-color="#2963da" stop-opacity="0.40"/>
<stop offset="100%" stop-color="#070720" stop-opacity="0.20"/>
</linearGradient>
</defs>
<rect x="0" y="0" width="419" height="100" fill="none" />
<polygon points="0,91 4,91 8,90 12,89 16,85 20,87 24,87 28,90 32,92 37,91 41,87 45,88 49,89 54,91 58,92 62,92 66,92 71,92 75,92 79,92 84,92 88,92 92,92 96,92 101,92 105,92 109,92 113,92 117,92 122,92 126,92 130,91 134,91 138,91 142,91 147,90 151,90 155,89 159,89 163,88 167,88 172,88 176,88 180,88 184,88 188,88 192,87 196,87 201,87 205,88 209,87 213,87 217,87 221,87 226,87 230,86 235,86 239,86 243,85 247,85 251,85 256,85 260,85 264,85 268,85 273,84 277,84 281,85 285,85 289,85 293,85 297,84 301,83 305,83 309,83 314,81 318,79 322,77 326,74 330,70 334,69 338,70 342,71 346,72 350,70 355,70 359,71 363,71 367,72 371,72 375,73 379,74 384,75 388,76 392,77 396,78 400,79 404,79 408,78 412,79 416,79 419,79 419,100 0,100" fill="url(#grad)" stroke="none" />
<polyline points="0,91 4,91 8,90 12,89 16,85 20,87 24,87 28,90 32,92 37,91 41,87 45,88 49,89 54,91 58,92 62,92 66,92 71,92 75,92 79,92 84,92 88,92 92,92 96,92 101,92 105,92 109,92 113,92 117,92 122,92 126,92 130,91 134,91 138,91 142,91 147,90 151,90 155,89 159,89 163,88 167,88 172,88 176,88 180,88 184,88 188,88 192,87 196,87 201,87 205,88 209,87 213,87 217,87 221,87 226,87 230,86 235,86 239,86 243,85 247,85 251,85 256,85 260,85 264,85 268,85 273,84 277,84 281,85 285,85 289,85 293,85 297,84 301,83 305,83 309,83 314,81 318,79 322,77 326,74 330,70 334,69 338,70 342,71 346,72 350,70 355,70 359,71 363,71 367,72 371,72 375,73 379,74 384,75 388,76 392,77 396,78 400,79 404,79 408,78 412,79 416,79 419,79" stroke="#2963da" fill="none" stroke-width="3" stroke-linejoin="round" stroke-linecap="round" />
</svg>