<svg width="419" height="100" viewBox="0 0 419 100" xmlns="http://www.w3.org/2000/svg" xmlns:xlink="http://www.w3.org/1999/xlink"><defs>
<linearGradient id="grad" x1="0%" y1="0%" x2="0%" y2="100%">
<stop offset="0%" stop-color="#2963da" stop-opacity="0.40"/>
<stop offset="100%" stop-color="#070720" stop-opacity="0.20"/>
</linearGradient>
</defs>
<rect x="0" y="0" width="419" height="100" fill="none" />
<polygon points="0,90 4,87 8,87 12,87 16,88 20,90 24,89 28,88 32,89 37,91 41,91 45,88 49,88 54,86 58,87 62,87 66,86 70,86 75,87 79,88 83,90 87,91 91,91 95,91 99,89 103,89 107,88 112,89 116,87 120,88 125,88 129,88 133,88 137,88 141,87 145,88 149,88 153,88 157,88 162,88 166,91 170,92 174,92 178,92 182,90 187,92 191,90 195,89 199,88 203,88 208,88 212,88 216,91 220,89 224,88 228,88 232,88 236,89 240,91 244,90 249,91 253,91 257,91 261,88 265,86 269,90 273,91 277,92 281,92 285,92 289,92 294,92 298,88 302,89 307,86 311,86 315,86 319,88 323,92 327,92 331,92 335,92 339,92 343,92 347,90 352,87 356,87 360,88 364,92 368,92 372,92 376,92 380,92 384,92 388,90 392,87 396,87 401,88 405,92 409,92 413,92 417,92 419,92 419,100 0,100" fill="url(#grad)" stroke="none" />
<polyline points="0,90 4,87 8,87 12,87 16,88 20,90 24,89 28,88 32,89 37,91 41,91 45,88 49,88 54,86 58,87 62,87 66,86 70,86 75,87 79,88 83,90 87,91 91,91 95,91 99,89 103,89 107,88 112,89 116,87 120,88 125,88 129,88 133,88 137,88 141,87 145,88 149,88 153,88 157,88 162,88 166,91 170,92 174,92 178,92 182,90 187,92 191,90 195,89 199,88 203,88 208,88 212,88 216,91 220,89 224,88 228,88 232,88 236,89 240,91 244,90 249,91 253,91 257,91 261,88 265,86 269,90 273,91 277,92 281,92 285,92 289,92 294,92 298,88 302,89 307,86 311,86 315,86 319,88 323,92 327,92 331,92 335,92 339,92 343,92 347,90 352,87 356,87 360,88 364,92 368,92 372,92 376,92 380,92 384,92 388,90 392,87 396,87 401,88 405,92 409,92 413,92 417,92 419,92" stroke="#2963da" fill="none" stroke-width="3" stroke-linejoin="round" stroke-linecap="round" />
</svg>