<svg width="419" height="100" viewBox="0 0 419 100" xmlns="http://www.w3.org/2000/svg" xmlns:xlink="http://www.w3.org/1999/xlink"><defs>
<linearGradient id="grad" x1="0%" y1="0%" x2="0%" y2="100%">
<stop offset="0%" stop-color="#2963da" stop-opacity="0.40"/>
<stop offset="100%" stop-color="#070720" stop-opacity="0.20"/>
</linearGradient>
</defs>
<rect x="0" y="0" width="419" height="100" fill="none" />
<polygon points="0,91 4,92 8,92 12,92 16,92 20,92 24,92 28,92 32,92 36,92 40,92 44,92 48,91 52,90 56,89 60,89 64,88 68,86 72,84 76,80 80,76 84,72 88,72 92,77 96,80 101,78 105,74 109,69 113,64 117,69 121,73 125,78 129,79 133,77 137,74 141,71 145,75 149,77 153,82 157,85 161,87 165,88 169,89 173,88 177,87 181,89 185,90 189,90 194,91 198,90 202,89 206,88 210,82 214,81 218,76 222,72 226,68 230,66 234,71 238,74 242,78 246,78 250,76 254,73 258,72 262,76 266,78 270,82 274,85 278,87 282,89 286,89 291,88 295,88 299,89 303,90 307,90 311,91 315,90 319,89 323,85 327,82 331,85 335,88 339,90 343,90 347,89 351,86 355,82 359,85 363,87 367,90 371,90 375,91 379,92 383,92 387,92 392,92 396,92 400,92 404,92 408,92 412,92 416,92 419,92 419,100 0,100" fill="url(#grad)" stroke="none" />
<polyline points="0,91 4,92 8,92 12,92 16,92 20,92 24,92 28,92 32,92 36,92 40,92 44,92 48,91 52,90 56,89 60,89 64,88 68,86 72,84 76,80 80,76 84,72 88,72 92,77 96,80 101,78 105,74 109,69 113,64 117,69 121,73 125,78 129,79 133,77 137,74 141,71 145,75 149,77 153,82 157,85 161,87 165,88 169,89 173,88 177,87 181,89 185,90 189,90 194,91 198,90 202,89 206,88 210,82 214,81 218,76 222,72 226,68 230,66 234,71 238,74 242,78 246,78 250,76 254,73 258,72 262,76 266,78 270,82 274,85 278,87 282,89 286,89 291,88 295,88 299,89 303,90 307,90 311,91 315,90 319,89 323,85 327,82 331,85 335,88 339,90 343,90 347,89 351,86 355,82 359,85 363,87 367,90 371,90 375,91 379,92 383,92 387,92 392,92 396,92 400,92 404,92 408,92 412,92 416,92 419,92" stroke="#2963da" fill="none" stroke-width="3" stroke-linejoin="round" stroke-linecap="round" />
</svg>