<svg width="419" height="100" viewBox="0 0 419 100" xmlns="http://www.w3.org/2000/svg" xmlns:xlink="http://www.w3.org/1999/xlink"><defs>
<linearGradient id="grad" x1="0%" y1="0%" x2="0%" y2="100%">
<stop offset="0%" stop-color="#2963da" stop-opacity="0.40"/>
<stop offset="100%" stop-color="#070720" stop-opacity="0.20"/>
</linearGradient>
</defs>
<rect x="0" y="0" width="419" height="100" fill="none" />
<polygon points="0,88 4,86 8,88 12,86 16,85 20,87 24,89 28,88 32,86 36,87 40,90 44,91 48,91 52,88 56,86 60,87 64,83 68,80 72,77 76,81 80,84 84,84 88,83 93,86 97,89 101,91 105,92 109,92 113,88 117,85 121,86 125,86 129,87 133,85 137,87 141,89 145,88 149,85 153,86 157,89 161,91 165,91 169,89 173,86 177,85 182,85 186,82 190,78 194,79 198,83 202,85 206,83 210,85 214,88 218,90 222,92 226,92 230,90 234,87 238,86 242,86 246,86 250,85 254,85 258,88 263,89 267,87 271,86 275,88 279,91 283,91 287,90 291,87 295,85 299,85 303,79 307,81 311,84 315,79 319,79 323,82 327,84 331,86 335,81 339,78 343,80 347,84 351,85 355,83 360,86 364,89 368,91 372,92 376,92 380,89 384,86 388,86 392,86 396,87 400,87 404,86 408,88 412,89 416,90 419,89 419,100 0,100" fill="url(#grad)" stroke="none" />
<polyline points="0,88 4,86 8,88 12,86 16,85 20,87 24,89 28,88 32,86 36,87 40,90 44,91 48,91 52,88 56,86 60,87 64,83 68,80 72,77 76,81 80,84 84,84 88,83 93,86 97,89 101,91 105,92 109,92 113,88 117,85 121,86 125,86 129,87 133,85 137,87 141,89 145,88 149,85 153,86 157,89 161,91 165,91 169,89 173,86 177,85 182,85 186,82 190,78 194,79 198,83 202,85 206,83 210,85 214,88 218,90 222,92 226,92 230,90 234,87 238,86 242,86 246,86 250,85 254,85 258,88 263,89 267,87 271,86 275,88 279,91 283,91 287,90 291,87 295,85 299,85 303,79 307,81 311,84 315,79 319,79 323,82 327,84 331,86 335,81 339,78 343,80 347,84 351,85 355,83 360,86 364,89 368,91 372,92 376,92 380,89 384,86 388,86 392,86 396,87 400,87 404,86 408,88 412,89 416,90 419,89" stroke="#2963da" fill="none" stroke-width="3" stroke-linejoin="round" stroke-linecap="round" />
</svg>