<svg width="419" height="100" viewBox="0 0 419 100" xmlns="http://www.w3.org/2000/svg" xmlns:xlink="http://www.w3.org/1999/xlink"><defs>
<linearGradient id="grad" x1="0%" y1="0%" x2="0%" y2="100%">
<stop offset="0%" stop-color="#2963da" stop-opacity="0.40"/>
<stop offset="100%" stop-color="#070720" stop-opacity="0.20"/>
</linearGradient>
</defs>
<rect x="0" y="0" width="419" height="100" fill="none" />
<polygon points="0,92 4,92 8,92 12,92 17,92 21,92 25,91 29,91 33,91 37,91 42,91 46,91 50,90 55,90 59,90 64,90 69,90 73,90 79,90 83,91 87,91 92,90 97,90 101,91 106,91 111,91 115,90 121,91 125,91 132,91 136,91 140,90 145,90 150,90 156,90 160,91 164,91 170,91 175,91 179,91 183,91 188,91 192,91 196,91 200,92 205,92 209,92 213,92 218,92 223,92 227,91 234,91 238,91 243,91 248,91 253,91 259,91 263,91 267,91 272,91 276,91 280,91 285,91 289,91 294,91 298,91 302,91 306,91 310,90 315,90 319,90 325,90 329,90 333,90 338,90 342,90 349,90 353,90 357,90 361,90 366,90 370,90 374,91 379,91 383,91 388,91 392,91 397,92 401,92 406,92 410,92 414,92 418,92 419,92 419,100 0,100" fill="url(#grad)" stroke="none" />
<polyline points="0,92 4,92 8,92 12,92 17,92 21,92 25,91 29,91 33,91 37,91 42,91 46,91 50,90 55,90 59,90 64,90 69,90 73,90 79,90 83,91 87,91 92,90 97,90 101,91 106,91 111,91 115,90 121,91 125,91 132,91 136,91 140,90 145,90 150,90 156,90 160,91 164,91 170,91 175,91 179,91 183,91 188,91 192,91 196,91 200,92 205,92 209,92 213,92 218,92 223,92 227,91 234,91 238,91 243,91 248,91 253,91 259,91 263,91 267,91 272,91 276,91 280,91 285,91 289,91 294,91 298,91 302,91 306,91 310,90 315,90 319,90 325,90 329,90 333,90 338,90 342,90 349,90 353,90 357,90 361,90 366,90 370,90 374,91 379,91 383,91 388,91 392,91 397,92 401,92 406,92 410,92 414,92 418,92 419,92" stroke="#2963da" fill="none" stroke-width="3" stroke-linejoin="round" stroke-linecap="round" />
</svg>