<svg width="419" height="100" viewBox="0 0 419 100" xmlns="http://www.w3.org/2000/svg" xmlns:xlink="http://www.w3.org/1999/xlink"><defs>
<linearGradient id="grad" x1="0%" y1="0%" x2="0%" y2="100%">
<stop offset="0%" stop-color="#2963da" stop-opacity="0.40"/>
<stop offset="100%" stop-color="#070720" stop-opacity="0.20"/>
</linearGradient>
</defs>
<rect x="0" y="0" width="419" height="100" fill="none" />
<polygon points="0,79 4,80 8,80 12,79 16,77 20,75 24,74 28,72 32,71 36,70 40,71 44,73 48,75 52,76 56,78 60,79 65,81 69,83 73,84 77,84 81,84 85,84 89,86 93,87 97,87 101,87 105,85 109,82 113,79 117,77 121,74 125,71 129,68 133,65 137,62 141,62 146,65 150,67 154,71 158,74 162,78 166,80 170,80 174,81 178,83 182,84 186,84 190,85 194,85 198,85 202,86 206,86 211,86 215,86 219,86 223,86 227,86 231,87 235,89 239,91 243,91 247,92 251,92 255,92 259,92 263,92 267,92 272,91 276,91 280,91 284,90 288,90 292,90 296,90 300,89 304,89 308,89 312,89 316,88 320,87 324,86 328,85 332,85 336,84 340,84 344,85 348,85 353,85 357,84 361,83 365,82 369,81 373,81 377,81 381,82 385,82 389,81 393,81 397,81 401,81 405,81 409,80 413,80 417,80 419,80 419,100 0,100" fill="url(#grad)" stroke="none" />
<polyline points="0,79 4,80 8,80 12,79 16,77 20,75 24,74 28,72 32,71 36,70 40,71 44,73 48,75 52,76 56,78 60,79 65,81 69,83 73,84 77,84 81,84 85,84 89,86 93,87 97,87 101,87 105,85 109,82 113,79 117,77 121,74 125,71 129,68 133,65 137,62 141,62 146,65 150,67 154,71 158,74 162,78 166,80 170,80 174,81 178,83 182,84 186,84 190,85 194,85 198,85 202,86 206,86 211,86 215,86 219,86 223,86 227,86 231,87 235,89 239,91 243,91 247,92 251,92 255,92 259,92 263,92 267,92 272,91 276,91 280,91 284,90 288,90 292,90 296,90 300,89 304,89 308,89 312,89 316,88 320,87 324,86 328,85 332,85 336,84 340,84 344,85 348,85 353,85 357,84 361,83 365,82 369,81 373,81 377,81 381,82 385,82 389,81 393,81 397,81 401,81 405,81 409,80 413,80 417,80 419,80" stroke="#2963da" fill="none" stroke-width="3" stroke-linejoin="round" stroke-linecap="round" />
</svg>