<svg width="419" height="100" viewBox="0 0 419 100" xmlns="http://www.w3.org/2000/svg" xmlns:xlink="http://www.w3.org/1999/xlink"><defs>
<linearGradient id="grad" x1="0%" y1="0%" x2="0%" y2="100%">
<stop offset="0%" stop-color="#2963da" stop-opacity="0.40"/>
<stop offset="100%" stop-color="#070720" stop-opacity="0.20"/>
</linearGradient>
</defs>
<rect x="0" y="0" width="419" height="100" fill="none" />
<polygon points="0,77 4,76 8,74 12,73 16,74 20,79 24,76 28,77 32,79 36,81 40,82 44,83 48,84 52,84 56,83 60,83 65,86 69,85 73,85 77,85 81,84 85,84 89,84 93,83 97,84 101,84 105,83 109,84 113,82 117,83 121,84 125,82 129,81 134,80 138,79 142,75 146,76 150,77 154,80 158,79 162,76 166,78 170,77 174,76 178,75 182,73 186,72 190,71 195,75 199,79 203,80 207,84 211,85 215,87 219,89 223,88 227,84 231,83 235,82 239,81 243,80 247,82 252,83 256,83 260,84 264,86 268,89 272,92 276,92 280,92 284,91 288,91 292,89 296,89 300,88 305,88 309,88 313,87 317,85 321,82 325,86 329,82 333,81 337,81 341,83 345,86 349,85 353,84 358,79 362,79 366,80 370,83 374,84 378,83 382,81 386,78 390,77 394,81 398,83 402,83 406,82 410,84 414,84 419,76 419,100 0,100" fill="url(#grad)" stroke="none" />
<polyline points="0,77 4,76 8,74 12,73 16,74 20,79 24,76 28,77 32,79 36,81 40,82 44,83 48,84 52,84 56,83 60,83 65,86 69,85 73,85 77,85 81,84 85,84 89,84 93,83 97,84 101,84 105,83 109,84 113,82 117,83 121,84 125,82 129,81 134,80 138,79 142,75 146,76 150,77 154,80 158,79 162,76 166,78 170,77 174,76 178,75 182,73 186,72 190,71 195,75 199,79 203,80 207,84 211,85 215,87 219,89 223,88 227,84 231,83 235,82 239,81 243,80 247,82 252,83 256,83 260,84 264,86 268,89 272,92 276,92 280,92 284,91 288,91 292,89 296,89 300,88 305,88 309,88 313,87 317,85 321,82 325,86 329,82 333,81 337,81 341,83 345,86 349,85 353,84 358,79 362,79 366,80 370,83 374,84 378,83 382,81 386,78 390,77 394,81 398,83 402,83 406,82 410,84 414,84 419,76" stroke="#2963da" fill="none" stroke-width="3" stroke-linejoin="round" stroke-linecap="round" />
</svg>