<svg width="419" height="100" viewBox="0 0 419 100" xmlns="http://www.w3.org/2000/svg" xmlns:xlink="http://www.w3.org/1999/xlink"><defs>
<linearGradient id="grad" x1="0%" y1="0%" x2="0%" y2="100%">
<stop offset="0%" stop-color="#2963da" stop-opacity="0.40"/>
<stop offset="100%" stop-color="#070720" stop-opacity="0.20"/>
</linearGradient>
</defs>
<rect x="0" y="0" width="419" height="100" fill="none" />
<polygon points="0,92 4,92 8,92 12,91 16,91 20,90 24,90 28,89 32,88 36,85 40,84 44,82 48,81 52,83 57,82 61,82 65,82 69,80 73,77 77,75 81,73 85,71 89,71 93,72 97,74 101,74 105,76 109,80 113,81 117,82 121,81 125,81 129,83 134,82 138,82 142,83 146,83 150,84 154,85 158,85 162,85 166,86 170,87 174,87 178,86 182,86 186,89 190,92 195,91 199,89 203,86 207,87 211,86 215,86 219,87 223,86 227,85 231,85 235,86 239,87 243,87 247,89 251,91 256,90 260,91 264,91 268,88 272,85 276,87 280,85 284,81 288,78 292,77 296,74 300,75 304,76 308,76 312,77 316,77 321,76 325,76 329,79 333,82 337,84 341,84 345,86 349,84 353,83 357,83 361,82 365,83 369,85 373,84 377,84 381,81 385,78 389,79 393,79 397,81 402,80 406,76 410,71 414,66 418,63 419,62 419,100 0,100" fill="url(#grad)" stroke="none" />
<polyline points="0,92 4,92 8,92 12,91 16,91 20,90 24,90 28,89 32,88 36,85 40,84 44,82 48,81 52,83 57,82 61,82 65,82 69,80 73,77 77,75 81,73 85,71 89,71 93,72 97,74 101,74 105,76 109,80 113,81 117,82 121,81 125,81 129,83 134,82 138,82 142,83 146,83 150,84 154,85 158,85 162,85 166,86 170,87 174,87 178,86 182,86 186,89 190,92 195,91 199,89 203,86 207,87 211,86 215,86 219,87 223,86 227,85 231,85 235,86 239,87 243,87 247,89 251,91 256,90 260,91 264,91 268,88 272,85 276,87 280,85 284,81 288,78 292,77 296,74 300,75 304,76 308,76 312,77 316,77 321,76 325,76 329,79 333,82 337,84 341,84 345,86 349,84 353,83 357,83 361,82 365,83 369,85 373,84 377,84 381,81 385,78 389,79 393,79 397,81 402,80 406,76 410,71 414,66 418,63 419,62" stroke="#2963da" fill="none" stroke-width="3" stroke-linejoin="round" stroke-linecap="round" />
</svg>