<svg width="419" height="100" viewBox="0 0 419 100" xmlns="http://www.w3.org/2000/svg" xmlns:xlink="http://www.w3.org/1999/xlink"><defs>
<linearGradient id="grad" x1="0%" y1="0%" x2="0%" y2="100%">
<stop offset="0%" stop-color="#2963da" stop-opacity="0.40"/>
<stop offset="100%" stop-color="#070720" stop-opacity="0.20"/>
</linearGradient>
</defs>
<rect x="0" y="0" width="419" height="100" fill="none" />
<polygon points="0,92 4,91 8,87 12,85 16,88 20,91 24,91 28,89 32,91 36,92 40,91 44,89 48,90 53,87 57,82 61,80 65,80 69,79 73,82 77,87 81,91 85,92 89,91 93,91 98,92 102,91 106,92 110,92 114,91 118,92 122,92 126,92 130,91 134,89 138,89 142,88 146,86 150,85 154,85 158,83 162,78 167,77 171,78 175,79 179,81 183,84 187,86 191,89 195,91 199,92 203,92 207,91 211,88 215,86 219,86 224,84 228,80 232,83 236,86 240,89 244,90 248,90 252,91 256,91 260,91 265,91 269,87 273,82 277,78 281,79 285,81 289,83 293,84 298,85 302,86 306,89 310,91 314,92 318,92 323,90 327,90 331,91 335,91 339,91 343,91 347,85 351,81 355,77 359,80 363,84 367,89 372,91 376,91 380,92 384,92 388,92 392,92 396,88 400,85 404,86 408,89 412,91 416,92 419,92 419,100 0,100" fill="url(#grad)" stroke="none" />
<polyline points="0,92 4,91 8,87 12,85 16,88 20,91 24,91 28,89 32,91 36,92 40,91 44,89 48,90 53,87 57,82 61,80 65,80 69,79 73,82 77,87 81,91 85,92 89,91 93,91 98,92 102,91 106,92 110,92 114,91 118,92 122,92 126,92 130,91 134,89 138,89 142,88 146,86 150,85 154,85 158,83 162,78 167,77 171,78 175,79 179,81 183,84 187,86 191,89 195,91 199,92 203,92 207,91 211,88 215,86 219,86 224,84 228,80 232,83 236,86 240,89 244,90 248,90 252,91 256,91 260,91 265,91 269,87 273,82 277,78 281,79 285,81 289,83 293,84 298,85 302,86 306,89 310,91 314,92 318,92 323,90 327,90 331,91 335,91 339,91 343,91 347,85 351,81 355,77 359,80 363,84 367,89 372,91 376,91 380,92 384,92 388,92 392,92 396,88 400,85 404,86 408,89 412,91 416,92 419,92" stroke="#2963da" fill="none" stroke-width="3" stroke-linejoin="round" stroke-linecap="round" />
</svg>