<svg width="419" height="100" viewBox="0 0 419 100" xmlns="http://www.w3.org/2000/svg" xmlns:xlink="http://www.w3.org/1999/xlink"><defs>
<linearGradient id="grad" x1="0%" y1="0%" x2="0%" y2="100%">
<stop offset="0%" stop-color="#2963da" stop-opacity="0.40"/>
<stop offset="100%" stop-color="#070720" stop-opacity="0.20"/>
</linearGradient>
</defs>
<rect x="0" y="0" width="419" height="100" fill="none" />
<polygon points="0,92 4,92 8,92 12,92 17,92 21,92 26,92 31,92 35,92 39,92 45,92 50,92 54,92 58,92 63,92 67,92 71,92 76,92 80,92 84,92 88,92 92,92 96,92 101,92 105,92 109,92 113,92 117,92 122,92 126,92 130,92 135,92 139,92 143,92 149,92 154,92 158,92 162,92 168,92 176,92 180,92 184,92 189,92 193,92 197,92 203,92 207,92 211,92 216,92 220,92 224,92 229,92 233,92 237,92 242,92 246,92 250,92 254,92 259,92 263,92 268,92 274,92 278,92 282,92 289,92 293,92 297,92 302,92 306,92 310,92 314,92 319,92 323,92 327,92 331,92 335,91 340,92 344,92 348,92 352,92 357,92 361,92 365,92 369,92 373,92 377,92 382,92 386,92 390,92 394,92 400,92 405,92 411,92 416,92 419,92 419,100 0,100" fill="url(#grad)" stroke="none" />
<polyline points="0,92 4,92 8,92 12,92 17,92 21,92 26,92 31,92 35,92 39,92 45,92 50,92 54,92 58,92 63,92 67,92 71,92 76,92 80,92 84,92 88,92 92,92 96,92 101,92 105,92 109,92 113,92 117,92 122,92 126,92 130,92 135,92 139,92 143,92 149,92 154,92 158,92 162,92 168,92 176,92 180,92 184,92 189,92 193,92 197,92 203,92 207,92 211,92 216,92 220,92 224,92 229,92 233,92 237,92 242,92 246,92 250,92 254,92 259,92 263,92 268,92 274,92 278,92 282,92 289,92 293,92 297,92 302,92 306,92 310,92 314,92 319,92 323,92 327,92 331,92 335,91 340,92 344,92 348,92 352,92 357,92 361,92 365,92 369,92 373,92 377,92 382,92 386,92 390,92 394,92 400,92 405,92 411,92 416,92 419,92" stroke="#2963da" fill="none" stroke-width="3" stroke-linejoin="round" stroke-linecap="round" />
</svg>