<svg width="419" height="100" viewBox="0 0 419 100" xmlns="http://www.w3.org/2000/svg" xmlns:xlink="http://www.w3.org/1999/xlink"><defs>
<linearGradient id="grad" x1="0%" y1="0%" x2="0%" y2="100%">
<stop offset="0%" stop-color="#2963da" stop-opacity="0.40"/>
<stop offset="100%" stop-color="#070720" stop-opacity="0.20"/>
</linearGradient>
</defs>
<rect x="0" y="0" width="419" height="100" fill="none" />
<polygon points="0,92 4,92 8,92 12,92 16,92 21,92 25,92 30,92 34,92 38,92 43,92 49,92 53,92 58,92 62,92 67,92 71,92 75,92 80,92 84,92 88,92 93,91 98,91 105,91 109,91 114,91 118,91 125,91 129,91 133,91 138,91 144,91 150,91 154,91 159,91 163,90 167,90 173,90 177,90 182,90 187,90 192,89 197,90 202,91 206,91 212,91 216,91 221,91 226,90 230,91 234,91 239,91 243,91 248,91 253,91 257,91 262,91 266,91 270,91 274,91 279,91 283,91 287,91 292,91 296,91 300,91 305,91 309,92 314,91 318,92 322,92 326,92 330,92 334,92 339,92 343,92 347,92 351,92 356,92 360,92 364,92 370,92 374,92 378,92 382,92 388,92 392,92 396,92 400,92 405,92 409,92 413,92 417,92 419,92 419,100 0,100" fill="url(#grad)" stroke="none" />
<polyline points="0,92 4,92 8,92 12,92 16,92 21,92 25,92 30,92 34,92 38,92 43,92 49,92 53,92 58,92 62,92 67,92 71,92 75,92 80,92 84,92 88,92 93,91 98,91 105,91 109,91 114,91 118,91 125,91 129,91 133,91 138,91 144,91 150,91 154,91 159,91 163,90 167,90 173,90 177,90 182,90 187,90 192,89 197,90 202,91 206,91 212,91 216,91 221,91 226,90 230,91 234,91 239,91 243,91 248,91 253,91 257,91 262,91 266,91 270,91 274,91 279,91 283,91 287,91 292,91 296,91 300,91 305,91 309,92 314,91 318,92 322,92 326,92 330,92 334,92 339,92 343,92 347,92 351,92 356,92 360,92 364,92 370,92 374,92 378,92 382,92 388,92 392,92 396,92 400,92 405,92 409,92 413,92 417,92 419,92" stroke="#2963da" fill="none" stroke-width="3" stroke-linejoin="round" stroke-linecap="round" />
</svg>