<svg width="419" height="100" viewBox="0 0 419 100" xmlns="http://www.w3.org/2000/svg" xmlns:xlink="http://www.w3.org/1999/xlink"><defs>
<linearGradient id="grad" x1="0%" y1="0%" x2="0%" y2="100%">
<stop offset="0%" stop-color="#2963da" stop-opacity="0.40"/>
<stop offset="100%" stop-color="#070720" stop-opacity="0.20"/>
</linearGradient>
</defs>
<rect x="0" y="0" width="419" height="100" fill="none" />
<polygon points="0,90 5,90 18,90 27,90 32,90 44,90 49,90 53,90 61,90 79,91 86,91 90,91 105,91 111,91 118,91 123,91 132,91 153,91 171,92 175,92 180,92 184,92 189,92 196,92 211,92 219,92 231,92 236,92 243,92 248,92 267,92 273,92 277,92 282,92 292,92 300,92 314,92 320,91 324,91 329,91 334,91 338,91 347,91 352,91 358,91 365,91 370,90 374,90 380,90 388,90 392,90 397,90 404,90 412,90 417,90 419,90 419,100 0,100" fill="url(#grad)" stroke="none" />
<polyline points="0,90 5,90 18,90 27,90 32,90 44,90 49,90 53,90 61,90 79,91 86,91 90,91 105,91 111,91 118,91 123,91 132,91 153,91 171,92 175,92 180,92 184,92 189,92 196,92 211,92 219,92 231,92 236,92 243,92 248,92 267,92 273,92 277,92 282,92 292,92 300,92 314,92 320,91 324,91 329,91 334,91 338,91 347,91 352,91 358,91 365,91 370,90 374,90 380,90 388,90 392,90 397,90 404,90 412,90 417,90 419,90" stroke="#2963da" fill="none" stroke-width="3" stroke-linejoin="round" stroke-linecap="round" />
</svg>