<svg width="419" height="100" viewBox="0 0 419 100" xmlns="http://www.w3.org/2000/svg" xmlns:xlink="http://www.w3.org/1999/xlink"><defs>
<linearGradient id="grad" x1="0%" y1="0%" x2="0%" y2="100%">
<stop offset="0%" stop-color="#2963da" stop-opacity="0.40"/>
<stop offset="100%" stop-color="#070720" stop-opacity="0.20"/>
</linearGradient>
</defs>
<rect x="0" y="0" width="419" height="100" fill="none" />
<polygon points="0,90 4,90 8,92 12,92 16,92 20,92 24,92 29,92 33,89 37,86 41,88 45,87 49,86 53,82 57,77 61,71 65,68 69,70 73,74 77,78 82,80 86,82 90,87 94,92 99,92 103,91 107,90 111,90 115,88 119,82 123,75 128,71 132,72 136,73 140,78 144,83 148,86 152,88 156,89 161,89 165,90 169,89 173,88 177,87 181,85 185,81 189,79 193,82 197,84 202,83 206,82 210,84 214,87 218,88 222,88 226,85 230,80 234,76 238,72 243,74 247,78 251,83 255,86 259,87 263,88 267,88 271,87 275,88 279,88 284,89 288,89 292,90 296,89 300,88 304,86 308,83 312,77 316,73 320,77 324,82 328,85 332,88 337,89 341,89 345,90 349,90 353,89 358,87 362,86 366,82 370,79 374,81 378,84 383,82 387,82 391,83 395,87 399,88 403,87 407,87 412,88 416,89 419,88 419,100 0,100" fill="url(#grad)" stroke="none" />
<polyline points="0,90 4,90 8,92 12,92 16,92 20,92 24,92 29,92 33,89 37,86 41,88 45,87 49,86 53,82 57,77 61,71 65,68 69,70 73,74 77,78 82,80 86,82 90,87 94,92 99,92 103,91 107,90 111,90 115,88 119,82 123,75 128,71 132,72 136,73 140,78 144,83 148,86 152,88 156,89 161,89 165,90 169,89 173,88 177,87 181,85 185,81 189,79 193,82 197,84 202,83 206,82 210,84 214,87 218,88 222,88 226,85 230,80 234,76 238,72 243,74 247,78 251,83 255,86 259,87 263,88 267,88 271,87 275,88 279,88 284,89 288,89 292,90 296,89 300,88 304,86 308,83 312,77 316,73 320,77 324,82 328,85 332,88 337,89 341,89 345,90 349,90 353,89 358,87 362,86 366,82 370,79 374,81 378,84 383,82 387,82 391,83 395,87 399,88 403,87 407,87 412,88 416,89 419,88" stroke="#2963da" fill="none" stroke-width="3" stroke-linejoin="round" stroke-linecap="round" />
</svg>