<svg width="419" height="100" viewBox="0 0 419 100" xmlns="http://www.w3.org/2000/svg" xmlns:xlink="http://www.w3.org/1999/xlink"><defs>
<linearGradient id="grad" x1="0%" y1="0%" x2="0%" y2="100%">
<stop offset="0%" stop-color="#2963da" stop-opacity="0.40"/>
<stop offset="100%" stop-color="#070720" stop-opacity="0.20"/>
</linearGradient>
</defs>
<rect x="0" y="0" width="419" height="100" fill="none" />
<polygon points="0,91 4,90 8,90 12,90 16,91 20,91 24,91 28,90 32,90 36,90 40,90 44,89 48,89 52,89 57,89 61,90 65,91 69,91 73,91 77,91 81,91 85,91 89,91 93,91 97,90 101,90 105,91 109,92 113,92 117,92 121,92 125,92 130,92 134,92 138,92 142,92 146,91 150,91 154,92 158,92 162,91 166,91 170,92 174,92 178,91 182,92 186,92 191,92 195,92 199,92 203,92 207,92 211,92 215,91 219,92 223,92 227,92 231,92 235,91 239,90 244,90 248,89 252,89 256,87 260,87 264,88 268,88 272,87 276,89 280,88 284,85 288,80 292,76 296,77 300,83 304,86 308,86 312,86 317,85 321,85 325,82 329,79 333,78 337,77 341,75 345,75 349,76 353,74 357,71 361,69 365,65 369,61 373,57 377,61 381,64 385,67 389,69 393,73 397,76 401,80 406,83 410,86 414,89 418,90 419,90 419,100 0,100" fill="url(#grad)" stroke="none" />
<polyline points="0,91 4,90 8,90 12,90 16,91 20,91 24,91 28,90 32,90 36,90 40,90 44,89 48,89 52,89 57,89 61,90 65,91 69,91 73,91 77,91 81,91 85,91 89,91 93,91 97,90 101,90 105,91 109,92 113,92 117,92 121,92 125,92 130,92 134,92 138,92 142,92 146,91 150,91 154,92 158,92 162,91 166,91 170,92 174,92 178,91 182,92 186,92 191,92 195,92 199,92 203,92 207,92 211,92 215,91 219,92 223,92 227,92 231,92 235,91 239,90 244,90 248,89 252,89 256,87 260,87 264,88 268,88 272,87 276,89 280,88 284,85 288,80 292,76 296,77 300,83 304,86 308,86 312,86 317,85 321,85 325,82 329,79 333,78 337,77 341,75 345,75 349,76 353,74 357,71 361,69 365,65 369,61 373,57 377,61 381,64 385,67 389,69 393,73 397,76 401,80 406,83 410,86 414,89 418,90 419,90" stroke="#2963da" fill="none" stroke-width="3" stroke-linejoin="round" stroke-linecap="round" />
</svg>