<svg width="419" height="100" viewBox="0 0 419 100" xmlns="http://www.w3.org/2000/svg" xmlns:xlink="http://www.w3.org/1999/xlink"><defs>
<linearGradient id="grad" x1="0%" y1="0%" x2="0%" y2="100%">
<stop offset="0%" stop-color="#2963da" stop-opacity="0.40"/>
<stop offset="100%" stop-color="#070720" stop-opacity="0.20"/>
</linearGradient>
</defs>
<rect x="0" y="0" width="419" height="100" fill="none" />
<polygon points="0,89 4,88 8,89 12,90 16,89 20,88 24,89 28,89 32,88 36,88 40,89 44,90 48,90 53,89 57,88 61,89 65,90 69,90 73,90 77,90 81,90 86,90 90,90 94,88 98,88 102,88 106,89 110,90 114,90 118,90 123,89 127,90 131,91 135,90 139,90 144,91 148,91 152,91 156,91 160,91 164,90 168,90 172,89 176,90 180,89 184,90 188,90 193,90 197,91 201,91 205,91 209,91 213,91 217,90 221,90 225,91 229,92 233,91 237,91 241,92 245,92 249,91 254,90 258,89 262,89 266,90 270,89 274,91 278,90 282,90 286,91 290,90 294,89 298,88 302,89 306,89 310,89 315,88 319,88 323,86 327,88 331,89 335,90 339,91 343,90 347,89 351,88 355,89 359,89 363,90 367,91 371,91 376,91 380,90 384,91 388,92 392,92 396,92 400,92 404,92 408,92 412,92 416,92 419,92 419,100 0,100" fill="url(#grad)" stroke="none" />
<polyline points="0,89 4,88 8,89 12,90 16,89 20,88 24,89 28,89 32,88 36,88 40,89 44,90 48,90 53,89 57,88 61,89 65,90 69,90 73,90 77,90 81,90 86,90 90,90 94,88 98,88 102,88 106,89 110,90 114,90 118,90 123,89 127,90 131,91 135,90 139,90 144,91 148,91 152,91 156,91 160,91 164,90 168,90 172,89 176,90 180,89 184,90 188,90 193,90 197,91 201,91 205,91 209,91 213,91 217,90 221,90 225,91 229,92 233,91 237,91 241,92 245,92 249,91 254,90 258,89 262,89 266,90 270,89 274,91 278,90 282,90 286,91 290,90 294,89 298,88 302,89 306,89 310,89 315,88 319,88 323,86 327,88 331,89 335,90 339,91 343,90 347,89 351,88 355,89 359,89 363,90 367,91 371,91 376,91 380,90 384,91 388,92 392,92 396,92 400,92 404,92 408,92 412,92 416,92 419,92" stroke="#2963da" fill="none" stroke-width="3" stroke-linejoin="round" stroke-linecap="round" />
</svg>