<svg width="419" height="100" viewBox="0 0 419 100" xmlns="http://www.w3.org/2000/svg" xmlns:xlink="http://www.w3.org/1999/xlink"><defs>
<linearGradient id="grad" x1="0%" y1="0%" x2="0%" y2="100%">
<stop offset="0%" stop-color="#2963da" stop-opacity="0.40"/>
<stop offset="100%" stop-color="#070720" stop-opacity="0.20"/>
</linearGradient>
</defs>
<rect x="0" y="0" width="419" height="100" fill="none" />
<polygon points="0,91 4,91 8,90 12,90 16,90 20,89 24,88 28,89 32,89 36,90 40,90 44,91 48,92 52,92 56,90 60,92 65,92 69,92 73,92 77,92 81,92 85,90 89,89 93,89 97,90 101,90 106,89 110,88 114,87 118,86 122,88 126,87 130,86 134,88 138,90 142,90 146,89 150,90 154,88 158,88 162,87 166,85 171,85 175,85 179,85 183,86 187,86 191,86 195,85 199,86 203,85 207,85 211,86 215,83 219,84 223,82 227,84 232,86 236,85 240,84 244,85 248,89 252,86 256,84 260,85 264,86 268,88 272,89 276,91 280,89 284,91 289,91 293,91 297,90 301,90 305,87 309,85 313,85 317,85 321,85 325,87 329,87 333,88 337,89 341,91 345,89 349,91 354,91 358,91 362,90 366,89 370,87 374,85 378,85 382,85 386,85 390,87 394,87 398,88 402,89 406,91 410,89 414,91 418,91 419,91 419,100 0,100" fill="url(#grad)" stroke="none" />
<polyline points="0,91 4,91 8,90 12,90 16,90 20,89 24,88 28,89 32,89 36,90 40,90 44,91 48,92 52,92 56,90 60,92 65,92 69,92 73,92 77,92 81,92 85,90 89,89 93,89 97,90 101,90 106,89 110,88 114,87 118,86 122,88 126,87 130,86 134,88 138,90 142,90 146,89 150,90 154,88 158,88 162,87 166,85 171,85 175,85 179,85 183,86 187,86 191,86 195,85 199,86 203,85 207,85 211,86 215,83 219,84 223,82 227,84 232,86 236,85 240,84 244,85 248,89 252,86 256,84 260,85 264,86 268,88 272,89 276,91 280,89 284,91 289,91 293,91 297,90 301,90 305,87 309,85 313,85 317,85 321,85 325,87 329,87 333,88 337,89 341,91 345,89 349,91 354,91 358,91 362,90 366,89 370,87 374,85 378,85 382,85 386,85 390,87 394,87 398,88 402,89 406,91 410,89 414,91 418,91 419,91" stroke="#2963da" fill="none" stroke-width="3" stroke-linejoin="round" stroke-linecap="round" />
</svg>