<svg width="419" height="100" viewBox="0 0 419 100" xmlns="http://www.w3.org/2000/svg" xmlns:xlink="http://www.w3.org/1999/xlink"><defs>
<linearGradient id="grad" x1="0%" y1="0%" x2="0%" y2="100%">
<stop offset="0%" stop-color="#2963da" stop-opacity="0.40"/>
<stop offset="100%" stop-color="#070720" stop-opacity="0.20"/>
</linearGradient>
</defs>
<rect x="0" y="0" width="419" height="100" fill="none" />
<polygon points="0,91 4,88 8,86 12,83 16,85 20,90 24,92 28,92 32,92 36,92 40,92 44,92 48,92 53,91 57,92 61,92 65,91 69,91 73,92 77,92 81,92 85,92 89,92 93,92 97,92 101,91 106,91 110,90 114,91 118,91 122,89 126,86 130,88 134,90 138,91 142,91 146,91 151,91 155,90 159,90 163,90 167,90 171,90 175,87 179,83 183,82 187,83 191,85 196,85 200,85 204,84 208,83 212,82 216,79 220,81 224,80 228,79 232,76 236,73 240,68 244,63 248,58 253,54 257,56 261,59 265,61 269,62 273,61 277,56 281,48 285,45 290,46 294,43 298,44 302,44 306,44 310,39 314,45 318,48 322,49 326,52 331,50 335,45 339,45 343,43 347,47 351,50 355,55 359,57 363,61 367,66 371,70 375,73 379,70 384,70 388,73 392,71 396,72 400,66 404,58 408,49 412,39 416,30 419,29 419,100 0,100" fill="url(#grad)" stroke="none" />
<polyline points="0,91 4,88 8,86 12,83 16,85 20,90 24,92 28,92 32,92 36,92 40,92 44,92 48,92 53,91 57,92 61,92 65,91 69,91 73,92 77,92 81,92 85,92 89,92 93,92 97,92 101,91 106,91 110,90 114,91 118,91 122,89 126,86 130,88 134,90 138,91 142,91 146,91 151,91 155,90 159,90 163,90 167,90 171,90 175,87 179,83 183,82 187,83 191,85 196,85 200,85 204,84 208,83 212,82 216,79 220,81 224,80 228,79 232,76 236,73 240,68 244,63 248,58 253,54 257,56 261,59 265,61 269,62 273,61 277,56 281,48 285,45 290,46 294,43 298,44 302,44 306,44 310,39 314,45 318,48 322,49 326,52 331,50 335,45 339,45 343,43 347,47 351,50 355,55 359,57 363,61 367,66 371,70 375,73 379,70 384,70 388,73 392,71 396,72 400,66 404,58 408,49 412,39 416,30 419,29" stroke="#2963da" fill="none" stroke-width="3" stroke-linejoin="round" stroke-linecap="round" />
</svg>