<svg width="419" height="100" viewBox="0 0 419 100" xmlns="http://www.w3.org/2000/svg" xmlns:xlink="http://www.w3.org/1999/xlink"><defs>
<linearGradient id="grad" x1="0%" y1="0%" x2="0%" y2="100%">
<stop offset="0%" stop-color="#2963da" stop-opacity="0.40"/>
<stop offset="100%" stop-color="#070720" stop-opacity="0.20"/>
</linearGradient>
</defs>
<rect x="0" y="0" width="419" height="100" fill="none" />
<polygon points="0,92 4,92 8,92 13,92 17,92 21,92 26,92 30,92 34,92 38,92 43,91 47,91 51,91 56,91 60,91 64,91 69,91 73,90 77,90 81,90 86,90 90,90 94,90 99,90 103,89 107,89 111,89 115,89 120,89 124,89 128,89 132,88 136,88 141,88 145,88 149,88 153,88 158,87 162,87 166,87 170,87 175,87 179,87 184,87 188,86 192,86 196,86 200,86 205,86 209,86 213,86 217,85 222,85 226,85 231,85 235,85 240,85 244,85 248,85 252,85 257,84 261,84 266,84 270,84 275,84 279,84 283,84 288,84 293,84 297,84 302,84 306,84 310,84 315,84 321,84 325,84 329,84 334,84 338,84 342,84 347,84 351,84 355,84 360,84 364,84 368,83 372,83 377,83 382,83 386,83 391,83 395,83 400,83 405,83 409,83 413,83 418,83 419,83 419,100 0,100" fill="url(#grad)" stroke="none" />
<polyline points="0,92 4,92 8,92 13,92 17,92 21,92 26,92 30,92 34,92 38,92 43,91 47,91 51,91 56,91 60,91 64,91 69,91 73,90 77,90 81,90 86,90 90,90 94,90 99,90 103,89 107,89 111,89 115,89 120,89 124,89 128,89 132,88 136,88 141,88 145,88 149,88 153,88 158,87 162,87 166,87 170,87 175,87 179,87 184,87 188,86 192,86 196,86 200,86 205,86 209,86 213,86 217,85 222,85 226,85 231,85 235,85 240,85 244,85 248,85 252,85 257,84 261,84 266,84 270,84 275,84 279,84 283,84 288,84 293,84 297,84 302,84 306,84 310,84 315,84 321,84 325,84 329,84 334,84 338,84 342,84 347,84 351,84 355,84 360,84 364,84 368,83 372,83 377,83 382,83 386,83 391,83 395,83 400,83 405,83 409,83 413,83 418,83 419,83" stroke="#2963da" fill="none" stroke-width="3" stroke-linejoin="round" stroke-linecap="round" />
</svg>