<svg width="419" height="100" viewBox="0 0 419 100" xmlns="http://www.w3.org/2000/svg" xmlns:xlink="http://www.w3.org/1999/xlink"><defs>
<linearGradient id="grad" x1="0%" y1="0%" x2="0%" y2="100%">
<stop offset="0%" stop-color="#2963da" stop-opacity="0.40"/>
<stop offset="100%" stop-color="#070720" stop-opacity="0.20"/>
</linearGradient>
</defs>
<rect x="0" y="0" width="419" height="100" fill="none" />
<polygon points="0,91 4,91 8,92 12,91 16,91 20,91 24,90 28,87 32,88 36,88 40,88 44,89 48,92 52,92 56,92 60,92 64,92 68,92 72,92 76,89 80,85 84,81 89,80 93,83 97,85 101,87 105,88 109,86 113,88 117,90 121,92 125,91 129,91 133,91 137,90 141,92 145,89 149,89 153,89 157,91 161,92 166,92 170,92 174,91 178,90 182,91 186,91 190,92 194,92 198,91 202,91 206,92 210,92 214,92 218,92 222,91 226,91 230,91 234,91 238,91 243,90 247,88 251,88 255,91 259,92 263,92 267,92 271,92 275,92 279,91 283,91 287,91 291,91 295,92 299,91 303,92 307,90 311,89 315,86 319,88 323,88 328,88 332,90 336,91 340,92 344,92 348,92 352,92 356,92 360,92 364,88 368,84 372,80 376,80 380,84 384,86 388,87 392,88 396,86 400,89 404,90 408,92 412,91 416,91 419,92 419,100 0,100" fill="url(#grad)" stroke="none" />
<polyline points="0,91 4,91 8,92 12,91 16,91 20,91 24,90 28,87 32,88 36,88 40,88 44,89 48,92 52,92 56,92 60,92 64,92 68,92 72,92 76,89 80,85 84,81 89,80 93,83 97,85 101,87 105,88 109,86 113,88 117,90 121,92 125,91 129,91 133,91 137,90 141,92 145,89 149,89 153,89 157,91 161,92 166,92 170,92 174,91 178,90 182,91 186,91 190,92 194,92 198,91 202,91 206,92 210,92 214,92 218,92 222,91 226,91 230,91 234,91 238,91 243,90 247,88 251,88 255,91 259,92 263,92 267,92 271,92 275,92 279,91 283,91 287,91 291,91 295,92 299,91 303,92 307,90 311,89 315,86 319,88 323,88 328,88 332,90 336,91 340,92 344,92 348,92 352,92 356,92 360,92 364,88 368,84 372,80 376,80 380,84 384,86 388,87 392,88 396,86 400,89 404,90 408,92 412,91 416,91 419,92" stroke="#2963da" fill="none" stroke-width="3" stroke-linejoin="round" stroke-linecap="round" />
</svg>