<svg width="419" height="100" viewBox="0 0 419 100" xmlns="http://www.w3.org/2000/svg" xmlns:xlink="http://www.w3.org/1999/xlink"><defs>
<linearGradient id="grad" x1="0%" y1="0%" x2="0%" y2="100%">
<stop offset="0%" stop-color="#2963da" stop-opacity="0.40"/>
<stop offset="100%" stop-color="#070720" stop-opacity="0.20"/>
</linearGradient>
</defs>
<rect x="0" y="0" width="419" height="100" fill="none" />
<polygon points="0,92 18,92 24,92 29,92 33,92 47,92 55,92 64,92 72,92 85,92 89,92 95,92 104,92 111,92 117,92 122,92 134,92 141,92 145,92 151,92 157,92 163,92 168,92 173,92 178,92 183,92 188,92 193,92 197,92 202,92 206,92 215,92 226,92 239,92 244,92 256,92 272,92 277,92 282,92 286,92 291,92 296,92 301,92 306,92 310,92 314,92 318,92 323,92 334,92 338,92 342,92 346,92 351,92 360,92 366,92 371,92 376,92 380,92 386,92 392,92 400,92 419,92 419,100 0,100" fill="url(#grad)" stroke="none" />
<polyline points="0,92 18,92 24,92 29,92 33,92 47,92 55,92 64,92 72,92 85,92 89,92 95,92 104,92 111,92 117,92 122,92 134,92 141,92 145,92 151,92 157,92 163,92 168,92 173,92 178,92 183,92 188,92 193,92 197,92 202,92 206,92 215,92 226,92 239,92 244,92 256,92 272,92 277,92 282,92 286,92 291,92 296,92 301,92 306,92 310,92 314,92 318,92 323,92 334,92 338,92 342,92 346,92 351,92 360,92 366,92 371,92 376,92 380,92 386,92 392,92 400,92 419,92" stroke="#2963da" fill="none" stroke-width="3" stroke-linejoin="round" stroke-linecap="round" />
</svg>