<svg width="419" height="100" viewBox="0 0 419 100" xmlns="http://www.w3.org/2000/svg" xmlns:xlink="http://www.w3.org/1999/xlink"><defs>
<linearGradient id="grad" x1="0%" y1="0%" x2="0%" y2="100%">
<stop offset="0%" stop-color="#2963da" stop-opacity="0.40"/>
<stop offset="100%" stop-color="#070720" stop-opacity="0.20"/>
</linearGradient>
</defs>
<rect x="0" y="0" width="419" height="100" fill="none" />
<polygon points="0,92 4,92 8,92 12,92 16,91 20,91 24,91 28,92 32,91 36,90 40,91 44,92 49,91 53,91 57,92 61,92 65,91 69,92 73,91 77,92 81,92 85,92 89,89 93,89 97,89 101,89 105,89 109,90 113,91 118,92 122,92 126,92 130,91 134,90 138,90 142,90 146,92 150,91 154,91 158,92 163,92 167,91 171,91 175,91 179,90 183,89 187,90 191,90 195,90 199,91 203,89 208,89 212,89 216,89 220,89 224,89 228,89 232,90 236,89 240,91 244,91 249,91 253,90 257,89 261,90 265,90 269,91 273,91 277,91 281,91 285,92 289,92 293,92 297,92 302,92 306,92 310,92 314,92 318,91 322,91 326,90 330,90 334,90 338,90 342,90 346,90 350,91 354,92 358,92 362,92 367,92 371,92 375,92 379,92 383,92 387,92 391,92 395,92 400,92 404,91 408,92 412,92 416,92 419,92 419,100 0,100" fill="url(#grad)" stroke="none" />
<polyline points="0,92 4,92 8,92 12,92 16,91 20,91 24,91 28,92 32,91 36,90 40,91 44,92 49,91 53,91 57,92 61,92 65,91 69,92 73,91 77,92 81,92 85,92 89,89 93,89 97,89 101,89 105,89 109,90 113,91 118,92 122,92 126,92 130,91 134,90 138,90 142,90 146,92 150,91 154,91 158,92 163,92 167,91 171,91 175,91 179,90 183,89 187,90 191,90 195,90 199,91 203,89 208,89 212,89 216,89 220,89 224,89 228,89 232,90 236,89 240,91 244,91 249,91 253,90 257,89 261,90 265,90 269,91 273,91 277,91 281,91 285,92 289,92 293,92 297,92 302,92 306,92 310,92 314,92 318,91 322,91 326,90 330,90 334,90 338,90 342,90 346,90 350,91 354,92 358,92 362,92 367,92 371,92 375,92 379,92 383,92 387,92 391,92 395,92 400,92 404,91 408,92 412,92 416,92 419,92" stroke="#2963da" fill="none" stroke-width="3" stroke-linejoin="round" stroke-linecap="round" />
</svg>