<svg width="419" height="100" viewBox="0 0 419 100" xmlns="http://www.w3.org/2000/svg" xmlns:xlink="http://www.w3.org/1999/xlink"><defs>
<linearGradient id="grad" x1="0%" y1="0%" x2="0%" y2="100%">
<stop offset="0%" stop-color="#2963da" stop-opacity="0.40"/>
<stop offset="100%" stop-color="#070720" stop-opacity="0.20"/>
</linearGradient>
</defs>
<rect x="0" y="0" width="419" height="100" fill="none" />
<polygon points="0,92 4,91 8,91 12,90 16,91 20,91 24,91 28,91 33,91 37,91 41,90 45,90 49,90 53,90 57,90 61,90 65,90 69,90 74,89 78,89 82,89 86,88 90,88 94,87 98,87 103,87 107,87 111,86 115,88 119,89 123,88 127,87 131,87 136,87 140,88 144,89 148,89 152,90 156,90 160,89 164,89 169,87 173,88 177,90 181,91 185,91 190,91 194,91 198,89 202,89 206,91 210,88 214,89 219,89 223,88 227,89 232,86 236,85 240,85 244,86 248,88 253,87 257,89 261,88 265,89 269,91 273,91 278,89 282,89 286,90 290,92 294,91 298,92 302,92 306,92 310,92 314,92 319,92 323,91 327,89 331,90 336,91 340,90 344,89 349,90 353,90 357,89 361,87 365,88 369,87 374,90 378,90 383,91 387,91 391,92 396,92 400,91 404,91 409,89 413,92 417,92 419,91 419,100 0,100" fill="url(#grad)" stroke="none" />
<polyline points="0,92 4,91 8,91 12,90 16,91 20,91 24,91 28,91 33,91 37,91 41,90 45,90 49,90 53,90 57,90 61,90 65,90 69,90 74,89 78,89 82,89 86,88 90,88 94,87 98,87 103,87 107,87 111,86 115,88 119,89 123,88 127,87 131,87 136,87 140,88 144,89 148,89 152,90 156,90 160,89 164,89 169,87 173,88 177,90 181,91 185,91 190,91 194,91 198,89 202,89 206,91 210,88 214,89 219,89 223,88 227,89 232,86 236,85 240,85 244,86 248,88 253,87 257,89 261,88 265,89 269,91 273,91 278,89 282,89 286,90 290,92 294,91 298,92 302,92 306,92 310,92 314,92 319,92 323,91 327,89 331,90 336,91 340,90 344,89 349,90 353,90 357,89 361,87 365,88 369,87 374,90 378,90 383,91 387,91 391,92 396,92 400,91 404,91 409,89 413,92 417,92 419,91" stroke="#2963da" fill="none" stroke-width="3" stroke-linejoin="round" stroke-linecap="round" />
</svg>