<svg width="419" height="100" viewBox="0 0 419 100" xmlns="http://www.w3.org/2000/svg" xmlns:xlink="http://www.w3.org/1999/xlink"><defs>
<linearGradient id="grad" x1="0%" y1="0%" x2="0%" y2="100%">
<stop offset="0%" stop-color="#2963da" stop-opacity="0.40"/>
<stop offset="100%" stop-color="#070720" stop-opacity="0.20"/>
</linearGradient>
</defs>
<rect x="0" y="0" width="419" height="100" fill="none" />
<polygon points="0,92 4,92 8,92 12,91 16,90 20,90 24,90 29,89 33,85 37,83 41,82 45,82 49,80 53,80 57,78 61,76 65,76 70,76 74,75 78,78 82,77 86,75 90,75 94,74 99,73 103,72 107,73 111,73 115,72 119,71 123,70 127,68 131,66 135,66 140,65 144,65 148,63 152,60 156,55 160,51 165,47 169,43 173,39 177,35 181,32 186,30 190,30 194,33 198,38 202,41 206,45 211,49 215,52 220,54 224,56 228,57 232,58 237,60 241,60 245,61 249,64 253,66 257,65 261,60 265,56 269,51 273,45 277,41 281,38 285,33 290,30 294,35 298,40 302,45 306,50 310,56 314,60 319,64 323,69 327,73 331,70 335,68 340,67 344,66 348,65 352,64 356,63 360,58 364,58 368,58 373,58 377,57 381,56 385,56 389,52 393,47 397,49 401,51 405,51 410,51 414,53 418,55 419,55 419,100 0,100" fill="url(#grad)" stroke="none" />
<polyline points="0,92 4,92 8,92 12,91 16,90 20,90 24,90 29,89 33,85 37,83 41,82 45,82 49,80 53,80 57,78 61,76 65,76 70,76 74,75 78,78 82,77 86,75 90,75 94,74 99,73 103,72 107,73 111,73 115,72 119,71 123,70 127,68 131,66 135,66 140,65 144,65 148,63 152,60 156,55 160,51 165,47 169,43 173,39 177,35 181,32 186,30 190,30 194,33 198,38 202,41 206,45 211,49 215,52 220,54 224,56 228,57 232,58 237,60 241,60 245,61 249,64 253,66 257,65 261,60 265,56 269,51 273,45 277,41 281,38 285,33 290,30 294,35 298,40 302,45 306,50 310,56 314,60 319,64 323,69 327,73 331,70 335,68 340,67 344,66 348,65 352,64 356,63 360,58 364,58 368,58 373,58 377,57 381,56 385,56 389,52 393,47 397,49 401,51 405,51 410,51 414,53 418,55 419,55" stroke="#2963da" fill="none" stroke-width="3" stroke-linejoin="round" stroke-linecap="round" />
</svg>