<svg width="419" height="100" viewBox="0 0 419 100" xmlns="http://www.w3.org/2000/svg" xmlns:xlink="http://www.w3.org/1999/xlink"><defs>
<linearGradient id="grad" x1="0%" y1="0%" x2="0%" y2="100%">
<stop offset="0%" stop-color="#2963da" stop-opacity="0.40"/>
<stop offset="100%" stop-color="#070720" stop-opacity="0.20"/>
</linearGradient>
</defs>
<rect x="0" y="0" width="419" height="100" fill="none" />
<polygon points="0,92 4,91 8,90 12,91 16,91 20,91 24,91 28,91 32,91 36,91 40,91 44,91 48,90 52,90 56,90 60,90 64,90 68,90 72,90 76,90 80,89 84,89 89,90 93,90 97,90 101,91 105,91 109,91 113,90 117,91 121,91 125,90 129,90 133,90 137,91 141,91 145,91 149,90 153,91 157,91 161,91 165,91 169,92 173,92 177,92 181,92 186,92 190,92 194,92 198,92 202,92 206,92 210,91 214,90 218,90 222,90 235,91 239,91 243,92 247,90 251,89 255,89 259,90 263,89 267,89 271,89 275,89 280,90 284,91 288,91 292,90 296,90 300,91 304,90 308,90 312,89 316,88 320,89 324,90 328,90 332,89 336,89 340,90 344,90 348,91 352,91 356,91 360,90 365,91 369,91 373,89 377,89 381,90 385,89 389,89 393,89 397,90 401,90 405,91 409,91 413,91 417,92 419,92 419,100 0,100" fill="url(#grad)" stroke="none" />
<polyline points="0,92 4,91 8,90 12,91 16,91 20,91 24,91 28,91 32,91 36,91 40,91 44,91 48,90 52,90 56,90 60,90 64,90 68,90 72,90 76,90 80,89 84,89 89,90 93,90 97,90 101,91 105,91 109,91 113,90 117,91 121,91 125,90 129,90 133,90 137,91 141,91 145,91 149,90 153,91 157,91 161,91 165,91 169,92 173,92 177,92 181,92 186,92 190,92 194,92 198,92 202,92 206,92 210,91 214,90 218,90 222,90 235,91 239,91 243,92 247,90 251,89 255,89 259,90 263,89 267,89 271,89 275,89 280,90 284,91 288,91 292,90 296,90 300,91 304,90 308,90 312,89 316,88 320,89 324,90 328,90 332,89 336,89 340,90 344,90 348,91 352,91 356,91 360,90 365,91 369,91 373,89 377,89 381,90 385,89 389,89 393,89 397,90 401,90 405,91 409,91 413,91 417,92 419,92" stroke="#2963da" fill="none" stroke-width="3" stroke-linejoin="round" stroke-linecap="round" />
</svg>