<svg width="419" height="100" viewBox="0 0 419 100" xmlns="http://www.w3.org/2000/svg" xmlns:xlink="http://www.w3.org/1999/xlink"><defs>
<linearGradient id="grad" x1="0%" y1="0%" x2="0%" y2="100%">
<stop offset="0%" stop-color="#2963da" stop-opacity="0.40"/>
<stop offset="100%" stop-color="#070720" stop-opacity="0.20"/>
</linearGradient>
</defs>
<rect x="0" y="0" width="419" height="100" fill="none" />
<polygon points="0,88 4,89 8,90 12,86 16,83 21,81 25,79 29,76 33,73 37,70 42,71 46,75 50,79 54,83 58,87 63,91 67,92 71,92 75,92 79,92 83,92 87,91 91,90 95,90 99,90 104,90 108,89 112,89 116,89 120,89 124,88 129,86 133,81 137,77 141,73 145,69 149,65 153,62 157,56 161,49 165,44 169,42 173,46 178,51 182,55 186,60 190,65 194,69 198,74 202,78 206,82 210,81 214,82 218,83 223,82 227,85 231,84 235,83 239,78 243,73 247,68 251,63 255,59 259,55 263,52 267,47 272,43 276,39 280,42 284,46 288,50 292,56 296,60 300,64 304,68 309,73 313,76 317,80 321,81 325,82 329,79 333,74 337,70 341,65 345,61 349,57 354,52 358,49 362,45 366,40 370,42 374,47 378,51 383,53 387,50 391,48 395,45 399,43 403,38 407,36 412,38 416,43 419,42 419,100 0,100" fill="url(#grad)" stroke="none" />
<polyline points="0,88 4,89 8,90 12,86 16,83 21,81 25,79 29,76 33,73 37,70 42,71 46,75 50,79 54,83 58,87 63,91 67,92 71,92 75,92 79,92 83,92 87,91 91,90 95,90 99,90 104,90 108,89 112,89 116,89 120,89 124,88 129,86 133,81 137,77 141,73 145,69 149,65 153,62 157,56 161,49 165,44 169,42 173,46 178,51 182,55 186,60 190,65 194,69 198,74 202,78 206,82 210,81 214,82 218,83 223,82 227,85 231,84 235,83 239,78 243,73 247,68 251,63 255,59 259,55 263,52 267,47 272,43 276,39 280,42 284,46 288,50 292,56 296,60 300,64 304,68 309,73 313,76 317,80 321,81 325,82 329,79 333,74 337,70 341,65 345,61 349,57 354,52 358,49 362,45 366,40 370,42 374,47 378,51 383,53 387,50 391,48 395,45 399,43 403,38 407,36 412,38 416,43 419,42" stroke="#2963da" fill="none" stroke-width="3" stroke-linejoin="round" stroke-linecap="round" />
</svg>