<svg width="419" height="100" viewBox="0 0 419 100" xmlns="http://www.w3.org/2000/svg" xmlns:xlink="http://www.w3.org/1999/xlink"><defs>
<linearGradient id="grad" x1="0%" y1="0%" x2="0%" y2="100%">
<stop offset="0%" stop-color="#2963da" stop-opacity="0.40"/>
<stop offset="100%" stop-color="#070720" stop-opacity="0.20"/>
</linearGradient>
</defs>
<rect x="0" y="0" width="419" height="100" fill="none" />
<polygon points="0,91 4,91 9,91 13,91 17,91 24,92 30,92 34,92 40,92 44,92 48,92 54,92 60,92 65,92 70,92 74,92 78,92 82,92 87,92 91,92 95,92 100,92 104,92 109,92 114,92 118,92 122,92 126,92 131,92 135,92 140,92 144,92 148,92 153,92 159,92 163,92 168,92 172,92 177,92 182,92 186,92 190,92 195,92 200,92 212,92 222,92 226,92 232,92 236,92 241,92 245,92 250,92 255,92 262,92 267,92 271,92 275,92 280,92 284,92 289,92 296,92 300,92 308,92 312,92 322,92 328,92 332,92 336,92 341,92 345,92 349,92 353,92 358,92 362,92 366,92 371,92 376,92 381,92 386,92 390,92 395,92 399,92 404,92 408,92 412,92 416,92 419,92 419,100 0,100" fill="url(#grad)" stroke="none" />
<polyline points="0,91 4,91 9,91 13,91 17,91 24,92 30,92 34,92 40,92 44,92 48,92 54,92 60,92 65,92 70,92 74,92 78,92 82,92 87,92 91,92 95,92 100,92 104,92 109,92 114,92 118,92 122,92 126,92 131,92 135,92 140,92 144,92 148,92 153,92 159,92 163,92 168,92 172,92 177,92 182,92 186,92 190,92 195,92 200,92 212,92 222,92 226,92 232,92 236,92 241,92 245,92 250,92 255,92 262,92 267,92 271,92 275,92 280,92 284,92 289,92 296,92 300,92 308,92 312,92 322,92 328,92 332,92 336,92 341,92 345,92 349,92 353,92 358,92 362,92 366,92 371,92 376,92 381,92 386,92 390,92 395,92 399,92 404,92 408,92 412,92 416,92 419,92" stroke="#2963da" fill="none" stroke-width="3" stroke-linejoin="round" stroke-linecap="round" />
</svg>