<svg width="419" height="100" viewBox="0 0 419 100" xmlns="http://www.w3.org/2000/svg" xmlns:xlink="http://www.w3.org/1999/xlink"><defs>
<linearGradient id="grad" x1="0%" y1="0%" x2="0%" y2="100%">
<stop offset="0%" stop-color="#2963da" stop-opacity="0.40"/>
<stop offset="100%" stop-color="#070720" stop-opacity="0.20"/>
</linearGradient>
</defs>
<rect x="0" y="0" width="419" height="100" fill="none" />
<polygon points="0,92 4,91 8,91 12,89 16,88 20,88 24,88 28,87 32,86 36,84 40,84 45,88 49,90 53,88 57,88 61,89 65,90 69,90 73,91 77,91 81,90 86,88 90,89 94,88 98,87 102,88 106,87 110,86 114,81 118,84 122,83 127,82 131,79 135,75 139,70 143,66 147,60 151,55 155,50 159,46 164,44 168,50 172,54 176,59 180,61 184,66 188,66 192,62 196,57 200,51 204,48 208,54 212,51 216,47 221,43 225,39 229,40 233,44 237,47 241,50 245,51 249,51 254,55 258,49 262,44 266,40 270,35 274,30 278,25 282,21 286,25 290,30 294,34 299,40 303,44 307,47 311,46 315,42 319,40 323,39 327,35 331,31 335,27 339,26 343,30 348,34 352,36 356,39 360,44 364,48 368,50 372,54 377,54 381,57 385,59 389,64 393,67 397,68 401,68 405,67 409,62 413,57 417,50 419,49 419,100 0,100" fill="url(#grad)" stroke="none" />
<polyline points="0,92 4,91 8,91 12,89 16,88 20,88 24,88 28,87 32,86 36,84 40,84 45,88 49,90 53,88 57,88 61,89 65,90 69,90 73,91 77,91 81,90 86,88 90,89 94,88 98,87 102,88 106,87 110,86 114,81 118,84 122,83 127,82 131,79 135,75 139,70 143,66 147,60 151,55 155,50 159,46 164,44 168,50 172,54 176,59 180,61 184,66 188,66 192,62 196,57 200,51 204,48 208,54 212,51 216,47 221,43 225,39 229,40 233,44 237,47 241,50 245,51 249,51 254,55 258,49 262,44 266,40 270,35 274,30 278,25 282,21 286,25 290,30 294,34 299,40 303,44 307,47 311,46 315,42 319,40 323,39 327,35 331,31 335,27 339,26 343,30 348,34 352,36 356,39 360,44 364,48 368,50 372,54 377,54 381,57 385,59 389,64 393,67 397,68 401,68 405,67 409,62 413,57 417,50 419,49" stroke="#2963da" fill="none" stroke-width="3" stroke-linejoin="round" stroke-linecap="round" />
</svg>