<svg width="419" height="100" viewBox="0 0 419 100" xmlns="http://www.w3.org/2000/svg" xmlns:xlink="http://www.w3.org/1999/xlink"><defs>
<linearGradient id="grad" x1="0%" y1="0%" x2="0%" y2="100%">
<stop offset="0%" stop-color="#2963da" stop-opacity="0.40"/>
<stop offset="100%" stop-color="#070720" stop-opacity="0.20"/>
</linearGradient>
</defs>
<rect x="0" y="0" width="419" height="100" fill="none" />
<polygon points="0,89 4,90 8,90 12,90 16,88 20,85 24,86 28,88 32,89 37,90 41,91 45,90 49,87 53,90 57,89 61,85 66,84 70,85 74,86 78,87 82,88 86,86 90,88 94,85 99,84 103,81 107,81 111,80 115,84 119,84 123,87 127,87 131,87 136,87 140,87 144,86 148,85 152,84 156,84 160,86 165,89 169,91 173,92 177,92 181,92 186,88 190,87 194,88 199,86 203,88 207,85 211,84 215,81 219,81 223,80 227,84 232,84 236,87 240,87 244,87 248,87 252,87 256,86 261,85 265,84 269,84 273,86 277,89 281,91 285,92 290,92 294,92 298,88 303,87 307,88 311,86 315,88 319,85 323,84 327,81 331,81 336,80 340,84 344,84 348,87 352,87 356,87 360,87 364,87 369,86 373,85 377,84 381,84 385,86 389,89 394,91 398,92 402,92 406,92 411,88 415,87 419,87 419,100 0,100" fill="url(#grad)" stroke="none" />
<polyline points="0,89 4,90 8,90 12,90 16,88 20,85 24,86 28,88 32,89 37,90 41,91 45,90 49,87 53,90 57,89 61,85 66,84 70,85 74,86 78,87 82,88 86,86 90,88 94,85 99,84 103,81 107,81 111,80 115,84 119,84 123,87 127,87 131,87 136,87 140,87 144,86 148,85 152,84 156,84 160,86 165,89 169,91 173,92 177,92 181,92 186,88 190,87 194,88 199,86 203,88 207,85 211,84 215,81 219,81 223,80 227,84 232,84 236,87 240,87 244,87 248,87 252,87 256,86 261,85 265,84 269,84 273,86 277,89 281,91 285,92 290,92 294,92 298,88 303,87 307,88 311,86 315,88 319,85 323,84 327,81 331,81 336,80 340,84 344,84 348,87 352,87 356,87 360,87 364,87 369,86 373,85 377,84 381,84 385,86 389,89 394,91 398,92 402,92 406,92 411,88 415,87 419,87" stroke="#2963da" fill="none" stroke-width="3" stroke-linejoin="round" stroke-linecap="round" />
</svg>