<svg width="419" height="100" viewBox="0 0 419 100" xmlns="http://www.w3.org/2000/svg" xmlns:xlink="http://www.w3.org/1999/xlink"><defs>
<linearGradient id="grad" x1="0%" y1="0%" x2="0%" y2="100%">
<stop offset="0%" stop-color="#2963da" stop-opacity="0.40"/>
<stop offset="100%" stop-color="#070720" stop-opacity="0.20"/>
</linearGradient>
</defs>
<rect x="0" y="0" width="419" height="100" fill="none" />
<polygon points="0,92 4,92 8,92 12,92 16,92 20,92 24,92 28,92 32,92 37,92 41,92 45,92 49,92 53,92 57,92 61,92 65,92 69,91 74,92 78,92 82,92 86,92 90,90 94,91 98,92 102,92 106,92 110,92 114,92 118,92 123,92 127,92 131,92 135,92 139,92 143,92 147,92 151,92 155,91 159,92 164,92 168,92 172,92 176,91 180,92 184,92 188,92 192,92 196,92 201,92 205,92 209,92 213,92 217,92 221,92 225,92 230,92 234,92 238,92 242,92 246,92 250,92 254,91 258,91 262,92 267,92 271,92 275,92 279,89 283,92 287,92 291,90 295,91 299,92 304,92 308,92 312,90 316,89 320,91 324,92 328,91 332,92 336,92 341,92 345,92 349,90 353,87 357,84 361,84 365,88 369,92 373,92 377,92 381,92 385,92 390,92 394,91 398,89 402,87 406,88 410,91 414,92 419,92 419,100 0,100" fill="url(#grad)" stroke="none" />
<polyline points="0,92 4,92 8,92 12,92 16,92 20,92 24,92 28,92 32,92 37,92 41,92 45,92 49,92 53,92 57,92 61,92 65,92 69,91 74,92 78,92 82,92 86,92 90,90 94,91 98,92 102,92 106,92 110,92 114,92 118,92 123,92 127,92 131,92 135,92 139,92 143,92 147,92 151,92 155,91 159,92 164,92 168,92 172,92 176,91 180,92 184,92 188,92 192,92 196,92 201,92 205,92 209,92 213,92 217,92 221,92 225,92 230,92 234,92 238,92 242,92 246,92 250,92 254,91 258,91 262,92 267,92 271,92 275,92 279,89 283,92 287,92 291,90 295,91 299,92 304,92 308,92 312,90 316,89 320,91 324,92 328,91 332,92 336,92 341,92 345,92 349,90 353,87 357,84 361,84 365,88 369,92 373,92 377,92 381,92 385,92 390,92 394,91 398,89 402,87 406,88 410,91 414,92 419,92" stroke="#2963da" fill="none" stroke-width="3" stroke-linejoin="round" stroke-linecap="round" />
</svg>