<svg width="419" height="100" viewBox="0 0 419 100" xmlns="http://www.w3.org/2000/svg" xmlns:xlink="http://www.w3.org/1999/xlink"><defs>
<linearGradient id="grad" x1="0%" y1="0%" x2="0%" y2="100%">
<stop offset="0%" stop-color="#2963da" stop-opacity="0.40"/>
<stop offset="100%" stop-color="#070720" stop-opacity="0.20"/>
</linearGradient>
</defs>
<rect x="0" y="0" width="419" height="100" fill="none" />
<polygon points="0,91 4,91 8,91 12,90 16,90 20,89 24,88 28,88 33,88 37,89 41,88 45,89 49,89 53,88 57,88 62,89 66,91 70,90 74,91 78,89 82,88 86,88 91,88 95,88 99,89 103,89 107,89 111,89 116,90 120,91 124,91 128,90 132,90 136,90 140,90 145,90 149,89 153,88 157,90 161,90 165,89 169,90 173,90 178,90 182,88 186,86 191,86 195,86 199,86 203,85 207,86 211,89 215,90 219,90 223,90 227,90 232,89 236,89 240,91 244,91 249,92 253,92 257,92 262,92 266,92 270,92 274,91 278,91 282,90 286,92 290,92 294,91 299,92 303,91 307,91 311,92 315,92 319,92 324,92 328,91 332,91 336,90 340,88 344,87 348,87 352,86 357,84 361,83 365,82 369,81 373,79 377,75 381,71 385,65 390,59 394,53 398,47 402,41 406,37 410,33 414,28 418,21 419,21 419,100 0,100" fill="url(#grad)" stroke="none" />
<polyline points="0,91 4,91 8,91 12,90 16,90 20,89 24,88 28,88 33,88 37,89 41,88 45,89 49,89 53,88 57,88 62,89 66,91 70,90 74,91 78,89 82,88 86,88 91,88 95,88 99,89 103,89 107,89 111,89 116,90 120,91 124,91 128,90 132,90 136,90 140,90 145,90 149,89 153,88 157,90 161,90 165,89 169,90 173,90 178,90 182,88 186,86 191,86 195,86 199,86 203,85 207,86 211,89 215,90 219,90 223,90 227,90 232,89 236,89 240,91 244,91 249,92 253,92 257,92 262,92 266,92 270,92 274,91 278,91 282,90 286,92 290,92 294,91 299,92 303,91 307,91 311,92 315,92 319,92 324,92 328,91 332,91 336,90 340,88 344,87 348,87 352,86 357,84 361,83 365,82 369,81 373,79 377,75 381,71 385,65 390,59 394,53 398,47 402,41 406,37 410,33 414,28 418,21 419,21" stroke="#2963da" fill="none" stroke-width="3" stroke-linejoin="round" stroke-linecap="round" />
</svg>