<svg width="419" height="100" viewBox="0 0 419 100" xmlns="http://www.w3.org/2000/svg" xmlns:xlink="http://www.w3.org/1999/xlink"><defs>
<linearGradient id="grad" x1="0%" y1="0%" x2="0%" y2="100%">
<stop offset="0%" stop-color="#2963da" stop-opacity="0.40"/>
<stop offset="100%" stop-color="#070720" stop-opacity="0.20"/>
</linearGradient>
</defs>
<rect x="0" y="0" width="419" height="100" fill="none" />
<polygon points="0,88 4,88 8,88 12,89 16,89 20,88 24,88 28,88 32,88 36,88 40,91 44,91 48,91 52,91 56,92 60,92 64,90 69,90 73,90 77,92 81,92 85,91 89,89 93,92 98,92 102,91 106,90 110,92 114,91 118,89 122,88 126,88 131,88 135,88 139,88 143,88 147,88 151,89 155,89 159,88 163,88 167,88 171,88 175,90 180,91 184,91 188,89 192,89 196,91 200,92 204,92 208,90 212,88 216,88 220,88 225,88 229,88 233,88 237,89 241,90 245,90 249,90 253,90 257,89 261,88 265,88 269,88 273,88 277,88 282,88 286,89 290,89 294,88 298,88 302,88 306,88 310,89 314,91 318,91 322,91 326,92 330,92 335,91 339,90 343,91 347,91 351,92 355,92 359,91 364,90 368,92 372,92 376,91 380,90 384,92 388,91 392,89 396,88 400,88 404,88 408,88 412,88 416,88 419,88 419,100 0,100" fill="url(#grad)" stroke="none" />
<polyline points="0,88 4,88 8,88 12,89 16,89 20,88 24,88 28,88 32,88 36,88 40,91 44,91 48,91 52,91 56,92 60,92 64,90 69,90 73,90 77,92 81,92 85,91 89,89 93,92 98,92 102,91 106,90 110,92 114,91 118,89 122,88 126,88 131,88 135,88 139,88 143,88 147,88 151,89 155,89 159,88 163,88 167,88 171,88 175,90 180,91 184,91 188,89 192,89 196,91 200,92 204,92 208,90 212,88 216,88 220,88 225,88 229,88 233,88 237,89 241,90 245,90 249,90 253,90 257,89 261,88 265,88 269,88 273,88 277,88 282,88 286,89 290,89 294,88 298,88 302,88 306,88 310,89 314,91 318,91 322,91 326,92 330,92 335,91 339,90 343,91 347,91 351,92 355,92 359,91 364,90 368,92 372,92 376,91 380,90 384,92 388,91 392,89 396,88 400,88 404,88 408,88 412,88 416,88 419,88" stroke="#2963da" fill="none" stroke-width="3" stroke-linejoin="round" stroke-linecap="round" />
</svg>