<svg width="419" height="100" viewBox="0 0 419 100" xmlns="http://www.w3.org/2000/svg" xmlns:xlink="http://www.w3.org/1999/xlink"><defs>
<linearGradient id="grad" x1="0%" y1="0%" x2="0%" y2="100%">
<stop offset="0%" stop-color="#2963da" stop-opacity="0.40"/>
<stop offset="100%" stop-color="#070720" stop-opacity="0.20"/>
</linearGradient>
</defs>
<rect x="0" y="0" width="419" height="100" fill="none" />
<polygon points="0,91 4,91 8,91 13,91 17,91 21,90 25,90 30,90 34,91 38,91 42,91 46,90 51,90 55,90 59,91 63,91 67,91 71,91 75,90 80,90 84,91 88,91 93,91 97,91 101,92 106,92 110,92 114,92 118,92 122,91 126,91 131,91 135,91 139,91 143,91 148,91 152,91 156,91 160,91 164,91 168,91 173,90 177,90 181,90 185,89 189,88 193,88 198,88 203,89 207,89 211,89 215,90 219,90 224,90 228,90 232,91 236,91 240,91 244,92 248,92 252,92 256,92 261,92 265,92 269,92 273,92 277,92 282,92 286,92 290,92 294,92 299,92 305,92 309,92 313,92 317,92 322,92 326,92 330,92 334,92 339,92 343,92 348,92 352,92 356,91 361,91 365,90 369,90 374,90 378,90 382,90 386,91 390,91 395,91 399,91 403,91 408,92 412,92 416,92 419,92 419,100 0,100" fill="url(#grad)" stroke="none" />
<polyline points="0,91 4,91 8,91 13,91 17,91 21,90 25,90 30,90 34,91 38,91 42,91 46,90 51,90 55,90 59,91 63,91 67,91 71,91 75,90 80,90 84,91 88,91 93,91 97,91 101,92 106,92 110,92 114,92 118,92 122,91 126,91 131,91 135,91 139,91 143,91 148,91 152,91 156,91 160,91 164,91 168,91 173,90 177,90 181,90 185,89 189,88 193,88 198,88 203,89 207,89 211,89 215,90 219,90 224,90 228,90 232,91 236,91 240,91 244,92 248,92 252,92 256,92 261,92 265,92 269,92 273,92 277,92 282,92 286,92 290,92 294,92 299,92 305,92 309,92 313,92 317,92 322,92 326,92 330,92 334,92 339,92 343,92 348,92 352,92 356,91 361,91 365,90 369,90 374,90 378,90 382,90 386,91 390,91 395,91 399,91 403,91 408,92 412,92 416,92 419,92" stroke="#2963da" fill="none" stroke-width="3" stroke-linejoin="round" stroke-linecap="round" />
</svg>