<svg width="419" height="100" viewBox="0 0 419 100" xmlns="http://www.w3.org/2000/svg" xmlns:xlink="http://www.w3.org/1999/xlink"><defs>
<linearGradient id="grad" x1="0%" y1="0%" x2="0%" y2="100%">
<stop offset="0%" stop-color="#2963da" stop-opacity="0.40"/>
<stop offset="100%" stop-color="#070720" stop-opacity="0.20"/>
</linearGradient>
</defs>
<rect x="0" y="0" width="419" height="100" fill="none" />
<polygon points="0,92 4,92 8,92 12,92 16,89 20,88 24,86 29,87 33,86 37,83 41,85 45,87 49,90 53,89 57,87 61,88 65,88 69,85 74,83 78,84 82,86 86,85 90,85 94,85 98,86 102,86 107,89 111,92 116,92 120,92 124,92 128,92 132,92 137,92 141,92 145,92 149,92 153,92 158,92 162,92 166,91 170,91 174,90 179,92 183,90 187,89 191,86 195,85 199,85 204,85 208,85 212,83 216,86 220,83 224,85 228,84 232,86 236,88 240,90 244,91 249,92 253,92 258,92 262,92 266,92 270,92 274,92 278,92 282,89 287,86 291,86 295,88 299,92 303,92 307,91 311,89 316,87 320,85 324,81 328,76 332,73 336,69 340,65 345,64 349,66 353,67 357,69 361,73 365,74 369,76 374,80 378,84 382,84 386,86 390,88 394,90 398,91 402,92 407,92 411,92 415,92 419,92 419,100 0,100" fill="url(#grad)" stroke="none" />
<polyline points="0,92 4,92 8,92 12,92 16,89 20,88 24,86 29,87 33,86 37,83 41,85 45,87 49,90 53,89 57,87 61,88 65,88 69,85 74,83 78,84 82,86 86,85 90,85 94,85 98,86 102,86 107,89 111,92 116,92 120,92 124,92 128,92 132,92 137,92 141,92 145,92 149,92 153,92 158,92 162,92 166,91 170,91 174,90 179,92 183,90 187,89 191,86 195,85 199,85 204,85 208,85 212,83 216,86 220,83 224,85 228,84 232,86 236,88 240,90 244,91 249,92 253,92 258,92 262,92 266,92 270,92 274,92 278,92 282,89 287,86 291,86 295,88 299,92 303,92 307,91 311,89 316,87 320,85 324,81 328,76 332,73 336,69 340,65 345,64 349,66 353,67 357,69 361,73 365,74 369,76 374,80 378,84 382,84 386,86 390,88 394,90 398,91 402,92 407,92 411,92 415,92 419,92" stroke="#2963da" fill="none" stroke-width="3" stroke-linejoin="round" stroke-linecap="round" />
</svg>