<svg width="419" height="100" viewBox="0 0 419 100" xmlns="http://www.w3.org/2000/svg" xmlns:xlink="http://www.w3.org/1999/xlink"><defs>
<linearGradient id="grad" x1="0%" y1="0%" x2="0%" y2="100%">
<stop offset="0%" stop-color="#2963da" stop-opacity="0.40"/>
<stop offset="100%" stop-color="#070720" stop-opacity="0.20"/>
</linearGradient>
</defs>
<rect x="0" y="0" width="419" height="100" fill="none" />
<polygon points="0,92 4,92 8,92 13,90 17,86 21,84 25,81 29,79 33,78 37,76 41,73 46,75 50,73 54,71 58,70 62,70 66,73 70,74 75,76 79,77 83,79 87,78 91,80 95,81 99,83 103,83 107,83 111,83 115,81 120,81 124,81 128,81 133,81 137,82 143,81 147,80 151,78 155,81 160,84 164,83 168,82 172,80 176,80 180,81 185,81 189,80 194,81 198,81 203,81 207,79 211,81 217,82 221,82 225,81 230,82 234,82 238,83 242,83 246,83 251,80 255,81 259,80 263,80 268,80 272,79 276,78 280,77 284,76 288,76 293,79 297,80 301,81 305,76 309,74 313,74 317,74 321,76 325,74 330,75 334,76 338,80 342,82 346,80 351,81 355,79 359,80 364,80 368,79 372,78 376,77 380,76 384,75 388,79 392,80 396,81 401,77 405,75 409,73 413,74 418,76 419,76 419,100 0,100" fill="url(#grad)" stroke="none" />
<polyline points="0,92 4,92 8,92 13,90 17,86 21,84 25,81 29,79 33,78 37,76 41,73 46,75 50,73 54,71 58,70 62,70 66,73 70,74 75,76 79,77 83,79 87,78 91,80 95,81 99,83 103,83 107,83 111,83 115,81 120,81 124,81 128,81 133,81 137,82 143,81 147,80 151,78 155,81 160,84 164,83 168,82 172,80 176,80 180,81 185,81 189,80 194,81 198,81 203,81 207,79 211,81 217,82 221,82 225,81 230,82 234,82 238,83 242,83 246,83 251,80 255,81 259,80 263,80 268,80 272,79 276,78 280,77 284,76 288,76 293,79 297,80 301,81 305,76 309,74 313,74 317,74 321,76 325,74 330,75 334,76 338,80 342,82 346,80 351,81 355,79 359,80 364,80 368,79 372,78 376,77 380,76 384,75 388,79 392,80 396,81 401,77 405,75 409,73 413,74 418,76 419,76" stroke="#2963da" fill="none" stroke-width="3" stroke-linejoin="round" stroke-linecap="round" />
</svg>