<svg width="419" height="100" viewBox="0 0 419 100" xmlns="http://www.w3.org/2000/svg" xmlns:xlink="http://www.w3.org/1999/xlink"><defs>
<linearGradient id="grad" x1="0%" y1="0%" x2="0%" y2="100%">
<stop offset="0%" stop-color="#2963da" stop-opacity="0.40"/>
<stop offset="100%" stop-color="#070720" stop-opacity="0.20"/>
</linearGradient>
</defs>
<rect x="0" y="0" width="419" height="100" fill="none" />
<polygon points="0,91 4,90 11,89 15,87 20,84 24,83 28,79 32,77 36,76 40,78 44,77 48,78 52,81 59,81 63,80 68,84 72,84 77,83 81,83 85,82 90,82 94,80 98,77 102,78 107,76 111,74 116,77 120,79 124,80 128,81 134,82 138,82 143,83 147,83 151,84 155,84 159,83 164,82 168,80 172,78 176,79 180,81 184,81 188,80 192,80 197,79 201,80 205,80 210,79 214,78 218,78 222,77 226,76 230,78 235,80 240,81 244,82 248,80 252,80 256,80 261,80 265,81 269,81 274,79 278,78 283,75 287,76 291,78 295,78 300,79 304,82 308,82 312,83 317,83 321,83 327,83 332,80 336,81 341,80 345,78 350,78 354,77 359,75 363,78 367,81 371,83 376,85 380,88 386,90 391,90 395,91 399,92 404,92 408,92 412,92 416,92 419,92 419,100 0,100" fill="url(#grad)" stroke="none" />
<polyline points="0,91 4,90 11,89 15,87 20,84 24,83 28,79 32,77 36,76 40,78 44,77 48,78 52,81 59,81 63,80 68,84 72,84 77,83 81,83 85,82 90,82 94,80 98,77 102,78 107,76 111,74 116,77 120,79 124,80 128,81 134,82 138,82 143,83 147,83 151,84 155,84 159,83 164,82 168,80 172,78 176,79 180,81 184,81 188,80 192,80 197,79 201,80 205,80 210,79 214,78 218,78 222,77 226,76 230,78 235,80 240,81 244,82 248,80 252,80 256,80 261,80 265,81 269,81 274,79 278,78 283,75 287,76 291,78 295,78 300,79 304,82 308,82 312,83 317,83 321,83 327,83 332,80 336,81 341,80 345,78 350,78 354,77 359,75 363,78 367,81 371,83 376,85 380,88 386,90 391,90 395,91 399,92 404,92 408,92 412,92 416,92 419,92" stroke="#2963da" fill="none" stroke-width="3" stroke-linejoin="round" stroke-linecap="round" />
</svg>