<svg width="419" height="100" viewBox="0 0 419 100" xmlns="http://www.w3.org/2000/svg" xmlns:xlink="http://www.w3.org/1999/xlink"><defs>
<linearGradient id="grad" x1="0%" y1="0%" x2="0%" y2="100%">
<stop offset="0%" stop-color="#2963da" stop-opacity="0.40"/>
<stop offset="100%" stop-color="#070720" stop-opacity="0.20"/>
</linearGradient>
</defs>
<rect x="0" y="0" width="419" height="100" fill="none" />
<polygon points="0,92 4,92 8,92 12,92 16,92 20,92 24,92 28,92 32,92 37,91 41,91 45,92 49,92 53,92 57,92 61,92 65,92 69,91 73,92 78,92 82,92 86,91 90,90 94,89 98,89 102,89 106,89 110,90 114,90 118,91 122,90 126,88 130,87 134,87 138,87 142,87 147,89 151,87 155,89 159,89 163,89 167,90 171,87 175,90 179,89 184,89 188,91 192,89 196,88 200,88 204,88 208,88 212,88 216,90 220,89 224,89 228,91 232,89 236,91 240,92 244,91 248,90 253,89 257,88 261,89 265,90 269,89 273,89 277,91 281,90 285,92 290,92 294,91 298,89 302,88 306,88 310,90 314,89 318,89 322,91 326,89 330,91 334,92 338,92 342,91 346,89 350,88 355,88 359,91 363,89 367,89 371,92 375,90 379,92 383,92 387,91 391,89 395,89 399,90 403,89 407,88 411,91 415,89 419,89 419,100 0,100" fill="url(#grad)" stroke="none" />
<polyline points="0,92 4,92 8,92 12,92 16,92 20,92 24,92 28,92 32,92 37,91 41,91 45,92 49,92 53,92 57,92 61,92 65,92 69,91 73,92 78,92 82,92 86,91 90,90 94,89 98,89 102,89 106,89 110,90 114,90 118,91 122,90 126,88 130,87 134,87 138,87 142,87 147,89 151,87 155,89 159,89 163,89 167,90 171,87 175,90 179,89 184,89 188,91 192,89 196,88 200,88 204,88 208,88 212,88 216,90 220,89 224,89 228,91 232,89 236,91 240,92 244,91 248,90 253,89 257,88 261,89 265,90 269,89 273,89 277,91 281,90 285,92 290,92 294,91 298,89 302,88 306,88 310,90 314,89 318,89 322,91 326,89 330,91 334,92 338,92 342,91 346,89 350,88 355,88 359,91 363,89 367,89 371,92 375,90 379,92 383,92 387,91 391,89 395,89 399,90 403,89 407,88 411,91 415,89 419,89" stroke="#2963da" fill="none" stroke-width="3" stroke-linejoin="round" stroke-linecap="round" />
</svg>