<svg width="419" height="100" viewBox="0 0 419 100" xmlns="http://www.w3.org/2000/svg" xmlns:xlink="http://www.w3.org/1999/xlink"><defs>
<linearGradient id="grad" x1="0%" y1="0%" x2="0%" y2="100%">
<stop offset="0%" stop-color="#2963da" stop-opacity="0.40"/>
<stop offset="100%" stop-color="#070720" stop-opacity="0.20"/>
</linearGradient>
</defs>
<rect x="0" y="0" width="419" height="100" fill="none" />
<polygon points="0,88 4,88 8,89 12,89 16,90 20,90 24,90 28,90 32,91 36,91 40,91 44,92 48,92 52,91 56,91 60,91 64,90 68,90 72,91 76,91 80,89 84,89 88,89 92,89 97,89 101,89 105,91 109,89 113,90 117,90 121,90 125,89 129,90 133,91 137,90 141,90 145,92 149,90 153,89 157,89 161,90 165,90 169,91 173,91 177,92 181,90 185,89 189,89 194,91 198,88 202,87 206,87 210,89 214,90 218,89 222,88 226,89 230,89 234,88 238,88 242,88 246,88 250,88 254,88 258,88 262,88 266,87 270,87 274,89 278,91 282,91 286,89 291,89 295,88 299,89 303,91 307,91 311,89 315,88 319,89 323,87 327,87 331,88 335,87 339,87 343,88 347,89 351,88 355,88 359,89 363,89 367,87 371,88 375,89 379,88 384,88 388,89 392,89 396,88 400,88 404,89 408,88 412,88 416,89 419,89 419,100 0,100" fill="url(#grad)" stroke="none" />
<polyline points="0,88 4,88 8,89 12,89 16,90 20,90 24,90 28,90 32,91 36,91 40,91 44,92 48,92 52,91 56,91 60,91 64,90 68,90 72,91 76,91 80,89 84,89 88,89 92,89 97,89 101,89 105,91 109,89 113,90 117,90 121,90 125,89 129,90 133,91 137,90 141,90 145,92 149,90 153,89 157,89 161,90 165,90 169,91 173,91 177,92 181,90 185,89 189,89 194,91 198,88 202,87 206,87 210,89 214,90 218,89 222,88 226,89 230,89 234,88 238,88 242,88 246,88 250,88 254,88 258,88 262,88 266,87 270,87 274,89 278,91 282,91 286,89 291,89 295,88 299,89 303,91 307,91 311,89 315,88 319,89 323,87 327,87 331,88 335,87 339,87 343,88 347,89 351,88 355,88 359,89 363,89 367,87 371,88 375,89 379,88 384,88 388,89 392,89 396,88 400,88 404,89 408,88 412,88 416,89 419,89" stroke="#2963da" fill="none" stroke-width="3" stroke-linejoin="round" stroke-linecap="round" />
</svg>