<svg width="419" height="100" viewBox="0 0 419 100" xmlns="http://www.w3.org/2000/svg" xmlns:xlink="http://www.w3.org/1999/xlink"><defs>
<linearGradient id="grad" x1="0%" y1="0%" x2="0%" y2="100%">
<stop offset="0%" stop-color="#2963da" stop-opacity="0.40"/>
<stop offset="100%" stop-color="#070720" stop-opacity="0.20"/>
</linearGradient>
</defs>
<rect x="0" y="0" width="419" height="100" fill="none" />
<polygon points="0,88 4,89 8,89 12,90 16,90 20,91 25,91 29,91 35,91 39,91 44,91 48,92 52,92 58,92 62,92 66,92 70,92 74,92 78,92 83,92 87,92 91,92 95,92 99,92 103,92 107,92 111,92 115,92 119,92 124,92 128,92 132,92 136,92 140,92 144,92 149,92 153,92 157,92 161,92 165,92 169,91 173,88 177,85 181,82 185,82 189,83 194,85 198,88 202,91 206,92 210,92 214,88 218,83 222,78 226,75 230,74 234,78 239,83 243,88 247,91 251,91 255,91 259,91 264,90 268,90 273,90 277,90 281,89 285,90 289,91 293,91 297,91 301,91 305,91 310,91 314,90 318,90 322,90 326,90 330,89 334,86 338,86 342,86 346,85 351,84 355,83 359,83 363,82 367,86 371,89 375,88 379,89 383,87 387,88 392,90 396,91 400,91 404,91 408,91 412,91 416,91 419,90 419,100 0,100" fill="url(#grad)" stroke="none" />
<polyline points="0,88 4,89 8,89 12,90 16,90 20,91 25,91 29,91 35,91 39,91 44,91 48,92 52,92 58,92 62,92 66,92 70,92 74,92 78,92 83,92 87,92 91,92 95,92 99,92 103,92 107,92 111,92 115,92 119,92 124,92 128,92 132,92 136,92 140,92 144,92 149,92 153,92 157,92 161,92 165,92 169,91 173,88 177,85 181,82 185,82 189,83 194,85 198,88 202,91 206,92 210,92 214,88 218,83 222,78 226,75 230,74 234,78 239,83 243,88 247,91 251,91 255,91 259,91 264,90 268,90 273,90 277,90 281,89 285,90 289,91 293,91 297,91 301,91 305,91 310,91 314,90 318,90 322,90 326,90 330,89 334,86 338,86 342,86 346,85 351,84 355,83 359,83 363,82 367,86 371,89 375,88 379,89 383,87 387,88 392,90 396,91 400,91 404,91 408,91 412,91 416,91 419,90" stroke="#2963da" fill="none" stroke-width="3" stroke-linejoin="round" stroke-linecap="round" />
</svg>