<svg width="419" height="100" viewBox="0 0 419 100" xmlns="http://www.w3.org/2000/svg" xmlns:xlink="http://www.w3.org/1999/xlink"><defs>
<linearGradient id="grad" x1="0%" y1="0%" x2="0%" y2="100%">
<stop offset="0%" stop-color="#2963da" stop-opacity="0.40"/>
<stop offset="100%" stop-color="#070720" stop-opacity="0.20"/>
</linearGradient>
</defs>
<rect x="0" y="0" width="419" height="100" fill="none" />
<polygon points="0,92 4,92 8,92 12,91 16,89 20,90 25,91 29,90 33,89 37,87 42,85 46,85 50,87 54,87 58,87 62,87 66,87 70,85 74,83 78,84 82,84 86,86 90,84 95,84 99,86 103,87 108,88 112,90 116,91 120,91 124,91 128,91 132,91 136,90 140,89 145,87 149,87 153,87 157,90 161,89 165,86 169,85 173,84 177,84 181,86 185,88 189,89 193,88 197,87 202,82 206,79 210,77 214,74 218,80 222,83 226,87 230,86 235,86 239,84 243,84 247,84 251,83 255,82 259,81 263,79 267,80 272,78 276,77 280,76 284,75 288,72 292,69 296,66 300,61 304,56 308,50 312,45 317,44 321,48 325,52 329,58 333,61 337,63 341,69 345,74 349,72 353,72 357,70 361,69 365,67 369,64 373,63 378,61 382,58 386,55 390,54 394,51 398,50 402,47 406,42 410,38 414,33 418,28 419,28 419,100 0,100" fill="url(#grad)" stroke="none" />
<polyline points="0,92 4,92 8,92 12,91 16,89 20,90 25,91 29,90 33,89 37,87 42,85 46,85 50,87 54,87 58,87 62,87 66,87 70,85 74,83 78,84 82,84 86,86 90,84 95,84 99,86 103,87 108,88 112,90 116,91 120,91 124,91 128,91 132,91 136,90 140,89 145,87 149,87 153,87 157,90 161,89 165,86 169,85 173,84 177,84 181,86 185,88 189,89 193,88 197,87 202,82 206,79 210,77 214,74 218,80 222,83 226,87 230,86 235,86 239,84 243,84 247,84 251,83 255,82 259,81 263,79 267,80 272,78 276,77 280,76 284,75 288,72 292,69 296,66 300,61 304,56 308,50 312,45 317,44 321,48 325,52 329,58 333,61 337,63 341,69 345,74 349,72 353,72 357,70 361,69 365,67 369,64 373,63 378,61 382,58 386,55 390,54 394,51 398,50 402,47 406,42 410,38 414,33 418,28 419,28" stroke="#2963da" fill="none" stroke-width="3" stroke-linejoin="round" stroke-linecap="round" />
</svg>