<svg width="419" height="100" viewBox="0 0 419 100" xmlns="http://www.w3.org/2000/svg" xmlns:xlink="http://www.w3.org/1999/xlink"><defs>
<linearGradient id="grad" x1="0%" y1="0%" x2="0%" y2="100%">
<stop offset="0%" stop-color="#2963da" stop-opacity="0.40"/>
<stop offset="100%" stop-color="#070720" stop-opacity="0.20"/>
</linearGradient>
</defs>
<rect x="0" y="0" width="419" height="100" fill="none" />
<polygon points="0,92 4,92 8,92 12,92 16,92 20,92 24,92 28,92 32,91 36,91 40,91 44,91 48,91 52,92 56,91 60,91 64,92 68,92 72,92 76,92 80,92 84,92 88,92 92,92 97,92 101,92 105,92 109,92 113,92 117,92 121,92 125,92 129,92 133,92 137,92 141,92 145,92 149,92 153,91 157,90 161,91 165,90 169,92 173,89 177,88 181,90 185,90 190,91 194,91 198,89 202,89 206,89 210,90 214,89 218,90 222,89 226,89 230,89 234,89 238,89 242,88 246,88 250,88 254,88 258,88 262,88 266,87 270,86 274,86 279,86 283,86 287,86 291,86 295,86 299,87 303,89 307,90 311,87 315,87 319,88 323,91 327,92 331,90 335,89 339,92 343,91 347,91 351,92 355,92 359,92 363,92 368,92 372,92 376,92 380,92 384,92 388,92 392,89 396,90 400,92 404,91 408,91 412,92 416,92 419,92 419,100 0,100" fill="url(#grad)" stroke="none" />
<polyline points="0,92 4,92 8,92 12,92 16,92 20,92 24,92 28,92 32,91 36,91 40,91 44,91 48,91 52,92 56,91 60,91 64,92 68,92 72,92 76,92 80,92 84,92 88,92 92,92 97,92 101,92 105,92 109,92 113,92 117,92 121,92 125,92 129,92 133,92 137,92 141,92 145,92 149,92 153,91 157,90 161,91 165,90 169,92 173,89 177,88 181,90 185,90 190,91 194,91 198,89 202,89 206,89 210,90 214,89 218,90 222,89 226,89 230,89 234,89 238,89 242,88 246,88 250,88 254,88 258,88 262,88 266,87 270,86 274,86 279,86 283,86 287,86 291,86 295,86 299,87 303,89 307,90 311,87 315,87 319,88 323,91 327,92 331,90 335,89 339,92 343,91 347,91 351,92 355,92 359,92 363,92 368,92 372,92 376,92 380,92 384,92 388,92 392,89 396,90 400,92 404,91 408,91 412,92 416,92 419,92" stroke="#2963da" fill="none" stroke-width="3" stroke-linejoin="round" stroke-linecap="round" />
</svg>