<svg width="419" height="100" viewBox="0 0 419 100" xmlns="http://www.w3.org/2000/svg" xmlns:xlink="http://www.w3.org/1999/xlink"><defs>
<linearGradient id="grad" x1="0%" y1="0%" x2="0%" y2="100%">
<stop offset="0%" stop-color="#2963da" stop-opacity="0.40"/>
<stop offset="100%" stop-color="#070720" stop-opacity="0.20"/>
</linearGradient>
</defs>
<rect x="0" y="0" width="419" height="100" fill="none" />
<polygon points="0,90 4,89 8,88 12,87 16,88 20,90 24,91 28,91 32,92 36,92 40,92 44,92 48,92 52,91 56,90 60,90 64,90 68,90 72,90 76,90 81,89 85,88 89,87 93,87 97,88 101,88 105,90 109,88 113,88 117,89 121,90 125,91 129,92 133,91 137,92 141,92 145,92 149,92 154,92 158,92 162,92 166,90 170,90 174,91 178,92 182,92 186,92 190,92 194,92 198,91 202,90 206,90 210,90 214,91 218,90 222,90 227,89 231,90 235,91 239,90 243,90 247,89 251,89 255,90 259,91 263,90 267,90 271,89 275,90 279,91 283,90 288,90 292,89 296,89 300,90 304,91 308,90 312,90 316,89 320,90 324,91 328,90 332,90 336,89 340,89 344,90 348,91 352,90 357,90 361,89 365,90 369,91 373,90 377,90 381,89 385,89 389,90 393,91 397,90 401,90 405,89 409,90 413,91 418,90 419,90 419,100 0,100" fill="url(#grad)" stroke="none" />
<polyline points="0,90 4,89 8,88 12,87 16,88 20,90 24,91 28,91 32,92 36,92 40,92 44,92 48,92 52,91 56,90 60,90 64,90 68,90 72,90 76,90 81,89 85,88 89,87 93,87 97,88 101,88 105,90 109,88 113,88 117,89 121,90 125,91 129,92 133,91 137,92 141,92 145,92 149,92 154,92 158,92 162,92 166,90 170,90 174,91 178,92 182,92 186,92 190,92 194,92 198,91 202,90 206,90 210,90 214,91 218,90 222,90 227,89 231,90 235,91 239,90 243,90 247,89 251,89 255,90 259,91 263,90 267,90 271,89 275,90 279,91 283,90 288,90 292,89 296,89 300,90 304,91 308,90 312,90 316,89 320,90 324,91 328,90 332,90 336,89 340,89 344,90 348,91 352,90 357,90 361,89 365,90 369,91 373,90 377,90 381,89 385,89 389,90 393,91 397,90 401,90 405,89 409,90 413,91 418,90 419,90" stroke="#2963da" fill="none" stroke-width="3" stroke-linejoin="round" stroke-linecap="round" />
</svg>