<svg width="419" height="100" viewBox="0 0 419 100" xmlns="http://www.w3.org/2000/svg" xmlns:xlink="http://www.w3.org/1999/xlink"><defs>
<linearGradient id="grad" x1="0%" y1="0%" x2="0%" y2="100%">
<stop offset="0%" stop-color="#2963da" stop-opacity="0.40"/>
<stop offset="100%" stop-color="#070720" stop-opacity="0.20"/>
</linearGradient>
</defs>
<rect x="0" y="0" width="419" height="100" fill="none" />
<polygon points="0,91 4,92 8,92 12,92 16,92 20,91 25,89 29,90 33,91 37,91 42,91 46,91 50,90 54,91 58,92 62,92 66,92 70,92 74,92 78,92 82,92 87,91 91,91 95,91 99,91 103,91 107,92 111,91 116,92 120,90 124,91 128,91 132,92 136,92 140,92 144,92 148,91 152,89 157,90 161,91 165,91 170,91 174,91 178,90 182,91 186,92 190,92 194,92 198,92 202,92 206,92 210,92 214,91 218,91 223,91 227,91 231,91 235,92 239,91 243,92 248,90 252,91 256,91 260,91 264,91 268,91 273,91 277,91 282,91 286,91 290,91 294,91 298,92 302,92 306,92 310,92 314,92 318,92 322,92 327,91 331,91 335,91 339,91 343,91 348,91 352,92 356,92 360,90 364,91 368,91 372,90 376,91 380,90 384,90 388,91 393,91 397,90 401,91 405,91 409,92 414,92 418,91 419,91 419,100 0,100" fill="url(#grad)" stroke="none" />
<polyline points="0,91 4,92 8,92 12,92 16,92 20,91 25,89 29,90 33,91 37,91 42,91 46,91 50,90 54,91 58,92 62,92 66,92 70,92 74,92 78,92 82,92 87,91 91,91 95,91 99,91 103,91 107,92 111,91 116,92 120,90 124,91 128,91 132,92 136,92 140,92 144,92 148,91 152,89 157,90 161,91 165,91 170,91 174,91 178,90 182,91 186,92 190,92 194,92 198,92 202,92 206,92 210,92 214,91 218,91 223,91 227,91 231,91 235,92 239,91 243,92 248,90 252,91 256,91 260,91 264,91 268,91 273,91 277,91 282,91 286,91 290,91 294,91 298,92 302,92 306,92 310,92 314,92 318,92 322,92 327,91 331,91 335,91 339,91 343,91 348,91 352,92 356,92 360,90 364,91 368,91 372,90 376,91 380,90 384,90 388,91 393,91 397,90 401,91 405,91 409,92 414,92 418,91 419,91" stroke="#2963da" fill="none" stroke-width="3" stroke-linejoin="round" stroke-linecap="round" />
</svg>