<svg width="419" height="100" viewBox="0 0 419 100" xmlns="http://www.w3.org/2000/svg" xmlns:xlink="http://www.w3.org/1999/xlink"><defs>
<linearGradient id="grad" x1="0%" y1="0%" x2="0%" y2="100%">
<stop offset="0%" stop-color="#2963da" stop-opacity="0.40"/>
<stop offset="100%" stop-color="#070720" stop-opacity="0.20"/>
</linearGradient>
</defs>
<rect x="0" y="0" width="419" height="100" fill="none" />
<polygon points="0,92 4,92 8,92 12,92 16,92 20,92 25,92 30,92 34,92 38,92 43,92 47,92 51,92 55,92 59,92 64,92 68,92 72,92 76,92 80,92 85,92 89,92 93,92 97,92 101,92 106,92 110,92 115,92 119,92 123,92 127,92 131,92 136,92 140,92 145,92 149,92 154,92 158,92 162,91 166,91 171,91 176,91 180,91 184,91 188,91 193,91 198,90 202,90 207,90 211,89 215,89 220,89 224,89 238,90 242,90 246,91 250,91 255,91 259,92 263,92 267,92 273,92 277,92 281,92 285,92 289,92 293,92 298,92 302,92 307,92 312,92 316,92 320,92 324,92 329,92 334,92 341,92 346,92 350,92 354,92 358,92 362,92 366,92 371,92 375,92 379,92 383,92 388,92 392,92 396,92 400,92 405,92 409,92 414,92 418,92 419,92 419,100 0,100" fill="url(#grad)" stroke="none" />
<polyline points="0,92 4,92 8,92 12,92 16,92 20,92 25,92 30,92 34,92 38,92 43,92 47,92 51,92 55,92 59,92 64,92 68,92 72,92 76,92 80,92 85,92 89,92 93,92 97,92 101,92 106,92 110,92 115,92 119,92 123,92 127,92 131,92 136,92 140,92 145,92 149,92 154,92 158,92 162,91 166,91 171,91 176,91 180,91 184,91 188,91 193,91 198,90 202,90 207,90 211,89 215,89 220,89 224,89 238,90 242,90 246,91 250,91 255,91 259,92 263,92 267,92 273,92 277,92 281,92 285,92 289,92 293,92 298,92 302,92 307,92 312,92 316,92 320,92 324,92 329,92 334,92 341,92 346,92 350,92 354,92 358,92 362,92 366,92 371,92 375,92 379,92 383,92 388,92 392,92 396,92 400,92 405,92 409,92 414,92 418,92 419,92" stroke="#2963da" fill="none" stroke-width="3" stroke-linejoin="round" stroke-linecap="round" />
</svg>