<svg width="419" height="100" viewBox="0 0 419 100" xmlns="http://www.w3.org/2000/svg" xmlns:xlink="http://www.w3.org/1999/xlink"><defs>
<linearGradient id="grad" x1="0%" y1="0%" x2="0%" y2="100%">
<stop offset="0%" stop-color="#2963da" stop-opacity="0.40"/>
<stop offset="100%" stop-color="#070720" stop-opacity="0.20"/>
</linearGradient>
</defs>
<rect x="0" y="0" width="419" height="100" fill="none" />
<polygon points="0,91 4,90 8,91 12,91 16,92 20,90 24,91 28,92 32,90 36,89 40,87 44,89 48,92 52,88 57,87 61,86 65,85 69,86 73,85 77,85 81,86 85,85 89,86 93,85 97,84 101,84 105,83 109,84 113,83 117,84 122,86 126,88 130,86 134,85 138,84 142,84 146,85 150,85 154,88 158,88 162,87 166,86 170,83 174,79 178,75 182,75 187,74 191,75 195,77 199,77 203,75 207,74 211,74 215,77 219,81 223,83 227,83 231,81 235,79 239,75 243,70 248,66 252,63 256,66 260,67 264,63 268,64 272,68 276,73 280,76 284,79 288,80 292,77 296,74 300,70 304,69 309,71 313,75 317,74 321,73 325,71 329,67 333,64 337,62 341,57 345,55 349,58 353,62 357,67 361,72 365,75 370,79 374,77 378,71 382,66 386,68 390,70 394,72 398,76 402,74 406,71 410,67 414,67 418,68 419,68 419,100 0,100" fill="url(#grad)" stroke="none" />
<polyline points="0,91 4,90 8,91 12,91 16,92 20,90 24,91 28,92 32,90 36,89 40,87 44,89 48,92 52,88 57,87 61,86 65,85 69,86 73,85 77,85 81,86 85,85 89,86 93,85 97,84 101,84 105,83 109,84 113,83 117,84 122,86 126,88 130,86 134,85 138,84 142,84 146,85 150,85 154,88 158,88 162,87 166,86 170,83 174,79 178,75 182,75 187,74 191,75 195,77 199,77 203,75 207,74 211,74 215,77 219,81 223,83 227,83 231,81 235,79 239,75 243,70 248,66 252,63 256,66 260,67 264,63 268,64 272,68 276,73 280,76 284,79 288,80 292,77 296,74 300,70 304,69 309,71 313,75 317,74 321,73 325,71 329,67 333,64 337,62 341,57 345,55 349,58 353,62 357,67 361,72 365,75 370,79 374,77 378,71 382,66 386,68 390,70 394,72 398,76 402,74 406,71 410,67 414,67 418,68 419,68" stroke="#2963da" fill="none" stroke-width="3" stroke-linejoin="round" stroke-linecap="round" />
</svg>