<svg width="419" height="100" viewBox="0 0 419 100" xmlns="http://www.w3.org/2000/svg" xmlns:xlink="http://www.w3.org/1999/xlink"><defs>
<linearGradient id="grad" x1="0%" y1="0%" x2="0%" y2="100%">
<stop offset="0%" stop-color="#2963da" stop-opacity="0.40"/>
<stop offset="100%" stop-color="#070720" stop-opacity="0.20"/>
</linearGradient>
</defs>
<rect x="0" y="0" width="419" height="100" fill="none" />
<polygon points="0,92 4,92 8,92 12,92 17,92 21,92 25,92 29,92 33,92 37,92 42,92 46,92 50,92 54,92 58,92 62,92 66,92 71,92 75,91 79,88 83,85 87,86 91,83 95,82 99,81 103,79 108,80 112,82 116,83 120,84 124,87 128,88 132,85 136,83 141,81 145,80 149,77 153,75 157,76 161,77 165,80 169,82 174,84 178,85 182,87 186,90 190,92 194,92 198,92 202,92 206,92 210,92 215,92 219,92 223,92 227,92 231,92 236,92 240,92 244,92 248,92 252,92 256,92 260,92 265,92 269,92 273,92 277,92 281,92 285,92 289,92 293,92 297,92 301,92 306,92 310,92 314,92 318,92 322,92 326,92 330,92 335,92 339,92 343,92 347,92 351,92 355,92 359,92 364,92 368,92 372,92 376,92 380,92 384,92 388,92 392,92 396,92 401,92 405,92 409,92 413,92 417,92 419,92 419,100 0,100" fill="url(#grad)" stroke="none" />
<polyline points="0,92 4,92 8,92 12,92 17,92 21,92 25,92 29,92 33,92 37,92 42,92 46,92 50,92 54,92 58,92 62,92 66,92 71,92 75,91 79,88 83,85 87,86 91,83 95,82 99,81 103,79 108,80 112,82 116,83 120,84 124,87 128,88 132,85 136,83 141,81 145,80 149,77 153,75 157,76 161,77 165,80 169,82 174,84 178,85 182,87 186,90 190,92 194,92 198,92 202,92 206,92 210,92 215,92 219,92 223,92 227,92 231,92 236,92 240,92 244,92 248,92 252,92 256,92 260,92 265,92 269,92 273,92 277,92 281,92 285,92 289,92 293,92 297,92 301,92 306,92 310,92 314,92 318,92 322,92 326,92 330,92 335,92 339,92 343,92 347,92 351,92 355,92 359,92 364,92 368,92 372,92 376,92 380,92 384,92 388,92 392,92 396,92 401,92 405,92 409,92 413,92 417,92 419,92" stroke="#2963da" fill="none" stroke-width="3" stroke-linejoin="round" stroke-linecap="round" />
</svg>