<svg width="419" height="100" viewBox="0 0 419 100" xmlns="http://www.w3.org/2000/svg" xmlns:xlink="http://www.w3.org/1999/xlink"><defs>
<linearGradient id="grad" x1="0%" y1="0%" x2="0%" y2="100%">
<stop offset="0%" stop-color="#2963da" stop-opacity="0.40"/>
<stop offset="100%" stop-color="#070720" stop-opacity="0.20"/>
</linearGradient>
</defs>
<rect x="0" y="0" width="419" height="100" fill="none" />
<polygon points="0,92 4,92 8,92 12,92 16,92 20,92 25,92 29,92 34,92 38,92 42,92 46,92 51,92 55,92 59,92 63,92 67,90 71,85 75,85 79,89 83,91 87,92 91,92 95,92 99,92 104,92 108,92 112,92 117,92 121,92 125,92 129,92 133,92 137,92 141,92 145,92 149,92 153,92 158,92 162,92 166,92 170,92 174,92 179,92 183,92 187,92 191,92 195,92 199,91 203,91 207,91 211,91 215,91 220,91 224,92 228,91 232,91 236,91 240,91 244,92 248,92 252,92 256,92 260,92 265,92 269,91 273,92 277,91 281,91 285,90 289,87 293,84 297,87 301,90 305,85 309,80 313,77 317,78 321,81 326,87 330,92 334,91 338,92 342,91 346,91 350,92 354,91 358,91 362,91 366,91 370,89 374,88 379,87 383,88 387,91 391,90 395,87 399,89 403,92 407,91 411,91 415,91 419,88 419,100 0,100" fill="url(#grad)" stroke="none" />
<polyline points="0,92 4,92 8,92 12,92 16,92 20,92 25,92 29,92 34,92 38,92 42,92 46,92 51,92 55,92 59,92 63,92 67,90 71,85 75,85 79,89 83,91 87,92 91,92 95,92 99,92 104,92 108,92 112,92 117,92 121,92 125,92 129,92 133,92 137,92 141,92 145,92 149,92 153,92 158,92 162,92 166,92 170,92 174,92 179,92 183,92 187,92 191,92 195,92 199,91 203,91 207,91 211,91 215,91 220,91 224,92 228,91 232,91 236,91 240,91 244,92 248,92 252,92 256,92 260,92 265,92 269,91 273,92 277,91 281,91 285,90 289,87 293,84 297,87 301,90 305,85 309,80 313,77 317,78 321,81 326,87 330,92 334,91 338,92 342,91 346,91 350,92 354,91 358,91 362,91 366,91 370,89 374,88 379,87 383,88 387,91 391,90 395,87 399,89 403,92 407,91 411,91 415,91 419,88" stroke="#2963da" fill="none" stroke-width="3" stroke-linejoin="round" stroke-linecap="round" />
</svg>