<svg width="419" height="100" viewBox="0 0 419 100" xmlns="http://www.w3.org/2000/svg" xmlns:xlink="http://www.w3.org/1999/xlink"><defs>
<linearGradient id="grad" x1="0%" y1="0%" x2="0%" y2="100%">
<stop offset="0%" stop-color="#2963da" stop-opacity="0.40"/>
<stop offset="100%" stop-color="#070720" stop-opacity="0.20"/>
</linearGradient>
</defs>
<rect x="0" y="0" width="419" height="100" fill="none" />
<polygon points="0,92 4,92 8,92 13,92 17,92 22,92 27,92 32,92 37,91 44,91 49,91 53,91 58,91 63,92 68,92 73,92 77,92 82,92 87,92 93,92 97,92 102,92 106,92 111,92 115,92 119,92 123,91 127,91 132,91 136,91 141,90 145,90 149,90 153,90 159,90 166,89 170,89 175,88 179,88 185,88 190,87 194,87 199,86 204,86 208,86 215,85 221,85 225,84 231,84 237,83 241,83 245,83 249,82 255,82 259,81 263,81 268,81 272,80 277,80 282,79 287,79 292,79 299,79 303,78 307,78 311,77 316,77 322,76 326,76 330,76 334,76 339,76 346,75 350,75 354,74 359,74 363,74 367,73 372,72 377,72 381,72 387,72 393,71 398,71 403,70 416,70 419,69 419,100 0,100" fill="url(#grad)" stroke="none" />
<polyline points="0,92 4,92 8,92 13,92 17,92 22,92 27,92 32,92 37,91 44,91 49,91 53,91 58,91 63,92 68,92 73,92 77,92 82,92 87,92 93,92 97,92 102,92 106,92 111,92 115,92 119,92 123,91 127,91 132,91 136,91 141,90 145,90 149,90 153,90 159,90 166,89 170,89 175,88 179,88 185,88 190,87 194,87 199,86 204,86 208,86 215,85 221,85 225,84 231,84 237,83 241,83 245,83 249,82 255,82 259,81 263,81 268,81 272,80 277,80 282,79 287,79 292,79 299,79 303,78 307,78 311,77 316,77 322,76 326,76 330,76 334,76 339,76 346,75 350,75 354,74 359,74 363,74 367,73 372,72 377,72 381,72 387,72 393,71 398,71 403,70 416,70 419,69" stroke="#2963da" fill="none" stroke-width="3" stroke-linejoin="round" stroke-linecap="round" />
</svg>