<svg width="419" height="100" viewBox="0 0 419 100" xmlns="http://www.w3.org/2000/svg" xmlns:xlink="http://www.w3.org/1999/xlink"><defs>
<linearGradient id="grad" x1="0%" y1="0%" x2="0%" y2="100%">
<stop offset="0%" stop-color="#2963da" stop-opacity="0.40"/>
<stop offset="100%" stop-color="#070720" stop-opacity="0.20"/>
</linearGradient>
</defs>
<rect x="0" y="0" width="419" height="100" fill="none" />
<polygon points="0,82 4,82 8,82 12,83 16,82 20,83 25,85 29,86 33,86 37,87 41,87 46,88 50,89 54,91 58,92 62,92 66,92 70,92 74,92 79,92 83,92 87,92 91,92 95,92 99,92 103,92 108,92 112,92 116,92 120,92 124,91 129,92 133,92 137,91 141,91 145,91 149,91 153,91 157,91 162,90 166,91 170,90 174,90 178,89 182,88 187,87 191,86 195,83 199,82 203,84 207,85 211,87 215,88 219,88 224,88 228,88 232,87 236,86 240,86 244,86 248,86 253,86 257,85 261,85 265,85 270,85 274,84 278,84 282,84 286,83 291,83 295,82 299,81 303,80 307,80 312,80 316,80 320,80 324,79 328,78 332,77 336,76 340,76 344,76 348,75 353,74 357,74 361,73 365,69 369,67 374,66 378,66 382,65 386,64 390,63 394,62 398,61 402,59 406,57 410,57 415,56 419,55 419,100 0,100" fill="url(#grad)" stroke="none" />
<polyline points="0,82 4,82 8,82 12,83 16,82 20,83 25,85 29,86 33,86 37,87 41,87 46,88 50,89 54,91 58,92 62,92 66,92 70,92 74,92 79,92 83,92 87,92 91,92 95,92 99,92 103,92 108,92 112,92 116,92 120,92 124,91 129,92 133,92 137,91 141,91 145,91 149,91 153,91 157,91 162,90 166,91 170,90 174,90 178,89 182,88 187,87 191,86 195,83 199,82 203,84 207,85 211,87 215,88 219,88 224,88 228,88 232,87 236,86 240,86 244,86 248,86 253,86 257,85 261,85 265,85 270,85 274,84 278,84 282,84 286,83 291,83 295,82 299,81 303,80 307,80 312,80 316,80 320,80 324,79 328,78 332,77 336,76 340,76 344,76 348,75 353,74 357,74 361,73 365,69 369,67 374,66 378,66 382,65 386,64 390,63 394,62 398,61 402,59 406,57 410,57 415,56 419,55" stroke="#2963da" fill="none" stroke-width="3" stroke-linejoin="round" stroke-linecap="round" />
</svg>