<svg width="419" height="100" viewBox="0 0 419 100" xmlns="http://www.w3.org/2000/svg" xmlns:xlink="http://www.w3.org/1999/xlink"><defs>
<linearGradient id="grad" x1="0%" y1="0%" x2="0%" y2="100%">
<stop offset="0%" stop-color="#2963da" stop-opacity="0.40"/>
<stop offset="100%" stop-color="#070720" stop-opacity="0.20"/>
</linearGradient>
</defs>
<rect x="0" y="0" width="419" height="100" fill="none" />
<polygon points="0,92 4,92 8,92 12,91 16,91 21,91 25,89 29,86 33,83 37,80 41,78 45,76 49,75 53,73 57,72 61,73 65,74 69,72 73,69 78,71 82,71 86,71 90,70 94,70 98,70 102,70 106,71 110,73 114,76 118,78 122,79 126,79 130,80 134,81 138,80 143,80 147,79 151,79 155,80 159,80 163,80 167,79 171,80 175,82 179,80 184,78 188,77 192,78 196,76 200,77 204,79 208,82 212,84 216,87 220,89 224,88 228,88 232,87 236,87 240,87 244,86 249,85 253,84 257,85 261,84 265,84 269,84 273,83 277,82 281,81 285,80 289,80 293,80 297,79 301,78 306,75 310,75 314,75 318,75 322,74 326,72 330,70 334,69 338,68 343,65 347,64 351,63 355,62 359,61 363,61 367,59 371,58 375,57 380,56 384,55 388,54 392,53 396,53 400,49 404,46 408,42 413,38 417,33 419,32 419,100 0,100" fill="url(#grad)" stroke="none" />
<polyline points="0,92 4,92 8,92 12,91 16,91 21,91 25,89 29,86 33,83 37,80 41,78 45,76 49,75 53,73 57,72 61,73 65,74 69,72 73,69 78,71 82,71 86,71 90,70 94,70 98,70 102,70 106,71 110,73 114,76 118,78 122,79 126,79 130,80 134,81 138,80 143,80 147,79 151,79 155,80 159,80 163,80 167,79 171,80 175,82 179,80 184,78 188,77 192,78 196,76 200,77 204,79 208,82 212,84 216,87 220,89 224,88 228,88 232,87 236,87 240,87 244,86 249,85 253,84 257,85 261,84 265,84 269,84 273,83 277,82 281,81 285,80 289,80 293,80 297,79 301,78 306,75 310,75 314,75 318,75 322,74 326,72 330,70 334,69 338,68 343,65 347,64 351,63 355,62 359,61 363,61 367,59 371,58 375,57 380,56 384,55 388,54 392,53 396,53 400,49 404,46 408,42 413,38 417,33 419,32" stroke="#2963da" fill="none" stroke-width="3" stroke-linejoin="round" stroke-linecap="round" />
</svg>