<svg width="419" height="100" viewBox="0 0 419 100" xmlns="http://www.w3.org/2000/svg" xmlns:xlink="http://www.w3.org/1999/xlink"><defs>
<linearGradient id="grad" x1="0%" y1="0%" x2="0%" y2="100%">
<stop offset="0%" stop-color="#2963da" stop-opacity="0.40"/>
<stop offset="100%" stop-color="#070720" stop-opacity="0.20"/>
</linearGradient>
</defs>
<rect x="0" y="0" width="419" height="100" fill="none" />
<polygon points="0,39 4,39 8,39 12,39 16,39 21,38 25,36 29,36 33,35 37,35 41,29 45,25 49,21 53,17 57,20 62,25 66,29 70,33 74,36 78,38 82,38 86,39 90,43 94,48 98,49 102,50 106,54 110,57 115,58 119,59 123,59 127,60 131,65 135,71 139,68 143,69 147,71 151,70 155,71 159,74 163,77 167,74 171,71 175,68 180,69 184,67 188,67 192,66 196,62 200,60 204,55 208,53 212,50 216,50 220,48 224,48 228,47 233,46 237,45 241,44 245,43 249,42 253,40 257,36 261,32 265,28 269,25 273,29 278,33 282,38 286,42 290,41 294,46 298,50 302,56 306,59 310,64 314,70 318,75 322,81 326,83 331,85 335,87 339,87 343,88 347,89 351,91 355,91 359,91 364,85 368,77 372,77 376,81 380,86 384,91 388,92 392,92 396,92 400,91 404,91 408,86 412,78 416,70 419,68 419,100 0,100" fill="url(#grad)" stroke="none" />
<polyline points="0,39 4,39 8,39 12,39 16,39 21,38 25,36 29,36 33,35 37,35 41,29 45,25 49,21 53,17 57,20 62,25 66,29 70,33 74,36 78,38 82,38 86,39 90,43 94,48 98,49 102,50 106,54 110,57 115,58 119,59 123,59 127,60 131,65 135,71 139,68 143,69 147,71 151,70 155,71 159,74 163,77 167,74 171,71 175,68 180,69 184,67 188,67 192,66 196,62 200,60 204,55 208,53 212,50 216,50 220,48 224,48 228,47 233,46 237,45 241,44 245,43 249,42 253,40 257,36 261,32 265,28 269,25 273,29 278,33 282,38 286,42 290,41 294,46 298,50 302,56 306,59 310,64 314,70 318,75 322,81 326,83 331,85 335,87 339,87 343,88 347,89 351,91 355,91 359,91 364,85 368,77 372,77 376,81 380,86 384,91 388,92 392,92 396,92 400,91 404,91 408,86 412,78 416,70 419,68" stroke="#2963da" fill="none" stroke-width="3" stroke-linejoin="round" stroke-linecap="round" />
</svg>