<svg width="419" height="100" viewBox="0 0 419 100" xmlns="http://www.w3.org/2000/svg" xmlns:xlink="http://www.w3.org/1999/xlink"><defs>
<linearGradient id="grad" x1="0%" y1="0%" x2="0%" y2="100%">
<stop offset="0%" stop-color="#2963da" stop-opacity="0.40"/>
<stop offset="100%" stop-color="#070720" stop-opacity="0.20"/>
</linearGradient>
</defs>
<rect x="0" y="0" width="419" height="100" fill="none" />
<polygon points="0,92 4,92 8,92 12,92 16,92 20,92 24,92 28,92 32,92 37,92 41,92 45,92 49,92 53,92 57,92 61,92 65,92 69,92 74,92 78,92 82,92 86,92 90,92 94,92 98,92 102,92 107,92 111,92 115,92 119,91 123,91 127,91 132,91 136,91 140,91 144,91 148,91 152,91 156,90 160,90 165,90 169,89 173,89 177,87 181,83 185,84 189,86 193,87 198,88 202,87 206,87 210,87 214,88 218,88 222,89 226,89 231,89 235,90 239,90 243,91 247,91 251,91 255,91 259,92 263,92 267,92 272,92 276,92 280,92 284,92 288,92 292,92 296,92 300,92 304,92 309,92 313,92 317,92 321,92 325,92 329,92 333,92 337,92 341,92 346,92 350,92 354,92 358,92 362,92 366,92 370,92 375,92 379,92 383,92 387,92 391,92 395,92 399,92 404,92 408,92 412,92 416,92 419,92 419,100 0,100" fill="url(#grad)" stroke="none" />
<polyline points="0,92 4,92 8,92 12,92 16,92 20,92 24,92 28,92 32,92 37,92 41,92 45,92 49,92 53,92 57,92 61,92 65,92 69,92 74,92 78,92 82,92 86,92 90,92 94,92 98,92 102,92 107,92 111,92 115,92 119,91 123,91 127,91 132,91 136,91 140,91 144,91 148,91 152,91 156,90 160,90 165,90 169,89 173,89 177,87 181,83 185,84 189,86 193,87 198,88 202,87 206,87 210,87 214,88 218,88 222,89 226,89 231,89 235,90 239,90 243,91 247,91 251,91 255,91 259,92 263,92 267,92 272,92 276,92 280,92 284,92 288,92 292,92 296,92 300,92 304,92 309,92 313,92 317,92 321,92 325,92 329,92 333,92 337,92 341,92 346,92 350,92 354,92 358,92 362,92 366,92 370,92 375,92 379,92 383,92 387,92 391,92 395,92 399,92 404,92 408,92 412,92 416,92 419,92" stroke="#2963da" fill="none" stroke-width="3" stroke-linejoin="round" stroke-linecap="round" />
</svg>