<svg width="419" height="100" viewBox="0 0 419 100" xmlns="http://www.w3.org/2000/svg" xmlns:xlink="http://www.w3.org/1999/xlink"><defs>
<linearGradient id="grad" x1="0%" y1="0%" x2="0%" y2="100%">
<stop offset="0%" stop-color="#2963da" stop-opacity="0.40"/>
<stop offset="100%" stop-color="#070720" stop-opacity="0.20"/>
</linearGradient>
</defs>
<rect x="0" y="0" width="419" height="100" fill="none" />
<polygon points="0,92 4,92 8,92 12,92 16,92 20,92 24,92 28,92 32,92 36,91 41,91 45,92 49,92 53,91 57,92 61,91 66,91 70,91 74,90 78,89 82,88 86,89 90,90 94,91 98,91 102,90 106,91 110,91 115,90 119,86 123,81 127,77 131,72 135,75 139,79 143,84 147,86 151,86 155,85 159,84 164,82 168,81 172,77 176,74 180,70 184,71 188,73 192,77 196,81 200,83 204,85 208,86 212,86 217,85 221,84 225,82 229,83 233,83 237,82 241,82 245,82 249,82 253,82 258,82 262,83 266,82 270,81 274,81 278,80 282,79 286,77 291,74 295,69 299,67 303,66 307,67 311,72 315,77 319,78 324,77 328,75 332,74 336,73 340,72 344,70 348,70 352,75 356,73 360,67 364,67 368,66 372,65 376,66 381,64 385,59 389,59 393,57 397,56 401,58 405,63 409,65 413,62 417,58 419,59 419,100 0,100" fill="url(#grad)" stroke="none" />
<polyline points="0,92 4,92 8,92 12,92 16,92 20,92 24,92 28,92 32,92 36,91 41,91 45,92 49,92 53,91 57,92 61,91 66,91 70,91 74,90 78,89 82,88 86,89 90,90 94,91 98,91 102,90 106,91 110,91 115,90 119,86 123,81 127,77 131,72 135,75 139,79 143,84 147,86 151,86 155,85 159,84 164,82 168,81 172,77 176,74 180,70 184,71 188,73 192,77 196,81 200,83 204,85 208,86 212,86 217,85 221,84 225,82 229,83 233,83 237,82 241,82 245,82 249,82 253,82 258,82 262,83 266,82 270,81 274,81 278,80 282,79 286,77 291,74 295,69 299,67 303,66 307,67 311,72 315,77 319,78 324,77 328,75 332,74 336,73 340,72 344,70 348,70 352,75 356,73 360,67 364,67 368,66 372,65 376,66 381,64 385,59 389,59 393,57 397,56 401,58 405,63 409,65 413,62 417,58 419,59" stroke="#2963da" fill="none" stroke-width="3" stroke-linejoin="round" stroke-linecap="round" />
</svg>