<svg width="419" height="100" viewBox="0 0 419 100" xmlns="http://www.w3.org/2000/svg" xmlns:xlink="http://www.w3.org/1999/xlink"><defs>
<linearGradient id="grad" x1="0%" y1="0%" x2="0%" y2="100%">
<stop offset="0%" stop-color="#2963da" stop-opacity="0.40"/>
<stop offset="100%" stop-color="#070720" stop-opacity="0.20"/>
</linearGradient>
</defs>
<rect x="0" y="0" width="419" height="100" fill="none" />
<polygon points="0,91 4,92 8,92 12,92 16,92 20,92 24,92 28,92 32,92 36,92 40,92 44,92 48,91 52,90 56,90 60,88 64,88 68,87 72,85 76,82 80,78 84,75 88,71 92,68 96,65 101,71 105,76 109,74 113,78 117,79 121,76 125,77 129,81 133,84 137,87 141,88 145,89 149,89 153,87 157,88 161,89 165,90 169,90 173,91 177,90 181,89 186,87 190,82 194,84 198,87 202,89 206,90 210,89 214,89 218,84 222,81 226,79 230,75 234,71 238,66 242,67 246,71 250,75 254,78 258,79 262,76 266,74 270,77 274,80 279,77 283,76 287,80 291,83 295,86 299,88 303,89 307,89 311,88 315,88 319,89 323,90 327,90 331,91 335,90 339,89 343,88 347,82 351,84 355,86 359,89 363,90 367,90 371,91 376,92 380,92 384,92 388,92 392,92 396,92 400,92 404,92 408,92 412,92 416,92 419,92 419,100 0,100" fill="url(#grad)" stroke="none" />
<polyline points="0,91 4,92 8,92 12,92 16,92 20,92 24,92 28,92 32,92 36,92 40,92 44,92 48,91 52,90 56,90 60,88 64,88 68,87 72,85 76,82 80,78 84,75 88,71 92,68 96,65 101,71 105,76 109,74 113,78 117,79 121,76 125,77 129,81 133,84 137,87 141,88 145,89 149,89 153,87 157,88 161,89 165,90 169,90 173,91 177,90 181,89 186,87 190,82 194,84 198,87 202,89 206,90 210,89 214,89 218,84 222,81 226,79 230,75 234,71 238,66 242,67 246,71 250,75 254,78 258,79 262,76 266,74 270,77 274,80 279,77 283,76 287,80 291,83 295,86 299,88 303,89 307,89 311,88 315,88 319,89 323,90 327,90 331,91 335,90 339,89 343,88 347,82 351,84 355,86 359,89 363,90 367,90 371,91 376,92 380,92 384,92 388,92 392,92 396,92 400,92 404,92 408,92 412,92 416,92 419,92" stroke="#2963da" fill="none" stroke-width="3" stroke-linejoin="round" stroke-linecap="round" />
</svg>