<svg width="419" height="100" viewBox="0 0 419 100" xmlns="http://www.w3.org/2000/svg" xmlns:xlink="http://www.w3.org/1999/xlink"><defs>
<linearGradient id="grad" x1="0%" y1="0%" x2="0%" y2="100%">
<stop offset="0%" stop-color="#2963da" stop-opacity="0.40"/>
<stop offset="100%" stop-color="#070720" stop-opacity="0.20"/>
</linearGradient>
</defs>
<rect x="0" y="0" width="419" height="100" fill="none" />
<polygon points="0,92 4,92 8,92 12,92 16,91 20,91 24,92 29,92 33,89 37,85 41,81 45,79 49,80 53,82 57,83 61,84 65,85 69,85 73,86 78,87 82,88 86,86 90,83 94,82 98,84 102,83 106,84 110,87 114,85 118,84 122,84 127,83 131,82 135,79 139,79 143,82 147,86 151,90 155,92 159,92 163,91 167,91 171,90 175,91 180,91 184,89 188,90 192,91 196,91 200,91 204,91 208,90 212,90 216,90 221,89 225,89 229,89 233,89 237,87 241,87 245,86 250,86 254,84 258,83 262,83 266,85 270,86 274,86 278,88 282,89 287,89 291,89 295,90 299,90 303,90 307,90 311,90 315,90 319,90 323,90 327,90 331,90 335,91 340,91 344,91 348,91 352,92 356,92 360,92 364,92 368,92 373,92 377,88 381,84 385,82 389,86 393,89 397,85 401,88 405,92 409,92 413,92 418,92 419,92 419,100 0,100" fill="url(#grad)" stroke="none" />
<polyline points="0,92 4,92 8,92 12,92 16,91 20,91 24,92 29,92 33,89 37,85 41,81 45,79 49,80 53,82 57,83 61,84 65,85 69,85 73,86 78,87 82,88 86,86 90,83 94,82 98,84 102,83 106,84 110,87 114,85 118,84 122,84 127,83 131,82 135,79 139,79 143,82 147,86 151,90 155,92 159,92 163,91 167,91 171,90 175,91 180,91 184,89 188,90 192,91 196,91 200,91 204,91 208,90 212,90 216,90 221,89 225,89 229,89 233,89 237,87 241,87 245,86 250,86 254,84 258,83 262,83 266,85 270,86 274,86 278,88 282,89 287,89 291,89 295,90 299,90 303,90 307,90 311,90 315,90 319,90 323,90 327,90 331,90 335,91 340,91 344,91 348,91 352,92 356,92 360,92 364,92 368,92 373,92 377,88 381,84 385,82 389,86 393,89 397,85 401,88 405,92 409,92 413,92 418,92 419,92" stroke="#2963da" fill="none" stroke-width="3" stroke-linejoin="round" stroke-linecap="round" />
</svg>