<svg width="419" height="100" viewBox="0 0 419 100" xmlns="http://www.w3.org/2000/svg" xmlns:xlink="http://www.w3.org/1999/xlink"><defs>
<linearGradient id="grad" x1="0%" y1="0%" x2="0%" y2="100%">
<stop offset="0%" stop-color="#2963da" stop-opacity="0.40"/>
<stop offset="100%" stop-color="#070720" stop-opacity="0.20"/>
</linearGradient>
</defs>
<rect x="0" y="0" width="419" height="100" fill="none" />
<polygon points="0,91 4,90 8,88 12,89 16,90 20,90 24,88 28,87 32,88 36,88 40,88 44,87 48,88 52,87 56,87 60,89 64,87 68,88 72,89 76,86 80,86 84,88 88,89 92,92 96,89 101,91 105,90 109,90 113,90 117,92 121,90 125,91 129,90 133,92 137,91 141,92 145,91 149,87 153,86 157,89 161,92 165,90 169,92 173,87 177,88 181,88 185,86 189,88 193,92 197,86 202,85 206,91 210,92 214,90 218,90 222,91 226,92 230,89 234,85 238,89 242,89 246,86 250,90 254,89 258,86 262,87 266,87 270,85 274,88 278,91 282,89 286,87 290,85 294,89 299,89 303,87 307,89 311,88 315,89 319,90 323,89 327,91 331,90 335,90 339,90 343,91 347,90 351,90 355,92 359,92 363,90 367,90 371,91 375,91 379,89 383,91 387,91 391,89 395,89 399,91 403,89 408,90 412,89 416,90 419,91 419,100 0,100" fill="url(#grad)" stroke="none" />
<polyline points="0,91 4,90 8,88 12,89 16,90 20,90 24,88 28,87 32,88 36,88 40,88 44,87 48,88 52,87 56,87 60,89 64,87 68,88 72,89 76,86 80,86 84,88 88,89 92,92 96,89 101,91 105,90 109,90 113,90 117,92 121,90 125,91 129,90 133,92 137,91 141,92 145,91 149,87 153,86 157,89 161,92 165,90 169,92 173,87 177,88 181,88 185,86 189,88 193,92 197,86 202,85 206,91 210,92 214,90 218,90 222,91 226,92 230,89 234,85 238,89 242,89 246,86 250,90 254,89 258,86 262,87 266,87 270,85 274,88 278,91 282,89 286,87 290,85 294,89 299,89 303,87 307,89 311,88 315,89 319,90 323,89 327,91 331,90 335,90 339,90 343,91 347,90 351,90 355,92 359,92 363,90 367,90 371,91 375,91 379,89 383,91 387,91 391,89 395,89 399,91 403,89 408,90 412,89 416,90 419,91" stroke="#2963da" fill="none" stroke-width="3" stroke-linejoin="round" stroke-linecap="round" />
</svg>