<svg width="419" height="100" viewBox="0 0 419 100" xmlns="http://www.w3.org/2000/svg" xmlns:xlink="http://www.w3.org/1999/xlink"><defs>
<linearGradient id="grad" x1="0%" y1="0%" x2="0%" y2="100%">
<stop offset="0%" stop-color="#2963da" stop-opacity="0.40"/>
<stop offset="100%" stop-color="#070720" stop-opacity="0.20"/>
</linearGradient>
</defs>
<rect x="0" y="0" width="419" height="100" fill="none" />
<polygon points="0,58 4,55 8,53 12,52 16,47 20,41 24,42 28,46 32,51 36,55 40,59 44,63 48,63 52,64 56,65 60,65 64,66 69,68 73,71 77,73 81,76 85,80 89,83 93,87 97,90 101,92 105,92 109,91 113,87 117,81 121,77 125,72 129,69 133,63 138,60 142,56 146,54 150,53 154,49 158,44 162,40 166,44 170,48 174,53 178,57 182,61 186,63 190,63 194,65 198,65 202,66 206,66 210,70 215,73 219,74 223,76 227,80 231,84 235,88 239,91 243,92 247,92 251,90 255,85 259,80 263,75 267,71 271,67 276,62 280,59 284,56 288,54 292,53 296,48 300,43 304,41 308,45 312,49 316,54 320,58 324,62 328,63 332,64 336,65 340,65 344,66 348,66 352,70 356,73 361,75 365,78 369,82 373,85 377,89 381,92 385,92 389,92 393,88 397,82 401,78 406,74 410,70 414,65 418,61 419,60 419,100 0,100" fill="url(#grad)" stroke="none" />
<polyline points="0,58 4,55 8,53 12,52 16,47 20,41 24,42 28,46 32,51 36,55 40,59 44,63 48,63 52,64 56,65 60,65 64,66 69,68 73,71 77,73 81,76 85,80 89,83 93,87 97,90 101,92 105,92 109,91 113,87 117,81 121,77 125,72 129,69 133,63 138,60 142,56 146,54 150,53 154,49 158,44 162,40 166,44 170,48 174,53 178,57 182,61 186,63 190,63 194,65 198,65 202,66 206,66 210,70 215,73 219,74 223,76 227,80 231,84 235,88 239,91 243,92 247,92 251,90 255,85 259,80 263,75 267,71 271,67 276,62 280,59 284,56 288,54 292,53 296,48 300,43 304,41 308,45 312,49 316,54 320,58 324,62 328,63 332,64 336,65 340,65 344,66 348,66 352,70 356,73 361,75 365,78 369,82 373,85 377,89 381,92 385,92 389,92 393,88 397,82 401,78 406,74 410,70 414,65 418,61 419,60" stroke="#2963da" fill="none" stroke-width="3" stroke-linejoin="round" stroke-linecap="round" />
</svg>