<svg width="419" height="100" viewBox="0 0 419 100" xmlns="http://www.w3.org/2000/svg" xmlns:xlink="http://www.w3.org/1999/xlink"><defs>
<linearGradient id="grad" x1="0%" y1="0%" x2="0%" y2="100%">
<stop offset="0%" stop-color="#2963da" stop-opacity="0.40"/>
<stop offset="100%" stop-color="#070720" stop-opacity="0.20"/>
</linearGradient>
</defs>
<rect x="0" y="0" width="419" height="100" fill="none" />
<polygon points="0,80 4,77 8,79 12,82 16,84 20,84 24,84 29,85 33,83 37,83 41,83 45,84 49,83 53,84 57,84 61,83 65,83 70,82 74,80 78,79 82,79 86,80 90,78 94,77 98,76 103,76 107,78 111,81 115,79 119,78 123,82 127,83 131,82 136,82 140,82 144,80 148,79 152,79 157,80 161,81 165,83 169,83 173,82 177,82 181,79 185,76 190,75 194,76 198,79 202,82 206,82 210,82 214,82 218,81 222,79 226,79 230,82 235,84 239,86 243,86 247,89 251,90 255,90 259,90 263,88 268,88 272,88 276,86 280,87 284,90 288,91 292,92 296,92 301,87 305,88 309,87 313,89 317,90 321,91 325,92 329,91 333,91 338,91 342,91 346,91 350,91 354,91 358,91 362,90 366,90 370,87 374,84 378,84 382,87 386,86 391,82 395,78 399,74 403,71 407,67 411,63 415,59 419,56 419,100 0,100" fill="url(#grad)" stroke="none" />
<polyline points="0,80 4,77 8,79 12,82 16,84 20,84 24,84 29,85 33,83 37,83 41,83 45,84 49,83 53,84 57,84 61,83 65,83 70,82 74,80 78,79 82,79 86,80 90,78 94,77 98,76 103,76 107,78 111,81 115,79 119,78 123,82 127,83 131,82 136,82 140,82 144,80 148,79 152,79 157,80 161,81 165,83 169,83 173,82 177,82 181,79 185,76 190,75 194,76 198,79 202,82 206,82 210,82 214,82 218,81 222,79 226,79 230,82 235,84 239,86 243,86 247,89 251,90 255,90 259,90 263,88 268,88 272,88 276,86 280,87 284,90 288,91 292,92 296,92 301,87 305,88 309,87 313,89 317,90 321,91 325,92 329,91 333,91 338,91 342,91 346,91 350,91 354,91 358,91 362,90 366,90 370,87 374,84 378,84 382,87 386,86 391,82 395,78 399,74 403,71 407,67 411,63 415,59 419,56" stroke="#2963da" fill="none" stroke-width="3" stroke-linejoin="round" stroke-linecap="round" />
</svg>