<svg width="419" height="100" viewBox="0 0 419 100" xmlns="http://www.w3.org/2000/svg" xmlns:xlink="http://www.w3.org/1999/xlink"><defs>
<linearGradient id="grad" x1="0%" y1="0%" x2="0%" y2="100%">
<stop offset="0%" stop-color="#2963da" stop-opacity="0.40"/>
<stop offset="100%" stop-color="#070720" stop-opacity="0.20"/>
</linearGradient>
</defs>
<rect x="0" y="0" width="419" height="100" fill="none" />
<polygon points="0,90 4,88 8,88 12,88 16,87 20,85 24,84 28,81 32,77 36,74 40,71 44,70 48,74 52,77 56,78 60,79 64,78 68,76 72,79 76,78 80,78 85,78 89,75 93,73 97,78 101,79 105,78 109,78 113,76 117,78 121,79 125,82 129,82 133,85 137,86 141,87 145,87 149,88 153,89 157,89 162,85 166,82 170,87 174,88 178,88 182,87 186,87 190,86 194,85 198,80 202,77 206,78 210,79 214,78 218,77 223,79 227,78 231,79 235,81 239,85 243,86 247,87 251,87 255,88 259,90 263,91 267,89 271,85 275,82 279,81 283,80 287,82 291,82 295,86 300,90 304,92 308,92 312,89 316,90 320,92 324,92 328,89 332,91 336,91 340,90 344,90 348,89 353,88 357,87 361,80 365,78 369,84 373,88 377,89 381,91 385,90 389,88 393,87 397,81 401,77 405,77 409,81 413,84 418,87 419,87 419,100 0,100" fill="url(#grad)" stroke="none" />
<polyline points="0,90 4,88 8,88 12,88 16,87 20,85 24,84 28,81 32,77 36,74 40,71 44,70 48,74 52,77 56,78 60,79 64,78 68,76 72,79 76,78 80,78 85,78 89,75 93,73 97,78 101,79 105,78 109,78 113,76 117,78 121,79 125,82 129,82 133,85 137,86 141,87 145,87 149,88 153,89 157,89 162,85 166,82 170,87 174,88 178,88 182,87 186,87 190,86 194,85 198,80 202,77 206,78 210,79 214,78 218,77 223,79 227,78 231,79 235,81 239,85 243,86 247,87 251,87 255,88 259,90 263,91 267,89 271,85 275,82 279,81 283,80 287,82 291,82 295,86 300,90 304,92 308,92 312,89 316,90 320,92 324,92 328,89 332,91 336,91 340,90 344,90 348,89 353,88 357,87 361,80 365,78 369,84 373,88 377,89 381,91 385,90 389,88 393,87 397,81 401,77 405,77 409,81 413,84 418,87 419,87" stroke="#2963da" fill="none" stroke-width="3" stroke-linejoin="round" stroke-linecap="round" />
</svg>