<svg width="419" height="100" viewBox="0 0 419 100" xmlns="http://www.w3.org/2000/svg" xmlns:xlink="http://www.w3.org/1999/xlink"><defs>
<linearGradient id="grad" x1="0%" y1="0%" x2="0%" y2="100%">
<stop offset="0%" stop-color="#2963da" stop-opacity="0.40"/>
<stop offset="100%" stop-color="#070720" stop-opacity="0.20"/>
</linearGradient>
</defs>
<rect x="0" y="0" width="419" height="100" fill="none" />
<polygon points="0,92 4,92 8,92 12,92 16,92 21,92 26,92 31,92 35,92 40,92 44,92 48,92 53,92 57,92 61,92 66,92 70,92 74,92 78,92 82,92 87,92 91,92 95,92 99,92 104,92 108,91 113,91 117,91 121,91 125,90 129,89 134,89 140,90 144,90 148,91 152,92 156,92 160,92 164,92 168,92 173,92 177,92 181,92 185,92 191,92 196,92 201,92 205,92 209,92 214,92 218,92 223,92 228,92 232,92 237,92 241,92 245,92 249,92 254,92 259,92 264,92 269,92 273,92 278,92 283,92 287,92 291,92 295,92 300,92 304,92 309,92 313,92 317,92 321,92 326,92 330,92 335,92 339,92 343,92 347,92 352,92 357,92 362,92 366,92 371,92 375,92 379,92 384,92 389,92 393,92 398,92 403,92 408,92 412,92 416,92 419,92 419,100 0,100" fill="url(#grad)" stroke="none" />
<polyline points="0,92 4,92 8,92 12,92 16,92 21,92 26,92 31,92 35,92 40,92 44,92 48,92 53,92 57,92 61,92 66,92 70,92 74,92 78,92 82,92 87,92 91,92 95,92 99,92 104,92 108,91 113,91 117,91 121,91 125,90 129,89 134,89 140,90 144,90 148,91 152,92 156,92 160,92 164,92 168,92 173,92 177,92 181,92 185,92 191,92 196,92 201,92 205,92 209,92 214,92 218,92 223,92 228,92 232,92 237,92 241,92 245,92 249,92 254,92 259,92 264,92 269,92 273,92 278,92 283,92 287,92 291,92 295,92 300,92 304,92 309,92 313,92 317,92 321,92 326,92 330,92 335,92 339,92 343,92 347,92 352,92 357,92 362,92 366,92 371,92 375,92 379,92 384,92 389,92 393,92 398,92 403,92 408,92 412,92 416,92 419,92" stroke="#2963da" fill="none" stroke-width="3" stroke-linejoin="round" stroke-linecap="round" />
</svg>