<svg width="419" height="100" viewBox="0 0 419 100" xmlns="http://www.w3.org/2000/svg" xmlns:xlink="http://www.w3.org/1999/xlink"><defs>
<linearGradient id="grad" x1="0%" y1="0%" x2="0%" y2="100%">
<stop offset="0%" stop-color="#2963da" stop-opacity="0.40"/>
<stop offset="100%" stop-color="#070720" stop-opacity="0.20"/>
</linearGradient>
</defs>
<rect x="0" y="0" width="419" height="100" fill="none" />
<polygon points="0,85 4,85 8,83 12,81 16,82 20,81 24,78 28,78 32,75 36,74 40,73 44,72 48,71 52,70 57,68 61,71 65,74 69,78 73,77 77,75 81,71 85,68 89,64 93,63 97,61 101,59 105,58 109,59 113,62 117,64 122,66 126,67 130,68 134,69 138,70 142,70 146,71 150,72 154,71 158,74 162,75 166,76 170,79 174,83 178,84 182,82 187,78 191,80 195,83 199,84 203,84 207,87 211,92 215,91 219,88 223,86 227,86 231,88 235,90 239,92 244,89 248,88 252,87 256,87 260,87 264,87 268,86 272,85 276,82 280,81 284,80 288,80 292,82 296,84 300,81 304,74 308,66 313,62 317,68 321,73 325,77 329,81 333,76 337,73 341,75 345,76 349,77 353,80 357,83 361,84 365,83 369,86 373,88 378,88 382,88 386,88 390,88 394,86 398,79 402,71 406,66 410,59 414,54 418,48 419,48 419,100 0,100" fill="url(#grad)" stroke="none" />
<polyline points="0,85 4,85 8,83 12,81 16,82 20,81 24,78 28,78 32,75 36,74 40,73 44,72 48,71 52,70 57,68 61,71 65,74 69,78 73,77 77,75 81,71 85,68 89,64 93,63 97,61 101,59 105,58 109,59 113,62 117,64 122,66 126,67 130,68 134,69 138,70 142,70 146,71 150,72 154,71 158,74 162,75 166,76 170,79 174,83 178,84 182,82 187,78 191,80 195,83 199,84 203,84 207,87 211,92 215,91 219,88 223,86 227,86 231,88 235,90 239,92 244,89 248,88 252,87 256,87 260,87 264,87 268,86 272,85 276,82 280,81 284,80 288,80 292,82 296,84 300,81 304,74 308,66 313,62 317,68 321,73 325,77 329,81 333,76 337,73 341,75 345,76 349,77 353,80 357,83 361,84 365,83 369,86 373,88 378,88 382,88 386,88 390,88 394,86 398,79 402,71 406,66 410,59 414,54 418,48 419,48" stroke="#2963da" fill="none" stroke-width="3" stroke-linejoin="round" stroke-linecap="round" />
</svg>