<svg width="419" height="100" viewBox="0 0 419 100" xmlns="http://www.w3.org/2000/svg" xmlns:xlink="http://www.w3.org/1999/xlink"><defs>
<linearGradient id="grad" x1="0%" y1="0%" x2="0%" y2="100%">
<stop offset="0%" stop-color="#2963da" stop-opacity="0.40"/>
<stop offset="100%" stop-color="#070720" stop-opacity="0.20"/>
</linearGradient>
</defs>
<rect x="0" y="0" width="419" height="100" fill="none" />
<polygon points="0,92 4,92 8,92 12,92 16,91 20,91 24,90 28,89 32,90 36,89 41,86 45,83 49,81 53,76 57,78 61,78 65,79 69,78 74,77 78,77 82,76 86,76 90,75 94,74 98,74 102,73 106,72 111,70 115,69 119,68 123,68 127,67 131,65 136,65 140,62 144,58 148,54 152,50 156,46 160,42 164,45 168,45 172,48 177,52 181,57 185,62 189,66 193,68 197,68 201,70 206,71 210,73 214,73 218,74 222,75 226,76 230,77 234,77 238,78 242,78 247,73 251,69 255,63 259,58 263,55 267,54 271,58 275,58 279,60 283,64 288,68 292,72 296,70 300,66 304,60 308,59 312,59 316,62 320,61 324,60 328,63 333,69 337,71 341,74 345,74 349,75 353,75 357,73 362,71 366,66 370,61 374,59 378,59 382,62 386,61 390,60 394,63 398,68 403,71 407,73 411,74 415,75 419,76 419,100 0,100" fill="url(#grad)" stroke="none" />
<polyline points="0,92 4,92 8,92 12,92 16,91 20,91 24,90 28,89 32,90 36,89 41,86 45,83 49,81 53,76 57,78 61,78 65,79 69,78 74,77 78,77 82,76 86,76 90,75 94,74 98,74 102,73 106,72 111,70 115,69 119,68 123,68 127,67 131,65 136,65 140,62 144,58 148,54 152,50 156,46 160,42 164,45 168,45 172,48 177,52 181,57 185,62 189,66 193,68 197,68 201,70 206,71 210,73 214,73 218,74 222,75 226,76 230,77 234,77 238,78 242,78 247,73 251,69 255,63 259,58 263,55 267,54 271,58 275,58 279,60 283,64 288,68 292,72 296,70 300,66 304,60 308,59 312,59 316,62 320,61 324,60 328,63 333,69 337,71 341,74 345,74 349,75 353,75 357,73 362,71 366,66 370,61 374,59 378,59 382,62 386,61 390,60 394,63 398,68 403,71 407,73 411,74 415,75 419,76" stroke="#2963da" fill="none" stroke-width="3" stroke-linejoin="round" stroke-linecap="round" />
</svg>