<svg width="419" height="100" viewBox="0 0 419 100" xmlns="http://www.w3.org/2000/svg" xmlns:xlink="http://www.w3.org/1999/xlink"><defs>
<linearGradient id="grad" x1="0%" y1="0%" x2="0%" y2="100%">
<stop offset="0%" stop-color="#2963da" stop-opacity="0.40"/>
<stop offset="100%" stop-color="#070720" stop-opacity="0.20"/>
</linearGradient>
</defs>
<rect x="0" y="0" width="419" height="100" fill="none" />
<polygon points="0,92 4,92 8,92 12,92 16,91 20,91 24,91 28,91 32,88 36,85 40,81 44,79 48,77 52,75 56,74 60,75 64,78 68,79 73,79 77,77 81,76 85,74 89,73 93,74 97,75 101,75 105,78 109,82 113,85 117,88 121,89 126,89 130,88 134,87 138,86 142,86 146,83 150,83 154,82 158,82 162,82 166,80 170,81 174,78 178,77 182,76 186,75 191,74 195,73 199,70 203,71 207,71 211,67 215,65 219,68 223,70 227,67 231,65 235,63 239,60 243,58 247,56 251,53 255,49 259,45 263,41 268,37 272,38 276,42 280,46 284,49 288,52 292,56 296,58 300,61 304,65 308,68 312,72 316,76 320,76 324,75 328,74 332,71 337,70 341,69 345,67 349,66 353,65 357,63 361,62 365,61 369,60 373,58 377,57 381,56 385,55 390,54 394,53 398,52 402,49 406,45 410,41 414,37 418,33 419,32 419,100 0,100" fill="url(#grad)" stroke="none" />
<polyline points="0,92 4,92 8,92 12,92 16,91 20,91 24,91 28,91 32,88 36,85 40,81 44,79 48,77 52,75 56,74 60,75 64,78 68,79 73,79 77,77 81,76 85,74 89,73 93,74 97,75 101,75 105,78 109,82 113,85 117,88 121,89 126,89 130,88 134,87 138,86 142,86 146,83 150,83 154,82 158,82 162,82 166,80 170,81 174,78 178,77 182,76 186,75 191,74 195,73 199,70 203,71 207,71 211,67 215,65 219,68 223,70 227,67 231,65 235,63 239,60 243,58 247,56 251,53 255,49 259,45 263,41 268,37 272,38 276,42 280,46 284,49 288,52 292,56 296,58 300,61 304,65 308,68 312,72 316,76 320,76 324,75 328,74 332,71 337,70 341,69 345,67 349,66 353,65 357,63 361,62 365,61 369,60 373,58 377,57 381,56 385,55 390,54 394,53 398,52 402,49 406,45 410,41 414,37 418,33 419,32" stroke="#2963da" fill="none" stroke-width="3" stroke-linejoin="round" stroke-linecap="round" />
</svg>