<svg width="419" height="100" viewBox="0 0 419 100" xmlns="http://www.w3.org/2000/svg" xmlns:xlink="http://www.w3.org/1999/xlink"><defs>
<linearGradient id="grad" x1="0%" y1="0%" x2="0%" y2="100%">
<stop offset="0%" stop-color="#2963da" stop-opacity="0.40"/>
<stop offset="100%" stop-color="#070720" stop-opacity="0.20"/>
</linearGradient>
</defs>
<rect x="0" y="0" width="419" height="100" fill="none" />
<polygon points="0,91 4,91 8,91 12,92 16,92 20,92 24,91 29,92 33,92 37,92 41,92 45,91 49,92 53,91 58,92 62,90 66,90 71,89 75,90 79,90 83,91 88,92 92,92 96,92 100,92 104,92 108,91 112,92 117,91 121,91 125,89 129,88 133,89 137,89 141,90 145,89 150,91 154,91 158,92 162,91 166,90 170,91 175,90 179,90 183,91 187,90 191,90 195,89 200,89 204,89 208,89 212,89 216,91 220,92 224,92 228,90 232,89 237,90 241,90 245,91 250,91 254,92 258,92 262,92 266,90 270,92 274,90 278,90 282,89 286,88 290,89 295,87 299,87 303,87 307,86 311,85 315,84 319,84 323,85 327,86 332,86 336,83 340,83 344,85 348,87 353,88 357,87 362,85 366,86 370,87 374,88 378,87 382,86 387,82 391,84 395,82 399,84 403,86 407,87 411,88 416,85 419,82 419,100 0,100" fill="url(#grad)" stroke="none" />
<polyline points="0,91 4,91 8,91 12,92 16,92 20,92 24,91 29,92 33,92 37,92 41,92 45,91 49,92 53,91 58,92 62,90 66,90 71,89 75,90 79,90 83,91 88,92 92,92 96,92 100,92 104,92 108,91 112,92 117,91 121,91 125,89 129,88 133,89 137,89 141,90 145,89 150,91 154,91 158,92 162,91 166,90 170,91 175,90 179,90 183,91 187,90 191,90 195,89 200,89 204,89 208,89 212,89 216,91 220,92 224,92 228,90 232,89 237,90 241,90 245,91 250,91 254,92 258,92 262,92 266,90 270,92 274,90 278,90 282,89 286,88 290,89 295,87 299,87 303,87 307,86 311,85 315,84 319,84 323,85 327,86 332,86 336,83 340,83 344,85 348,87 353,88 357,87 362,85 366,86 370,87 374,88 378,87 382,86 387,82 391,84 395,82 399,84 403,86 407,87 411,88 416,85 419,82" stroke="#2963da" fill="none" stroke-width="3" stroke-linejoin="round" stroke-linecap="round" />
</svg>