<svg width="419" height="100" viewBox="0 0 419 100" xmlns="http://www.w3.org/2000/svg" xmlns:xlink="http://www.w3.org/1999/xlink"><defs>
<linearGradient id="grad" x1="0%" y1="0%" x2="0%" y2="100%">
<stop offset="0%" stop-color="#2963da" stop-opacity="0.40"/>
<stop offset="100%" stop-color="#070720" stop-opacity="0.20"/>
</linearGradient>
</defs>
<rect x="0" y="0" width="419" height="100" fill="none" />
<polygon points="0,92 4,92 8,92 12,92 16,92 21,92 25,92 30,92 34,92 40,92 47,92 51,92 55,92 60,92 65,92 71,92 75,92 80,92 85,92 90,92 95,91 100,91 105,91 112,90 118,90 136,90 141,90 145,91 150,91 154,91 158,91 165,92 170,92 176,92 181,92 186,92 191,92 196,92 201,92 208,92 215,92 219,92 227,92 233,92 238,92 244,92 249,92 254,91 258,91 262,91 267,91 272,91 276,91 281,91 286,91 290,91 294,90 299,91 304,90 311,90 315,89 321,89 325,89 330,88 334,88 339,88 343,88 350,88 355,88 359,88 363,89 367,89 374,89 378,90 382,90 387,91 391,91 396,91 401,91 405,92 411,92 415,92 419,92 419,100 0,100" fill="url(#grad)" stroke="none" />
<polyline points="0,92 4,92 8,92 12,92 16,92 21,92 25,92 30,92 34,92 40,92 47,92 51,92 55,92 60,92 65,92 71,92 75,92 80,92 85,92 90,92 95,91 100,91 105,91 112,90 118,90 136,90 141,90 145,91 150,91 154,91 158,91 165,92 170,92 176,92 181,92 186,92 191,92 196,92 201,92 208,92 215,92 219,92 227,92 233,92 238,92 244,92 249,92 254,91 258,91 262,91 267,91 272,91 276,91 281,91 286,91 290,91 294,90 299,91 304,90 311,90 315,89 321,89 325,89 330,88 334,88 339,88 343,88 350,88 355,88 359,88 363,89 367,89 374,89 378,90 382,90 387,91 391,91 396,91 401,91 405,92 411,92 415,92 419,92" stroke="#2963da" fill="none" stroke-width="3" stroke-linejoin="round" stroke-linecap="round" />
</svg>