<svg width="419" height="100" viewBox="0 0 419 100" xmlns="http://www.w3.org/2000/svg" xmlns:xlink="http://www.w3.org/1999/xlink"><defs>
<linearGradient id="grad" x1="0%" y1="0%" x2="0%" y2="100%">
<stop offset="0%" stop-color="#2963da" stop-opacity="0.40"/>
<stop offset="100%" stop-color="#070720" stop-opacity="0.20"/>
</linearGradient>
</defs>
<rect x="0" y="0" width="419" height="100" fill="none" />
<polygon points="0,92 4,92 8,92 12,91 16,91 20,91 24,91 28,91 32,90 36,89 41,88 45,88 49,88 53,86 57,84 61,80 65,77 69,78 73,82 77,85 82,87 86,88 90,90 94,90 98,90 102,90 106,90 110,90 114,88 118,89 122,89 126,88 130,87 134,84 138,81 142,79 147,81 151,83 155,85 159,87 163,87 167,88 171,88 175,89 179,89 183,89 187,89 191,89 195,89 200,89 204,88 208,88 212,87 216,89 220,89 224,87 228,85 232,87 236,89 240,89 245,89 249,88 253,90 257,89 261,88 265,88 270,90 274,91 278,91 282,92 286,92 290,91 294,90 298,87 302,83 306,80 310,80 314,78 319,80 323,84 327,83 331,81 335,80 339,81 343,78 347,79 351,80 355,81 359,83 363,83 367,81 371,78 375,75 379,71 383,65 388,59 392,54 396,48 400,43 404,39 408,35 412,31 416,26 419,23 419,100 0,100" fill="url(#grad)" stroke="none" />
<polyline points="0,92 4,92 8,92 12,91 16,91 20,91 24,91 28,91 32,90 36,89 41,88 45,88 49,88 53,86 57,84 61,80 65,77 69,78 73,82 77,85 82,87 86,88 90,90 94,90 98,90 102,90 106,90 110,90 114,88 118,89 122,89 126,88 130,87 134,84 138,81 142,79 147,81 151,83 155,85 159,87 163,87 167,88 171,88 175,89 179,89 183,89 187,89 191,89 195,89 200,89 204,88 208,88 212,87 216,89 220,89 224,87 228,85 232,87 236,89 240,89 245,89 249,88 253,90 257,89 261,88 265,88 270,90 274,91 278,91 282,92 286,92 290,91 294,90 298,87 302,83 306,80 310,80 314,78 319,80 323,84 327,83 331,81 335,80 339,81 343,78 347,79 351,80 355,81 359,83 363,83 367,81 371,78 375,75 379,71 383,65 388,59 392,54 396,48 400,43 404,39 408,35 412,31 416,26 419,23" stroke="#2963da" fill="none" stroke-width="3" stroke-linejoin="round" stroke-linecap="round" />
</svg>