<svg width="419" height="100" viewBox="0 0 419 100" xmlns="http://www.w3.org/2000/svg" xmlns:xlink="http://www.w3.org/1999/xlink"><defs>
<linearGradient id="grad" x1="0%" y1="0%" x2="0%" y2="100%">
<stop offset="0%" stop-color="#2963da" stop-opacity="0.40"/>
<stop offset="100%" stop-color="#070720" stop-opacity="0.20"/>
</linearGradient>
</defs>
<rect x="0" y="0" width="419" height="100" fill="none" />
<polygon points="0,92 4,92 8,92 13,92 17,92 21,92 25,92 30,89 34,87 38,86 43,87 47,86 51,87 55,88 60,89 65,89 69,89 73,89 77,90 82,90 86,90 90,90 94,89 99,89 103,88 107,88 111,88 116,89 120,89 124,88 128,88 132,89 136,90 140,89 145,87 149,89 153,91 157,92 161,92 166,92 170,92 174,92 178,92 182,92 186,92 190,92 195,92 199,91 203,92 207,92 211,92 215,92 220,91 224,92 228,92 233,92 237,92 241,91 245,92 249,92 253,92 258,92 262,92 266,92 270,92 274,92 278,92 283,92 287,91 291,90 295,90 299,91 303,92 307,92 312,92 316,91 320,92 324,92 328,92 332,92 337,92 341,91 345,89 349,90 353,91 357,92 361,92 365,92 369,91 374,92 378,92 382,92 386,92 390,92 394,91 398,90 402,90 406,91 411,92 415,92 419,92 419,100 0,100" fill="url(#grad)" stroke="none" />
<polyline points="0,92 4,92 8,92 13,92 17,92 21,92 25,92 30,89 34,87 38,86 43,87 47,86 51,87 55,88 60,89 65,89 69,89 73,89 77,90 82,90 86,90 90,90 94,89 99,89 103,88 107,88 111,88 116,89 120,89 124,88 128,88 132,89 136,90 140,89 145,87 149,89 153,91 157,92 161,92 166,92 170,92 174,92 178,92 182,92 186,92 190,92 195,92 199,91 203,92 207,92 211,92 215,92 220,91 224,92 228,92 233,92 237,92 241,91 245,92 249,92 253,92 258,92 262,92 266,92 270,92 274,92 278,92 283,92 287,91 291,90 295,90 299,91 303,92 307,92 312,92 316,91 320,92 324,92 328,92 332,92 337,92 341,91 345,89 349,90 353,91 357,92 361,92 365,92 369,91 374,92 378,92 382,92 386,92 390,92 394,91 398,90 402,90 406,91 411,92 415,92 419,92" stroke="#2963da" fill="none" stroke-width="3" stroke-linejoin="round" stroke-linecap="round" />
</svg>