<svg width="419" height="100" viewBox="0 0 419 100" xmlns="http://www.w3.org/2000/svg" xmlns:xlink="http://www.w3.org/1999/xlink"><defs>
<linearGradient id="grad" x1="0%" y1="0%" x2="0%" y2="100%">
<stop offset="0%" stop-color="#2963da" stop-opacity="0.40"/>
<stop offset="100%" stop-color="#070720" stop-opacity="0.20"/>
</linearGradient>
</defs>
<rect x="0" y="0" width="419" height="100" fill="none" />
<polygon points="0,92 5,92 10,92 14,92 19,92 24,92 28,92 34,92 38,92 44,92 49,92 53,92 59,92 63,92 71,92 75,92 80,92 84,92 89,92 94,92 99,92 107,92 111,92 115,92 122,92 129,92 134,92 142,92 147,92 152,92 156,92 161,92 166,92 170,92 175,92 179,92 183,92 188,92 194,92 198,92 202,92 206,92 210,92 215,92 219,92 224,92 229,92 234,92 238,92 244,92 248,92 253,92 257,92 261,92 265,92 270,92 274,92 279,92 284,92 288,92 292,92 296,92 300,92 305,92 309,92 314,92 318,92 322,92 326,92 331,92 335,92 339,92 343,92 347,92 351,92 356,92 360,92 365,92 369,92 375,92 379,92 384,92 388,92 392,92 396,92 401,92 406,92 410,92 415,92 419,92 419,100 0,100" fill="url(#grad)" stroke="none" />
<polyline points="0,92 5,92 10,92 14,92 19,92 24,92 28,92 34,92 38,92 44,92 49,92 53,92 59,92 63,92 71,92 75,92 80,92 84,92 89,92 94,92 99,92 107,92 111,92 115,92 122,92 129,92 134,92 142,92 147,92 152,92 156,92 161,92 166,92 170,92 175,92 179,92 183,92 188,92 194,92 198,92 202,92 206,92 210,92 215,92 219,92 224,92 229,92 234,92 238,92 244,92 248,92 253,92 257,92 261,92 265,92 270,92 274,92 279,92 284,92 288,92 292,92 296,92 300,92 305,92 309,92 314,92 318,92 322,92 326,92 331,92 335,92 339,92 343,92 347,92 351,92 356,92 360,92 365,92 369,92 375,92 379,92 384,92 388,92 392,92 396,92 401,92 406,92 410,92 415,92 419,92" stroke="#2963da" fill="none" stroke-width="3" stroke-linejoin="round" stroke-linecap="round" />
</svg>