<svg width="419" height="100" viewBox="0 0 419 100" xmlns="http://www.w3.org/2000/svg" xmlns:xlink="http://www.w3.org/1999/xlink"><defs>
<linearGradient id="grad" x1="0%" y1="0%" x2="0%" y2="100%">
<stop offset="0%" stop-color="#2963da" stop-opacity="0.40"/>
<stop offset="100%" stop-color="#070720" stop-opacity="0.20"/>
</linearGradient>
</defs>
<rect x="0" y="0" width="419" height="100" fill="none" />
<polygon points="0,76 4,77 8,77 12,78 16,79 20,80 24,79 28,77 32,79 36,81 40,81 44,79 49,81 53,79 57,78 61,79 65,79 69,77 73,76 77,77 81,76 85,76 90,76 94,79 98,77 102,77 106,76 110,77 114,78 118,78 122,79 127,80 131,81 135,81 139,79 143,76 147,76 151,78 155,79 159,77 163,73 167,75 171,78 175,83 180,82 184,77 188,77 192,82 196,82 200,84 204,79 208,84 212,79 216,77 220,76 224,76 229,77 233,78 237,79 241,83 245,80 249,77 253,74 257,75 261,78 265,80 270,80 274,84 278,85 282,86 286,85 290,82 294,80 298,80 302,81 306,82 310,84 314,87 318,90 322,89 327,85 331,87 335,85 339,83 343,85 347,87 351,88 355,84 359,86 363,85 367,87 371,89 375,92 379,91 383,88 387,87 392,85 396,85 400,86 404,86 408,88 412,92 416,92 419,92 419,100 0,100" fill="url(#grad)" stroke="none" />
<polyline points="0,76 4,77 8,77 12,78 16,79 20,80 24,79 28,77 32,79 36,81 40,81 44,79 49,81 53,79 57,78 61,79 65,79 69,77 73,76 77,77 81,76 85,76 90,76 94,79 98,77 102,77 106,76 110,77 114,78 118,78 122,79 127,80 131,81 135,81 139,79 143,76 147,76 151,78 155,79 159,77 163,73 167,75 171,78 175,83 180,82 184,77 188,77 192,82 196,82 200,84 204,79 208,84 212,79 216,77 220,76 224,76 229,77 233,78 237,79 241,83 245,80 249,77 253,74 257,75 261,78 265,80 270,80 274,84 278,85 282,86 286,85 290,82 294,80 298,80 302,81 306,82 310,84 314,87 318,90 322,89 327,85 331,87 335,85 339,83 343,85 347,87 351,88 355,84 359,86 363,85 367,87 371,89 375,92 379,91 383,88 387,87 392,85 396,85 400,86 404,86 408,88 412,92 416,92 419,92" stroke="#2963da" fill="none" stroke-width="3" stroke-linejoin="round" stroke-linecap="round" />
</svg>