<svg width="419" height="100" viewBox="0 0 419 100" xmlns="http://www.w3.org/2000/svg" xmlns:xlink="http://www.w3.org/1999/xlink"><defs>
<linearGradient id="grad" x1="0%" y1="0%" x2="0%" y2="100%">
<stop offset="0%" stop-color="#2963da" stop-opacity="0.40"/>
<stop offset="100%" stop-color="#070720" stop-opacity="0.20"/>
</linearGradient>
</defs>
<rect x="0" y="0" width="419" height="100" fill="none" />
<polygon points="0,92 4,92 8,92 12,92 16,92 20,92 24,92 28,92 32,91 37,91 41,91 45,91 49,90 53,90 57,90 61,89 65,88 69,88 74,88 78,88 82,85 86,81 90,79 94,74 98,74 102,73 107,74 111,73 115,71 119,74 123,77 127,80 131,82 135,83 139,85 144,85 148,86 152,86 156,87 160,88 164,88 168,89 173,90 177,89 181,90 185,87 189,84 193,82 197,80 201,80 205,79 209,83 213,88 218,88 222,90 226,90 230,91 234,91 238,90 242,87 246,84 250,83 254,80 258,80 263,82 267,85 271,88 275,85 279,82 283,80 287,77 291,79 295,81 299,84 303,84 307,86 312,88 316,90 320,91 324,90 328,89 332,89 336,89 340,88 345,86 349,83 353,83 357,86 361,88 365,89 370,89 374,89 378,89 382,90 386,90 390,89 394,86 398,84 402,84 406,85 410,84 415,84 419,83 419,100 0,100" fill="url(#grad)" stroke="none" />
<polyline points="0,92 4,92 8,92 12,92 16,92 20,92 24,92 28,92 32,91 37,91 41,91 45,91 49,90 53,90 57,90 61,89 65,88 69,88 74,88 78,88 82,85 86,81 90,79 94,74 98,74 102,73 107,74 111,73 115,71 119,74 123,77 127,80 131,82 135,83 139,85 144,85 148,86 152,86 156,87 160,88 164,88 168,89 173,90 177,89 181,90 185,87 189,84 193,82 197,80 201,80 205,79 209,83 213,88 218,88 222,90 226,90 230,91 234,91 238,90 242,87 246,84 250,83 254,80 258,80 263,82 267,85 271,88 275,85 279,82 283,80 287,77 291,79 295,81 299,84 303,84 307,86 312,88 316,90 320,91 324,90 328,89 332,89 336,89 340,88 345,86 349,83 353,83 357,86 361,88 365,89 370,89 374,89 378,89 382,90 386,90 390,89 394,86 398,84 402,84 406,85 410,84 415,84 419,83" stroke="#2963da" fill="none" stroke-width="3" stroke-linejoin="round" stroke-linecap="round" />
</svg>