<svg width="419" height="100" viewBox="0 0 419 100" xmlns="http://www.w3.org/2000/svg" xmlns:xlink="http://www.w3.org/1999/xlink"><defs>
<linearGradient id="grad" x1="0%" y1="0%" x2="0%" y2="100%">
<stop offset="0%" stop-color="#2963da" stop-opacity="0.40"/>
<stop offset="100%" stop-color="#070720" stop-opacity="0.20"/>
</linearGradient>
</defs>
<rect x="0" y="0" width="419" height="100" fill="none" />
<polygon points="0,92 4,92 8,92 12,92 16,91 20,91 24,92 28,92 32,92 36,92 40,92 44,92 48,92 52,92 56,91 60,92 64,92 68,92 72,92 77,92 81,92 85,92 89,92 93,91 97,91 101,92 105,92 109,92 113,92 117,92 121,92 125,92 129,91 133,92 137,92 142,92 146,92 150,92 154,92 158,92 162,92 166,91 170,92 174,92 178,92 182,92 186,92 190,92 194,92 198,92 202,91 207,92 211,92 215,92 219,92 223,92 227,92 231,92 235,92 239,92 243,91 247,92 251,92 255,92 259,92 263,92 267,92 271,92 275,92 280,91 284,92 288,92 292,92 296,92 300,92 304,92 308,92 312,92 316,91 320,92 324,92 328,92 332,92 336,92 340,92 344,92 349,92 353,91 357,92 361,92 365,92 369,92 373,92 377,92 381,92 385,92 389,92 393,91 397,92 401,92 405,92 409,92 413,92 418,92 419,92 419,100 0,100" fill="url(#grad)" stroke="none" />
<polyline points="0,92 4,92 8,92 12,92 16,91 20,91 24,92 28,92 32,92 36,92 40,92 44,92 48,92 52,92 56,91 60,92 64,92 68,92 72,92 77,92 81,92 85,92 89,92 93,91 97,91 101,92 105,92 109,92 113,92 117,92 121,92 125,92 129,91 133,92 137,92 142,92 146,92 150,92 154,92 158,92 162,92 166,91 170,92 174,92 178,92 182,92 186,92 190,92 194,92 198,92 202,91 207,92 211,92 215,92 219,92 223,92 227,92 231,92 235,92 239,92 243,91 247,92 251,92 255,92 259,92 263,92 267,92 271,92 275,92 280,91 284,92 288,92 292,92 296,92 300,92 304,92 308,92 312,92 316,91 320,92 324,92 328,92 332,92 336,92 340,92 344,92 349,92 353,91 357,92 361,92 365,92 369,92 373,92 377,92 381,92 385,92 389,92 393,91 397,92 401,92 405,92 409,92 413,92 418,92 419,92" stroke="#2963da" fill="none" stroke-width="3" stroke-linejoin="round" stroke-linecap="round" />
</svg>