<svg width="419" height="100" viewBox="0 0 419 100" xmlns="http://www.w3.org/2000/svg" xmlns:xlink="http://www.w3.org/1999/xlink"><defs>
<linearGradient id="grad" x1="0%" y1="0%" x2="0%" y2="100%">
<stop offset="0%" stop-color="#2963da" stop-opacity="0.40"/>
<stop offset="100%" stop-color="#070720" stop-opacity="0.20"/>
</linearGradient>
</defs>
<rect x="0" y="0" width="419" height="100" fill="none" />
<polygon points="0,91 4,92 8,92 12,92 16,92 20,91 24,92 28,92 33,92 37,92 42,92 46,92 51,92 55,92 59,92 63,92 67,92 71,92 75,92 79,92 84,92 88,92 92,92 96,89 100,86 104,83 108,84 112,82 117,81 121,81 125,80 129,77 134,75 138,76 142,75 146,74 150,74 155,76 159,79 163,80 167,80 171,81 175,80 179,82 183,84 187,84 191,84 195,85 199,87 203,88 208,90 212,87 216,85 220,84 225,85 229,84 233,85 237,86 241,87 245,87 249,87 254,87 258,87 262,89 266,87 270,89 274,86 278,88 282,90 286,86 290,85 295,87 299,89 303,90 307,89 311,86 315,85 319,85 323,86 328,86 332,85 336,87 340,86 344,86 348,87 353,88 357,89 361,89 365,89 369,90 373,91 377,91 382,91 386,91 390,91 394,91 398,92 402,92 406,92 411,92 415,92 419,92 419,100 0,100" fill="url(#grad)" stroke="none" />
<polyline points="0,91 4,92 8,92 12,92 16,92 20,91 24,92 28,92 33,92 37,92 42,92 46,92 51,92 55,92 59,92 63,92 67,92 71,92 75,92 79,92 84,92 88,92 92,92 96,89 100,86 104,83 108,84 112,82 117,81 121,81 125,80 129,77 134,75 138,76 142,75 146,74 150,74 155,76 159,79 163,80 167,80 171,81 175,80 179,82 183,84 187,84 191,84 195,85 199,87 203,88 208,90 212,87 216,85 220,84 225,85 229,84 233,85 237,86 241,87 245,87 249,87 254,87 258,87 262,89 266,87 270,89 274,86 278,88 282,90 286,86 290,85 295,87 299,89 303,90 307,89 311,86 315,85 319,85 323,86 328,86 332,85 336,87 340,86 344,86 348,87 353,88 357,89 361,89 365,89 369,90 373,91 377,91 382,91 386,91 390,91 394,91 398,92 402,92 406,92 411,92 415,92 419,92" stroke="#2963da" fill="none" stroke-width="3" stroke-linejoin="round" stroke-linecap="round" />
</svg>