<svg width="419" height="100" viewBox="0 0 419 100" xmlns="http://www.w3.org/2000/svg" xmlns:xlink="http://www.w3.org/1999/xlink"><defs>
<linearGradient id="grad" x1="0%" y1="0%" x2="0%" y2="100%">
<stop offset="0%" stop-color="#2963da" stop-opacity="0.40"/>
<stop offset="100%" stop-color="#070720" stop-opacity="0.20"/>
</linearGradient>
</defs>
<rect x="0" y="0" width="419" height="100" fill="none" />
<polygon points="0,90 4,87 8,86 12,82 16,79 20,80 24,81 28,84 32,84 36,82 40,80 44,81 48,84 52,86 56,89 60,88 64,84 68,81 72,77 76,75 80,73 84,70 89,73 93,77 97,77 101,80 105,83 109,86 113,89 117,92 121,92 125,92 129,90 133,89 137,87 141,85 145,82 149,84 153,88 157,90 161,92 166,92 170,92 174,92 178,92 182,92 186,92 190,92 194,92 198,92 202,92 206,92 210,92 214,92 218,90 222,86 226,82 230,78 234,73 238,69 242,68 247,72 251,77 255,82 259,86 263,90 267,89 271,89 275,88 279,87 283,87 287,86 291,86 295,85 299,83 303,83 307,83 311,83 315,82 319,82 323,80 328,78 332,76 336,73 340,69 344,66 348,63 352,62 356,62 360,64 364,66 368,69 372,72 376,74 380,75 384,78 388,78 392,77 396,73 400,68 404,61 409,56 413,53 417,49 419,46 419,100 0,100" fill="url(#grad)" stroke="none" />
<polyline points="0,90 4,87 8,86 12,82 16,79 20,80 24,81 28,84 32,84 36,82 40,80 44,81 48,84 52,86 56,89 60,88 64,84 68,81 72,77 76,75 80,73 84,70 89,73 93,77 97,77 101,80 105,83 109,86 113,89 117,92 121,92 125,92 129,90 133,89 137,87 141,85 145,82 149,84 153,88 157,90 161,92 166,92 170,92 174,92 178,92 182,92 186,92 190,92 194,92 198,92 202,92 206,92 210,92 214,92 218,90 222,86 226,82 230,78 234,73 238,69 242,68 247,72 251,77 255,82 259,86 263,90 267,89 271,89 275,88 279,87 283,87 287,86 291,86 295,85 299,83 303,83 307,83 311,83 315,82 319,82 323,80 328,78 332,76 336,73 340,69 344,66 348,63 352,62 356,62 360,64 364,66 368,69 372,72 376,74 380,75 384,78 388,78 392,77 396,73 400,68 404,61 409,56 413,53 417,49 419,46" stroke="#2963da" fill="none" stroke-width="3" stroke-linejoin="round" stroke-linecap="round" />
</svg>