<svg width="419" height="100" viewBox="0 0 419 100" xmlns="http://www.w3.org/2000/svg" xmlns:xlink="http://www.w3.org/1999/xlink"><defs>
<linearGradient id="grad" x1="0%" y1="0%" x2="0%" y2="100%">
<stop offset="0%" stop-color="#2963da" stop-opacity="0.40"/>
<stop offset="100%" stop-color="#070720" stop-opacity="0.20"/>
</linearGradient>
</defs>
<rect x="0" y="0" width="419" height="100" fill="none" />
<polygon points="0,92 4,92 8,92 12,92 16,92 20,92 24,92 28,92 32,92 36,92 40,92 44,92 48,92 52,92 56,92 60,92 64,92 68,92 72,92 76,91 80,91 84,91 88,91 93,91 97,91 101,91 105,91 109,91 113,91 117,91 121,91 125,91 129,91 133,91 137,91 141,91 145,91 149,91 153,91 157,91 161,91 165,91 169,91 173,91 177,91 181,91 185,91 190,90 194,90 198,90 202,90 206,90 210,90 214,90 218,89 222,89 226,89 230,89 234,89 238,89 242,89 246,89 250,89 254,89 258,90 262,90 266,90 270,89 274,89 278,89 282,89 287,89 291,89 295,89 299,89 303,89 307,90 311,90 315,90 319,90 323,90 327,90 331,90 335,91 339,91 343,91 347,91 351,91 355,91 359,91 363,92 367,92 372,92 376,92 380,92 384,92 388,92 392,92 396,92 400,92 404,92 408,92 412,92 416,92 419,92 419,100 0,100" fill="url(#grad)" stroke="none" />
<polyline points="0,92 4,92 8,92 12,92 16,92 20,92 24,92 28,92 32,92 36,92 40,92 44,92 48,92 52,92 56,92 60,92 64,92 68,92 72,92 76,91 80,91 84,91 88,91 93,91 97,91 101,91 105,91 109,91 113,91 117,91 121,91 125,91 129,91 133,91 137,91 141,91 145,91 149,91 153,91 157,91 161,91 165,91 169,91 173,91 177,91 181,91 185,91 190,90 194,90 198,90 202,90 206,90 210,90 214,90 218,89 222,89 226,89 230,89 234,89 238,89 242,89 246,89 250,89 254,89 258,90 262,90 266,90 270,89 274,89 278,89 282,89 287,89 291,89 295,89 299,89 303,89 307,90 311,90 315,90 319,90 323,90 327,90 331,90 335,91 339,91 343,91 347,91 351,91 355,91 359,91 363,92 367,92 372,92 376,92 380,92 384,92 388,92 392,92 396,92 400,92 404,92 408,92 412,92 416,92 419,92" stroke="#2963da" fill="none" stroke-width="3" stroke-linejoin="round" stroke-linecap="round" />
</svg>