<svg width="419" height="100" viewBox="0 0 419 100" xmlns="http://www.w3.org/2000/svg" xmlns:xlink="http://www.w3.org/1999/xlink"><defs>
<linearGradient id="grad" x1="0%" y1="0%" x2="0%" y2="100%">
<stop offset="0%" stop-color="#2963da" stop-opacity="0.40"/>
<stop offset="100%" stop-color="#070720" stop-opacity="0.20"/>
</linearGradient>
</defs>
<rect x="0" y="0" width="419" height="100" fill="none" />
<polygon points="0,85 4,83 8,84 12,85 16,85 20,85 24,85 28,85 32,87 36,86 40,84 44,84 48,84 52,84 56,84 61,84 65,87 69,88 73,89 77,89 81,88 85,87 89,88 93,87 97,85 101,85 105,88 109,86 113,88 117,85 121,84 126,83 130,85 134,85 138,87 142,87 146,88 150,88 154,88 158,88 163,89 167,87 171,89 175,85 179,83 183,86 187,85 191,85 195,85 199,85 203,85 207,86 211,86 215,88 219,89 223,90 227,86 232,85 236,86 240,89 244,91 248,91 252,92 256,89 260,92 264,92 268,87 272,86 276,86 280,86 285,85 289,86 293,89 297,89 301,89 305,85 309,87 313,87 317,90 321,91 325,92 329,90 334,91 338,91 342,90 346,86 350,86 354,86 358,86 362,85 366,86 370,89 374,89 378,88 382,85 386,87 390,87 395,90 399,91 403,92 407,88 411,92 415,92 419,88 419,100 0,100" fill="url(#grad)" stroke="none" />
<polyline points="0,85 4,83 8,84 12,85 16,85 20,85 24,85 28,85 32,87 36,86 40,84 44,84 48,84 52,84 56,84 61,84 65,87 69,88 73,89 77,89 81,88 85,87 89,88 93,87 97,85 101,85 105,88 109,86 113,88 117,85 121,84 126,83 130,85 134,85 138,87 142,87 146,88 150,88 154,88 158,88 163,89 167,87 171,89 175,85 179,83 183,86 187,85 191,85 195,85 199,85 203,85 207,86 211,86 215,88 219,89 223,90 227,86 232,85 236,86 240,89 244,91 248,91 252,92 256,89 260,92 264,92 268,87 272,86 276,86 280,86 285,85 289,86 293,89 297,89 301,89 305,85 309,87 313,87 317,90 321,91 325,92 329,90 334,91 338,91 342,90 346,86 350,86 354,86 358,86 362,85 366,86 370,89 374,89 378,88 382,85 386,87 390,87 395,90 399,91 403,92 407,88 411,92 415,92 419,88" stroke="#2963da" fill="none" stroke-width="3" stroke-linejoin="round" stroke-linecap="round" />
</svg>