<svg width="419" height="100" viewBox="0 0 419 100" xmlns="http://www.w3.org/2000/svg" xmlns:xlink="http://www.w3.org/1999/xlink"><defs>
<linearGradient id="grad" x1="0%" y1="0%" x2="0%" y2="100%">
<stop offset="0%" stop-color="#2963da" stop-opacity="0.40"/>
<stop offset="100%" stop-color="#070720" stop-opacity="0.20"/>
</linearGradient>
</defs>
<rect x="0" y="0" width="419" height="100" fill="none" />
<polygon points="0,92 4,92 8,92 12,92 16,92 20,92 24,92 28,92 32,92 36,92 40,92 44,92 48,92 52,91 56,90 60,90 64,89 68,89 72,88 76,87 80,86 84,85 88,84 92,83 96,82 101,81 105,80 109,79 113,77 117,76 121,77 125,77 129,78 133,78 137,81 141,82 145,83 149,84 153,85 157,85 161,85 165,85 169,84 173,85 177,85 181,85 185,86 189,86 194,87 198,88 202,88 206,89 210,89 214,89 218,90 222,90 226,90 230,91 234,91 238,91 242,90 246,90 250,91 254,90 258,91 262,91 266,92 270,91 274,92 278,91 282,91 286,91 291,91 295,91 299,91 303,91 307,91 311,91 315,91 319,91 323,91 327,91 331,91 335,91 339,91 343,91 347,91 351,91 355,91 359,92 363,92 367,92 371,92 375,92 380,92 384,92 388,92 392,92 396,92 400,92 404,92 408,92 412,92 416,92 419,92 419,100 0,100" fill="url(#grad)" stroke="none" />
<polyline points="0,92 4,92 8,92 12,92 16,92 20,92 24,92 28,92 32,92 36,92 40,92 44,92 48,92 52,91 56,90 60,90 64,89 68,89 72,88 76,87 80,86 84,85 88,84 92,83 96,82 101,81 105,80 109,79 113,77 117,76 121,77 125,77 129,78 133,78 137,81 141,82 145,83 149,84 153,85 157,85 161,85 165,85 169,84 173,85 177,85 181,85 185,86 189,86 194,87 198,88 202,88 206,89 210,89 214,89 218,90 222,90 226,90 230,91 234,91 238,91 242,90 246,90 250,91 254,90 258,91 262,91 266,92 270,91 274,92 278,91 282,91 286,91 291,91 295,91 299,91 303,91 307,91 311,91 315,91 319,91 323,91 327,91 331,91 335,91 339,91 343,91 347,91 351,91 355,91 359,92 363,92 367,92 371,92 375,92 380,92 384,92 388,92 392,92 396,92 400,92 404,92 408,92 412,92 416,92 419,92" stroke="#2963da" fill="none" stroke-width="3" stroke-linejoin="round" stroke-linecap="round" />
</svg>