<svg width="419" height="100" viewBox="0 0 419 100" xmlns="http://www.w3.org/2000/svg" xmlns:xlink="http://www.w3.org/1999/xlink"><defs>
<linearGradient id="grad" x1="0%" y1="0%" x2="0%" y2="100%">
<stop offset="0%" stop-color="#2963da" stop-opacity="0.40"/>
<stop offset="100%" stop-color="#070720" stop-opacity="0.20"/>
</linearGradient>
</defs>
<rect x="0" y="0" width="419" height="100" fill="none" />
<polygon points="0,89 4,89 8,89 12,89 16,89 20,89 24,90 28,90 32,90 36,89 41,89 45,88 49,88 53,88 57,87 61,87 65,86 69,86 73,86 78,86 82,85 86,86 90,87 94,86 98,85 102,84 106,84 110,83 114,84 118,82 122,82 127,84 131,84 135,85 139,86 143,86 147,87 152,87 156,88 160,89 164,89 168,90 172,90 176,90 180,90 185,91 189,91 193,91 197,92 201,92 205,92 210,92 214,92 218,92 223,92 227,92 231,92 235,92 240,91 244,91 248,91 252,90 256,90 260,89 264,88 268,88 272,88 276,88 281,85 285,83 289,85 293,88 297,88 301,89 305,88 309,88 313,86 317,84 321,85 326,87 330,88 334,88 338,88 342,88 346,87 350,85 354,84 358,86 362,88 366,88 371,89 375,88 379,88 383,85 387,83 391,85 395,87 399,88 403,89 408,88 412,88 416,87 419,85 419,100 0,100" fill="url(#grad)" stroke="none" />
<polyline points="0,89 4,89 8,89 12,89 16,89 20,89 24,90 28,90 32,90 36,89 41,89 45,88 49,88 53,88 57,87 61,87 65,86 69,86 73,86 78,86 82,85 86,86 90,87 94,86 98,85 102,84 106,84 110,83 114,84 118,82 122,82 127,84 131,84 135,85 139,86 143,86 147,87 152,87 156,88 160,89 164,89 168,90 172,90 176,90 180,90 185,91 189,91 193,91 197,92 201,92 205,92 210,92 214,92 218,92 223,92 227,92 231,92 235,92 240,91 244,91 248,91 252,90 256,90 260,89 264,88 268,88 272,88 276,88 281,85 285,83 289,85 293,88 297,88 301,89 305,88 309,88 313,86 317,84 321,85 326,87 330,88 334,88 338,88 342,88 346,87 350,85 354,84 358,86 362,88 366,88 371,89 375,88 379,88 383,85 387,83 391,85 395,87 399,88 403,89 408,88 412,88 416,87 419,85" stroke="#2963da" fill="none" stroke-width="3" stroke-linejoin="round" stroke-linecap="round" />
</svg>