<svg width="419" height="100" viewBox="0 0 419 100" xmlns="http://www.w3.org/2000/svg" xmlns:xlink="http://www.w3.org/1999/xlink"><defs>
<linearGradient id="grad" x1="0%" y1="0%" x2="0%" y2="100%">
<stop offset="0%" stop-color="#2963da" stop-opacity="0.40"/>
<stop offset="100%" stop-color="#070720" stop-opacity="0.20"/>
</linearGradient>
</defs>
<rect x="0" y="0" width="419" height="100" fill="none" />
<polygon points="0,91 4,91 8,92 12,92 16,90 20,89 24,89 29,90 33,90 37,91 41,90 45,91 49,90 53,88 57,86 61,84 66,84 70,85 74,85 78,85 82,86 86,86 90,85 94,86 98,87 103,86 107,85 111,87 115,87 119,87 123,88 127,87 132,87 136,87 140,87 144,87 148,87 152,87 156,86 160,87 164,87 168,87 173,87 177,86 181,86 185,85 189,84 193,84 197,83 201,81 205,80 209,75 214,70 218,69 222,68 226,71 230,75 234,73 238,71 242,70 246,67 250,62 254,58 258,63 262,66 266,71 270,75 275,77 279,78 283,79 287,77 291,78 295,78 299,76 303,77 307,78 311,77 315,80 320,82 324,79 328,81 332,83 336,83 340,84 344,86 348,86 352,88 356,84 360,87 364,90 369,87 373,85 377,87 381,85 385,86 389,86 393,84 397,77 401,79 405,82 410,86 414,88 418,86 419,86 419,100 0,100" fill="url(#grad)" stroke="none" />
<polyline points="0,91 4,91 8,92 12,92 16,90 20,89 24,89 29,90 33,90 37,91 41,90 45,91 49,90 53,88 57,86 61,84 66,84 70,85 74,85 78,85 82,86 86,86 90,85 94,86 98,87 103,86 107,85 111,87 115,87 119,87 123,88 127,87 132,87 136,87 140,87 144,87 148,87 152,87 156,86 160,87 164,87 168,87 173,87 177,86 181,86 185,85 189,84 193,84 197,83 201,81 205,80 209,75 214,70 218,69 222,68 226,71 230,75 234,73 238,71 242,70 246,67 250,62 254,58 258,63 262,66 266,71 270,75 275,77 279,78 283,79 287,77 291,78 295,78 299,76 303,77 307,78 311,77 315,80 320,82 324,79 328,81 332,83 336,83 340,84 344,86 348,86 352,88 356,84 360,87 364,90 369,87 373,85 377,87 381,85 385,86 389,86 393,84 397,77 401,79 405,82 410,86 414,88 418,86 419,86" stroke="#2963da" fill="none" stroke-width="3" stroke-linejoin="round" stroke-linecap="round" />
</svg>