<svg width="419" height="100" viewBox="0 0 419 100" xmlns="http://www.w3.org/2000/svg" xmlns:xlink="http://www.w3.org/1999/xlink"><defs>
<linearGradient id="grad" x1="0%" y1="0%" x2="0%" y2="100%">
<stop offset="0%" stop-color="#2963da" stop-opacity="0.40"/>
<stop offset="100%" stop-color="#070720" stop-opacity="0.20"/>
</linearGradient>
</defs>
<rect x="0" y="0" width="419" height="100" fill="none" />
<polygon points="0,86 4,85 8,84 12,84 16,84 20,82 24,84 28,89 32,89 36,90 41,90 45,87 49,89 53,90 57,89 61,89 65,88 69,88 73,90 77,90 81,90 85,90 89,89 93,88 98,86 102,84 106,85 111,87 115,87 119,88 123,88 127,89 131,90 135,91 140,91 144,91 148,92 152,91 157,92 161,92 165,92 169,92 173,92 178,92 182,92 186,92 190,92 194,92 198,91 202,91 206,91 210,90 215,89 219,88 223,88 227,87 231,87 236,86 240,86 244,85 248,86 252,86 256,86 260,87 265,88 269,87 273,87 277,85 281,85 285,85 289,83 294,82 298,85 302,82 306,82 310,83 314,82 319,79 323,77 327,76 332,77 336,76 340,74 344,71 348,69 352,69 356,73 360,76 364,78 368,79 372,78 377,81 381,82 385,81 389,82 393,84 397,83 401,83 405,84 409,86 413,86 418,86 419,86 419,100 0,100" fill="url(#grad)" stroke="none" />
<polyline points="0,86 4,85 8,84 12,84 16,84 20,82 24,84 28,89 32,89 36,90 41,90 45,87 49,89 53,90 57,89 61,89 65,88 69,88 73,90 77,90 81,90 85,90 89,89 93,88 98,86 102,84 106,85 111,87 115,87 119,88 123,88 127,89 131,90 135,91 140,91 144,91 148,92 152,91 157,92 161,92 165,92 169,92 173,92 178,92 182,92 186,92 190,92 194,92 198,91 202,91 206,91 210,90 215,89 219,88 223,88 227,87 231,87 236,86 240,86 244,85 248,86 252,86 256,86 260,87 265,88 269,87 273,87 277,85 281,85 285,85 289,83 294,82 298,85 302,82 306,82 310,83 314,82 319,79 323,77 327,76 332,77 336,76 340,74 344,71 348,69 352,69 356,73 360,76 364,78 368,79 372,78 377,81 381,82 385,81 389,82 393,84 397,83 401,83 405,84 409,86 413,86 418,86 419,86" stroke="#2963da" fill="none" stroke-width="3" stroke-linejoin="round" stroke-linecap="round" />
</svg>