<svg width="419" height="100" viewBox="0 0 419 100" xmlns="http://www.w3.org/2000/svg" xmlns:xlink="http://www.w3.org/1999/xlink"><defs>
<linearGradient id="grad" x1="0%" y1="0%" x2="0%" y2="100%">
<stop offset="0%" stop-color="#2963da" stop-opacity="0.40"/>
<stop offset="100%" stop-color="#070720" stop-opacity="0.20"/>
</linearGradient>
</defs>
<rect x="0" y="0" width="419" height="100" fill="none" />
<polygon points="0,91 4,91 8,91 12,91 16,91 20,91 25,91 29,90 33,91 37,92 41,92 45,92 49,92 53,92 57,92 62,91 66,89 70,90 74,91 78,91 82,91 86,91 90,91 94,91 98,91 103,90 107,89 111,90 115,92 119,92 123,91 127,91 131,91 135,91 139,91 147,91 151,91 155,89 159,88 163,88 167,88 171,88 176,88 180,88 184,88 188,88 192,89 196,88 200,88 205,87 209,89 213,87 217,88 221,89 225,90 230,90 234,89 238,90 242,89 246,88 250,87 255,87 259,87 263,88 267,88 271,89 275,90 279,90 283,90 288,89 292,89 296,86 300,86 304,86 308,89 312,87 316,86 320,86 324,88 328,87 332,86 336,87 341,88 345,87 349,90 353,90 357,90 361,88 365,87 369,89 373,91 377,89 382,87 386,90 390,91 394,89 398,89 402,91 406,91 410,91 414,91 418,91 419,91 419,100 0,100" fill="url(#grad)" stroke="none" />
<polyline points="0,91 4,91 8,91 12,91 16,91 20,91 25,91 29,90 33,91 37,92 41,92 45,92 49,92 53,92 57,92 62,91 66,89 70,90 74,91 78,91 82,91 86,91 90,91 94,91 98,91 103,90 107,89 111,90 115,92 119,92 123,91 127,91 131,91 135,91 139,91 147,91 151,91 155,89 159,88 163,88 167,88 171,88 176,88 180,88 184,88 188,88 192,89 196,88 200,88 205,87 209,89 213,87 217,88 221,89 225,90 230,90 234,89 238,90 242,89 246,88 250,87 255,87 259,87 263,88 267,88 271,89 275,90 279,90 283,90 288,89 292,89 296,86 300,86 304,86 308,89 312,87 316,86 320,86 324,88 328,87 332,86 336,87 341,88 345,87 349,90 353,90 357,90 361,88 365,87 369,89 373,91 377,89 382,87 386,90 390,91 394,89 398,89 402,91 406,91 410,91 414,91 418,91 419,91" stroke="#2963da" fill="none" stroke-width="3" stroke-linejoin="round" stroke-linecap="round" />
</svg>