<svg width="419" height="100" viewBox="0 0 419 100" xmlns="http://www.w3.org/2000/svg" xmlns:xlink="http://www.w3.org/1999/xlink"><defs>
<linearGradient id="grad" x1="0%" y1="0%" x2="0%" y2="100%">
<stop offset="0%" stop-color="#2963da" stop-opacity="0.40"/>
<stop offset="100%" stop-color="#070720" stop-opacity="0.20"/>
</linearGradient>
</defs>
<rect x="0" y="0" width="419" height="100" fill="none" />
<polygon points="0,92 4,92 8,91 12,91 17,90 21,89 25,88 29,88 33,88 37,89 41,89 46,89 50,89 54,88 58,88 62,87 66,87 70,85 74,86 78,86 82,85 86,84 90,80 94,75 98,73 103,72 107,74 111,71 115,69 119,68 123,69 127,71 131,71 135,70 139,70 143,69 147,68 151,67 155,67 159,67 164,67 168,70 172,71 176,69 180,66 184,69 188,70 192,70 196,71 200,75 204,77 208,78 212,82 217,85 221,86 225,87 229,84 233,79 237,78 241,79 245,82 249,87 253,88 257,89 261,89 266,89 270,89 274,90 278,90 282,91 287,91 291,91 295,91 299,91 303,92 307,92 311,92 315,92 319,92 323,92 328,92 332,92 336,92 341,92 345,92 349,92 354,92 358,92 362,92 366,92 370,92 374,92 378,92 382,92 386,92 391,92 395,92 400,92 405,92 409,92 413,92 417,92 419,92 419,100 0,100" fill="url(#grad)" stroke="none" />
<polyline points="0,92 4,92 8,91 12,91 17,90 21,89 25,88 29,88 33,88 37,89 41,89 46,89 50,89 54,88 58,88 62,87 66,87 70,85 74,86 78,86 82,85 86,84 90,80 94,75 98,73 103,72 107,74 111,71 115,69 119,68 123,69 127,71 131,71 135,70 139,70 143,69 147,68 151,67 155,67 159,67 164,67 168,70 172,71 176,69 180,66 184,69 188,70 192,70 196,71 200,75 204,77 208,78 212,82 217,85 221,86 225,87 229,84 233,79 237,78 241,79 245,82 249,87 253,88 257,89 261,89 266,89 270,89 274,90 278,90 282,91 287,91 291,91 295,91 299,91 303,92 307,92 311,92 315,92 319,92 323,92 328,92 332,92 336,92 341,92 345,92 349,92 354,92 358,92 362,92 366,92 370,92 374,92 378,92 382,92 386,92 391,92 395,92 400,92 405,92 409,92 413,92 417,92 419,92" stroke="#2963da" fill="none" stroke-width="3" stroke-linejoin="round" stroke-linecap="round" />
</svg>