<svg width="419" height="100" viewBox="0 0 419 100" xmlns="http://www.w3.org/2000/svg" xmlns:xlink="http://www.w3.org/1999/xlink"><defs>
<linearGradient id="grad" x1="0%" y1="0%" x2="0%" y2="100%">
<stop offset="0%" stop-color="#2963da" stop-opacity="0.40"/>
<stop offset="100%" stop-color="#070720" stop-opacity="0.20"/>
</linearGradient>
</defs>
<rect x="0" y="0" width="419" height="100" fill="none" />
<polygon points="0,92 4,92 8,92 12,91 17,92 21,92 25,92 29,92 34,92 38,92 42,92 46,92 51,92 55,92 59,92 63,92 67,92 71,92 75,92 79,92 83,92 87,92 92,92 96,92 100,92 104,92 108,92 113,91 117,90 121,91 125,92 129,92 134,92 138,92 142,92 146,92 151,92 155,92 159,90 163,89 167,90 171,91 175,91 179,90 184,89 188,89 192,89 196,91 200,92 204,92 208,92 212,89 216,89 221,87 225,88 229,89 234,90 238,91 242,92 246,92 250,92 254,91 258,91 262,89 266,89 270,89 275,89 279,91 283,92 288,91 292,92 296,88 300,88 304,88 308,89 313,89 317,91 322,91 326,92 330,90 334,90 338,92 342,92 346,92 350,92 354,92 358,91 363,91 367,91 371,91 375,92 379,92 383,92 387,92 391,92 396,92 400,91 404,92 408,92 413,92 417,92 419,92 419,100 0,100" fill="url(#grad)" stroke="none" />
<polyline points="0,92 4,92 8,92 12,91 17,92 21,92 25,92 29,92 34,92 38,92 42,92 46,92 51,92 55,92 59,92 63,92 67,92 71,92 75,92 79,92 83,92 87,92 92,92 96,92 100,92 104,92 108,92 113,91 117,90 121,91 125,92 129,92 134,92 138,92 142,92 146,92 151,92 155,92 159,90 163,89 167,90 171,91 175,91 179,90 184,89 188,89 192,89 196,91 200,92 204,92 208,92 212,89 216,89 221,87 225,88 229,89 234,90 238,91 242,92 246,92 250,92 254,91 258,91 262,89 266,89 270,89 275,89 279,91 283,92 288,91 292,92 296,88 300,88 304,88 308,89 313,89 317,91 322,91 326,92 330,90 334,90 338,92 342,92 346,92 350,92 354,92 358,91 363,91 367,91 371,91 375,92 379,92 383,92 387,92 391,92 396,92 400,91 404,92 408,92 413,92 417,92 419,92" stroke="#2963da" fill="none" stroke-width="3" stroke-linejoin="round" stroke-linecap="round" />
</svg>