<svg width="419" height="100" viewBox="0 0 419 100" xmlns="http://www.w3.org/2000/svg" xmlns:xlink="http://www.w3.org/1999/xlink"><defs>
<linearGradient id="grad" x1="0%" y1="0%" x2="0%" y2="100%">
<stop offset="0%" stop-color="#2963da" stop-opacity="0.40"/>
<stop offset="100%" stop-color="#070720" stop-opacity="0.20"/>
</linearGradient>
</defs>
<rect x="0" y="0" width="419" height="100" fill="none" />
<polygon points="0,92 4,92 8,92 12,92 16,92 20,92 24,92 28,92 32,92 37,92 41,92 45,92 49,92 53,92 57,92 61,92 66,92 70,92 74,92 78,92 82,92 86,92 90,92 94,92 99,92 103,92 107,92 111,92 115,92 119,92 123,92 127,91 131,91 135,92 139,92 143,92 147,91 152,91 156,90 160,91 164,91 168,91 172,91 176,90 180,90 185,91 189,91 193,91 197,91 201,91 205,91 209,91 213,91 217,91 221,91 225,92 230,91 234,92 238,91 242,92 246,92 250,92 254,92 258,91 262,91 267,92 271,91 275,91 279,92 283,92 287,92 291,92 295,92 299,92 303,92 308,92 312,92 316,92 320,92 324,92 328,92 332,92 336,92 340,92 345,92 349,92 353,92 357,92 361,92 366,92 370,92 374,92 378,92 383,92 387,92 391,92 395,92 399,92 403,92 408,92 412,92 416,92 419,92 419,100 0,100" fill="url(#grad)" stroke="none" />
<polyline points="0,92 4,92 8,92 12,92 16,92 20,92 24,92 28,92 32,92 37,92 41,92 45,92 49,92 53,92 57,92 61,92 66,92 70,92 74,92 78,92 82,92 86,92 90,92 94,92 99,92 103,92 107,92 111,92 115,92 119,92 123,92 127,91 131,91 135,92 139,92 143,92 147,91 152,91 156,90 160,91 164,91 168,91 172,91 176,90 180,90 185,91 189,91 193,91 197,91 201,91 205,91 209,91 213,91 217,91 221,91 225,92 230,91 234,92 238,91 242,92 246,92 250,92 254,92 258,91 262,91 267,92 271,91 275,91 279,92 283,92 287,92 291,92 295,92 299,92 303,92 308,92 312,92 316,92 320,92 324,92 328,92 332,92 336,92 340,92 345,92 349,92 353,92 357,92 361,92 366,92 370,92 374,92 378,92 383,92 387,92 391,92 395,92 399,92 403,92 408,92 412,92 416,92 419,92" stroke="#2963da" fill="none" stroke-width="3" stroke-linejoin="round" stroke-linecap="round" />
</svg>