<svg width="419" height="100" viewBox="0 0 419 100" xmlns="http://www.w3.org/2000/svg" xmlns:xlink="http://www.w3.org/1999/xlink"><defs>
<linearGradient id="grad" x1="0%" y1="0%" x2="0%" y2="100%">
<stop offset="0%" stop-color="#2963da" stop-opacity="0.40"/>
<stop offset="100%" stop-color="#070720" stop-opacity="0.20"/>
</linearGradient>
</defs>
<rect x="0" y="0" width="419" height="100" fill="none" />
<polygon points="0,80 4,81 8,82 12,82 16,83 20,84 24,84 28,83 32,86 37,87 41,87 45,88 49,89 53,89 57,89 61,89 65,89 69,88 74,88 78,88 82,87 86,87 90,87 94,87 99,87 103,87 107,87 111,86 115,81 119,76 123,75 127,80 131,85 136,87 140,87 145,87 149,85 153,88 157,88 161,88 165,88 169,87 173,86 178,86 182,88 186,89 190,88 194,88 198,88 202,87 207,88 211,88 215,86 219,87 224,83 228,82 232,81 236,82 240,82 244,83 249,85 253,85 257,88 261,88 265,87 269,89 273,86 277,89 282,90 286,92 290,92 294,92 299,89 303,92 307,92 311,92 315,92 319,92 323,90 327,90 331,89 335,88 340,86 344,88 348,89 352,91 356,90 360,90 365,90 369,90 373,88 377,88 381,90 385,87 389,88 393,86 397,85 402,84 406,85 410,85 414,88 418,85 419,85 419,100 0,100" fill="url(#grad)" stroke="none" />
<polyline points="0,80 4,81 8,82 12,82 16,83 20,84 24,84 28,83 32,86 37,87 41,87 45,88 49,89 53,89 57,89 61,89 65,89 69,88 74,88 78,88 82,87 86,87 90,87 94,87 99,87 103,87 107,87 111,86 115,81 119,76 123,75 127,80 131,85 136,87 140,87 145,87 149,85 153,88 157,88 161,88 165,88 169,87 173,86 178,86 182,88 186,89 190,88 194,88 198,88 202,87 207,88 211,88 215,86 219,87 224,83 228,82 232,81 236,82 240,82 244,83 249,85 253,85 257,88 261,88 265,87 269,89 273,86 277,89 282,90 286,92 290,92 294,92 299,89 303,92 307,92 311,92 315,92 319,92 323,90 327,90 331,89 335,88 340,86 344,88 348,89 352,91 356,90 360,90 365,90 369,90 373,88 377,88 381,90 385,87 389,88 393,86 397,85 402,84 406,85 410,85 414,88 418,85 419,85" stroke="#2963da" fill="none" stroke-width="3" stroke-linejoin="round" stroke-linecap="round" />
</svg>