<svg width="419" height="100" viewBox="0 0 419 100" xmlns="http://www.w3.org/2000/svg" xmlns:xlink="http://www.w3.org/1999/xlink"><defs>
<linearGradient id="grad" x1="0%" y1="0%" x2="0%" y2="100%">
<stop offset="0%" stop-color="#2963da" stop-opacity="0.40"/>
<stop offset="100%" stop-color="#070720" stop-opacity="0.20"/>
</linearGradient>
</defs>
<rect x="0" y="0" width="419" height="100" fill="none" />
<polygon points="0,92 4,92 8,92 12,92 16,92 20,92 24,92 29,92 33,91 38,91 42,92 46,92 50,92 54,92 58,92 62,92 68,92 72,92 76,92 81,92 85,92 89,92 93,92 97,92 101,92 106,92 110,92 114,92 119,92 124,92 129,92 133,92 137,92 141,92 145,92 149,92 154,92 158,92 162,92 166,92 170,92 174,92 178,92 183,92 188,92 192,92 196,92 200,92 205,92 209,92 213,92 217,92 221,92 225,91 229,91 233,91 238,90 242,89 246,90 250,91 254,91 258,90 262,87 266,89 270,90 274,89 279,88 283,89 287,90 291,91 295,90 299,89 303,90 308,91 312,91 316,90 320,87 324,89 328,90 332,89 336,89 340,90 344,91 349,91 353,91 357,92 361,92 365,91 369,91 374,91 378,90 382,90 386,91 391,91 395,92 399,92 403,92 407,92 411,92 416,92 419,92 419,100 0,100" fill="url(#grad)" stroke="none" />
<polyline points="0,92 4,92 8,92 12,92 16,92 20,92 24,92 29,92 33,91 38,91 42,92 46,92 50,92 54,92 58,92 62,92 68,92 72,92 76,92 81,92 85,92 89,92 93,92 97,92 101,92 106,92 110,92 114,92 119,92 124,92 129,92 133,92 137,92 141,92 145,92 149,92 154,92 158,92 162,92 166,92 170,92 174,92 178,92 183,92 188,92 192,92 196,92 200,92 205,92 209,92 213,92 217,92 221,92 225,91 229,91 233,91 238,90 242,89 246,90 250,91 254,91 258,90 262,87 266,89 270,90 274,89 279,88 283,89 287,90 291,91 295,90 299,89 303,90 308,91 312,91 316,90 320,87 324,89 328,90 332,89 336,89 340,90 344,91 349,91 353,91 357,92 361,92 365,91 369,91 374,91 378,90 382,90 386,91 391,91 395,92 399,92 403,92 407,92 411,92 416,92 419,92" stroke="#2963da" fill="none" stroke-width="3" stroke-linejoin="round" stroke-linecap="round" />
</svg>