<svg width="419" height="100" viewBox="0 0 419 100" xmlns="http://www.w3.org/2000/svg" xmlns:xlink="http://www.w3.org/1999/xlink"><defs>
<linearGradient id="grad" x1="0%" y1="0%" x2="0%" y2="100%">
<stop offset="0%" stop-color="#2963da" stop-opacity="0.40"/>
<stop offset="100%" stop-color="#070720" stop-opacity="0.20"/>
</linearGradient>
</defs>
<rect x="0" y="0" width="419" height="100" fill="none" />
<polygon points="0,85 4,85 8,86 12,87 16,86 20,88 24,89 28,88 32,92 37,90 41,88 45,87 49,87 53,85 57,85 61,86 66,86 70,88 74,88 78,89 82,89 86,92 90,89 94,87 98,88 103,86 107,85 111,86 115,87 119,88 123,87 128,89 132,89 136,91 140,91 144,89 148,87 152,88 156,86 160,85 164,86 168,87 173,87 177,87 181,89 185,88 189,92 193,90 197,88 202,87 206,87 210,85 214,85 218,86 222,87 226,87 230,88 235,90 239,89 243,92 247,90 251,88 255,88 259,87 263,84 267,85 271,86 275,87 279,87 284,88 288,89 293,90 297,91 301,89 305,87 309,88 313,86 317,85 321,86 326,87 330,87 334,87 338,89 342,88 346,92 350,90 355,88 359,87 363,87 367,85 371,85 375,86 379,87 383,87 387,88 392,90 396,89 400,92 404,90 408,88 412,88 416,87 419,85 419,100 0,100" fill="url(#grad)" stroke="none" />
<polyline points="0,85 4,85 8,86 12,87 16,86 20,88 24,89 28,88 32,92 37,90 41,88 45,87 49,87 53,85 57,85 61,86 66,86 70,88 74,88 78,89 82,89 86,92 90,89 94,87 98,88 103,86 107,85 111,86 115,87 119,88 123,87 128,89 132,89 136,91 140,91 144,89 148,87 152,88 156,86 160,85 164,86 168,87 173,87 177,87 181,89 185,88 189,92 193,90 197,88 202,87 206,87 210,85 214,85 218,86 222,87 226,87 230,88 235,90 239,89 243,92 247,90 251,88 255,88 259,87 263,84 267,85 271,86 275,87 279,87 284,88 288,89 293,90 297,91 301,89 305,87 309,88 313,86 317,85 321,86 326,87 330,87 334,87 338,89 342,88 346,92 350,90 355,88 359,87 363,87 367,85 371,85 375,86 379,87 383,87 387,88 392,90 396,89 400,92 404,90 408,88 412,88 416,87 419,85" stroke="#2963da" fill="none" stroke-width="3" stroke-linejoin="round" stroke-linecap="round" />
</svg>