<svg width="419" height="100" viewBox="0 0 419 100" xmlns="http://www.w3.org/2000/svg" xmlns:xlink="http://www.w3.org/1999/xlink"><defs>
<linearGradient id="grad" x1="0%" y1="0%" x2="0%" y2="100%">
<stop offset="0%" stop-color="#2963da" stop-opacity="0.40"/>
<stop offset="100%" stop-color="#070720" stop-opacity="0.20"/>
</linearGradient>
</defs>
<rect x="0" y="0" width="419" height="100" fill="none" />
<polygon points="0,92 4,92 8,92 12,92 16,92 20,92 24,92 28,92 32,92 36,92 41,92 45,92 49,92 53,92 57,92 61,91 66,91 70,91 74,92 79,92 83,92 87,91 91,91 95,90 99,90 103,91 108,90 112,88 116,87 120,87 124,86 128,88 133,86 137,86 141,87 145,86 149,85 153,84 157,81 161,77 165,73 169,72 173,69 177,66 181,62 185,65 189,69 194,70 198,70 202,64 206,59 210,56 214,57 218,57 222,54 226,55 231,57 235,60 239,63 243,64 247,65 251,66 255,64 259,60 263,56 267,57 271,54 275,52 279,50 283,52 287,53 292,53 296,52 300,53 304,58 308,61 312,64 316,68 320,72 324,75 328,78 332,82 336,86 340,90 345,92 349,92 353,92 357,92 361,92 365,92 370,92 374,92 378,92 382,89 386,83 390,81 394,76 399,70 403,65 407,59 411,55 415,50 419,45 419,100 0,100" fill="url(#grad)" stroke="none" />
<polyline points="0,92 4,92 8,92 12,92 16,92 20,92 24,92 28,92 32,92 36,92 41,92 45,92 49,92 53,92 57,92 61,91 66,91 70,91 74,92 79,92 83,92 87,91 91,91 95,90 99,90 103,91 108,90 112,88 116,87 120,87 124,86 128,88 133,86 137,86 141,87 145,86 149,85 153,84 157,81 161,77 165,73 169,72 173,69 177,66 181,62 185,65 189,69 194,70 198,70 202,64 206,59 210,56 214,57 218,57 222,54 226,55 231,57 235,60 239,63 243,64 247,65 251,66 255,64 259,60 263,56 267,57 271,54 275,52 279,50 283,52 287,53 292,53 296,52 300,53 304,58 308,61 312,64 316,68 320,72 324,75 328,78 332,82 336,86 340,90 345,92 349,92 353,92 357,92 361,92 365,92 370,92 374,92 378,92 382,89 386,83 390,81 394,76 399,70 403,65 407,59 411,55 415,50 419,45" stroke="#2963da" fill="none" stroke-width="3" stroke-linejoin="round" stroke-linecap="round" />
</svg>