<svg width="419" height="100" viewBox="0 0 419 100" xmlns="http://www.w3.org/2000/svg" xmlns:xlink="http://www.w3.org/1999/xlink"><defs>
<linearGradient id="grad" x1="0%" y1="0%" x2="0%" y2="100%">
<stop offset="0%" stop-color="#2963da" stop-opacity="0.40"/>
<stop offset="100%" stop-color="#070720" stop-opacity="0.20"/>
</linearGradient>
</defs>
<rect x="0" y="0" width="419" height="100" fill="none" />
<polygon points="0,89 4,90 8,89 12,92 16,92 20,91 24,90 29,89 33,90 37,92 41,92 45,90 49,90 53,89 58,91 62,92 66,92 70,89 74,89 78,89 82,92 86,92 91,91 95,90 99,89 103,90 107,92 111,92 115,90 119,90 123,89 127,91 131,92 135,92 140,89 144,89 148,89 152,92 156,92 160,91 164,90 169,89 173,90 177,92 181,92 185,90 189,90 193,89 197,91 201,92 205,92 210,89 214,89 218,89 222,92 226,92 230,91 234,90 238,89 242,90 247,92 251,92 255,90 259,90 263,89 267,91 271,92 275,92 279,89 284,89 288,89 292,92 296,92 300,91 304,90 308,89 312,90 316,92 321,92 325,90 329,90 333,89 337,91 341,92 345,92 349,89 353,89 357,89 361,92 366,92 370,91 374,90 378,89 382,90 386,92 390,92 394,90 399,90 403,89 407,91 411,92 415,92 419,89 419,100 0,100" fill="url(#grad)" stroke="none" />
<polyline points="0,89 4,90 8,89 12,92 16,92 20,91 24,90 29,89 33,90 37,92 41,92 45,90 49,90 53,89 58,91 62,92 66,92 70,89 74,89 78,89 82,92 86,92 91,91 95,90 99,89 103,90 107,92 111,92 115,90 119,90 123,89 127,91 131,92 135,92 140,89 144,89 148,89 152,92 156,92 160,91 164,90 169,89 173,90 177,92 181,92 185,90 189,90 193,89 197,91 201,92 205,92 210,89 214,89 218,89 222,92 226,92 230,91 234,90 238,89 242,90 247,92 251,92 255,90 259,90 263,89 267,91 271,92 275,92 279,89 284,89 288,89 292,92 296,92 300,91 304,90 308,89 312,90 316,92 321,92 325,90 329,90 333,89 337,91 341,92 345,92 349,89 353,89 357,89 361,92 366,92 370,91 374,90 378,89 382,90 386,92 390,92 394,90 399,90 403,89 407,91 411,92 415,92 419,89" stroke="#2963da" fill="none" stroke-width="3" stroke-linejoin="round" stroke-linecap="round" />
</svg>