<svg width="419" height="100" viewBox="0 0 419 100" xmlns="http://www.w3.org/2000/svg" xmlns:xlink="http://www.w3.org/1999/xlink"><defs>
<linearGradient id="grad" x1="0%" y1="0%" x2="0%" y2="100%">
<stop offset="0%" stop-color="#2963da" stop-opacity="0.40"/>
<stop offset="100%" stop-color="#070720" stop-opacity="0.20"/>
</linearGradient>
</defs>
<rect x="0" y="0" width="419" height="100" fill="none" />
<polygon points="0,90 4,89 8,89 12,88 16,87 20,86 24,86 28,87 32,87 36,88 40,89 45,92 49,92 53,92 57,91 61,91 65,90 70,90 74,90 78,90 82,90 86,91 90,91 94,92 98,92 102,92 106,92 111,92 115,92 119,92 123,92 127,90 131,89 135,89 139,89 144,90 148,91 152,91 156,89 160,89 164,88 169,88 173,87 177,85 181,85 185,85 189,82 193,77 197,74 202,71 206,70 210,71 214,74 218,78 222,80 226,81 230,82 234,85 238,87 242,88 247,86 251,86 255,83 259,82 263,82 267,80 271,80 275,79 279,79 283,81 287,83 291,85 295,87 300,87 304,90 308,89 312,88 316,87 320,85 324,84 328,80 333,81 337,83 341,84 345,85 349,86 353,88 357,87 362,87 366,86 370,86 374,85 378,84 382,84 386,84 390,83 394,82 398,82 403,81 407,80 411,79 415,78 419,76 419,100 0,100" fill="url(#grad)" stroke="none" />
<polyline points="0,90 4,89 8,89 12,88 16,87 20,86 24,86 28,87 32,87 36,88 40,89 45,92 49,92 53,92 57,91 61,91 65,90 70,90 74,90 78,90 82,90 86,91 90,91 94,92 98,92 102,92 106,92 111,92 115,92 119,92 123,92 127,90 131,89 135,89 139,89 144,90 148,91 152,91 156,89 160,89 164,88 169,88 173,87 177,85 181,85 185,85 189,82 193,77 197,74 202,71 206,70 210,71 214,74 218,78 222,80 226,81 230,82 234,85 238,87 242,88 247,86 251,86 255,83 259,82 263,82 267,80 271,80 275,79 279,79 283,81 287,83 291,85 295,87 300,87 304,90 308,89 312,88 316,87 320,85 324,84 328,80 333,81 337,83 341,84 345,85 349,86 353,88 357,87 362,87 366,86 370,86 374,85 378,84 382,84 386,84 390,83 394,82 398,82 403,81 407,80 411,79 415,78 419,76" stroke="#2963da" fill="none" stroke-width="3" stroke-linejoin="round" stroke-linecap="round" />
</svg>