<svg width="419" height="100" viewBox="0 0 419 100" xmlns="http://www.w3.org/2000/svg" xmlns:xlink="http://www.w3.org/1999/xlink"><defs>
<linearGradient id="grad" x1="0%" y1="0%" x2="0%" y2="100%">
<stop offset="0%" stop-color="#2963da" stop-opacity="0.40"/>
<stop offset="100%" stop-color="#070720" stop-opacity="0.20"/>
</linearGradient>
</defs>
<rect x="0" y="0" width="419" height="100" fill="none" />
<polygon points="0,90 4,90 8,90 12,90 16,90 20,90 24,90 28,90 32,91 36,91 40,91 44,91 48,91 52,91 57,91 62,90 66,90 70,90 75,89 79,89 84,88 88,87 92,87 96,86 100,88 104,89 108,89 112,89 116,89 120,89 124,89 129,89 133,89 137,89 141,89 145,87 149,83 153,79 157,76 161,76 165,77 169,79 173,81 177,84 181,86 185,84 190,83 194,83 198,82 202,83 206,85 210,86 214,87 218,88 222,88 226,88 230,87 234,89 238,88 243,88 247,88 251,88 255,87 259,87 263,88 267,88 271,87 275,85 280,85 284,85 288,85 293,87 297,86 301,86 305,85 309,85 314,86 318,87 322,90 326,90 330,90 334,90 338,89 342,88 346,87 351,87 355,87 359,88 363,88 367,90 372,90 376,91 380,91 384,91 388,91 392,92 396,92 400,92 405,92 409,92 413,92 417,92 419,92 419,100 0,100" fill="url(#grad)" stroke="none" />
<polyline points="0,90 4,90 8,90 12,90 16,90 20,90 24,90 28,90 32,91 36,91 40,91 44,91 48,91 52,91 57,91 62,90 66,90 70,90 75,89 79,89 84,88 88,87 92,87 96,86 100,88 104,89 108,89 112,89 116,89 120,89 124,89 129,89 133,89 137,89 141,89 145,87 149,83 153,79 157,76 161,76 165,77 169,79 173,81 177,84 181,86 185,84 190,83 194,83 198,82 202,83 206,85 210,86 214,87 218,88 222,88 226,88 230,87 234,89 238,88 243,88 247,88 251,88 255,87 259,87 263,88 267,88 271,87 275,85 280,85 284,85 288,85 293,87 297,86 301,86 305,85 309,85 314,86 318,87 322,90 326,90 330,90 334,90 338,89 342,88 346,87 351,87 355,87 359,88 363,88 367,90 372,90 376,91 380,91 384,91 388,91 392,92 396,92 400,92 405,92 409,92 413,92 417,92 419,92" stroke="#2963da" fill="none" stroke-width="3" stroke-linejoin="round" stroke-linecap="round" />
</svg>