<svg width="419" height="100" viewBox="0 0 419 100" xmlns="http://www.w3.org/2000/svg" xmlns:xlink="http://www.w3.org/1999/xlink"><defs>
<linearGradient id="grad" x1="0%" y1="0%" x2="0%" y2="100%">
<stop offset="0%" stop-color="#2963da" stop-opacity="0.40"/>
<stop offset="100%" stop-color="#070720" stop-opacity="0.20"/>
</linearGradient>
</defs>
<rect x="0" y="0" width="419" height="100" fill="none" />
<polygon points="0,92 4,92 8,92 12,92 17,92 21,92 26,92 30,92 35,92 39,92 44,92 48,92 52,92 56,92 61,92 65,92 69,92 73,92 78,92 82,92 86,92 91,92 95,92 99,92 103,92 107,92 111,92 116,92 120,92 125,92 129,92 133,92 138,92 142,92 146,92 150,92 154,92 159,92 163,92 167,92 171,92 175,92 179,92 184,92 188,92 193,92 197,92 202,92 206,92 210,92 215,92 219,92 223,92 228,92 232,92 237,92 241,92 245,91 249,91 254,91 258,91 262,91 267,91 271,91 275,91 279,90 283,90 288,90 292,90 296,90 300,90 304,90 309,90 313,90 317,90 322,90 326,90 331,90 335,90 340,90 344,90 348,90 353,91 357,91 361,91 365,91 369,91 374,91 378,91 383,91 387,90 391,90 395,90 400,91 404,91 408,91 413,91 417,91 419,91 419,100 0,100" fill="url(#grad)" stroke="none" />
<polyline points="0,92 4,92 8,92 12,92 17,92 21,92 26,92 30,92 35,92 39,92 44,92 48,92 52,92 56,92 61,92 65,92 69,92 73,92 78,92 82,92 86,92 91,92 95,92 99,92 103,92 107,92 111,92 116,92 120,92 125,92 129,92 133,92 138,92 142,92 146,92 150,92 154,92 159,92 163,92 167,92 171,92 175,92 179,92 184,92 188,92 193,92 197,92 202,92 206,92 210,92 215,92 219,92 223,92 228,92 232,92 237,92 241,92 245,91 249,91 254,91 258,91 262,91 267,91 271,91 275,91 279,90 283,90 288,90 292,90 296,90 300,90 304,90 309,90 313,90 317,90 322,90 326,90 331,90 335,90 340,90 344,90 348,90 353,91 357,91 361,91 365,91 369,91 374,91 378,91 383,91 387,90 391,90 395,90 400,91 404,91 408,91 413,91 417,91 419,91" stroke="#2963da" fill="none" stroke-width="3" stroke-linejoin="round" stroke-linecap="round" />
</svg>