<svg width="419" height="100" viewBox="0 0 419 100" xmlns="http://www.w3.org/2000/svg" xmlns:xlink="http://www.w3.org/1999/xlink"><defs>
<linearGradient id="grad" x1="0%" y1="0%" x2="0%" y2="100%">
<stop offset="0%" stop-color="#2963da" stop-opacity="0.40"/>
<stop offset="100%" stop-color="#070720" stop-opacity="0.20"/>
</linearGradient>
</defs>
<rect x="0" y="0" width="419" height="100" fill="none" />
<polygon points="0,92 4,92 8,92 12,91 16,90 20,91 24,91 28,90 32,90 36,91 40,90 44,90 48,89 52,86 56,81 60,77 64,77 68,78 72,79 76,81 80,83 84,87 88,90 92,92 97,92 101,92 105,92 109,92 113,92 117,92 121,92 125,90 129,91 133,90 137,90 141,90 145,89 149,87 153,81 157,75 161,70 165,68 169,73 173,74 177,79 181,86 185,89 189,90 194,90 198,89 202,84 206,80 210,85 214,90 218,89 222,89 226,91 230,91 234,90 238,91 242,91 246,90 250,91 254,92 258,92 262,92 266,92 270,91 274,92 278,92 282,91 286,85 291,81 295,76 299,77 303,83 307,85 311,90 315,92 319,92 323,92 327,92 331,87 335,78 339,75 343,74 347,76 351,79 355,83 359,88 363,91 367,92 371,92 375,92 379,91 383,92 387,92 392,92 396,92 400,91 404,83 408,85 412,91 416,92 419,92 419,100 0,100" fill="url(#grad)" stroke="none" />
<polyline points="0,92 4,92 8,92 12,91 16,90 20,91 24,91 28,90 32,90 36,91 40,90 44,90 48,89 52,86 56,81 60,77 64,77 68,78 72,79 76,81 80,83 84,87 88,90 92,92 97,92 101,92 105,92 109,92 113,92 117,92 121,92 125,90 129,91 133,90 137,90 141,90 145,89 149,87 153,81 157,75 161,70 165,68 169,73 173,74 177,79 181,86 185,89 189,90 194,90 198,89 202,84 206,80 210,85 214,90 218,89 222,89 226,91 230,91 234,90 238,91 242,91 246,90 250,91 254,92 258,92 262,92 266,92 270,91 274,92 278,92 282,91 286,85 291,81 295,76 299,77 303,83 307,85 311,90 315,92 319,92 323,92 327,92 331,87 335,78 339,75 343,74 347,76 351,79 355,83 359,88 363,91 367,92 371,92 375,92 379,91 383,92 387,92 392,92 396,92 400,91 404,83 408,85 412,91 416,92 419,92" stroke="#2963da" fill="none" stroke-width="3" stroke-linejoin="round" stroke-linecap="round" />
</svg>