<svg width="419" height="100" viewBox="0 0 419 100" xmlns="http://www.w3.org/2000/svg" xmlns:xlink="http://www.w3.org/1999/xlink"><defs>
<linearGradient id="grad" x1="0%" y1="0%" x2="0%" y2="100%">
<stop offset="0%" stop-color="#2963da" stop-opacity="0.40"/>
<stop offset="100%" stop-color="#070720" stop-opacity="0.20"/>
</linearGradient>
</defs>
<rect x="0" y="0" width="419" height="100" fill="none" />
<polygon points="0,92 5,92 9,92 14,92 19,92 23,92 27,87 31,87 36,87 40,87 44,87 48,86 52,86 56,87 61,87 65,90 69,90 73,88 77,87 81,87 85,87 90,87 94,87 98,90 102,90 106,90 110,90 114,90 118,88 123,86 127,86 131,86 135,86 139,84 143,84 147,84 151,84 155,84 160,84 164,84 168,84 172,86 176,86 180,86 184,86 188,86 193,88 197,88 201,88 205,88 209,85 213,85 217,85 221,85 225,86 230,86 234,86 238,86 242,86 246,87 250,87 254,87 258,87 262,84 267,84 271,86 275,87 279,86 283,86 287,86 291,86 296,88 300,88 304,88 308,88 312,88 316,87 320,87 325,87 329,87 333,87 337,92 341,92 345,90 349,87 353,91 358,92 362,92 366,92 370,92 374,92 378,92 382,91 386,91 390,91 394,91 399,91 403,91 407,91 411,92 415,92 419,91 419,100 0,100" fill="url(#grad)" stroke="none" />
<polyline points="0,92 5,92 9,92 14,92 19,92 23,92 27,87 31,87 36,87 40,87 44,87 48,86 52,86 56,87 61,87 65,90 69,90 73,88 77,87 81,87 85,87 90,87 94,87 98,90 102,90 106,90 110,90 114,90 118,88 123,86 127,86 131,86 135,86 139,84 143,84 147,84 151,84 155,84 160,84 164,84 168,84 172,86 176,86 180,86 184,86 188,86 193,88 197,88 201,88 205,88 209,85 213,85 217,85 221,85 225,86 230,86 234,86 238,86 242,86 246,87 250,87 254,87 258,87 262,84 267,84 271,86 275,87 279,86 283,86 287,86 291,86 296,88 300,88 304,88 308,88 312,88 316,87 320,87 325,87 329,87 333,87 337,92 341,92 345,90 349,87 353,91 358,92 362,92 366,92 370,92 374,92 378,92 382,91 386,91 390,91 394,91 399,91 403,91 407,91 411,92 415,92 419,91" stroke="#2963da" fill="none" stroke-width="3" stroke-linejoin="round" stroke-linecap="round" />
</svg>