<svg width="419" height="100" viewBox="0 0 419 100" xmlns="http://www.w3.org/2000/svg" xmlns:xlink="http://www.w3.org/1999/xlink"><defs>
<linearGradient id="grad" x1="0%" y1="0%" x2="0%" y2="100%">
<stop offset="0%" stop-color="#2963da" stop-opacity="0.40"/>
<stop offset="100%" stop-color="#070720" stop-opacity="0.20"/>
</linearGradient>
</defs>
<rect x="0" y="0" width="419" height="100" fill="none" />
<polygon points="0,92 4,92 8,91 12,91 16,91 20,90 24,88 28,84 32,80 36,79 40,80 44,81 48,81 52,78 56,75 60,73 65,74 69,75 73,75 77,78 81,82 85,84 89,88 93,89 97,89 101,88 105,87 109,87 113,86 118,85 122,83 126,82 130,82 134,82 138,81 142,80 146,79 150,77 154,77 158,75 162,73 166,70 170,70 175,71 179,68 183,64 187,60 191,55 195,54 199,55 203,58 207,61 211,64 215,67 219,70 223,73 227,76 231,77 236,80 240,78 244,82 248,85 252,87 256,88 260,88 264,87 268,86 272,81 276,78 280,74 284,71 289,70 293,72 297,75 301,78 305,79 309,78 313,75 318,74 322,75 326,77 330,78 334,81 338,85 342,88 346,90 350,91 354,91 358,88 363,83 367,80 371,83 375,86 379,89 383,91 387,91 392,91 396,90 400,90 404,92 408,92 412,92 416,92 419,92 419,100 0,100" fill="url(#grad)" stroke="none" />
<polyline points="0,92 4,92 8,91 12,91 16,91 20,90 24,88 28,84 32,80 36,79 40,80 44,81 48,81 52,78 56,75 60,73 65,74 69,75 73,75 77,78 81,82 85,84 89,88 93,89 97,89 101,88 105,87 109,87 113,86 118,85 122,83 126,82 130,82 134,82 138,81 142,80 146,79 150,77 154,77 158,75 162,73 166,70 170,70 175,71 179,68 183,64 187,60 191,55 195,54 199,55 203,58 207,61 211,64 215,67 219,70 223,73 227,76 231,77 236,80 240,78 244,82 248,85 252,87 256,88 260,88 264,87 268,86 272,81 276,78 280,74 284,71 289,70 293,72 297,75 301,78 305,79 309,78 313,75 318,74 322,75 326,77 330,78 334,81 338,85 342,88 346,90 350,91 354,91 358,88 363,83 367,80 371,83 375,86 379,89 383,91 387,91 392,91 396,90 400,90 404,92 408,92 412,92 416,92 419,92" stroke="#2963da" fill="none" stroke-width="3" stroke-linejoin="round" stroke-linecap="round" />
</svg>