<svg width="419" height="100" viewBox="0 0 419 100" xmlns="http://www.w3.org/2000/svg" xmlns:xlink="http://www.w3.org/1999/xlink"><defs>
<linearGradient id="grad" x1="0%" y1="0%" x2="0%" y2="100%">
<stop offset="0%" stop-color="#2963da" stop-opacity="0.40"/>
<stop offset="100%" stop-color="#070720" stop-opacity="0.20"/>
</linearGradient>
</defs>
<rect x="0" y="0" width="419" height="100" fill="none" />
<polygon points="0,87 4,89 9,90 15,91 20,92 24,92 28,92 33,92 37,92 42,92 46,92 50,92 55,92 59,92 66,92 71,91 75,91 81,91 86,91 92,90 97,90 101,91 105,90 109,91 114,89 120,88 124,89 130,89 134,90 139,90 145,90 153,90 162,89 166,87 171,89 176,91 188,92 193,92 198,92 208,92 212,92 216,92 220,92 225,92 229,92 234,92 241,91 247,91 252,91 257,90 262,90 267,91 271,90 276,90 282,90 288,89 292,87 297,89 303,90 310,92 314,92 319,92 325,92 334,92 339,92 343,92 347,92 351,92 356,92 361,92 368,91 374,91 379,91 384,90 389,90 393,91 398,90 403,90 409,90 415,89 419,87 419,100 0,100" fill="url(#grad)" stroke="none" />
<polyline points="0,87 4,89 9,90 15,91 20,92 24,92 28,92 33,92 37,92 42,92 46,92 50,92 55,92 59,92 66,92 71,91 75,91 81,91 86,91 92,90 97,90 101,91 105,90 109,91 114,89 120,88 124,89 130,89 134,90 139,90 145,90 153,90 162,89 166,87 171,89 176,91 188,92 193,92 198,92 208,92 212,92 216,92 220,92 225,92 229,92 234,92 241,91 247,91 252,91 257,90 262,90 267,91 271,90 276,90 282,90 288,89 292,87 297,89 303,90 310,92 314,92 319,92 325,92 334,92 339,92 343,92 347,92 351,92 356,92 361,92 368,91 374,91 379,91 384,90 389,90 393,91 398,90 403,90 409,90 415,89 419,87" stroke="#2963da" fill="none" stroke-width="3" stroke-linejoin="round" stroke-linecap="round" />
</svg>