<svg width="419" height="100" viewBox="0 0 419 100" xmlns="http://www.w3.org/2000/svg" xmlns:xlink="http://www.w3.org/1999/xlink"><defs>
<linearGradient id="grad" x1="0%" y1="0%" x2="0%" y2="100%">
<stop offset="0%" stop-color="#2963da" stop-opacity="0.40"/>
<stop offset="100%" stop-color="#070720" stop-opacity="0.20"/>
</linearGradient>
</defs>
<rect x="0" y="0" width="419" height="100" fill="none" />
<polygon points="0,92 4,92 8,92 12,92 17,91 21,90 25,86 29,82 33,78 37,76 41,79 46,82 50,82 54,84 58,86 62,88 66,89 70,88 74,87 78,84 82,80 87,78 91,77 95,76 100,76 104,75 108,75 112,74 116,72 120,68 124,70 128,73 132,76 136,79 140,83 145,87 149,88 153,88 157,88 161,89 166,89 170,89 174,90 178,90 183,89 187,90 191,90 195,89 199,89 203,91 207,89 211,85 215,82 219,79 224,77 228,80 232,81 236,82 240,85 244,85 248,83 252,83 256,81 260,77 264,81 268,83 272,85 277,87 281,86 285,84 289,86 293,87 297,88 301,89 305,89 309,89 313,90 318,91 322,89 326,89 330,90 334,90 338,90 342,90 346,88 350,83 354,78 358,74 362,69 366,64 370,62 375,65 379,69 383,69 387,71 391,76 395,80 399,81 403,83 407,84 411,84 415,82 419,78 419,100 0,100" fill="url(#grad)" stroke="none" />
<polyline points="0,92 4,92 8,92 12,92 17,91 21,90 25,86 29,82 33,78 37,76 41,79 46,82 50,82 54,84 58,86 62,88 66,89 70,88 74,87 78,84 82,80 87,78 91,77 95,76 100,76 104,75 108,75 112,74 116,72 120,68 124,70 128,73 132,76 136,79 140,83 145,87 149,88 153,88 157,88 161,89 166,89 170,89 174,90 178,90 183,89 187,90 191,90 195,89 199,89 203,91 207,89 211,85 215,82 219,79 224,77 228,80 232,81 236,82 240,85 244,85 248,83 252,83 256,81 260,77 264,81 268,83 272,85 277,87 281,86 285,84 289,86 293,87 297,88 301,89 305,89 309,89 313,90 318,91 322,89 326,89 330,90 334,90 338,90 342,90 346,88 350,83 354,78 358,74 362,69 366,64 370,62 375,65 379,69 383,69 387,71 391,76 395,80 399,81 403,83 407,84 411,84 415,82 419,78" stroke="#2963da" fill="none" stroke-width="3" stroke-linejoin="round" stroke-linecap="round" />
</svg>