<svg width="419" height="100" viewBox="0 0 419 100" xmlns="http://www.w3.org/2000/svg" xmlns:xlink="http://www.w3.org/1999/xlink"><defs>
<linearGradient id="grad" x1="0%" y1="0%" x2="0%" y2="100%">
<stop offset="0%" stop-color="#2963da" stop-opacity="0.40"/>
<stop offset="100%" stop-color="#070720" stop-opacity="0.20"/>
</linearGradient>
</defs>
<rect x="0" y="0" width="419" height="100" fill="none" />
<polygon points="0,92 4,92 8,91 12,91 16,90 20,90 24,89 28,88 32,88 36,85 40,82 44,81 48,79 52,77 56,76 60,77 64,79 68,77 72,77 76,78 80,81 85,82 89,84 93,88 97,90 101,89 105,89 109,89 113,89 117,89 121,87 125,83 129,82 133,80 137,83 141,87 145,84 149,81 153,80 157,79 161,79 165,78 170,78 174,76 178,76 182,76 186,75 190,74 194,71 198,65 202,64 206,66 210,70 214,73 218,75 222,75 226,76 230,77 234,76 238,75 242,77 246,79 250,78 255,77 259,73 263,69 267,67 271,67 275,66 279,66 283,68 287,70 291,69 295,69 299,71 303,72 307,69 311,69 315,69 319,68 323,66 327,64 331,65 335,64 340,64 344,63 348,62 352,61 356,62 360,65 364,68 368,70 372,72 376,72 380,69 384,71 388,72 392,72 396,73 400,72 404,72 408,73 412,74 417,75 419,73 419,100 0,100" fill="url(#grad)" stroke="none" />
<polyline points="0,92 4,92 8,91 12,91 16,90 20,90 24,89 28,88 32,88 36,85 40,82 44,81 48,79 52,77 56,76 60,77 64,79 68,77 72,77 76,78 80,81 85,82 89,84 93,88 97,90 101,89 105,89 109,89 113,89 117,89 121,87 125,83 129,82 133,80 137,83 141,87 145,84 149,81 153,80 157,79 161,79 165,78 170,78 174,76 178,76 182,76 186,75 190,74 194,71 198,65 202,64 206,66 210,70 214,73 218,75 222,75 226,76 230,77 234,76 238,75 242,77 246,79 250,78 255,77 259,73 263,69 267,67 271,67 275,66 279,66 283,68 287,70 291,69 295,69 299,71 303,72 307,69 311,69 315,69 319,68 323,66 327,64 331,65 335,64 340,64 344,63 348,62 352,61 356,62 360,65 364,68 368,70 372,72 376,72 380,69 384,71 388,72 392,72 396,73 400,72 404,72 408,73 412,74 417,75 419,73" stroke="#2963da" fill="none" stroke-width="3" stroke-linejoin="round" stroke-linecap="round" />
</svg>