<svg width="419" height="100" viewBox="0 0 419 100" xmlns="http://www.w3.org/2000/svg" xmlns:xlink="http://www.w3.org/1999/xlink"><defs>
<linearGradient id="grad" x1="0%" y1="0%" x2="0%" y2="100%">
<stop offset="0%" stop-color="#2963da" stop-opacity="0.40"/>
<stop offset="100%" stop-color="#070720" stop-opacity="0.20"/>
</linearGradient>
</defs>
<rect x="0" y="0" width="419" height="100" fill="none" />
<polygon points="0,92 4,92 8,92 12,90 16,89 20,87 24,85 28,86 32,85 36,85 40,87 44,90 48,91 53,90 57,87 61,87 65,89 69,88 73,85 77,82 81,82 85,83 89,85 93,87 97,90 101,88 105,87 109,85 113,82 118,79 122,77 126,76 130,76 134,78 138,76 142,77 146,80 150,82 154,85 158,89 162,89 166,89 170,88 175,88 179,86 183,81 187,81 191,82 195,87 199,83 203,80 207,79 211,78 215,77 219,76 223,75 227,76 232,74 236,74 240,68 244,63 248,65 252,70 256,72 260,75 264,75 268,76 272,75 276,75 280,78 284,77 288,75 292,70 296,67 300,66 304,65 309,66 313,70 317,69 321,69 325,70 329,70 333,68 337,68 341,67 345,64 349,64 353,64 357,63 361,61 365,61 369,64 374,67 378,70 382,72 386,69 390,70 394,71 398,72 402,72 406,71 410,73 414,74 418,73 419,73 419,100 0,100" fill="url(#grad)" stroke="none" />
<polyline points="0,92 4,92 8,92 12,90 16,89 20,87 24,85 28,86 32,85 36,85 40,87 44,90 48,91 53,90 57,87 61,87 65,89 69,88 73,85 77,82 81,82 85,83 89,85 93,87 97,90 101,88 105,87 109,85 113,82 118,79 122,77 126,76 130,76 134,78 138,76 142,77 146,80 150,82 154,85 158,89 162,89 166,89 170,88 175,88 179,86 183,81 187,81 191,82 195,87 199,83 203,80 207,79 211,78 215,77 219,76 223,75 227,76 232,74 236,74 240,68 244,63 248,65 252,70 256,72 260,75 264,75 268,76 272,75 276,75 280,78 284,77 288,75 292,70 296,67 300,66 304,65 309,66 313,70 317,69 321,69 325,70 329,70 333,68 337,68 341,67 345,64 349,64 353,64 357,63 361,61 365,61 369,64 374,67 378,70 382,72 386,69 390,70 394,71 398,72 402,72 406,71 410,73 414,74 418,73 419,73" stroke="#2963da" fill="none" stroke-width="3" stroke-linejoin="round" stroke-linecap="round" />
</svg>