<svg width="419" height="100" viewBox="0 0 419 100" xmlns="http://www.w3.org/2000/svg" xmlns:xlink="http://www.w3.org/1999/xlink"><defs>
<linearGradient id="grad" x1="0%" y1="0%" x2="0%" y2="100%">
<stop offset="0%" stop-color="#2963da" stop-opacity="0.40"/>
<stop offset="100%" stop-color="#070720" stop-opacity="0.20"/>
</linearGradient>
</defs>
<rect x="0" y="0" width="419" height="100" fill="none" />
<polygon points="0,92 4,92 8,92 12,91 16,91 20,90 24,90 28,90 32,91 36,90 40,90 44,90 48,90 52,90 56,91 60,92 65,92 69,92 73,92 77,92 81,91 85,90 89,91 93,90 97,91 101,90 105,90 109,90 113,89 117,89 122,91 126,91 130,91 134,90 138,90 142,90 146,89 150,90 154,90 158,90 162,90 166,90 170,91 174,89 179,89 183,89 187,89 191,88 195,88 199,87 203,87 207,87 211,87 215,86 219,86 223,86 228,86 232,85 236,85 240,85 244,85 248,85 252,84 256,83 260,82 264,81 269,82 273,81 277,80 281,80 285,80 289,81 293,82 297,82 301,83 305,84 309,83 313,82 318,83 322,82 326,81 330,80 334,78 338,76 342,76 346,77 350,80 354,80 358,77 362,74 366,74 370,77 374,77 378,77 382,77 386,76 390,76 395,75 399,73 403,70 407,71 411,76 415,77 419,77 419,100 0,100" fill="url(#grad)" stroke="none" />
<polyline points="0,92 4,92 8,92 12,91 16,91 20,90 24,90 28,90 32,91 36,90 40,90 44,90 48,90 52,90 56,91 60,92 65,92 69,92 73,92 77,92 81,91 85,90 89,91 93,90 97,91 101,90 105,90 109,90 113,89 117,89 122,91 126,91 130,91 134,90 138,90 142,90 146,89 150,90 154,90 158,90 162,90 166,90 170,91 174,89 179,89 183,89 187,89 191,88 195,88 199,87 203,87 207,87 211,87 215,86 219,86 223,86 228,86 232,85 236,85 240,85 244,85 248,85 252,84 256,83 260,82 264,81 269,82 273,81 277,80 281,80 285,80 289,81 293,82 297,82 301,83 305,84 309,83 313,82 318,83 322,82 326,81 330,80 334,78 338,76 342,76 346,77 350,80 354,80 358,77 362,74 366,74 370,77 374,77 378,77 382,77 386,76 390,76 395,75 399,73 403,70 407,71 411,76 415,77 419,77" stroke="#2963da" fill="none" stroke-width="3" stroke-linejoin="round" stroke-linecap="round" />
</svg>