<svg width="419" height="100" viewBox="0 0 419 100" xmlns="http://www.w3.org/2000/svg" xmlns:xlink="http://www.w3.org/1999/xlink"><defs>
<linearGradient id="grad" x1="0%" y1="0%" x2="0%" y2="100%">
<stop offset="0%" stop-color="#2963da" stop-opacity="0.40"/>
<stop offset="100%" stop-color="#070720" stop-opacity="0.20"/>
</linearGradient>
</defs>
<rect x="0" y="0" width="419" height="100" fill="none" />
<polygon points="0,92 4,87 8,90 12,90 16,91 20,90 24,92 28,87 32,90 36,90 40,91 45,90 49,92 53,87 57,90 61,90 65,91 69,90 73,92 78,87 82,90 86,90 90,91 94,90 98,92 102,87 106,90 110,90 114,91 118,90 123,92 127,87 131,90 135,90 139,91 143,90 147,92 151,87 156,90 160,90 164,91 168,90 172,92 176,87 180,90 184,90 188,91 192,90 197,92 201,87 205,90 209,90 213,91 217,90 221,92 225,87 230,90 234,90 238,91 242,90 246,92 250,87 254,90 258,90 262,91 266,90 271,92 275,87 279,90 283,90 287,91 291,90 295,92 299,87 303,90 308,90 312,91 316,90 320,92 324,87 328,90 332,90 336,91 340,90 345,92 349,87 353,90 357,90 361,91 365,90 369,92 373,87 377,90 381,90 385,91 390,90 394,92 398,87 402,90 406,90 410,91 414,90 418,92 419,92 419,100 0,100" fill="url(#grad)" stroke="none" />
<polyline points="0,92 4,87 8,90 12,90 16,91 20,90 24,92 28,87 32,90 36,90 40,91 45,90 49,92 53,87 57,90 61,90 65,91 69,90 73,92 78,87 82,90 86,90 90,91 94,90 98,92 102,87 106,90 110,90 114,91 118,90 123,92 127,87 131,90 135,90 139,91 143,90 147,92 151,87 156,90 160,90 164,91 168,90 172,92 176,87 180,90 184,90 188,91 192,90 197,92 201,87 205,90 209,90 213,91 217,90 221,92 225,87 230,90 234,90 238,91 242,90 246,92 250,87 254,90 258,90 262,91 266,90 271,92 275,87 279,90 283,90 287,91 291,90 295,92 299,87 303,90 308,90 312,91 316,90 320,92 324,87 328,90 332,90 336,91 340,90 345,92 349,87 353,90 357,90 361,91 365,90 369,92 373,87 377,90 381,90 385,91 390,90 394,92 398,87 402,90 406,90 410,91 414,90 418,92 419,92" stroke="#2963da" fill="none" stroke-width="3" stroke-linejoin="round" stroke-linecap="round" />
</svg>