<svg width="419" height="100" viewBox="0 0 419 100" xmlns="http://www.w3.org/2000/svg" xmlns:xlink="http://www.w3.org/1999/xlink"><defs>
<linearGradient id="grad" x1="0%" y1="0%" x2="0%" y2="100%">
<stop offset="0%" stop-color="#2963da" stop-opacity="0.40"/>
<stop offset="100%" stop-color="#070720" stop-opacity="0.20"/>
</linearGradient>
</defs>
<rect x="0" y="0" width="419" height="100" fill="none" />
<polygon points="0,92 4,92 9,92 13,92 18,92 23,92 29,92 33,92 40,92 44,92 50,92 54,92 58,92 62,92 67,92 71,92 75,92 80,92 84,92 88,92 92,92 96,92 101,92 106,91 110,91 115,91 119,90 123,90 127,91 131,90 136,90 140,90 144,90 149,90 153,90 157,90 161,89 165,89 169,88 173,89 178,89 182,86 186,83 190,79 194,75 198,72 202,69 206,67 210,64 215,63 219,62 223,63 227,64 231,66 235,69 239,72 243,75 247,78 251,81 255,84 259,85 264,85 268,86 272,87 276,87 280,87 284,87 289,87 293,85 297,85 301,88 305,88 309,88 313,87 317,86 322,82 326,80 330,77 334,76 338,79 342,81 346,85 350,86 354,88 358,88 362,88 366,88 370,87 374,86 378,82 383,81 387,77 391,76 395,78 399,80 403,84 407,86 411,87 415,88 419,88 419,100 0,100" fill="url(#grad)" stroke="none" />
<polyline points="0,92 4,92 9,92 13,92 18,92 23,92 29,92 33,92 40,92 44,92 50,92 54,92 58,92 62,92 67,92 71,92 75,92 80,92 84,92 88,92 92,92 96,92 101,92 106,91 110,91 115,91 119,90 123,90 127,91 131,90 136,90 140,90 144,90 149,90 153,90 157,90 161,89 165,89 169,88 173,89 178,89 182,86 186,83 190,79 194,75 198,72 202,69 206,67 210,64 215,63 219,62 223,63 227,64 231,66 235,69 239,72 243,75 247,78 251,81 255,84 259,85 264,85 268,86 272,87 276,87 280,87 284,87 289,87 293,85 297,85 301,88 305,88 309,88 313,87 317,86 322,82 326,80 330,77 334,76 338,79 342,81 346,85 350,86 354,88 358,88 362,88 366,88 370,87 374,86 378,82 383,81 387,77 391,76 395,78 399,80 403,84 407,86 411,87 415,88 419,88" stroke="#2963da" fill="none" stroke-width="3" stroke-linejoin="round" stroke-linecap="round" />
</svg>