<svg width="419" height="100" viewBox="0 0 419 100" xmlns="http://www.w3.org/2000/svg" xmlns:xlink="http://www.w3.org/1999/xlink"><defs>
<linearGradient id="grad" x1="0%" y1="0%" x2="0%" y2="100%">
<stop offset="0%" stop-color="#2963da" stop-opacity="0.40"/>
<stop offset="100%" stop-color="#070720" stop-opacity="0.20"/>
</linearGradient>
</defs>
<rect x="0" y="0" width="419" height="100" fill="none" />
<polygon points="0,92 4,92 8,92 12,92 16,92 20,92 25,92 29,92 33,92 37,92 41,92 45,92 49,92 53,92 57,92 62,92 66,92 70,92 74,92 78,92 82,92 86,92 90,92 95,92 99,92 103,92 107,92 111,92 116,92 120,92 124,92 128,92 132,92 136,92 140,92 144,92 149,92 153,92 157,92 161,92 165,92 169,92 173,92 177,92 182,92 186,92 190,92 194,92 198,92 203,92 207,92 211,92 215,92 220,92 224,92 228,92 232,92 236,92 240,92 244,92 248,92 253,92 257,92 261,92 265,92 269,92 274,92 278,92 282,92 286,92 290,92 294,92 298,92 302,92 306,92 311,92 315,92 319,92 323,92 327,92 331,92 336,92 340,92 344,92 348,92 352,92 356,92 360,92 365,92 369,92 373,92 377,92 381,92 385,92 389,92 393,92 398,92 402,92 406,92 410,92 414,92 418,92 419,92 419,100 0,100" fill="url(#grad)" stroke="none" />
<polyline points="0,92 4,92 8,92 12,92 16,92 20,92 25,92 29,92 33,92 37,92 41,92 45,92 49,92 53,92 57,92 62,92 66,92 70,92 74,92 78,92 82,92 86,92 90,92 95,92 99,92 103,92 107,92 111,92 116,92 120,92 124,92 128,92 132,92 136,92 140,92 144,92 149,92 153,92 157,92 161,92 165,92 169,92 173,92 177,92 182,92 186,92 190,92 194,92 198,92 203,92 207,92 211,92 215,92 220,92 224,92 228,92 232,92 236,92 240,92 244,92 248,92 253,92 257,92 261,92 265,92 269,92 274,92 278,92 282,92 286,92 290,92 294,92 298,92 302,92 306,92 311,92 315,92 319,92 323,92 327,92 331,92 336,92 340,92 344,92 348,92 352,92 356,92 360,92 365,92 369,92 373,92 377,92 381,92 385,92 389,92 393,92 398,92 402,92 406,92 410,92 414,92 418,92 419,92" stroke="#2963da" fill="none" stroke-width="3" stroke-linejoin="round" stroke-linecap="round" />
</svg>