<svg width="419" height="100" viewBox="0 0 419 100" xmlns="http://www.w3.org/2000/svg" xmlns:xlink="http://www.w3.org/1999/xlink"><defs>
<linearGradient id="grad" x1="0%" y1="0%" x2="0%" y2="100%">
<stop offset="0%" stop-color="#2963da" stop-opacity="0.40"/>
<stop offset="100%" stop-color="#070720" stop-opacity="0.20"/>
</linearGradient>
</defs>
<rect x="0" y="0" width="419" height="100" fill="none" />
<polygon points="0,92 5,92 9,92 14,92 18,92 24,91 28,91 33,91 37,92 41,92 45,92 50,92 54,92 58,92 62,92 66,92 71,92 75,92 79,92 83,92 87,92 92,92 96,92 101,92 106,92 110,92 114,92 121,92 125,92 129,92 133,92 138,92 143,92 147,92 151,92 156,92 161,92 166,92 170,92 175,92 181,92 186,92 191,92 195,92 200,92 204,92 209,92 213,92 217,92 222,92 226,92 230,92 234,92 238,92 242,92 247,92 251,92 256,92 260,92 264,92 269,92 273,92 277,92 281,92 286,92 290,92 294,92 299,92 303,92 308,92 313,92 317,92 321,92 325,92 331,92 336,92 340,92 344,92 350,92 356,92 361,92 365,92 369,92 374,92 378,92 382,92 386,92 391,92 395,92 399,92 404,92 408,92 412,92 416,92 419,92 419,100 0,100" fill="url(#grad)" stroke="none" />
<polyline points="0,92 5,92 9,92 14,92 18,92 24,91 28,91 33,91 37,92 41,92 45,92 50,92 54,92 58,92 62,92 66,92 71,92 75,92 79,92 83,92 87,92 92,92 96,92 101,92 106,92 110,92 114,92 121,92 125,92 129,92 133,92 138,92 143,92 147,92 151,92 156,92 161,92 166,92 170,92 175,92 181,92 186,92 191,92 195,92 200,92 204,92 209,92 213,92 217,92 222,92 226,92 230,92 234,92 238,92 242,92 247,92 251,92 256,92 260,92 264,92 269,92 273,92 277,92 281,92 286,92 290,92 294,92 299,92 303,92 308,92 313,92 317,92 321,92 325,92 331,92 336,92 340,92 344,92 350,92 356,92 361,92 365,92 369,92 374,92 378,92 382,92 386,92 391,92 395,92 399,92 404,92 408,92 412,92 416,92 419,92" stroke="#2963da" fill="none" stroke-width="3" stroke-linejoin="round" stroke-linecap="round" />
</svg>