<svg width="419" height="100" viewBox="0 0 419 100" xmlns="http://www.w3.org/2000/svg" xmlns:xlink="http://www.w3.org/1999/xlink"><defs>
<linearGradient id="grad" x1="0%" y1="0%" x2="0%" y2="100%">
<stop offset="0%" stop-color="#2963da" stop-opacity="0.40"/>
<stop offset="100%" stop-color="#070720" stop-opacity="0.20"/>
</linearGradient>
</defs>
<rect x="0" y="0" width="419" height="100" fill="none" />
<polygon points="0,86 4,87 8,87 12,87 16,87 20,86 24,85 28,85 32,85 37,85 41,84 45,84 49,87 53,91 57,90 61,90 65,90 70,90 74,90 78,90 82,90 86,90 90,90 94,90 98,90 103,91 107,90 111,90 115,90 119,91 123,90 128,91 132,90 136,91 140,91 144,91 148,90 152,90 156,90 161,90 165,90 169,90 173,91 177,91 181,90 185,90 190,89 194,89 198,89 202,90 206,91 210,90 214,89 218,89 222,90 226,90 230,90 234,89 239,90 243,90 247,89 251,91 255,91 259,91 263,91 267,92 272,92 276,92 280,92 284,92 288,92 292,92 296,92 300,92 305,92 309,92 313,92 317,92 321,92 325,92 329,92 333,92 337,92 341,92 345,92 350,92 354,92 358,92 362,92 366,92 370,92 374,92 379,92 383,92 387,92 391,92 395,92 399,92 403,92 408,92 412,92 416,92 419,92 419,100 0,100" fill="url(#grad)" stroke="none" />
<polyline points="0,86 4,87 8,87 12,87 16,87 20,86 24,85 28,85 32,85 37,85 41,84 45,84 49,87 53,91 57,90 61,90 65,90 70,90 74,90 78,90 82,90 86,90 90,90 94,90 98,90 103,91 107,90 111,90 115,90 119,91 123,90 128,91 132,90 136,91 140,91 144,91 148,90 152,90 156,90 161,90 165,90 169,90 173,91 177,91 181,90 185,90 190,89 194,89 198,89 202,90 206,91 210,90 214,89 218,89 222,90 226,90 230,90 234,89 239,90 243,90 247,89 251,91 255,91 259,91 263,91 267,92 272,92 276,92 280,92 284,92 288,92 292,92 296,92 300,92 305,92 309,92 313,92 317,92 321,92 325,92 329,92 333,92 337,92 341,92 345,92 350,92 354,92 358,92 362,92 366,92 370,92 374,92 379,92 383,92 387,92 391,92 395,92 399,92 403,92 408,92 412,92 416,92 419,92" stroke="#2963da" fill="none" stroke-width="3" stroke-linejoin="round" stroke-linecap="round" />
</svg>