<svg width="419" height="100" viewBox="0 0 419 100" xmlns="http://www.w3.org/2000/svg" xmlns:xlink="http://www.w3.org/1999/xlink"><defs>
<linearGradient id="grad" x1="0%" y1="0%" x2="0%" y2="100%">
<stop offset="0%" stop-color="#2963da" stop-opacity="0.40"/>
<stop offset="100%" stop-color="#070720" stop-opacity="0.20"/>
</linearGradient>
</defs>
<rect x="0" y="0" width="419" height="100" fill="none" />
<polygon points="0,90 4,89 8,90 12,90 16,90 20,90 24,89 28,89 32,89 36,89 40,88 44,88 48,87 52,87 56,86 61,86 65,85 69,84 73,84 77,83 81,86 85,88 89,88 93,89 97,89 101,90 105,91 109,91 113,91 118,91 122,91 126,91 130,90 134,91 138,91 142,91 146,91 150,91 154,91 158,88 162,88 166,91 170,91 174,90 179,90 183,90 187,89 191,88 195,88 199,87 203,84 207,85 211,88 215,89 219,90 223,90 227,90 231,91 235,90 240,88 244,86 248,90 252,91 256,91 260,91 264,91 268,91 272,91 276,91 280,91 285,91 289,91 293,91 297,91 301,90 305,91 309,91 313,91 317,91 321,91 325,90 329,86 333,89 337,89 341,92 346,92 350,92 354,92 358,92 362,92 366,92 370,92 374,92 378,92 382,92 387,92 391,92 395,92 399,92 403,92 407,92 411,92 415,92 419,92 419,100 0,100" fill="url(#grad)" stroke="none" />
<polyline points="0,90 4,89 8,90 12,90 16,90 20,90 24,89 28,89 32,89 36,89 40,88 44,88 48,87 52,87 56,86 61,86 65,85 69,84 73,84 77,83 81,86 85,88 89,88 93,89 97,89 101,90 105,91 109,91 113,91 118,91 122,91 126,91 130,90 134,91 138,91 142,91 146,91 150,91 154,91 158,88 162,88 166,91 170,91 174,90 179,90 183,90 187,89 191,88 195,88 199,87 203,84 207,85 211,88 215,89 219,90 223,90 227,90 231,91 235,90 240,88 244,86 248,90 252,91 256,91 260,91 264,91 268,91 272,91 276,91 280,91 285,91 289,91 293,91 297,91 301,90 305,91 309,91 313,91 317,91 321,91 325,90 329,86 333,89 337,89 341,92 346,92 350,92 354,92 358,92 362,92 366,92 370,92 374,92 378,92 382,92 387,92 391,92 395,92 399,92 403,92 407,92 411,92 415,92 419,92" stroke="#2963da" fill="none" stroke-width="3" stroke-linejoin="round" stroke-linecap="round" />
</svg>