<svg width="419" height="100" viewBox="0 0 419 100" xmlns="http://www.w3.org/2000/svg" xmlns:xlink="http://www.w3.org/1999/xlink"><defs>
<linearGradient id="grad" x1="0%" y1="0%" x2="0%" y2="100%">
<stop offset="0%" stop-color="#2963da" stop-opacity="0.40"/>
<stop offset="100%" stop-color="#070720" stop-opacity="0.20"/>
</linearGradient>
</defs>
<rect x="0" y="0" width="419" height="100" fill="none" />
<polygon points="0,88 4,87 8,88 12,88 16,87 20,84 24,82 28,78 32,76 36,77 40,79 44,84 48,86 52,87 56,88 60,89 64,90 68,90 72,90 76,91 80,88 84,86 88,89 93,91 97,92 101,92 105,91 109,90 113,87 117,88 121,88 125,88 129,90 133,92 137,88 141,85 145,86 149,89 153,90 157,91 161,91 165,90 169,92 173,91 177,90 182,90 186,92 190,91 194,92 198,91 202,92 206,92 210,91 214,91 218,92 222,91 226,92 230,92 234,92 238,91 242,92 246,91 250,88 254,88 258,84 263,81 267,85 271,88 275,92 279,92 283,92 287,90 291,86 295,88 299,90 303,89 307,90 311,91 315,91 319,91 323,91 327,90 331,89 335,89 339,89 343,87 347,85 352,81 356,82 360,84 364,87 368,86 372,88 376,90 380,92 384,92 388,92 392,91 396,88 400,87 404,86 408,88 412,89 416,90 419,90 419,100 0,100" fill="url(#grad)" stroke="none" />
<polyline points="0,88 4,87 8,88 12,88 16,87 20,84 24,82 28,78 32,76 36,77 40,79 44,84 48,86 52,87 56,88 60,89 64,90 68,90 72,90 76,91 80,88 84,86 88,89 93,91 97,92 101,92 105,91 109,90 113,87 117,88 121,88 125,88 129,90 133,92 137,88 141,85 145,86 149,89 153,90 157,91 161,91 165,90 169,92 173,91 177,90 182,90 186,92 190,91 194,92 198,91 202,92 206,92 210,91 214,91 218,92 222,91 226,92 230,92 234,92 238,91 242,92 246,91 250,88 254,88 258,84 263,81 267,85 271,88 275,92 279,92 283,92 287,90 291,86 295,88 299,90 303,89 307,90 311,91 315,91 319,91 323,91 327,90 331,89 335,89 339,89 343,87 347,85 352,81 356,82 360,84 364,87 368,86 372,88 376,90 380,92 384,92 388,92 392,91 396,88 400,87 404,86 408,88 412,89 416,90 419,90" stroke="#2963da" fill="none" stroke-width="3" stroke-linejoin="round" stroke-linecap="round" />
</svg>