<svg width="419" height="100" viewBox="0 0 419 100" xmlns="http://www.w3.org/2000/svg" xmlns:xlink="http://www.w3.org/1999/xlink"><defs>
<linearGradient id="grad" x1="0%" y1="0%" x2="0%" y2="100%">
<stop offset="0%" stop-color="#2963da" stop-opacity="0.40"/>
<stop offset="100%" stop-color="#070720" stop-opacity="0.20"/>
</linearGradient>
</defs>
<rect x="0" y="0" width="419" height="100" fill="none" />
<polygon points="0,91 4,90 8,90 13,90 17,91 21,92 25,92 29,92 33,92 37,92 41,92 45,92 49,92 53,92 57,92 62,92 66,92 70,92 74,92 78,92 83,92 87,92 91,92 95,92 99,92 103,92 107,92 111,92 115,92 120,92 124,92 128,92 132,91 136,91 141,92 145,92 149,92 153,92 157,92 161,91 165,90 169,90 173,90 177,90 182,90 186,90 190,91 194,92 198,91 202,90 206,91 211,92 215,91 219,91 224,91 228,91 232,89 236,89 240,90 245,91 249,91 253,91 257,91 261,89 265,90 269,89 273,89 278,92 282,91 286,92 290,90 294,90 298,92 303,92 307,92 311,90 315,92 319,91 323,91 328,90 332,90 336,89 340,89 344,90 349,90 353,88 357,88 361,88 365,90 369,92 373,92 377,89 381,89 385,92 390,92 394,92 398,92 402,92 406,92 410,92 415,92 419,92 419,100 0,100" fill="url(#grad)" stroke="none" />
<polyline points="0,91 4,90 8,90 13,90 17,91 21,92 25,92 29,92 33,92 37,92 41,92 45,92 49,92 53,92 57,92 62,92 66,92 70,92 74,92 78,92 83,92 87,92 91,92 95,92 99,92 103,92 107,92 111,92 115,92 120,92 124,92 128,92 132,91 136,91 141,92 145,92 149,92 153,92 157,92 161,91 165,90 169,90 173,90 177,90 182,90 186,90 190,91 194,92 198,91 202,90 206,91 211,92 215,91 219,91 224,91 228,91 232,89 236,89 240,90 245,91 249,91 253,91 257,91 261,89 265,90 269,89 273,89 278,92 282,91 286,92 290,90 294,90 298,92 303,92 307,92 311,90 315,92 319,91 323,91 328,90 332,90 336,89 340,89 344,90 349,90 353,88 357,88 361,88 365,90 369,92 373,92 377,89 381,89 385,92 390,92 394,92 398,92 402,92 406,92 410,92 415,92 419,92" stroke="#2963da" fill="none" stroke-width="3" stroke-linejoin="round" stroke-linecap="round" />
</svg>