<svg width="419" height="100" viewBox="0 0 419 100" xmlns="http://www.w3.org/2000/svg" xmlns:xlink="http://www.w3.org/1999/xlink"><defs>
<linearGradient id="grad" x1="0%" y1="0%" x2="0%" y2="100%">
<stop offset="0%" stop-color="#2963da" stop-opacity="0.40"/>
<stop offset="100%" stop-color="#070720" stop-opacity="0.20"/>
</linearGradient>
</defs>
<rect x="0" y="0" width="419" height="100" fill="none" />
<polygon points="0,89 4,89 8,89 12,89 16,89 20,89 24,90 28,90 32,90 36,90 40,90 44,90 48,90 52,90 57,89 61,89 65,89 69,89 73,89 77,88 81,87 85,86 89,87 93,87 97,88 101,88 106,88 110,88 114,88 118,87 122,87 126,86 130,85 134,86 138,86 142,87 146,88 150,87 155,86 159,86 163,86 167,86 171,85 175,84 179,81 183,81 187,80 191,79 195,78 199,75 204,75 208,80 212,86 216,91 220,92 224,92 228,92 232,92 236,92 240,90 244,92 248,92 252,92 256,92 261,92 265,92 269,92 273,92 277,91 281,92 285,92 289,92 293,92 297,92 301,92 305,92 309,92 314,92 318,92 322,92 326,92 330,91 334,92 338,92 342,90 346,92 350,90 354,92 359,92 363,88 367,92 371,92 375,92 379,92 383,87 387,84 391,90 395,92 399,92 403,92 407,89 411,88 416,92 419,92 419,100 0,100" fill="url(#grad)" stroke="none" />
<polyline points="0,89 4,89 8,89 12,89 16,89 20,89 24,90 28,90 32,90 36,90 40,90 44,90 48,90 52,90 57,89 61,89 65,89 69,89 73,89 77,88 81,87 85,86 89,87 93,87 97,88 101,88 106,88 110,88 114,88 118,87 122,87 126,86 130,85 134,86 138,86 142,87 146,88 150,87 155,86 159,86 163,86 167,86 171,85 175,84 179,81 183,81 187,80 191,79 195,78 199,75 204,75 208,80 212,86 216,91 220,92 224,92 228,92 232,92 236,92 240,90 244,92 248,92 252,92 256,92 261,92 265,92 269,92 273,92 277,91 281,92 285,92 289,92 293,92 297,92 301,92 305,92 309,92 314,92 318,92 322,92 326,92 330,91 334,92 338,92 342,90 346,92 350,90 354,92 359,92 363,88 367,92 371,92 375,92 379,92 383,87 387,84 391,90 395,92 399,92 403,92 407,89 411,88 416,92 419,92" stroke="#2963da" fill="none" stroke-width="3" stroke-linejoin="round" stroke-linecap="round" />
</svg>