<svg width="419" height="100" viewBox="0 0 419 100" xmlns="http://www.w3.org/2000/svg" xmlns:xlink="http://www.w3.org/1999/xlink"><defs>
<linearGradient id="grad" x1="0%" y1="0%" x2="0%" y2="100%">
<stop offset="0%" stop-color="#2963da" stop-opacity="0.40"/>
<stop offset="100%" stop-color="#070720" stop-opacity="0.20"/>
</linearGradient>
</defs>
<rect x="0" y="0" width="419" height="100" fill="none" />
<polygon points="0,92 4,91 8,91 12,90 16,88 21,85 25,83 29,80 33,77 37,78 41,81 45,83 49,84 53,84 57,81 62,78 66,74 70,76 74,80 78,83 82,86 86,89 90,91 94,90 98,87 102,87 107,88 111,89 115,88 119,88 123,88 127,88 131,87 135,84 139,79 143,74 147,69 151,67 155,72 160,75 164,77 168,79 172,81 176,80 180,80 184,77 188,77 192,78 196,79 202,80 206,81 210,80 214,80 218,80 222,80 227,80 231,82 235,81 239,81 243,80 247,82 251,81 255,80 259,79 263,78 267,77 272,76 276,74 280,70 284,66 288,61 292,56 296,55 300,59 304,65 308,69 312,74 316,77 320,80 324,79 328,81 332,82 336,85 341,86 345,87 349,88 354,88 359,87 363,86 367,85 371,83 375,83 379,82 383,80 387,79 391,75 395,71 399,67 404,61 408,56 412,50 416,42 419,39 419,100 0,100" fill="url(#grad)" stroke="none" />
<polyline points="0,92 4,91 8,91 12,90 16,88 21,85 25,83 29,80 33,77 37,78 41,81 45,83 49,84 53,84 57,81 62,78 66,74 70,76 74,80 78,83 82,86 86,89 90,91 94,90 98,87 102,87 107,88 111,89 115,88 119,88 123,88 127,88 131,87 135,84 139,79 143,74 147,69 151,67 155,72 160,75 164,77 168,79 172,81 176,80 180,80 184,77 188,77 192,78 196,79 202,80 206,81 210,80 214,80 218,80 222,80 227,80 231,82 235,81 239,81 243,80 247,82 251,81 255,80 259,79 263,78 267,77 272,76 276,74 280,70 284,66 288,61 292,56 296,55 300,59 304,65 308,69 312,74 316,77 320,80 324,79 328,81 332,82 336,85 341,86 345,87 349,88 354,88 359,87 363,86 367,85 371,83 375,83 379,82 383,80 387,79 391,75 395,71 399,67 404,61 408,56 412,50 416,42 419,39" stroke="#2963da" fill="none" stroke-width="3" stroke-linejoin="round" stroke-linecap="round" />
</svg>