<svg width="419" height="100" viewBox="0 0 419 100" xmlns="http://www.w3.org/2000/svg" xmlns:xlink="http://www.w3.org/1999/xlink"><defs>
<linearGradient id="grad" x1="0%" y1="0%" x2="0%" y2="100%">
<stop offset="0%" stop-color="#2963da" stop-opacity="0.40"/>
<stop offset="100%" stop-color="#070720" stop-opacity="0.20"/>
</linearGradient>
</defs>
<rect x="0" y="0" width="419" height="100" fill="none" />
<polygon points="0,92 4,91 8,90 12,90 16,89 20,89 24,89 28,89 32,91 37,92 41,92 45,92 49,91 53,91 57,91 62,91 66,90 70,89 74,89 78,88 83,88 87,88 92,88 96,87 100,86 104,85 108,85 113,83 117,84 121,83 125,82 130,81 134,79 138,78 142,77 147,76 151,79 155,80 159,80 163,78 167,76 171,72 175,71 179,70 183,72 187,75 191,79 195,79 199,81 204,81 208,82 212,83 216,83 220,83 224,84 228,84 232,85 236,83 241,85 245,88 249,88 253,88 257,89 262,89 267,90 271,90 275,90 279,87 283,87 288,85 292,86 296,85 300,82 304,80 308,81 312,84 316,87 320,87 324,87 328,88 332,89 337,90 341,90 345,89 349,89 353,89 357,88 361,89 365,88 369,88 374,88 378,87 383,88 387,88 391,88 395,88 399,88 403,89 407,89 412,89 416,89 419,89 419,100 0,100" fill="url(#grad)" stroke="none" />
<polyline points="0,92 4,91 8,90 12,90 16,89 20,89 24,89 28,89 32,91 37,92 41,92 45,92 49,91 53,91 57,91 62,91 66,90 70,89 74,89 78,88 83,88 87,88 92,88 96,87 100,86 104,85 108,85 113,83 117,84 121,83 125,82 130,81 134,79 138,78 142,77 147,76 151,79 155,80 159,80 163,78 167,76 171,72 175,71 179,70 183,72 187,75 191,79 195,79 199,81 204,81 208,82 212,83 216,83 220,83 224,84 228,84 232,85 236,83 241,85 245,88 249,88 253,88 257,89 262,89 267,90 271,90 275,90 279,87 283,87 288,85 292,86 296,85 300,82 304,80 308,81 312,84 316,87 320,87 324,87 328,88 332,89 337,90 341,90 345,89 349,89 353,89 357,88 361,89 365,88 369,88 374,88 378,87 383,88 387,88 391,88 395,88 399,88 403,89 407,89 412,89 416,89 419,89" stroke="#2963da" fill="none" stroke-width="3" stroke-linejoin="round" stroke-linecap="round" />
</svg>