<svg width="419" height="100" viewBox="0 0 419 100" xmlns="http://www.w3.org/2000/svg" xmlns:xlink="http://www.w3.org/1999/xlink"><defs>
<linearGradient id="grad" x1="0%" y1="0%" x2="0%" y2="100%">
<stop offset="0%" stop-color="#2963da" stop-opacity="0.40"/>
<stop offset="100%" stop-color="#070720" stop-opacity="0.20"/>
</linearGradient>
</defs>
<rect x="0" y="0" width="419" height="100" fill="none" />
<polygon points="0,92 4,92 9,92 13,92 17,92 22,92 26,92 30,92 35,92 39,92 43,92 48,92 53,92 57,92 62,92 66,92 73,92 79,91 83,91 87,91 91,91 96,91 102,91 108,91 113,91 118,91 124,92 129,91 133,91 137,92 142,92 147,92 151,92 155,92 160,92 165,92 169,92 177,92 187,92 192,92 199,92 206,92 216,92 221,92 226,92 231,92 239,92 243,92 247,92 251,92 255,92 260,92 264,92 268,91 272,91 279,91 289,91 293,91 297,91 304,91 309,91 313,92 317,92 321,92 326,92 330,92 335,92 341,92 346,92 353,92 358,92 364,92 369,91 374,91 378,91 382,91 386,91 390,91 394,91 399,91 403,91 409,91 413,91 418,91 419,91 419,100 0,100" fill="url(#grad)" stroke="none" />
<polyline points="0,92 4,92 9,92 13,92 17,92 22,92 26,92 30,92 35,92 39,92 43,92 48,92 53,92 57,92 62,92 66,92 73,92 79,91 83,91 87,91 91,91 96,91 102,91 108,91 113,91 118,91 124,92 129,91 133,91 137,92 142,92 147,92 151,92 155,92 160,92 165,92 169,92 177,92 187,92 192,92 199,92 206,92 216,92 221,92 226,92 231,92 239,92 243,92 247,92 251,92 255,92 260,92 264,92 268,91 272,91 279,91 289,91 293,91 297,91 304,91 309,91 313,92 317,92 321,92 326,92 330,92 335,92 341,92 346,92 353,92 358,92 364,92 369,91 374,91 378,91 382,91 386,91 390,91 394,91 399,91 403,91 409,91 413,91 418,91 419,91" stroke="#2963da" fill="none" stroke-width="3" stroke-linejoin="round" stroke-linecap="round" />
</svg>