<svg width="419" height="100" viewBox="0 0 419 100" xmlns="http://www.w3.org/2000/svg" xmlns:xlink="http://www.w3.org/1999/xlink"><defs>
<linearGradient id="grad" x1="0%" y1="0%" x2="0%" y2="100%">
<stop offset="0%" stop-color="#2963da" stop-opacity="0.40"/>
<stop offset="100%" stop-color="#070720" stop-opacity="0.20"/>
</linearGradient>
</defs>
<rect x="0" y="0" width="419" height="100" fill="none" />
<polygon points="0,92 4,92 8,92 12,92 16,92 20,92 24,91 28,92 32,92 36,92 40,92 44,91 49,92 53,91 57,89 61,90 65,90 69,89 73,91 77,89 81,88 85,86 89,89 93,87 97,89 101,90 106,90 110,87 114,88 118,89 122,89 126,89 130,89 134,89 138,88 142,88 146,86 150,87 154,88 158,90 162,90 166,86 170,87 174,88 178,85 182,86 186,87 191,87 195,82 199,84 203,85 207,87 211,83 215,86 219,90 223,86 227,88 231,90 235,90 239,91 243,89 247,87 251,88 255,87 259,89 263,88 267,91 271,91 275,88 279,91 284,89 288,90 292,92 296,92 300,89 304,91 308,89 312,89 316,88 320,87 324,87 328,89 332,86 336,87 340,90 344,90 348,90 353,88 357,90 361,88 365,91 369,88 373,88 377,88 381,90 385,89 389,91 393,91 397,92 401,90 405,89 409,89 413,90 417,89 419,89 419,100 0,100" fill="url(#grad)" stroke="none" />
<polyline points="0,92 4,92 8,92 12,92 16,92 20,92 24,91 28,92 32,92 36,92 40,92 44,91 49,92 53,91 57,89 61,90 65,90 69,89 73,91 77,89 81,88 85,86 89,89 93,87 97,89 101,90 106,90 110,87 114,88 118,89 122,89 126,89 130,89 134,89 138,88 142,88 146,86 150,87 154,88 158,90 162,90 166,86 170,87 174,88 178,85 182,86 186,87 191,87 195,82 199,84 203,85 207,87 211,83 215,86 219,90 223,86 227,88 231,90 235,90 239,91 243,89 247,87 251,88 255,87 259,89 263,88 267,91 271,91 275,88 279,91 284,89 288,90 292,92 296,92 300,89 304,91 308,89 312,89 316,88 320,87 324,87 328,89 332,86 336,87 340,90 344,90 348,90 353,88 357,90 361,88 365,91 369,88 373,88 377,88 381,90 385,89 389,91 393,91 397,92 401,90 405,89 409,89 413,90 417,89 419,89" stroke="#2963da" fill="none" stroke-width="3" stroke-linejoin="round" stroke-linecap="round" />
</svg>