<svg width="419" height="100" viewBox="0 0 419 100" xmlns="http://www.w3.org/2000/svg" xmlns:xlink="http://www.w3.org/1999/xlink"><defs>
<linearGradient id="grad" x1="0%" y1="0%" x2="0%" y2="100%">
<stop offset="0%" stop-color="#2963da" stop-opacity="0.40"/>
<stop offset="100%" stop-color="#070720" stop-opacity="0.20"/>
</linearGradient>
</defs>
<rect x="0" y="0" width="419" height="100" fill="none" />
<polygon points="0,90 4,88 8,85 12,85 16,84 20,87 24,90 28,92 32,92 36,92 40,92 44,92 48,92 52,92 56,92 60,92 64,92 68,92 73,92 77,92 81,92 86,92 90,92 94,92 98,92 102,92 106,92 110,92 115,92 119,92 123,92 127,91 131,91 135,92 139,91 143,92 147,91 152,91 156,89 160,89 164,90 168,90 172,91 176,91 180,91 184,91 188,91 192,90 196,90 200,91 204,92 209,92 213,92 217,92 221,92 225,91 229,91 233,91 237,91 241,91 245,91 249,91 253,90 257,90 262,90 266,89 270,88 274,85 278,84 282,82 286,83 290,84 294,87 298,88 302,89 306,89 310,90 314,90 318,91 323,91 327,91 331,90 335,90 339,90 343,90 347,91 351,91 355,92 360,91 364,91 368,92 372,92 376,92 380,92 384,92 388,92 392,92 396,92 401,92 405,92 409,92 413,92 417,92 419,92 419,100 0,100" fill="url(#grad)" stroke="none" />
<polyline points="0,90 4,88 8,85 12,85 16,84 20,87 24,90 28,92 32,92 36,92 40,92 44,92 48,92 52,92 56,92 60,92 64,92 68,92 73,92 77,92 81,92 86,92 90,92 94,92 98,92 102,92 106,92 110,92 115,92 119,92 123,92 127,91 131,91 135,92 139,91 143,92 147,91 152,91 156,89 160,89 164,90 168,90 172,91 176,91 180,91 184,91 188,91 192,90 196,90 200,91 204,92 209,92 213,92 217,92 221,92 225,91 229,91 233,91 237,91 241,91 245,91 249,91 253,90 257,90 262,90 266,89 270,88 274,85 278,84 282,82 286,83 290,84 294,87 298,88 302,89 306,89 310,90 314,90 318,91 323,91 327,91 331,90 335,90 339,90 343,90 347,91 351,91 355,92 360,91 364,91 368,92 372,92 376,92 380,92 384,92 388,92 392,92 396,92 401,92 405,92 409,92 413,92 417,92 419,92" stroke="#2963da" fill="none" stroke-width="3" stroke-linejoin="round" stroke-linecap="round" />
</svg>