<svg width="419" height="100" viewBox="0 0 419 100" xmlns="http://www.w3.org/2000/svg" xmlns:xlink="http://www.w3.org/1999/xlink"><defs>
<linearGradient id="grad" x1="0%" y1="0%" x2="0%" y2="100%">
<stop offset="0%" stop-color="#2963da" stop-opacity="0.40"/>
<stop offset="100%" stop-color="#070720" stop-opacity="0.20"/>
</linearGradient>
</defs>
<rect x="0" y="0" width="419" height="100" fill="none" />
<polygon points="0,92 4,92 8,92 12,92 16,92 20,92 25,92 29,92 33,92 37,91 42,92 46,91 50,92 54,92 58,92 62,92 66,92 71,92 75,92 79,91 83,91 87,90 91,90 95,89 99,89 103,89 108,89 112,90 116,90 120,91 124,90 128,88 132,87 136,87 140,86 144,87 148,88 153,87 157,89 161,89 165,88 169,90 173,87 177,90 181,89 185,89 189,91 194,88 198,88 202,88 206,88 210,88 214,88 218,91 222,89 226,89 230,91 234,90 238,92 242,92 246,91 250,89 255,89 259,88 263,89 267,89 271,89 275,90 279,90 283,91 287,92 291,92 295,91 299,89 303,88 307,88 311,91 316,89 320,89 324,92 328,90 332,92 336,92 340,91 344,90 348,89 352,88 356,89 360,90 364,89 368,89 372,91 376,90 380,92 384,92 388,91 393,89 397,89 401,90 405,89 409,89 413,89 417,89 419,89 419,100 0,100" fill="url(#grad)" stroke="none" />
<polyline points="0,92 4,92 8,92 12,92 16,92 20,92 25,92 29,92 33,92 37,91 42,92 46,91 50,92 54,92 58,92 62,92 66,92 71,92 75,92 79,91 83,91 87,90 91,90 95,89 99,89 103,89 108,89 112,90 116,90 120,91 124,90 128,88 132,87 136,87 140,86 144,87 148,88 153,87 157,89 161,89 165,88 169,90 173,87 177,90 181,89 185,89 189,91 194,88 198,88 202,88 206,88 210,88 214,88 218,91 222,89 226,89 230,91 234,90 238,92 242,92 246,91 250,89 255,89 259,88 263,89 267,89 271,89 275,90 279,90 283,91 287,92 291,92 295,91 299,89 303,88 307,88 311,91 316,89 320,89 324,92 328,90 332,92 336,92 340,91 344,90 348,89 352,88 356,89 360,90 364,89 368,89 372,91 376,90 380,92 384,92 388,91 393,89 397,89 401,90 405,89 409,89 413,89 417,89 419,89" stroke="#2963da" fill="none" stroke-width="3" stroke-linejoin="round" stroke-linecap="round" />
</svg>