<svg width="419" height="100" viewBox="0 0 419 100" xmlns="http://www.w3.org/2000/svg" xmlns:xlink="http://www.w3.org/1999/xlink"><defs>
<linearGradient id="grad" x1="0%" y1="0%" x2="0%" y2="100%">
<stop offset="0%" stop-color="#2963da" stop-opacity="0.40"/>
<stop offset="100%" stop-color="#070720" stop-opacity="0.20"/>
</linearGradient>
</defs>
<rect x="0" y="0" width="419" height="100" fill="none" />
<polygon points="0,92 4,92 8,92 12,92 16,92 20,92 24,92 28,92 32,92 36,92 40,92 44,91 48,91 52,90 56,87 60,84 64,84 68,86 72,86 76,89 80,91 85,92 89,92 93,92 97,92 101,92 105,92 109,92 113,92 117,92 121,92 125,91 129,91 133,91 137,90 141,88 145,88 149,90 153,88 157,86 161,84 165,86 169,86 173,86 178,85 182,84 186,80 190,78 194,76 198,75 202,75 206,75 210,72 214,68 218,65 222,60 226,58 230,65 234,71 238,76 242,82 246,87 250,90 254,90 258,90 262,90 267,90 271,90 275,90 279,90 283,90 287,90 291,89 295,89 299,89 303,89 307,89 311,89 315,89 319,89 323,88 327,87 331,88 335,88 339,88 343,87 347,87 352,87 356,86 360,86 364,85 368,84 372,82 376,80 380,77 384,74 388,71 392,66 396,62 400,66 404,71 408,66 412,61 416,55 419,54 419,100 0,100" fill="url(#grad)" stroke="none" />
<polyline points="0,92 4,92 8,92 12,92 16,92 20,92 24,92 28,92 32,92 36,92 40,92 44,91 48,91 52,90 56,87 60,84 64,84 68,86 72,86 76,89 80,91 85,92 89,92 93,92 97,92 101,92 105,92 109,92 113,92 117,92 121,92 125,91 129,91 133,91 137,90 141,88 145,88 149,90 153,88 157,86 161,84 165,86 169,86 173,86 178,85 182,84 186,80 190,78 194,76 198,75 202,75 206,75 210,72 214,68 218,65 222,60 226,58 230,65 234,71 238,76 242,82 246,87 250,90 254,90 258,90 262,90 267,90 271,90 275,90 279,90 283,90 287,90 291,89 295,89 299,89 303,89 307,89 311,89 315,89 319,89 323,88 327,87 331,88 335,88 339,88 343,87 347,87 352,87 356,86 360,86 364,85 368,84 372,82 376,80 380,77 384,74 388,71 392,66 396,62 400,66 404,71 408,66 412,61 416,55 419,54" stroke="#2963da" fill="none" stroke-width="3" stroke-linejoin="round" stroke-linecap="round" />
</svg>