<svg width="419" height="100" viewBox="0 0 419 100" xmlns="http://www.w3.org/2000/svg" xmlns:xlink="http://www.w3.org/1999/xlink"><defs>
<linearGradient id="grad" x1="0%" y1="0%" x2="0%" y2="100%">
<stop offset="0%" stop-color="#2963da" stop-opacity="0.40"/>
<stop offset="100%" stop-color="#070720" stop-opacity="0.20"/>
</linearGradient>
</defs>
<rect x="0" y="0" width="419" height="100" fill="none" />
<polygon points="0,92 4,92 8,92 12,92 17,92 21,92 25,92 29,91 33,89 38,89 43,91 47,90 51,88 55,87 59,88 63,90 67,91 72,90 76,90 80,90 85,90 89,90 93,89 97,89 102,89 107,89 111,89 115,89 120,89 124,88 128,88 132,88 137,88 141,87 145,85 149,83 153,80 157,80 161,77 165,74 170,77 174,79 178,81 182,82 186,84 190,85 194,85 199,86 203,84 207,84 211,82 215,78 219,76 223,78 228,83 232,85 236,86 240,85 244,84 249,84 253,83 258,80 262,77 266,80 270,81 274,81 278,81 282,80 286,80 290,77 294,74 298,70 302,68 307,67 311,71 315,74 319,77 323,78 327,78 331,78 335,77 339,76 344,76 348,76 352,75 356,74 360,74 364,73 368,72 372,71 376,69 380,68 384,68 389,67 393,66 397,63 401,58 405,53 409,48 413,44 418,42 419,42 419,100 0,100" fill="url(#grad)" stroke="none" />
<polyline points="0,92 4,92 8,92 12,92 17,92 21,92 25,92 29,91 33,89 38,89 43,91 47,90 51,88 55,87 59,88 63,90 67,91 72,90 76,90 80,90 85,90 89,90 93,89 97,89 102,89 107,89 111,89 115,89 120,89 124,88 128,88 132,88 137,88 141,87 145,85 149,83 153,80 157,80 161,77 165,74 170,77 174,79 178,81 182,82 186,84 190,85 194,85 199,86 203,84 207,84 211,82 215,78 219,76 223,78 228,83 232,85 236,86 240,85 244,84 249,84 253,83 258,80 262,77 266,80 270,81 274,81 278,81 282,80 286,80 290,77 294,74 298,70 302,68 307,67 311,71 315,74 319,77 323,78 327,78 331,78 335,77 339,76 344,76 348,76 352,75 356,74 360,74 364,73 368,72 372,71 376,69 380,68 384,68 389,67 393,66 397,63 401,58 405,53 409,48 413,44 418,42 419,42" stroke="#2963da" fill="none" stroke-width="3" stroke-linejoin="round" stroke-linecap="round" />
</svg>