<svg width="419" height="100" viewBox="0 0 419 100" xmlns="http://www.w3.org/2000/svg" xmlns:xlink="http://www.w3.org/1999/xlink"><defs>
<linearGradient id="grad" x1="0%" y1="0%" x2="0%" y2="100%">
<stop offset="0%" stop-color="#2963da" stop-opacity="0.40"/>
<stop offset="100%" stop-color="#070720" stop-opacity="0.20"/>
</linearGradient>
</defs>
<rect x="0" y="0" width="419" height="100" fill="none" />
<polygon points="0,92 4,91 8,92 12,91 16,90 20,86 24,88 28,88 32,88 36,90 40,92 44,92 48,92 52,92 56,92 61,92 65,92 69,90 73,85 77,81 81,79 85,82 89,84 93,86 97,87 101,86 105,87 109,90 114,91 118,91 122,91 126,92 130,91 134,91 138,90 142,89 146,90 150,90 154,91 158,91 162,91 166,91 170,91 175,91 179,91 183,91 187,92 191,91 195,91 199,91 203,92 207,92 211,92 215,92 219,91 224,91 228,91 232,91 236,91 240,89 244,87 249,90 253,92 257,92 261,92 265,92 269,92 273,92 277,91 281,91 285,91 289,92 293,91 298,91 302,92 306,90 310,88 314,86 318,88 322,87 326,88 330,91 334,91 338,92 342,92 347,92 351,92 355,92 359,92 363,88 367,84 371,79 375,80 379,83 383,85 387,87 391,88 395,86 399,89 404,90 408,92 412,91 416,92 419,92 419,100 0,100" fill="url(#grad)" stroke="none" />
<polyline points="0,92 4,91 8,92 12,91 16,90 20,86 24,88 28,88 32,88 36,90 40,92 44,92 48,92 52,92 56,92 61,92 65,92 69,90 73,85 77,81 81,79 85,82 89,84 93,86 97,87 101,86 105,87 109,90 114,91 118,91 122,91 126,92 130,91 134,91 138,90 142,89 146,90 150,90 154,91 158,91 162,91 166,91 170,91 175,91 179,91 183,91 187,92 191,91 195,91 199,91 203,92 207,92 211,92 215,92 219,91 224,91 228,91 232,91 236,91 240,89 244,87 249,90 253,92 257,92 261,92 265,92 269,92 273,92 277,91 281,91 285,91 289,92 293,91 298,91 302,92 306,90 310,88 314,86 318,88 322,87 326,88 330,91 334,91 338,92 342,92 347,92 351,92 355,92 359,92 363,88 367,84 371,79 375,80 379,83 383,85 387,87 391,88 395,86 399,89 404,90 408,92 412,91 416,92 419,92" stroke="#2963da" fill="none" stroke-width="3" stroke-linejoin="round" stroke-linecap="round" />
</svg>