<svg width="419" height="100" viewBox="0 0 419 100" xmlns="http://www.w3.org/2000/svg" xmlns:xlink="http://www.w3.org/1999/xlink"><defs>
<linearGradient id="grad" x1="0%" y1="0%" x2="0%" y2="100%">
<stop offset="0%" stop-color="#2963da" stop-opacity="0.40"/>
<stop offset="100%" stop-color="#070720" stop-opacity="0.20"/>
</linearGradient>
</defs>
<rect x="0" y="0" width="419" height="100" fill="none" />
<polygon points="0,92 4,91 8,91 12,91 17,91 21,90 26,90 30,90 34,89 38,88 42,88 48,88 52,88 57,87 61,87 65,86 69,86 74,85 78,85 82,84 87,85 91,85 95,85 100,85 106,86 110,86 114,86 118,85 122,86 127,85 131,84 135,84 139,84 144,83 148,83 152,82 156,81 160,81 165,80 169,80 173,79 177,79 181,78 185,78 189,77 194,76 198,75 203,74 207,72 211,70 215,67 220,64 224,62 228,61 232,60 236,62 240,64 244,66 248,68 252,70 257,71 261,73 265,75 269,76 273,79 278,81 282,82 286,83 290,84 294,84 298,85 303,85 307,85 311,86 315,86 319,86 323,85 327,85 331,84 336,83 340,82 344,80 349,81 353,83 357,82 361,80 365,78 369,76 373,73 377,73 381,74 385,75 389,76 393,76 398,79 402,81 406,82 410,82 414,84 419,85 419,100 0,100" fill="url(#grad)" stroke="none" />
<polyline points="0,92 4,91 8,91 12,91 17,91 21,90 26,90 30,90 34,89 38,88 42,88 48,88 52,88 57,87 61,87 65,86 69,86 74,85 78,85 82,84 87,85 91,85 95,85 100,85 106,86 110,86 114,86 118,85 122,86 127,85 131,84 135,84 139,84 144,83 148,83 152,82 156,81 160,81 165,80 169,80 173,79 177,79 181,78 185,78 189,77 194,76 198,75 203,74 207,72 211,70 215,67 220,64 224,62 228,61 232,60 236,62 240,64 244,66 248,68 252,70 257,71 261,73 265,75 269,76 273,79 278,81 282,82 286,83 290,84 294,84 298,85 303,85 307,85 311,86 315,86 319,86 323,85 327,85 331,84 336,83 340,82 344,80 349,81 353,83 357,82 361,80 365,78 369,76 373,73 377,73 381,74 385,75 389,76 393,76 398,79 402,81 406,82 410,82 414,84 419,85" stroke="#2963da" fill="none" stroke-width="3" stroke-linejoin="round" stroke-linecap="round" />
</svg>