<svg width="419" height="100" viewBox="0 0 419 100" xmlns="http://www.w3.org/2000/svg" xmlns:xlink="http://www.w3.org/1999/xlink"><defs>
<linearGradient id="grad" x1="0%" y1="0%" x2="0%" y2="100%">
<stop offset="0%" stop-color="#2963da" stop-opacity="0.40"/>
<stop offset="100%" stop-color="#070720" stop-opacity="0.20"/>
</linearGradient>
</defs>
<rect x="0" y="0" width="419" height="100" fill="none" />
<polygon points="0,92 4,92 8,89 12,90 16,90 20,89 24,90 29,90 33,91 37,91 41,90 45,90 49,90 53,90 58,89 62,89 66,89 70,87 74,88 78,87 82,88 86,87 91,86 95,86 99,84 103,85 107,83 111,83 115,83 119,84 123,84 127,83 131,83 135,83 140,82 144,82 148,81 152,80 156,79 160,76 164,71 168,74 172,71 177,76 181,82 185,86 189,89 193,90 197,91 201,92 206,92 210,92 214,92 218,91 222,89 226,90 230,92 234,92 238,89 242,85 246,82 250,79 254,80 258,79 262,83 266,82 271,84 275,86 279,87 283,82 287,82 291,83 295,79 299,74 303,70 307,66 311,61 315,56 319,54 323,57 328,62 332,67 336,73 340,78 344,81 348,84 352,86 357,87 361,89 365,90 369,91 373,92 377,92 381,92 385,92 390,92 394,92 398,92 402,92 406,92 410,92 414,92 418,92 419,92 419,100 0,100" fill="url(#grad)" stroke="none" />
<polyline points="0,92 4,92 8,89 12,90 16,90 20,89 24,90 29,90 33,91 37,91 41,90 45,90 49,90 53,90 58,89 62,89 66,89 70,87 74,88 78,87 82,88 86,87 91,86 95,86 99,84 103,85 107,83 111,83 115,83 119,84 123,84 127,83 131,83 135,83 140,82 144,82 148,81 152,80 156,79 160,76 164,71 168,74 172,71 177,76 181,82 185,86 189,89 193,90 197,91 201,92 206,92 210,92 214,92 218,91 222,89 226,90 230,92 234,92 238,89 242,85 246,82 250,79 254,80 258,79 262,83 266,82 271,84 275,86 279,87 283,82 287,82 291,83 295,79 299,74 303,70 307,66 311,61 315,56 319,54 323,57 328,62 332,67 336,73 340,78 344,81 348,84 352,86 357,87 361,89 365,90 369,91 373,92 377,92 381,92 385,92 390,92 394,92 398,92 402,92 406,92 410,92 414,92 418,92 419,92" stroke="#2963da" fill="none" stroke-width="3" stroke-linejoin="round" stroke-linecap="round" />
</svg>