<svg width="419" height="100" viewBox="0 0 419 100" xmlns="http://www.w3.org/2000/svg" xmlns:xlink="http://www.w3.org/1999/xlink"><defs>
<linearGradient id="grad" x1="0%" y1="0%" x2="0%" y2="100%">
<stop offset="0%" stop-color="#2963da" stop-opacity="0.40"/>
<stop offset="100%" stop-color="#070720" stop-opacity="0.20"/>
</linearGradient>
</defs>
<rect x="0" y="0" width="419" height="100" fill="none" />
<polygon points="0,92 4,92 8,92 13,92 18,92 26,92 30,92 35,92 41,92 48,92 54,92 60,92 65,92 72,92 78,92 84,92 91,92 98,92 102,92 107,92 111,92 116,92 121,92 125,92 131,92 136,92 140,92 145,92 149,92 155,92 159,92 164,92 169,92 173,92 178,92 182,92 187,92 192,92 196,92 201,92 205,92 212,92 219,92 224,92 228,92 233,92 237,92 243,92 250,92 255,92 261,92 266,92 270,92 275,92 279,92 284,92 289,92 293,92 298,92 303,92 307,92 312,92 317,92 322,92 326,92 331,92 336,92 340,92 345,92 349,92 354,92 359,92 366,92 370,92 375,92 379,92 384,92 391,92 398,92 402,92 407,92 412,92 416,92 419,92 419,100 0,100" fill="url(#grad)" stroke="none" />
<polyline points="0,92 4,92 8,92 13,92 18,92 26,92 30,92 35,92 41,92 48,92 54,92 60,92 65,92 72,92 78,92 84,92 91,92 98,92 102,92 107,92 111,92 116,92 121,92 125,92 131,92 136,92 140,92 145,92 149,92 155,92 159,92 164,92 169,92 173,92 178,92 182,92 187,92 192,92 196,92 201,92 205,92 212,92 219,92 224,92 228,92 233,92 237,92 243,92 250,92 255,92 261,92 266,92 270,92 275,92 279,92 284,92 289,92 293,92 298,92 303,92 307,92 312,92 317,92 322,92 326,92 331,92 336,92 340,92 345,92 349,92 354,92 359,92 366,92 370,92 375,92 379,92 384,92 391,92 398,92 402,92 407,92 412,92 416,92 419,92" stroke="#2963da" fill="none" stroke-width="3" stroke-linejoin="round" stroke-linecap="round" />
</svg>