<svg width="419" height="100" viewBox="0 0 419 100" xmlns="http://www.w3.org/2000/svg" xmlns:xlink="http://www.w3.org/1999/xlink"><defs>
<linearGradient id="grad" x1="0%" y1="0%" x2="0%" y2="100%">
<stop offset="0%" stop-color="#2963da" stop-opacity="0.40"/>
<stop offset="100%" stop-color="#070720" stop-opacity="0.20"/>
</linearGradient>
</defs>
<rect x="0" y="0" width="419" height="100" fill="none" />
<polygon points="0,88 4,86 8,86 12,87 16,89 20,90 24,92 28,92 32,90 36,88 40,87 44,84 48,82 52,84 56,84 60,84 65,85 69,88 73,88 77,90 81,92 85,92 89,92 93,91 97,89 101,86 105,84 109,83 113,83 117,82 121,81 125,80 129,81 134,82 138,79 142,80 146,80 150,79 154,77 158,75 162,76 166,80 170,81 174,82 178,85 182,84 186,83 190,81 194,80 198,78 202,75 206,73 211,71 215,72 219,75 223,77 227,80 231,82 235,85 239,83 243,82 247,81 251,82 255,85 259,88 263,88 267,89 272,89 276,89 280,89 284,84 288,79 292,76 296,71 300,69 304,71 309,75 313,80 317,84 321,86 325,87 329,88 333,87 337,87 341,87 345,87 349,86 353,86 357,87 361,86 365,86 369,86 374,86 378,85 382,85 386,85 390,85 394,83 398,77 402,74 406,71 410,68 414,64 418,61 419,61 419,100 0,100" fill="url(#grad)" stroke="none" />
<polyline points="0,88 4,86 8,86 12,87 16,89 20,90 24,92 28,92 32,90 36,88 40,87 44,84 48,82 52,84 56,84 60,84 65,85 69,88 73,88 77,90 81,92 85,92 89,92 93,91 97,89 101,86 105,84 109,83 113,83 117,82 121,81 125,80 129,81 134,82 138,79 142,80 146,80 150,79 154,77 158,75 162,76 166,80 170,81 174,82 178,85 182,84 186,83 190,81 194,80 198,78 202,75 206,73 211,71 215,72 219,75 223,77 227,80 231,82 235,85 239,83 243,82 247,81 251,82 255,85 259,88 263,88 267,89 272,89 276,89 280,89 284,84 288,79 292,76 296,71 300,69 304,71 309,75 313,80 317,84 321,86 325,87 329,88 333,87 337,87 341,87 345,87 349,86 353,86 357,87 361,86 365,86 369,86 374,86 378,85 382,85 386,85 390,85 394,83 398,77 402,74 406,71 410,68 414,64 418,61 419,61" stroke="#2963da" fill="none" stroke-width="3" stroke-linejoin="round" stroke-linecap="round" />
</svg>