<svg width="419" height="100" viewBox="0 0 419 100" xmlns="http://www.w3.org/2000/svg" xmlns:xlink="http://www.w3.org/1999/xlink"><defs>
<linearGradient id="grad" x1="0%" y1="0%" x2="0%" y2="100%">
<stop offset="0%" stop-color="#2963da" stop-opacity="0.40"/>
<stop offset="100%" stop-color="#070720" stop-opacity="0.20"/>
</linearGradient>
</defs>
<rect x="0" y="0" width="419" height="100" fill="none" />
<polygon points="0,91 4,91 8,92 12,91 16,90 20,91 24,90 28,91 32,91 36,90 41,90 45,90 49,90 53,90 57,90 61,90 65,90 69,90 73,90 77,89 82,89 86,89 90,91 94,91 98,91 102,91 106,90 110,90 114,91 118,92 122,92 126,92 130,92 134,91 138,92 142,92 146,92 151,92 155,92 159,92 163,92 167,92 171,92 175,92 179,92 184,92 188,92 192,92 196,92 200,92 204,92 208,92 212,92 217,92 221,92 225,92 229,92 233,92 237,92 241,92 245,92 249,92 253,91 258,92 262,91 266,91 270,91 274,91 278,91 282,91 286,91 290,91 294,92 298,92 302,92 307,92 311,92 315,92 319,92 323,92 327,92 331,92 335,92 339,92 343,91 347,91 351,91 355,91 360,91 364,91 368,91 372,91 376,91 380,91 384,92 388,92 392,92 396,92 401,92 405,92 409,91 413,92 417,92 419,92 419,100 0,100" fill="url(#grad)" stroke="none" />
<polyline points="0,91 4,91 8,92 12,91 16,90 20,91 24,90 28,91 32,91 36,90 41,90 45,90 49,90 53,90 57,90 61,90 65,90 69,90 73,90 77,89 82,89 86,89 90,91 94,91 98,91 102,91 106,90 110,90 114,91 118,92 122,92 126,92 130,92 134,91 138,92 142,92 146,92 151,92 155,92 159,92 163,92 167,92 171,92 175,92 179,92 184,92 188,92 192,92 196,92 200,92 204,92 208,92 212,92 217,92 221,92 225,92 229,92 233,92 237,92 241,92 245,92 249,92 253,91 258,92 262,91 266,91 270,91 274,91 278,91 282,91 286,91 290,91 294,92 298,92 302,92 307,92 311,92 315,92 319,92 323,92 327,92 331,92 335,92 339,92 343,91 347,91 351,91 355,91 360,91 364,91 368,91 372,91 376,91 380,91 384,92 388,92 392,92 396,92 401,92 405,92 409,91 413,92 417,92 419,92" stroke="#2963da" fill="none" stroke-width="3" stroke-linejoin="round" stroke-linecap="round" />
</svg>