<svg width="419" height="100" viewBox="0 0 419 100" xmlns="http://www.w3.org/2000/svg" xmlns:xlink="http://www.w3.org/1999/xlink"><defs>
<linearGradient id="grad" x1="0%" y1="0%" x2="0%" y2="100%">
<stop offset="0%" stop-color="#2963da" stop-opacity="0.40"/>
<stop offset="100%" stop-color="#070720" stop-opacity="0.20"/>
</linearGradient>
</defs>
<rect x="0" y="0" width="419" height="100" fill="none" />
<polygon points="0,92 4,92 8,92 12,92 16,92 20,92 24,92 28,91 33,91 37,91 41,92 45,92 49,91 53,92 58,92 62,92 66,92 70,92 74,92 78,92 82,92 86,92 90,92 94,92 99,92 103,92 107,92 111,92 115,92 119,91 123,90 127,90 131,92 135,88 140,89 144,90 148,91 152,90 156,89 160,90 164,90 168,90 172,89 177,89 181,89 185,89 189,88 193,88 198,88 202,88 206,87 210,86 214,86 219,86 223,86 227,86 231,87 235,89 239,89 243,86 247,88 251,91 255,92 259,89 263,92 267,90 271,92 275,92 280,92 284,92 288,92 292,92 296,92 300,92 304,88 308,91 312,91 316,91 321,92 325,92 329,92 333,91 337,91 341,92 345,92 349,92 353,89 357,92 361,90 365,92 369,92 373,92 378,92 382,92 386,92 390,92 394,92 398,88 402,91 406,91 410,91 414,92 419,92 419,100 0,100" fill="url(#grad)" stroke="none" />
<polyline points="0,92 4,92 8,92 12,92 16,92 20,92 24,92 28,91 33,91 37,91 41,92 45,92 49,91 53,92 58,92 62,92 66,92 70,92 74,92 78,92 82,92 86,92 90,92 94,92 99,92 103,92 107,92 111,92 115,92 119,91 123,90 127,90 131,92 135,88 140,89 144,90 148,91 152,90 156,89 160,90 164,90 168,90 172,89 177,89 181,89 185,89 189,88 193,88 198,88 202,88 206,87 210,86 214,86 219,86 223,86 227,86 231,87 235,89 239,89 243,86 247,88 251,91 255,92 259,89 263,92 267,90 271,92 275,92 280,92 284,92 288,92 292,92 296,92 300,92 304,88 308,91 312,91 316,91 321,92 325,92 329,92 333,91 337,91 341,92 345,92 349,92 353,89 357,92 361,90 365,92 369,92 373,92 378,92 382,92 386,92 390,92 394,92 398,88 402,91 406,91 410,91 414,92 419,92" stroke="#2963da" fill="none" stroke-width="3" stroke-linejoin="round" stroke-linecap="round" />
</svg>