<svg width="419" height="100" viewBox="0 0 419 100" xmlns="http://www.w3.org/2000/svg" xmlns:xlink="http://www.w3.org/1999/xlink"><defs>
<linearGradient id="grad" x1="0%" y1="0%" x2="0%" y2="100%">
<stop offset="0%" stop-color="#2963da" stop-opacity="0.40"/>
<stop offset="100%" stop-color="#070720" stop-opacity="0.20"/>
</linearGradient>
</defs>
<rect x="0" y="0" width="419" height="100" fill="none" />
<polygon points="0,92 4,92 8,92 12,91 16,90 20,90 24,91 28,90 33,91 37,90 41,90 45,90 49,90 53,90 58,91 62,90 66,90 70,90 74,89 78,90 83,89 87,89 91,89 95,88 99,88 103,87 107,87 111,86 116,84 120,84 124,83 128,82 132,83 136,84 140,87 144,86 149,87 153,89 157,90 161,88 165,88 170,88 174,87 178,87 182,87 186,86 190,84 194,85 198,83 203,83 207,82 211,81 215,82 220,85 224,87 228,88 232,89 236,89 241,89 245,89 249,89 253,87 257,86 261,86 265,84 269,82 274,82 278,83 282,86 286,86 290,85 294,84 298,82 303,83 307,84 311,83 315,81 319,83 324,81 328,80 332,79 336,78 340,78 344,79 348,75 353,74 357,78 361,80 365,79 369,76 373,75 377,75 381,72 385,69 390,74 394,73 398,77 402,73 406,69 410,66 415,59 419,54 419,100 0,100" fill="url(#grad)" stroke="none" />
<polyline points="0,92 4,92 8,92 12,91 16,90 20,90 24,91 28,90 33,91 37,90 41,90 45,90 49,90 53,90 58,91 62,90 66,90 70,90 74,89 78,90 83,89 87,89 91,89 95,88 99,88 103,87 107,87 111,86 116,84 120,84 124,83 128,82 132,83 136,84 140,87 144,86 149,87 153,89 157,90 161,88 165,88 170,88 174,87 178,87 182,87 186,86 190,84 194,85 198,83 203,83 207,82 211,81 215,82 220,85 224,87 228,88 232,89 236,89 241,89 245,89 249,89 253,87 257,86 261,86 265,84 269,82 274,82 278,83 282,86 286,86 290,85 294,84 298,82 303,83 307,84 311,83 315,81 319,83 324,81 328,80 332,79 336,78 340,78 344,79 348,75 353,74 357,78 361,80 365,79 369,76 373,75 377,75 381,72 385,69 390,74 394,73 398,77 402,73 406,69 410,66 415,59 419,54" stroke="#2963da" fill="none" stroke-width="3" stroke-linejoin="round" stroke-linecap="round" />
</svg>