<svg width="419" height="100" viewBox="0 0 419 100" xmlns="http://www.w3.org/2000/svg" xmlns:xlink="http://www.w3.org/1999/xlink"><defs>
<linearGradient id="grad" x1="0%" y1="0%" x2="0%" y2="100%">
<stop offset="0%" stop-color="#2963da" stop-opacity="0.40"/>
<stop offset="100%" stop-color="#070720" stop-opacity="0.20"/>
</linearGradient>
</defs>
<rect x="0" y="0" width="419" height="100" fill="none" />
<polygon points="0,91 4,91 8,91 12,91 16,91 20,91 24,90 28,90 32,91 36,90 40,90 44,90 48,91 52,90 56,90 60,90 64,90 68,90 72,90 76,90 80,90 84,90 89,90 93,90 97,90 101,90 105,90 109,90 113,90 117,90 121,90 125,90 129,91 133,91 137,90 141,91 145,91 149,91 153,91 157,92 161,91 165,92 169,92 173,91 177,92 182,92 186,92 190,92 194,91 198,92 202,91 206,92 210,91 214,92 218,91 222,92 226,92 230,91 234,92 238,92 242,92 246,92 250,92 254,92 258,90 262,92 266,92 270,89 275,91 279,92 283,91 287,92 291,92 295,92 299,92 303,92 307,92 311,92 315,92 319,92 323,91 327,90 331,91 335,92 339,91 343,92 347,92 351,92 356,91 360,92 364,92 368,92 372,91 376,92 380,92 384,90 388,92 392,92 396,92 400,92 404,92 408,91 412,91 416,90 419,89 419,100 0,100" fill="url(#grad)" stroke="none" />
<polyline points="0,91 4,91 8,91 12,91 16,91 20,91 24,90 28,90 32,91 36,90 40,90 44,90 48,91 52,90 56,90 60,90 64,90 68,90 72,90 76,90 80,90 84,90 89,90 93,90 97,90 101,90 105,90 109,90 113,90 117,90 121,90 125,90 129,91 133,91 137,90 141,91 145,91 149,91 153,91 157,92 161,91 165,92 169,92 173,91 177,92 182,92 186,92 190,92 194,91 198,92 202,91 206,92 210,91 214,92 218,91 222,92 226,92 230,91 234,92 238,92 242,92 246,92 250,92 254,92 258,90 262,92 266,92 270,89 275,91 279,92 283,91 287,92 291,92 295,92 299,92 303,92 307,92 311,92 315,92 319,92 323,91 327,90 331,91 335,92 339,91 343,92 347,92 351,92 356,91 360,92 364,92 368,92 372,91 376,92 380,92 384,90 388,92 392,92 396,92 400,92 404,92 408,91 412,91 416,90 419,89" stroke="#2963da" fill="none" stroke-width="3" stroke-linejoin="round" stroke-linecap="round" />
</svg>