<svg width="419" height="100" viewBox="0 0 419 100" xmlns="http://www.w3.org/2000/svg" xmlns:xlink="http://www.w3.org/1999/xlink"><defs>
<linearGradient id="grad" x1="0%" y1="0%" x2="0%" y2="100%">
<stop offset="0%" stop-color="#2963da" stop-opacity="0.40"/>
<stop offset="100%" stop-color="#070720" stop-opacity="0.20"/>
</linearGradient>
</defs>
<rect x="0" y="0" width="419" height="100" fill="none" />
<polygon points="0,92 4,92 8,91 12,91 16,91 20,91 25,92 29,92 33,92 38,92 42,91 46,92 50,92 54,87 58,89 63,92 67,92 71,92 75,92 80,92 84,91 88,91 92,92 96,92 100,91 104,91 108,92 113,91 117,92 121,92 125,92 129,92 134,91 138,92 142,92 146,87 150,89 154,92 159,92 163,92 167,92 171,92 175,91 179,91 184,92 188,92 192,91 196,91 200,92 204,91 208,92 212,92 216,92 221,92 225,91 230,92 234,92 238,87 242,89 246,92 251,92 255,92 259,92 263,92 267,91 271,91 275,92 279,92 284,91 288,91 292,91 297,91 301,91 305,91 309,90 313,90 318,86 322,81 326,74 330,66 334,60 338,58 342,61 346,66 350,73 354,79 358,85 362,90 366,91 371,91 375,91 379,91 383,91 387,91 392,92 396,92 400,92 404,92 408,91 412,92 416,91 419,91 419,100 0,100" fill="url(#grad)" stroke="none" />
<polyline points="0,92 4,92 8,91 12,91 16,91 20,91 25,92 29,92 33,92 38,92 42,91 46,92 50,92 54,87 58,89 63,92 67,92 71,92 75,92 80,92 84,91 88,91 92,92 96,92 100,91 104,91 108,92 113,91 117,92 121,92 125,92 129,92 134,91 138,92 142,92 146,87 150,89 154,92 159,92 163,92 167,92 171,92 175,91 179,91 184,92 188,92 192,91 196,91 200,92 204,91 208,92 212,92 216,92 221,92 225,91 230,92 234,92 238,87 242,89 246,92 251,92 255,92 259,92 263,92 267,91 271,91 275,92 279,92 284,91 288,91 292,91 297,91 301,91 305,91 309,90 313,90 318,86 322,81 326,74 330,66 334,60 338,58 342,61 346,66 350,73 354,79 358,85 362,90 366,91 371,91 375,91 379,91 383,91 387,91 392,92 396,92 400,92 404,92 408,91 412,92 416,91 419,91" stroke="#2963da" fill="none" stroke-width="3" stroke-linejoin="round" stroke-linecap="round" />
</svg>