<svg width="419" height="100" viewBox="0 0 419 100" xmlns="http://www.w3.org/2000/svg" xmlns:xlink="http://www.w3.org/1999/xlink"><defs>
<linearGradient id="grad" x1="0%" y1="0%" x2="0%" y2="100%">
<stop offset="0%" stop-color="#2963da" stop-opacity="0.40"/>
<stop offset="100%" stop-color="#070720" stop-opacity="0.20"/>
</linearGradient>
</defs>
<rect x="0" y="0" width="419" height="100" fill="none" />
<polygon points="0,86 4,84 8,84 12,84 16,85 20,87 24,87 28,86 32,84 36,80 41,77 45,75 49,71 53,69 57,66 61,70 65,72 69,75 73,80 77,83 81,87 85,89 89,90 93,87 97,84 102,82 106,80 110,79 114,78 118,76 122,73 126,71 130,71 134,70 138,72 142,73 146,74 150,73 155,72 159,72 163,74 167,72 171,76 175,77 179,76 183,77 187,78 191,79 195,83 200,82 204,82 208,85 212,87 216,86 220,86 224,84 228,84 232,84 236,84 240,83 246,84 250,83 255,84 259,87 263,90 267,92 271,88 276,82 280,80 284,81 288,83 292,83 296,81 300,82 304,81 308,81 312,79 317,77 321,77 325,80 329,83 333,82 338,80 342,80 346,81 350,81 354,81 358,81 362,77 366,75 370,79 375,79 379,79 383,77 387,78 391,75 395,73 399,74 403,76 408,76 412,76 416,75 419,75 419,100 0,100" fill="url(#grad)" stroke="none" />
<polyline points="0,86 4,84 8,84 12,84 16,85 20,87 24,87 28,86 32,84 36,80 41,77 45,75 49,71 53,69 57,66 61,70 65,72 69,75 73,80 77,83 81,87 85,89 89,90 93,87 97,84 102,82 106,80 110,79 114,78 118,76 122,73 126,71 130,71 134,70 138,72 142,73 146,74 150,73 155,72 159,72 163,74 167,72 171,76 175,77 179,76 183,77 187,78 191,79 195,83 200,82 204,82 208,85 212,87 216,86 220,86 224,84 228,84 232,84 236,84 240,83 246,84 250,83 255,84 259,87 263,90 267,92 271,88 276,82 280,80 284,81 288,83 292,83 296,81 300,82 304,81 308,81 312,79 317,77 321,77 325,80 329,83 333,82 338,80 342,80 346,81 350,81 354,81 358,81 362,77 366,75 370,79 375,79 379,79 383,77 387,78 391,75 395,73 399,74 403,76 408,76 412,76 416,75 419,75" stroke="#2963da" fill="none" stroke-width="3" stroke-linejoin="round" stroke-linecap="round" />
</svg>